<svg width="23" height="19" viewBox="0 0 23 19" fill="none" xmlns="http://www.w3.org/2000/svg">
<path d="M15.2667 4.20001C15.2667 6.18823 13.6549 7.80001 11.6667 7.80001C9.67843 7.80001 8.06665 6.18823 8.06665 4.20001C8.06665 2.21178 9.67843 0.600006 11.6667 0.600006C13.6549 0.600006 15.2667 2.21178 15.2667 4.20001Z" fill="#2CBB69"/>
<path d="M21.2667 6.60001C21.2667 7.92549 20.1921 9.00001 18.8667 9.00001C17.5412 9.00001 16.4667 7.92549 16.4667 6.60001C16.4667 5.27452 17.5412 4.20001 18.8667 4.20001C20.1921 4.20001 21.2667 5.27452 21.2667 6.60001Z" fill="#2CBB69"/>
<path d="M16.4667 15C16.4667 12.349 14.3176 10.2 11.6667 10.2C9.01569 10.2 6.86665 12.349 6.86665 15V18.6H16.4667V15Z" fill="#2CBB69"/>
<path d="M6.86665 6.60001C6.86665 7.92549 5.79214 9.00001 4.46665 9.00001C3.14117 9.00001 2.06665 7.92549 2.06665 6.60001C2.06665 5.27452 3.14117 4.20001 4.46665 4.20001C5.79214 4.20001 6.86665 5.27452 6.86665 6.60001Z" fill="#2CBB69"/>
<path d="M18.8667 18.6V15C18.8667 13.735 18.5404 12.5462 17.9675 11.5132C18.2549 11.4393 18.5562 11.4 18.8667 11.4C20.8549 11.4 22.4667 13.0118 22.4667 15V18.6H18.8667Z" fill="#2CBB69"/>
<path d="M5.36577 11.5132C4.79287 12.5462 4.46665 13.735 4.46665 15V18.6H0.866653V15C0.866653 13.0118 2.47843 11.4 4.46665 11.4C4.7771 11.4 5.07838 11.4393 5.36577 11.5132Z" fill="#2CBB69"/>
</svg>
