<svg width="20" height="20" viewBox="0 0 20 20" fill="none" xmlns="http://www.w3.org/2000/svg">
<path fill-rule="evenodd" clip-rule="evenodd" d="M19.6 9.99999C19.6 15.3019 15.3019 19.6 10 19.6C4.69808 19.6 0.400015 15.3019 0.400015 9.99999C0.400015 4.69806 4.69808 0.399994 10 0.399994C15.3019 0.399994 19.6 4.69806 19.6 9.99999ZM12.4 6.39999C12.4 7.72548 11.3255 8.79999 10 8.79999C8.67453 8.79999 7.60002 7.72548 7.60002 6.39999C7.60002 5.07451 8.67453 3.99999 10 3.99999C11.3255 3.99999 12.4 5.07451 12.4 6.39999ZM9.99993 11.2C7.57888 11.2 5.49275 12.6339 4.5445 14.6989C5.86485 16.2304 7.8192 17.2 9.99999 17.2C12.1807 17.2 14.1351 16.2305 15.4554 14.699C14.5072 12.634 12.421 11.2 9.99993 11.2Z" fill="#2CBB69"/>
</svg>
