<svg width="28" height="28" viewBox="0 0 28 28" fill="none" xmlns="http://www.w3.org/2000/svg">
    <path fill-rule="evenodd" clip-rule="evenodd"
          d="M13.9998 0.666748C6.63984 0.666748 0.666504 6.64008 0.666504 14.0001C0.666504 21.3601 6.63984 27.3334 13.9998 27.3334C21.3598 27.3334 27.3332 21.3601 27.3332 14.0001C27.3332 6.64008 21.3598 0.666748 13.9998 0.666748ZM13.9998 7.33342C13.2665 7.33342 12.6665 7.93341 12.6665 8.66675V12.6667H8.6665C7.93317 12.6667 7.33317 13.2667 7.33317 14.0001C7.33317 14.7334 7.93317 15.3334 8.6665 15.3334H12.6665V19.3334C12.6665 20.0667 13.2665 20.6667 13.9998 20.6667C14.7332 20.6667 15.3332 20.0667 15.3332 19.3334V15.3334H19.3332C20.0665 15.3334 20.6665 14.7334 20.6665 14.0001C20.6665 13.2667 20.0665 12.6667 19.3332 12.6667H15.3332V8.66675C15.3332 7.93341 14.7332 7.33342 13.9998 7.33342ZM3.33317 14.0001C3.33317 19.8801 8.11984 24.6667 13.9998 24.6667C19.8798 24.6667 24.6665 19.8801 24.6665 14.0001C24.6665 8.12008 19.8798 3.33341 13.9998 3.33341C8.11984 3.33341 3.33317 8.12008 3.33317 14.0001Z"
          fill="#FB8A76"/>
</svg>
