<svg viewBox="0 0 30 28" fill="none" xmlns="http://www.w3.org/2000/svg">
    <path fill-rule="evenodd" clip-rule="evenodd" d="M24.643 27.9995H5.35742V25.8457H24.643V27.9995Z" fill="#FB8A76"/>
    <path fill-rule="evenodd" clip-rule="evenodd" d="M11.2393 6.81658C9.47894 7.12242 8.19646 8.62145 7.98646 10.4048L6.42969 23.6914H23.5724L22.0124 10.3865C21.8045 8.61175 20.5338 7.11596 18.7831 6.80797C16.1582 6.34598 13.9703 6.34167 11.2393 6.81658ZM12.5689 11.4666C12.597 11.1868 12.5152 10.9071 12.3408 10.6872C12.1664 10.4673 11.9134 10.3246 11.6358 10.2898C11.3582 10.2549 11.078 10.3305 10.8552 10.5005C10.6323 10.6705 10.4845 10.9214 10.4432 11.1995L9.47359 18.994C9.45252 19.136 9.45992 19.2808 9.49534 19.4199C9.53076 19.559 9.59349 19.6895 9.67984 19.8039C9.76619 19.9183 9.87442 20.0141 9.99816 20.0858C10.1219 20.1575 10.2587 20.2036 10.4004 20.2214C10.5421 20.2392 10.686 20.2284 10.8235 20.1895C10.961 20.1506 11.0893 20.0845 11.201 19.995C11.3127 19.9055 11.4055 19.7945 11.4739 19.6685C11.5423 19.5424 11.5849 19.4039 11.5993 19.2611L12.5689 11.4666Z" fill="#FB8A76"/>
    <path d="M3.21426 15.0769C3.21426 15.4398 3.23033 15.7984 3.26247 16.1538H0V14H3.26247C3.23033 14.3554 3.21426 14.714 3.21426 15.0769Z" fill="#FB8A76"/>
    <path d="M5.37029 8.24449C4.95707 8.83212 4.59808 9.45643 4.2978 10.1097L1.47461 8.47064L2.54603 6.60547L5.37029 8.24449Z" fill="#FB8A76"/>
    <path d="M10.0576 4.31895C9.40509 4.62371 8.78474 4.98554 8.20403 5.39799L6.57227 2.55931L8.42796 1.48242L10.0576 4.32002V4.31895Z" fill="#FB8A76"/>
    <path d="M15.0011 3.23067C14.64 3.23067 14.2833 3.24682 13.9297 3.27913V0H16.0725V3.27913C15.7163 3.24689 15.3588 3.23072 15.0011 3.23067Z" fill="#FB8A76"/>
    <path d="M21.7971 5.39799C21.2124 4.98271 20.5913 4.62189 19.9414 4.32002L21.5721 1.48242L23.4278 2.55931L21.7971 5.39799Z" fill="#FB8A76"/>
    <path d="M25.7025 10.1086C25.4017 9.45606 25.0424 8.83247 24.6289 8.24557L27.4532 6.60547L28.5246 8.47064L25.7014 10.1086H25.7025Z" fill="#FB8A76"/>
    <path d="M26.7865 15.0769C26.7865 14.714 26.7704 14.3554 26.7383 14H30.0007V16.1538H26.7383C26.7704 15.7984 26.7865 15.4398 26.7865 15.0769Z" fill="#FB8A76"/>
</svg>
