<svg viewBox="0 0 13 12" fill="none" xmlns="http://www.w3.org/2000/svg">
<path fill-rule="evenodd" clip-rule="evenodd" d="M0.50061 5.99905C0.50061 5.80014 0.579628 5.60937 0.72028 5.46872C0.860932 5.32807 1.0517 5.24905 1.25061 5.24905L9.94011 5.24905L6.71961 2.03005C6.64988 1.96032 6.59457 1.87754 6.55683 1.78643C6.51909 1.69532 6.49967 1.59767 6.49967 1.49905C6.49967 1.40044 6.51909 1.30279 6.55683 1.21168C6.59457 1.12057 6.64988 1.03778 6.71961 0.968052C6.78934 0.898321 6.87213 0.843006 6.96324 0.805268C7.05435 0.767529 7.152 0.748106 7.25061 0.748106C7.34923 0.748106 7.44688 0.767529 7.53799 0.805268C7.6291 0.843006 7.71188 0.898321 7.78161 0.968052L12.2816 5.46805C12.3515 5.53772 12.4069 5.62049 12.4447 5.7116C12.4825 5.80272 12.502 5.9004 12.502 5.99905C12.502 6.0977 12.4825 6.19539 12.4447 6.2865C12.4069 6.37762 12.3515 6.46038 12.2816 6.53005L7.78161 11.0301C7.64078 11.1709 7.44977 11.25 7.25061 11.25C7.05145 11.25 6.86044 11.1709 6.71961 11.0301C6.57878 10.8892 6.49966 10.6982 6.49966 10.4991C6.49966 10.2999 6.57878 10.1089 6.71961 9.96805L9.94011 6.74905L1.25061 6.74905C1.0517 6.74905 0.860932 6.67003 0.72028 6.52938C0.579627 6.38873 0.50061 6.19796 0.50061 5.99905Z" fill="white"/>
</svg>
