<svg width="50" height="50" viewBox="0 0 50 50" fill="none" xmlns="http://www.w3.org/2000/svg">
<path d="M25 46.5C37.9787 46.5 48.5 36.8741 48.5 25C48.5 13.1259 37.9787 3.5 25 3.5C12.0213 3.5 1.5 13.1259 1.5 25C1.5 36.8741 12.0213 46.5 25 46.5Z" fill="#FFE500"/>
<path d="M25 42.5C11.7 42.5 2.594 33.933 1.6 23C1.54 23.659 1.5 24.325 1.5 25C1.5 36.874 10.9 46.5 25 46.5C39.1 46.5 48.5 36.874 48.5 25C48.5 24.324 48.461 23.658 48.4 23C47.406 33.933 38.3 42.5 25 42.5Z" fill="#F2C100"/>
<path d="M25 7.00301C28.5899 7.00301 31.5 6.55484 31.5 6.00201C31.5 5.44917 28.5899 5.00101 25 5.00101C21.4101 5.00101 18.5 5.44917 18.5 6.00201C18.5 6.55484 21.4101 7.00301 25 7.00301Z" fill="#FFFACF"/>
<path d="M25 46.5C37.9787 46.5 48.5 36.8741 48.5 25C48.5 13.1259 37.9787 3.5 25 3.5C12.0213 3.5 1.5 13.1259 1.5 25C1.5 36.8741 12.0213 46.5 25 46.5Z" stroke="#45413C" stroke-width="1.25" stroke-miterlimit="10"/>
<path d="M34.75 23.264C34.75 23.264 30.85 24.564 30.85 25.214C30.85 25.864 34.75 27.164 34.75 27.164M15.25 23.264C15.25 23.264 19.15 24.564 19.15 25.214C19.15 25.864 15.25 27.164 15.25 27.164M34.356 33.7L33.336 32.055C33.2567 31.9494 33.154 31.8637 33.0359 31.8047C32.9177 31.7457 32.7875 31.715 32.6555 31.715C32.5235 31.715 32.3933 31.7457 32.2751 31.8047C32.157 31.8637 32.0543 31.9494 31.975 32.055L30.784 33.643C30.7048 33.7488 30.6021 33.8346 30.484 33.8938C30.3659 33.9529 30.2356 33.9837 30.1035 33.9837C29.9714 33.9837 29.8411 33.9529 29.723 33.8938C29.6049 33.8346 29.5022 33.7488 29.423 33.643L28.232 32.055C28.1527 31.9494 28.05 31.8637 27.9319 31.8047C27.8137 31.7457 27.6835 31.715 27.5515 31.715C27.4195 31.715 27.2893 31.7457 27.1711 31.8047C27.053 31.8637 26.9503 31.9494 26.871 32.055L25.68 33.642C25.6009 33.7478 25.4983 33.8336 25.3803 33.8927C25.2622 33.9519 25.132 33.9827 25 33.9827C24.868 33.9827 24.7378 33.9519 24.6197 33.8927C24.5017 33.8336 24.3991 33.7478 24.32 33.642L23.129 32.054C23.0497 31.9484 22.947 31.8627 22.8289 31.8037C22.7107 31.7447 22.5805 31.714 22.4485 31.714C22.3165 31.714 22.1863 31.7447 22.0681 31.8037C21.95 31.8627 21.8473 31.9484 21.768 32.054L20.577 33.642C20.4978 33.7478 20.3951 33.8336 20.277 33.8927C20.1589 33.9519 20.0286 33.9827 19.8965 33.9827C19.7644 33.9827 19.6341 33.9519 19.516 33.8927C19.3979 33.8336 19.2952 33.7478 19.216 33.642L18.025 32.054C17.9457 31.9484 17.843 31.8627 17.7249 31.8037C17.6067 31.7447 17.4765 31.714 17.3445 31.714C17.2125 31.714 17.0823 31.7447 16.9641 31.8037C16.846 31.8627 16.7433 31.9484 16.664 32.054L15.644 33.7" stroke="#45413C" stroke-width="1.25" stroke-linecap="round" stroke-linejoin="round"/>
</svg>
