<svg width="30" height="31" viewBox="0 0 30 31" fill="none" xmlns="http://www.w3.org/2000/svg">
    <path d="M13.5011 25.75H22.8986V23.875C22.8986 23.0462 22.5903 22.2513 22.0416 21.6653C21.493 21.0792 20.7488 20.75 19.9728 20.75H18.8025C18.6473 20.75 18.4985 20.6842 18.3888 20.5669C18.279 20.4497 18.2174 20.2908 18.2174 20.125C18.2174 19.9592 18.279 19.8003 18.3888 19.6831C18.4985 19.5658 18.6473 19.5 18.8025 19.5H19.9728C21.0592 19.5 22.101 19.9609 22.8692 20.7814C23.6373 21.6019 24.0689 22.7147 24.0689 23.875V25.75H24.3615C24.9138 25.75 25.4147 25.5112 25.7775 25.125H25.8243V25.0737C26.1747 24.6763 26.3694 24.1508 26.3685 23.605V14.0925C28.2527 14.0125 29.3797 11.78 28.3733 10.045L27.7858 9.0325C27.5634 8.64884 27.2529 8.33219 26.8839 8.11256C26.5148 7.89293 26.0994 7.7776 25.6769 7.7775H23.9975V6.9825C23.9975 6.82065 23.9676 6.66038 23.9097 6.51084C23.8517 6.36131 23.7667 6.22544 23.6595 6.11099C23.5524 5.99654 23.4252 5.90576 23.2852 5.84382C23.1452 5.78188 22.9951 5.75 22.8436 5.75C22.4678 5.75016 22.0958 5.82938 21.7487 5.98312C21.4016 6.13686 21.0862 6.36212 20.8206 6.64604C20.555 6.92995 20.3444 7.26696 20.2007 7.63783C20.0571 8.00869 19.9832 8.40615 19.9834 8.8075V13.1275C18.4877 13.285 17.3584 14.04 16.5286 15.105C16.0137 15.765 15.617 16.54 15.3115 17.3525C15.0459 17.9275 14.8598 18.5513 14.7685 19.2088L14.7533 19.2825C14.4303 20.76 14.3168 22.23 14.2816 23.3225C14.2676 23.79 14.2676 24.1925 14.2723 24.5H13.5011C13.0514 24.5 12.6116 24.3597 12.2357 24.0963C11.8597 23.8329 11.564 23.4579 11.385 23.0174C11.2059 22.5768 11.1513 22.09 11.2279 21.6168C11.3044 21.1436 11.5088 20.7046 11.8158 20.3537L12.8925 19.12C13.6345 18.2699 14.0387 17.1454 14.02 15.9833C14.0012 14.8212 13.5609 13.7122 12.7919 12.89L11.7351 11.7612C11.6811 11.7016 11.6165 11.6539 11.5451 11.6212C11.4737 11.5884 11.397 11.5712 11.3193 11.5705C11.2416 11.5697 11.1645 11.5856 11.0926 11.617C11.0207 11.6484 10.9554 11.6948 10.9004 11.7535C10.8455 11.8122 10.802 11.882 10.7726 11.9588C10.7432 12.0356 10.7284 12.1179 10.729 12.2009C10.7297 12.2839 10.7459 12.3659 10.7765 12.4421C10.8072 12.5184 10.8518 12.5873 10.9077 12.645L11.9644 13.7737C12.5197 14.3666 12.8376 15.1666 12.8511 16.005C12.8646 16.8434 12.5727 17.6546 12.037 18.2675L10.9603 19.5013C10.4989 20.0305 10.1921 20.6921 10.0775 21.4049C9.96294 22.1177 10.0456 22.8507 10.3153 23.5141C10.585 24.1775 11.0301 24.7424 11.596 25.1395C12.1619 25.5367 12.8239 25.7488 13.5011 25.75Z"
          fill="white"/>
    <path d="M7.10147 5.75C7.48767 5.75 8.0541 5.86875 8.54094 6.2425C9.05588 6.64 9.44208 7.29625 9.44208 8.25V9.81625C9.44208 9.97625 9.39175 10.2313 9.25951 10.4275C9.1495 10.5913 8.95991 10.7525 8.56552 10.7525C8.17113 10.7525 7.98154 10.5913 7.87153 10.4275C7.75623 10.2471 7.69278 10.0346 7.68896 9.81625C7.68896 9.65049 7.62731 9.49152 7.51758 9.37431C7.40784 9.2571 7.259 9.19125 7.10381 9.19125C6.94862 9.19125 6.79979 9.2571 6.69005 9.37431C6.58031 9.49152 6.51866 9.65049 6.51866 9.81625C6.51866 10.1775 6.61463 10.7038 6.92124 11.1575C7.24893 11.645 7.78961 12.0025 8.56552 12.0025C8.94002 12.0025 9.26185 11.9188 9.52985 11.7775C9.6972 13.1675 10.1852 15.035 11.6118 16.5575C12.8828 17.9162 13.5065 19.5987 13.8132 20.9112C13.9768 21.6146 14.0786 22.3327 14.1174 23.0563C14.1195 23.1021 14.1211 23.1479 14.1221 23.1937V23.2325L14.1233 23.245V23.25C14.1233 23.2562 14.1233 23.2687 14.1256 23.2862C14.1394 23.5025 14.1923 23.7139 14.2813 23.9088C14.3534 24.0713 14.4644 24.2105 14.6031 24.3125C14.7435 24.4125 14.9565 24.5 15.2936 24.5C15.7848 24.5 16.2636 24.3349 16.6622 24.0281C17.0607 23.7213 17.3587 23.2883 17.5141 22.7906C17.6694 22.2928 17.6742 21.7554 17.5277 21.2546C17.3813 20.7537 17.091 20.3148 16.6979 20C16.6365 19.9507 16.5847 19.8889 16.5456 19.8182C16.5065 19.7475 16.4808 19.6693 16.4699 19.5879C16.4591 19.5066 16.4634 19.4238 16.4826 19.3443C16.5017 19.2648 16.5353 19.19 16.5815 19.1244C16.6277 19.0587 16.6855 19.0034 16.7517 18.9616C16.8179 18.9198 16.8912 18.8924 16.9673 18.8808C17.0434 18.8693 17.1209 18.8739 17.1954 18.8943C17.2699 18.9148 17.3398 18.9507 17.4013 19C17.9909 19.4723 18.4264 20.1308 18.6461 20.8822C18.8657 21.6336 18.8585 22.4397 18.6253 23.1864C18.3921 23.9332 17.9449 24.5826 17.3469 25.0427C16.7489 25.5028 16.0306 25.7503 15.2936 25.75H5.93117V25.125C5.93117 24.6187 6.15119 23.8175 6.789 23.46C7.06753 23.3123 7.37581 23.2402 7.68662 23.25H8.85692C9.01212 23.25 9.16095 23.1842 9.27069 23.0669C9.38043 22.9497 9.44208 22.7908 9.44208 22.625C9.44208 22.4592 9.38043 22.3003 9.27069 22.1831C9.16095 22.0658 9.01212 22 8.85692 22H7.68662C7.48065 22 7.28638 22.0175 7.10147 22.05V18.875C7.10147 18.7092 7.03982 18.5503 6.93009 18.4331C6.82035 18.3158 6.67151 18.25 6.51632 18.25C6.36113 18.25 6.21229 18.3158 6.10256 18.4331C5.99282 18.5503 5.93117 18.7092 5.93117 18.875V22.56C5.00663 23.2725 4.76087 24.4575 4.76087 25.125V25.75H1.83511C1.67992 25.75 1.53108 25.6842 1.42135 25.5669C1.31161 25.4497 1.24996 25.2908 1.24996 25.125C1.24996 24.0375 1.59637 23.2213 2.19205 22.6913C2.59467 22.3447 3.07822 22.1221 3.59057 22.0475V12H3.00541C2.53984 12 2.09333 11.8025 1.76412 11.4508C1.43491 11.0992 1.24996 10.6223 1.24996 10.125V8.60375C1.25 8.38806 1.30229 8.17605 1.40175 7.98833C1.50121 7.80061 1.64446 7.64358 1.81756 7.5325L3.90421 6.195C4.35886 5.90377 4.87906 5.74995 5.40921 5.75H7.10147Z"
          fill="white"/>
</svg>
