<svg xmlns="http://www.w3.org/2000/svg" viewBox="0 0 35.26 35.26"><g id="Layer_2" data-name="Layer 2"><g id="Layer_1-2" data-name="Layer 1"><circle cx="17.63" cy="17.63" r="17.63" fill="#fb8a76"/><path d="M27.49,17.45,25.36,11a3.14,3.14,0,0,0-4-2.06L9.7,13.25A3.38,3.38,0,0,0,7.77,17.5L9.9,23.94a3.12,3.12,0,0,0,4,2l2.83-1,3.6,1.56,2-3.55,3.2-1.31A3.39,3.39,0,0,0,27.49,17.45Z" fill="#cb6856" stroke="#000" stroke-miterlimit="10" stroke-width="0.3"/><path d="M27.29,16.49,25.4,10.73a3,3,0,0,0-3.75-1.9l-11,3.61a3,3,0,0,0-1.9,3.75L10.64,22a3,3,0,0,0,3.75,1.89L18,22.65l2.86,1.74,1.87-3.29,2.64-.86A3,3,0,0,0,27.29,16.49Z" fill="#fb8a76" stroke="#000" stroke-miterlimit="10" stroke-width="0.3"/><path d="M17.67,14.64a2.3,2.3,0,0,1,2.48-2.27,1.79,1.79,0,0,1,1.44,1,2.86,2.86,0,0,1,.28,1.84,7.82,7.82,0,0,1-1.28,3c-.34.53-.74,1-1.11,1.53a.17.17,0,0,1-.2.07,12.11,12.11,0,0,1-3.88-1.6A3.7,3.7,0,0,1,14,16.67a2.19,2.19,0,0,1-.15-1.59,1.82,1.82,0,0,1,1.36-1.25,2.25,2.25,0,0,1,2.45.79Z" fill="#fff"/></g></g></svg>