<svg width="16" height="16" viewBox="0 0 16 16" fill="none" xmlns="http://www.w3.org/2000/svg">
<path d="M8.41598 0.222612C8.37032 0.154133 8.30846 0.0979856 8.23589 0.059152C8.16332 0.0203184 8.08229 0 7.99998 0C7.91768 0 7.83664 0.0203184 7.76407 0.059152C7.69151 0.0979856 7.62965 0.154133 7.58398 0.222612L4.58398 4.72261C4.53388 4.79791 4.50513 4.88538 4.50081 4.97572C4.49649 5.06606 4.51675 5.15588 4.55944 5.23561C4.60213 5.31535 4.66565 5.38201 4.74323 5.4285C4.82081 5.47499 4.90954 5.49957 4.99998 5.49961H5.09798L3.07598 8.73461C3.02868 8.8103 3.0025 8.89727 3.00015 8.98649C2.99781 9.07571 3.01939 9.16393 3.06266 9.242C3.10593 9.32006 3.1693 9.38512 3.2462 9.43042C3.32311 9.47572 3.41073 9.49961 3.49998 9.49961H3.69098L2.05298 12.7756C2.01479 12.8518 1.99671 12.9366 2.00049 13.0218C2.00427 13.1069 2.02976 13.1897 2.07455 13.2623C2.11935 13.3348 2.18195 13.3947 2.25641 13.4363C2.33087 13.4778 2.41472 13.4996 2.49998 13.4996H6.99998V15.9996H8.99998V13.4996H13.5C13.5852 13.4996 13.6691 13.4778 13.7436 13.4363C13.818 13.3947 13.8806 13.3348 13.9254 13.2623C13.9702 13.1897 13.9957 13.1069 13.9995 13.0218C14.0033 12.9366 13.9852 12.8518 13.947 12.7756L12.31 9.49961H12.501C12.5902 9.49961 12.6779 9.47572 12.7548 9.43042C12.8317 9.38512 12.895 9.32006 12.9383 9.242C12.9816 9.16393 13.0032 9.07571 13.0008 8.98649C12.9985 8.89727 12.9723 8.8103 12.925 8.73461L10.902 5.49961H11C11.0904 5.49957 11.1792 5.47499 11.2567 5.4285C11.3343 5.38201 11.3978 5.31535 11.4405 5.23561C11.4832 5.15588 11.5035 5.06606 11.4992 4.97572C11.4948 4.88538 11.4661 4.79791 11.416 4.72261L8.41598 0.222612Z" fill="#7F9CEB"/>
</svg>
