<svg xmlns="http://www.w3.org/2000/svg" viewBox="0 0 740 145.47">
    <g id="Layer_2">
        <g id="Layer_1-2">
            <path d="M92.62,7a4.36,4.36,0,0,1,4.3-4.3h27.23a4.36,4.36,0,0,1,4.3,4.3V138.12a4.36,4.36,0,0,1-4.3,4.3H96.92a4.36,4.36,0,0,1-4.3-4.3V94.05A3.59,3.59,0,0,0,89,90.47H39.23a3.59,3.59,0,0,0-3.58,3.58v44.07a4.36,4.36,0,0,1-4.3,4.3H4.3a4.36,4.36,0,0,1-4.3-4.3V7a4.36,4.36,0,0,1,4.3-4.3H31.35A4.36,4.36,0,0,1,35.65,7v46.4A3.59,3.59,0,0,0,39.23,57H89a3.59,3.59,0,0,0,3.58-3.58Z"
                  fill="#181818"/>
            <path d="M200.09,7a4.36,4.36,0,0,1,4.3-4.3h27.23a4.36,4.36,0,0,1,4.3,4.3V138.12a4.36,4.36,0,0,1-4.3,4.3H204.39a4.36,4.36,0,0,1-4.3-4.3Z"
                  fill="#181818"/>
            <path d="M307.57,7a4.36,4.36,0,0,1,4.3-4.3h64c35.83,0,52.31,23.29,52.31,51.05,0,18.46-7.71,35.66-24.37,44.79a3.13,3.13,0,0,0-1.07,4.66l25.62,35.65a2.24,2.24,0,0,1-1.8,3.58H392.31a8.65,8.65,0,0,1-6.81-3.58l-21.86-31a7.21,7.21,0,0,0-5.73-2.87H346.8a3.59,3.59,0,0,0-3.58,3.58v29.56a4.36,4.36,0,0,1-4.3,4.3H311.87a4.36,4.36,0,0,1-4.3-4.3Zm66.28,28.3H346.8a3.59,3.59,0,0,0-3.58,3.59V69a3.6,3.6,0,0,0,3.58,3.59h27.05c14.34,0,19.71-8.78,19.71-18.46C393.56,43.35,388.19,35.29,373.85,35.29Z"
                  fill="#181818"/>
            <path d="M488.31,72.56C488.31,32.61,522.17,0,562.48,0c40.85,0,74.17,32.61,74.17,72.56s-33.32,72.55-74.17,72.55C522.17,145.11,488.31,112.51,488.31,72.56Zm36.19,0a38,38,0,1,0,38-38A37.89,37.89,0,0,0,524.5,72.56Z"
                  fill="#181818"/>
            <path d="M694.85,122.9a22.58,22.58,0,1,1,22.58,22.57A22.72,22.72,0,0,1,694.85,122.9Z" fill="#181818"/>
        </g>
    </g>
</svg>