<svg width="80" height="65" viewBox="0 0 80 65" fill="none" xmlns="http://www.w3.org/2000/svg">
<line x1="1" y1="32" x2="79" y2="32" stroke="#FF5959" stroke-width="2" stroke-linecap="round" stroke-dasharray="4 4"/>
<rect x="32.8699" y="23.0061" width="16.1045" height="17.6382" fill="#E54256"/>
<path d="M60.6285 24.4867V22.8954C60.6285 20.9649 54.1742 21.5341 49.4473 22.322C49.4473 22.322 37.6029 21.6001 34.4787 19.7074C31.3545 17.8147 24.7535 18.7769 22.6614 16.282C20.5693 13.7871 19.5953 18.1359 20.1809 19.9703V20.1426C18.205 20.7877 16.694 21.6909 26.4572 20.1426C38.6613 18.2073 32.2166 23.225 35.5291 22.322C38.8416 21.419 40.8096 26.0353 47.609 24.4867C53.0485 23.2479 53.9395 23.9706 53.649 24.4867C54.9775 23.9396 60.6285 25.9045 60.6285 24.4867Z" fill="#D14254" fill-opacity="0.32"/>
<path d="M36.3629 59.7093C24.1613 58.6931 16.3492 52.8018 16.3492 47.6683V13.9687C16.3492 8.32882 20.9205 3.75406 26.5639 3.75406H36.2093V1.57145C36.2093 0.897455 36.7576 0.349182 37.4316 0.349182H42.9317C43.6092 0.349182 44.154 0.897455 44.154 1.57145V3.75406H53.8029C59.4428 3.75406 64.0176 8.32882 64.0176 13.9687V47.6683C64.0176 52.8542 58.1612 58.8118 44.0143 59.7408C43.501 59.7722 42.9737 59.8001 42.4324 59.8211L42.8759 54.1393C47.9465 53.7307 53.0696 52.4037 58.2345 50.2385C59.565 49.6833 60.4381 48.3947 60.4381 46.9559V16.8498C60.4381 14.8906 58.8491 13.2982 56.8865 13.2982H23.4803C21.5177 13.2982 19.9287 14.8906 19.9287 16.8498V47.0676C19.9287 48.447 20.7249 49.7042 21.9751 50.2874C27.0912 52.6796 32.2631 53.9612 37.4944 54.2231L37.9309 59.8106C37.4001 59.7862 36.8763 59.7512 36.3629 59.7093ZM42.2508 3.24071V2.42354C42.2508 2.12321 42.0063 1.87876 41.7025 1.87876H38.6608C38.3605 1.87876 38.116 2.12321 38.116 2.42354V3.24071C38.116 3.54104 38.3605 3.78549 38.6608 3.78549H41.7025C42.0063 3.78549 42.2508 3.54104 42.2508 3.24071Z" fill="#EEEFEF"/>
<path d="M44.0157 59.741C44.096 59.94 44.1414 60.16 44.1414 60.387C44.1414 60.8654 43.9458 61.3055 43.628 61.6198C43.5372 61.7106 43.436 61.7944 43.3242 61.8607C43.0553 62.0353 42.734 62.1331 42.3953 62.1331H37.9707C37.632 62.1331 37.3142 62.0353 37.0453 61.8642C36.5529 61.5569 36.2246 61.0086 36.2246 60.387C36.2246 60.1461 36.2735 59.9191 36.3643 59.7095C36.8776 59.7514 37.4015 59.7864 37.9323 59.8108C38.6412 59.8457 39.3606 59.8632 40.0974 59.8632C40.9006 59.8632 41.6794 59.8492 42.4337 59.8213C42.975 59.8003 43.5023 59.7724 44.0157 59.741Z" fill="#EEEFEF"/>
<path d="M44.0455 63.142C44.0455 63.5541 43.8779 63.9312 43.602 64.2071C43.3296 64.4795 42.9559 64.6506 42.5404 64.6506H37.8259C36.9983 64.6506 36.3208 63.9696 36.3208 63.142C36.3208 62.7299 36.4884 62.3528 36.7643 62.0804C36.8481 61.9965 36.9424 61.9232 37.0437 61.8638C37.3126 62.035 37.6304 62.1327 37.9691 62.1327H42.3937C42.7324 62.1327 43.0537 62.035 43.3226 61.8604C43.7557 62.1258 44.0455 62.6007 44.0455 63.142Z" fill="#EEEFEF"/>
<path d="M60.4378 22.8469V46.9562C60.4378 48.395 59.5648 49.6836 58.2342 50.2389C53.0693 52.404 47.9463 53.731 42.8756 54.1396L42.4321 59.8214C41.6778 59.8494 40.899 59.8633 40.0958 59.8633C39.359 59.8633 38.6396 59.8459 37.9307 59.8109L37.4942 54.2234C32.2629 53.9615 27.0909 52.6799 21.9749 50.2878C20.7247 49.7046 19.9285 48.4474 19.9285 47.068V18.6834C19.9285 16.7242 20.8888 14.3182 22.9841 16.8501C25.0794 19.382 30.6425 18.3001 33.7715 20.2209C36.9005 22.1416 49.7112 22.8469 49.7112 22.8469C51.6738 22.8469 60.4378 20.8878 60.4378 22.8469ZM46.5948 31.8106C46.5948 28.2695 43.7242 25.399 40.1831 25.399C36.6421 25.399 33.7715 28.2695 33.7715 31.8106C33.7715 35.3517 36.6421 38.2223 40.1831 38.2223C43.7242 38.2223 46.5948 35.3517 46.5948 31.8106Z" fill="#E54256"/>
<path opacity="0.15" d="M54.5759 3.77832C54.5759 3.77832 58.5326 4.94122 59.0005 10.7627C59.465 16.5842 59.0005 49.2919 59.0005 49.2919C59.0005 49.2919 59.3497 51.272 57.6036 53.2486C55.8575 55.2287 51.4329 59.0701 42.3533 59.5345V59.999C42.3533 59.999 54.1464 59.5275 59.6396 55.0506C64.354 51.2092 63.7708 48.9392 63.7708 48.9392V11.9221C63.7743 11.9256 62.4333 5.05995 54.5759 3.77832Z" fill="#232533"/>
<path opacity="0.15" d="M16.5969 43.4147C16.5969 43.4147 16.9461 47.4307 18.1684 49.7879C19.3906 52.1451 28.8195 59.1295 36.2404 59.5241C36.2404 59.5241 23.9305 58.8257 19.0414 52.9763C19.0414 52.9763 16.4642 50.3152 16.335 48.6983" fill="#232533"/>
<path opacity="0.15" d="M36.2726 59.681C36.2726 59.681 36.1853 60.4947 36.4751 60.7881C36.765 61.0779 42.5271 60.8754 42.5271 60.8754C42.5271 60.8754 42.4992 61.8951 42.3804 62.0697C42.2652 62.2443 42.5271 63.0894 42.5271 63.8158C42.5271 64.5422 42.5271 64.5422 42.5271 64.5422C42.5271 64.5422 43.1662 64.6888 43.6341 64.165C44.0986 63.6412 44.13 63.058 44.13 63.058L43.6935 61.7763C43.6935 61.7763 43.7808 61.3398 43.896 60.9906C44.0113 60.6414 43.8367 59.915 43.8367 59.915" fill="#232533"/>
<path opacity="0.15" d="M53.8992 37.7993C55.9475 37.7993 57.6079 34.8099 57.6079 31.1222C57.6079 27.4346 55.9475 24.4452 53.8992 24.4452C51.851 24.4452 50.1906 27.4346 50.1906 31.1222C50.1906 34.8099 51.851 37.7993 53.8992 37.7993Z" fill="white"/>
<path opacity="0.15" d="M53.9427 46.4422C55.2928 46.4422 56.3872 44.8599 56.3872 42.9081C56.3872 40.9563 55.2928 39.374 53.9427 39.374C52.5926 39.374 51.4982 40.9563 51.4982 42.9081C51.4982 44.8599 52.5926 46.4422 53.9427 46.4422Z" fill="white"/>
<path d="M40.0961 60.2122C33.4609 60.2122 27.2763 58.7804 22.6805 56.1857C18.4969 53.8215 16 50.6367 16 47.6683V13.9687C16 8.14377 20.7389 3.40488 26.5639 3.40488H35.86V1.57148C35.86 0.705421 36.5655 0 37.4315 0H42.9317C43.7978 0 44.5032 0.705421 44.5032 1.57148V3.40488H53.8029C59.6278 3.40488 64.3667 8.14377 64.3667 13.9687V47.6683C64.3667 50.8532 62.2679 53.9542 58.6116 56.1788C54.2708 58.8188 47.8662 60.2122 40.0961 60.2122ZM26.5639 4.10332C21.123 4.10332 16.6984 8.52791 16.6984 13.9687V47.6683C16.6984 53.2698 26.3089 59.5138 40.0961 59.5138C56.2928 59.5138 63.6683 53.3745 63.6683 47.6683V13.9687C63.6683 8.52791 59.2437 4.10332 53.8029 4.10332H44.154C43.9619 4.10332 43.8048 3.94617 43.8048 3.7541V1.57148C43.8048 1.08956 43.4136 0.698437 42.9317 0.698437H37.4315C36.9496 0.698437 36.5585 1.08956 36.5585 1.57148V3.7541C36.5585 3.94617 36.4013 4.10332 36.2093 4.10332H26.5639Z" fill="black"/>
<path d="M42.4321 60.1703C42.4216 60.1703 42.4146 60.1703 42.4041 60.1703C42.2121 60.1564 42.0689 59.9887 42.0829 59.7967L42.5264 54.1149C42.5403 53.9438 42.6765 53.8076 42.8476 53.7936C47.7821 53.3955 52.9156 52.0929 58.098 49.9173C59.3063 49.4144 60.0886 48.2515 60.0886 46.9559V16.8498C60.0886 15.0828 58.6533 13.6475 56.8862 13.6475H23.48C21.713 13.6475 20.2777 15.0828 20.2777 16.8498V47.0677C20.2777 48.3074 21.0005 49.4493 22.1215 49.9697C27.1014 52.299 32.2768 53.612 37.5116 53.8739C37.6862 53.8809 37.8294 54.0206 37.8433 54.1952L38.2799 59.7827C38.2938 59.9748 38.1507 60.1424 37.9586 60.1599C37.7595 60.1738 37.5989 60.0307 37.5814 59.8386L37.1694 54.5549C31.952 54.2546 26.7906 52.9241 21.8282 50.6018C20.4627 49.9662 19.5792 48.5763 19.5792 47.0642V16.8498C19.5792 14.6986 21.3288 12.949 23.48 12.949H56.8862C59.0374 12.949 60.787 14.6986 60.787 16.8498V46.9559C60.787 48.5344 59.8371 49.9487 58.3704 50.5599C53.2229 52.718 48.1208 54.0311 43.2038 54.4606L42.7848 59.8456C42.7673 60.0341 42.6137 60.1703 42.4321 60.1703Z" fill="black"/>
<path d="M42.3953 62.4821H37.9707C36.8148 62.4821 35.8754 61.5427 35.8754 60.3868C35.8754 60.1005 35.9312 59.8246 36.043 59.5662C36.1198 59.3881 36.3259 59.3077 36.504 59.3846C36.6821 59.4614 36.7624 59.6674 36.6856 59.8455C36.6122 60.0167 36.5738 60.1982 36.5738 60.3868C36.5738 61.1586 37.1989 61.7837 37.9707 61.7837H42.3953C42.7619 61.7837 43.1216 61.6335 43.3801 61.3751C43.642 61.1132 43.7921 60.757 43.7921 60.3868C43.7921 60.2122 43.7572 60.0341 43.6909 59.87C43.6175 59.6919 43.7048 59.4858 43.8829 59.416C44.061 59.3427 44.2671 59.43 44.3369 59.6081C44.4382 59.856 44.4871 60.1179 44.4871 60.3833C44.4871 60.9351 44.2636 61.4764 43.869 61.864C43.4883 62.2586 42.9505 62.4821 42.3953 62.4821Z" fill="black"/>
<path d="M41.7049 4.13476H38.6598C38.1674 4.13476 37.7657 3.73316 37.7657 3.24076V2.42708C37.7657 1.93468 38.1674 1.53308 38.6598 1.53308H41.7049C42.1973 1.53308 42.5989 1.93468 42.5989 2.42708V3.24076C42.5989 3.73316 42.1973 4.13476 41.7049 4.13476ZM38.6598 2.22803C38.5515 2.22803 38.4642 2.31533 38.4642 2.42359V3.23727C38.4642 3.34552 38.5515 3.43283 38.6598 3.43283H41.7049C41.8132 3.43283 41.9005 3.34552 41.9005 3.23727V2.42359C41.9005 2.31533 41.8132 2.22803 41.7049 2.22803H38.6598Z" fill="black"/>
<path d="M42.5405 65H37.826C36.8028 65 35.9717 64.1654 35.9717 63.1422C35.9717 62.6463 36.1672 62.1818 36.52 61.8326C36.6247 61.7278 36.74 61.637 36.8692 61.5637C37.0368 61.4659 37.2498 61.5218 37.3476 61.6894C37.4454 61.8571 37.3895 62.0701 37.2219 62.1679C37.145 62.2133 37.0752 62.2656 37.0124 62.3285C36.7923 62.545 36.6701 62.8349 36.6701 63.1422C36.6701 63.7812 37.187 64.3016 37.826 64.3016H42.5405C42.8443 64.3016 43.1341 64.1794 43.3542 63.9593C43.5742 63.7393 43.6964 63.4495 43.6964 63.1422C43.6964 62.7406 43.4869 62.3704 43.1411 62.1574C42.977 62.0561 42.9246 61.8431 43.0259 61.6755C43.1272 61.5113 43.3402 61.4589 43.5078 61.5602C44.0666 61.9025 44.3983 62.4926 44.3983 63.1387C44.3983 63.6346 44.2028 64.099 43.8535 64.4517C43.4973 64.8079 43.0329 65 42.5405 65Z" fill="black"/>
<path d="M31.0243 30.79C31.781 30.9076 32.4899 30.3895 32.6075 29.6327C32.7251 28.8759 32.207 28.1671 31.4502 28.0495C30.6934 27.9318 29.9846 28.45 29.867 29.2067C29.7494 29.9635 30.2675 30.6723 31.0243 30.79Z" fill="#181818"/>
<path d="M36.8717 34.199C37.235 35.1805 38.1007 35.8747 39.1488 35.8885C40.2516 35.9186 41.4668 34.9697 41.9293 34.0152C42.2123 33.4641 41.3944 32.943 41.1114 33.4941C40.5183 34.6876 38.4428 35.6588 37.797 33.9579C37.6097 33.3861 36.6661 33.6217 36.8717 34.199Z" fill="#181818"/>
<path d="M48.3573 31.3151C49.114 31.4327 49.8229 30.9145 49.9405 30.1578C50.0581 29.401 49.54 28.6922 48.7832 28.5745C48.0265 28.4569 47.3176 28.9751 47.2 29.7318C47.0824 30.4886 47.6005 31.1974 48.3573 31.3151Z" fill="#181818"/>
<path d="M40.7346 11.5224L40.7346 11.5224L40.7362 11.5267L45.5891 24.4475C45.5894 24.4481 45.5896 24.4486 45.5898 24.4492C45.9378 25.3504 46.9396 25.8045 47.8275 25.464L47.8278 25.4639L56.7526 22.0483L56.7561 22.047C56.9662 21.9683 57.1585 21.8485 57.3218 21.6947C57.4851 21.5409 57.6161 21.3562 57.7072 21.1512C57.7983 20.9462 57.8476 20.7252 57.8523 20.5009C57.8571 20.2767 57.8171 20.0537 57.7347 19.8449L57.7338 19.8428L52.702 6.9258L52.7012 6.92386C52.5574 6.55017 52.2309 6.33226 51.7164 6.1036L45.5349 3.35639C45.0515 3.14153 44.6853 3.13777 44.4153 3.24157C44.1452 3.34535 43.8761 3.59324 43.6614 4.07631L40.9169 10.2518C40.6873 10.7684 40.5903 11.1484 40.7346 11.5224ZM46.8501 7.94916C46.7054 8.08652 46.5351 8.19401 46.3489 8.26554C46.1627 8.33706 45.9642 8.3712 45.7648 8.36604C45.5654 8.36087 45.369 8.31649 45.1867 8.23543C45.0044 8.15438 44.8399 8.03823 44.7025 7.89362C44.5651 7.74901 44.4575 7.57875 44.3859 7.39258C44.3143 7.2064 44.2801 7.00793 44.2852 6.80852C44.2903 6.6091 44.3346 6.41265 44.4157 6.23038C44.4967 6.04811 44.6129 5.8836 44.7576 5.74625C44.9022 5.6089 45.0725 5.5014 45.2587 5.42988C45.4449 5.35835 45.6434 5.32421 45.8428 5.32938C46.0422 5.33455 46.2387 5.37893 46.421 5.45998C46.6032 5.54104 46.7677 5.65718 46.9051 5.80179C47.0425 5.94641 47.1501 6.11666 47.2217 6.30284C47.2933 6.48902 47.3276 6.68748 47.3225 6.8869C47.3174 7.08631 47.273 7.28277 47.192 7.46503C47.1109 7.6473 46.9948 7.81181 46.8501 7.94916Z" fill="#FFD983" stroke="black" stroke-width="1.02928"/>
<path d="M45.345 5.54769L45.3451 5.54764C45.6943 5.41329 46.0825 5.42317 46.4243 5.57508C46.7661 5.72699 47.0336 6.0085 47.1678 6.3577C47.3021 6.7069 47.2922 7.09518 47.1402 7.43713C46.9883 7.77903 46.7068 8.04658 46.3577 8.18094C46.3576 8.18096 46.3576 8.18098 46.3575 8.181M45.345 5.54769L44.2749 7.47052C44.4357 7.88863 44.756 8.22574 45.1653 8.40773C45.5746 8.58973 46.0394 8.60171 46.4576 8.44106L46.3575 8.181M45.345 5.54769C45.1721 5.6141 45.0139 5.71395 44.8796 5.84152C44.7453 5.96909 44.6375 6.12189 44.5622 6.29117C44.487 6.46045 44.4459 6.6429 44.4412 6.82807C44.4365 7.01325 44.4684 7.19753 44.5349 7.37036L44.2749 7.47051L44.535 7.37048C44.6693 7.71965 44.9367 8.00115 45.2785 8.15312C45.6202 8.30507 46.0083 8.3151 46.3575 8.181M45.345 5.54769L46.3575 8.181M46.5219 7.57196C46.4272 7.65945 46.3159 7.72717 46.1947 7.77115C45.9559 7.85775 45.6927 7.84726 45.4616 7.7419C45.2305 7.63655 45.05 7.44475 44.9588 7.20772C44.8676 6.97069 44.873 6.70735 44.9738 6.47424C45.0746 6.24114 45.2628 6.05685 45.498 5.96098C45.6174 5.91228 45.7454 5.8879 45.8744 5.88926C46.0033 5.89061 46.1307 5.91768 46.2491 5.96888C46.3675 6.02007 46.4745 6.09437 46.5638 6.18742C46.6531 6.28046 46.723 6.39039 46.7693 6.51077C46.8156 6.63114 46.8374 6.75955 46.8335 6.88847C46.8296 7.01739 46.8001 7.14424 46.7466 7.26159C46.6931 7.37895 46.6167 7.48447 46.5219 7.57196Z" fill="#D99E82" stroke="black" stroke-width="0.557302"/>
<path d="M41.6021 3.41923L41.6022 3.41929L45.7149 6.68354C45.7479 6.70979 45.7695 6.74835 45.7744 6.79086C45.7794 6.83337 45.7673 6.87586 45.7412 6.90902C45.7151 6.94213 45.6772 6.96323 45.636 6.96805C45.6155 6.97044 45.5948 6.96877 45.5749 6.96309C45.555 6.95742 45.5363 6.94785 45.52 6.93486L45.3466 7.15306L45.5199 6.9348L41.4072 3.67055L41.6021 3.41923ZM41.6021 3.41923C41.5857 3.40624 41.5671 3.39667 41.5472 3.39099M41.6021 3.41923L41.5472 3.39099M41.5472 3.39099C41.5273 3.38532 41.5065 3.38364 41.4861 3.38603M41.5472 3.39099L41.4861 3.38603M41.4861 3.38603C41.4656 3.38842 41.4458 3.39484 41.4278 3.40494M41.4861 3.38603L41.4278 3.40494M41.4278 3.40494C41.4097 3.41504 41.3938 3.42866 41.3808 3.44507M41.4278 3.40494L41.3808 3.44507M41.3808 3.44507C41.3679 3.46147 41.3583 3.48035 41.3526 3.50064M41.3808 3.44507L41.3526 3.50064M41.3526 3.50064C41.3469 3.52093 41.3452 3.5422 41.3476 3.56323M41.3526 3.50064L41.3476 3.56323M41.3476 3.56323C41.3501 3.58425 41.3566 3.60456 41.3669 3.62299M41.3476 3.56323L41.3669 3.62299M41.3669 3.62299C41.3771 3.64138 41.3908 3.65751 41.4071 3.67049L41.3669 3.62299Z" fill="#C1694F" stroke="black" stroke-width="0.557302"/>
<path fill-rule="evenodd" clip-rule="evenodd" d="M47.7135 11.8639C49.8791 11.0081 52.3313 12.0711 53.1872 14.2367C54.043 16.4024 52.98 18.8546 50.8144 19.7105C48.6488 20.5663 46.1965 19.5033 45.3407 17.3377C44.4848 15.172 45.5478 12.7198 47.7135 11.8639ZM48.4887 13.8256C48.7045 13.7403 48.9508 13.8471 49.0361 14.0629L49.5012 15.2399L50.6782 14.7747C50.894 14.6895 51.1403 14.7962 51.2256 15.012C51.3109 15.2278 51.2041 15.4741 50.9883 15.5594L49.8113 16.0245L50.2765 17.2015C50.3618 17.4173 50.255 17.6636 50.0392 17.7489C49.8234 17.8342 49.5771 17.7274 49.4918 17.5116L49.0267 16.3346L47.8497 16.7998C47.6339 16.885 47.3876 16.7783 47.3023 16.5625C47.2171 16.3467 47.3238 16.1004 47.5396 16.0151L48.7166 15.55L48.2514 14.373C48.1662 14.1572 48.2729 13.9109 48.4887 13.8256ZM52.4025 14.5468C53.0862 16.277 52.2344 18.242 50.5042 18.9258C48.7741 19.6096 46.809 18.7577 46.1253 17.0276C45.4415 15.2974 46.2933 13.3323 48.0235 12.6486C49.7537 11.9648 51.7187 12.8167 52.4025 14.5468Z" fill="#880B0B"/>
</svg>
