<svg width="80" height="65" viewBox="0 0 80 65" fill="none" xmlns="http://www.w3.org/2000/svg">
<line x1="1" y1="31" x2="79" y2="31" stroke="#FF5959" stroke-width="2" stroke-linecap="round" stroke-dasharray="4 4"/>
<rect x="31.8699" y="23.0061" width="16.1045" height="17.6382" fill="#E54256"/>
<path d="M59.6285 24.4867V22.8954C59.6285 20.9649 53.1742 21.5341 48.4473 22.322C48.4473 22.322 36.6029 21.6001 33.4787 19.7074C30.3545 17.8147 23.7535 18.7769 21.6614 16.282C19.5693 13.7871 18.5953 18.1359 19.1809 19.9703V20.1426C17.205 20.7877 15.694 21.6909 25.4572 20.1426C37.6613 18.2073 31.2166 23.225 34.5291 22.322C37.8416 21.419 39.8096 26.0353 46.609 24.4867C52.0485 23.2479 52.9395 23.9706 52.649 24.4867C53.9775 23.9396 59.6285 25.9045 59.6285 24.4867Z" fill="#D14254" fill-opacity="0.32"/>
<path d="M35.3629 59.7094C23.1612 58.6932 15.3492 52.8018 15.3492 47.6683V13.9688C15.3492 8.32888 19.9205 3.75412 25.5638 3.75412H35.2092V1.57151C35.2092 0.897516 35.7575 0.349243 36.4315 0.349243H41.9317C42.6092 0.349243 43.1539 0.897516 43.1539 1.57151V3.75412H52.8029C58.4427 3.75412 63.0175 8.32888 63.0175 13.9688V47.6683C63.0175 52.8542 57.1611 58.8119 43.0143 59.7408C42.5009 59.7722 41.9736 59.8002 41.4323 59.8211L41.8758 54.1394C46.9465 53.7308 52.0695 52.4037 57.2344 50.2386C58.565 49.6833 59.438 48.3947 59.438 46.9559V16.8498C59.438 14.8907 57.8491 13.2983 55.8864 13.2983H22.4802C20.5176 13.2983 18.9287 14.8907 18.9287 16.8498V47.0677C18.9287 48.4471 19.7249 49.7043 20.9751 50.2875C26.0911 52.6796 31.2631 53.9613 36.4944 54.2232L36.9309 59.8107C36.4001 59.7862 35.8762 59.7513 35.3629 59.7094ZM41.2507 3.24077V2.4236C41.2507 2.12327 41.0063 1.87882 40.7024 1.87882H37.6607C37.3604 1.87882 37.116 2.12327 37.116 2.4236V3.24077C37.116 3.5411 37.3604 3.78555 37.6607 3.78555H40.7024C41.0063 3.78555 41.2507 3.5411 41.2507 3.24077Z" fill="#EEEFEF"/>
<path d="M43.0157 59.741C43.096 59.9401 43.1414 60.1601 43.1414 60.3871C43.1414 60.8655 42.9458 61.3055 42.628 61.6198C42.5372 61.7106 42.436 61.7944 42.3242 61.8608C42.0553 62.0354 41.734 62.1332 41.3953 62.1332H36.9707C36.632 62.1332 36.3142 62.0354 36.0453 61.8643C35.5529 61.557 35.2246 61.0087 35.2246 60.3871C35.2246 60.1461 35.2735 59.9191 35.3643 59.7096C35.8776 59.7515 36.4015 59.7864 36.9323 59.8109C37.6412 59.8458 38.3606 59.8633 39.0974 59.8633C39.9006 59.8633 40.6794 59.8493 41.4337 59.8213C41.975 59.8004 42.5023 59.7725 43.0157 59.741Z" fill="#EEEFEF"/>
<path d="M43.0455 63.142C43.0455 63.5541 42.8779 63.9312 42.602 64.2071C42.3296 64.4795 41.9559 64.6506 41.5404 64.6506H36.8259C35.9983 64.6506 35.3208 63.9696 35.3208 63.142C35.3208 62.7299 35.4884 62.3528 35.7643 62.0804C35.8481 61.9965 35.9424 61.9232 36.0437 61.8638C36.3126 62.035 36.6304 62.1327 36.9691 62.1327H41.3937C41.7324 62.1327 42.0537 62.035 42.3226 61.8604C42.7557 62.1258 43.0455 62.6007 43.0455 63.142Z" fill="#EEEFEF"/>
<path d="M59.4377 22.847V46.9563C59.4377 48.3951 58.5647 49.6837 57.2342 50.2389C52.0692 52.4041 46.9462 53.7311 41.8755 54.1397L41.432 59.8215C40.6777 59.8494 39.899 59.8634 39.0958 59.8634C38.3589 59.8634 37.6395 59.8459 36.9306 59.811L36.4941 54.2235C31.2628 53.9616 26.0909 52.68 20.9748 50.2878C19.7246 49.7046 18.9284 48.4474 18.9284 47.068V18.6834C18.9284 16.7243 19.8888 14.3183 21.9841 16.8502C24.0794 19.382 29.6424 18.3001 32.7714 20.2209C35.9004 22.1417 48.7112 22.847 48.7112 22.847C50.6738 22.847 59.4377 20.8879 59.4377 22.847ZM45.5947 31.8107C45.5947 28.2696 42.7242 25.399 39.1831 25.399C35.642 25.399 32.7714 28.2696 32.7714 31.8107C32.7714 35.3517 35.642 38.2223 39.1831 38.2223C42.7242 38.2223 45.5947 35.3517 45.5947 31.8107Z" fill="#E54256"/>
<path opacity="0.15" d="M53.5759 3.77832C53.5759 3.77832 57.5326 4.94122 58.0005 10.7627C58.465 16.5842 58.0005 49.2919 58.0005 49.2919C58.0005 49.2919 58.3497 51.272 56.6036 53.2486C54.8575 55.2287 50.4329 59.0701 41.3533 59.5345V59.999C41.3533 59.999 53.1464 59.5275 58.6396 55.0506C63.354 51.2092 62.7708 48.9392 62.7708 48.9392V11.9221C62.7743 11.9256 61.4333 5.05995 53.5759 3.77832Z" fill="#232533"/>
<path opacity="0.15" d="M15.5969 43.4147C15.5969 43.4147 15.9461 47.4307 17.1684 49.7879C18.3906 52.1451 27.8195 59.1295 35.2404 59.5241C35.2404 59.5241 22.9305 58.8257 18.0414 52.9763C18.0414 52.9763 15.4642 50.3152 15.335 48.6983" fill="#232533"/>
<path opacity="0.15" d="M35.2726 59.681C35.2726 59.681 35.1853 60.4947 35.4751 60.7881C35.765 61.0779 41.5271 60.8754 41.5271 60.8754C41.5271 60.8754 41.4992 61.8951 41.3804 62.0697C41.2652 62.2443 41.5271 63.0894 41.5271 63.8158C41.5271 64.5422 41.5271 64.5422 41.5271 64.5422C41.5271 64.5422 42.1662 64.6888 42.6341 64.165C43.0986 63.6412 43.13 63.058 43.13 63.058L42.6935 61.7763C42.6935 61.7763 42.7808 61.3398 42.896 60.9906C43.0113 60.6414 42.8367 59.915 42.8367 59.915" fill="#232533"/>
<path opacity="0.15" d="M52.8992 37.7993C54.9474 37.7993 56.6079 34.8099 56.6079 31.1222C56.6079 27.4346 54.9474 24.4452 52.8992 24.4452C50.8509 24.4452 49.1905 27.4346 49.1905 31.1222C49.1905 34.8099 50.8509 37.7993 52.8992 37.7993Z" fill="white"/>
<path opacity="0.15" d="M52.9427 46.4422C54.2928 46.4422 55.3872 44.8599 55.3872 42.9081C55.3872 40.9563 54.2928 39.374 52.9427 39.374C51.5926 39.374 50.4982 40.9563 50.4982 42.9081C50.4982 44.8599 51.5926 46.4422 52.9427 46.4422Z" fill="white"/>
<path d="M39.0961 60.2122C32.4609 60.2122 26.2763 58.7804 21.6805 56.1857C17.4969 53.8215 15 50.6367 15 47.6683V13.9687C15 8.14377 19.7389 3.40488 25.5639 3.40488H34.86V1.57148C34.86 0.705421 35.5655 0 36.4315 0H41.9317C42.7978 0 43.5032 0.705421 43.5032 1.57148V3.40488H52.8029C58.6278 3.40488 63.3667 8.14377 63.3667 13.9687V47.6683C63.3667 50.8532 61.2679 53.9542 57.6116 56.1788C53.2708 58.8188 46.8662 60.2122 39.0961 60.2122ZM25.5639 4.10332C20.123 4.10332 15.6984 8.52791 15.6984 13.9687V47.6683C15.6984 53.2698 25.3089 59.5138 39.0961 59.5138C55.2928 59.5138 62.6683 53.3745 62.6683 47.6683V13.9687C62.6683 8.52791 58.2437 4.10332 52.8029 4.10332H43.154C42.9619 4.10332 42.8048 3.94617 42.8048 3.7541V1.57148C42.8048 1.08956 42.4136 0.698437 41.9317 0.698437H36.4315C35.9496 0.698437 35.5585 1.08956 35.5585 1.57148V3.7541C35.5585 3.94617 35.4013 4.10332 35.2093 4.10332H25.5639Z" fill="black"/>
<path d="M41.4321 60.1704C41.4216 60.1704 41.4146 60.1704 41.4041 60.1704C41.2121 60.1564 41.0689 59.9888 41.0829 59.7967L41.5264 54.115C41.5403 53.9438 41.6765 53.8076 41.8476 53.7937C46.7821 53.3956 51.9156 52.093 57.098 49.9174C58.3063 49.4145 59.0886 48.2516 59.0886 46.956V16.8499C59.0886 15.0828 57.6533 13.6475 55.8862 13.6475H22.48C20.713 13.6475 19.2777 15.0828 19.2777 16.8499V47.0677C19.2777 48.3075 20.0005 49.4494 21.1215 49.9697C26.1014 52.299 31.2768 53.6121 36.5116 53.874C36.6862 53.881 36.8294 54.0207 36.8433 54.1953L37.2799 59.7828C37.2938 59.9748 37.1507 60.1425 36.9586 60.1599C36.7595 60.1739 36.5989 60.0307 36.5814 59.8387L36.1694 54.555C30.952 54.2546 25.7906 52.9241 20.8282 50.6018C19.4627 49.9662 18.5792 48.5764 18.5792 47.0642V16.8499C18.5792 14.6987 20.3288 12.9491 22.48 12.9491H55.8862C58.0374 12.9491 59.787 14.6987 59.787 16.8499V46.956C59.787 48.5345 58.8371 49.9488 57.3704 50.5599C52.2229 52.7181 47.1208 54.0311 42.2038 54.4607L41.7848 59.8456C41.7673 60.0342 41.6137 60.1704 41.4321 60.1704Z" fill="black"/>
<path d="M41.3953 62.4821H36.9707C35.8148 62.4821 34.8754 61.5427 34.8754 60.3868C34.8754 60.1005 34.9313 59.8246 35.0431 59.5662C35.1199 59.3881 35.3259 59.3077 35.504 59.3846C35.6821 59.4614 35.7624 59.6674 35.6856 59.8455C35.6123 60.0167 35.5739 60.1982 35.5739 60.3868C35.5739 61.1586 36.199 61.7837 36.9707 61.7837H41.3953C41.762 61.7837 42.1217 61.6335 42.3801 61.3751C42.642 61.1132 42.7922 60.757 42.7922 60.3868C42.7922 60.2122 42.7573 60.0341 42.6909 59.87C42.6176 59.6919 42.7049 59.4858 42.883 59.416C43.0611 59.3427 43.2671 59.43 43.337 59.6081C43.4383 59.856 43.4872 60.1179 43.4872 60.3833C43.4872 60.9351 43.2636 61.4764 42.869 61.864C42.4884 62.2586 41.9506 62.4821 41.3953 62.4821Z" fill="black"/>
<path d="M40.7049 4.13476H37.6597C37.1673 4.13476 36.7657 3.73316 36.7657 3.24076V2.42708C36.7657 1.93468 37.1673 1.53308 37.6597 1.53308H40.7049C41.1973 1.53308 41.5989 1.93468 41.5989 2.42708V3.24076C41.5989 3.73316 41.1973 4.13476 40.7049 4.13476ZM37.6597 2.22803C37.5514 2.22803 37.4641 2.31533 37.4641 2.42359V3.23727C37.4641 3.34552 37.5514 3.43283 37.6597 3.43283H40.7049C40.8131 3.43283 40.9004 3.34552 40.9004 3.23727V2.42359C40.9004 2.31533 40.8131 2.22803 40.7049 2.22803H37.6597Z" fill="black"/>
<path d="M41.5404 65H36.826C35.8028 65 34.9716 64.1654 34.9716 63.1422C34.9716 62.6463 35.1672 62.1818 35.5199 61.8326C35.6247 61.7278 35.7399 61.637 35.8691 61.5637C36.0367 61.4659 36.2498 61.5218 36.3475 61.6894C36.4453 61.8571 36.3894 62.0701 36.2218 62.1679C36.145 62.2133 36.0752 62.2656 36.0123 62.3285C35.7923 62.545 35.6701 62.8349 35.6701 63.1422C35.6701 63.7812 36.1869 64.3016 36.826 64.3016H41.5404C41.8442 64.3016 42.1341 64.1794 42.3541 63.9593C42.5741 63.7393 42.6963 63.4495 42.6963 63.1422C42.6963 62.7406 42.4868 62.3704 42.1411 62.1574C41.9769 62.0561 41.9246 61.8431 42.0258 61.6755C42.1271 61.5113 42.3401 61.4589 42.5077 61.5602C43.0665 61.9025 43.3983 62.4926 43.3983 63.1387C43.3983 63.6346 43.2027 64.099 42.8535 64.4517C42.4973 64.8079 42.0328 65 41.5404 65Z" fill="black"/>
<path d="M30.0242 30.7899C30.781 30.9075 31.4898 30.3894 31.6074 29.6326C31.7251 28.8759 31.2069 28.167 30.4502 28.0494C29.6934 27.9318 28.9845 28.4499 28.8669 29.2067C28.7493 29.9634 29.2674 30.6723 30.0242 30.7899Z" fill="#181818"/>
<path d="M35.8717 34.199C36.235 35.1805 37.1007 35.8747 38.1488 35.8885C39.2516 35.9186 40.4668 34.9697 40.9293 34.0152C41.2123 33.4641 40.3944 32.943 40.1114 33.4941C39.5183 34.6876 37.4428 35.6588 36.797 33.9579C36.6097 33.3861 35.6661 33.6217 35.8717 34.199Z" fill="#181818"/>
<path d="M47.3573 31.3151C48.1141 31.4327 48.8229 30.9145 48.9406 30.1578C49.0582 29.401 48.5401 28.6922 47.7833 28.5745C47.0265 28.4569 46.3177 28.9751 46.2001 29.7318C46.0824 30.4886 46.6006 31.1974 47.3573 31.3151Z" fill="#181818"/>
<path d="M39.7346 11.5223L39.7346 11.5223L39.7362 11.5266L44.5891 24.4474C44.5894 24.448 44.5896 24.4486 44.5898 24.4492C44.9378 25.3503 45.9396 25.8044 46.8275 25.4639L46.8278 25.4638L55.7526 22.0482L55.7561 22.0469C55.9662 21.9682 56.1585 21.8485 56.3218 21.6947C56.4851 21.5409 56.6161 21.3561 56.7072 21.1511C56.7983 20.9462 56.8476 20.7251 56.8523 20.5009C56.8571 20.2766 56.8171 20.0536 56.7347 19.8449L56.7338 19.8427L51.702 6.92574L51.7012 6.9238C51.5574 6.55011 51.2309 6.33219 50.7164 6.10354L44.5349 3.35633C44.0515 3.14146 43.6853 3.13771 43.4153 3.24151C43.1452 3.34528 42.8761 3.59318 42.6614 4.07625L39.9169 10.2517C39.6873 10.7683 39.5903 11.1483 39.7346 11.5223ZM45.8501 7.9491C45.7054 8.08645 45.5351 8.19395 45.3489 8.26548C45.1627 8.337 44.9642 8.37114 44.7648 8.36597C44.5654 8.36081 44.369 8.31643 44.1867 8.23537C44.0044 8.15432 43.8399 8.03817 43.7025 7.89356C43.5651 7.74895 43.4575 7.57869 43.3859 7.39251C43.3143 7.20633 43.2801 7.00787 43.2852 6.80846C43.2903 6.60904 43.3346 6.41259 43.4157 6.23032C43.4967 6.04805 43.6129 5.88354 43.7576 5.74619C43.9022 5.60884 44.0725 5.50134 44.2587 5.42982C44.4449 5.35829 44.6434 5.32415 44.8428 5.32932C45.0422 5.33449 45.2387 5.37887 45.421 5.45992C45.6032 5.54098 45.7677 5.65712 45.9051 5.80173C46.0425 5.94634 46.1501 6.1166 46.2217 6.30278C46.2933 6.48896 46.3276 6.68742 46.3225 6.88684C46.3174 7.08625 46.273 7.2827 46.192 7.46497C46.1109 7.64724 45.9948 7.81175 45.8501 7.9491Z" fill="#FFD983" stroke="black" stroke-width="1.02928"/>
<path d="M44.3449 5.54775L44.3451 5.5477C44.6942 5.41335 45.0824 5.42323 45.4242 5.57514C45.766 5.72705 46.0335 6.00856 46.1678 6.35776C46.3021 6.70696 46.2921 7.09524 46.1402 7.43719C45.9882 7.77909 45.7067 8.04664 45.3576 8.18101C45.3576 8.18102 45.3575 8.18104 45.3575 8.18106M44.3449 5.54775L43.2748 7.47058C43.4357 7.88869 43.7559 8.2258 44.1652 8.40779C44.5745 8.58979 45.0393 8.60178 45.4575 8.44112L45.3575 8.18106M44.3449 5.54775C44.172 5.61417 44.0139 5.71401 43.8796 5.84158C43.7453 5.96915 43.6374 6.12195 43.5622 6.29123C43.487 6.46051 43.4458 6.64296 43.4411 6.82813C43.4364 7.01331 43.4683 7.19759 43.5349 7.37042L43.2749 7.47057L43.5349 7.37054C43.6692 7.71971 43.9367 8.00121 44.2784 8.15318C44.6202 8.30513 45.0083 8.31516 45.3575 8.18106M44.3449 5.54775L45.3575 8.18106M45.5219 7.57202C45.4271 7.65952 45.3158 7.72724 45.1946 7.77121C44.9558 7.85782 44.6927 7.84732 44.4616 7.74197C44.2305 7.63661 44.05 7.44481 43.9588 7.20778C43.8676 6.97076 43.8729 6.70741 43.9738 6.47431C44.0746 6.2412 44.2628 6.05691 44.4979 5.96104C44.6174 5.91235 44.7453 5.88796 44.8743 5.88932C45.0033 5.89067 45.1307 5.91774 45.249 5.96894C45.3674 6.02013 45.4744 6.09443 45.5637 6.18748C45.653 6.28052 45.7229 6.39045 45.7692 6.51083C45.8155 6.6312 45.8374 6.75961 45.8335 6.88853C45.8296 7.01745 45.8 7.1443 45.7465 7.26165C45.693 7.37901 45.6166 7.48453 45.5219 7.57202Z" fill="#D99E82" stroke="black" stroke-width="0.557302"/>
<path d="M40.6021 3.41929L40.6022 3.41935L44.7149 6.6836C44.7479 6.70985 44.7695 6.74841 44.7744 6.79092C44.7794 6.83343 44.7673 6.87592 44.7412 6.90908C44.7151 6.94219 44.6772 6.9633 44.636 6.96812C44.6155 6.97051 44.5948 6.96883 44.5749 6.96316C44.555 6.95748 44.5363 6.94791 44.52 6.93492L44.3466 7.15312L44.5199 6.93486L40.4072 3.67061L40.6021 3.41929ZM40.6021 3.41929C40.5857 3.4063 40.5671 3.39673 40.5472 3.39105M40.6021 3.41929L40.5472 3.39105M40.5472 3.39105C40.5273 3.38538 40.5065 3.3837 40.4861 3.38609M40.5472 3.39105L40.4861 3.38609M40.4861 3.38609C40.4656 3.38848 40.4458 3.3949 40.4278 3.405M40.4861 3.38609L40.4278 3.405M40.4278 3.405C40.4097 3.41511 40.3938 3.42872 40.3808 3.44513M40.4278 3.405L40.3808 3.44513M40.3808 3.44513C40.3679 3.46154 40.3583 3.48041 40.3526 3.5007M40.3808 3.44513L40.3526 3.5007M40.3526 3.5007C40.3469 3.52099 40.3452 3.54227 40.3476 3.56329M40.3526 3.5007L40.3476 3.56329M40.3476 3.56329C40.3501 3.58431 40.3566 3.60462 40.3669 3.62305M40.3476 3.56329L40.3669 3.62305M40.3669 3.62305C40.3771 3.64144 40.3908 3.65757 40.4071 3.67055L40.3669 3.62305Z" fill="#C1694F" stroke="black" stroke-width="0.557302"/>
<path fill-rule="evenodd" clip-rule="evenodd" d="M46.7135 11.8639C48.8792 11.0081 51.3314 12.0711 52.1873 14.2367C53.0431 16.4024 51.9801 18.8546 49.8145 19.7105C47.6488 20.5663 45.1966 19.5033 44.3407 17.3377C43.4849 15.172 44.5479 12.7198 46.7135 11.8639ZM46.1962 16.4957C46.1169 16.2895 46.2198 16.0581 46.426 15.9788L49.5276 14.7859C49.7338 14.7066 49.9653 14.8095 50.0446 15.0157C50.1239 15.2219 50.021 15.4533 49.8148 15.5326L46.7132 16.7255C46.507 16.8048 46.2755 16.7019 46.1962 16.4957ZM51.4026 14.5468C52.0864 16.277 51.2346 18.242 49.5044 18.9258C47.7743 19.6096 45.8092 18.7577 45.1254 17.0276C44.4417 15.2974 45.2935 13.3323 47.0237 12.6486C48.7538 11.9648 50.7189 12.8167 51.4026 14.5468Z" fill="#880B0B"/>
</svg>
