<svg viewBox="0 0 105 81" fill="none" xmlns="http://www.w3.org/2000/svg">
    <circle opacity="0.6" cx="29.331" cy="36.3936" r="1.6013" transform="rotate(-45 29.331 36.3936)" fill="#FB8A76"/>
    <circle opacity="0.4" cx="22.537" cy="29.5967" r="2.66884" transform="rotate(-45 22.537 29.5967)" fill="#FB8A76"/>
    <circle opacity="0.3" cx="14.2337" cy="21.2949" r="3.73638" transform="rotate(-45 14.2337 21.2949)" fill="#FB8A76"/>
    <circle opacity="0.6" cx="25.4961" cy="52.6419" r="1.6013" transform="rotate(-90 25.4961 52.6419)" fill="#FB8A76"/>
    <circle opacity="0.4" cx="15.8883" cy="52.6417" r="2.66884" transform="rotate(-90 15.8883 52.6417)" fill="#FB8A76"/>
    <circle opacity="0.3" cx="4.14507" cy="52.6416" r="3.73638" transform="rotate(-90 4.14507 52.6416)" fill="#FB8A76"/>
    <circle opacity="0.6" cx="43.4594" cy="24.8506" r="1.6013" transform="rotate(-20 43.4594 24.8506)" fill="#FB8A76"/>
    <circle opacity="0.4" cx="40.1726" cy="15.8246" r="2.66884" transform="rotate(-20 40.1726 15.8246)" fill="#FB8A76"/>
    <circle opacity="0.3" cx="36.1564" cy="4.78977" r="3.73638" transform="rotate(-20 36.1564 4.78977)" fill="#FB8A76"/>
    <circle opacity="0.6" r="1.6013" transform="matrix(-0.707107 -0.707107 -0.707107 0.707107 75.1771 36.3936)"
            fill="#FB8A76"/>
    <circle opacity="0.3" r="2.66884" transform="matrix(-0.707107 -0.707107 -0.707107 0.707107 81.9711 29.5967)"
            fill="#FB8A76"/>
    <circle opacity="0.3" r="3.73638" transform="matrix(-0.707107 -0.707107 -0.707107 0.707107 90.2743 21.2949)"
            fill="#FB8A76"/>
    <circle opacity="0.6" r="1.6013" transform="matrix(0 -1 -1 0 79.012 52.6419)" fill="#FB8A76"/>
    <circle opacity="0.4" r="2.66884" transform="matrix(0 -1 -1 0 88.6197 52.6417)" fill="#FB8A76"/>
    <circle opacity="0.3" r="3.73638" transform="matrix(0 -1 -1 0 100.363 52.6416)" fill="#FB8A76"/>
    <circle opacity="0.6" r="1.6013" transform="matrix(-0.939693 -0.34202 -0.34202 0.939693 61.0487 24.8506)"
            fill="#FB8A76"/>
    <circle opacity="0.4" r="2.66884" transform="matrix(-0.939693 -0.34202 -0.34202 0.939693 64.3354 15.8246)"
            fill="#FB8A76"/>
    <circle opacity="0.3" r="3.73638" transform="matrix(-0.939693 -0.34202 -0.34202 0.939693 68.3517 4.78977)"
            fill="#FB8A76"/>
    <path d="M50.0357 75.997C38.7015 75.0552 31.4268 69.5667 31.4268 64.7926V33.4529C31.4268 28.2242 35.6812 23.9698 40.9099 23.9698H49.8734V21.9238C49.8734 21.3067 50.393 20.7871 51.01 20.7871H56.1413C56.7584 20.7871 57.278 21.3067 57.278 21.9238V23.9373H66.2415C71.5027 23.9373 75.7246 28.1917 75.7246 33.4204V64.7602C75.7246 69.5667 70.2686 75.1201 57.1156 75.997C56.6285 76.0295 56.1413 76.062 55.6542 76.062L56.1088 70.8008C60.8179 70.4111 65.5919 69.177 70.3985 67.1634C71.6326 66.6438 72.4445 65.4422 72.4445 64.1106V36.116C72.4445 34.2973 70.9506 32.8034 69.1319 32.8034H38.0519C36.2333 32.8034 34.7394 34.2973 34.7394 36.116V64.2081C34.7394 65.4747 35.4863 66.6438 36.6555 67.1959C41.397 69.4043 46.236 70.6059 51.075 70.8657L51.4647 76.062C51.01 76.062 50.5229 76.0295 50.0357 75.997ZM55.5243 23.4827V22.7032C55.5243 22.4109 55.2969 22.1836 55.0046 22.1836H52.1792C51.8869 22.1836 51.6596 22.4109 51.6596 22.7032V23.4502C51.6596 23.7425 51.8869 23.9698 52.1792 23.9698H55.0046C55.2969 23.9698 55.5243 23.7425 55.5243 23.4827Z"
          fill="#EEEFEF"/>
    <path d="M53.608 44.0723C56.8881 44.0723 59.5836 46.7353 59.5836 50.0479C59.5836 53.3605 56.9206 56.0236 53.608 56.0236C50.2954 56.0236 47.6323 53.3605 47.6323 50.0479C47.6323 46.7353 50.2954 44.0723 53.608 44.0723ZM56.9206 51.2496V48.8138H54.8096V46.7029H52.3739V48.8138H50.2629V51.2496H52.3739V53.3605H54.8096V51.2496H56.9206Z"
          fill="white"/>
    <path d="M57.1482 76.0293C57.2132 76.2242 57.2782 76.419 57.2782 76.6463C57.2782 77.101 57.0833 77.4907 56.791 77.783C56.6936 77.8805 56.5961 77.9454 56.4987 78.0104C56.2389 78.1727 55.9466 78.2702 55.6219 78.2702H51.5298C51.2051 78.2702 50.9128 78.1727 50.653 78.0104C50.1983 77.7181 49.906 77.2309 49.906 76.6463C49.906 76.419 49.9385 76.2242 50.0359 76.0293C50.5231 76.0618 51.0102 76.0942 51.4973 76.1267C52.1469 76.1592 52.8289 76.1917 53.5109 76.1917C54.2578 76.1917 54.9723 76.1917 55.6868 76.1592C56.174 76.0618 56.6936 76.0618 57.1482 76.0293Z"
          fill="#EEEFEF"/>
    <path d="M56.9208 48.8463V51.2496H54.8099V53.3605H52.3742V51.2496H50.2632V48.8463H52.3742V46.7354H54.8099V48.8463H56.9208Z"
          fill="#E54256"/>
    <path d="M57.1807 79.1789C57.1807 79.5686 57.0183 79.9259 56.7585 80.1532C56.4987 80.413 56.1739 80.5754 55.7842 80.5754H51.3999C50.6205 80.5754 50.0034 79.9584 50.0034 79.1789C50.0034 78.7892 50.1658 78.432 50.4256 78.2046C50.4906 78.1397 50.588 78.0747 50.6854 78.0098C50.9452 78.1721 51.2375 78.2696 51.5623 78.2696H55.6868C56.0116 78.2696 56.3038 78.1721 56.5637 78.0098C56.9209 78.2371 57.1807 78.6918 57.1807 79.1789Z"
          fill="#EEEFEF"/>
    <path d="M72.4444 32.7706V64.1103C72.4444 65.4419 71.6325 66.6435 70.3984 67.1631C65.5918 69.1767 60.8178 70.4108 56.1087 70.8005L55.6865 76.0941C54.9721 76.1266 54.2576 76.1266 53.5106 76.1266C52.8286 76.1266 52.1466 76.0941 51.4971 76.0617L51.1074 70.8654C46.2359 70.6056 41.4294 69.4365 36.6878 67.1956C35.5187 66.6435 34.7717 65.4743 34.7717 64.2078V32.7706C34.7717 30.9519 36.2656 29.458 38.0843 29.458H69.1642C70.9505 29.458 72.4444 30.9519 72.4444 32.7706ZM59.5512 50.0481C59.5512 46.7679 56.8882 44.0724 53.5756 44.0724C50.263 44.0724 47.5999 46.7355 47.5999 50.0481C47.5999 53.3606 50.263 56.0237 53.5756 56.0237C56.8882 56.0237 59.5512 53.3282 59.5512 50.0481Z"
          fill="#E54256"/>
    <path opacity="0.15"
          d="M66.9881 23.9707C66.9881 23.9707 70.6579 25.0424 71.1126 30.466C71.5348 35.8895 71.1126 66.2875 71.1126 66.2875C71.1126 66.2875 71.4373 68.1386 69.8135 69.9573C68.1897 71.8085 64.0652 75.3809 55.6213 75.8031V76.2252C55.6213 76.2252 66.5984 75.8031 71.6972 71.6136C76.0815 68.0412 75.5294 65.9302 75.5294 65.9302V31.5052C75.5294 31.5377 74.2953 25.1723 66.9881 23.9707Z"
          fill="#232533"/>
    <path opacity="0.15"
          d="M31.6541 60.8291C31.6541 60.8291 31.9789 64.5639 33.1155 66.7398C34.2522 68.9157 43.0208 75.4435 49.9383 75.8007C49.9383 75.8007 38.5066 75.1512 33.9599 69.6952C33.9599 69.6952 31.5567 67.227 31.4268 65.733"
          fill="#232533"/>
    <path opacity="0.15"
          d="M49.9386 75.9639C49.9386 75.9639 49.8737 76.7108 50.1335 77.0031C50.3933 77.2629 55.7519 77.0681 55.7519 77.0681C55.7519 77.0681 55.7194 78.0099 55.622 78.1723C55.5246 78.3346 55.7519 79.1141 55.7519 79.7961C55.7519 80.4781 55.7519 80.4781 55.7519 80.4781C55.7519 80.4781 56.3365 80.608 56.7911 80.1208C57.2133 79.6337 57.2458 79.0816 57.2458 79.0816L56.8561 77.88C56.8561 77.88 56.921 77.4903 57.0509 77.1655C57.1484 76.8407 56.986 76.1587 56.986 76.1587"
          fill="#232533"/>
    <path opacity="0.15"
          d="M41.5267 40.5974C43.428 40.5974 44.9692 37.8202 44.9692 34.3944C44.9692 30.9686 43.428 28.1914 41.5267 28.1914C39.6255 28.1914 38.0842 30.9686 38.0842 34.3944C38.0842 37.8202 39.6255 40.5974 41.5267 40.5974Z"
          fill="white"/>
    <path opacity="0.15"
          d="M41.5597 48.652C42.8153 48.652 43.8331 47.1835 43.8331 45.3719C43.8331 43.5604 42.8153 42.0918 41.5597 42.0918C40.3042 42.0918 39.2864 43.5604 39.2864 45.3719C39.2864 47.1835 40.3042 48.652 41.5597 48.652Z"
          fill="white"/>
    <path d="M53.5761 56.3157C50.1011 56.3157 47.2756 53.4902 47.2756 50.0153C47.2756 46.5403 50.1011 43.7148 53.5761 43.7148C57.051 43.7148 59.8765 46.5403 59.8765 50.0153C59.8765 53.4902 57.051 56.3157 53.5761 56.3157ZM53.5761 44.3968C50.4583 44.3968 47.9252 46.93 47.9252 50.0477C47.9252 53.1655 50.4583 55.6986 53.5761 55.6986C56.6938 55.6986 59.227 53.1655 59.227 50.0477C59.227 46.93 56.6938 44.3968 53.5761 44.3968Z"
          fill="black"/>
    <path d="M54.8102 53.6851H52.3745C52.1796 53.6851 52.0497 53.5552 52.0497 53.3604V51.5742H50.2635C50.0686 51.5742 49.9387 51.4442 49.9387 51.2494V48.8137C49.9387 48.6188 50.0686 48.4889 50.2635 48.4889H52.0497V46.7027C52.0497 46.5078 52.1796 46.3779 52.3745 46.3779H54.8102C55.005 46.3779 55.1349 46.5078 55.1349 46.7027V48.4889H56.9211C57.116 48.4889 57.2459 48.6188 57.2459 48.8137V51.2494C57.2459 51.4442 57.116 51.5742 56.9211 51.5742H55.1349V53.3604C55.1349 53.5227 54.9726 53.6851 54.8102 53.6851ZM52.6992 53.0356H54.4854V51.2494C54.4854 51.0545 54.6153 50.9246 54.8102 50.9246H56.5964V49.1384H54.8102C54.6153 49.1384 54.4854 49.0085 54.4854 48.8137V47.0275H52.6992V48.8137C52.6992 49.0085 52.5693 49.1384 52.3745 49.1384H50.5882V50.9246H52.3745C52.5693 50.9246 52.6992 51.0545 52.6992 51.2494V53.0356Z"
          fill="black"/>
    <path d="M53.5105 76.4512C47.34 76.4512 41.5917 75.1197 37.3048 72.7165C33.4401 70.5081 31.1018 67.5527 31.1018 64.7922V33.4525C31.1018 28.0289 35.5186 23.6446 40.9097 23.6446H49.5484V21.9234C49.5484 21.1114 50.1979 20.4619 51.0098 20.4619H56.1411C56.953 20.4619 57.6026 21.1114 57.6026 21.9234V23.6121H66.2413C71.6648 23.6121 76.0492 28.0289 76.0492 33.42V64.7597C76.0492 67.7151 74.1006 70.6055 70.6906 72.684C66.696 75.1522 60.7528 76.4512 53.5105 76.4512ZM40.9097 24.2941C35.8758 24.2941 31.7513 28.3862 31.7513 33.4525V64.7922C31.7513 69.9884 40.6823 75.8017 53.5105 75.8017C68.5796 75.8017 75.4321 70.0859 75.4321 64.7922V33.4525C75.4321 28.3862 71.3076 24.2941 66.2738 24.2941H57.2778C57.0829 24.2941 56.953 24.1642 56.953 23.9694V21.9234C56.953 21.4687 56.5958 21.1114 56.1411 21.1114H51.0423C50.5877 21.1114 50.2304 21.4687 50.2304 21.9234V23.9369C50.2304 24.1317 50.1005 24.2617 49.9056 24.2617H40.9097V24.2941Z"
          fill="black"/>
    <path d="M55.6868 76.4183C55.6868 76.4183 55.6544 76.4183 55.6868 76.4183C55.492 76.4183 55.3621 76.2559 55.3621 76.061L55.7843 70.7999C55.7843 70.6375 55.9142 70.5076 56.0766 70.5076C60.6557 70.1503 65.4298 68.9162 70.2688 66.9027C71.4054 66.448 72.1199 65.3438 72.1199 64.1422V32.5426C72.1199 30.8863 70.7884 29.5548 69.1321 29.5548H38.0522C36.3959 29.5548 35.0643 30.8863 35.0643 32.5426V64.2396C35.0643 65.4088 35.7463 66.448 36.7856 66.9352C41.4297 69.1111 46.2362 70.3127 51.1077 70.5725C51.2701 70.5725 51.4 70.7024 51.4 70.8648L51.7897 76.061C51.7897 76.2559 51.6598 76.3858 51.4974 76.4183C51.3025 76.4183 51.1726 76.2884 51.1401 76.126L50.7504 71.222C45.9114 70.9298 41.1049 69.6957 36.4933 67.5522C35.2267 66.9676 34.4148 65.6686 34.4148 64.2721V32.5426C34.4148 30.5291 36.0386 28.9053 38.0522 28.9053H69.1321C71.1456 28.9053 72.7694 30.5291 72.7694 32.5426V64.1422C72.7694 65.6036 71.8926 66.9352 70.5286 67.4873C65.7221 69.5008 60.9805 70.7024 56.4013 71.1246L56.0116 76.126C55.9791 76.2884 55.8492 76.4183 55.6868 76.4183Z"
          fill="black"/>
    <path d="M55.6539 78.5625H51.5294C50.4577 78.5625 49.5808 77.6856 49.5808 76.6139C49.5808 76.3541 49.6458 76.0943 49.7432 75.867C49.8081 75.7046 50.003 75.6396 50.1654 75.7046C50.3278 75.7695 50.3927 75.9644 50.3278 76.1268C50.2628 76.2891 50.2303 76.4515 50.2303 76.6464C50.2303 77.3609 50.8149 77.9454 51.5294 77.9454H55.6539C56.0111 77.9454 56.3359 77.8155 56.5632 77.5557C56.8231 77.3284 56.953 76.9712 56.953 76.6464C56.953 76.484 56.9205 76.3216 56.8555 76.1592C56.7906 75.9969 56.8555 75.802 57.0504 75.7371C57.2128 75.6721 57.4076 75.7371 57.4726 75.9319C57.57 76.1592 57.6025 76.4191 57.6025 76.6464C57.6025 77.166 57.4076 77.6532 57.0179 78.0104C56.6607 78.3676 56.1735 78.5625 55.6539 78.5625Z"
          fill="black"/>
    <path d="M55.0046 24.2941H52.1791C51.7244 24.2941 51.3347 23.9369 51.3347 23.4497V22.7028C51.3347 22.2481 51.692 21.8584 52.1791 21.8584H55.0046C55.4592 21.8584 55.8489 22.2156 55.8489 22.7028V23.4497C55.8489 23.9369 55.4592 24.2941 55.0046 24.2941ZM52.1791 22.5404C52.0817 22.5404 51.9842 22.6378 51.9842 22.7353V23.4822C51.9842 23.5796 52.0817 23.6771 52.1791 23.6771H55.0046C55.102 23.6771 55.1994 23.5796 55.1994 23.4822V22.7028C55.1994 22.6054 55.102 22.5079 55.0046 22.5079H52.1791V22.5404Z"
          fill="black"/>
    <path d="M55.784 80.9006H51.3997C50.4579 80.9006 49.6785 80.1212 49.6785 79.1793C49.6785 78.7247 49.8733 78.27 50.1981 77.9452C50.2955 77.8478 50.3929 77.7504 50.5229 77.6854C50.6852 77.588 50.8801 77.653 50.9775 77.8153C51.075 77.9777 51.01 78.1726 50.8476 78.27C50.7827 78.3025 50.7177 78.3674 50.6528 78.4324C50.4579 78.6272 50.328 78.9195 50.328 79.1793C50.328 79.7639 50.8151 80.2511 51.3997 80.2511H55.784C56.0763 80.2511 56.3361 80.1536 56.531 79.9263C56.7258 79.7314 56.8558 79.4392 56.8558 79.1793C56.8558 78.7896 56.6609 78.4649 56.3361 78.27C56.1737 78.1726 56.1413 77.9777 56.2387 77.8153C56.3361 77.653 56.531 77.6205 56.6934 77.7179C57.213 78.0427 57.5053 78.5948 57.5053 79.1793C57.5053 79.634 57.3104 80.0562 56.9857 80.4134C56.6609 80.7382 56.2387 80.9006 55.784 80.9006Z"
          fill="black"/>
</svg>
