<svg viewBox="0 0 10 12" fill="none" xmlns="http://www.w3.org/2000/svg">
    <path d="M4.90587 5.63746C4.90628 6.41003 4.54212 7.13766 3.92311 7.60086C3.49893 7.91841 2.98304 8.08979 2.45293 8.08928C1.09789 8.08893 -0.00030668 6.99135 6.42437e-08 5.63777C6.42437e-08 5.63726 6.42437e-08 5.63674 6.42437e-08 5.63623C6.42437e-08 2.88285 2.45293 0 2.45293 0C3.16796 0.925984 3.77296 1.93169 4.25588 2.99699C4.4571 3.4468 4.61937 3.91296 4.74084 4.39046C4.84616 4.79794 4.90157 5.21665 4.90587 5.63746Z"
          fill="#FB8A76"/>
    <path d="M9.99964 7.81286C9.99964 4.34915 6.70148 0.232476 6.70148 0.232476C6.70148 0.232476 3.39938 4.10918 3.39938 7.81286C3.39856 9.63363 4.87548 11.1103 6.69821 11.1111C8.52093 11.1119 9.99918 9.63659 10 7.81583C10 7.81486 9.99964 7.81383 9.99964 7.81286Z"
          fill="#FB8A76"/>
</svg>
