<svg viewBox="0 0 57 58" fill="none" xmlns="http://www.w3.org/2000/svg">
<path d="M28.5002 56.6225C43.4926 56.6225 55.6464 44.2555 55.6464 29C55.6464 13.7445 43.4926 1.37753 28.5002 1.37753C13.5077 1.37753 1.35391 13.7445 1.35391 29C1.35391 44.2555 13.5077 56.6225 28.5002 56.6225Z" fill="#AF96E2"/>
<path d="M43.3233 13.671C41.6952 11.9051 39.4792 10.875 37.1275 10.875C34.7758 10.875 32.605 11.8561 30.9317 13.671L15.0126 30.9376C11.6208 34.6165 11.6208 40.65 15.0126 44.329C16.6407 46.0949 18.8567 47.125 21.2084 47.125C23.5601 47.125 25.7309 46.1439 27.4042 44.329L35.3638 35.6957L43.3233 27.0624C46.7152 23.3835 46.7152 17.399 43.3233 13.671ZM26.3188 43.2008C24.9621 44.6724 23.1079 45.5063 21.2084 45.5063C19.309 45.5063 17.4548 44.6724 16.098 43.2008C13.2489 40.1105 13.2489 35.1561 16.098 32.0658L23.5601 23.9721C23.6053 24.0211 23.6053 24.0702 23.6506 24.1192L33.7809 35.1071L26.3188 43.2008ZM42.2379 25.9833L34.8211 34.0279L24.6907 23.0401C24.6455 22.991 24.6003 22.991 24.555 22.942L32.0171 14.8483C33.3739 13.3767 35.2281 12.5428 37.1275 12.5428C39.0722 12.5428 40.8812 13.3767 42.2379 14.8483C45.0871 17.9386 45.0871 22.8929 42.2379 25.9833Z" fill="white"/>
<path d="M42.2379 25.9833L34.8211 34.0279L24.6907 23.0401C24.6455 22.991 24.6003 22.991 24.555 22.942L32.0171 14.8483C33.3739 13.3767 35.2281 12.5428 37.1275 12.5428C39.0722 12.5428 40.8812 13.3767 42.2379 14.8483C45.0871 17.9386 45.0871 22.8929 42.2379 25.9833Z" fill="white"/>
<path d="M28.5002 56.6225C43.4926 56.6225 55.6464 44.2555 55.6464 29C55.6464 13.7445 43.4926 1.37753 28.5002 1.37753C13.5077 1.37753 1.35393 13.7445 1.35393 29C1.35393 44.2555 13.5077 56.6225 28.5002 56.6225Z" fill="#E98690"/>
<g clip-path="url(#clip0_2751_53126)">
<path d="M26.472 43.4585C20.0086 42.8937 15.8601 39.6017 15.8601 36.7384V17.9414C15.8601 14.8053 18.2862 12.2536 21.2679 12.2536H26.3794V11.0264C26.3794 10.6563 26.6757 10.3446 27.0276 10.3446H29.9538C30.3056 10.3446 30.602 10.6563 30.602 11.0264V12.2341H35.7134C38.7137 12.2341 41.1212 14.7858 41.1212 17.9219V36.7189C41.1212 39.6017 38.0099 42.9326 30.5094 43.4585C30.2316 43.478 29.9538 43.4975 29.676 43.4975L29.9352 40.3419C32.6206 40.1082 35.343 39.368 38.084 38.1603C38.7877 37.8487 39.2507 37.1279 39.2507 36.3293V19.5386C39.2507 18.4478 38.3988 17.5518 37.3617 17.5518H19.6382C18.6011 17.5518 17.7492 18.4478 17.7492 19.5386V36.3877C17.7492 37.1474 18.1751 37.8487 18.8418 38.1798C21.5457 39.5043 24.3052 40.2251 27.0647 40.3809L27.2869 43.4975C27.0276 43.4975 26.7498 43.478 26.472 43.4585ZM29.6019 11.9614V11.4939C29.6019 11.3186 29.4722 11.1822 29.3056 11.1822H27.6943C27.5277 11.1822 27.398 11.3186 27.398 11.4939V11.9419C27.398 12.1172 27.5277 12.2536 27.6943 12.2536H29.3056C29.4722 12.2536 29.6019 12.1172 29.6019 11.9614Z" fill="#EEEFEF"/>
<path d="M28.5091 24.3108C30.3796 24.3108 31.9168 25.908 31.9168 27.8949C31.9168 29.8817 30.3982 31.4789 28.5091 31.4789C26.6201 31.4789 25.1015 29.8817 25.1015 27.8949C25.1015 25.908 26.6201 24.3108 28.5091 24.3108ZM30.3982 28.6156V27.1547H29.1944V25.8885H27.8054V27.1547H26.6016V28.6156H27.8054V29.8817H29.1944V28.6156H30.3982Z" fill="white"/>
<path d="M30.5279 43.4779C30.5649 43.5948 30.602 43.7117 30.602 43.848C30.602 44.1207 30.4908 44.3545 30.3242 44.5298C30.2686 44.5882 30.213 44.6272 30.1575 44.6661C30.0093 44.7635 29.8426 44.822 29.6574 44.822H27.3239C27.1387 44.822 26.9721 44.7635 26.8239 44.6661C26.5646 44.4908 26.3979 44.1986 26.3979 43.848C26.3979 43.7117 26.4165 43.5948 26.472 43.4779C26.7498 43.4974 27.0276 43.5169 27.3054 43.5364C27.6758 43.5558 28.0647 43.5753 28.4537 43.5753C28.8796 43.5753 29.287 43.5753 29.6945 43.5558C29.9723 43.4974 30.2686 43.4974 30.5279 43.4779Z" fill="#EEEFEF"/>
<path d="M30.3982 27.1744V28.6158H29.1945V29.8819H27.8055V28.6158H26.6017V27.1744H27.8055V25.9082H29.1945V27.1744H30.3982Z" fill="#E54256"/>
<path d="M30.5464 45.3673C30.5464 45.6011 30.4538 45.8153 30.3057 45.9517C30.1575 46.1075 29.9723 46.2049 29.7501 46.2049H27.2499C26.8054 46.2049 26.4535 45.8348 26.4535 45.3673C26.4535 45.1336 26.5461 44.9193 26.6943 44.783C26.7313 44.744 26.7869 44.705 26.8425 44.6661C26.9906 44.7635 27.1573 44.8219 27.3425 44.8219H29.6945C29.8797 44.8219 30.0464 44.7635 30.1946 44.6661C30.3983 44.8024 30.5464 45.0751 30.5464 45.3673Z" fill="#EEEFEF"/>
<path d="M39.2506 17.5321V36.3291C39.2506 37.1278 38.7876 37.8485 38.0839 38.1601C35.3429 39.3678 32.6205 40.108 29.9351 40.3418L29.6944 43.5168C29.2869 43.5363 28.8795 43.5363 28.4536 43.5363C28.0646 43.5363 27.6757 43.5168 27.3053 43.4973L27.0831 40.3807C24.3051 40.2249 21.5642 39.5237 18.8603 38.1796C18.1936 37.8485 17.7676 37.1472 17.7676 36.3876V17.5321C17.7676 16.4413 18.6195 15.5453 19.6566 15.5453H37.3801C38.3987 15.5453 39.2506 16.4413 39.2506 17.5321ZM31.8982 27.8948C31.8982 25.9275 30.3796 24.3107 28.4906 24.3107C26.6016 24.3107 25.0829 25.908 25.0829 27.8948C25.0829 29.8817 26.6016 31.4789 28.4906 31.4789C30.3796 31.4789 31.8982 29.8622 31.8982 27.8948Z" fill="#E54256"/>
<path opacity="0.15" d="M36.1394 12.2537C36.1394 12.2537 38.2321 12.8965 38.4914 16.1494C38.7322 19.4024 38.4914 37.6345 38.4914 37.6345C38.4914 37.6345 38.6766 38.7448 37.7506 39.8356C36.8246 40.9459 34.4726 43.0886 29.6574 43.3418V43.595C29.6574 43.595 35.9171 43.3418 38.8248 40.829C41.3249 38.6864 41.0101 37.4202 41.0101 37.4202V16.7727C41.0101 16.7922 40.3064 12.9744 36.1394 12.2537Z" fill="#232533"/>
<path opacity="0.15" d="M15.9898 34.3621C15.9898 34.3621 16.175 36.6022 16.8232 37.9072C17.4714 39.2123 22.4717 43.1275 26.4165 43.3418C26.4165 43.3418 19.8975 42.9522 17.3047 39.6798C17.3047 39.6798 15.9342 38.1994 15.8601 37.3034" fill="#232533"/>
<path opacity="0.15" d="M26.4164 43.4391C26.4164 43.4391 26.3794 43.8872 26.5275 44.0625C26.6757 44.2183 29.7315 44.1014 29.7315 44.1014C29.7315 44.1014 29.7129 44.6663 29.6574 44.7637C29.6018 44.8611 29.7315 45.3286 29.7315 45.7376C29.7315 46.1467 29.7315 46.1467 29.7315 46.1467C29.7315 46.1467 30.0648 46.2246 30.3241 45.9324C30.5649 45.6402 30.5834 45.3091 30.5834 45.3091L30.3611 44.5884C30.3611 44.5884 30.3982 44.3547 30.4723 44.1599C30.5278 43.9651 30.4352 43.556 30.4352 43.556" fill="#232533"/>
<path opacity="0.15" d="M21.6197 22.2268C22.7039 22.2268 23.5828 20.5611 23.5828 18.5064C23.5828 16.4516 22.7039 14.7859 21.6197 14.7859C20.5355 14.7859 19.6566 16.4516 19.6566 18.5064C19.6566 20.5611 20.5355 22.2268 21.6197 22.2268Z" fill="white"/>
<path opacity="0.15" d="M21.6384 27.0573C22.3544 27.0573 22.9348 26.1765 22.9348 25.09C22.9348 24.0034 22.3544 23.1226 21.6384 23.1226C20.9224 23.1226 20.342 24.0034 20.342 25.09C20.342 26.1765 20.9224 27.0573 21.6384 27.0573Z" fill="white"/>
<path d="M28.4906 31.6545C26.509 31.6545 24.8978 29.9598 24.8978 27.8756C24.8978 25.7913 26.509 24.0967 28.4906 24.0967C30.4722 24.0967 32.0835 25.7913 32.0835 27.8756C32.0835 29.9598 30.4722 31.6545 28.4906 31.6545ZM28.4906 24.5057C26.7127 24.5057 25.2682 26.0251 25.2682 27.895C25.2682 29.765 26.7127 31.2844 28.4906 31.2844C30.2685 31.2844 31.7131 29.765 31.7131 27.895C31.7131 26.0251 30.2685 24.5057 28.4906 24.5057Z" fill="black"/>
<path d="M29.1944 30.0765H27.8054C27.6943 30.0765 27.6202 29.9986 27.6202 29.8818V28.8104H26.6016C26.4905 28.8104 26.4164 28.7325 26.4164 28.6156V27.1547C26.4164 27.0379 26.4905 26.9599 26.6016 26.9599H27.6202V25.8886C27.6202 25.7717 27.6943 25.6938 27.8054 25.6938H29.1944C29.3055 25.6938 29.3796 25.7717 29.3796 25.8886V26.9599H30.3982C30.5093 26.9599 30.5834 27.0379 30.5834 27.1547V28.6156C30.5834 28.7325 30.5093 28.8104 30.3982 28.8104H29.3796V29.8818C29.3796 29.9791 29.287 30.0765 29.1944 30.0765ZM27.9906 29.687H29.0092V28.6156C29.0092 28.4988 29.0833 28.4208 29.1944 28.4208H30.213V27.3495H29.1944C29.0833 27.3495 29.0092 27.2716 29.0092 27.1547V26.0834H27.9906V27.1547C27.9906 27.2716 27.9165 27.3495 27.8054 27.3495H26.7868V28.4208H27.8054C27.9165 28.4208 27.9906 28.4988 27.9906 28.6156V29.687Z" fill="black"/>
<path d="M28.4535 43.7311C24.9347 43.7311 21.6567 42.9325 19.2121 41.491C17.0082 40.1665 15.6748 38.3939 15.6748 36.7382V17.9412C15.6748 14.6882 18.1935 12.0586 21.2678 12.0586H26.194V11.0262C26.194 10.5393 26.5644 10.1497 27.0274 10.1497H29.9536C30.4166 10.1497 30.787 10.5393 30.787 11.0262V12.0391H35.7133C38.8061 12.0391 41.3063 14.6882 41.3063 17.9217V36.7187C41.3063 38.4913 40.1951 40.2249 38.2505 41.4716C35.9725 42.9519 32.5834 43.7311 28.4535 43.7311ZM21.2678 12.4482C18.3972 12.4482 16.0452 14.9025 16.0452 17.9412V36.7382C16.0452 39.8548 21.1381 43.3415 28.4535 43.3415C37.0467 43.3415 40.9544 39.9133 40.9544 36.7382V17.9412C40.9544 14.9025 38.6024 12.4482 35.7318 12.4482H30.6018C30.4907 12.4482 30.4166 12.3703 30.4166 12.2534V11.0262C30.4166 10.7535 30.2129 10.5393 29.9536 10.5393H27.046C26.7867 10.5393 26.583 10.7535 26.583 11.0262V12.2339C26.583 12.3508 26.5089 12.4287 26.3978 12.4287H21.2678V12.4482Z" fill="black"/>
<path d="M29.6944 43.7118C29.6944 43.7118 29.6759 43.7118 29.6944 43.7118C29.5833 43.7118 29.5092 43.6144 29.5092 43.4975L29.7499 40.3419C29.7499 40.2445 29.824 40.1666 29.9166 40.1666C32.5279 39.9524 35.2503 39.2122 38.0098 38.0045C38.658 37.7318 39.0654 37.0695 39.0654 36.3488V17.3959C39.0654 16.4025 38.3061 15.6039 37.3616 15.6039H19.6381C18.6936 15.6039 17.9343 16.4025 17.9343 17.3959V36.4072C17.9343 37.1085 18.3232 37.7318 18.9158 38.024C21.5642 39.329 24.3051 40.0498 27.0831 40.2056C27.1757 40.2056 27.2497 40.2835 27.2497 40.3809L27.472 43.4975C27.472 43.6144 27.3979 43.6923 27.3053 43.7118C27.1942 43.7118 27.1201 43.6339 27.1016 43.5365L26.8794 40.5952C24.1199 40.4199 21.379 39.6797 18.7491 38.3941C18.0269 38.0434 17.5639 37.2643 17.5639 36.4267V17.3959C17.5639 16.1883 18.4899 15.2143 19.6381 15.2143H37.3616C38.5098 15.2143 39.4358 16.1883 39.4358 17.3959V36.3488C39.4358 37.2253 38.9358 38.024 38.1579 38.3551C35.417 39.5628 32.7131 40.2835 30.1018 40.5367L29.8796 43.5365C29.8611 43.6339 29.787 43.7118 29.6944 43.7118Z" fill="black"/>
<path d="M29.6759 44.9974H27.3239C26.7127 44.9974 26.2127 44.4714 26.2127 43.8286C26.2127 43.6728 26.2497 43.517 26.3053 43.3806C26.3423 43.2832 26.4534 43.2443 26.546 43.2832C26.6386 43.3222 26.6757 43.4391 26.6386 43.5365C26.6016 43.6339 26.5831 43.7312 26.5831 43.8481C26.5831 44.2767 26.9164 44.6273 27.3239 44.6273H29.6759C29.8796 44.6273 30.0648 44.5494 30.1945 44.3935C30.3426 44.2572 30.4167 44.0429 30.4167 43.8481C30.4167 43.7507 30.3982 43.6533 30.3611 43.5559C30.3241 43.4585 30.3611 43.3417 30.4723 43.3027C30.5649 43.2638 30.676 43.3027 30.713 43.4196C30.7686 43.5559 30.7871 43.7118 30.7871 43.8481C30.7871 44.1598 30.676 44.452 30.4537 44.6662C30.25 44.8805 29.9722 44.9974 29.6759 44.9974Z" fill="black"/>
<path d="M29.3054 12.4485H27.6942C27.4349 12.4485 27.2127 12.2342 27.2127 11.942V11.494C27.2127 11.2213 27.4164 10.9876 27.6942 10.9876H29.3054C29.5647 10.9876 29.7869 11.2018 29.7869 11.494V11.942C29.7869 12.2342 29.5647 12.4485 29.3054 12.4485ZM27.6942 11.3966C27.6386 11.3966 27.5831 11.4551 27.5831 11.5135V11.9615C27.5831 12.02 27.6386 12.0784 27.6942 12.0784H29.3054C29.361 12.0784 29.4165 12.02 29.4165 11.9615V11.494C29.4165 11.4356 29.361 11.3772 29.3054 11.3772H27.6942V11.3966Z" fill="black"/>
<path d="M29.75 46.3998H27.2498C26.7128 46.3998 26.2683 45.9323 26.2683 45.3674C26.2683 45.0947 26.3794 44.822 26.5646 44.6272C26.6202 44.5688 26.6757 44.5103 26.7498 44.4714C26.8424 44.4129 26.9535 44.4519 27.0091 44.5493C27.0646 44.6467 27.0276 44.7635 26.935 44.822C26.898 44.8415 26.8609 44.8804 26.8239 44.9194C26.7128 45.0362 26.6387 45.2116 26.6387 45.3674C26.6387 45.718 26.9165 46.0102 27.2498 46.0102H29.75C29.9167 46.0102 30.0649 45.9517 30.176 45.8154C30.2871 45.6985 30.3612 45.5232 30.3612 45.3674C30.3612 45.1336 30.2501 44.9389 30.0649 44.822C29.9723 44.7635 29.9537 44.6467 30.0093 44.5493C30.0649 44.4519 30.176 44.4324 30.2686 44.4908C30.5649 44.6856 30.7316 45.0168 30.7316 45.3674C30.7316 45.6401 30.6205 45.8933 30.4353 46.1076C30.2501 46.3024 30.0093 46.3998 29.75 46.3998Z" fill="black"/>
</g>
<defs>
<clipPath id="clip0_2751_53126">
<rect width="25.65" height="36.25" fill="white" transform="translate(15.675 10.15)"/>
</clipPath>
</defs>
</svg>
