<svg xmlns="http://www.w3.org/2000/svg" xmlns:xlink="http://www.w3.org/1999/xlink" viewBox="0 0 63 84.71"><defs><clipPath id="clip-path"><path d="M27.93,19.14a2.12,2.12,0,0,1-.87,0,2.16,2.16,0,0,1-.82-.28,2.28,2.28,0,0,1-.65-.59,2.1,2.1,0,0,1-.38-.78,2.33,2.33,0,0,1-.05-.87,2.29,2.29,0,0,1,.29-.83,2.4,2.4,0,0,1,.58-.65,2.62,2.62,0,0,1,.79-.38,2.12,2.12,0,0,1,.87,0,2.16,2.16,0,0,1,.82.28,2,2,0,0,1,.65.59,2.1,2.1,0,0,1,.38.78,2.14,2.14,0,0,1,.05.87,2.29,2.29,0,0,1-.29.83,2.23,2.23,0,0,1-1.37,1ZM51.61,48.33,43.72,18.62a4.73,4.73,0,0,0-2.5-2.78L28.27,8.19c-2.39-1.41-4.49-.87-5.9,1.52l-7.66,13a4.67,4.67,0,0,0-.85,3.63l7.55,29.93a4.93,4.93,0,0,0,4.1,3.68,4.84,4.84,0,0,0,1.93-.12L48,54.46A5,5,0,0,0,51.61,48.33Z" fill="none" clip-rule="evenodd"/></clipPath><clipPath id="clip-path-2"><path d="M27.69,18.55a1.35,1.35,0,0,1-.6,0,1.52,1.52,0,0,1-.58-.19,1.44,1.44,0,0,1-.45-.4,1.49,1.49,0,0,1-.27-.55,1.56,1.56,0,0,1,0-.61,1.52,1.52,0,0,1,.21-.57,1.46,1.46,0,0,1,.41-.45,1.53,1.53,0,0,1,.55-.25,1.55,1.55,0,0,1,1.69,2.27A1.58,1.58,0,0,1,27.69,18.55ZM31,16.12a3.74,3.74,0,0,0-.63-1.32,3.92,3.92,0,0,0-1.09-1,3.83,3.83,0,0,0-1.39-.48,3.65,3.65,0,0,0-1.47.08,3.76,3.76,0,0,0-1,6.88A3.76,3.76,0,0,0,31,16.12Z" fill="none" clip-rule="evenodd"/></clipPath><clipPath id="clip-path-3"><path d="M28.6,16.93a1,1,0,0,1-.18.34,1.16,1.16,0,0,1-.29.25,1,1,0,0,1-.74.08,1,1,0,0,1-.58-.47,1,1,0,0,1-.08-.74L30,5.15a.87.87,0,0,1,.17-.33.92.92,0,0,1,.66-.36.93.93,0,0,1,.37,0,1,1,0,0,1,.34.18,1.16,1.16,0,0,1,.25.29.89.89,0,0,1,.11.36.81.81,0,0,1,0,.38Z" fill="none" clip-rule="evenodd"/></clipPath></defs><g id="Layer_2" data-name="Layer 2"><g id="Layer_1-2" data-name="Layer 1"><path d="M34.23,4.23V3.14a.72.72,0,0,0-.73-.73h-4a.71.71,0,0,0-.72.73V4.19a.71.71,0,0,0,.72.73h4A.71.71,0,0,0,34.23,4.23ZM26.54,77.84C10.65,76.52.46,68.83.46,62.14V18.21A13.3,13.3,0,0,1,13.75,4.92H26.31V2.05A1.61,1.61,0,0,1,27.9.46h7.2a1.61,1.61,0,0,1,1.59,1.59V4.87H49.25a13.28,13.28,0,0,1,13.3,13.29V62.09c0,6.74-7.65,14.52-26.09,15.75-.68,0-1.36.09-2.05.09l.64-7.37a66.13,66.13,0,0,0,20-5.1A4.66,4.66,0,0,0,58,61.18V21.94a4.66,4.66,0,0,0-4.64-4.64H9.74A4.66,4.66,0,0,0,5.1,21.94V61.32A4.66,4.66,0,0,0,7.78,65.5,54.63,54.63,0,0,0,28,70.65l.54,7.28C27.9,77.93,27.22,77.89,26.54,77.84Z" fill="#eeefef"/><path d="M36.51,77.88a2.75,2.75,0,0,1,.18.87A2.22,2.22,0,0,1,36,80.34a2.71,2.71,0,0,1-.41.32,2.31,2.31,0,0,1-1.23.37H28.63a2.31,2.31,0,0,1-1.23-.37,2.24,2.24,0,0,1-1-1.91,1.84,1.84,0,0,1,.18-.87l2.05.14c.91,0,1.86.09,2.82.09s2.05,0,3.05,0A16.45,16.45,0,0,1,36.51,77.88Z" fill="#eeefef"/><polygon points="36.19 39.78 36.19 43.15 33.23 43.15 33.23 46.11 29.82 46.11 29.82 43.15 26.86 43.15 26.86 39.78 29.82 39.78 29.82 36.83 33.23 36.83 33.23 39.78 36.19 39.78" fill="#e54256"/><path d="M36.55,82.3A1.8,1.8,0,0,1,36,83.67a1.9,1.9,0,0,1-1.36.59H28.45a2,2,0,0,1-2-2,1.84,1.84,0,0,1,.59-1.37,3,3,0,0,1,.37-.27,2.25,2.25,0,0,0,1.23.37h5.78a2.31,2.31,0,0,0,1.23-.37A2,2,0,0,1,36.55,82.3Z" fill="#eeefef"/><path d="M58,17.25V61.18a4.66,4.66,0,0,1-2.87,4.28,66.13,66.13,0,0,1-20,5.1L34.46,78c-1,0-2,0-3.05,0s-1.91,0-2.82-.09L28,70.65A53.63,53.63,0,0,1,7.83,65.5a4.65,4.65,0,0,1-2.69-4.18V17.25a4.66,4.66,0,0,1,4.65-4.64H53.35A4.65,4.65,0,0,1,58,17.25Z" fill="#e54256"/><path d="M50.3,4.92s5.14,1.5,5.78,9.1,0,50.21,0,50.21a6.54,6.54,0,0,1-1.82,5.14C52,72,46.2,77,34.37,77.57v.59s15.38-.59,22.53-6.46c6.14-5,5.37-8,5.37-8V15.48A14.25,14.25,0,0,0,50.3,4.92Z" fill="#232533" opacity="0.15"/><path d="M.77,56.58s.46,5.24,2.05,8.29,13.89,12.2,23.58,12.7c0,0-16-.91-22.39-8.56C4,69,.64,65.55.46,63.46" fill="#232533" opacity="0.15"/><path d="M26.4,77.79s-.09,1,.28,1.46,7.87.09,7.87.09a7.13,7.13,0,0,1-.18,1.55,20,20,0,0,0,.18,2.28v1a1.64,1.64,0,0,0,1.46-.5,2.66,2.66,0,0,0,.63-1.46l-.54-1.68a5.58,5.58,0,0,1,.27-1,3.75,3.75,0,0,0-.09-1.41" fill="#232533" opacity="0.15"/><ellipse cx="14.61" cy="19.53" rx="4.83" ry="8.69" fill="#fff" opacity="0.15"/><ellipse cx="14.66" cy="34.91" rx="3.19" ry="4.6" fill="#fff" opacity="0.15"/><path d="M13.75,5.37A12.85,12.85,0,0,0,.91,18.21V62.14c0,7.28,12.52,15.43,30.5,15.43,21.12,0,30.73-8,30.73-15.43V18.21A12.86,12.86,0,0,0,49.3,5.37H36.69a.43.43,0,0,1-.46-.45V2.05A1.12,1.12,0,0,0,35.1.91H28a1.13,1.13,0,0,0-1.14,1.14V4.87a.43.43,0,0,1-.45.46H13.75ZM31.41,78.48c-8.65,0-16.71-1.87-22.72-5.24C3.28,70.15,0,66,0,62.14V18.21A13.77,13.77,0,0,1,13.75,4.46H25.86V2.05a2,2,0,0,1,2-2h7.2a2,2,0,0,1,2,2.05V4.42H49.25A13.77,13.77,0,0,1,63,18.16V62.09c0,4.14-2.73,8.19-7.51,11.11C49.89,76.66,41.56,78.48,31.41,78.48Z"/><path d="M34.46,78.43h0a.47.47,0,0,1-.46-.5l.6-7.37a.41.41,0,0,1,.41-.41A65.13,65.13,0,0,0,54.9,65.09a4.14,4.14,0,0,0,2.59-3.87V16.93a4.17,4.17,0,0,0-4.19-4.18H9.74a4.17,4.17,0,0,0-4.19,4.18V61.36A4.17,4.17,0,0,0,8,65.14,53.9,53.9,0,0,0,28,70.24a.41.41,0,0,1,.41.41L29,77.93a.5.5,0,0,1-.41.5.48.48,0,0,1-.5-.41l-.55-6.87A55.11,55.11,0,0,1,7.56,66a5.06,5.06,0,0,1-2.92-4.59V16.93a5.09,5.09,0,0,1,5.1-5.09H53.3a5.08,5.08,0,0,1,5.1,5.09V61.22a5,5,0,0,1-3.14,4.69A66.94,66.94,0,0,1,35.46,71l-.55,7A.47.47,0,0,1,34.46,78.43Z"/><path d="M34.41,81.44H28.63A2.74,2.74,0,0,1,25.9,78.7a2.63,2.63,0,0,1,.23-1A.45.45,0,1,1,27,78a1.94,1.94,0,0,0-.14.73,1.83,1.83,0,0,0,1.82,1.82h5.78A1.65,1.65,0,0,0,35.69,80a1.7,1.7,0,0,0,.54-1.27,1.79,1.79,0,0,0-.13-.68.44.44,0,0,1,.27-.59.43.43,0,0,1,.59.27,2.7,2.7,0,0,1-.64,2.91A2.68,2.68,0,0,1,34.41,81.44Z"/><path d="M29.54,2.91a.3.3,0,0,0-.27.28v1a.3.3,0,0,0,.27.28h4a.3.3,0,0,0,.28-.28V3.14a.29.29,0,0,0-.28-.27h-4Zm4,2.46h-4a1.18,1.18,0,0,1-1.18-1.18V3.14A1.17,1.17,0,0,1,29.54,2h4a1.18,1.18,0,0,1,1.19,1.18V4.19A1.18,1.18,0,0,1,33.5,5.37Z"/><path d="M34.59,84.71H28.45A2.42,2.42,0,0,1,26,82.3a2.47,2.47,0,0,1,.73-1.73,1.59,1.59,0,0,1,.45-.36.46.46,0,0,1,.64.18.48.48,0,0,1-.18.64.94.94,0,0,0-.28.22,1.61,1.61,0,0,0-.45,1,1.51,1.51,0,0,0,1.5,1.5h6.14a1.31,1.31,0,0,0,1-.45,1.62,1.62,0,0,0,.46-1A1.45,1.45,0,0,0,35.37,81a.46.46,0,0,1,.5-.78,2.41,2.41,0,0,1,1.14,2A2.59,2.59,0,0,1,36.28,84,2.33,2.33,0,0,1,34.59,84.71Z"/><path d="M27.93,19.14a2.12,2.12,0,0,1-.87,0,2.16,2.16,0,0,1-.82-.28,2.28,2.28,0,0,1-.65-.59,2.1,2.1,0,0,1-.38-.78,2.33,2.33,0,0,1-.05-.87,2.29,2.29,0,0,1,.29-.83,2.4,2.4,0,0,1,.58-.65,2.62,2.62,0,0,1,.79-.38,2.12,2.12,0,0,1,.87,0,2.16,2.16,0,0,1,.82.28,2,2,0,0,1,.65.59,2.1,2.1,0,0,1,.38.78,2.14,2.14,0,0,1,.05.87,2.29,2.29,0,0,1-.29.83,2.23,2.23,0,0,1-1.37,1ZM51.61,48.33,43.72,18.62a4.73,4.73,0,0,0-2.5-2.78L28.27,8.19c-2.39-1.41-4.49-.87-5.9,1.52l-7.66,13a4.67,4.67,0,0,0-.85,3.63l7.55,29.93a4.93,4.93,0,0,0,4.1,3.68,4.84,4.84,0,0,0,1.93-.12L48,54.46A5,5,0,0,0,51.61,48.33Z" fill="#ffd983"/><g clip-path="url(#clip-path)"><path d="M28.1,17.93a1.19,1.19,0,0,1-.42.21l.51,2a3.06,3.06,0,0,0,1.15-.55Zm.32-.35a1.2,1.2,0,0,1-.32.35l1.24,1.65a3.36,3.36,0,0,0,.85-.95Zm.15-.44a1.1,1.1,0,0,1-.15.44l1.77,1.05a3.25,3.25,0,0,0,.42-1.2Zm0-.47a1.47,1.47,0,0,1,0,.47l2,.29a3.19,3.19,0,0,0-.07-1.27Zm-.21-.43a1.15,1.15,0,0,1,.21.43l2-.51A3.4,3.4,0,0,0,30,15ZM28,15.93a1.17,1.17,0,0,1,.35.31L30,15a3.21,3.21,0,0,0-.95-.85Zm-.44-.16a1.46,1.46,0,0,1,.44.16L29,14.16a3.25,3.25,0,0,0-1.2-.42Zm-.47,0a1.23,1.23,0,0,1,.47,0l.29-2a3.25,3.25,0,0,0-1.28.07Zm-.43.21a1.15,1.15,0,0,1,.43-.21l-.52-2a3.21,3.21,0,0,0-1.15.55Zm-.31.35a1.17,1.17,0,0,1,.31-.35l-1.24-1.65a3.18,3.18,0,0,0-.84,1Zm-.16.44a1.11,1.11,0,0,1,.16-.44l-1.77-1a3.27,3.27,0,0,0-.43,1.2Zm0,.47a1.23,1.23,0,0,1,0-.47l-2-.29a3.38,3.38,0,0,0,.07,1.27Zm.2.43a1.3,1.3,0,0,1-.2-.43l-2,.51a3.24,3.24,0,0,0,.56,1.15Zm.35.31a1.47,1.47,0,0,1-.35-.31l-1.64,1.23a3.1,3.1,0,0,0,.95.85Zm.45.16a1.42,1.42,0,0,1-.45-.16l-1,1.77a3.19,3.19,0,0,0,1.2.42Zm.47,0a1.26,1.26,0,0,1-.47,0l-.29,2a3.2,3.2,0,0,0,1.27-.07ZM48.3,55.45a6.06,6.06,0,0,0,4.31-7.38l-2,.51a4,4,0,0,1-2.83,4.88ZM27.7,60.79l20.6-5.34-.52-2-20.6,5.33Zm-2.33.14a5.79,5.79,0,0,0,2.34-.15l-.53-2a3.77,3.77,0,0,1-1.53.1Zm-2.21-.77a6,6,0,0,0,2.21.77l.28-2a3.86,3.86,0,0,1-1.44-.5Zm-1.74-1.57a5.8,5.8,0,0,0,1.74,1.57l1.05-1.77a3.87,3.87,0,0,1-1.14-1Zm-1-2.11a6,6,0,0,0,1,2.11l1.65-1.23A3.91,3.91,0,0,1,22.41,56ZM12.86,26.55l7.56,29.93,2-.5L14.85,26.05Zm1-4.4a5.68,5.68,0,0,0-1,4.41l2-.51a3.72,3.72,0,0,1,.74-2.85Zm7.66-13-7.66,13,1.77,1.05,7.66-13ZM28.79,7.3a5.42,5.42,0,0,0-4.09-.77,5.36,5.36,0,0,0-3.22,2.65l1.77,1.05a3.37,3.37,0,0,1,2-1.71,3.34,3.34,0,0,1,2.53.56Zm13,7.66-13-7.66L27.74,9.08l13,7.65Zm3,3.4a5.69,5.69,0,0,0-3-3.4l-1,1.77c1.08.64,1.79,1.23,2,2.14Zm7.88,29.7L44.71,18.35l-2,.53,7.89,29.71ZM48,54.46l-.26-1h0Zm-20.6,5.33-.26-1h0Zm-3.76-.52-.52.89Zm-2.27-3,1-.25h0ZM13.86,26.3l1-.25h0Zm29.86-7.68-1,.25h0Z"/></g><path d="M27.69,18.55a1.35,1.35,0,0,1-.6,0,1.52,1.52,0,0,1-.58-.19,1.44,1.44,0,0,1-.45-.4,1.49,1.49,0,0,1-.27-.55,1.56,1.56,0,0,1,0-.61,1.52,1.52,0,0,1,.21-.57,1.46,1.46,0,0,1,.41-.45,1.53,1.53,0,0,1,.55-.25,1.55,1.55,0,0,1,1.69,2.27A1.58,1.58,0,0,1,27.69,18.55ZM31,16.12a3.74,3.74,0,0,0-.63-1.32,3.92,3.92,0,0,0-1.09-1,3.83,3.83,0,0,0-1.39-.48,3.65,3.65,0,0,0-1.47.08,3.76,3.76,0,0,0-1,6.88A3.76,3.76,0,0,0,31,16.12Z" fill="#d99e82"/><g clip-path="url(#clip-path-2)"><path d="M28.13,17.56a1,1,0,0,1-.58.45l.29,1.08a2.15,2.15,0,0,0,1.26-1Zm.1-.74a1,1,0,0,1-.1.74l1,.56a2.1,2.1,0,0,0,.21-1.57Zm-.44-.59a.94.94,0,0,1,.44.59l1.08-.27a2.07,2.07,0,0,0-.94-1.28Zm-.73-.12a.94.94,0,0,1,.73.12l.58-1A2.11,2.11,0,0,0,26.8,15Zm-.36.16a1.17,1.17,0,0,1,.36-.16L26.8,15a2,2,0,0,0-.75.34Zm-.26.29a1.2,1.2,0,0,1,.26-.29l-.65-.9a2,2,0,0,0-.56.61Zm-.13.36a1,1,0,0,1,.13-.36l-1-.58a2,2,0,0,0-.28.78Zm0,.39a1,1,0,0,1,0-.39l-1.1-.16a2.11,2.11,0,0,0,0,.83Zm.17.35a.88.88,0,0,1-.17-.35l-1.08.28a2,2,0,0,0,.36.74Zm.29.26a1,1,0,0,1-.29-.26l-.89.67a2,2,0,0,0,.62.55Zm.37.12a1,1,0,0,1-.37-.12l-.56,1a2.18,2.18,0,0,0,.79.27Zm.39,0a.86.86,0,0,1-.39,0L27,19.15a2.26,2.26,0,0,0,.82-.06ZM31,19.26A4.33,4.33,0,0,0,31.49,16l-1.08.28a3.18,3.18,0,0,1-.34,2.43Zm-2.64,2a4.3,4.3,0,0,0,2.64-2l-1-.57a3.2,3.2,0,0,1-2,1.47Zm-3.27-.46a4.3,4.3,0,0,0,3.27.46l-.28-1.08a3.23,3.23,0,0,1-2.43-.34Zm-2-2.64a4.31,4.31,0,0,0,2,2.64l.56-1a3.2,3.2,0,0,1-1.47-2Zm.46-3.28a4.33,4.33,0,0,0-.46,3.28l1.08-.28a3.22,3.22,0,0,1,.34-2.43Zm2.65-2a4.35,4.35,0,0,0-2.65,2l1,.57a3.23,3.23,0,0,1,2-1.47Zm1.68-.1a4.33,4.33,0,0,0-1.68.1L26.51,14a3.11,3.11,0,0,1,1.25-.07Zm1.59.56a4.32,4.32,0,0,0-1.59-.56l-.16,1.11a3.25,3.25,0,0,1,1.18.41Zm1.25,1.13a4.22,4.22,0,0,0-1.25-1.13l-.57,1a3.25,3.25,0,0,1,.93.84ZM31.49,16a4.28,4.28,0,0,0-.73-1.52l-.89.67a2.91,2.91,0,0,1,.54,1.12Zm-4.56-.42.13.54Zm.76,3,.15.54Zm.56,2.15.14.54h0Zm-2.85-.4-.28.48Zm-1.33-5.15-.48-.29Zm2.3-1.73.14.54h0Zm2.86.4-.29.48Z"/></g><path d="M28.6,16.93a1,1,0,0,1-.18.34,1.16,1.16,0,0,1-.29.25,1,1,0,0,1-.74.08,1,1,0,0,1-.58-.47,1,1,0,0,1-.08-.74L30,5.15a.87.87,0,0,1,.17-.33.92.92,0,0,1,.66-.36.93.93,0,0,1,.37,0,1,1,0,0,1,.34.18,1.16,1.16,0,0,1,.25.29.89.89,0,0,1,.11.36.81.81,0,0,1,0,.38Z" fill="#c1694f"/><g clip-path="url(#clip-path-3)"><path d="M31.3,5.55,28.06,16.78l1.07.31L32.38,5.86Zm0-.17a.5.5,0,0,1,0,.17l1.08.31a1.75,1.75,0,0,0,0-.6Zm-.05-.15a.88.88,0,0,1,.05.15l1.11-.12a1.67,1.67,0,0,0-.19-.57Zm-.11-.13a.45.45,0,0,1,.11.13l1-.54a1.4,1.4,0,0,0-.38-.46ZM31,5a.37.37,0,0,1,.14.07l.7-.87A1.57,1.57,0,0,0,31.33,4Zm-.16,0A.44.44,0,0,1,31,5L31.33,4a1.47,1.47,0,0,0-.59-.06Zm-.16,0a.43.43,0,0,1,.16,0L30.74,3.9a1.81,1.81,0,0,0-.57.18Zm-.12.1a.4.4,0,0,1,.12-.1l-.53-1a1.45,1.45,0,0,0-.46.39Zm-.08.15a1.09,1.09,0,0,1,.08-.15l-.87-.69a1.59,1.59,0,0,0-.28.53ZM27.26,16.54,30.5,5.31,29.43,5,26.19,16.23Zm0,.32a.4.4,0,0,1,0-.32l-1.07-.31a1.59,1.59,0,0,0,.13,1.17Zm.25.2a.39.39,0,0,1-.25-.2l-1,.54a1.56,1.56,0,0,0,.92.73Zm.31,0a.42.42,0,0,1-.31,0l-.31,1.07A1.47,1.47,0,0,0,28.4,18Zm.13-.11a.45.45,0,0,1-.13.11l.54,1a1.4,1.4,0,0,0,.46-.38Zm.07-.14a.37.37,0,0,1-.07.14l.87.7a1.57,1.57,0,0,0,.27-.53ZM31.84,5.7l.54.16h0ZM30,5.15l.53.16h0ZM26.73,16.39l-.54-.16h0Zm1.4,1.13L27.86,17Z"/></g><path d="M31.16,37.82l2.3-.61L31.38,34Zm-3,5.36a.36.36,0,0,1-.27,0,.44.44,0,0,1-.16-.22.24.24,0,0,1,0-.12L28.63,32a.71.71,0,0,1,.12-.38.63.63,0,0,1,.4-.28L32,30.58a.62.62,0,0,1,.49,0,.69.69,0,0,1,.29.27l6.17,9A.36.36,0,0,1,39,40a.33.33,0,0,1,0,.27.32.32,0,0,1-.21.16L36.34,41a.54.54,0,0,1-.42,0,.75.75,0,0,1-.23-.19l-.82-1.17-3.73,1L31,42.05a1.14,1.14,0,0,1-.11.28.52.52,0,0,1-.36.22Z" fill="#880b0b"/></g></g></svg>