<svg width="100" height="100" viewBox="0 0 100 100" fill="none" xmlns="http://www.w3.org/2000/svg">
<path d="M45.5392 85.8395C29.6526 84.5194 19.4561 76.8265 19.4561 70.135V26.208C19.4561 18.8792 25.4192 12.9161 32.748 12.9161H45.3115V10.0483C45.3115 9.1834 46.0399 8.45508 46.9048 8.45508H54.097C54.9618 8.45508 55.6902 9.1834 55.6902 10.0483V12.8705H68.2537C75.628 12.8705 81.5457 18.8337 81.5457 26.1625V70.0895C81.5457 76.8265 73.8983 84.6104 55.4626 85.8395C54.7798 85.885 54.097 85.9305 53.4142 85.9305L54.0514 78.5562C60.6519 78.01 67.3433 76.2802 74.0803 73.458C75.8101 72.7297 76.9481 71.0454 76.9481 69.1791V29.9406C76.9481 27.3915 74.8542 25.2976 72.305 25.2976H28.7422C26.193 25.2976 24.0991 27.3915 24.0991 29.9406V69.3156C24.0991 71.0909 25.1461 72.7297 26.7848 73.5035C33.4308 76.5989 40.2133 78.2831 46.9958 78.6473L47.542 85.9305C46.9048 85.9305 46.222 85.885 45.5392 85.8395ZM53.2321 12.2333V11.1408C53.2321 10.7311 52.9134 10.4124 52.5037 10.4124H48.5435C48.1338 10.4124 47.8152 10.7311 47.8152 11.1408V12.1877C47.8152 12.5974 48.1338 12.9161 48.5435 12.9161H52.5037C52.9134 12.9161 53.2321 12.5974 53.2321 12.2333Z" fill="#EEEFEF"/>
<path d="M55.5075 85.8848C55.5985 86.1579 55.6895 86.431 55.6895 86.7496C55.6895 87.3869 55.4164 87.9332 55.0067 88.3428C54.8702 88.4794 54.7336 88.5704 54.5971 88.6615C54.2329 88.8891 53.8232 89.0256 53.368 89.0256H47.6325C47.1773 89.0256 46.7676 88.8891 46.4034 88.6615C45.7661 88.2518 45.3564 87.569 45.3564 86.7496C45.3564 86.431 45.402 86.1579 45.5385 85.8848C46.2213 85.9303 46.9041 85.9758 47.5869 86.0213C48.4973 86.0668 49.4533 86.1124 50.4092 86.1124C51.4562 86.1124 52.4576 86.1124 53.459 86.0668C54.1419 85.9303 54.8702 85.9303 55.5075 85.8848Z" fill="#EEEFEF"/>
<path d="M55.1881 47.785V51.1535H52.2293V54.1123H48.8153V51.1535H45.8564V47.785H48.8153V44.8262H52.2293V47.785H55.1881Z" fill="#E54256"/>
<path d="M55.5531 90.3008C55.5531 90.8471 55.3255 91.3478 54.9614 91.6665C54.5972 92.0306 54.142 92.2582 53.5958 92.2582H47.4505C46.358 92.2582 45.4932 91.3933 45.4932 90.3008C45.4932 89.7546 45.7208 89.2539 46.0849 88.9352C46.176 88.8442 46.3125 88.7531 46.4491 88.6621C46.8132 88.8897 47.2229 89.0263 47.6781 89.0263H53.4592C53.9144 89.0263 54.3241 88.8897 54.6882 88.6621C55.189 88.9808 55.5531 89.618 55.5531 90.3008Z" fill="#EEEFEF"/>
<path d="M76.947 25.2524V69.1795C76.947 71.0458 75.809 72.73 74.0792 73.4584C67.3423 76.2806 60.6508 78.0104 54.0503 78.5566L53.4586 85.9764C52.4571 86.022 51.4557 86.022 50.4087 86.022C49.4528 86.022 48.4969 85.9764 47.5865 85.9309L47.0402 78.6477C40.2122 78.2835 33.4752 76.6448 26.8292 73.5039C25.1905 72.73 24.1436 71.0913 24.1436 69.316V25.2524C24.1436 22.7033 26.2375 20.6094 28.7866 20.6094H72.3495C74.8531 20.6094 76.947 22.7033 76.947 25.2524Z" fill="#E54256"/>
<path opacity="0.15" d="M69.2993 12.918C69.2993 12.918 74.4431 14.4201 75.0803 22.022C75.6721 29.6239 75.0803 72.2308 75.0803 72.2308C75.0803 72.2308 75.5355 74.8255 73.2595 77.3746C70.9835 79.9693 65.2024 84.9765 53.3672 85.5682V86.16C53.3672 86.16 68.753 85.5683 75.8997 79.6961C82.0449 74.6889 81.2711 71.7301 81.2711 71.7301V23.4787C81.2711 23.5242 79.5413 14.6022 69.2993 12.918Z" fill="#232533"/>
<path opacity="0.15" d="M19.7747 64.582C19.7747 64.582 20.2299 69.8169 21.8231 72.8667C23.4163 75.9166 35.7068 85.0661 45.4026 85.5669C45.4026 85.5669 29.3795 84.6565 23.0066 77.0091C23.0066 77.0091 19.6381 73.5495 19.4561 71.4556" fill="#232533"/>
<path opacity="0.15" d="M45.4027 85.7949C45.4027 85.7949 45.3117 86.8419 45.6758 87.2516C46.04 87.6157 53.5508 87.3426 53.5508 87.3426C53.5508 87.3426 53.5053 88.6627 53.3687 88.8903C53.2322 89.1179 53.5508 90.2104 53.5508 91.1663C53.5508 92.1222 53.5508 92.1222 53.5508 92.1222C53.5508 92.1222 54.3702 92.3043 55.0075 91.6215C55.5992 90.9387 55.6447 90.1649 55.6447 90.1649L55.0985 88.4806C55.0985 88.4806 55.1895 87.9344 55.3716 87.4792C55.5082 87.024 55.2806 86.068 55.2806 86.068" fill="#232533"/>
<path opacity="0.15" d="M33.6123 36.2227C36.2771 36.2227 38.4374 32.3301 38.4374 27.5284C38.4374 22.7266 36.2771 18.834 33.6123 18.834C30.9474 18.834 28.7871 22.7266 28.7871 27.5284C28.7871 32.3301 30.9474 36.2227 33.6123 36.2227Z" fill="white"/>
<path opacity="0.15" d="M33.6581 47.5115C35.4179 47.5115 36.8445 45.4531 36.8445 42.9139C36.8445 40.3748 35.4179 38.3164 33.6581 38.3164C31.8983 38.3164 30.4717 40.3748 30.4717 42.9139C30.4717 45.4531 31.8983 47.5115 33.6581 47.5115Z" fill="white"/>
<path d="M50.409 86.4769C41.7601 86.4769 33.703 84.6106 27.6944 81.2421C22.2775 78.1467 19 74.0043 19 70.1351V26.2081C19 18.6062 25.1908 12.461 32.7471 12.461H44.8555V10.0484C44.8555 8.9104 45.7659 8 46.9039 8H54.0961C55.2341 8 56.1445 8.9104 56.1445 10.0484V12.4155H68.2529C75.8548 12.4155 82 18.6062 82 26.1626V70.0896C82 74.2319 79.2688 78.2832 74.4892 81.1965C68.8902 84.6561 60.56 86.4769 50.409 86.4769ZM32.7471 13.3714C25.6915 13.3714 19.9104 19.1069 19.9104 26.2081V70.1351C19.9104 77.4184 32.4285 85.5665 50.409 85.5665C71.5304 85.5665 81.1351 77.5549 81.1351 70.1351V26.2081C81.1351 19.1069 75.3541 13.3714 68.2984 13.3714H55.6893C55.4162 13.3714 55.2341 13.1893 55.2341 12.9162V10.0484C55.2341 9.41113 54.7334 8.9104 54.0961 8.9104H46.9494C46.3121 8.9104 45.8114 9.41113 45.8114 10.0484V12.8707C45.8114 13.1438 45.6293 13.3259 45.3562 13.3259H32.7471V13.3714Z" fill="black"/>
<path d="M53.4593 86.432C53.4593 86.432 53.4138 86.432 53.4593 86.432C53.1862 86.432 53.0041 86.2044 53.0041 85.9313L53.5959 78.557C53.5959 78.3294 53.778 78.1474 54.0056 78.1474C60.4239 77.6466 67.1154 75.9169 73.8979 73.0946C75.4911 72.4573 76.4925 70.9096 76.4925 69.2254V24.9342C76.4925 22.6127 74.6262 20.7463 72.3047 20.7463H28.7418C26.4203 20.7463 24.554 22.6127 24.554 24.9342V69.362C24.554 71.0007 25.5099 72.4573 26.9665 73.1401C33.4759 76.19 40.2129 77.8742 47.041 78.2384C47.2686 78.2384 47.4506 78.4205 47.4506 78.6481L47.9969 85.9313C47.9969 86.2044 47.8148 86.3865 47.5872 86.432C47.3141 86.432 47.132 86.25 47.0865 86.0224L46.5402 79.1488C39.7577 78.7391 33.0207 77.0093 26.5568 74.005C24.7816 73.1856 23.6436 71.3648 23.6436 69.4075V24.9342C23.6436 22.1119 25.9196 19.8359 28.7418 19.8359H72.3047C75.1269 19.8359 77.403 22.1119 77.403 24.9342V69.2254C77.403 71.2738 76.1739 73.1401 74.2621 73.914C67.5251 76.7362 60.8791 78.4205 54.4608 79.0122L53.9145 86.0224C53.869 86.25 53.6869 86.432 53.4593 86.432Z" fill="black"/>
<path d="M53.4127 89.4352H47.6316C46.1294 89.4352 44.9004 88.2061 44.9004 86.704C44.9004 86.3398 44.9914 85.9757 45.128 85.657C45.219 85.4294 45.4922 85.3384 45.7198 85.4294C45.9474 85.5205 46.0384 85.7936 45.9474 86.0212C45.8563 86.2488 45.8108 86.4764 45.8108 86.7495C45.8108 87.7509 46.6302 88.5703 47.6316 88.5703H53.4127C53.9134 88.5703 54.3686 88.3882 54.6872 88.0241C55.0514 87.7054 55.2335 87.2047 55.2335 86.7495C55.2335 86.5219 55.188 86.2943 55.0969 86.0667C55.0059 85.8391 55.0969 85.566 55.3701 85.4749C55.5977 85.3839 55.8708 85.4749 55.9618 85.7481C56.0984 86.0667 56.1439 86.4309 56.1439 86.7495C56.1439 87.4778 55.8708 88.1606 55.3245 88.6614C54.8238 89.1621 54.141 89.4352 53.4127 89.4352Z" fill="black"/>
<path d="M52.5032 13.371H48.5429C47.9056 13.371 47.3594 12.8703 47.3594 12.1875V11.1406C47.3594 10.5033 47.8601 9.95703 48.5429 9.95703H52.5032C53.1404 9.95703 53.6867 10.4578 53.6867 11.1406V12.1875C53.6867 12.8703 53.1404 13.371 52.5032 13.371ZM48.5429 10.913C48.4063 10.913 48.2698 11.0495 48.2698 11.1861V12.233C48.2698 12.3696 48.4063 12.5062 48.5429 12.5062H52.5032C52.6397 12.5062 52.7763 12.3696 52.7763 12.233V11.1406C52.7763 11.004 52.6397 10.8674 52.5032 10.8674H48.5429V10.913Z" fill="black"/>
<path d="M53.5949 92.7132H47.4497C46.1296 92.7132 45.0371 91.6208 45.0371 90.3007C45.0371 89.6634 45.3102 89.0261 45.7654 88.5709C45.902 88.4343 46.0386 88.2978 46.2206 88.2067C46.4482 88.0702 46.7214 88.1612 46.8579 88.3888C46.9945 88.6164 46.9034 88.8895 46.6758 89.0261C46.5848 89.0716 46.4938 89.1627 46.4027 89.2537C46.1296 89.5268 45.9475 89.9365 45.9475 90.3007C45.9475 91.12 46.6303 91.8028 47.4497 91.8028H53.5949C54.0046 91.8028 54.3688 91.6663 54.6419 91.3476C54.915 91.0745 55.0971 90.6648 55.0971 90.3007C55.0971 89.7544 54.824 89.2992 54.3688 89.0261C54.1412 88.8895 54.0956 88.6164 54.2322 88.3888C54.3688 88.1612 54.6419 88.1157 54.8695 88.2523C55.5978 88.7075 56.0075 89.4813 56.0075 90.3007C56.0075 90.938 55.7344 91.5297 55.2792 92.0304C54.824 92.4856 54.2322 92.7132 53.5949 92.7132Z" fill="black"/>
<path d="M62.22 26.7435L62.2212 26.7479L70.1105 56.4541C70.1107 56.4549 70.1109 56.4556 70.1111 56.4564C70.7294 58.8684 69.308 61.338 66.9104 61.9571L66.9101 61.9572L46.3125 67.2905L46.309 67.2914C45.7452 67.4417 45.1573 67.4781 44.5795 67.3987C44.0016 67.3193 43.4454 67.1256 42.9433 66.8289C42.4412 66.5322 42.0032 66.1384 41.6549 65.6706C41.3066 65.2027 41.055 64.6701 40.9146 64.1038L40.9141 64.1016L33.3555 34.1761L33.355 34.1741C33.0652 33.0459 33.5025 32.0311 34.1494 30.9363L41.8116 17.9697C42.4688 16.8574 43.2488 16.239 44.08 16.025C44.9112 15.8111 45.8923 15.9762 47.0038 16.6331L59.9578 24.2878C61.0556 24.9365 61.9305 25.6129 62.22 26.7435L62.22 26.7435ZM45.9906 27.6939C46.3483 27.7445 46.7124 27.7242 47.0623 27.6341C47.4121 27.5439 47.7407 27.3858 48.0295 27.1686C48.3182 26.9515 48.5614 26.6796 48.7451 26.3685C48.9289 26.0574 49.0495 25.7132 49.1003 25.3555C49.1511 24.9978 49.1309 24.6337 49.0409 24.2838C48.951 23.9339 48.793 23.6052 48.576 23.3164C48.3589 23.0277 48.0872 22.7845 47.7761 22.6008C47.4651 22.4171 47.121 22.2965 46.7633 22.2459C46.4056 22.1953 46.0415 22.2156 45.6917 22.3057C45.3418 22.3959 45.0132 22.554 44.7244 22.7712C44.4357 22.9883 44.1925 23.2602 44.0088 23.5713C43.8251 23.8823 43.7044 24.2266 43.6536 24.5842C43.6029 24.9419 43.6231 25.3061 43.713 25.656C43.803 26.0059 43.961 26.3346 44.178 26.6233C44.395 26.9121 44.6668 27.1553 44.9778 27.339C45.2888 27.5227 45.633 27.6433 45.9906 27.6939Z" fill="#FFD983" stroke="black" stroke-width="1.02928"/>
<path d="M45.4446 21.6875L45.4445 21.6875C44.5499 21.9174 43.7834 22.4933 43.3136 23.2883C42.8438 24.0834 42.7091 25.0326 42.9392 25.9271C43.1693 26.8216 43.7454 27.5882 44.5407 28.0581C45.336 28.5281 46.2853 28.6629 47.1798 28.4331C47.1798 28.433 47.1799 28.433 47.1799 28.433M45.4446 21.6875L47.1799 28.433M45.4446 21.6875C45.8875 21.5734 46.3485 21.5477 46.8013 21.6119C47.2541 21.6761 47.6899 21.8289 48.0836 22.0615C48.4774 22.2942 48.8214 22.6022 49.0961 22.9679C49.3707 23.3336 49.5706 23.7498 49.6843 24.1927M45.4446 21.6875L49.6843 24.1927M47.1799 28.433C48.0743 28.2026 48.8404 27.6266 49.31 26.8315C49.7797 26.0364 49.9143 25.0873 49.6843 24.1929L49.9542 24.1235M47.1799 28.433L49.9542 24.1235M49.9542 24.1235L49.6843 24.1927M49.9542 24.1235L49.6843 24.1927M46.0532 26.8708C46.293 26.9013 46.5365 26.8837 46.7694 26.819C47.228 26.6917 47.6184 26.3895 47.8566 25.9774C48.0948 25.5654 48.1619 25.0763 48.0434 24.6153C47.9249 24.1543 47.6303 23.7581 47.223 23.5119C46.8156 23.2656 46.3279 23.1889 45.8647 23.2983C45.6294 23.3538 45.4076 23.4557 45.2122 23.5979C45.0168 23.7402 44.8517 23.9201 44.7267 24.1269C44.6016 24.3338 44.5191 24.5635 44.4839 24.8026C44.4487 25.0418 44.4616 25.2855 44.5218 25.5197C44.582 25.7538 44.6882 25.9736 44.8343 26.1661C44.9805 26.3587 45.1635 26.5202 45.3728 26.6412C45.5821 26.7622 45.8134 26.8402 46.0532 26.8708Z" fill="#D99E82" stroke="black" stroke-width="0.557302"/>
<path d="M49.2371 13.2316L49.2371 13.2315C49.2624 13.1437 49.3047 13.0619 49.3616 12.9907C49.4184 12.9196 49.4887 12.8604 49.5684 12.8166C49.6481 12.7728 49.7357 12.7452 49.8262 12.7353C49.9167 12.7255 50.0085 12.7336 50.0962 12.7593C50.1839 12.7849 50.2658 12.8277 50.3373 12.8851C50.4087 12.9426 50.4683 13.0135 50.5125 13.094C50.5568 13.1744 50.5847 13.2628 50.5949 13.3539C50.6051 13.445 50.5973 13.5371 50.572 13.6249L47.3295 24.8572L47.5973 24.9344L47.3295 24.8572C47.3042 24.945 47.2619 25.0268 47.2051 25.098C47.1482 25.1692 47.0779 25.2283 46.9982 25.2721C46.8373 25.3606 46.6475 25.3813 46.4704 25.3295C46.2933 25.2776 46.1434 25.1573 46.0541 24.9948C45.9647 24.8322 45.9435 24.6412 45.9946 24.4639L49.2371 13.2316Z" fill="#C1694F" stroke="black" stroke-width="0.557302"/>
<path fill-rule="evenodd" clip-rule="evenodd" d="M49.3932 36.5296C44.3602 37.7746 41.2859 42.8699 42.531 47.903C43.7761 52.936 48.8714 56.0103 53.9044 54.7652C58.9375 53.5201 62.0117 48.4248 60.7666 43.3918C59.5216 38.3587 54.4263 35.2845 49.3932 36.5296ZM50.5205 41.0896C50.019 41.2137 49.7102 41.7255 49.8343 42.227L50.511 44.9623L47.7756 45.639C47.2741 45.7631 46.9653 46.2749 47.0894 46.7764C47.2134 47.2778 47.7253 47.5866 48.2267 47.4626L50.9621 46.7859L51.6388 49.5213C51.7628 50.0227 52.2746 50.3315 52.7761 50.2075C53.2776 50.0834 53.5864 49.5716 53.4623 49.0701L52.7856 46.3348L55.521 45.6581C56.0225 45.534 56.3313 45.0222 56.2072 44.5208C56.0832 44.0193 55.5714 43.7105 55.0699 43.8345L52.3345 44.5112L51.6578 41.7759C51.5338 41.2744 51.022 40.9656 50.5205 41.0896ZM44.3546 47.4518C45.3493 51.4728 49.4324 53.9363 53.4534 52.9416C57.4743 51.9469 59.9379 47.8638 58.9431 43.8429C57.9484 39.8219 53.8654 37.3584 49.8444 38.3531C45.8234 39.3478 43.3599 43.4309 44.3546 47.4518Z" fill="#880B0B"/>
</svg>
