<svg width="50" height="50" viewBox="0 0 50 50" fill="none" xmlns="http://www.w3.org/2000/svg">
<path d="M25 46.5C37.9787 46.5 48.5 36.8741 48.5 25C48.5 13.1259 37.9787 3.5 25 3.5C12.0213 3.5 1.5 13.1259 1.5 25C1.5 36.8741 12.0213 46.5 25 46.5Z" fill="#FFE500"/>
<path d="M25 42.5C11.7 42.5 2.594 33.933 1.6 23C1.54 23.659 1.5 24.325 1.5 25C1.5 36.874 10.9 46.5 25 46.5C39.1 46.5 48.5 36.874 48.5 25C48.5 24.324 48.461 23.658 48.4 23C47.406 33.933 38.3 42.5 25 42.5Z" fill="#F2C100"/>
<path d="M25 7.00301C28.5899 7.00301 31.5 6.55484 31.5 6.00201C31.5 5.44917 28.5899 5.00101 25 5.00101C21.4101 5.00101 18.5 5.44917 18.5 6.00201C18.5 6.55484 21.4101 7.00301 25 7.00301Z" fill="#FFFACF"/>
<path d="M25 46.5C37.9787 46.5 48.5 36.8741 48.5 25C48.5 13.1259 37.9787 3.5 25 3.5C12.0213 3.5 1.5 13.1259 1.5 25C1.5 36.8741 12.0213 46.5 25 46.5Z" stroke="#45413C" stroke-width="1.25" stroke-miterlimit="10"/>
<path d="M32.583 18.978C33.5495 18.978 34.333 18.1945 34.333 17.228C34.333 16.2615 33.5495 15.478 32.583 15.478C31.6165 15.478 30.833 16.2615 30.833 17.228C30.833 18.1945 31.6165 18.978 32.583 18.978Z" fill="#45413C"/>
<path d="M17.417 18.978C18.3835 18.978 19.167 18.1945 19.167 17.228C19.167 16.2615 18.3835 15.478 17.417 15.478C16.4505 15.478 15.667 16.2615 15.667 17.228C15.667 18.1945 16.4505 18.978 17.417 18.978Z" fill="#45413C"/>
<path d="M19.5 24.992H30.5" stroke="#45413C" stroke-width="1.25" stroke-linecap="round" stroke-linejoin="round"/>
</svg>
