<svg width="16" height="17" viewBox="0 0 16 17" fill="none" xmlns="http://www.w3.org/2000/svg">
<path d="M2.00048 9.83311H3.33381V14.4998C3.33381 14.6766 3.40405 14.8462 3.52907 14.9712C3.6541 15.0962 3.82367 15.1664 4.00048 15.1664H12.0005C12.1773 15.1664 12.3469 15.0962 12.4719 14.9712C12.5969 14.8462 12.6671 14.6766 12.6671 14.4998V9.83311H14.0005C14.1293 9.83322 14.2554 9.79592 14.3635 9.72574C14.4715 9.65557 14.5569 9.55553 14.6091 9.43777C14.6618 9.32008 14.6791 9.18963 14.659 9.06228C14.6389 8.93493 14.5822 8.81617 14.4958 8.72044L8.49581 2.05377C8.24314 1.77244 7.75781 1.77244 7.50514 2.05377L1.50514 8.72044C1.41894 8.81622 1.36234 8.93492 1.34219 9.06219C1.32204 9.18947 1.3392 9.31985 1.39161 9.43757C1.44402 9.55529 1.52941 9.6553 1.63747 9.7255C1.74553 9.7957 1.87162 9.83307 2.00048 9.83311ZM5.76914 8.26044C6.04663 7.98648 6.42087 7.83287 6.81081 7.83287C7.20075 7.83287 7.57499 7.98648 7.85248 8.26044L8.00181 8.40711L8.15048 8.26044C8.42808 7.98644 8.80243 7.83281 9.19248 7.83281C9.58252 7.83281 9.95687 7.98644 10.2345 8.26044C10.3722 8.39293 10.4818 8.55185 10.5566 8.72769C10.6314 8.90353 10.67 9.09267 10.67 9.28377C10.67 9.47488 10.6314 9.66401 10.5566 9.83985C10.4818 10.0157 10.3722 10.1746 10.2345 10.3071L8.00181 12.4998L5.76914 10.3071C5.63142 10.1746 5.52186 10.0157 5.44703 9.83985C5.37219 9.66401 5.33362 9.47488 5.33362 9.28377C5.33362 9.09267 5.37219 8.90353 5.44703 8.72769C5.52186 8.55185 5.63142 8.39293 5.76914 8.26044Z" fill="#FB8A76"/>
</svg>
