
<svg width="14" height="14" viewBox="0 0 14 14" fill="none" xmlns="http://www.w3.org/2000/svg">
<path d="M1.1625 2.59687L2.82656 0.934375C2.94395 0.816474 3.08347 0.722928 3.23711 0.65911C3.39076 0.595292 3.5555 0.56246 3.72187 0.5625C4.06094 0.5625 4.37969 0.695313 4.61875 0.934375L6.40937 2.725C6.52727 2.84238 6.62082 2.98191 6.68464 3.13555C6.74846 3.2892 6.78129 3.45394 6.78125 3.62031C6.78125 3.95938 6.64844 4.27813 6.40937 4.51719L5.1 5.82656C5.40649 6.50213 5.83262 7.1167 6.35781 7.64062C6.88169 8.16709 7.49621 8.59477 8.17187 8.90312L9.48125 7.59375C9.59863 7.47585 9.73816 7.3823 9.8918 7.31849C10.0454 7.25467 10.2102 7.22184 10.3766 7.22188C10.7156 7.22188 11.0344 7.35469 11.2734 7.59375L13.0656 9.38281C13.1837 9.50041 13.2773 9.6402 13.3411 9.79412C13.4049 9.94804 13.4377 10.1131 13.4375 10.2797C13.4375 10.6188 13.3047 10.9375 13.0656 11.1766L11.4047 12.8375C11.0234 13.2203 10.4969 13.4375 9.95625 13.4375C9.84219 13.4375 9.73281 13.4281 9.625 13.4094C7.51875 13.0625 5.42969 11.9422 3.74375 10.2578C2.05937 8.575 0.940624 6.4875 0.589062 4.375C0.482812 3.72969 0.696874 3.06562 1.1625 2.59687V2.59687Z" fill="white"/>
</svg>
