<svg width="50" height="50" viewBox="0 0 50 50" fill="none" xmlns="http://www.w3.org/2000/svg">
<path d="M25 46.5C37.9787 46.5 48.5 36.8741 48.5 25C48.5 13.1259 37.9787 3.5 25 3.5C12.0213 3.5 1.5 13.1259 1.5 25C1.5 36.8741 12.0213 46.5 25 46.5Z" fill="#FFE500"/>
<path d="M25 42.5C11.7 42.5 2.594 33.933 1.6 23C1.54 23.659 1.5 24.325 1.5 25C1.5 36.874 10.9 46.5 25 46.5C39.1 46.5 48.5 36.874 48.5 25C48.5 24.324 48.461 23.658 48.4 23C47.406 33.933 38.3 42.5 25 42.5Z" fill="#F2C100"/>
<path d="M25 7.00301C28.5899 7.00301 31.5 6.55484 31.5 6.00201C31.5 5.44917 28.5899 5.00101 25 5.00101C21.4101 5.00101 18.5 5.44917 18.5 6.00201C18.5 6.55484 21.4101 7.00301 25 7.00301Z" fill="#FFFACF"/>
<path d="M25 46.5C37.9787 46.5 48.5 36.8741 48.5 25C48.5 13.1259 37.9787 3.5 25 3.5C12.0213 3.5 1.5 13.1259 1.5 25C1.5 36.8741 12.0213 46.5 25 46.5Z" stroke="#45413C" stroke-width="1.25" stroke-miterlimit="10"/>
<path d="M14.043 27.553C15.7236 27.553 17.086 26.4628 17.086 25.118C17.086 23.7732 15.7236 22.683 14.043 22.683C12.3624 22.683 11 23.7732 11 25.118C11 26.4628 12.3624 27.553 14.043 27.553Z" fill="#FF87AF" stroke="#FF6196" stroke-width="1.25" stroke-linecap="round" stroke-linejoin="round"/>
<path d="M20.7389 25.118C20.7389 25.118 21.8039 26.418 24.9999 26.418C28.1959 26.418 29.2609 25.118 29.2609 25.118M15.8699 18.422C15.8633 18.0981 15.9214 17.7762 16.0408 17.4751C16.1602 17.174 16.3385 16.8997 16.5652 16.6684C16.7919 16.437 17.0625 16.2532 17.3612 16.1278C17.6598 16.0023 17.9805 15.9377 18.3044 15.9377C18.6283 15.9377 18.949 16.0023 19.2476 16.1278C19.5462 16.2532 19.8168 16.437 20.0435 16.6684C20.2703 16.8997 20.4485 17.174 20.5679 17.4751C20.6873 17.7762 20.7454 18.0981 20.7389 18.422" stroke="#45413C" stroke-width="1.25" stroke-linecap="round" stroke-linejoin="round"/>
<path d="M35.9571 27.553C37.6377 27.553 39.0001 26.4628 39.0001 25.118C39.0001 23.7732 37.6377 22.683 35.9571 22.683C34.2765 22.683 32.9141 23.7732 32.9141 25.118C32.9141 26.4628 34.2765 27.553 35.9571 27.553Z" fill="#FF87AF" stroke="#FF6196" stroke-width="1.25" stroke-linecap="round" stroke-linejoin="round"/>
<path d="M34.13 18.422C34.1366 18.0981 34.0784 17.7762 33.959 17.4751C33.8397 17.174 33.6614 16.8997 33.4347 16.6684C33.2079 16.437 32.9374 16.2532 32.6387 16.1278C32.3401 16.0023 32.0194 15.9377 31.6955 15.9377C31.3716 15.9377 31.0509 16.0023 30.7523 16.1278C30.4536 16.2532 30.183 16.437 29.9563 16.6684C29.7296 16.8997 29.5513 17.174 29.4319 17.4751C29.3126 17.7762 29.2544 18.0981 29.261 18.422" stroke="#45413C" stroke-width="1.25" stroke-linecap="round" stroke-linejoin="round"/>
</svg>
