<svg width="16" height="16" viewBox="0 0 16 16" fill="none" xmlns="http://www.w3.org/2000/svg">
<path d="M13.333 3.3335H11.609L9.80434 1.52883C9.74254 1.4668 9.66908 1.41761 9.58818 1.38409C9.50729 1.35056 9.42057 1.33337 9.33301 1.3335H6.66634C6.57878 1.33337 6.49206 1.35056 6.41116 1.38409C6.33027 1.41761 6.25681 1.4668 6.19501 1.52883L4.39034 3.3335H2.66634C1.93101 3.3335 1.33301 3.9315 1.33301 4.66683V12.0002C1.33301 12.7355 1.93101 13.3335 2.66634 13.3335H13.333C14.0683 13.3335 14.6663 12.7355 14.6663 12.0002V4.66683C14.6663 3.9315 14.0683 3.3335 13.333 3.3335ZM7.99967 11.3335C6.19301 11.3335 4.66634 9.80683 4.66634 8.00016C4.66634 6.19283 6.19301 4.66683 7.99967 4.66683C9.80634 4.66683 11.333 6.19283 11.333 8.00016C11.333 9.80683 9.80634 11.3335 7.99967 11.3335Z" fill="white"/>
<path d="M8.66667 6H7.33333V7.33333H6V8.66667H7.33333V10H8.66667V8.66667H10V7.33333H8.66667V6Z" fill="white"/>
</svg>
