<svg xmlns="http://www.w3.org/2000/svg" viewBox="0 0 336 246">
    <g id="Layer_2" data-name="Layer 2">
        <g id="Dogs_Cats" data-name="Dogs Cats">
            <path d="M313.64,215.5c3.41,36.69-57,28.16-65.44,23.06-3.49-2.13-6.45-15.16,3.16-15.32s42.66,6.44,44.29-7a3.7,3.7,0,0,0-.47-2.31c3.26-1.52,5.21-3.22,5.78-4.95,2.21-6.62-.24-11-8.09-11s-47.48,2.25-57.13-2.94a20.83,20.83,0,0,1-7.6-7l.84-.19C233.05,187.19,309.88,175.05,313.64,215.5Z"
                  fill="#fff"/>
            <path d="M158.29,44.15c5,4-23.29,23.29-23.29,23.29l-.27.12c1.49-9.25.63-18-2.31-25.32l1.65,0S153.31,40.12,158.29,44.15Z"
                  fill="#fff"/>
            <path d="M104.52,98.65c-8.64-4-5-21.07-5-21.07l.1-.48c5.21,1,10.08-4.4,10.08-4.4s.2,5.43,3.56,8.27l.07.67s3.74,14.93-2.49,17.48a5.26,5.26,0,0,1-1.9.38A9.87,9.87,0,0,1,104.52,98.65Z"
                  fill="#f4a8e6"/>
            <path d="M292.87,198c-7.85,0-47.48,2.25-57.13-2.94a20.83,20.83,0,0,1-7.6-7,46.36,46.36,0,0,1-2.58-4.56c-11-20.61-43.87-27.32-65.24-32.12-14.24-3.21-28.65-7.3-38.22-14.8a64.14,64.14,0,0,1-.7-7.2s.31-13.57-3.26-22.57a95.27,95.27,0,0,1,7.55-15.17c1.48-2.46-2.89,6.46-1.76,4,1,.6,4.24,2.32,5,1.72,1-.8.73-6.75.73-6.75s8.28,2,8.95.13-6.13-12.88-6.13-12.88,5.46.43,6.25-.73-3.5-10-3.88-10.57a47.41,47.41,0,0,0-2.46-24.31C126.07,26.29,110,17,87.2,23.3,83.9,15.35,76.79.41,71.05,3.17s-8.67,24.06-9.74,34.54C39,58.4,28.83,94.84,26.34,120.84a88.53,88.53,0,0,0-.08,14.74v0a.06.06,0,0,1,0,0c.43,19.55,1.63,77,.95,79.55-.82,3.1-7.36,4.35-4.09,10.24s22.9,7.76,27-2.79c1.32-3.41,2.1-11.53,2.54-21,28.22,31.68,137.26,35.83,167.14,16.38l.66-.46a135.47,135.47,0,0,0,16.5,1.93c29.32,1.62,49-1.28,58.22-5.59,3.26-1.52,5.21-3.22,5.78-4.95C303.17,202.4,300.72,198,292.87,198Zm-182-98.86a5.26,5.26,0,0,1-1.9.38,9.87,9.87,0,0,1-4.41-.85c-8.64-4-5-21.07-5-21.07l.1-.48c5.21,1,10.08-4.4,10.08-4.4s.2,5.43,3.56,8.27l.07.67S117.06,96.57,110.83,99.12Z"
                  fill="#fff"/>
            <ellipse cx="124.9" cy="62.36" rx="8.94" ry="11.28" transform="translate(-9.26 23.77) rotate(-10.48)"
                     fill="#f5c38b"/>
            <path d="M61.31,37.71s-11.8,7.12.22,11.28,29.79-3.27,37.14-14.8-5.14-12.75-5.88-12.75A49.17,49.17,0,0,0,87.2,23.3S77.1,1.09,71.21,2.07,61.9,31,61.9,31"
                  fill="#f5c38b"/>
            <path d="M132,142.81s6.62,22.56,29.91,27.22,29.67-10.3,29.67-10.3-24.76-8.34-27.95-8.09-16.92-2.94-16.92-2.94"
                  fill="#f5c38b"/>
            <path d="M26.1,161.45s6.13,4.17,8.82,15S27.57,195,27.57,195" fill="#f5c38b"/>
            <path d="M119.27,112.16s-6.13,5.89-5.39,14,8.22,10.45,8.22,10.45" fill="#f5c38b"/>
            <path d="M214.65,215.14s7.36-6.86,23-4.65,19.13,9.07,19.13,9.07-15.45.49-27-1" fill="#f5c38b"/>
            <path d="M277.05,224.89a36,36,0,0,0,.37,11.77c1.29,6.07,1.84,7,1.84,7s-29.24.92-32-5.15-5.15-14,2.76-14.9,22.25.37,22.25.37"
                  fill="#f5c38b"/>
            <path d="M52.46,51.37S35.54,57,39.34,60a26.63,26.63,0,0,0,8.46,4.17" fill="#fff"/>
            <path d="M53.8,156.88s2.4,1.11,4.42,6.25,0,32.92,2.57,36.42,39.72,21.51,85.51,22.06,59.22-7,59.22-7,13.61,3.12,13.61,3.67-18,12.51-56.64,12.32-93.79-7-109.79-28.87"
                  opacity="0.25"/>
            <path d="M91.07,111.83a8.63,8.63,0,0,0,2.09,6.5c2.57,2.69,6.5,1.59,6.5,1.59s.36-3.07,0-3.19-3.44,1.35-4.91-.37"
                  opacity="0.25"/>
            <path d="M99.66,142.11s1,19.25,15.57,21.33,17.65-9.56,17.65-9.56-7.6,7.84-17.53,4.78a21.1,21.1,0,0,1-13.12-11.77"
                  opacity="0.25"/>
            <path d="M119.2,66.22c-.19-1.68-.47-2.42-5.12-4.39-5-2.14-9.34-2.19-9.75-.28-.6,2.78,2.46,6.35,6,7.65S119.5,69,119.2,66.22Z"/>
            <path d="M156.26,231.69c-6.76,0-13.73-.26-20.79-.78-39.74-2.95-71.21-13.41-84.18-28A1.84,1.84,0,0,1,54,200.49c12.35,13.87,42.89,23.87,81.71,26.75,35.76,2.66,69.14-1.64,83.05-10.69a1.84,1.84,0,1,1,2,3.08C209.08,227.26,184.49,231.69,156.26,231.69Z"/>
            <path d="M54.91,46.28a1.81,1.81,0,0,1-1.18-.43,1.84,1.84,0,0,1-.23-2.59,77,77,0,0,1,6.56-6.9,1.84,1.84,0,0,1,2.5,2.7,69.72,69.72,0,0,0-6.24,6.57A1.86,1.86,0,0,1,54.91,46.28Z"/>
            <path d="M26.27,137.51a1.83,1.83,0,0,1-1.82-1.61l0-.19a89.46,89.46,0,0,1,.09-15.05c2-21.3,8.35-43.14,17.31-59.93a1.84,1.84,0,1,1,3.24,1.73C36.33,78.84,30.17,100.18,28.17,121a86.79,86.79,0,0,0-.09,14.29,2.08,2.08,0,0,1,0,.37A1.84,1.84,0,0,1,26.27,137.51Zm-1.84-1.84h0Z"/>
            <path d="M118.14,108.65a1.81,1.81,0,0,1-.65-.11,1.84,1.84,0,0,1-1.07-2.37,90.58,90.58,0,0,1,5.76-12.12,1.84,1.84,0,1,1,3.2,1.8,86.62,86.62,0,0,0-5.52,11.61A1.84,1.84,0,0,1,118.14,108.65Z"/>
            <path d="M135.1,69.21h-.22a1.83,1.83,0,0,1-1.6-2l0-.18c2.1-14.7-2.06-28.21-11.12-36.18-8.54-7.5-20.79-9.53-34.49-5.72a2,2,0,0,1-.49.07,1.84,1.84,0,0,1-.41-3.64c14.9-4.12,28.33-1.8,37.81,6.53,10,8.79,14.62,23.53,12.34,39.43v.14A1.84,1.84,0,0,1,135.1,69.21Z"/>
            <path d="M35.92,232.08c-5.72,0-12.27-1.88-14.4-5.73-2.87-5.16.34-8,2.25-9.71a5.86,5.86,0,0,0,1.67-1.89c.53-3-.4-52.78-1.15-85.49a1.84,1.84,0,0,1,1.8-1.88h0a1.85,1.85,0,0,1,1.84,1.8c.32,13.88,1.87,83.31,1,86.51a8,8,0,0,1-2.79,3.69c-2,1.8-2.85,2.7-1.47,5.19,1.2,2.16,6.56,4.19,12.63,3.78,2.65-.18,9-1.16,11-6.35,3.13-8.08,3.25-46.33,2.88-65.42A1.84,1.84,0,1,1,55,156.5c0,2.29,1,56.06-3.12,66.83-1.95,5-7.13,8.2-14.21,8.69C37.07,232.06,36.5,232.08,35.92,232.08Z"/>
            <path d="M117.93,84.55a9.39,9.39,0,0,1-3.25-.62c-3.81-1.43-5.5-5-6.24-7.68-2.68,2-7,4.13-11.49,1.87-4.83-2.46-7.17-6.56-6.43-11.26a1.84,1.84,0,1,1,3.64.56h0c-.35,2.17.15,5.22,4.45,7.41,4.53,2.3,9.67-3.31,9.72-3.37a1.84,1.84,0,0,1,2-.5,1.86,1.86,0,0,1,1.21,1.66c0,.06.31,6.3,4.44,7.85,4.42,1.66,6.4-2.69,6.62-3.19A1.84,1.84,0,1,1,126,78.72C125,81,122.25,84.55,117.93,84.55Z"/>
            <path d="M108.66,101.34a10.3,10.3,0,0,1-8.35-3.68c-5.46-6.61-2.72-19.91-2.6-20.47a1.84,1.84,0,0,1,3.6.77c-.71,3.35-1.76,13,1.84,17.36a6.8,6.8,0,0,0,5.74,2.34,2.83,2.83,0,0,0,2.36-1.12c2.41-3.15,1-11.7.29-14.45a1.84,1.84,0,1,1,3.57-.89c.31,1.26,3,12.46-.94,17.57a6.47,6.47,0,0,1-5.21,2.56Z"/>
            <path d="M123.93,144.16a1.83,1.83,0,0,1-1.47-.73c-2.43-3.25-2.84-12.21-2.89-14v-.1c.16-7.3-1.13-26.63-8.91-28.39l-.1,0A1.84,1.84,0,0,1,109,98.86a1.82,1.82,0,0,1,2.07-1.56,3.26,3.26,0,0,1,.45.09c12,2.77,11.8,28.77,11.74,32,.13,3.91.88,10.14,2.15,11.84a1.83,1.83,0,0,1-.37,2.57A1.8,1.8,0,0,1,123.93,144.16Z"/>
            <path d="M119,160.25A20.18,20.18,0,0,1,105.57,155c-9.17-7.86-8.26-29.41-7.64-36.83-2.47.16-5.43-.55-6.81-3.78a11.38,11.38,0,0,1,.73-10,14.8,14.8,0,0,1,10.82-7.3,1.84,1.84,0,1,1,.58,3.63,11.11,11.11,0,0,0-8.17,5.45,7.7,7.7,0,0,0-.58,6.77c1.06,2.49,4.49,1.35,4.88,1.21a1.84,1.84,0,0,1,2.45,1.95c0,.28-3.3,28,6.13,36.1,11.21,9.61,22.42.61,22.89.23a1.84,1.84,0,1,1,2.34,2.84A25,25,0,0,1,119,160.25Z"/>
            <path d="M86.22,61.31a1.12,1.12,0,0,1-.63-.2l-2.42-1.67a1.1,1.1,0,0,1,1.25-1.81l2.42,1.67a1.1,1.1,0,0,1,.29,1.53A1.12,1.12,0,0,1,86.22,61.31Z"/>
            <path d="M84,65.5l-.26,0L81,64.8a1.1,1.1,0,1,1,.51-2.14l2.78.66a1.1,1.1,0,0,1,.82,1.33A1.11,1.11,0,0,1,84,65.5Z"/>
            <path d="M100.69,55.88a6.5,6.5,0,0,1-2.91-.73,6.93,6.93,0,0,1-4.14-7,1.84,1.84,0,1,1,3.64.51,3.32,3.32,0,0,0,2.15,3.17,2.4,2.4,0,0,0,3.2-.72,1.84,1.84,0,0,1,3,2.08A6.26,6.26,0,0,1,100.69,55.88Z"/>
            <path d="M124.54,65.49a6,6,0,0,1-2.67-.66,6.44,6.44,0,0,1-3.9-6.45,1.84,1.84,0,1,1,3.64.48,2.84,2.84,0,0,0,1.88,2.67,2,2,0,0,0,2.66-.62,1.84,1.84,0,0,1,3.06,2A5.84,5.84,0,0,1,124.54,65.49Z"/>
            <path d="M60.85,44.7H60.7a1.85,1.85,0,0,1-1.69-2c.06-.7.21-2.59.47-5.19,2.2-21.52,5.83-33.64,10.77-36a5.36,5.36,0,0,1,4.32-.11C80,3.47,85.35,14.06,88.9,22.59c1.16,2.8,1.86,4.72,1.88,4.8a1.84,1.84,0,1,1-3.46,1.24S86.63,26.71,85.5,24C81,13.21,76.44,6.05,73.26,4.83a1.68,1.68,0,0,0-1.42,0c-2.7,1.3-6.41,10.67-8.7,33.07-.26,2.56-.41,4.43-.46,5.11A1.84,1.84,0,0,1,60.85,44.7Z"/>
            <path d="M135.1,69.21a1.84,1.84,0,0,1-1.3-3.14,2,2,0,0,1,.37-.29c14.13-9.72,22.77-18,22.86-20.27-3.32-2.51-15.68-2.19-22.75-1.39a1.84,1.84,0,1,1-.41-3.66c2-.23,20.16-2.13,25.57,2.26a3.4,3.4,0,0,1,1.27,2.85c-.24,6-17.19,18.24-24.46,23.24l0,0A1.85,1.85,0,0,1,135.1,69.21Z"/>
            <path d="M275.92,245c-12.88,0-24.9-2.6-28.66-4.87-3.13-1.9-5.07-8.4-3.86-12.89,1-3.65,3.88-5.78,7.93-5.84,2.16,0,5.36.24,9.07.57,12.1,1.07,32.36,2.85,33.42-5.92a1.72,1.72,0,0,0-.24-1.16,1.84,1.84,0,1,1,3.19-1.83,5.4,5.4,0,0,1,.7,3.44c-1.49,12.29-23.1,10.39-37.4,9.13-3.6-.31-6.71-.6-8.68-.56-2.42,0-3.88,1.07-4.44,3.13-.93,3.43.91,8,2.21,8.79,5,3,37,8.82,53.51-1.54,6.88-4.32,10-11,9.14-19.77A24.35,24.35,0,0,0,302.05,198c-21.65-16.67-70.69-8.67-72.77-8.32a1.84,1.84,0,1,1-.61-3.63c2.14-.36,52.71-8.6,75.62,9a27.86,27.86,0,0,1,11.18,20.24c1,10.3-2.69,18.11-10.85,23.24C297,243.35,286.19,245,275.92,245Z"/>
            <path d="M107,88.21A1.48,1.48,0,0,1,105.59,87c-1-6.09,1.42-12.36,1.52-12.62a1.47,1.47,0,0,1,2.73,1.09h0c0,.05-2.26,5.77-1.35,11a1.47,1.47,0,0,1-1.2,1.7Z"/>
            <path d="M252.87,221.86c-5.07,0-10.42-.16-16-.47-39.87-2.21-61.59-19.89-62.49-20.65a1.84,1.84,0,1,1,2.35-2.83c.25.21,21.8,17.67,60.35,19.81,40,2.22,60.41-4.09,62.15-9.29.65-2,1.17-4.69-.11-6.45s-4.1-2.16-6.24-2.16c-1.3,0-3.53.06-6.35.15-15.1.43-43.2,1.24-51.65-3.31-6.34-3.41-9-8.49-10.54-11.53l-.39-.75c-10.18-19.15-41.19-26.09-61.71-30.68l-2.31-.52C146.29,150.11,131,145.9,121,138a1.84,1.84,0,0,1,2.27-2.9c9.46,7.42,24.26,11.47,37.49,14.46l2.3.51c21.18,4.74,53.19,11.9,64.16,32.54l.41.79c1.46,2.83,3.68,7.11,9,10,7.59,4.09,37.17,3.23,49.81,2.87,2.85-.08,5.1-.15,6.45-.15,4.36,0,7.46,1.24,9.23,3.69,1.2,1.67,2.29,4.72.6,9.77C300.14,217.28,280.79,221.86,252.87,221.86Z"/>
            <path d="M52.68,73.88c-4.56,0-8.75-1.6-9.82-2.39A2,2,0,0,1,42,69.85c0-.64,0-1.56,4.36-5.47-4.61-1.06-8.75-2.86-8.39-5.84.28-2.29,4.46-5,12.44-8a4.84,4.84,0,0,1-2.06-2.7,2.94,2.94,0,0,1,.93-2.78c1.47-1.38,5.87-2.86,13.1-4.42a1.94,1.94,0,0,1,.8-.05,1.83,1.83,0,0,1,1.53,2.09v0a1.84,1.84,0,0,1-1.43,1.51c-5.84,1.25-9.53,2.44-10.94,3.18a14.74,14.74,0,0,0,3.32,1.71,1.84,1.84,0,0,1,0,3.47c-6.3,2.16-12.22,4.89-13.76,6.3,1.21.87,5.1,2,8.85,2.61a1.84,1.84,0,0,1,.9,3.23c-1.76,1.48-3.75,3.26-5,4.48,2.24.73,6.31,1.58,9.73.5a1.84,1.84,0,1,1,1.11,3.5A15.87,15.87,0,0,1,52.68,73.88Z"/>
            <path d="M128.65,99c-2,0-4.23-1.39-5.93-2.59a1.84,1.84,0,1,1,2.12-3,11,11,0,0,0,3.53,1.88,11.71,11.71,0,0,0-1-4.44l1.7-.68,1.72-.65c1.21,3.15,2.13,7.24-.28,8.92A3.3,3.3,0,0,1,128.65,99Z"/>
            <path d="M136.38,94.09c-2.45,0-5.5-1.08-8-2.2a2.13,2.13,0,0,1-.56-.38A1.84,1.84,0,0,1,130,88.57c3.13,1.39,6,2,7,1.82a2.47,2.47,0,0,0-.09-.45c-1.52-5.48-6-12.33-6-12.4a1.84,1.84,0,0,1,2.08-2.76,13.76,13.76,0,0,0,4.55.67,29.3,29.3,0,0,0-3.4-6,.35.35,0,0,1-.05-.08l-.1-.13a1.84,1.84,0,0,1,3.06-2l.12.17c1.86,2.65,4.84,7.38,4,9.53-.74,2-2.9,2.38-5.07,2.24A48.2,48.2,0,0,1,140.37,89c.63,2.27-.15,3.53-.92,4.19A4.6,4.6,0,0,1,136.38,94.09Z"/>
            <rect width="336" height="246" fill="none"/>
        </g>
    </g>
</svg>