<svg width="20" height="28" viewBox="0 0 20 28" fill="none" xmlns="http://www.w3.org/2000/svg">
    <path d="M0.0024278 10.0398C-0.114229 4.73325 3.98821 0.42756 9.06278 0.030983C14.2346 -0.365594 18.7064 3.09029 19.6202 7.79255C20.0674 10.1154 19.6786 12.3437 18.4731 14.4022C15.9844 18.6512 13.4763 22.8814 10.9682 27.1304C10.3655 28.169 9.43219 28.1502 8.81002 27.1115C6.32134 22.8814 3.81322 18.6512 1.32454 14.4211C0.469055 12.9669 -0.017015 11.3806 0.0024278 10.0398ZM9.89882 6.11182C7.44903 6.11182 5.42697 8.05694 5.44642 10.4364C5.46586 12.7781 7.46847 14.7232 9.87938 14.7232C12.3097 14.7232 14.3123 12.797 14.3318 10.4364C14.3707 8.07582 12.3681 6.11182 9.89882 6.11182Z"
          fill="white"/>
</svg>
