<svg width="24" height="24" viewBox="0 0 24 24" fill="none" xmlns="http://www.w3.org/2000/svg">
<defs>
<clipPath id="clip0_1552_40313">
<rect width="24" height="24" fill="white"/>
</clipPath>
</defs>
<g clip-path="url(#clip0_1552_40313)">
<path d="M12.0003 23.4301C18.3129 23.4301 23.4303 18.3127 23.4303 12.0001C23.4303 5.68745 18.3129 0.570068 12.0003 0.570068C5.6877 0.570068 0.570312 5.68745 0.570312 12.0001C0.570312 18.3127 5.6877 23.4301 12.0003 23.4301Z" fill="#49CF95"/>
<path d="M17.5225 6.47702C17.8037 6.75831 17.9616 7.13978 17.9616 7.53752C17.9616 7.93527 17.8037 8.31673 17.5225 8.59802C17.8437 9.49512 17.9147 10.4627 17.7279 11.3971C17.541 12.3315 17.1034 13.1974 16.462 13.902L14.8705 15.492C14.5806 15.8617 14.3816 16.2943 14.2895 16.7549C14.1974 17.2155 14.2148 17.6913 14.3402 18.144L5.85547 9.66002C6.30805 9.78531 6.78373 9.8026 7.24422 9.71051C7.7047 9.61841 8.13714 9.4195 8.50672 9.12977L10.0975 7.53752C10.8021 6.89606 11.668 6.45846 12.6024 6.27164C13.5368 6.08481 14.5044 6.15581 15.4015 6.47702C15.6828 6.19582 16.0642 6.03784 16.462 6.03784C16.8597 6.03784 17.2412 6.19582 17.5225 6.47702V6.47702Z" stroke="white" stroke-width="1.5" stroke-linecap="round" stroke-linejoin="round"/>
<path d="M17.5225 6.47702C17.8037 6.75831 17.9616 7.13978 17.9616 7.53752C17.9616 7.93527 17.8037 8.31673 17.5225 8.59802C17.8437 9.49512 17.9147 10.4627 17.7279 11.3971C17.541 12.3315 17.1034 13.1974 16.462 13.902L14.8705 15.492C14.5806 15.8617 14.3816 16.2943 14.2895 16.7549C14.1974 17.2155 14.2148 17.6913 14.3402 18.144L5.85547 9.66002C6.30805 9.78531 6.78373 9.8026 7.24422 9.71051C7.7047 9.61841 8.13714 9.4195 8.50672 9.12977L10.0975 7.53752C10.8021 6.89606 11.668 6.45846 12.6024 6.27164C13.5368 6.08481 14.5044 6.15581 15.4015 6.47702C15.6828 6.19582 16.0642 6.03784 16.462 6.03784C16.8597 6.03784 17.2412 6.19582 17.5225 6.47702Z" fill="white" fill-opacity="0.3" stroke="white" stroke-width="1.5" stroke-linecap="round" stroke-linejoin="round"/>
<path d="M8.50572 12.3105L7.97547 12.8408C7.55348 13.2628 7.31641 13.8351 7.31641 14.4319C7.31641 15.0287 7.55348 15.6011 7.97547 16.023C8.39746 16.445 8.96981 16.6821 9.5666 16.6821C10.1634 16.6821 10.7357 16.445 11.1577 16.023L11.688 15.4928" stroke="white" stroke-width="1.5" stroke-linecap="round" stroke-linejoin="round"/>
</g>
</svg>
