<svg xmlns="http://www.w3.org/2000/svg" viewBox="0 0 249.62 244.2"><g id="Layer_2" data-name="Layer 2"><g id="Layer_1-2" data-name="Layer 1"><path d="M204.62,170.39s9.2-27.86-10.7-48.38-43.4-16.29-43.4-16.29-39,2.86-41.66,50.37c0,0-19.53-1.87-28.36,9.7s-10.44,17.29-10.44,17.29-20.77-9.08-40.3-5.72S2.4,188.55,2,201.36,11.61,218.27,38.72,217s18.16-1,18.16-1,9.2,14.93,19.65,13.81,18.28-8.09,18.28-8.09,8.2,14.06,32.46,17.42S159.85,231,159.85,231s11.94,16,23.5,10.07,9.46-15.92,7.22-21.76c0,0,29,3.6,36.93-13.81S226.38,174.25,204.62,170.39Z" fill="#fff" stroke="#382d2a" stroke-linecap="round" stroke-linejoin="round" stroke-width="3.7"/><path d="M19.4,10.37S20.88,2,29.72,1.11A12.6,12.6,0,0,1,43.93,14.38c-.42,7.1-8.32,24.37-8.32,24.37S18.24,40.91,7,33.2.45,5.43,19.4,10.37Z" fill="#f1a4a9" stroke="#000102" stroke-miterlimit="10" stroke-width="2"/><path d="M39.83,13.5s-12,18.65-21,20.56c0,0,8.45,2.71,13.83.71C32.66,34.66,39.3,22.43,39.83,13.5Z" fill="#ea8788"/><path d="M217.19,11s7-3.61,12.57,2.23a11.58,11.58,0,0,1-.26,16.37A12.19,12.19,0,0,1,227.76,31c-5.53,3.72-23,7.57-23,7.57S193.55,27.33,193,14.79,210.4-5.45,217.19,11Z" fill="#f1a4a9" stroke="#000102" stroke-miterlimit="10" stroke-width="2"/><path d="M226.17,28s-20.69,1.91-27-3.22c0,0,2.47,7.27,7.06,10C206.23,34.68,219,32.54,226.17,28Z" fill="#ea8788"/><path d="M238.71,104.29a6.6,6.6,0,0,1,7.84,1.52,7.59,7.59,0,0,1-1.24,11.47c-3.49,2.42-14.33,5-14.33,5s-7-7.39-7.34-15.42S234.47,93.59,238.71,104.29Z" fill="#f1a4a9" stroke="#000102" stroke-miterlimit="10" stroke-width="2"/><path d="M244.17,115s-13.16,1.13-17-1.92c0,0,1.61,4.41,4.46,6C231.63,119.14,239.7,117.89,244.17,115Z" fill="#ea8788"/><path d="M22.49,107.12A5.78,5.78,0,0,0,16,109.63a6.43,6.43,0,0,0,2,8.87,6.78,6.78,0,0,0,.84.45c3.23,1.43,12.92,1.79,12.92,1.79s4.84-7.17,3.76-14S24.28,97.62,22.49,107.12Z" fill="#f1a4a9" stroke="#000102" stroke-miterlimit="10" stroke-width="2"/><path d="M19.69,116.93s11.3-1.08,14.17-4.48Z" fill="#ea8788"/><path d="M135.46,66c1.65-2.57,4,4.49,6.4,6.37a17.74,17.74,0,0,1,5.58,7,3.32,3.32,0,0,1,.23,2.53,5.75,5.75,0,0,1-1.29,1.49,7.06,7.06,0,0,0-2,5.92,21.62,21.62,0,0,1,.57,3.39,2.41,2.41,0,0,1-1.88,2.51s-5.63.64-8-2.16S127.89,77.76,135.46,66Z" fill="#fdb7cf"/><path d="M136,66.3c.64-.9,2.55,2.65,2.84,3.14.47.74.94,1.49,1.46,2.18a18.25,18.25,0,0,0,2.3,2.18,17.4,17.4,0,0,1,2.89,3.29c.92,1.37,2.42,3.62,1.14,5.15a13.06,13.06,0,0,0-2.33,3,7.7,7.7,0,0,0-.64,3.67c.15,1.73,1.76,5.47-1.13,5.67a11.19,11.19,0,0,1-5.39-.8c-3-1.41-4.06-5.91-4.65-8.86A25.61,25.61,0,0,1,136,66.3c.45-.7-.67-1.32-1.09-.65a26.77,26.77,0,0,0-3.7,19c.64,3.61,1.92,8.79,5.66,10.4a12.44,12.44,0,0,0,5.85.79c2.43-.2,3.09-2.48,2.67-4.61s-.79-3.76.18-5.69c.71-1.44,2.47-2.31,2.81-3.89s-.57-3.12-1.28-4.36a18,18,0,0,0-3-3.84,24,24,0,0,1-3.21-3.09c-.76-1.09-1.4-2.28-2.15-3.37-.89-1.34-2.49-3.24-3.85-1.29C134.44,66.36,135.53,67,136,66.3Z" fill="#2d080c"/><path d="M109.8,71.47A84.76,84.76,0,0,1,93.71,82a37.55,37.55,0,0,0-6.32,3.59,9.79,9.79,0,0,0-3.93,5.94,5.72,5.72,0,0,0,2.91,6.12c1.58.72,3.44.47,5.17.52s3.73.54,4.52,2.1c.62,1.19.37,2.73,1.11,3.82a2.56,2.56,0,0,0,2.92.94s7.66,2.18,12.18-2.23S109.8,71.47,109.8,71.47Z" fill="#fdb7cf"/><path d="M109.36,71A86.68,86.68,0,0,1,95,80.64c-4.25,2.25-9.54,4.11-11.59,8.89-1.66,3.86.17,8.64,4.62,9.18,2.22.28,5.81-.67,7.34,1.56.69,1,.52,2.38,1,3.47a3.19,3.19,0,0,0,1.68,1.76,4.24,4.24,0,0,0,2,.12,3.82,3.82,0,0,1,1,.23,17.56,17.56,0,0,0,4.4.29c2.87-.15,6.8-1.21,8.16-4.06,1-2.08,1-4.65.89-6.91a77.34,77.34,0,0,0-1-9.48c-.77-4.83-1.76-9.66-3-14.39-.2-.79-1.41-.45-1.22.35.89,3.41,1.64,6.88,2.28,10.35,1,5.45,2.2,11.34,1.56,16.89a5.69,5.69,0,0,1-4,5.25c-2.75,1.09-5.69.86-8.53.34a2.32,2.32,0,0,0-.59-.07c-.77,0-1.24.22-1.93-.37a3.24,3.24,0,0,1-.84-2c-.32-1.89-1-3.27-2.84-4-2.13-.84-4.38-.19-6.55-.61a4.82,4.82,0,0,1-3.76-5.08c.17-6,7.46-8.42,11.79-10.72a86.86,86.86,0,0,0,14.37-9.74C110.87,71.42,110,70.53,109.36,71Z" fill="#2d080c"/><path d="M97.37,109.91c-.94,3-2.87,5.59-4.67,8.17a192.75,192.75,0,0,0-14,23.13c-1.76,3.42-3.46,7.06-3.44,10.92a2.56,2.56,0,0,0,.64,2c1.12,1,2.8-.25,3.76-1.39,1.8-2.15,19.85-23.13,21.63-25.26" fill="#fdbfb1"/><path d="M96.75,109.76c-1.38,4.18-4.42,7.67-6.87,11.29-2.57,3.79-5,7.7-7.29,11.66a118.33,118.33,0,0,0-6.23,11.92,21.23,21.23,0,0,0-1.65,6c-.15,1.39-.32,3.45,1.13,4.26,2,1.09,3.81-1.16,5-2.5s2.12-2.5,3.19-3.74L94,137c2.6-3,5.19-6,7.76-9.06.52-.62-.37-1.51-.89-.89-5.07,6-10.26,12-15.37,18l-6.16,7.21a7,7,0,0,1-1.31,1.24c-.61.39-1.18.62-1.68,0a2.57,2.57,0,0,1-.39-2,18.81,18.81,0,0,1,1.48-6,103.59,103.59,0,0,1,6-11.49q3.6-6.27,7.63-12.28c2.53-3.72,5.57-7.28,7-11.59C98.24,109.36,97,109,96.75,109.76Z" fill="#2d080c"/><path d="M118.24,46.86s-9.14,8.74-8.72,18.72,3.65,19.34,1.82,25-7.31,10.8-11.59,15.88c-3.23,3.84-6.5,7.53-2.64,19.14s.62,10.58.62,19.74.61,20.16,9.34,25,30.67,13.64,33.32-9.56-5.49-20.16-5.49-32.37,6.7-19.14,5.88-30.14-6.89-8.74-6.3-19.54,4.67-20.16,2.22-26.67S127.57,41.76,118.24,46.86Z" fill="#fdbfb1" stroke="#2d080c" stroke-miterlimit="10" stroke-width="1.42"/><path d="M109.24,94.55c.82,2.06,2.87,3.37,4.92,4.21a14.48,14.48,0,0,0,6.67,1.31,13.34,13.34,0,0,0,9.52-5.74,27.44,27.44,0,0,0,4.37-10.77s11.2,19.78,16.66,26.32l-6.5,13-7.64-7.23a46.4,46.4,0,0,0-2.43,10.92c-.44,5.62,2.43,11.54,2.43,11.54s-24.6,11.25-34.58,4.86L96.31,123.7l-5.46-2.87s8-12.61,9.83-15.48S109.24,94.55,109.24,94.55Z" fill="#fde680"/><path d="M108.74,94.87c1.21,2.83,4.23,4.26,7,5.16a12.49,12.49,0,0,0,9.27-.4c6.16-2.82,8.88-9.49,10.14-15.73l-1.17.15c4,6.91,8.16,13.75,12.63,20.36,1.35,2,2.79,4,4.33,5.89,0-.25-.08-.52-.1-.77-2.18,4.36-4.35,8.7-6.5,13.06l1-.13c-2.57-2.43-5.14-4.85-7.74-7.28a.65.65,0,0,0-1.06.27,38.16,38.16,0,0,0-2.5,11.94,24.69,24.69,0,0,0,2.55,11c.07-.29.15-.56.22-.86a84.23,84.23,0,0,1-8.72,3.34c-5.51,1.83-11.37,3.39-17.2,3.37a21,21,0,0,1-4.11-.37,14.8,14.8,0,0,1-1.7-.47c-.57-.2-1.11-.6-1.68-.75-.25-.07-.37-.19-.2.08a.17.17,0,0,1,0-.1,2.69,2.69,0,0,1-.17-.57c-.25-.72-.47-1.46-.72-2.18l-4.49-13.52c-.3-.89-.52-2.68-1.29-3.27a19.46,19.46,0,0,0-2.89-1.53l-2.52-1.34c.07.3.15.57.22.86,4.62-7.23,8.92-14.73,14.36-21.37q2-2.42,4-4.75c.52-.62-.37-1.51-.89-.89a128.63,128.63,0,0,0-8.33,10.29c-2.64,3.84-5,7.92-7.56,11.86-.89,1.41-1.78,2.8-2.69,4.21a.64.64,0,0,0,.22.87A47.6,47.6,0,0,0,95.59,124c.57.22,0,0,0-.17a3.73,3.73,0,0,0,.14.44c.23.67.45,1.32.67,2q2.28,6.87,4.55,13.76c.25.75.49,1.51.74,2.26a3.87,3.87,0,0,0,.37,1c.59.77,2.18,1.19,3.07,1.46a18.33,18.33,0,0,0,3.88.67c5.83.45,11.81-1,17.37-2.72a89.15,89.15,0,0,0,11-4.11.65.65,0,0,0,.23-.87,23.07,23.07,0,0,1-2.38-10.8,39.17,39.17,0,0,1,2.43-11.16l-1.07.27c2.57,2.42,5.14,4.85,7.74,7.28a.63.63,0,0,0,.89,0,.49.49,0,0,0,.11-.14c2.17-4.35,4.35-8.69,6.5-13a.61.61,0,0,0-.1-.76,110.79,110.79,0,0,1-8.08-11.72c-2.47-3.89-4.85-7.82-7.2-11.79L135,83.36a.63.63,0,0,0-.88-.21.67.67,0,0,0-.28.36c-1.14,5.59-3.34,11.46-8.55,14.43a11.08,11.08,0,0,1-8.65,1c-2.7-.74-5.74-2-6.92-4.75C109.51,93.49,108.44,94.13,108.74,94.87Z" fill="#34000a"/><path d="M129.92,62.77a1.33,1.33,0,1,0-1.47-1.28,1.1,1.1,0,0,0,0,.18A1.3,1.3,0,0,0,129.92,62.77Z" fill="#34000a"/><path d="M117.16,62.88a1.29,1.29,0,1,0-1.45-1.11h0A1.3,1.3,0,0,0,117.16,62.88Z" fill="#34000a"/><path d="M135.38,57.65s4.85-2.42,6.65,1.29S140.7,66,138.25,65.6a9.94,9.94,0,0,1-4.18-1.8" fill="#fdbfb1"/><path d="M135.38,57.65s4.85-2.42,6.65,1.29S140.7,66,138.25,65.6a9.94,9.94,0,0,1-4.18-1.8" fill="none" stroke="#2d080c" stroke-linecap="round" stroke-linejoin="round" stroke-width="1.03"/><path d="M140.42,59.66c-2-.22-1.45,3.77-3.75,3.22" fill="none" stroke="#2d080c" stroke-linecap="round" stroke-linejoin="round" stroke-width="0.84"/><path d="M121.17,153.76s3.78-6.58,1.53-10.37-2.37-9.91.84-10.92c2.15-.7,3.86.79,3.74,2a2.71,2.71,0,0,1-1.91,2.48c-1.06.22-.76,1.34.35,3.32s1.52,9.09.27,12.09S121.17,153.76,121.17,153.76Z" fill="#fff" stroke="#2d080c" stroke-linecap="round" stroke-linejoin="round" stroke-width="1.17"/><path d="M93.61,145.12l2.28,27h31.78l-16.53-33-12.88-7-4-2.79-3.41,2.13Z" fill="#fff" stroke="#2d080c" stroke-linecap="round" stroke-linejoin="round" stroke-width="1.17"/><path d="M96.24,130s-2.77-3-3.83-3-1.68.75-1.56,3.2.35,2,.35,2a5.73,5.73,0,0,0-1.39,4.41,55.56,55.56,0,0,0-4.62,3.46c-.81,1.46-.2,1.59,2.57,2.5,0,0-3.8,3.57-2.82,3.74s6.92-1.23,6.92-1.23-.46,2.52.15,2.52,4.08-.74,4.08-.74" fill="#fff"/><path d="M96.24,130s-2.77-3-3.83-3-1.68.75-1.56,3.2.35,2,.35,2a5.73,5.73,0,0,0-1.39,4.41,55.56,55.56,0,0,0-4.62,3.46c-.81,1.46-.2,1.59,2.57,2.5,0,0-3.8,3.57-2.82,3.74s6.92-1.23,6.92-1.23-.46,2.52.15,2.52,4.08-.74,4.08-.74" fill="none" stroke="#2d080c" stroke-linecap="round" stroke-linejoin="round" stroke-width="1.17"/><path d="M93.84,131.36a10,10,0,0,1,10.8-.82s3-4.16,4.45-4.11,2.39,2.58,1.78,7a20.67,20.67,0,0,1,7.06,5.07l-3.75,1.89s4.87,1.68,5,3.34-8.4.49-8.4.49,3.68,2.75,2.84,2.8-3.93-.22-3.93-.22" fill="#fff"/><path d="M93.84,131.36a10,10,0,0,1,10.8-.82s3-4.16,4.45-4.11,2.39,2.58,1.78,7a20.67,20.67,0,0,1,7.06,5.07l-3.75,1.89s4.87,1.68,5,3.34-8.4.49-8.4.49,3.68,2.75,2.84,2.8-3.93-.22-3.93-.22" fill="none" stroke="#2d080c" stroke-linecap="round" stroke-linejoin="round" stroke-width="1.17"/><path d="M103.55,139.57c1.06.4,2.87.89,3.93.28a.53.53,0,0,0,.15-.74.54.54,0,0,0-.67-.18,3.12,3.12,0,0,1-1.66,0,7.4,7.4,0,0,1-1.45-.39A.54.54,0,0,0,103.55,139.57Z" fill="#34000a"/><path d="M92,139.05a7.08,7.08,0,0,0,3.51.08c.67-.15.37-1.17-.27-1a5.9,5.9,0,0,1-3-.07.53.53,0,0,0-.29,1Z" fill="#34000a"/><path d="M98.06,139.23h2.3l-.15-.37c0,.19-.64.59-.86.59s-.64-.57-.84-.82l-.37.89H99.2c.2.08.22,0,0-.1.08-.2.16-.4.25-.59,0,0-.77-.47-.87-.49-.64-.23-.91.79-.27,1,.3.1.47.4.79.5a1,1,0,0,0,.87-.1.57.57,0,0,0,.24-.6c-.34-.81-1.38-.74-2.12-.67a.53.53,0,0,0-.52.54.55.55,0,0,0,.15.36c.39.52.76,1.11,1.5,1.13a2.28,2.28,0,0,0,1.76-1c.39-.5.3-1.17-.4-1.31a9.44,9.44,0,0,0-2.49,0C97.4,138.21,97.4,139.25,98.06,139.23Z" fill="#34000a"/><path d="M95.64,141.63c1,1.14,3,.49,3.71-.74,0-.08.15-.15.17-.25-.39,0-.49.1-.3.27s.13.15.18.22a2.6,2.6,0,0,0,1,.8,2.44,2.44,0,0,0,2.64-.23c.54-.37,0-1.28-.52-.91a1.61,1.61,0,0,1-1.75.15c-.45-.25-.55-.65-.87-1s-.44-.4-.81-.3c-.82.25-1.59,2.45-2.7,1.19C95.91,140.36,95.24,141.11,95.64,141.63Z" fill="#34000a"/><path d="M134.64,150.22s-11.52-.17-15.47.5a101.22,101.22,0,0,1-22,1c-9.32-.67-21.3-7.65-36,8.79s-3.39,30.85,3.23,30.7,39.47,0,46.56-.33,48.3-.64,53.66-1.46,18.46-.64,18.31-3.74-6.15-10.4-16.08-11.54.46-6.66-1.12-15.77S134.64,150.22,134.64,150.22Z" fill="#f8bf8d" stroke="#000102" stroke-linecap="round" stroke-miterlimit="10" stroke-width="1.24"/><path d="M133.18,150.74s12.66-9,22.42-12.92,24.64,10.89,20.64,20.72c-6.4,15.58-16.46,24-28.64,30.49" fill="#f8bf8d"/><path d="M133.18,150.74s12.66-9,22.42-12.92,24.64,10.89,20.64,20.72c-6.4,15.58-16.46,24-28.64,30.49" fill="none" stroke="#000102" stroke-linecap="round" stroke-miterlimit="10" stroke-width="1.26"/><path d="M164.65,176.36s-16.74,3.79-20.94,9.53-5.36,12.83,1.53,11.12,7.27-12.46,17-12.06,10.14,4,14.54,3.07,8.79-.77,5-5.74" fill="#f8bf8d"/><path d="M164.65,176.36s-16.74,3.79-20.94,9.53-5.36,12.83,1.53,11.12,7.27-12.46,17-12.06,10.14,4,14.54,3.07,8.79-.77,5-5.74" fill="none" stroke="#000102" stroke-linecap="round" stroke-miterlimit="10" stroke-width="1.26"/><path d="M142.15,165.53s-2.57,10.67-5.73,15.38,26.27-1,33.47,1.63,7.19,11.94-2.55,10.55S124.66,192,124.66,192s-5.12-.74-1.73-11.51,6-14.93,6-14.93" fill="#f8bf8d"/><path d="M142.15,165.53s-2.57,10.67-5.73,15.38,26.27-1,33.47,1.63,7.19,11.94-2.55,10.55S124.66,192,124.66,192s-5.12-.74-1.73-11.51,6-14.93,6-14.93" fill="none" stroke="#000102" stroke-linecap="round" stroke-miterlimit="10" stroke-width="1.2"/><path d="M152.76,138.76a7.56,7.56,0,0,0-8.11,4.78c-2.45,5.79-5.39,15.28-.32,16.24s7.71-1.91,8-6.31.81-8.37,2.3-9.86" fill="#f8bf8d"/><path d="M152.76,138.76a7.56,7.56,0,0,0-8.11,4.78c-2.45,5.79-5.39,15.28-.32,16.24s7.71-1.91,8-6.31.81-8.37,2.3-9.86" fill="none" stroke="#000102" stroke-linecap="round" stroke-linejoin="round" stroke-width="1.46"/><path d="M73.84,164.59s14.49-8.8,22.84,2.65S87,185.71,87,185.71s21.3-.67,27.65.67,7.69,6.39,1.76,6.61-24.82-.63-33.19-2.2-15.37.44-13.84-9.91" fill="#f8bf8d"/><path d="M73.84,164.59s14.49-8.8,22.84,2.65S87,185.71,87,185.71s21.3-.67,27.65.67,7.69,6.39,1.76,6.61-24.82-.63-33.19-2.2-15.37.44-13.84-9.91" fill="none" stroke="#000102" stroke-linecap="round" stroke-miterlimit="10" stroke-width="1.26"/><path d="M172.31,162.58s6.47,6.69,7.63,9.43c2.43,5.7-9,8.77-11.56,7.26-5.86-2.08-10.61-8.44-11.77-17.43" fill="#f8bf8d"/><path d="M172.31,162.58s6.47,6.69,7.63,9.43c2.43,5.7-9,8.77-11.56,7.26-5.86-2.08-10.61-8.44-11.77-17.43" fill="none" stroke="#000102" stroke-linecap="round" stroke-miterlimit="10" stroke-width="1.42"/><path d="M173.74,173.77s-.67-6.56,5-3.71,7.49,5.25,4.67,7.18S175,178.53,173.74,173.77Z" fill="#333" stroke="#000102" stroke-miterlimit="10" stroke-width="1.36"/><path d="M180.83,173.05a5.78,5.78,0,0,1,2.48,1.91c.56,1.12-1.09,1.56-2.85.84S176.36,170.83,180.83,173.05Z" fill="#fff"/><path d="M94.06,148s-11.39,11.79-6.75,11.17,13.4-10,13.4-10" fill="#fff"/><path d="M94.06,148s-11.39,11.79-6.75,11.17,13.4-10,13.4-10" fill="none" stroke="#2d080c" stroke-linecap="round" stroke-linejoin="round" stroke-width="1.17"/><path d="M105,148s-11.4,11.79-6.72,11.17,13.4-10,13.4-10" fill="#fff"/><path d="M105,148s-11.4,11.79-6.72,11.17,13.4-10,13.4-10" fill="none" stroke="#2d080c" stroke-linecap="round" stroke-linejoin="round" stroke-width="1.17"/><path d="M165.29,156.22a2.67,2.67,0,0,0,1.13,2.3,2.61,2.61,0,0,0,2.55.17" fill="#f8bf8d"/><path d="M164.45,156.22a3.46,3.46,0,0,0,3.37,3.55,3.38,3.38,0,0,0,1.63-.36c1-.42.12-1.88-.84-1.46a1.77,1.77,0,0,1-2.3-.95,1.89,1.89,0,0,1-.13-.78.87.87,0,1,0-1.73,0Z" fill="#000102"/><path d="M156.88,165.68s-7.24-1.44-10.25,2.67,2.3,6.93,5.81,4c1.9-1.56,6.2-1.54,6.2-1.54A14.89,14.89,0,0,1,156.88,165.68Z" fill="#ffa6cf" stroke="#000102" stroke-linecap="round" stroke-linejoin="round" stroke-width="0.96"/><path d="M157.33,168.75s-2.57-1.69-6.33,1Z" fill="#ffa6cf"/><path d="M157.33,168.75s-2.57-1.69-6.33,1" fill="none" stroke="#000102" stroke-linecap="round" stroke-linejoin="round" stroke-width="0.96"/><path d="M119.85,67.76A3.22,3.22,0,0,0,123.31,69a4.39,4.39,0,0,0,2.77-3.36c.15-.8-1.06-1.14-1.21-.35-.3,1.71-2.52,3.69-4,1.81C120.47,66.47,119.38,67.12,119.85,67.76Z" fill="#34000a"/><path d="M132,107.78a21.36,21.36,0,0,0,4.55,7c9.17,10.18,21.75,17,30.15,27.79a9.21,9.21,0,0,0,3.49,3.27c1.5.59,3.61-.1,3.85-1.69a4.93,4.93,0,0,0-.52-3.24L170,135.12Q153.56,112,137,88.93" fill="#fdbfb1"/><path d="M131.35,107.93c1.49,4.11,4.6,7.4,7.67,10.4s6.47,5.79,9.86,8.51,6.89,5.53,10.13,8.5c1.58,1.46,3.14,3,4.57,4.58s2.6,3.32,4,4.85a4.88,4.88,0,0,0,4.23,1.86,3.1,3.1,0,0,0,2.77-2.4c.44-2.48-1-4.36-2.23-6.34-4.18-6.93-9.19-13.37-13.89-20Q148,103.2,137.55,88.56c-.47-.64-1.55,0-1.09.65l17.06,23.9c2.82,3.93,5.63,7.9,8.45,11.83,2.5,3.52,5.22,7,7.54,10.6,1.06,1.66,2,3.39,3.06,5.1a4.72,4.72,0,0,1,.82,3c-.2,2.55-3.24,1.78-4.5.59a57.49,57.49,0,0,1-3.76-4.48c-1.28-1.46-2.63-2.87-4.07-4.23-2.94-2.8-6.11-5.4-9.27-8-3.49-2.83-7-5.6-10.31-8.64-3.48-3.22-7.34-6.84-9-11.4C132.29,106.84,131.08,107.16,131.35,107.93Z" fill="#2d080c"/><path d="M132.44,44.53c.52,1.34-.74,2.65-1.88,3.49a71,71,0,0,1-17.62,9.61A22.05,22.05,0,0,1,105,59.36a9.21,9.21,0,0,1-7.19-3.25c-1.66-2.15-1.81-5.54.07-7.5,2.27-2.38,6.35-2,8.77-4.21a11.69,11.69,0,0,0,2.23-3.34,21.63,21.63,0,0,1,6.35-7.85,15.61,15.61,0,0,1,7.57-2.6,18.4,18.4,0,0,1,17.82,26.94" fill="#fdb7cf"/><path d="M131.85,45.05c.54,2-2.77,3.32-4.08,4.21-1.63,1.11-3.31,2.15-5,3.12a65,65,0,0,1-11.24,5.1c-3.71,1.26-8.13,2.08-11.62-.3-3.06-2.08-4-7-.34-9,2.71-1.56,6.17-1.41,8.28-4a41.67,41.67,0,0,0,2.66-4.51A21.29,21.29,0,0,1,114.2,35c5.81-5.3,14.9-4.59,20.93-.13a18,18,0,0,1,5,22.44c-.37.72.72,1.36,1.09.64A19.34,19.34,0,0,0,138,35.73c-5.69-5.67-15.18-7.67-22.27-3.41-3.91,2.35-5.88,6.14-8.11,9.93-1.18,2-2.86,2.84-5,3.51a12.4,12.4,0,0,0-4.74,2.13c-2.7,2.36-2.35,6.66-.08,9.17,2.74,3.07,7.24,3.41,11,2.6,5.17-1.12,10.24-3.62,14.78-6.22a70,70,0,0,0,6.63-4.28c1.53-1.12,2.77-1.52,2.17-3.67C132.15,44.63,131.63,44.26,131.85,45.05Z" fill="#34000a"/><path d="M131.5,45.15a12.82,12.82,0,0,0,8.68,13c.76.25,1.11-1,.34-1.21a11.56,11.56,0,0,1-7.73-11.81C132.84,44.36,131.58,44.36,131.5,45.15Z" fill="#34000a"/><path d="M132.84,44.06a10.82,10.82,0,0,0,.44,6.44A14.08,14.08,0,0,0,138,56a6.76,6.76,0,0,0,2.21,1.11s1.29-5.75,1.21-7.36S132.84,44.06,132.84,44.06Z" fill="#fdb7cf"/><path d="M135.64,87.15l12.52,18.57-6.09,13.64s-9.35-7.21-10.22-13.09Z" fill="#fde680"/><path d="M59.51,163.57s-1.24,5.5,8.7,5.23,35.09-9.49,42.8,1.48,4.72,24.44-6.47,26.92c0,0,1.48-4.23-2.25-6s-30.6,12.21-47.78-.25S46.09,156.59,59.51,163.57Z" fill="#f8bf8d" stroke="#000102" stroke-linecap="round" stroke-linejoin="round" stroke-width="1.3"/></g></g></svg>