<svg width="10" height="10" viewBox="0 0 10 10" fill="none" xmlns="http://www.w3.org/2000/svg">
<path d="M1.72894 0.806728L5.00003 4.07783L8.25767 0.820189C8.31476 0.759423 8.38353 0.710812 8.45987 0.677272C8.5362 0.643731 8.61852 0.625952 8.70189 0.625C8.8804 0.625 9.0516 0.695912 9.17782 0.822136C9.30405 0.94836 9.37496 1.11956 9.37496 1.29807C9.37653 1.38058 9.36122 1.46255 9.32997 1.53894C9.29872 1.61533 9.25219 1.68453 9.19323 1.74229L5.90194 4.99992L9.19323 8.29121C9.30416 8.39974 9.36921 8.5467 9.37496 8.70178C9.37496 8.88029 9.30405 9.05149 9.17782 9.17771C9.0516 9.30394 8.8804 9.37485 8.70189 9.37485C8.61611 9.37841 8.53053 9.36409 8.45058 9.33281C8.37063 9.30152 8.29806 9.25395 8.23748 9.19312L5.00003 5.92202L1.73567 9.18639C1.6788 9.24513 1.61086 9.29203 1.53577 9.32437C1.46068 9.35672 1.37993 9.37387 1.29817 9.37485C1.11967 9.37485 0.94847 9.30394 0.822246 9.17771C0.696022 9.05149 0.62511 8.88029 0.62511 8.70178C0.62354 8.61926 0.638851 8.5373 0.670101 8.46091C0.701351 8.38452 0.747881 8.31532 0.806837 8.25756L4.09813 4.99992L0.806837 1.70864C0.695906 1.60011 0.630857 1.45315 0.62511 1.29807C0.62511 1.11956 0.696022 0.94836 0.822246 0.822136C0.94847 0.695912 1.11967 0.625 1.29817 0.625C1.45971 0.627019 1.61452 0.692307 1.72894 0.806728Z" fill="black"/>
</svg>
