<svg viewBox="0 0 15 15" fill="none" xmlns="http://www.w3.org/2000/svg">
<path d="M7.50008 0.416748C3.583 0.416748 0.416748 3.583 0.416748 7.50008C0.416748 11.4172 3.583 14.5834 7.50008 14.5834C11.4172 14.5834 14.5834 11.4172 14.5834 7.50008C14.5834 3.583 11.4172 0.416748 7.50008 0.416748ZM7.50008 13.1667C4.37633 13.1667 1.83341 10.6238 1.83341 7.50008C1.83341 4.37633 4.37633 1.83341 7.50008 1.83341C10.6238 1.83341 13.1667 4.37633 13.1667 7.50008C13.1667 10.6238 10.6238 13.1667 7.50008 13.1667ZM10.043 3.95841L7.50008 6.50133L4.95716 3.95841L3.95841 4.95716L6.50133 7.50008L3.95841 10.043L4.95716 11.0417L7.50008 8.49883L10.043 11.0417L11.0417 10.043L8.49883 7.50008L11.0417 4.95716L10.043 3.95841Z" fill="#FB8A76"/>
</svg>
