<svg viewBox="0 0 12 15" fill="none" xmlns="http://www.w3.org/2000/svg">
    <path d="M6 -4.5C-0.9 -4.5 -6.5 1.1 -6.5 8C-6.5 14.9 -0.9 20.5 6 20.5C12.9 20.5 18.5 14.9 18.5 8C18.5 1.1 12.9 -4.5 6 -4.5Z" fill="#DADADA"/>
    <path d="M6 18C0.4875 18 -4 13.5125 -4 8C-4 2.4875 0.4875 -2 6 -2C11.5125 -2 16 2.4875 16 8C16 13.5125 11.5125 18 6 18Z" fill="#DADADA"/>
    <path d="M9.33333 15H2.66667C1.93029 15 1.33333 14.3284 1.33333 13.5V3.75H0V2.25H2.66667V1.5C2.66667 0.671573 3.26362 0 4 0H8C8.73638 0 9.33333 0.671573 9.33333 1.5V2.25H12V3.75H10.6667V13.5C10.6667 14.3284 10.0697 15 9.33333 15ZM2.66667 3.75V13.5H9.33333V3.75H2.66667ZM4 1.5V2.25H8V1.5H4ZM8 12H6.66667V5.25H8V12ZM5.33333 12H4V5.25H5.33333V12Z" fill="#FB8A76"/>
</svg>
