<svg viewBox="0 0 33 24" fill="none" xmlns="http://www.w3.org/2000/svg">
    <path
        d="M30.6002 0.800049H1.8002C1.37585 0.800049 0.968883 0.96862 0.668824 1.26868C0.368766 1.56874 0.200195 1.9757 0.200195 2.40005V8.80005H1.629C3.2226 8.80005 4.701 9.88965 4.957 11.4624C5.03498 11.9217 5.01181 12.3925 4.8891 12.8418C4.76639 13.2912 4.54709 13.7084 4.24651 14.0643C3.94592 14.4202 3.5713 14.7062 3.14878 14.9023C2.72627 15.0985 2.26603 15.2001 1.8002 15.2H0.200195V21.6C0.200195 22.0244 0.368766 22.4314 0.668824 22.7314C0.968883 23.0315 1.37585 23.2 1.8002 23.2H30.6002C31.0245 23.2 31.4315 23.0315 31.7316 22.7314C32.0316 22.4314 32.2002 22.0244 32.2002 21.6V15.2H30.6002C30.1344 15.2001 29.6741 15.0985 29.2516 14.9023C28.8291 14.7062 28.4545 14.4202 28.1539 14.0643C27.8533 13.7084 27.634 13.2912 27.5113 12.8418C27.3886 12.3925 27.3654 11.9217 27.4434 11.4624C27.6994 9.88965 29.1778 8.80005 30.7714 8.80005H32.2002V2.40005C32.2002 1.9757 32.0316 1.56874 31.7316 1.26868C31.4315 0.96862 31.0245 0.800049 30.6002 0.800049ZM11.4002 7.20005C11.8245 7.20005 12.2315 7.36862 12.5316 7.66868C12.8316 7.96874 13.0002 8.3757 13.0002 8.80005C13.0002 9.2244 12.8316 9.63136 12.5316 9.93142C12.2315 10.2315 11.8245 10.4 11.4002 10.4C10.9758 10.4 10.5689 10.2315 10.2688 9.93142C9.96877 9.63136 9.8002 9.2244 9.8002 8.80005C9.8002 8.3757 9.96877 7.96874 10.2688 7.66868C10.5689 7.36862 10.9758 7.20005 11.4002 7.20005ZM10.1202 17.44L19.7202 4.64005L22.2802 6.56005L12.6802 19.3601L10.1202 17.44ZM21.0002 16.8C20.5758 16.8 20.1689 16.6315 19.8688 16.3314C19.5688 16.0314 19.4002 15.6244 19.4002 15.2C19.4002 14.7757 19.5688 14.3687 19.8688 14.0687C20.1689 13.7686 20.5758 13.6 21.0002 13.6C21.4245 13.6 21.8315 13.7686 22.1316 14.0687C22.4316 14.3687 22.6002 14.7757 22.6002 15.2C22.6002 15.6244 22.4316 16.0314 22.1316 16.3314C21.8315 16.6315 21.4245 16.8 21.0002 16.8Z"
        fill="white" />
</svg>
