<svg xmlns="http://www.w3.org/2000/svg" viewBox="0 0 336 246">
    <g id="Layer_2">
        <g id="Dogs_Cats">
            <path d="M313.11,228.24l-.64.08c-.47.06,7-14.87,8.28-20.14h.17c5.91-.11,10.73-8.59,11.59-13.34C333.93,202.08,328.9,225.69,313.11,228.24Z"
                  fill="#fff"/>
            <path d="M320.65,187.46c6.58-.11,12,2.67,12,6.18a4.87,4.87,0,0,1-.14,1.2c-.86,4-5.68,11.07-11.59,11.16h-.17c-6.49,0-11.84-8.5-11.89-12a4,4,0,0,1,1-2.61,9.34,9.34,0,0,1,3.61-2.52A19.34,19.34,0,0,1,320.65,187.46Z"
                  fill="#5e4027"/>
            <path d="M305,136.08s5.94,2.48,2.56,6.11c-2.75,3-6.48,13.7-8,18.26a16.57,16.57,0,0,0-1.42-1.28,72,72,0,0,0-20.43-11.95C281.74,142.65,292.9,132,305,136.08Z"
                  fill="#808082"/>
            <path d="M92.65,214.2c4.61,15.35-36.42,30.74-39.54-19.58-.37-6-.64-11.44-.8-16.43,12,14.76,23.87,26.45,38.3,34.84h0C91.28,213.44,92,213.82,92.65,214.2Z"
                  fill="#fff"/>
            <path d="M48.47,51.43C47.12,49.88,37.55,38,52.21,28.29c0,0,9.42-25.78,27.56-19,1.06,1.07.8,3.73.8,3.73s22.92-9,36,4c0,0-28.25,4-37.84,14.64a17.65,17.65,0,0,0-4.19,16.82,38.93,38.93,0,0,0-5.32-.77,43.92,43.92,0,0,0-19.79,3.33c-.32.13-.63.25-.94.39Z"
                  fill="#fff"/>
            <path d="M313.11,222.79l-.35,6.53c-27.45,6.41-56.71,4.72-68.06,3.3,1.39,3-8.46-.83-10,1-4.48,5.29-75.08,5.78-92.76-5.58-20-1.73-35.78-6.39-49.27-13.84-.69-.38-1.37-.76-2-1.16h0c-14.43-8.39-26.34-20.08-38.3-34.84a1.09,1.09,0,0,1-.13-.17c-3.76-4.65-7.53-9.59-11.38-14.84-1,4.67-5.49,28.42,5.13,59.68,5.26,15.45-31.74,30.9-39.45-19.28-6.72-43.79-3.14-63.51,12.56-69,.53-.19.32-1.93.07-4.82l-.2-2.34c-7.58-18.84-7.12-35.47-.75-48.78,5.78-12.07,16.41-21.41,30.31-27.16.31-.14.62-.26.94-.39A43.92,43.92,0,0,1,69.2,47.72a38.93,38.93,0,0,1,5.32.77h0c20.28,4.37,31.23,23.77,31.23,23.77,6.18-2.66,10.2,3.81,12.06,13.26,1.82,9.26,8.4,22.32,8.66,22.87-.12-.53-2.27-10.11,4-9.27,2.49.33,2.79,3,8.05,14.92s15.78,19.24,15.78,19.24-2.16-9.28,2.17-10.61,14.55,7.29,19.19,11.93,24,10.25,24,10.25l.93-.12c2.3-6.55,5.66-11,9-6a87.05,87.05,0,0,0,6.76,8.45c7.25-.95,11.85,1.73,16,.11,0,0,7.11-6.91,9.54-12.86S248.31,125,252,131a6.81,6.81,0,0,1,.5,5.9c1.84-2.3,4.14-4.23,6.55-3.74,5.44,1.06,4,8-.37,10l1.35.27a61.88,61.88,0,0,1,17.58,3.79,72,72,0,0,1,20.43,11.95,16.57,16.57,0,0,1,1.42,1.28h0c3.49,3.45,6.78,9,9.45,15.28a88.84,88.84,0,0,1,4,11.48l.53,1.66a9.34,9.34,0,0,0-3.61,2.52,4,4,0,0,0-1,2.61c.05,3.49,5.4,12,11.89,12C319.44,210.42,312.43,222.88,313.11,222.79Z"
                  fill="#fff"/>
            <path d="M309,175.74l-.64,1.77s-2.87-6.61-9.33-7.9-9.91,8-15.51,6.89-15.8-15.22-29.87-6.61S239.53,190,243.41,198.47s-14.36,10.05-15.65,14.93c-1.24,4.67-.11,5.79,0,5.88a64.91,64.91,0,0,0-26.27-5.45c-14.79.14-13.2,2.58-16.22.14s-1.15-8.47-9-14.64-13.94-5.17-13.94-5.17a46.59,46.59,0,0,1-31.87-1.29c-16.52-7-23.11-10.92-21.11-14.22s7.9-5.17,7.9-5.17-9.19,0-22.26-12.2-12.06-18.1-10.34-19,8.05.3,8.05.3-15.8-9.48-18.67-17-3.59-20-10.34-26.42-25-1-32.73-5.31C23.51,89.83,17.67,82,18.16,78.6c5.78-12.07,16.41-21.41,30.31-27.16.31-.14.62-.26.94-.39A43.92,43.92,0,0,1,69.2,47.72a38.93,38.93,0,0,1,5.32.77h0c20.28,4.37,31.23,23.77,31.23,23.77,6.18-2.66,10.2,3.81,12.06,13.26,1.82,9.26,8.4,22.32,8.66,22.87-.12-.53-2.27-10.11,4-9.27,2.49.33,2.79,3,8.05,14.92s15.78,19.24,15.78,19.24-2.16-9.28,2.17-10.61,14.55,7.29,19.19,11.93,24,10.25,24,10.25l.93-.12c2.3-6.55,5.66-11,9-6a87.05,87.05,0,0,0,6.76,8.45c7.25-.95,11.85,1.73,16,.11,0,0,7.11-6.91,9.54-12.86S248.31,125,252,131a6.81,6.81,0,0,1,.5,5.9c1.84-2.3,4.14-4.23,6.55-3.74,5.44,1.06,4,8-.37,10l1.35.27a61.88,61.88,0,0,1,17.58,3.79,72,72,0,0,1,20.43,11.95,16.57,16.57,0,0,1,1.42,1.28h0C303,163.91,306.28,169.45,309,175.74Z"
                  fill="#808082"/>
            <ellipse cx="321.3" cy="189.71" rx="4.67" ry="2.3" fill="#fff"/>
            <path d="M54.81,48.35s-5-4.52-3.23-9.48,7.11-7.1,7.11-7.1a19.28,19.28,0,0,1,9-12.49c7.75-4.53,10.55-1.08,10.55-1.08S96,10.66,104.35,12s9.48,4.53,9.48,4.53S84.54,21.21,79.58,30.26A47.7,47.7,0,0,0,74,47.49l-15.72.65"
                  fill="#808082"/>
            <path d="M208.81,149.07a24.46,24.46,0,0,0-2.3,13.07c.72,7.61,8.61,17.52,11.48,18.09s4.74-6.6,4.74-6.6-4.59-.29-4.59-3,3.88-5.45,3.88-5.45l-7.76-9.48"
                  fill="#fff"/>
            <path d="M73.41,122.21s2.65,20.89-3.09,32.38-13,12.42-13,12.42,18.81,37.11,71.57,49.39c0,0,6.46-7.11,11-8s-1.94,4.95-2.59,9S139,227.81,139,227.81s-30.79-3.66-53.62-17.23-43.94-46.73-43.94-46.73,15.72-7.76,21.11-12.49,5.81-9.91,5.81-9.91"
                  opacity="0.25"/>
            <path d="M146.13,205.85s-8.25,15,5.67,20,76.82,6.74,79,3a7.08,7.08,0,0,0,.29-6.89s5.6,6,4.45,10.62-7.46,4.45-8.76,4.6-77.24-1-83.71-9.33-7.61-11.92-2.29-17.38"
                  opacity="0.25"/>
            <path d="M236.37,226s31,4.88,57.44,2l11.63,3.59s-51.12,4.45-68.21.29" opacity="0.25"/>
            <path d="M306.85,231.15c-19.58,0-42.48-8.18-50-23.4a2.15,2.15,0,0,1,3.86-1.9c7.3,14.83,32.94,22.67,52.29,20.68,4.22-.43,7.88-2.81,10.9-7.07,6-8.43,7.25-20.92,6.47-24.16a2.16,2.16,0,0,1,4.19-1c1.07,4.44-.48,18.23-7.15,27.66-3.76,5.33-8.46,8.31-14,8.88A65,65,0,0,1,306.85,231.15Z"/>
            <path d="M267.15,200.38a2.16,2.16,0,1,1-.08-4.31h.08c16.88,0,31.14-2.53,40.59-4.2a2.15,2.15,0,1,1,.75,4.24C298.9,197.81,284.41,200.38,267.15,200.38Z"/>
            <path d="M320.81,208.16c-7.61,0-14-9.3-14.11-14.11h0c0-2.54,1.57-4.84,4.53-6.48a22.08,22.08,0,0,1,18.86-.29c3,1.55,4.68,3.8,4.72,6.33,0,2.37-1.51,5.92-3.86,8.84-2.91,3.63-6.46,5.65-10,5.71ZM311,194c0,2.37,4.59,9.87,9.8,9.87h.08c3,0,5.49-2.59,6.71-4.1,2-2.52,2.92-5.07,2.9-6.07,0-.85-.91-1.81-2.39-2.57a17.74,17.74,0,0,0-14.79.23c-1.46.81-2.32,1.8-2.31,2.64Z"/>
            <path d="M254.93,213.69a2,2,0,0,1-.54-.07,2.16,2.16,0,0,1-1.54-2.63c1.76-6.79,7.39-8.4,10.11-8.28a2.16,2.16,0,0,1-.08,4.31.41.41,0,0,0-.11,0c-.63,0-4.49.2-5.75,5.06A2.16,2.16,0,0,1,254.93,213.69Z"/>
            <path d="M312.91,189.37a2.13,2.13,0,0,1-2.07-1.59c-3.25-12-8.79-22.6-14.12-26.95-11.32-9.23-23.7-14.37-36.8-15.25a2.16,2.16,0,1,1,.3-4.3c14,.95,27.19,6.4,39.23,16.22,7.26,5.91,12.79,18.94,15.54,29.16a2.15,2.15,0,0,1-1.51,2.64A2.22,2.22,0,0,1,312.91,189.37Z"/>
            <path d="M229.2,150a32.89,32.89,0,0,1-4.22-.38,29.92,29.92,0,0,0-8.35-.28,2.15,2.15,0,0,1-.56-4.27,33.8,33.8,0,0,1,9.5.28c2.24.3,4.06.55,5.58.09,1.38-1.4,6.77-7,8.72-11.8s4.66-7.59,7.6-7.84c1.67-.15,4.11.46,6.39,4.11,4.63,7.42-4.73,15.85-5.13,16.21a2.15,2.15,0,0,1-2.86-3.22c.07-.06,7-6.44,4.33-10.71-.85-1.37-1.76-2.16-2.37-2.1-.93.08-2.57,1.73-4,5.18-2.57,6.3-9.73,13.3-10,13.59a2.12,2.12,0,0,1-.71.46A10.44,10.44,0,0,1,229.2,150Z"/>
            <path d="M217.26,193.43A2.13,2.13,0,0,1,216,193c-12.44-8.81-21.18-23.91-20.34-35.12.5-6.63,3.67-21.69,9.84-23.31,1.25-.33,3.65-.38,5.86,2.92,5.21,7.8,21.17,23.59,21.33,23.75a2.15,2.15,0,1,1-3,3.06c-.67-.66-16.43-16.25-21.89-24.42-.63-.94-1.07-1.15-1.17-1.15-2.21.58-6,10.5-6.64,19.47-.73,9.67,7.41,23.41,18.53,31.29a2.15,2.15,0,0,1-1.25,3.91Z"/>
            <path d="M222.83,175h0c-.35,0-3.46-.08-5.2-1.88a4.1,4.1,0,0,1-1.17-3c.08-2.76,2.07-4.55,4.13-5.57-3.27-3.3-9.77-10.05-13-14.93a1.72,1.72,0,1,1,2.86-1.91c4.17,6.24,14.43,16.21,14.54,16.31a1.73,1.73,0,0,1-.86,2.93s-4.13.92-4.19,3.26a.68.68,0,0,0,.19.55,4.71,4.71,0,0,0,2.76.83,1.73,1.73,0,0,1,0,3.45Z"/>
            <path d="M299.5,162.61a2.37,2.37,0,0,1-.69-.11,2.16,2.16,0,0,1-1.35-2.73c3.53-10.47,6.31-16.69,8.5-19.05.31-.34.49-.65.45-.81-.11-.53-1.27-1.4-2.21-1.82-10.78-3.59-21,6.19-24.95,10.56a2.15,2.15,0,0,1-3.21-2.87c4.5-5,16.39-16.24,29.62-11.75l.14.06c.69.29,4.17,1.88,4.82,4.91a5.06,5.06,0,0,1-1.51,4.65c-.79.85-3.1,4.25-7.57,17.49A2.15,2.15,0,0,1,299.5,162.61Z"/>
            <path d="M258.72,145.31a2.16,2.16,0,0,1-.88-4.12,4.59,4.59,0,0,0,2.6-4.26c-.07-.58-.32-1.38-1.77-1.66-1.15-.24-2.73.82-4.45,3a2.15,2.15,0,0,1-3.37-2.68c2.86-3.59,5.77-5.12,8.67-4.53a6.12,6.12,0,0,1,5.2,5.4,8.86,8.86,0,0,1-5.11,8.68A2.16,2.16,0,0,1,258.72,145.31Z"/>
            <circle cx="267.4" cy="182.25" r="5.31"/>
            <circle cx="297.54" cy="181.79" r="5.31"/>
            <path d="M310.46,230a1.71,1.71,0,0,1-1.23-.52,1.73,1.73,0,0,1,0-2.44c5-4.88,8.21-15.95,9.59-20.67l.25-.84a1.72,1.72,0,0,1,3.3,1l-.24.82c-1.58,5.41-4.87,16.66-10.49,22.17A1.73,1.73,0,0,1,310.46,230Z"/>
            <path d="M141.92,230.2h-.18c-20.81-1.8-37.4-6.66-52.22-15.29l-.16-.1C76,207,64,196.05,50.5,179.37c-3.48-4.3-7.22-9.18-11.44-14.91a2.16,2.16,0,1,1,3.47-2.56c4.18,5.68,7.88,10.51,11.32,14.77,13.2,16.31,24.87,27,37.84,34.5l.15.1c14.22,8.24,30.19,12.89,50.27,14.63a2.15,2.15,0,0,1-.19,4.3Z"/>
            <path d="M264.58,236.44a259.62,259.62,0,0,1-29-1.43,2.15,2.15,0,1,1,.53-4.27c12.92,1.61,50.11,3.08,76.5-3.09a2.16,2.16,0,0,1,1,4.2C298.56,235.35,280.2,236.44,264.58,236.44Z"/>
            <path d="M18.91,129.53a2.16,2.16,0,0,1-2-1.35c-7.09-17.62-7.63-34.43-1.56-48.61C21.19,65.94,32.69,55.39,48.62,49a46.31,46.31,0,0,1,20.75-3.46c21.19,1.56,33.91,18.83,37.33,24.13a7.67,7.67,0,0,1,5.31.7c4.63,2.45,6.86,9.35,7.91,14.7,1.7,8.65,7.78,20.93,8.47,22.3l-3.84,2c-.72-1.44-7-14.21-8.85-23.42-1.22-6.18-3.3-10.45-5.7-11.72a3.72,3.72,0,0,0-3.41,0,2.16,2.16,0,0,1-2.72-.92c-.13-.22-12.62-21.82-34.83-23.46A42.14,42.14,0,0,0,50.21,53C35.37,59,24.69,68.72,19.31,81.27c-5.61,13.1-5.06,28.76,1.6,45.3a2.15,2.15,0,0,1-1.2,2.8A2,2,0,0,1,18.91,129.53Z"/>
            <path d="M199.71,147a2.13,2.13,0,0,1-.6-.09c-2-.59-20.05-5.89-24.94-10.78-6.78-6.78-14.74-12.1-17-11.4-1.47.45-1.4,5.07-.7,8.06a2.16,2.16,0,0,1-3.33,2.26c-.45-.32-11.07-7.79-16.52-20.14-1.35-3.07-2.38-5.51-3.2-7.48-1.58-3.8-2.54-6.09-3.17-6.17-1-.14-1.27.16-1.37.27-.87.95-.8,3.92-.29,6.28a2,2,0,0,1,.09.59,2.15,2.15,0,0,1-4.1.93,2,2,0,0,1-.17-.47c-.37-1.67-1.38-7.31,1.29-10.24A5.58,5.58,0,0,1,130.78,97c3.08.41,4,2.52,6.58,8.78.81,2,1.83,4.37,3.16,7.4a47.65,47.65,0,0,0,11.12,15.08c.05-3.14.92-6.63,4.23-7.64,6.47-2,18.91,10,21.34,12.47,3.49,3.49,17.86,8.18,23.1,9.69a2.16,2.16,0,0,1-.6,4.23Z"/>
            <path d="M202.74,239.38a269.36,269.36,0,0,1-39.4-2.73c-16-2.52-24.86-6.32-27-11.62-7-16.87,23.46-33,24.75-33.67a2.16,2.16,0,1,1,2,3.82c-7.87,4.12-27.3,17.21-22.77,28.21.62,1.5,3.28,4.43,14.1,7.1,27.71,6.85,74.93,4.85,78.71,1.68a4.85,4.85,0,0,0,.4-5.42c-1.46-2.93-9.25-12.33-48.46-10.26a2.15,2.15,0,0,1-.23-4.3c39.24-2.09,49.76,7,52.55,12.65a9.19,9.19,0,0,1-1,10.17c-2.68,3.17-16.73,4.09-28,4.32C206.45,239.36,204.6,239.38,202.74,239.38Z"/>
            <path d="M31.92,240a19.37,19.37,0,0,1-6-.95C19.57,237,8.31,229.7,4.35,203.91.87,181.26.2,165.51,2.23,154.33s6.93-18.13,15-21.4c0-.63-.11-1.53-.18-2.35l-.06-.67a2.15,2.15,0,1,1,4.29-.38l.06.66c.31,3.52.51,5.65-1.57,6.38C5.34,141.65,2.12,161,8.61,203.26c3.61,23.5,13.23,29.94,18.65,31.7a14.18,14.18,0,0,0,14.37-3.14c2.4-2.44,3.22-5.45,2.27-8.27-12-35.18-5.27-60.71-5-61.78A2.17,2.17,0,0,1,41,160.18c.51,0,12.77-.28,23.13-14.79s4.18-34.34,4.12-34.54a2.15,2.15,0,0,1,4.09-1.34c.29.89,7,22-4.7,38.39C58.17,161.15,47,163.82,42.75,164.36,41.56,170.18,38,192.93,48,222.17a12.25,12.25,0,0,1-3.27,12.67A17.93,17.93,0,0,1,31.92,240Z"/>
            <path d="M76.75,231.23A20.59,20.59,0,0,1,69,229.71c-6.08-2.46-16.5-10.28-18-35-.38-6.19-.64-11.58-.8-16.49a2.15,2.15,0,0,1,4.3-.14c.16,4.86.42,10.22.8,16.36,1,16.55,6.47,27.64,15.35,31.24a16.54,16.54,0,0,0,17.07-2.87c2.66-2.41,3.72-5.34,2.91-8a2.15,2.15,0,1,1,4.12-1.24c1.29,4.28-.26,8.93-4.13,12.46A21,21,0,0,1,76.75,231.23Z"/>
            <path d="M48.47,53.58a2.15,2.15,0,0,1-1.62-.73c-1-1.1-5.66-6.91-4.72-13.93.61-4.57,3.41-8.62,8.32-12,1.2-3,6.48-14.85,16-19.24a17.71,17.71,0,0,1,14.07-.36,2.18,2.18,0,0,1,.77.5,4.94,4.94,0,0,1,1.22,2.31C89.26,8,106.79,4.23,118.07,15.5a2.16,2.16,0,0,1-1.22,3.66c-.28,0-27.59,4-36.54,14A15.34,15.34,0,0,0,76.62,48,2.16,2.16,0,0,1,72.44,49a19.7,19.7,0,0,1,4.67-18.79c7.62-8.47,25.67-12.85,34.35-14.52C99.27,8.11,81.56,15,81.36,15a2.15,2.15,0,0,1-2.93-2.21,6.07,6.07,0,0,0-.11-1.75,13.22,13.22,0,0,0-10,.48c-9.1,4.19-14,17.34-14,17.47a2,2,0,0,1-.83,1.06c-4.18,2.78-6.54,6-7,9.41-.7,5.19,3,9.68,3.69,10.52a2.15,2.15,0,0,1-1.62,3.57Z"/>
            <rect width="336" height="246" fill="none"/>
        </g>
    </g>
</svg>