<svg width="31" height="41" viewBox="0 0 31 41" fill="none" xmlns="http://www.w3.org/2000/svg">
    <path d="M13.5958 37.7059C6.01264 37.0757 1.14551 33.4037 1.14551 30.2096L1.14551 9.24184C1.14551 5.74359 3.99191 2.89719 7.49016 2.89719L13.4872 2.89719V1.52831C13.4872 1.11547 13.8348 0.767822 14.2476 0.767822L17.6807 0.767822C18.0935 0.767822 18.4412 1.11547 18.4412 1.52831V2.87546H24.4382C27.9582 2.87546 30.7828 5.72186 30.7828 9.22011V30.1879C30.7828 33.4037 27.1325 37.1192 18.3326 37.7059C18.0066 37.7276 17.6807 37.7493 17.3548 37.7493L17.659 34.2293C20.8096 33.9686 24.0036 33.1429 27.2194 31.7958C28.0451 31.4481 28.5883 30.6442 28.5883 29.7533V11.0236C28.5883 9.80678 27.5888 8.80728 26.372 8.80728H5.57807C4.36129 8.80728 3.36179 9.80678 3.36179 11.0236L3.36179 29.8185C3.36179 30.6659 3.86154 31.4481 4.64376 31.8175C7.81608 33.295 11.0536 34.099 14.2911 34.2728L14.5518 37.7493C14.2476 37.7493 13.9217 37.7276 13.5958 37.7059ZM17.2679 2.57127V2.04979C17.2679 1.85423 17.1158 1.70214 16.9202 1.70214H15.0299C14.8343 1.70214 14.6822 1.85423 14.6822 2.04979V2.54954C14.6822 2.74509 14.8343 2.89719 15.0299 2.89719H16.9202C17.1158 2.89719 17.2679 2.74509 17.2679 2.57127Z"
          fill="#EEEFEF"/>
    <path d="M15.9855 16.3472C18.1801 16.3472 19.9835 18.1289 19.9835 20.3452C19.9835 22.5614 18.2018 24.3432 15.9855 24.3432C13.7693 24.3432 11.9875 22.5614 11.9875 20.3452C11.9875 18.1289 13.7693 16.3472 15.9855 16.3472ZM18.2018 21.1491V19.5195H16.7895V18.1072H15.1599V19.5195H13.7475V21.1491H15.1599V22.5614H16.7895V21.1491H18.2018Z"
          fill="white"/>
    <path d="M18.3547 37.7283C18.3981 37.8586 18.4416 37.989 18.4416 38.1411C18.4416 38.4453 18.3112 38.706 18.1157 38.9016C18.0505 38.9668 17.9853 39.0102 17.9201 39.0537C17.7463 39.1623 17.5507 39.2275 17.3334 39.2275H14.5957C14.3784 39.2275 14.1829 39.1623 14.009 39.0537C13.7048 38.8581 13.5093 38.5322 13.5093 38.1411C13.5093 37.989 13.531 37.8586 13.5962 37.7283C13.9221 37.75 14.248 37.7717 14.574 37.7935C15.0085 37.8152 15.4648 37.8369 15.9211 37.8369C16.4209 37.8369 16.8989 37.8369 17.3769 37.8152C17.7028 37.75 18.0505 37.75 18.3547 37.7283Z"
          fill="#EEEFEF"/>
    <path d="M18.2021 19.5425V21.1504H16.7898V22.5627H15.1601V21.1504H13.7478V19.5425H15.1601V18.1301H16.7898V19.5425H18.2021Z"
          fill="#E54256"/>
    <path d="M18.3764 39.8367C18.3764 40.0974 18.2678 40.3364 18.0939 40.4885C17.9201 40.6623 17.7028 40.771 17.4421 40.771H14.5088C13.9873 40.771 13.5745 40.3581 13.5745 39.8367C13.5745 39.5759 13.6831 39.3369 13.8569 39.1848C13.9004 39.1414 13.9656 39.0979 14.0308 39.0544C14.2046 39.1631 14.4001 39.2283 14.6174 39.2283H17.3769C17.5942 39.2283 17.7897 39.1631 17.9636 39.0544C18.2026 39.2065 18.3764 39.5107 18.3764 39.8367Z"
          fill="#EEEFEF"/>
    <path d="M28.5883 8.78598V29.7537C28.5883 30.6446 28.0451 31.4486 27.2194 31.7962C24.0037 33.1434 20.8096 33.969 17.659 34.2298L17.3765 37.7715C16.8985 37.7932 16.4205 37.7932 15.9207 37.7932C15.4645 37.7932 15.0082 37.7715 14.5736 37.7497L14.3129 34.2732C11.0536 34.0994 7.83784 33.3172 4.66551 31.8179C3.88329 31.4486 3.38354 30.6663 3.38354 29.8189L3.38354 8.78598C3.38354 7.5692 4.38304 6.5697 5.59983 6.5697L26.3938 6.5697C27.5888 6.5697 28.5883 7.5692 28.5883 8.78598ZM19.9622 20.3454C19.9622 18.1509 18.1805 16.3474 15.9642 16.3474C13.7479 16.3474 11.9662 18.1291 11.9662 20.3454C11.9662 22.5617 13.7479 24.3434 15.9642 24.3434C18.1805 24.3434 19.9622 22.54 19.9622 20.3454Z"
          fill="#E54256"/>
    <path opacity="0.15"
          d="M24.9379 2.89758C24.9379 2.89758 27.3932 3.61462 27.6974 7.24323C27.9798 10.8719 27.6974 31.2095 27.6974 31.2095C27.6974 31.2095 27.9147 32.448 26.8283 33.6648C25.7418 34.9033 22.9824 37.2934 17.333 37.5759V37.8583C17.333 37.8583 24.6772 37.5759 28.0885 34.7729C31.0218 32.3828 30.6524 30.9705 30.6524 30.9705V7.93854C30.6524 7.96027 29.8268 3.70153 24.9379 2.89758Z"
          fill="#232533"/>
    <path opacity="0.15"
          d="M1.29736 27.5598C1.29736 27.5598 1.51464 30.0586 2.27513 31.5144C3.03562 32.9701 8.90225 37.3375 13.5304 37.5765C13.5304 37.5765 5.88202 37.142 2.84007 33.4916C2.84007 33.4916 1.23218 31.8403 1.14526 30.8408"
          fill="#232533"/>
    <path opacity="0.15"
          d="M13.5307 37.683C13.5307 37.683 13.4873 38.1827 13.6611 38.3783C13.8349 38.5521 17.4201 38.4217 17.4201 38.4217C17.4201 38.4217 17.3983 39.0519 17.3332 39.1605C17.268 39.2691 17.4201 39.7906 17.4201 40.2469C17.4201 40.7032 17.4201 40.7032 17.4201 40.7032C17.4201 40.7032 17.8112 40.7901 18.1154 40.4642C18.3978 40.1383 18.4196 39.7689 18.4196 39.7689L18.1588 38.965C18.1588 38.965 18.2023 38.7042 18.2892 38.4869C18.3544 38.2696 18.2457 37.8134 18.2457 37.8134"
          fill="#232533"/>
    <path opacity="0.15"
          d="M7.90256 14.0231C9.17458 14.0231 10.2058 12.165 10.2058 9.873C10.2058 7.58096 9.17458 5.7229 7.90256 5.7229C6.63054 5.7229 5.59937 7.58096 5.59937 9.873C5.59937 12.165 6.63054 14.0231 7.90256 14.0231Z"
          fill="white"/>
    <path opacity="0.15"
          d="M7.92503 19.4111C8.76504 19.4111 9.44601 18.4285 9.44601 17.2165C9.44601 16.0045 8.76504 15.022 7.92503 15.022C7.08502 15.022 6.40405 16.0045 6.40405 17.2165C6.40405 18.4285 7.08502 19.4111 7.92503 19.4111Z"
          fill="white"/>
    <path d="M15.9643 24.5379C13.6394 24.5379 11.749 22.6475 11.749 20.3226C11.749 17.9977 13.6394 16.1073 15.9643 16.1073C18.2892 16.1073 20.1796 17.9977 20.1796 20.3226C20.1796 22.6475 18.2892 24.5379 15.9643 24.5379ZM15.9643 16.5636C13.8784 16.5636 12.1836 18.2584 12.1836 20.3443C12.1836 22.4302 13.8784 24.125 15.9643 24.125C18.0502 24.125 19.745 22.4302 19.745 20.3443C19.745 18.2584 18.0502 16.5636 15.9643 16.5636Z"
          fill="black"/>
    <path d="M16.7902 22.7772H15.1606C15.0303 22.7772 14.9433 22.6902 14.9433 22.5599V21.3648H13.7483C13.6179 21.3648 13.531 21.2779 13.531 21.1475V19.5179C13.531 19.3876 13.6179 19.3006 13.7483 19.3006H14.9433V18.1056C14.9433 17.9752 15.0303 17.8883 15.1606 17.8883H16.7902C16.9206 17.8883 17.0075 17.9752 17.0075 18.1056V19.3006H18.2026C18.3329 19.3006 18.4199 19.3876 18.4199 19.5179V21.1475C18.4199 21.2779 18.3329 21.3648 18.2026 21.3648H17.0075V22.5599C17.0075 22.6685 16.8989 22.7772 16.7902 22.7772ZM15.3779 22.3426H16.573V21.1475C16.573 21.0172 16.6599 20.9303 16.7902 20.9303H17.9853V19.7352H16.7902C16.6599 19.7352 16.573 19.6483 16.573 19.5179V18.3229H15.3779V19.5179C15.3779 19.6483 15.291 19.7352 15.1606 19.7352H13.9656V20.9303H15.1606C15.291 20.9303 15.3779 21.0172 15.3779 21.1475V22.3426Z"
          fill="black"/>
    <path d="M15.9207 38.0103C11.7923 38.0103 7.94645 37.1194 5.07832 35.5115C2.49266 34.034 0.928223 32.0567 0.928223 30.2098L0.928223 9.24208C0.928223 5.61346 3.88327 2.68015 7.49015 2.68015L13.2699 2.68015V1.52855C13.2699 0.985346 13.7044 0.550781 14.2476 0.550781L17.6807 0.550781C18.2239 0.550781 18.6585 0.985346 18.6585 1.52855V2.65842H24.4382C28.0668 2.65842 31.0001 5.61346 31.0001 9.22036V30.1881C31.0001 32.1654 29.6964 34.0992 27.415 35.4898C24.7424 37.1412 20.7661 38.0103 15.9207 38.0103ZM7.49015 3.11472C4.12228 3.11472 1.36279 5.85248 1.36279 9.24208L1.36279 30.2098C1.36279 33.6864 7.33806 37.5757 15.9207 37.5757C26.0026 37.5757 30.5873 33.7516 30.5873 30.2098V9.24208C30.5873 5.85248 27.8278 3.11472 24.4599 3.11472H18.4412C18.3108 3.11472 18.2239 3.0278 18.2239 2.89743V1.52855C18.2239 1.22436 17.9849 0.985346 17.6807 0.985346H14.2694C13.9652 0.985346 13.7262 1.22436 13.7262 1.52855V2.8757C13.7262 3.00607 13.6393 3.09299 13.5089 3.09299L7.49015 3.09299V3.11472Z"
          fill="black"/>
    <path d="M17.3768 37.9878C17.3768 37.9878 17.3551 37.9878 17.3768 37.9878C17.2464 37.9878 17.1595 37.8791 17.1595 37.7488L17.442 34.2288C17.442 34.1201 17.5289 34.0332 17.6375 34.0332C20.7012 33.7942 23.8953 32.9686 27.1328 31.6214C27.8933 31.3172 28.3713 30.5784 28.3713 29.7745V8.63291C28.3713 7.52476 27.4804 6.63391 26.3723 6.63391L5.57834 6.63391C4.4702 6.63391 3.57934 7.52476 3.57934 8.63291L3.57934 29.8397C3.57934 30.6219 4.03563 31.3172 4.73094 31.6431C7.83808 33.0989 11.0539 33.9029 14.3131 34.0767C14.4217 34.0767 14.5087 34.1636 14.5087 34.2722L14.7694 37.7488C14.7694 37.8791 14.6825 37.966 14.5738 37.9878C14.4435 37.9878 14.3566 37.9009 14.3348 37.7922L14.0741 34.5113C10.8366 34.3157 7.6208 33.49 4.53538 32.056C3.68798 31.6649 3.14478 30.7957 3.14478 29.8614L3.14478 8.63291C3.14478 7.28575 4.23119 6.19934 5.57834 6.19934L26.3723 6.19934C27.7194 6.19934 28.8058 7.28575 28.8058 8.63291V29.7745C28.8058 30.7523 28.2192 31.6431 27.3066 32.0125C24.0908 33.3597 20.9185 34.1636 17.8548 34.4461L17.5941 37.7922C17.5723 37.9009 17.4854 37.9878 17.3768 37.9878Z"
          fill="black"/>
    <path d="M17.3547 39.4221H14.5952C13.8782 39.4221 13.2915 38.8355 13.2915 38.1184C13.2915 37.9446 13.335 37.7708 13.4001 37.6187C13.4436 37.5101 13.574 37.4666 13.6826 37.5101C13.7913 37.5535 13.8347 37.6839 13.7913 37.7925C13.7478 37.9012 13.7261 38.0098 13.7261 38.1402C13.7261 38.6182 14.1172 39.0093 14.5952 39.0093H17.3547C17.5937 39.0093 17.811 38.9224 17.9631 38.7486C18.1369 38.5965 18.2238 38.3575 18.2238 38.1402C18.2238 38.0315 18.2021 37.9229 18.1586 37.8143C18.1152 37.7056 18.1586 37.5752 18.289 37.5318C18.3976 37.4883 18.528 37.5318 18.5715 37.6622C18.6367 37.8143 18.6584 37.9881 18.6584 38.1402C18.6584 38.4878 18.528 38.8138 18.2673 39.0528C18.0283 39.2918 17.7023 39.4221 17.3547 39.4221Z"
          fill="black"/>
    <path d="M16.9201 3.1146H15.0298C14.7256 3.1146 14.4648 2.87559 14.4648 2.54967V2.04992C14.4648 1.74572 14.7039 1.48499 15.0298 1.48499H16.9201C17.2243 1.48499 17.4851 1.724 17.4851 2.04992V2.54967C17.4851 2.87559 17.2243 3.1146 16.9201 3.1146ZM15.0298 1.94128C14.9646 1.94128 14.8994 2.00646 14.8994 2.07165V2.5714C14.8994 2.63658 14.9646 2.70177 15.0298 2.70177H16.9201C16.9853 2.70177 17.0505 2.63658 17.0505 2.5714V2.04992C17.0505 1.98474 16.9853 1.91955 16.9201 1.91955H15.0298V1.94128Z"
          fill="black"/>
    <path d="M17.4416 40.9867H14.5083C13.8782 40.9867 13.3567 40.4652 13.3567 39.8351C13.3567 39.5309 13.4871 39.2267 13.7043 39.0094C13.7695 38.9442 13.8347 38.879 13.9216 38.8356C14.0303 38.7704 14.1606 38.8138 14.2258 38.9225C14.291 39.0311 14.2475 39.1615 14.1389 39.2267C14.0954 39.2484 14.052 39.2919 14.0085 39.3353C13.8782 39.4657 13.7913 39.6612 13.7913 39.8351C13.7913 40.2262 14.1172 40.5521 14.5083 40.5521H17.4416C17.6372 40.5521 17.811 40.4869 17.9414 40.3348C18.0717 40.2044 18.1586 40.0089 18.1586 39.8351C18.1586 39.5743 18.0283 39.357 17.811 39.2267C17.7023 39.1615 17.6806 39.0311 17.7458 38.9225C17.811 38.8138 17.9414 38.7921 18.05 38.8573C18.3976 39.0746 18.5932 39.444 18.5932 39.8351C18.5932 40.1393 18.4628 40.4217 18.2455 40.6607C18.0283 40.878 17.7458 40.9867 17.4416 40.9867Z"
          fill="black"/>
</svg>
