<svg width="109" height="125" viewBox="0 0 109 125" fill="none" xmlns="http://www.w3.org/2000/svg">
<path d="M15.3098 36.2731L14.9798 35.3531C14.9798 35.3531 6.65981 6.65306 15.9598 2.52306C24.3498 -1.14694 35.7498 17.9231 37.9798 21.7931C48.5298 18.7831 59.7398 18.8433 70.2898 21.9933C72.1898 18.6533 83.9198 -1.26676 92.4398 2.46324C101.75 6.52324 93.4198 35.2931 93.4198 35.2931L93.1598 36.2731C96.5698 41.1831 101.81 48.9232 101.81 50.9532C101.81 53.9032 95.9098 56.0631 95.9098 56.0631C95.9098 56.0631 108.82 67.6629 105.94 72.3829C103.97 75.6629 91.3298 72.6432 91.3298 72.6432C91.3298 72.6432 93.2998 78.8032 92.4398 80.7032C91.9798 81.6232 89.1598 81.4932 86.3498 81.1632C86.3498 81.1632 85.8898 89.0229 88.1198 92.6329C89.8198 95.4529 96.3098 106.653 91.5898 112.353H64.3298H44.0798H16.8198C12.0998 106.653 18.5898 95.3829 20.2898 92.6329C22.4498 89.0329 22.0598 81.1632 22.0598 81.1632C19.2398 81.5532 16.3598 81.6232 15.9698 80.7032C15.1198 78.8032 17.0798 72.6432 17.0798 72.6432C17.0798 72.6432 4.42979 75.5929 2.46979 72.3829C-0.410214 67.6629 12.4998 56.0631 12.4998 56.0631C12.4998 56.0631 6.59979 53.9032 6.59979 50.9532C6.65979 48.9932 11.8998 41.1931 15.3098 36.2731Z" fill="#F8BF8D"/>
<path d="M80 81C80 81 80 87.88 86.88 88.54V81.46" fill="#AD8767"/>
<path d="M64.3896 112.423H91.6496C90.3396 114.063 88.1096 115.243 84.5696 115.633C71.9896 117.203 65.3696 116.023 64.3896 112.423Z" fill="#00AEEF"/>
<path d="M16.9502 112.423H44.2102C43.2302 116.023 36.6102 117.203 24.0302 115.633C20.4902 115.243 18.2602 114.063 16.9502 112.423Z" fill="#00AEEF"/>
<path d="M13.21 23.1035C13.21 23.1035 16.2899 28.1537 19.5699 31.4937C19.5699 31.4937 17.6 36.2136 15.64 34.9636C13.67 33.7236 13.4799 30.3735 13.4799 30.3735" fill="#AD8767"/>
<path opacity="0.35" d="M65.6398 63.4031C65.6398 63.4031 63.9998 65.303 61.8998 65.823C59.8698 66.343 54.5598 62.873 54.5598 62.873L54.4298 63.073L54.2998 62.873C54.2998 62.873 48.9898 66.343 46.9598 65.823C44.9298 65.303 43.2198 63.4031 43.2198 63.4031L41.7798 61.833C41.7798 62.223 41.9098 68.9131 48.0698 68.9731C51.4798 68.9731 53.3798 67.923 54.4298 66.873C55.4798 67.923 57.3798 68.9731 60.7898 68.9731C66.9498 68.9031 67.0798 62.293 67.0798 61.833L65.6398 63.4031Z" fill="black"/>
<path opacity="0.35" d="M45.1899 112.753C46.0399 121.473 34.5699 120.423 25.6599 119.173C17.0799 117.993 15.96 112.753 15.96 112.753" fill="#414042"/>
<path opacity="0.35" d="M63.34 112.753C62.49 121.473 73.9601 120.423 82.8701 119.173C91.4501 117.993 92.5701 112.753 92.5701 112.753" fill="#414042"/>
<path opacity="0.35" d="M14.65 39.2227C14.65 39.2227 10.39 49.5725 11.9 51.8025C13.41 53.9625 15.5001 52.9127 15.6401 54.2227C15.7701 55.5327 12.6901 57.9626 12.6901 57.9626C12.6901 57.9626 12.5601 55.6726 11.1801 54.8826C9.74007 54.0926 5.28008 50.4926 6.72008 48.6526" fill="#231F20"/>
<path opacity="0.35" d="M6.32999 64.7129C6.32999 64.7129 3.25 68.5128 6 69.6228C8.75 70.7328 16.62 68.3126 18.58 68.9626C20.55 69.6226 18.25 74.533 18.25 74.533C18.25 74.533 16.61 73.093 16.28 73.093C15.95 73.093 3.37 76.3726 2 72.9626" fill="#231F20"/>
<path d="M35.5 80.4999C37.5 78.4999 45 80 45 80L36.5 104.055L28 102.555C28 102.555 29.5 93.9999 31 89.9999C32.5 85.9999 33.5 82.4999 35.5 80.4999Z" fill="#AD8767"/>
<path d="M34.8802 50.8325C37.0502 50.8325 38.8102 49.0726 38.8102 46.9026C38.8102 44.7326 37.0502 42.9727 34.8802 42.9727C32.7102 42.9727 30.9502 44.7326 30.9502 46.9026C30.9502 49.0726 32.7102 50.8325 34.8802 50.8325Z" fill="black"/>
<path d="M15.0496 35.3532C15.0496 35.3532 6.72963 6.65314 16.0296 2.52314C24.4196 -1.14686 35.8196 17.9232 38.0496 21.7932" stroke="black" stroke-width="3.2765" stroke-miterlimit="10" stroke-linecap="round" stroke-linejoin="round"/>
<path d="M33.98 23.1729C46.82 18.3929 60.91 18.3929 73.76 23.1729" stroke="black" stroke-width="3.2765" stroke-miterlimit="10" stroke-linecap="round" stroke-linejoin="round"/>
<path d="M18.2599 32.2129C18.2599 32.2129 6.65985 48.0029 6.65985 50.9529C6.65985 53.9029 12.5598 56.0627 12.5598 56.0627C12.5598 56.0627 -0.350156 67.6626 2.52984 72.4426C4.49984 75.7226 17.1399 72.7029 17.1399 72.7029C17.1399 72.7029 15.1698 78.8629 16.0298 80.7629C16.8898 82.6629 27.8199 80.2429 27.8199 80.2429" stroke="black" stroke-width="3.2765" stroke-miterlimit="10" stroke-linecap="round" stroke-linejoin="round"/>
<path d="M73.7098 50.8325C75.8798 50.8325 77.6398 49.0726 77.6398 46.9026C77.6398 44.7326 75.8798 42.9727 73.7098 42.9727C71.5398 42.9727 69.7798 44.7326 69.7798 46.9026C69.7798 49.0726 71.5398 50.8325 73.7098 50.8325Z" fill="black"/>
<path d="M70.3496 22.0528C72.2496 18.7128 83.9796 -1.20719 92.4996 2.52281C101.81 6.58281 93.4796 35.3529 93.4796 35.3529" stroke="black" stroke-width="3.2765" stroke-miterlimit="10" stroke-linecap="round" stroke-linejoin="round"/>
<path d="M90.3398 32.2129C90.3398 32.2129 101.94 48.0029 101.94 50.9529C101.94 53.9029 96.0398 56.0627 96.0398 56.0627C96.0398 56.0627 108.95 67.6626 106.07 72.4426C104.1 75.7226 91.4598 72.7029 91.4598 72.7029C91.4598 72.7029 93.4298 78.8629 92.5698 80.7629C91.7198 82.6629 80.7798 80.2429 80.7798 80.2429" stroke="black" stroke-width="3.2765" stroke-miterlimit="10" stroke-linecap="round" stroke-linejoin="round"/>
<path d="M62.2897 53.7031C62.2897 56.0631 58.7497 60.583 54.3597 60.583C49.9697 60.583 46.4297 56.0631 46.4297 53.7031C46.4297 51.3431 49.9697 51.083 54.3597 51.083C58.7497 51.083 62.2897 51.3531 62.2897 53.7031Z" fill="black"/>
<path d="M43.0898 61.3726C43.0898 61.3726 44.0699 65.5625 48.7299 65.5625C54.6299 65.5625 54.3699 58.8125 54.3699 58.8125" stroke="black" stroke-width="3.2765" stroke-miterlimit="10" stroke-linecap="round" stroke-linejoin="round"/>
<path d="M65.6401 61.3726C65.6401 61.3726 64.6601 65.5625 60.0001 65.5625C54.1001 65.5625 54.3601 58.8125 54.3601 58.8125" stroke="black" stroke-width="3.2765" stroke-miterlimit="10" stroke-linecap="round" stroke-linejoin="round"/>
<path d="M54.2999 53.5732C55.5999 53.5732 56.6599 53.1633 56.6599 52.6533C56.6599 52.1433 55.5999 51.7334 54.2999 51.7334C52.9999 51.7334 51.9399 52.1433 51.9399 52.6533C51.9399 53.1633 52.9999 53.5732 54.2999 53.5732Z" fill="white"/>
<path d="M49.2516 88.2131C49.2516 88.2131 40.4797 84.5124 37.1902 92.0508C34.5176 98.15 31.2966 101.234 31.091 102.879C30.8854 104.523 30.6113 110.76 35.4085 112.336C38.2867 113.295 43.5636 114.871 43.5636 114.871L46.5789 121.519C46.5789 121.519 47.4013 123.78 48.5663 123.095C50.2796 122.136 56.8585 118.846 56.8585 118.846L65.0136 121.245C65.0136 121.245 69.1254 122.41 70.359 118.915C71.5925 115.42 74.9505 107.196 74.9505 107.196C74.9505 107.196 81.3238 94.8605 71.5925 91.2284L49.2516 88.2131Z" fill="#EA8788" stroke="#000102" stroke-width="2.5503" stroke-miterlimit="10"/>
<path d="M47.5385 81.9083C47.5385 81.9083 38.7666 78.2076 35.4771 85.746C32.8044 91.8452 31.5023 99.315 31.2967 100.96C31.0912 102.604 31.5023 105.277 34.8603 106.922C37.533 108.224 41.6448 109.32 41.6448 109.32L44.9343 115.214C44.9343 115.214 46.0993 117.476 46.9217 116.79C48.4979 115.625 55.2139 112.541 55.2139 112.541L63.3005 114.871C63.3005 114.871 67.4123 116.036 68.6458 112.541C69.8794 109.046 73.443 99.0409 73.443 99.0409C73.443 99.0409 77.2121 92.1193 68.5773 88.4872L47.5385 81.9083Z" fill="#F1A4A9" stroke="#000102" stroke-width="2.5503" stroke-miterlimit="10"/>
<path d="M53.9116 92.7361C53.9116 92.7361 52.7466 89.4466 49.1145 89.6522C45.5509 89.8578 43.7006 93.2158 44.3174 96.0941C45.0027 98.9723 49.3886 105.483 49.3886 105.483C49.3886 105.483 56.5158 105.209 60.4905 101.234C64.4653 97.2591 61.1073 89.3781 53.9116 92.7361Z" fill="white"/>
<path d="M86.4098 81.1631C86.4098 81.1631 85.9498 89.0228 88.1798 92.6328C90.3398 96.2328 100.5 113.663 84.6398 115.633C68.7798 117.603 62.4298 115.243 64.7798 109.143C67.2098 103.053 78.9998 102.463 81.0298 103.903" fill="white"/>
<path d="M86.4098 81.1631C86.4098 81.1631 85.9498 89.0228 88.1798 92.6328C90.3398 96.2328 100.5 113.663 84.6398 115.633C68.7798 117.603 62.4298 115.243 64.7798 109.143C67.2098 103.053 78.9998 102.463 81.0298 103.903" fill="#F8BF8D"/>
<path d="M86.4098 81.1631C86.4098 81.1631 85.9498 89.0228 88.1798 92.6328C90.3398 96.2328 100.5 113.663 84.6398 115.633C68.7798 117.603 62.4298 115.243 64.7798 109.143C67.2098 103.053 78.9998 102.463 81.0298 103.903" stroke="black" stroke-width="3.2765" stroke-miterlimit="10" stroke-linecap="round" stroke-linejoin="round"/>
<path d="M22.1899 81.1631C22.1899 81.1631 22.6499 89.0228 20.4199 92.6328C18.1899 96.2328 8.09994 113.663 23.9599 115.633C39.8199 117.603 46.1699 115.243 43.7499 109.143C41.3299 103.053 29.5299 102.463 27.4999 103.903" fill="#F8BF8D"/>
<path d="M22.1899 81.1631C22.1899 81.1631 22.6499 89.0228 20.4199 92.6328C18.1899 96.2328 8.09994 113.663 23.9599 115.633C39.8199 117.603 46.1699 115.243 43.7499 109.143C41.3299 103.053 29.5299 102.463 27.4999 103.903" stroke="black" stroke-width="3.2765" stroke-miterlimit="10" stroke-linecap="round" stroke-linejoin="round"/>
</svg>
