<svg width="45" height="139" viewBox="0 0 45 139" fill="none" xmlns="http://www.w3.org/2000/svg">
<path d="M12.9259 119.038C12.9259 119.038 8.56577 116.738 5.07577 120.568C1.58577 124.388 2.83576 129.618 6.31576 132.038C9.80576 134.458 20.6458 137.008 20.6458 137.008C20.6458 137.008 27.6259 129.618 27.9959 121.588C28.3659 113.558 17.1659 108.338 12.9259 119.038Z" fill="#F1A4A9" stroke="#000102" stroke-width="2" stroke-miterlimit="10"/>
<path d="M7.00586 129.928C7.00586 129.928 20.1659 131.058 24.0059 127.998C24.0059 127.998 22.3956 132.408 19.5356 133.998C19.5356 133.998 11.4759 132.758 7.00586 129.928Z" fill="#EA8788"/>
<path d="M19.4464 10.3324C19.4464 10.3324 20.9265 2.00241 29.7665 1.08241C38.6165 0.152412 44.3965 7.25243 43.9765 14.3524C43.5565 21.4424 35.6565 38.7224 35.6565 38.7224C35.6565 38.7224 18.2865 40.8824 7.02652 33.1724C-4.23348 25.4424 0.496441 5.39241 19.4464 10.3324Z" fill="#F1A4A9" stroke="#000102" stroke-width="2" stroke-miterlimit="10"/>
<path d="M39.9961 13.9922C39.9961 13.9922 27.9661 32.6422 18.9961 34.5522C18.9961 34.5522 27.446 37.2622 32.816 35.2522C32.826 35.1422 39.4661 22.9122 39.9961 13.9922Z" fill="#EA8788"/>
</svg>
