<svg width="121" height="120" viewBox="0 0 121 120" fill="none" xmlns="http://www.w3.org/2000/svg">
<rect width="120" height="120" transform="translate(0.5)" fill="white"/>
<path opacity="0.2" d="M78.5924 44.1588C84.4349 45.1026 94.542 44.7031 88.2308 35.5546C80.3417 24.119 98.3524 39.3813 100.293 35.1124C102.234 30.8434 88.3239 17.7179 97.0743 21.6817C104.075 24.8527 109.101 28.0344 110.74 29.2288" stroke="#FD997A" stroke-width="4" stroke-linecap="round" stroke-linejoin="round"/>
<circle opacity="0.8" cx="93.1332" cy="71.6332" r="2.27235" transform="rotate(-10.0236 93.1332 71.6332)" fill="#D9E6F2"/>
<circle opacity="0.2" cx="30.5558" cy="79.0556" r="3.5" transform="rotate(-10.0236 30.5558 79.0556)" fill="#FD997A"/>
<path opacity="0.8" d="M20.8579 41.9305C14.0618 42.1682 8.01153 44.3963 5.52601 50.0031C2.63991 56.5136 8.71849 60.911 14.4245 61.543C19.0846 62.0592 25.0432 61.3346 27.7947 57.1112C28.8234 55.5321 28.387 53.3504 26.5654 52.6638C24.2031 51.7734 19.5607 52.6277 17.6314 56.294C15.7021 59.9603 16.7441 64.8065 22.3021 67.0799C26.2972 68.2009 30.5899 67.4484 35.873 64.9307" stroke="#D9E6F2" stroke-width="4" stroke-linecap="round" stroke-linejoin="round"/>
<path opacity="0.6" d="M87.0083 77.8767C92.0407 85.4695 99.6162 89.2006 108.297 90.779" stroke="#F7D557" stroke-width="4" stroke-linecap="round" stroke-linejoin="round"/>
<path d="M60.5002 88.9994C75.3658 88.9994 87.4168 76.9484 87.4168 62.0827C87.4168 47.2171 75.3658 35.1661 60.5002 35.1661C45.6345 35.1661 33.5835 47.2171 33.5835 62.0827C33.5835 76.9484 45.6345 88.9994 60.5002 88.9994Z" fill="#F4900C"/>
<path d="M60.5002 85.8333C75.3658 85.8333 87.4168 73.7823 87.4168 58.9167C87.4168 44.051 75.3658 32 60.5002 32C45.6345 32 33.5835 44.051 33.5835 58.9167C33.5835 73.7823 45.6345 85.8333 60.5002 85.8333Z" fill="#FFCC4D"/>
<path d="M60.5002 82.6682C72.7425 82.6682 82.6668 72.7438 82.6668 60.5015C82.6668 48.2592 72.7425 38.3348 60.5002 38.3348C48.2579 38.3348 38.3335 48.2592 38.3335 60.5015C38.3335 72.7438 48.2579 82.6682 60.5002 82.6682Z" fill="#FFE8B6"/>
<path d="M60.5002 81.0824C72.7425 81.0824 82.6668 71.1581 82.6668 58.9158C82.6668 46.6734 72.7425 36.7491 60.5002 36.7491C48.2579 36.7491 38.3335 46.6734 38.3335 58.9158C38.3335 71.1581 48.2579 81.0824 60.5002 81.0824Z" fill="#FFAC33"/>
<path d="M54.3357 61.3591C56.6713 61.3591 58.5982 59.4712 58.5982 57.1161C58.5982 54.7611 56.6713 52.8536 54.3357 52.8536C51.9807 52.8536 50.0732 54.7611 50.0732 57.1161C50.0732 59.4712 51.9807 61.3591 54.3357 61.3591ZM54.3357 56.0846C54.9002 56.0846 55.3673 56.5517 55.3673 57.1161C55.3673 57.6806 54.9002 58.1282 54.3357 58.1282C53.7713 58.1282 53.3236 57.6806 53.3236 57.1161C53.3236 56.5517 53.7713 56.0846 54.3357 56.0846ZM65.7024 68.6774C68.038 68.6774 69.9649 66.7894 69.9649 64.4344C69.9649 62.0793 68.038 60.1719 65.7024 60.1719C63.3473 60.1719 61.4399 62.0793 61.4399 64.4344C61.4399 66.7894 63.3473 68.6774 65.7024 68.6774ZM65.7024 63.4028C66.2668 63.4028 66.7339 63.8699 66.7339 64.4344C66.7339 64.9988 66.2668 65.4465 65.7024 65.4465C65.1379 65.4465 64.6903 64.9988 64.6903 64.4344C64.6903 63.8699 65.1379 63.4028 65.7024 63.4028ZM67.3568 53.5154C67.4735 53.3597 67.3568 53.1456 67.1621 53.1456H63.8728C63.5809 53.1456 63.3084 53.3013 63.1332 53.5154L52.7397 67.9572C52.6229 68.113 52.7397 68.3271 52.9344 68.3271H56.2237C56.5156 68.3271 56.7881 68.1713 56.9633 67.9572L67.3568 53.5154Z" fill="#FFD983"/>
</svg>
