<svg width="595" height="188" viewBox="0 0 595 188" fill="none" xmlns="http://www.w3.org/2000/svg">
    <g clip-path="url(#clip0_23_505)">
        <path d="M78 176H456V188H278.059H78V176Z" fill="#FFF4EF"/>
        <path d="M289.804 110.724C285.322 110.813 281.394 109.538 278.101 107.711L277.916 108.441C277.916 108.441 272.252 140.183 292.544 138.54C306.988 137.354 299.582 108.168 299.582 108.168V107.895C297.573 109.443 294.827 110.452 291.082 110.724C290.624 110.724 290.167 110.724 289.804 110.724ZM218.221 14.5835C246.098 -3.29222 281.94 -3.47618 309.913 14.1268C314.21 13.2134 324.541 11.8495 333.683 17.1399C345.564 23.9781 355.437 57.0908 345.38 59.8312C341.725 60.8334 337.338 58.8289 333.04 55.359C337.885 63.0219 351.051 88.5605 331.763 116.294L331.947 116.383C331.947 116.383 337.707 120.76 334.967 127.877L335.424 128.061C335.424 128.061 350.237 140.83 349.868 157.431C349.684 164.269 347.586 170.841 344.204 175.947H312.665H213.924H182.385C179.003 170.841 176.899 164.269 176.721 157.431C176.263 140.83 191.164 128.061 191.164 128.061L191.622 127.877C188.876 120.855 194.635 116.383 194.635 116.383L194.82 116.294C175.532 88.5669 188.698 63.0219 193.542 55.359C189.244 58.8226 184.858 60.8334 181.202 59.8312C171.145 57.0971 181.018 24.0733 192.9 17.1399C203.873 10.5682 217.128 14.3108 218.221 14.5835Z"
              fill="#F4C698"/>
        <path d="M324.299 95.7666C311.356 94.333 297.624 93.2736 283.18 92.7535C253.434 91.6814 226.212 93.1024 202.074 95.7666C199.384 95.7666 197.172 97.9741 197.172 100.657C197.172 103.347 199.378 105.548 202.074 105.548C221.521 102.617 244.534 100.581 270.358 101.032C290.294 101.381 308.4 103.15 324.306 105.548C326.995 105.548 327.001 95.7666 324.299 95.7666Z"
              fill="#8FC5F2" stroke="black" stroke-width="2" stroke-miterlimit="10"/>
        <path d="M312.475 175.948H344.013C338.527 184.34 329.754 189.085 320.428 186.16C314.757 184.245 312.564 180.42 312.475 175.948Z"
              fill="#00AEEF"/>
        <path d="M182.207 175.948H213.746C213.746 180.508 211.552 184.34 205.793 186.16C196.466 189.085 187.687 184.245 182.207 175.948Z"
              fill="#00AEEF"/>
        <path d="M304.884 71.687C296.289 60.4655 267.497 54.4456 263.561 53.3545C263.561 53.3545 230.472 60.3767 221.788 71.687C212.461 83.7268 222.703 111.46 236.594 111.004C236.594 111.004 239.429 119.941 262.373 120.487C262.646 120.487 263.015 120.487 263.288 120.487C263.561 120.487 263.93 120.487 264.204 120.487C287.058 120.03 289.982 111.004 289.982 111.004C303.969 111.454 314.21 83.7268 304.884 71.687Z"
              fill="#5B4B3B"/>
        <path d="M289.804 110.724C290.167 110.724 290.625 110.724 290.993 110.636C294.744 110.363 297.484 109.361 299.493 107.807V108.079C299.493 108.079 306.899 137.265 292.455 138.452C272.163 140.095 277.827 108.352 277.827 108.352L278.012 107.623C281.394 109.633 285.234 110.82 289.804 110.724Z"
              fill="#FFA6CF"/>
        <path d="M214.019 13.6701C214.019 13.6701 216.765 14.1268 216.028 14.7675C215.297 15.4082 214.934 24.3461 211.457 33.0112C207.986 41.6763 187.693 66.7582 178.094 59.2793C168.494 51.8004 184.496 16.2265 200.217 13.0358"
              fill="#5B4B3B"/>
        <path d="M312.29 13.6701C312.29 13.6701 309.544 14.1268 310.275 14.7675C311.006 15.4082 311.375 24.3461 314.846 33.0112C318.317 41.6763 338.616 66.7582 348.209 59.2793C357.809 51.8004 341.807 16.2265 326.086 13.0358"
              fill="#5B4B3B"/>
        <path d="M211.915 32.3705C211.915 32.3705 209.899 56.7229 189.06 65.9399L192.9 55.7206" fill="#B58054"/>
        <path d="M204.146 152.502C204.146 152.502 219.505 157.793 224.439 173.48H213.014" fill="#B58054"/>
        <path opacity="0.45"
              d="M222.608 104.889C222.608 104.889 223.339 112.183 235.863 115.197C248.387 118.21 260.999 105.161 263.472 95.126C263.472 95.126 253.142 110.357 241.718 110.636C230.287 110.908 227.274 107.445 227.274 107.445"
              fill="#231F20"/>
        <path d="M314.668 32.3705C314.668 32.3705 316.677 56.7229 337.522 65.9399L333.683 55.7206" fill="#B58054"/>
        <path opacity="0.45"
              d="M303.969 104.889C303.969 104.889 303.237 112.183 290.714 115.197C278.19 118.21 265.577 105.161 263.104 95.126C263.104 95.126 273.434 110.357 284.865 110.636C296.289 110.908 299.309 107.445 299.309 107.445"
              fill="#231F20"/>
        <path d="M265.119 155.515C289.251 154.786 300.313 145.207 300.313 145.207L292.176 146.482L263.746 151.589L235.221 146.482L227.083 145.207C227.083 145.207 238.145 154.786 262.277 155.515C262.735 155.515 263.193 155.515 263.651 155.515C264.204 155.515 264.661 155.515 265.119 155.515Z"
              fill="#B58054"/>
        <path opacity="0.45"
              d="M225.627 86.0992C225.627 86.0992 223.53 104.527 236.142 104.984C248.755 105.44 260.186 92.3983 262.195 85.5537C262.195 85.5537 263.568 89.8419 262.652 93.1278C261.737 96.5025 248.94 116.389 232.029 109.817C215.119 103.252 223.619 88.8396 223.619 88.8396"
              fill="#231F20"/>
        <path opacity="0.45"
              d="M301.502 86.0992C301.502 86.0992 303.606 104.527 290.987 104.984C278.374 105.44 266.944 92.3983 264.935 85.5537C264.935 85.5537 263.561 89.8419 264.477 93.1278C265.392 96.5025 278.19 116.389 295.1 109.817C312.011 103.252 303.511 88.8396 303.511 88.8396"
              fill="#231F20"/>
        <path opacity="0.35" d="M204.788 186.452C204.788 186.452 216.854 187.182 223.803 175.96H214.661"
              fill="#414042"/>
        <path opacity="0.35" d="M321.426 186.478C321.426 186.478 309.36 187.207 302.411 175.986H311.553"
              fill="#414042"/>
        <path d="M193.904 114.01C193.904 114.01 208.901 153.6 273.256 162.626C300.224 166.458 316.677 163.445 316.677 163.445C316.677 163.445 316.861 171.196 306.442 174.393C296.022 177.584 215.208 174.209 215.208 174.209C215.208 174.209 206.066 157.697 200.58 152.953C195.093 148.208 182.754 138.451 184.127 136.168C185.5 133.891 191.896 126.589 191.896 126.589"
              fill="#D69D72"/>
        <path opacity="0.55" d="M279.105 8.01807C279.105 8.01807 295.38 10.5745 307.63 19.1444" stroke="white"
              stroke-width="1.9659" stroke-miterlimit="10" stroke-linecap="round" stroke-linejoin="round"/>
        <path opacity="0.55" d="M344.102 47.2395C344.376 48.6097 344.655 49.9735 344.833 51.4325" stroke="white"
              stroke-width="1.9659" stroke-miterlimit="10" stroke-linecap="round" stroke-linejoin="round"/>
        <path opacity="0.55" d="M333.041 22.7031C333.041 22.7031 339.442 30.9115 342.913 42.5898" stroke="white"
              stroke-width="1.9659" stroke-miterlimit="10" stroke-linecap="round" stroke-linejoin="round"/>
        <path d="M190.891 127.966C190.891 127.966 176.085 140.735 176.447 157.336C176.905 175.307 190.618 190.905 205.697 186.072C220.783 181.327 211.457 162.81 202.773 154.145"
              fill="#D69D72"/>
        <path d="M190.891 127.966C190.891 127.966 176.085 140.735 176.447 157.336C176.905 175.307 190.618 190.905 205.697 186.072C220.783 181.327 211.457 162.81 202.773 154.145"
              stroke="black" stroke-width="3.2765" stroke-miterlimit="10" stroke-linecap="round"
              stroke-linejoin="round"/>
        <path d="M335.329 127.966C335.329 127.966 350.135 140.735 349.773 157.336C349.315 175.307 335.603 190.905 320.523 186.072C305.437 181.238 314.852 162.81 323.447 154.145"
              fill="#F4C698"/>
        <path d="M335.329 127.966C335.329 127.966 350.135 140.735 349.773 157.336C349.315 175.307 335.603 190.905 320.523 186.072C305.437 181.238 314.852 162.81 323.447 154.145"
              stroke="black" stroke-width="3.2765" stroke-miterlimit="10" stroke-linecap="round"
              stroke-linejoin="round"/>
        <path d="M222.15 58.9177C225.176 58.9177 227.636 56.4692 227.636 53.4434C227.636 50.4176 225.176 47.969 222.15 47.969C219.124 47.969 216.664 50.4176 216.664 53.4434C216.67 56.4628 219.124 58.9177 222.15 58.9177Z"
              fill="black"/>
        <path d="M276.549 62.6539C276.549 66.5742 270.605 74.237 263.199 74.237C255.793 74.237 249.855 66.663 249.855 62.6539C249.855 58.7337 255.799 58.277 263.199 58.277C270.605 58.277 276.549 58.7337 276.549 62.6539Z"
              fill="black"/>
        <path d="M315 17C284.886 -3 244.114 -3 214 17" stroke="black" stroke-width="3.2765" stroke-miterlimit="10"
              stroke-linecap="round" stroke-linejoin="round"/>
        <path d="M300.587 66.3966C279.016 50.7981 249.944 50.7981 228.367 66.3966" stroke="black" stroke-width="3.2765"
              stroke-miterlimit="10" stroke-linecap="round" stroke-linejoin="round"/>
        <path d="M300.587 143.748C279.016 151.227 249.944 151.227 228.367 143.748" stroke="black" stroke-width="3.2765"
              stroke-miterlimit="10" stroke-linecap="round" stroke-linejoin="round"/>
        <path d="M218.316 14.5835C218.316 14.5835 204.33 10.2065 192.442 17.0447C180.56 23.883 170.687 56.9956 180.745 59.736C190.802 62.47 206.339 42.4057 209.817 32.5544"
              stroke="black" stroke-width="3.2765" stroke-miterlimit="10" stroke-linecap="round"
              stroke-linejoin="round"/>
        <path d="M196.377 118.844C174.343 90.1083 188.145 63.1995 193.18 55.2639" stroke="black" stroke-width="3.2765"
              stroke-miterlimit="10" stroke-linecap="round" stroke-linejoin="round"/>
        <path d="M194.362 116.288C194.362 116.288 187.503 121.578 192.353 129.786" stroke="black" stroke-width="3.2765"
              stroke-miterlimit="10" stroke-linecap="round" stroke-linejoin="round"/>
        <path d="M306.531 58.9177C309.557 58.9177 312.017 56.4692 312.017 53.4434C312.017 50.4176 309.563 47.969 306.531 47.969C303.498 47.969 301.044 50.4176 301.044 53.4434C301.044 56.4628 303.498 58.9177 306.531 58.9177Z"
              fill="black"/>
        <path d="M316.403 32.6495C318.597 38.8534 325.634 49.2503 333.041 55.2702C337.338 58.7337 341.725 60.7446 345.38 59.7423C355.437 57.0083 345.564 23.9844 333.683 17.0511C324.541 11.7607 314.21 13.1308 309.913 14.0379"
              stroke="black" stroke-width="3.2765" stroke-miterlimit="10" stroke-linecap="round"
              stroke-linejoin="round"/>
        <path d="M329.843 118.844C351.877 90.2035 338.069 63.1995 333.04 55.2639" stroke="black" stroke-width="3.2765"
              stroke-miterlimit="10" stroke-linecap="round" stroke-linejoin="round"/>
        <path d="M331.947 116.288C331.947 116.288 338.8 121.578 333.956 129.786" stroke="black" stroke-width="3.2765"
              stroke-miterlimit="10" stroke-linecap="round" stroke-linejoin="round"/>
        <path d="M223.981 86.0992C223.981 86.0992 216.67 109.545 236.142 110.731C253.511 111.828 261.921 94.314 263.568 90.4826"
              stroke="black" stroke-width="3.2765" stroke-miterlimit="10" stroke-linecap="round"
              stroke-linejoin="round"/>
        <path d="M303.237 86.0992C303.237 86.0992 310.555 109.545 291.082 110.731C273.714 111.828 265.303 94.314 263.657 90.4826"
              stroke="black" stroke-width="3.2765" stroke-miterlimit="10" stroke-linecap="round"
              stroke-linejoin="round"/>
        <path d="M263.472 89.2901V74.1483" stroke="black" stroke-width="3.2765" stroke-miterlimit="10"
              stroke-linecap="round" stroke-linejoin="round"/>
        <path d="M277.916 108.447C277.916 108.447 272.246 140.19 292.545 138.547C306.988 137.36 299.582 108.174 299.582 108.174"
              stroke="black" stroke-width="3.2765" stroke-miterlimit="10" stroke-linecap="round"
              stroke-linejoin="round"/>
        <path d="M289.804 110.724C289.804 110.724 290.536 123.951 290.904 127.871" stroke="black" stroke-width="2.6212"
              stroke-miterlimit="10" stroke-linecap="round" stroke-linejoin="round"/>
        <path d="M235.043 35.6564C235.043 35.6564 245.462 29.2685 263.473 37.756" stroke="black" stroke-width="2.5149"
              stroke-miterlimit="10" stroke-linecap="round" stroke-linejoin="round"/>
        <path d="M291.813 35.6564C291.813 35.6564 281.394 29.2685 263.384 37.756" stroke="black" stroke-width="2.5149"
              stroke-miterlimit="10" stroke-linecap="round" stroke-linejoin="round"/>
        <path d="M240.987 23.8893C240.987 23.8893 249.213 18.8717 263.384 25.5323" stroke="black" stroke-width="2.5149"
              stroke-miterlimit="10" stroke-linecap="round" stroke-linejoin="round"/>
        <path d="M285.869 23.8893C285.869 23.8893 277.643 18.8717 263.472 25.5323" stroke="black" stroke-width="2.5149"
              stroke-miterlimit="10" stroke-linecap="round" stroke-linejoin="round"/>
        <path d="M327.266 101.705C333.293 102.79 339.364 103.627 345.454 104.23C346.312 104.312 347.044 103.443 347.044 102.644C347.044 101.718 346.312 101.141 345.454 101.058C339.644 100.487 333.859 99.6817 328.112 98.6477C327.266 98.4955 326.401 98.8761 326.153 99.7578C325.944 100.519 326.414 101.547 327.266 101.705Z"
              fill="#BB1E2D"/>
        <path d="M327.946 99.1804C330.648 99.523 333.375 99.6816 336.096 99.6562C336.929 99.6499 337.724 98.933 337.686 98.0703C337.647 97.2203 336.986 96.4781 336.096 96.4845C333.369 96.5098 330.648 96.3513 327.946 96.0087C327.12 95.9009 326.319 96.8143 326.357 97.5946C326.401 98.5461 327.056 99.0726 327.946 99.1804Z"
              fill="#1C75B9"/>
        <path d="M327.902 104.097C331.411 105.086 334.92 106.082 338.423 107.072C339.224 107.3 340.19 106.793 340.381 105.962C340.572 105.118 340.127 104.255 339.269 104.008C335.759 103.018 332.25 102.022 328.747 101.033C327.946 100.804 326.98 101.312 326.789 102.143C326.598 102.987 327.043 103.856 327.902 104.097Z"
              fill="black"/>
        <path d="M326.77 106.304C328.029 106.945 329.249 107.655 330.419 108.436C330.985 108.816 331.544 109.209 332.091 109.622C332.161 109.673 332.231 109.723 332.295 109.774C332.193 109.685 332.148 109.66 332.276 109.761C332.428 109.882 332.581 110.002 332.727 110.123C333.007 110.351 333.286 110.586 333.566 110.821C334.195 111.36 335.2 111.487 335.817 110.821C336.363 110.224 336.49 109.152 335.817 108.575C333.534 106.621 331.049 104.928 328.372 103.564C327.635 103.19 326.611 103.348 326.198 104.135C325.816 104.858 325.975 105.898 326.77 106.304Z"
              fill="#FFEF00"/>
        <path d="M263.288 62.0133C265.863 62.0133 267.948 61.5249 267.948 60.9159C267.948 60.3133 265.863 59.8185 263.288 59.8185C260.713 59.8185 258.622 60.3069 258.622 60.9159C258.628 61.5249 260.713 62.0133 263.288 62.0133Z"
              fill="white"/>
        <path d="M387.302 173.002C381.853 174.131 376.456 175.482 371.116 177.043C369.158 177.614 369.991 180.678 371.961 180.1C377.302 178.54 382.699 177.195 388.147 176.06C388.986 175.882 389.476 174.899 389.26 174.106C389.018 173.237 388.141 172.824 387.302 173.002Z"
              fill="#BB1E2D"/>
        <path d="M388.351 174.994C385.897 175.634 383.494 176.446 381.154 177.417C380.754 177.582 380.429 177.759 380.207 178.146C380.01 178.489 379.921 178.99 380.048 179.371C380.283 180.107 381.18 180.817 382.006 180.481C384.346 179.51 386.749 178.705 389.203 178.058C390.004 177.848 390.576 176.916 390.315 176.104C390.042 175.273 389.215 174.765 388.351 174.994Z"
              fill="#1C75B9"/>
        <path d="M386.863 170.718C383.494 171.08 380.118 171.448 376.748 171.809C375.922 171.898 375.121 172.476 375.159 173.395C375.197 174.176 375.865 175.076 376.748 174.981C380.118 174.62 383.494 174.252 386.863 173.89C387.689 173.801 388.49 173.224 388.452 172.304C388.414 171.524 387.747 170.623 386.863 170.718Z"
              fill="black"/>
        <path d="M388.432 170.652C388.089 170.62 387.745 170.589 387.402 170.544C387.377 170.538 386.893 170.481 387.237 170.525C387.091 170.506 386.944 170.487 386.798 170.462C386.137 170.36 385.482 170.246 384.834 170.107C383.556 169.834 382.291 169.485 381.051 169.066C380.263 168.8 379.277 169.371 379.093 170.176C378.89 171.052 379.36 171.845 380.206 172.13C382.869 173.025 385.635 173.576 388.432 173.824C389.265 173.9 390.059 173.044 390.021 172.238C389.977 171.318 389.322 170.735 388.432 170.652Z"
              fill="#FFEF00"/>
        <path d="M932.597 172.629C844.159 170.203 746.59 169.139 641.274 170.429C551.891 171.526 468.515 174.184 391.942 177.745C386.997 177.79 386.541 170.9 391.503 170.855C469.596 167.229 554.895 164.539 646.506 163.487C749.695 162.3 845.357 163.371 932.158 165.739C932.293 168.035 932.445 170.332 932.597 172.629Z"
              fill="#8FC5F2" stroke="black" stroke-width="2" stroke-miterlimit="10"/>
        <path d="M3.22317 155.788C34.5965 144.364 69.6444 133.275 108.138 123.621C140.808 115.425 171.724 109.329 200.421 104.787C202.226 104.324 203.32 102.459 202.856 100.657C202.385 98.8558 200.522 97.7584 198.717 98.2278C169.448 102.865 137.833 109.132 104.368 117.594C66.6755 127.128 32.3206 138.02 1.51941 149.223C2.08521 151.411 2.65737 153.6 3.22317 155.788Z"
              fill="#8FC5F2" stroke="black" stroke-width="2" stroke-miterlimit="10"/>
    </g>
    <defs>
        <clipPath id="clip0_23_505">
            <rect width="595" height="188" fill="white"/>
        </clipPath>
    </defs>
</svg>
