<svg width="20" height="21" viewBox="0 0 20 21" fill="none" xmlns="http://www.w3.org/2000/svg">
    <path
        d="M10 0.74646C8.02219 0.74646 6.08879 1.33295 4.4443 2.43176C2.79981 3.53058 1.51809 5.09236 0.761209 6.91963C0.00433284 8.74689 -0.193701 10.7576 0.192152 12.6974C0.578004 14.6372 1.53041 16.419 2.92894 17.8175C4.32746 19.2161 6.10929 20.1685 8.0491 20.5543C9.98891 20.9402 11.9996 20.7421 13.8268 19.9853C15.6541 19.2284 17.2159 17.9467 18.3147 16.3022C19.4135 14.6577 20 12.7243 20 10.7465C20 9.43324 19.7413 8.13288 19.2388 6.91963C18.7363 5.70637 17.9997 4.60398 17.0711 3.67539C16.1425 2.74681 15.0401 2.01021 13.8268 1.50766C12.6136 1.00512 11.3132 0.74646 10 0.74646V0.74646ZM14 11.7465H10C9.73479 11.7465 9.48043 11.6411 9.2929 11.4536C9.10536 11.266 9 11.0117 9 10.7465V6.74646C9 6.48124 9.10536 6.22689 9.2929 6.03935C9.48043 5.85182 9.73479 5.74646 10 5.74646C10.2652 5.74646 10.5196 5.85182 10.7071 6.03935C10.8946 6.22689 11 6.48124 11 6.74646V9.74646H14C14.2652 9.74646 14.5196 9.85182 14.7071 10.0394C14.8946 10.2269 15 10.4812 15 10.7465C15 11.0117 14.8946 11.266 14.7071 11.4536C14.5196 11.6411 14.2652 11.7465 14 11.7465Z"
        fill="#FB8A76" />
</svg>
