<svg width="14" height="8" viewBox="0 0 14 8" fill="none" xmlns="http://www.w3.org/2000/svg">
<path d="M13.7071 1.70711C14.0976 1.31658 14.0976 0.683417 13.7071 0.292892C13.3166 -0.097632 12.6834 -0.0976319 12.2929 0.292893L13.7071 1.70711ZM7 7L6.29289 7.70711C6.48043 7.89464 6.73478 8 7 8C7.26522 8 7.51957 7.89464 7.70711 7.70711L7 7ZM1.70711 0.292893C1.31658 -0.0976309 0.683417 -0.0976309 0.292893 0.292894C-0.097632 0.683418 -0.097632 1.31658 0.292892 1.70711L1.70711 0.292893ZM12.2929 0.292893L6.29289 6.29289L7.70711 7.70711L13.7071 1.70711L12.2929 0.292893ZM7.70711 6.29289L1.70711 0.292893L0.292892 1.70711L6.29289 7.70711L7.70711 6.29289Z" fill="#989898"/>
</svg>
