<svg width="14" height="8" viewBox="0 0 14 8" fill="none" xmlns="http://www.w3.org/2000/svg">
<path d="M0.292892 6.29289C-0.097632 6.68342 -0.0976321 7.31658 0.292892 7.70711C0.683416 8.09763 1.31658 8.09763 1.70711 7.70711L0.292892 6.29289ZM7 1L7.70711 0.292894C7.51957 0.105358 7.26522 1.15505e-06 7 1.10868e-06C6.73478 1.06231e-06 6.48043 0.105358 6.29289 0.292894L7 1ZM12.2929 7.70711C12.6834 8.09763 13.3166 8.09763 13.7071 7.70711C14.0976 7.31659 14.0976 6.68342 13.7071 6.2929L12.2929 7.70711ZM1.70711 7.70711L7.70711 1.70711L6.29289 0.292894L0.292892 6.29289L1.70711 7.70711ZM6.29289 1.70711L12.2929 7.70711L13.7071 6.2929L7.70711 0.292894L6.29289 1.70711Z" fill="#989898"/>
</svg>
