<svg width="25" height="24" viewBox="0 0 25 24" fill="none" xmlns="http://www.w3.org/2000/svg">
    <path fill-rule="evenodd" clip-rule="evenodd"
          d="M12.2502 3C11.0102 2.99876 9.81402 3.45828 8.89382 4.28938C7.97362 5.12047 7.39506 6.26383 7.27044 7.49751C7.14583 8.73118 7.48406 9.96715 8.21947 10.9655C8.95488 11.9638 10.035 12.6533 11.2502 12.9V15H8.25015V17H11.2502V21H13.2502V17H16.2502V15H13.2502V12.9C14.4615 12.6491 15.5369 11.9582 16.2686 10.9607C17.0004 9.9633 17.3366 8.73009 17.2122 7.49929C17.0879 6.26848 16.5119 5.12741 15.5955 4.29645C14.6791 3.4655 13.4872 3.00361 12.2502 3ZM9.25015 8C9.25015 8.79565 9.56622 9.55871 10.1288 10.1213C10.6914 10.6839 11.4545 11 12.2502 11C13.0458 11 13.8089 10.6839 14.3715 10.1213C14.9341 9.55871 15.2502 8.79565 15.2502 8C15.2502 7.20435 14.9341 6.44129 14.3715 5.87868C13.8089 5.31607 13.0458 5 12.2502 5C11.4545 5 10.6914 5.31607 10.1288 5.87868C9.56622 6.44129 9.25015 7.20435 9.25015 8Z"
          fill="#989898"/>
</svg>
