<svg xmlns="http://www.w3.org/2000/svg" viewBox="0 0 34.7 30.84">
    <g id="Layer_2" data-name="Layer 2">
        <g id="Layer_1-2" data-name="Layer 1">
            <path d="M25.14,9.08H9.56V4.27A4.28,4.28,0,0,1,13.83,0h7a4.28,4.28,0,0,1,4.29,4.27ZM11,7.64H23.7V4.27a2.84,2.84,0,0,0-2.85-2.83h-7A2.83,2.83,0,0,0,11,4.27Zm12.1-.55H11.55V4.3A2.26,2.26,0,0,1,13.8,2h7.05A2.26,2.26,0,0,1,23.1,4.3ZM13,5.65h8.67V4.3a.82.82,0,0,0-.81-.82h-7A.82.82,0,0,0,13,4.3Z"
                  fill="#231f20"/>
            <g opacity="0.25">
                <path d="M8,7H6a.26.26,0,0,1-.26-.26V6A.26.26,0,0,1,6,5.75H8A.26.26,0,0,1,8.24,6V6.7A.26.26,0,0,1,8,7Z"/>
            </g>
            <g opacity="0.25">
                <path d="M28.87,7h-2a.26.26,0,0,1-.26-.26V6a.26.26,0,0,1,.26-.26h2a.26.26,0,0,1,.25.26V6.7A.24.24,0,0,1,28.87,7Z"/>
            </g>
            <path d="M20.85.72h-7a3.56,3.56,0,0,0-3.55,3.55V8.36H24.42V4.27A3.58,3.58,0,0,0,20.85.72Zm1.53,5.65H12.27V4.3A1.54,1.54,0,0,1,13.8,2.76h7.05A1.54,1.54,0,0,1,22.38,4.3Z"
                  fill="#e54256"/>
            <path d="M32.52,30.44H2.16A1.82,1.82,0,0,1,.35,28.63V8.13A1.82,1.82,0,0,1,2.16,6.32H32.54a1.81,1.81,0,0,1,1.81,1.81V28.65A1.83,1.83,0,0,1,32.52,30.44Z"
                  fill="#fff"/>
            <path d="M32.52,18.73H2.16A1.82,1.82,0,0,1,.35,16.91V8.13A1.82,1.82,0,0,1,2.16,6.32H32.54a1.81,1.81,0,0,1,1.81,1.81v8.81A1.84,1.84,0,0,1,32.52,18.73Z"
                  fill="#e54256"/>
            <path d="M32.52,30.79H2.16A2.16,2.16,0,0,1,0,28.63V8.13A2.16,2.16,0,0,1,2.16,6H32.54A2.16,2.16,0,0,1,34.7,8.13V28.65A2.17,2.17,0,0,1,32.52,30.79ZM2.16,6.67A1.46,1.46,0,0,0,.7,8.13v20.5a1.47,1.47,0,0,0,1.46,1.46H32.52A1.47,1.47,0,0,0,34,28.64V8.13a1.46,1.46,0,0,0-1.46-1.46Z"
                  fill="#231f20"/>
            <path d="M17.33,25.41a7,7,0,1,0-7-7A7,7,0,0,0,17.33,25.41Z" fill="#fff"/>
            <path d="M17.33,25.77a7.39,7.39,0,1,1,7.38-7.39A7.4,7.4,0,0,1,17.33,25.77Zm0-14.06A6.67,6.67,0,1,0,24,18.38,6.67,6.67,0,0,0,17.33,11.71Z"/>
            <path d="M17.33,25.43a6.79,6.79,0,0,1-2.74-.56,7.37,7.37,0,0,1-2.24-1.51,7.11,7.11,0,0,1-2.07-5,6.79,6.79,0,0,1,.56-2.74,7.37,7.37,0,0,1,1.51-2.24,7.07,7.07,0,0,1,5-2.07,6.61,6.61,0,0,1,2.73.56A7.37,7.37,0,0,1,22.3,13.4a7,7,0,0,1,1.51,2.24,7.14,7.14,0,0,1,.56,2.74,6.77,6.77,0,0,1-.56,2.73,7.3,7.3,0,0,1-1.51,2.25,7,7,0,0,1-2.24,1.51A6.57,6.57,0,0,1,17.33,25.43Zm0-14a6.79,6.79,0,0,0-2.74.56,7,7,0,0,0-2.22,1.51,7.25,7.25,0,0,0-1.5,2.22,7.13,7.13,0,0,0-.56,2.73,6.62,6.62,0,0,0,.56,2.74,7,7,0,0,0,1.5,2.22,7.41,7.41,0,0,0,2.22,1.51,7.14,7.14,0,0,0,2.74.56,6.77,6.77,0,0,0,2.73-.56,7.11,7.11,0,0,0,3.72-3.73,7.15,7.15,0,0,0,.57-2.74,6.62,6.62,0,0,0-.57-2.73,6.86,6.86,0,0,0-1.5-2.22,7.41,7.41,0,0,0-2.22-1.51A6.77,6.77,0,0,0,17.33,11.38Z"/>
            <path d="M22.1,16.9v3H18.78v3.3H15.87v-3.3H12.58v-3h3.29V13.63h2.91V16.9Z" fill="#e54256"/>
            <path d="M31.16,16A1.14,1.14,0,0,1,30,14.8V9.26a1.15,1.15,0,0,1,2.3,0V14.8A1.17,1.17,0,0,1,31.16,16Z"
                  fill="#f97373"/>
            <g opacity="0.25">
                <rect x="10.25" y="5.19" width="2.02" height="1.12"/>
            </g>
            <g opacity="0.25">
                <rect x="22.38" y="5.19" width="2.02" height="1.12"/>
            </g>
            <g opacity="0.15" style="isolation:isolate">
                <path d="M3.05,6.34s-6.4,24,27.64,24.5H2.37a2,2,0,0,1-2-2V8.16S.37,6.34,3.05,6.34Z" fill="#232533"/>
            </g>
        </g>
    </g>
</svg>