<svg width="45" height="32" viewBox="0 0 45 32" fill="none" xmlns="http://www.w3.org/2000/svg">
<g clip-path="url(#clip0_23_218)">
<mask id="mask0_23_218" style="mask-type:alpha" maskUnits="userSpaceOnUse" x="0" y="0" width="45" height="32">
<path d="M40.7333 0H4.46662C2.1102 0 0.199951 1.91025 0.199951 4.26667V27.7333C0.199951 30.0898 2.1102 32 4.46662 32H40.7333C43.0897 32 45 30.0898 45 27.7333V4.26667C45 1.91025 43.0897 0 40.7333 0Z" fill="white"/>
</mask>
<g mask="url(#mask0_23_218)">
<path d="M40.7333 0H4.46662C2.1102 0 0.199951 1.91025 0.199951 4.26667V27.7333C0.199951 30.0898 2.1102 32 4.46662 32H40.7333C43.0897 32 45 30.0898 45 27.7333V4.26667C45 1.91025 43.0897 0 40.7333 0Z" fill="white"/>
<path fill-rule="evenodd" clip-rule="evenodd" d="M0.199951 0H19.4V14.9333H0.199951V0Z" fill="#444379"/>
<path fill-rule="evenodd" clip-rule="evenodd" d="M2.33325 2.13333V4.26667H4.46659V2.13333H2.33325ZM6.59992 2.13333V4.26667H8.73325V2.13333H6.59992ZM10.8666 2.13333V4.26667H12.9999V2.13333H10.8666ZM15.1333 2.13333V4.26667H17.2666V2.13333H15.1333ZM12.9999 4.26667V6.4H15.1333V4.26667H12.9999ZM8.73325 4.26667V6.4H10.8666V4.26667H8.73325ZM4.46659 4.26667V6.4H6.59992V4.26667H4.46659ZM2.33325 6.4V8.53333H4.46659V6.4H2.33325ZM6.59992 6.4V8.53333H8.73325V6.4H6.59992ZM10.8666 6.4V8.53333H12.9999V6.4H10.8666ZM15.1333 6.4V8.53333H17.2666V6.4H15.1333ZM2.33325 10.6667V12.8H4.46659V10.6667H2.33325ZM6.59992 10.6667V12.8H8.73325V10.6667H6.59992ZM10.8666 10.6667V12.8H12.9999V10.6667H10.8666ZM15.1333 10.6667V12.8H17.2666V10.6667H15.1333ZM12.9999 8.53333V10.6667H15.1333V8.53333H12.9999ZM8.73325 8.53333V10.6667H10.8666V8.53333H8.73325ZM4.46659 8.53333V10.6667H6.59992V8.53333H4.46659Z" fill="#A7B6E7"/>
<path fill-rule="evenodd" clip-rule="evenodd" d="M19.4 0V2.13333H45V0H19.4ZM19.4 4.26667V6.4H45V4.26667H19.4ZM19.4 8.53333V10.6667H45V8.53333H19.4ZM19.4 12.8V14.9333H45V12.8H19.4ZM0.199951 17.0667V19.2H45V17.0667H0.199951ZM0.199951 21.3333V23.4667H45V21.3333H0.199951ZM0.199951 25.6V27.7333H45V25.6H0.199951ZM0.199951 29.8667V32H45V29.8667H0.199951Z" fill="#ED4C49"/>
<path d="M40.7333 1.06667H4.4666C2.69929 1.06667 1.2666 2.49936 1.2666 4.26667V27.7333C1.2666 29.5006 2.69929 30.9333 4.4666 30.9333H40.7333C42.5006 30.9333 43.9333 29.5006 43.9333 27.7333V4.26667C43.9333 2.49936 42.5006 1.06667 40.7333 1.06667Z" stroke="black" stroke-opacity="0.1" stroke-width="2.66667"/>
</g>
</g>
<defs>
<clipPath id="clip0_23_218">
<rect width="44.8" height="32" fill="white" transform="translate(0.199951)"/>
</clipPath>
</defs>
</svg>
