<svg width="28" height="32" viewBox="0 0 28 32" fill="none" xmlns="http://www.w3.org/2000/svg">
<g clip-path="url(#clip0_23_223)">
<mask id="mask0_23_223" style="mask-type:alpha" maskUnits="userSpaceOnUse" x="0" y="0" width="46" height="32">
<path d="M40.7999 0H4.53327C2.17685 0 0.266602 1.91025 0.266602 4.26667V27.7333C0.266602 30.0898 2.17685 32 4.53327 32H40.7999C43.1564 32 45.0666 30.0898 45.0666 27.7333V4.26667C45.0666 1.91025 43.1564 0 40.7999 0Z" fill="white"/>
</mask>
<g mask="url(#mask0_23_223)">
<path fill-rule="evenodd" clip-rule="evenodd" d="M0.266602 0L27.9999 17.0667H13.0666L27.9999 32H0.266602V0Z" fill="#003495"/>
<path fill-rule="evenodd" clip-rule="evenodd" d="M2.3999 4.26667L19.4666 14.9333H6.66657L21.5999 29.8667H4.52897C3.35564 29.8667 2.3999 28.8939 2.3999 27.7291V4.26667Z" fill="#DF0A37"/>
<path fill-rule="evenodd" clip-rule="evenodd" d="M10.752 10.6667C10.8693 10.8331 10.9333 11.0123 10.9333 11.2C10.9333 12.0832 9.49972 12.8 7.73332 12.8C5.96692 12.8 4.53333 12.0832 4.53333 11.2C4.53333 11.0123 4.59733 10.8331 4.71466 10.6667C5.15413 10.9781 6.34026 11.2 7.73332 11.2C9.12639 11.2 10.3147 10.9781 10.752 10.6667Z" fill="white"/>
<path d="M7.73332 27.7333C9.50064 27.7333 10.9333 26.3006 10.9333 24.5333C10.9333 22.766 9.50064 21.3333 7.73332 21.3333C5.96601 21.3333 4.53333 22.766 4.53333 24.5333C4.53333 26.3006 5.96601 27.7333 7.73332 27.7333Z" fill="white"/>
<path d="M4.02552 2.77973C2.53859 1.83467 1.33325 2.50667 1.33325 4.2624V27.7376C1.33325 29.5019 2.75832 30.9333 4.53965 30.9333H25.8666L10.9333 16H24.7999L4.02552 2.77973Z" stroke="black" stroke-opacity="0.1"/>
</g>
</g>
<defs>
<clipPath id="clip0_23_223">
<rect width="27.7333" height="32" fill="white" transform="translate(0.266602)"/>
</clipPath>
</defs>
</svg>
