<svg width="24" height="24" viewBox="0 0 24 24" fill="none" xmlns="http://www.w3.org/2000/svg">
<path fill-rule="evenodd" clip-rule="evenodd" d="M19.2048 9.06793C19.2813 9.11247 19.3445 9.17647 19.3881 9.25343C19.4317 9.33037 19.4541 9.4175 19.4531 9.50593C19.452 9.59436 19.4275 9.68093 19.3821 9.7568L16.7276 14.485L8.92615 6.68351L12.5796 0.282803C12.6412 0.188167 12.7328 0.117007 12.8398 0.0807829C12.9467 0.0445584 13.0627 0.0453766 13.1691 0.0831058C13.2756 0.120835 13.3662 0.19328 13.4264 0.288775C13.4867 0.384271 13.513 0.497261 13.5012 0.609553L12.4031 8.99993H18.9531C19.0416 8.99993 19.1284 9.0234 19.2048 9.06793ZM15.2022 17.2022L7.38447 9.38447L4.6141 14.2381C4.56752 14.3138 4.54199 14.4006 4.54015 14.4895C4.5383 14.5785 4.5602 14.6663 4.6036 14.7439C4.64699 14.8215 4.71031 14.8862 4.78701 14.9312C4.86372 14.9762 4.95104 14.9999 5.03998 14.9999H11.4921L10.6219 23.4029C10.6133 23.5148 10.6424 23.6264 10.7046 23.7198C10.7667 23.8133 10.8584 23.8833 10.9649 23.9186C11.0714 23.954 11.1867 23.9527 11.2924 23.915C11.3981 23.8773 11.4881 23.8053 11.5482 23.7106L15.2022 17.2022Z" fill="white"/>
<line x1="1.53033" y1="2.46967" x2="21.5303" y2="22.4697" stroke="white" stroke-width="1.5"/>
</svg>
