<svg xmlns="http://www.w3.org/2000/svg" viewBox="0 0 497.79 312.38"><g id="Layer_2" data-name="Layer 2"><g id="Layer_1-2" data-name="Layer 1"><path d="M434.5,168.42s5-3.8,6.15,12.76c1.3,15.54-6.88,48.77-23.42,49.74-18.64,11.33-7.32-29.5-6.73-32s-.14-.47,0-1.5a16.5,16.5,0,0,1-.5-5c.14-2.53-1.34-1.47-2-2.5l.5-1.5C411.24,170.63,419.2,168.07,434.5,168.42Z" fill="#edb083"/><path d="M384.28,163.42S404.62,148.29,420,152c6.31,9.19,15.47-1.41,16,14.5.18,5.55.55,3.39.5,3-.08-.73-2.38-3.95-15.5-.5-17.64,4.64-8.55,10.63-6.5,3,.43-1.6-7.4,18.65-7.5,17-.24-4.33.67-5.24-9.47.4-14.32,7.95-24.39,14.85-24.39,14.85Z" fill="#a2a0f4"/><path d="M384.28,163.42s18-14.32,33.41-10.61,23.86,12.73,24.39,28.64-4.24,46.14-24.39,51.44c-17.64,4.64-10.49-25.66-8.44-33.29a15.33,15.33,0,0,0,.56-4.9c-.24-4.33-2.14-10.94-12.28-5.3-14.32,7.95-24.39,14.85-24.39,14.85Z" fill="none" stroke="#000102" stroke-miterlimit="10" stroke-width="4"/><path d="M321.61,30s-20-10.61-25-5.64S294.28,36,298.75,45.9s8.45,35.27,8.45,50.17S291,134.94,282.48,134.36C263.33,133.07,257,112,243.12,91.6s-55.33-13.58-67.25.33-19.19,30.47-3.29,84.12,45.7,78,60.11,82S302.24,270.44,343,236.16s54.15-64.08,58.12-94.88S407.55,77.19,387.68,30c0,0,7.45-16.39-6.95-27.32,0,0-10.93-1-17.39,16.39C363.34,19.07,344.47,14.1,321.61,30Z" fill="#f8bf8d" stroke="#000102" stroke-miterlimit="10" stroke-width="5.33"/><path d="M336,25s7.07,16.56,6.7,24-13,18.37-9,30.59,22.64,9.38,22.64,21.22-29.6,45.14-46.25,49.58c0,0,32.93,29.6,70.3,17,0,0,5.91-35.27,1.1-49s-10.61-17.1-7.13-28.08c3.28-10.38,13.93-17.69,3.92-32.18-6.19-9-11.7-6.8-17.58-10.88-9.6-6.66-14.51-25.42-14.51-25.42Z" fill="#fbfbfb"/><path d="M299,121.38s11.6,70.36,97,41.62c0,0-17.5,73.73-90.17,93.35S203,244.65,185,218.66s-27.14-71.57-21.3-108.17,50.39-39.25,69.48-30.23S252,128.6,274.87,131.05C289.72,132.64,299,121.38,299,121.38Z" fill="#d4d2fd" stroke="#000102" stroke-miterlimit="10" stroke-width="5.33"/><path d="M261.63,219.86S272,245.07,272,269s-3.88,41.37,10.34,40.72,23.4-14.85,22.62-52.35c-.53-25.49-5.17-33.61-5.17-33.61" fill="#d4d2fd"/><path d="M261.63,219.86S272,245.07,272,269s-3.88,41.37,10.34,40.72,23.4-14.85,22.62-52.35c-.53-25.49-5.17-33.61-5.17-33.61" fill="none" stroke="#000102" stroke-linecap="round" stroke-miterlimit="10" stroke-width="5.33"/><path d="M303,268s1,33.55-17,39.95c-16.21,5.75-13.11-22.21-13.11-22.21V264.8Z" fill="#edb083"/><path d="M304.55,264.78c-19.7,9.35-31.16-.86-31.16-.86Z" fill="#d4d2fd"/><path d="M304.55,264.78c-19.7,9.35-31.16-.86-31.16-.86" fill="none" stroke="#000102" stroke-linecap="round" stroke-miterlimit="10" stroke-width="4"/><path d="M440.5,170l.87-1.8h0l-.08,0L441,168c-.23-.1-.56-.24-1-.4a35.58,35.58,0,0,0-3.43-1.17,31.16,31.16,0,0,0-10.9-1.24,19.44,19.44,0,0,0-12.34,5.41c-3.73,3.63-6.55,9.25-7.83,17.57l4,.61c1.19-7.73,3.73-12.46,6.66-15.31a15.46,15.46,0,0,1,9.87-4.3,27.71,27.71,0,0,1,9.48,1.1c1.28.37,2.33.75,3.05,1l.83.35.21.09,0,0h0Z" fill="#000102"/><path d="M384,169.5a82.3,82.3,0,0,1-34.5,3c-1.4-.16-11-2.32-12-2.5-25.06,29.33-50.7,44.5-56.12,44.5s-2.06,4.67-1.38,12.5,8.54,26.46,6.5,39.5h5l2.5-.5,2.5-.5,6-2L302,255s20.67-5.29,37.9-16.49C352,230.67,379.27,210.66,392,167" fill="#a2a0f4"/><path d="M355.18,64.28c5.65-1.37,9.48-5.59,8.55-9.44s-6.26-5.85-11.91-4.48-9.47,5.58-8.54,9.43S349.54,65.64,355.18,64.28Z" fill="#000102"/><path d="M356.06,63.2l2.43,8.16" fill="none" stroke="#000102" stroke-linecap="round" stroke-miterlimit="10" stroke-width="4"/><path d="M345.68,68.73s1.89,8.7,13.39,4.1,7.17-10.58,7.17-10.58" fill="none" stroke="#000102" stroke-linecap="round" stroke-miterlimit="10" stroke-width="4"/><path d="M351.16,167S389.73,115.38,395.61,62c0,0,13.34,43.35-1.33,99C394.29,161,371.88,169.12,351.16,167Z" fill="#df9e76" opacity="0.44" style="isolation:isolate"/><path d="M197.65,168.38s-17.21,60.59-62.79,47.8-30.38-78.25-30.38-78.25,4.5-13.54,14.63-8.28,7.88,12,10.13,27.84,8.44,21.07,18,16.55,13.18-22.4,14.87-46.47" fill="#d4d2fd"/><path d="M197.65,168.38s-17.21,60.59-62.79,47.8-30.38-78.25-30.38-78.25,4.5-13.54,14.63-8.28,7.88,12,10.13,27.84,8.44,21.07,18,16.55,13.18-22.4,14.87-46.47" fill="none" stroke="#000102" stroke-linecap="round" stroke-miterlimit="10" stroke-width="5.33"/><path d="M133,174.63s-5.31-9.49-5.67-26.82c-.11-5.21-3.7-14.59-8-15.78s-9.69-3.52-14.62,13.38c-4.21,14.42-1.75,27.28,1.3,39.82,2.84,11.65,5.94,13.77,5.94,13.77s-1-21.1,8.53-22,14.22-1.19,14.22-1.19Z" fill="#edb083"/><path d="M188.74,87.34a20,20,0,1,0-20-20A20,20,0,0,0,188.74,87.34Z" fill="#f8bf8d" stroke="#000102" stroke-miterlimit="10" stroke-width="5.33"/><path d="M137,175.41s-27.92-5.39-23,25.47Z" fill="#d4d2fd"/><path d="M137,175.41s-27.92-5.39-23,25.47" fill="none" stroke="#000102" stroke-linecap="round" stroke-miterlimit="10" stroke-width="5.33"/><path d="M258.2,218.7s-32.58-2.17-61-41.32c0,0-12.86,25.34-17.15,27.48,0,0,24.17,58.87,88.49,55.36C268.45,248.86,264.75,234.83,258.2,218.7Z" fill="#a2a0f4"/><path d="M230.93,90.62s-8.67-5.06-10.83,0,4.69,10.11,10.83,9.75S234.18,92.06,230.93,90.62Z" fill="#fff"/><path d="M246.9,123.49a130.14,130.14,0,0,1-9-17.45c-2-4.72-8.89-.65-6.91,4a131.31,131.31,0,0,0,9,17.45C242.69,131.91,249.61,127.89,246.9,123.49Z" fill="#fff"/><path d="M304.18,56.24s25.21-34.4,82.18-27.34l2.37,6.3S341,31.09,306.73,64Z" fill="#ffcce1" stroke="#000102" stroke-miterlimit="10" stroke-width="4"/><path d="M9,160.3c-1.66,1.26-3.95,2.15-4.22,4.22-.34,2.6,2.77,5,3.16,5.27,7.41,5.49,24.33-5.59,28.48-8.44,8.7-6,8-8.14,17.8-15.3,8-5.84,14.34-10.43,21.76-11.08,12.57-1.1,21.21,10.31,27.81,14.23C119,158.25,147,160,202.81,126.58a37.06,37.06,0,0,1,4.66-.93A40.11,40.11,0,0,1,224,127.19c14.31,3.93,21.46,5.89,29.27,10.29,10.88,6.12,28,15.77,28.48,30.26.18,6.07-2.63,11.06-4.75,14-2.24,3.34-3.05,5.34-2.44,6q1.92,2,22.61-13.7a59.61,59.61,0,0,1,12.46-11.47c2.09-1.44,3-1.87,3.76-3,2.29-3.28,1.83-10.35-10.09-26.9-2.93-20.42-.33-29.12,2.77-33.23a12.3,12.3,0,0,0,2.77-6.13s.69-5.77-5.34-12.46c-6.87-7.63-67-28.91-150.56-54-19.42-6.44-35.87-7-50.22-3.6-28.06,6.7-46,27.88-50.86,33.62C42.74,67.68,37,79.84,32.13,89.6A132.17,132.17,0,0,0,23.3,111c-1.05,3.46-1.37,5.08-3.17,10.94-3.62,11.81-4,10.72-5.41,16.22C11.5,151,13.79,156.61,9,160.3Z" fill="#fd806d"/><path d="M259.78,139.55c.24-.41-21-12.7-57.77-34.16-12.89-7.54-38-21.81-55.52-20.27C126.34,86.9,128.58,98.61,97.36,108c-24.47,7.33-35.53,3-47.5,14.75-4.46,4.36-7.51,9.25-17.81,19.06-7.64,7.28-11.41,11-13.86,12.09-3.17,1.45-6.93,2.37-8,5.47-.44,1.24-.27,2.31-1.32,3.43s-2.6,1.41-3.56,3.17c-.21.39-.32.59-.26.79.44,1.6,8.36.65,9.36.53a49.94,49.94,0,0,0,7.25-1.45,49.16,49.16,0,0,0,5.93-2c.38-.15,2-.84,4.22-2a50.05,50.05,0,0,0,5.54-3.3c3.35-2.4,3.87-4.16,7.25-7.91A52.92,52.92,0,0,1,51.81,144c3.64-2.86,7.72-6.06,13.58-8,2.42-.82,9.79-2.9,7.34-2.18a36.64,36.64,0,0,1,8.48.33,38.53,38.53,0,0,1,10.68,3.43,49.15,49.15,0,0,1,11.54,7.47,23.42,23.42,0,0,0,4.93,3.52,26,26,0,0,0,4.81,1.9A41.54,41.54,0,0,0,126.82,152c2.15-.06,3.74-.23,5.13-.38,2.28-.25,3.87-.52,12.32-2.14.41-.08,1.31-.25,2.47-.53.17,0,.72-.17,1.46-.37s1.56-.43,2-.56l.42-.12c1-.31,3.94-1.27,5.24-1.73,13.8-4.93,28.35-11.6,28.35-11.6,3.29-1.51,6.71-2.76,9.89-4.48a28.84,28.84,0,0,1,6.33-2.77,33.76,33.76,0,0,1,4.88-.92,72.67,72.67,0,0,1,9.76-.79c1.49,0,3.17,0,5,.13,1.18.24,3.08.64,5.41,1.19,9.37,2.19,15.75,3.69,22.15,6.86.93.46,3.43,1.73,7.25,3.56C258.13,138.84,259.74,139.62,259.78,139.55Z" fill="#bc635e" opacity="0.86" style="isolation:isolate"/><path d="M263.92,66.31a9,9,0,0,1,0,4.78C261.57,80.58,245.16,85.4,234.09,86c-15.44.88-39.62-5.33-41.42-19.57-1.25-9.9,8.56-21.81,18.86-23.59,8.05-1.39,8.79,4.72,27.93,11.46C252.28,58.84,262,59.63,263.92,66.31Z" fill="#fff"/><path d="M243,71.8a1,1,0,0,1,.78,1.07l-.91,5.86a1,1,0,0,1-1.07.78l-28.24-4.4a1,1,0,0,1-.78-1.07l1.08-6.18c.08-.5.41-.54.91-.46l9.49,1.48a.77.77,0,0,0,.89-.65l1.67-10.73a.79.79,0,0,0-.65-.89l-9.49-1.48a1,1,0,0,1-.78-1.07l.91-5.82a1,1,0,0,1,1.07-.78l26.86,6.66c.42,1.54.84,3.09,1.25,4.63a1,1,0,0,1-1.07.78l-10-1.56a.77.77,0,0,0-.89.65l-1.67,10.73a.79.79,0,0,0,.65.89Z" fill="#ff6955"/><path d="M6.7,161.25c-15.39,11.36,15.23,11.42,31.9-.34,6.82-4.81,29.26-43.61,65-13.37,25.25,21.39,96.68-18.72,99.84-18.94a34.29,34.29,0,0,1,4.69-.76c31.36-2.94,93.87,28.33,66.42,57.55C263,204.33,317,156.27,317,156.27l-14.64-23.14a33.3,33.3,0,0,1-1.38-9.89c0-2.81.44-5.09,2.77-14.44.93-3.75,1.75-6.92,2.37-9.3a64.18,64.18,0,0,0,.59-14c-.77-9.18-61.73-34.83-149.42-58.31-46.41-17.33-76.72.34-102.11,26.27C14.47,95,12.92,156.66,6.7,161.25Z" fill="none" stroke="#000" stroke-miterlimit="10" stroke-width="5"/><path d="M386.1,36.59c-2.31-1.17-4.74-.52-9.65-.75-6.29-.29-11.89,2.1-13.72,2.85a45.55,45.55,0,0,0-8.67,4.85c-2.35,1.75-3.34,3-5.8,3.74-1.46.45-2.25.6-10.79,1a42.29,42.29,0,0,0-6.78.67,28.79,28.79,0,0,0-13.19,6.59,22.45,22.45,0,0,0-5.8,7.65c-1.09,2.41-2.07,4.57-1.58,7.12.83,4.36,5.46,7.3,9.23,8.18,4.43,1,8-.69,13.19-3.17a22.37,22.37,0,0,0,8.81-6.57,20,20,0,0,0,2.8-5,8,8,0,0,1-.89-1.46,9.5,9.5,0,0,1-.69-2.24,9.94,9.94,0,0,1,1.85-6.59c2.89-4.15,7.94-4.81,9.49-5,2-.26,6.17-.8,9.23,1.9a7.48,7.48,0,0,1,2.64,4.17c.34,1.87-.45,2.94.26,4.22.31.55.94,1.2,3.26,1.84a21.33,21.33,0,0,0,11.83-.32A13.75,13.75,0,0,0,385,58.45c3.15-2.16,7.2-4.15,8.28-8C394.67,45.41,390.85,39,386.1,36.59Z" fill="#ed4f43" stroke="#f2513b" stroke-miterlimit="10" stroke-width="4" opacity="0.82" style="isolation:isolate"/><path d="M328.63,67.63a3.83,3.83,0,1,0-3.83-3.83A3.83,3.83,0,0,0,328.63,67.63Z" fill="#000102"/><path d="M378.89,51a3.83,3.83,0,1,0-3.83-3.83A3.83,3.83,0,0,0,378.89,51Z" fill="#000102"/><path d="M456,15.53s-12.8-5.4-17.6,5.6c-3.9,8.9-8.6,13.4-8.9,15.8s-.7,11.5,6.3,13.8c4.2,1.4,11.9,3.7,11.9,3.7l4.4,9.7s1.2,3.3,2.9,2.3c2.5-1.4,12.1-6.2,12.1-6.2l11.9,3.5s6,1.7,7.8-3.4,6.7-17.1,6.7-17.1,9.3-18-4.9-23.3Z" fill="#aa3232" stroke="#000102" stroke-miterlimit="10" stroke-width="2.55"/><path d="M453.52,6.33s-12.8-5.4-17.6,5.6a95.79,95.79,0,0,0-6.1,22.2c-.3,2.4.3,6.3,5.2,8.7a67.81,67.81,0,0,0,9.9,3.5l4.8,8.6s1.7,3.3,2.9,2.3c2.3-1.7,12.1-6.2,12.1-6.2l11.8,3.4s6,1.7,7.8-3.4,7-19.7,7-19.7,5.5-10.1-7.1-15.4Z" fill="#ff5959" stroke="#000102" stroke-miterlimit="10" stroke-width="2.55"/><path d="M462.82,22.13a7.06,7.06,0,0,0-7-4.5,7.69,7.69,0,0,0-7,9.4c1,4.2,7.4,13.7,7.4,13.7s10.4-.4,16.2-6.2S473.32,17.23,462.82,22.13Z" fill="#fff"/></g></g></svg>