<svg viewBox="0 0 17 15" fill="none" xmlns="http://www.w3.org/2000/svg">
    <path fill-rule="evenodd" clip-rule="evenodd"
          d="M0.000164644 7.00069C0.000164667 6.73547 0.105521 6.48112 0.293057 6.29358C0.480593 6.10604 0.734948 6.00069 1.00016 6.00069L12.5862 6.00069L8.29217 1.70869C8.19919 1.61571 8.12544 1.50533 8.07512 1.38385C8.0248 1.26238 7.9989 1.13217 7.9989 1.00069C7.9989 0.869199 8.0248 0.738999 8.07512 0.61752C8.12544 0.496042 8.19919 0.385663 8.29217 0.292687C8.38514 0.199711 8.49552 0.125959 8.617 0.07564C8.73848 0.0253223 8.86868 -0.000575689 9.00017 -0.000575678C9.13165 -0.000575666 9.26185 0.0253223 9.38333 0.0756401C9.50481 0.125959 9.61519 0.199711 9.70817 0.292687L15.7082 6.29269C15.8013 6.38558 15.8752 6.49593 15.9256 6.61742C15.976 6.73891 16.002 6.86915 16.002 7.00069C16.002 7.13222 15.976 7.26247 15.9256 7.38396C15.8752 7.50545 15.8013 7.6158 15.7082 7.70869L9.70816 13.7087C9.52039 13.8965 9.26572 14.002 9.00016 14.002C8.73461 14.002 8.47994 13.8965 8.29216 13.7087C8.10439 13.5209 7.9989 13.2662 7.9989 13.0007C7.9989 12.7351 8.10439 12.4805 8.29216 12.2927L12.5862 8.00069L1.00016 8.00069C0.734948 8.00069 0.480593 7.89533 0.293057 7.70779C0.105521 7.52026 0.000164621 7.2659 0.000164644 7.00069Z"
          fill="white"/>
</svg>
