<svg viewBox="0 0 13 11" fill="none" xmlns="http://www.w3.org/2000/svg">
    <path fill-rule="evenodd" clip-rule="evenodd"
          d="M0.000122551 5.5C0.000122569 5.29165 0.0791402 5.09184 0.219793 4.94451C0.360445 4.79719 0.551211 4.71443 0.750124 4.71443L9.43962 4.71443L6.21912 1.34275C6.14939 1.26971 6.09408 1.183 6.05634 1.08757C6.0186 0.992139 5.99918 0.889857 5.99918 0.786564C5.99918 0.683271 6.0186 0.580988 6.05634 0.485558C6.09408 0.390128 6.14939 0.303418 6.21912 0.230379C6.28886 0.15734 6.37164 0.099401 6.46275 0.0598721C6.55386 0.0203443 6.65151 -4.67708e-07 6.75012 -4.59087e-07C6.84874 -4.50466e-07 6.94639 0.0203443 7.0375 0.0598722C7.12861 0.099401 7.21139 0.15734 7.28112 0.230379L11.7811 4.94381C11.851 5.01679 11.9064 5.10348 11.9442 5.19892C11.982 5.29436 12.0015 5.39667 12.0015 5.5C12.0015 5.60333 11.982 5.70564 11.9442 5.80108C11.9064 5.89652 11.851 5.98321 11.7811 6.05619L7.28112 10.7696C7.14029 10.9171 6.94929 11 6.75012 11C6.55096 11 6.35995 10.9171 6.21912 10.7696C6.07829 10.6221 5.99918 10.422 5.99918 10.2134C5.99918 10.0048 6.07829 9.80476 6.21912 9.65725L9.43962 6.28557L0.750123 6.28557C0.551211 6.28557 0.360444 6.20281 0.219793 6.05548C0.0791402 5.90816 0.000122533 5.70835 0.000122551 5.5Z"
          fill="white"/>
</svg>
