<svg width="16" height="17" viewBox="0 0 16 17" fill="none" xmlns="http://www.w3.org/2000/svg">
<path d="M5.57552 7.01318C5.57552 6.11718 4.8488 5.39062 3.95264 5.39062C3.05648 5.39062 2.33008 6.11718 2.33008 7.01318C2.33008 7.90982 3.05632 8.63606 3.95264 8.63606C4.84896 8.63606 5.57552 7.90982 5.57552 7.01318Z" fill="#FB8A76"/>
<path d="M12.0464 5.70801C11.1504 5.70801 10.4238 6.43457 10.4238 7.33057C10.4238 8.22721 11.1504 8.95313 12.0464 8.95313C12.9425 8.95313 13.6691 8.22721 13.6691 7.33057C13.6691 6.43457 12.9427 5.70801 12.0464 5.70801Z" fill="#FB8A76"/>
<path d="M10.5727 9.13617C10.4599 8.99713 10.3003 8.83617 10.1169 8.66737C9.62761 8.03329 8.86233 7.62305 7.99961 7.62305C7.23177 7.62305 6.54153 7.94817 6.05369 8.46625C5.77657 8.70737 5.53017 8.94273 5.37337 9.13633L5.26841 9.26449C4.77881 9.86145 4.16937 10.6042 4.17385 11.8645C4.17817 13.0349 5.13129 13.9877 6.29833 13.9877C6.6222 13.9884 6.94185 13.9143 7.23235 13.7711C7.52285 13.6279 7.77634 13.4195 7.97305 13.1622C8.16979 13.4196 8.42335 13.628 8.71395 13.7712C9.00454 13.9144 9.3243 13.9885 9.64825 13.9877C10.8148 13.9877 11.7678 13.035 11.7723 11.8645C11.7767 10.6042 11.1671 9.86145 10.6777 9.26449L10.5727 9.13617Z" fill="#FB8A76"/>
<path d="M8.11222 6.5887C9.0997 6.5887 9.90022 5.78818 9.90022 4.8007C9.90022 3.81321 9.0997 3.0127 8.11222 3.0127C7.12473 3.0127 6.32422 3.81321 6.32422 4.8007C6.32422 5.78818 7.12473 6.5887 8.11222 6.5887Z" fill="#FB8A76"/>
</svg>
