<svg width="10" height="14" viewBox="0 0 10 14" fill="none" xmlns="http://www.w3.org/2000/svg">
<path d="M6.66667 0.5V1.16667H8.86667L6 4.03333C5.33333 3.5 4.53333 3.16667 3.66667 3.16667C1.66667 3.16667 0 4.83333 0 6.83333C0 8.7 1.46667 10.3 3.33333 10.5V11.8333H2V12.5H3.33333V13.8333H4V12.5H5.33333V11.8333H4V10.5C5.86667 10.3 7.33333 8.76667 7.33333 6.83333C7.33333 5.96667 7 5.16667 6.46667 4.5L9.33333 1.63333V3.83333H10V0.5H6.66667ZM3.66667 3.83333C4.33333 3.83333 5 4.1 5.53333 4.5C5.66667 4.63333 5.86667 4.76667 6 4.96667C6.4 5.5 6.66667 6.16667 6.66667 6.83333C6.66667 8.5 5.33333 9.83333 3.66667 9.83333C2 9.83333 0.666667 8.5 0.666667 6.83333C0.666667 5.16667 2 3.83333 3.66667 3.83333Z" fill="#2CBB69"/>
</svg>
