<svg width="24" height="24" viewBox="0 0 24 24" fill="none" xmlns="http://www.w3.org/2000/svg">
<path d="M7.6 0.899986C8.58505 0.899986 9.4711 1.33229 10.075 2.01704C10.6163 1.40316 11.3665 1.01236 12.1798 0.92051C12.9931 0.828664 13.8115 1.04233 14.4761 1.52002C15.1407 1.9977 15.6041 2.70532 15.7763 3.50548C15.9484 4.30563 15.8171 5.14122 15.4078 5.84999H17.5C17.9376 5.84999 18.3573 6.02382 18.6667 6.33326C18.9762 6.64269 19.15 7.06238 19.15 7.49999V10.8C19.15 11.2376 18.9762 11.6573 18.6667 11.9667C18.3573 12.2761 17.9376 12.45 17.5 12.45V17.4C17.5 18.2752 17.1523 19.1146 16.5335 19.7334C15.9146 20.3523 15.0752 20.7 14.2 20.7H5.95C5.07479 20.7 4.23542 20.3523 3.61655 19.7334C2.99768 19.1146 2.65 18.2752 2.65 17.4V12.45C2.21239 12.45 1.79271 12.2761 1.48327 11.9667C1.17384 11.6573 1 11.2376 1 10.8V7.49999C1 7.06238 1.17384 6.64269 1.48327 6.33326C1.79271 6.02382 2.21239 5.84999 2.65 5.84999H4.7422C4.45257 5.34833 4.30009 4.77927 4.30008 4.20001C4.30008 3.62074 4.45255 3.05168 4.74218 2.55002C5.0318 2.04836 5.44838 1.63177 5.95003 1.34213C6.45168 1.05249 7.02074 0.9 7.6 0.899986ZM5.95 4.19999C5.95 4.63759 6.12384 5.05728 6.43327 5.36671C6.74271 5.67615 7.16239 5.84999 7.6 5.84999H9.25V4.19999C9.25 3.76238 9.07616 3.34269 8.76673 3.03326C8.45729 2.72382 8.03761 2.54999 7.6 2.54999C7.16239 2.54999 6.74271 2.72382 6.43327 3.03326C6.12384 3.34269 5.95 3.76238 5.95 4.19999ZM10.9 7.49999V10.8H17.5V7.49999H10.9ZM9.25 7.49999H2.65V10.8H9.25V7.49999ZM4.3 12.45V17.4C4.3 17.8376 4.47384 18.2573 4.78327 18.5667C5.09271 18.8761 5.51239 19.05 5.95 19.05H9.25V12.45H4.3ZM10.9 19.05H14.2C14.6376 19.05 15.0573 18.8761 15.3667 18.5667C15.6762 18.2573 15.85 17.8376 15.85 17.4V12.45H10.9V19.05ZM14.2 4.19999C14.2 3.76238 14.0262 3.34269 13.7167 3.03326C13.4073 2.72382 12.9876 2.54999 12.55 2.54999C12.1124 2.54999 11.6927 2.72382 11.3833 3.03326C11.0738 3.34269 10.9 3.76238 10.9 4.19999V5.84999H12.55C12.9876 5.84999 13.4073 5.67615 13.7167 5.36671C14.0262 5.05728 14.2 4.63759 14.2 4.19999Z" fill="black"/>
<path d="M13.1377 19.0582C13.1289 19.0563 13.1289 19.0437 13.1377 19.0418L16.0179 18.421C16.6473 18.2853 17.144 17.8022 17.297 17.1768L18.0414 14.1334C18.0435 14.1248 18.0557 14.1248 18.0578 14.1334L18.8022 17.1768C18.9552 17.8022 19.4519 18.2853 20.0813 18.421L22.9615 19.0418C22.9703 19.0437 22.9703 19.0563 22.9615 19.0582L20.0813 19.679C19.4519 19.8147 18.9552 20.2978 18.8022 20.9232L18.0578 23.9666C18.0557 23.9752 18.0435 23.9752 18.0414 23.9666L17.297 20.9232C17.144 20.2978 16.6473 19.8147 16.0179 19.679L13.1377 19.0582Z" fill="#FB8A76"/>
</svg>
