<svg width="18" height="18" viewBox="0 0 18 18" fill="none" xmlns="http://www.w3.org/2000/svg">
<path fill-rule="evenodd" clip-rule="evenodd" d="M9 0C4.04956 0 0 4.04997 0 9C0 13.95 4.04956 18 9 18C13.9504 18 18 13.95 18 9C18 4.04997 13.9504 0 9 0ZM11.25 13.5C11.6993 13.8375 12.1498 16.2 12.1498 16.2C11.1368 16.65 9.5625 17.0859 7.875 16.7625C7.875 16.7625 6.75 16.2 6.75 14.625C6.75 14.2823 6.77637 13.9769 6.80054 13.6984C6.88843 12.6967 6.94556 12.0423 5.625 11.25C4.5835 10.6254 3.67053 10.4717 3.04541 10.3664C2.65649 10.301 2.37964 10.2543 2.25 10.125C1.91272 9.78751 1.6875 8.77499 2.25 7.875H3.375V5.625H5.625C6.29956 5.17504 7.875 1.23754 7.875 1.23754C8.54956 1.01253 9.73059 0.994949 10.125 1.23754C7.90576 3.90948 9.13733 3.50745 10.2448 3.14573C10.9742 2.90733 11.651 2.68643 11.25 3.375C10.8776 4.05677 9.89099 4.87505 9.0802 5.54775L9.07031 5.55572C8.41443 6.10064 7.875 6.54888 7.875 6.75C7.875 7.20003 8.66272 7.875 9 7.875C9.15601 7.875 9.55481 7.39078 9.98218 6.8716L9.98987 6.86288C10.4821 6.26543 11.0094 5.625 11.25 5.625C11.6993 5.625 12.7123 7.53751 12.375 7.875C12.2289 8.02077 11.4543 8.14554 10.5842 8.28555C9.43945 8.46977 8.12988 8.68044 7.875 9C7.42456 9.5625 7.3125 11.8125 7.875 12.375C8.1991 12.6992 9.12195 12.9113 9.93054 13.0975C10.5249 13.2343 11.0588 13.357 11.25 13.5ZM15.75 10.125C15.8621 11.1375 14.9623 14.175 14.9623 14.175C17.8066 10.8597 16.7629 6.86247 16.5377 6.75C15.8621 6.52499 13.7252 6.52499 13.5 6.75V7.875C13.6241 7.99866 13.8494 7.95232 14.0834 7.90425C14.2756 7.86491 14.4734 7.82433 14.625 7.875C14.9623 7.98747 15.6379 9.11247 15.75 10.125Z" fill="#FB8A76"/>
</svg>
