<svg width="50" height="50" viewBox="0 0 50 50" fill="none" xmlns="http://www.w3.org/2000/svg">
<path d="M25 46.5C37.9787 46.5 48.5 36.8741 48.5 25C48.5 13.1259 37.9787 3.5 25 3.5C12.0213 3.5 1.5 13.1259 1.5 25C1.5 36.8741 12.0213 46.5 25 46.5Z" fill="#FFE500"/>
<path d="M25 42.5C11.7 42.5 2.594 33.933 1.6 23C1.54 23.659 1.5 24.325 1.5 25C1.5 36.874 10.9 46.5 25 46.5C39.1 46.5 48.5 36.874 48.5 25C48.5 24.324 48.461 23.658 48.4 23C47.406 33.933 38.3 42.5 25 42.5Z" fill="#F2C100"/>
<path d="M25 7.00301C28.5899 7.00301 31.5 6.55484 31.5 6.00201C31.5 5.44917 28.5899 5.00101 25 5.00101C21.4101 5.00101 18.5 5.44917 18.5 6.00201C18.5 6.55484 21.4101 7.00301 25 7.00301Z" fill="#FFFACF"/>
<path d="M25 46.5C37.9787 46.5 48.5 36.8741 48.5 25C48.5 13.1259 37.9787 3.5 25 3.5C12.0213 3.5 1.5 13.1259 1.5 25C1.5 36.8741 12.0213 46.5 25 46.5Z" stroke="#45413C" stroke-width="1.25" stroke-miterlimit="10"/>
<path d="M15.5539 24.488C15.5904 24.1894 15.7349 23.9146 15.9603 23.7154C16.1856 23.5162 16.4762 23.4065 16.7769 23.407H33.2229C33.5237 23.4065 33.8142 23.5162 34.0396 23.7154C34.2649 23.9146 34.4095 24.1894 34.4459 24.488C34.7209 26.735 34.2819 31.709 24.9999 31.709C15.7179 31.709 15.2789 26.735 15.5539 24.488Z" fill="#FF6242" stroke="#45413C" stroke-width="1.25" stroke-linecap="round" stroke-linejoin="round"/>
<path d="M34.2489 27.1C34.4839 26.2463 34.5478 25.3545 34.4369 24.476C34.399 24.1799 34.254 23.9079 34.0292 23.7115C33.8044 23.5151 33.5154 23.4078 33.2169 23.41H16.7829C16.4844 23.4078 16.1954 23.5151 15.9706 23.7115C15.7458 23.9079 15.6008 24.1799 15.5629 24.476C15.452 25.3545 15.5159 26.2463 15.7509 27.1C18.7905 26.4525 21.8923 26.1423 24.9999 26.175C28.1075 26.1423 31.2093 26.4525 34.2489 27.1V27.1Z" fill="white" stroke="#45413C" stroke-width="1.25" stroke-linecap="round" stroke-linejoin="round"/>
<path d="M29.669 18.986C29.669 18.986 29.669 15.986 32.069 15.986C34.469 15.986 34.469 18.986 34.469 18.986M15.531 18.986C15.531 18.986 15.531 15.986 17.931 15.986C20.331 15.986 20.331 18.986 20.331 18.986" stroke="#45413C" stroke-width="1.25" stroke-linecap="round" stroke-linejoin="round"/>
</svg>
