<svg width="50" height="50" viewBox="0 0 50 50" fill="none" xmlns="http://www.w3.org/2000/svg">
<path d="M37.2859 29.149C31.0859 22.813 16.1919 16.549 7.77993 15.571C6.68661 15.4085 5.68207 14.876 4.93393 14.0624C4.18579 13.2487 3.73929 12.2031 3.66893 11.1C3.63906 10.3909 3.77137 9.68427 4.05577 9.03398C4.34018 8.38369 4.76919 7.80685 5.31016 7.34737C5.85112 6.88788 6.48978 6.55787 7.17752 6.38244C7.86527 6.20701 8.58397 6.19079 9.27893 6.33502C19.3259 8.52802 33.4229 18.657 40.0999 26.458C40.3387 26.7336 40.4695 27.0863 40.4682 27.4508C40.4669 27.8154 40.3336 28.1672 40.0929 28.441L39.5019 29.112C39.3632 29.2672 39.1939 29.392 39.0046 29.4786C38.8153 29.5652 38.6101 29.6117 38.402 29.6152C38.1939 29.6187 37.9873 29.5791 37.7952 29.4988C37.6031 29.4186 37.4297 29.2995 37.2859 29.149V29.149Z" fill="#FF866E"/>
<path d="M40.1 26.458C33.422 18.658 19.325 8.528 9.27801 6.337C8.21631 6.11273 7.10959 6.26815 6.15073 6.77618C5.19188 7.2842 4.44172 8.11261 4.03101 9.117C4.55187 8.73344 5.14859 8.46545 5.78131 8.33094C6.41402 8.19643 7.06815 8.1985 7.70001 8.337C17.747 10.528 31.843 20.657 38.522 28.458C38.7736 28.7553 38.9005 29.1383 38.876 29.527C39.1188 29.4458 39.3363 29.3027 39.507 29.112L40.098 28.441C40.338 28.1665 40.4704 27.8145 40.4708 27.4499C40.4712 27.0853 40.3394 26.7329 40.1 26.458V26.458Z" fill="#FFA694"/>
<path d="M37.2859 29.149C31.0859 22.813 16.1919 16.549 7.77993 15.571C6.68661 15.4085 5.68207 14.876 4.93393 14.0624C4.18579 13.2487 3.73929 12.2031 3.66893 11.1V11.1C3.63906 10.3909 3.77137 9.68427 4.05577 9.03398C4.34018 8.38369 4.76919 7.80685 5.31016 7.34737C5.85112 6.88788 6.48978 6.55787 7.17752 6.38244C7.86527 6.20701 8.58397 6.19079 9.27893 6.33502C19.3259 8.52802 33.4229 18.657 40.0999 26.458C40.3387 26.7336 40.4695 27.0863 40.4682 27.4508C40.4669 27.8154 40.3336 28.1672 40.0929 28.441L39.5019 29.112C39.3632 29.2672 39.1939 29.392 39.0046 29.4786C38.8153 29.5652 38.6101 29.6117 38.402 29.6152C38.1939 29.6187 37.9873 29.5791 37.7952 29.4988C37.6031 29.4186 37.4297 29.2995 37.2859 29.149V29.149Z" stroke="#45413C" stroke-width="1.25" stroke-linecap="round" stroke-linejoin="round"/>
<path d="M34.7131 30.926C28.3841 26.232 13.7481 22.776 5.81311 23.008C4.82541 23.0296 3.86466 22.6849 3.11596 22.0404C2.36727 21.3958 1.88358 20.497 1.75811 19.517C1.6819 18.9343 1.73422 18.342 1.91137 17.7817C2.08853 17.2214 2.38623 16.7067 2.78357 16.2737C3.1809 15.8407 3.66822 15.5 4.2113 15.2755C4.75437 15.0509 5.34002 14.948 5.92711 14.974C15.3731 15.368 29.6271 22.381 36.7801 28.347C36.9384 28.4801 37.0683 28.6436 37.1623 28.8278C37.2562 29.012 37.3123 29.2132 37.3271 29.4194C37.3419 29.6257 37.3152 29.8328 37.2486 30.0285C37.1819 30.2243 37.0767 30.4047 36.9391 30.559L36.8001 30.716C36.543 31.008 36.185 31.192 35.7979 31.2309C35.4107 31.2699 35.0232 31.1609 34.7131 30.926V30.926Z" fill="#00F5BC"/>
<path d="M36.776 28.348C29.625 22.381 15.369 15.368 5.92299 14.974C4.86581 14.9288 3.83348 15.3025 3.05026 16.014C2.26703 16.7255 1.79619 17.7174 1.73999 18.774C2.13371 18.2935 2.63368 17.9111 3.20045 17.6569C3.76723 17.4026 4.38533 17.2836 5.00599 17.309C14.452 17.703 28.706 24.717 35.859 30.683C36.0007 30.8032 36.1193 30.9483 36.209 31.111C36.4332 31.0286 36.6344 30.8939 36.796 30.718L36.935 30.561C37.0729 30.4067 37.1784 30.2263 37.2452 30.0304C37.312 29.8345 37.3388 29.6273 37.3239 29.4209C37.3091 29.2144 37.253 29.0131 37.1588 28.8288C37.0647 28.6445 36.9345 28.481 36.776 28.348V28.348Z" fill="#8CFFE4"/>
<path d="M34.7131 30.926C28.3841 26.232 13.7481 22.776 5.81311 23.008C4.82541 23.0296 3.86466 22.6849 3.11596 22.0404C2.36727 21.3958 1.88358 20.497 1.75811 19.517V19.517C1.6819 18.9343 1.73422 18.342 1.91137 17.7817C2.08853 17.2214 2.38623 16.7067 2.78357 16.2737C3.1809 15.8407 3.66822 15.5 4.2113 15.2755C4.75437 15.0509 5.34002 14.948 5.92711 14.974C15.3731 15.368 29.6271 22.381 36.7801 28.347C36.9384 28.4801 37.0683 28.6436 37.1623 28.8278C37.2562 29.012 37.3123 29.2132 37.3271 29.4194C37.3419 29.6257 37.3152 29.8328 37.2486 30.0285C37.1819 30.2243 37.0767 30.4047 36.9391 30.559L36.8001 30.716C36.543 31.008 36.185 31.192 35.7979 31.2309C35.4107 31.2699 35.0232 31.1609 34.7131 30.926V30.926Z" stroke="#45413C" stroke-width="1.25" stroke-linecap="round" stroke-linejoin="round"/>
<path d="M32.7689 33.135C26.4279 29.859 12.9889 28.817 5.9079 30.106C5.01451 30.279 4.08873 30.1142 3.30986 29.6437C2.53099 29.1731 1.95445 28.4303 1.6919 27.559C1.54207 27.0474 1.50605 26.5091 1.58637 25.9821C1.66668 25.4551 1.86138 24.952 2.15679 24.5082C2.45221 24.0644 2.84118 23.6907 3.29641 23.4132C3.75163 23.1357 4.26207 22.9612 4.7919 22.902C13.2849 21.936 26.9789 26.192 34.2499 30.524C34.4221 30.6278 34.5717 30.7651 34.6898 30.9278C34.8079 31.0906 34.892 31.2754 34.9373 31.4713C34.9825 31.6672 34.9879 31.8702 34.9532 32.0682C34.9184 32.2662 34.8442 32.4552 34.7349 32.624C34.531 32.9402 34.2157 33.1683 33.8516 33.2629C33.4874 33.3576 33.101 33.3119 32.7689 33.135Z" fill="#BF8DF2"/>
<path d="M34.2519 30.524C26.9809 26.192 13.2869 21.935 4.7939 22.9C4.264 22.9591 3.75346 23.1334 3.29815 23.4109C2.84283 23.6883 2.45378 24.0621 2.15833 24.5059C1.86289 24.9497 1.66821 25.4529 1.58797 25.98C1.50774 26.5071 1.5439 27.0454 1.6939 27.557C1.6939 27.57 1.7049 27.582 1.7089 27.596C1.98639 27.1729 2.34915 26.8125 2.77396 26.5376C3.19876 26.2628 3.67626 26.0797 4.1759 26C12.6169 24.653 26.4879 28.289 33.9469 32.29C34.1871 32.4199 34.386 32.6146 34.5209 32.852C34.6009 32.7836 34.6733 32.7069 34.7369 32.623C34.846 32.4543 34.9201 32.2653 34.9548 32.0674C34.9895 31.8695 34.984 31.6666 34.9388 31.4708C34.8935 31.2751 34.8094 31.0904 34.6914 30.9277C34.5734 30.7651 34.424 30.6278 34.2519 30.524V30.524Z" fill="#DABFF5"/>
<path d="M32.7689 33.135C26.4279 29.859 12.9889 28.817 5.9079 30.106C5.01451 30.279 4.08873 30.1142 3.30986 29.6437C2.53099 29.1731 1.95445 28.4303 1.6919 27.559V27.559C1.54207 27.0474 1.50605 26.5091 1.58637 25.9821C1.66668 25.4551 1.86138 24.952 2.15679 24.5082C2.45221 24.0644 2.84118 23.6907 3.29641 23.4132C3.75163 23.1357 4.26207 22.9612 4.7919 22.902C13.2849 21.936 26.9789 26.192 34.2499 30.524C34.4221 30.6278 34.5717 30.7651 34.6898 30.9278C34.8079 31.0906 34.892 31.2754 34.9373 31.4713C34.9825 31.6672 34.9879 31.8702 34.9532 32.0682C34.9184 32.2662 34.8442 32.4552 34.7349 32.624V32.624C34.531 32.9402 34.2157 33.1683 33.8516 33.2629C33.4874 33.3576 33.101 33.3119 32.7689 33.135Z" stroke="#45413C" stroke-width="1.25" stroke-linecap="round" stroke-linejoin="round"/>
<path d="M47.1489 28.126C46.4265 27.6878 45.6458 27.3538 44.8299 27.134C44.3509 26.9913 43.9283 26.7027 43.6212 26.3083C43.3141 25.9139 43.1378 25.4334 43.1169 24.934C43.013 23.8365 42.8041 22.7515 42.4929 21.694C42.3525 21.2963 42.1212 20.9369 41.8176 20.6443C41.5139 20.3516 41.1461 20.1339 40.7436 20.0082C40.341 19.8826 39.9146 19.8526 39.4984 19.9206C39.0822 19.9886 38.6876 20.1528 38.3459 20.4C37.4378 21.1141 36.6042 21.9181 35.8579 22.8C35.6177 23.1286 35.2977 23.3907 34.9283 23.5616C34.5588 23.7325 34.1519 23.8066 33.7459 23.777C32.7879 23.69 31.9069 23.237 30.9359 23.189C30.4878 23.1634 30.0403 23.2494 29.6336 23.4392C29.2269 23.6291 28.8735 23.9168 28.6053 24.2767C28.3371 24.6366 28.1623 25.0574 28.0966 25.5014C28.0309 25.9455 28.0764 26.3988 28.2289 26.821C28.6759 28.021 29.6659 28.961 30.0229 30.208C30.1203 30.4947 30.1501 30.8001 30.1098 31.1002C30.0696 31.4003 29.9604 31.687 29.7909 31.938C28.9749 33.145 27.7989 34.628 28.3569 36.171C28.9629 37.847 30.5279 38.015 32.0789 37.719C33.1719 37.51 34.3189 36.891 35.4559 37.13C36.0161 37.289 36.4945 37.6556 36.7939 38.155C37.6599 39.255 38.7179 40.807 40.2629 40.873C43.0759 40.995 43.1009 37.973 43.2629 35.979C43.311 35.5447 43.4829 35.1333 43.758 34.7938C44.0331 34.4543 44.4 34.201 44.8149 34.064C46.0599 33.504 47.7819 32.832 48.2979 31.437C48.4661 30.9598 48.5009 30.4459 48.3987 29.9504C48.2965 29.4549 48.0612 28.9967 47.7179 28.625C47.5473 28.4381 47.3565 28.2708 47.1489 28.126V28.126Z" fill="#FFF48C"/>
<path d="M44.161 28.615C43.6698 28.3167 43.1389 28.0894 42.584 27.94C42.2578 27.8425 41.9703 27.6455 41.7616 27.3766C41.5529 27.1076 41.4335 26.7802 41.42 26.44C41.3492 25.6948 41.2072 24.9581 40.996 24.24C40.9007 23.9694 40.7436 23.7248 40.5371 23.5257C40.3306 23.3265 40.0805 23.1783 39.8067 23.0929C39.5328 23.0074 39.2428 22.9871 38.9597 23.0335C38.6766 23.0798 38.4083 23.1917 38.176 23.36C37.5583 23.8443 36.9913 24.3901 36.484 24.989C36.3205 25.2122 36.1029 25.3903 35.8517 25.5064C35.6005 25.6225 35.324 25.673 35.048 25.653C34.397 25.594 33.798 25.286 33.138 25.253C32.8333 25.2354 32.529 25.2937 32.2524 25.4227C31.9758 25.5517 31.7355 25.7473 31.5532 25.9921C31.3708 26.2368 31.252 26.5229 31.2075 26.8249C31.1629 27.1268 31.194 27.4351 31.298 27.722C31.598 28.54 32.274 29.178 32.517 30.022C32.5832 30.2171 32.6034 30.4249 32.576 30.629C32.5486 30.8332 32.4743 31.0283 32.359 31.199C31.805 32.019 31.005 33.028 31.384 34.076C31.796 35.216 32.86 35.33 33.915 35.129C34.648 34.8459 35.4295 34.71 36.215 34.729C36.5965 34.8378 36.922 35.0882 37.125 35.429C37.713 36.178 38.432 37.229 39.483 37.278C41.395 37.36 41.413 35.305 41.521 33.95C41.5543 33.655 41.6714 33.3758 41.8586 33.1453C42.0458 32.9149 42.2951 32.743 42.577 32.65C43.423 32.269 44.594 31.813 44.944 30.864C45.0586 30.5397 45.0825 30.1903 45.0133 29.8534C44.944 29.5165 44.7842 29.2048 44.551 28.952C44.4335 28.826 44.3028 28.713 44.161 28.615V28.615Z" fill="#FFE500"/>
<path d="M47.1489 28.126C46.4265 27.6878 45.6458 27.3538 44.8299 27.134C44.3509 26.9913 43.9283 26.7027 43.6212 26.3083C43.3141 25.9139 43.1378 25.4334 43.1169 24.934C43.013 23.8365 42.8041 22.7515 42.4929 21.694C42.3525 21.2963 42.1212 20.9369 41.8176 20.6443C41.5139 20.3516 41.1461 20.1339 40.7436 20.0082C40.341 19.8826 39.9146 19.8526 39.4984 19.9206C39.0822 19.9886 38.6876 20.1528 38.3459 20.4C37.4378 21.1141 36.6042 21.9181 35.8579 22.8C35.6177 23.1286 35.2977 23.3907 34.9283 23.5616C34.5588 23.7325 34.1519 23.8066 33.7459 23.777C32.7879 23.69 31.9069 23.237 30.9359 23.189C30.4878 23.1634 30.0403 23.2494 29.6336 23.4392C29.2269 23.6291 28.8735 23.9168 28.6053 24.2767C28.3371 24.6366 28.1623 25.0574 28.0966 25.5014C28.0309 25.9455 28.0764 26.3988 28.2289 26.821C28.6759 28.021 29.6659 28.961 30.0229 30.208C30.1203 30.4947 30.1501 30.8001 30.1098 31.1002C30.0696 31.4003 29.9604 31.687 29.7909 31.938C28.9749 33.145 27.7989 34.628 28.3569 36.171C28.9629 37.847 30.5279 38.015 32.0789 37.719C33.1719 37.51 34.3189 36.891 35.4559 37.13C36.0161 37.289 36.4945 37.6556 36.7939 38.155C37.6599 39.255 38.7179 40.807 40.2629 40.873C43.0759 40.995 43.1009 37.973 43.2629 35.979C43.311 35.5447 43.4829 35.1333 43.758 34.7938C44.0331 34.4543 44.4 34.201 44.8149 34.064C46.0599 33.504 47.7819 32.832 48.2979 31.437C48.4661 30.9598 48.5009 30.4459 48.3987 29.9504C48.2965 29.4549 48.0612 28.9967 47.7179 28.625C47.5473 28.4381 47.3565 28.2708 47.1489 28.126V28.126Z" stroke="#45413C" stroke-width="1.25" stroke-linecap="round" stroke-linejoin="round"/>
<path d="M23.9269 39.519C23.6861 39.3729 23.4259 39.2615 23.1539 39.188C22.9941 39.1404 22.8532 39.0441 22.7508 38.9125C22.6485 38.7809 22.5898 38.6206 22.5829 38.454C22.5481 38.0879 22.4785 37.7259 22.3749 37.373C22.3278 37.2405 22.2505 37.1208 22.1491 37.0233C22.0477 36.9258 21.925 36.8533 21.7907 36.8115C21.6564 36.7697 21.5142 36.7597 21.3754 36.7824C21.2366 36.805 21.105 36.8597 20.9909 36.942C20.6883 37.18 20.4105 37.448 20.1619 37.742C20.0822 37.851 19.9763 37.938 19.8539 37.9951C19.7315 38.0521 19.5966 38.0771 19.4619 38.068C19.1419 38.039 18.8479 37.887 18.5249 37.868C18.3753 37.8587 18.2258 37.8868 18.0899 37.9499C17.9539 38.0131 17.8359 38.1091 17.7465 38.2294C17.6571 38.3497 17.5991 38.4904 17.5779 38.6388C17.5567 38.7871 17.5729 38.9385 17.6249 39.079C17.7739 39.479 18.1039 39.792 18.2249 40.208C18.2574 40.3036 18.2674 40.4054 18.2541 40.5055C18.2407 40.6056 18.2044 40.7013 18.1479 40.785C17.8759 41.185 17.4829 41.685 17.6689 42.196C17.8689 42.756 18.3929 42.811 18.9109 42.713C19.2696 42.5734 19.6521 42.5054 20.0369 42.513C20.2236 42.5664 20.383 42.6886 20.4829 42.855C20.7719 43.222 21.1249 43.739 21.6399 43.762C22.5779 43.802 22.5859 42.794 22.6399 42.13C22.6561 41.9851 22.7135 41.8479 22.8053 41.7346C22.8971 41.6213 23.0195 41.5368 23.1579 41.491C23.5729 41.304 24.1469 41.08 24.3189 40.615C24.3753 40.4559 24.3871 40.2844 24.3531 40.1191C24.3191 39.9538 24.2405 39.8009 24.1259 39.677C24.0658 39.617 23.999 39.564 23.9269 39.519V39.519ZM39.1499 10.041C38.8726 9.99264 38.5897 9.98422 38.3099 10.016C38.1437 10.0301 37.9772 9.99193 37.8338 9.90676C37.6903 9.82159 37.5771 9.69371 37.5099 9.541C37.3438 9.21318 37.1466 8.90208 36.9209 8.612C36.8296 8.50465 36.7144 8.42024 36.5845 8.36556C36.4547 8.31088 36.3138 8.28746 36.1732 8.29719C36.0326 8.30692 35.8963 8.34952 35.7752 8.42157C35.6541 8.49362 35.5516 8.5931 35.4759 8.712C35.2823 9.04543 35.1228 9.39754 34.9999 9.763C34.9653 9.89423 34.8978 10.0145 34.8039 10.1125C34.7099 10.2104 34.5926 10.2829 34.4629 10.323C34.1559 10.413 33.8269 10.38 33.5199 10.484C33.3767 10.5294 33.2472 10.6098 33.143 10.7181C33.0389 10.8263 32.9635 10.9589 32.9238 11.1037C32.884 11.2486 32.8811 11.4011 32.9154 11.5473C32.9496 11.6936 33.02 11.8289 33.1199 11.941C33.4059 12.259 33.8269 12.43 34.0899 12.773C34.1551 12.8503 34.2015 12.9416 34.2256 13.0397C34.2497 13.1379 34.2509 13.2403 34.2289 13.339C34.1229 13.813 33.9389 14.417 34.2999 14.827C34.6919 15.274 35.1999 15.135 35.6439 14.854C35.9579 14.654 36.2379 14.324 36.6199 14.259C36.8131 14.2401 37.0062 14.2955 37.1599 14.414C37.5599 14.65 38.0809 15.003 38.5689 14.835C39.4559 14.53 39.0959 13.589 38.9019 12.951C38.864 12.8102 38.8672 12.6615 38.9114 12.5225C38.9555 12.3835 39.0387 12.2601 39.1509 12.167C39.4689 11.841 39.9209 11.423 39.9109 10.927C39.9048 10.7588 39.853 10.5955 39.7611 10.4545C39.6691 10.3135 39.5404 10.2003 39.3889 10.127C39.3129 10.0892 39.2327 10.0603 39.1499 10.041V10.041Z" fill="#FFF48C" stroke="#45413C" stroke-width="1.25" stroke-linecap="round" stroke-linejoin="round"/>
</svg>
