<svg width="50" height="50" viewBox="0 0 50 50" fill="none" xmlns="http://www.w3.org/2000/svg">
<path d="M25.0001 45.699C37.3652 45.699 47.3891 36.5285 47.3891 25.216C47.3891 13.9036 37.3652 4.733 25.0001 4.733C12.635 4.733 2.61108 13.9036 2.61108 25.216C2.61108 36.5285 12.635 45.699 25.0001 45.699Z" fill="#FFE500"/>
<path d="M25.0001 41.885C12.3311 41.885 3.65308 33.726 2.70608 23.309C2.64563 23.9429 2.61393 24.5792 2.61108 25.216C2.61108 36.528 11.5671 45.7 25.0001 45.7C38.4331 45.7 47.3891 36.529 47.3891 25.217C47.3891 24.573 47.3511 23.939 47.2891 23.31C46.3471 33.726 37.6691 41.885 25.0001 41.885V41.885Z" fill="#F2C100"/>
<path d="M24.9999 8.06899C28.4202 8.06899 31.1929 7.64232 31.1929 7.11599C31.1929 6.58967 28.4202 6.16299 24.9999 6.16299C21.5796 6.16299 18.8069 6.58967 18.8069 7.11599C18.8069 7.64232 21.5796 8.06899 24.9999 8.06899Z" fill="#FFFACF"/>
<path d="M25.0001 45.699C37.3652 45.699 47.3891 36.5285 47.3891 25.216C47.3891 13.9036 37.3652 4.733 25.0001 4.733C12.635 4.733 2.61108 13.9036 2.61108 25.216C2.61108 36.5285 12.635 45.699 25.0001 45.699Z" stroke="#45413C" stroke-width="1.25" stroke-miterlimit="10"/>
<path d="M28.429 18.445C28.429 18.445 28.429 15.588 30.714 15.588C32.999 15.588 33 18.445 33 18.445M29.571 23.585C29.571 23.585 28.806 26.446 25.002 26.445C21.198 26.444 20.433 23.585 20.433 23.585M17 18.445C17 18.445 17 15.588 19.286 15.588C21.572 15.588 21.571 18.445 21.571 18.445" stroke="#45413C" stroke-width="1.25" stroke-linecap="round" stroke-linejoin="round"/>
<path d="M48.5 6.971C48.5009 6.07283 48.2362 5.19444 47.7393 4.44628C47.2423 3.69811 46.5353 3.11357 45.707 2.76613C44.8788 2.41869 43.9663 2.32387 43.0843 2.49359C42.2023 2.66331 41.3902 3.09 40.75 3.72C40.1098 3.09 39.2977 2.66331 38.4157 2.49359C37.5337 2.32387 36.6212 2.41869 35.793 2.76613C34.9647 3.11357 34.2577 3.69811 33.7607 4.44628C33.2638 5.19444 32.9991 6.07283 33 6.971C33 12.441 40.75 16.088 40.75 16.088C40.75 16.088 48.5 12.441 48.5 6.971Z" fill="#FF6196"/>
<path d="M36.809 5.207C37.8617 5.03258 38.9422 5.23325 39.862 5.774C40.1312 5.93217 40.4378 6.01556 40.75 6.01556C41.0622 6.01556 41.3688 5.93217 41.638 5.774C42.5578 5.23325 43.6383 5.03258 44.691 5.207C45.5355 5.34024 46.3242 5.71234 46.9641 6.27936C47.6039 6.84639 48.0682 7.58466 48.302 8.407C48.4275 7.93873 48.4947 7.45675 48.502 6.972C48.5035 6.07334 48.2391 5.19432 47.7421 4.44558C47.2451 3.69684 46.5378 3.11184 45.7091 2.76419C44.8804 2.41655 43.9674 2.3218 43.0849 2.49188C42.2025 2.66196 41.3901 3.08926 40.75 3.72C40.1098 3.09 39.2977 2.66332 38.4157 2.4936C37.5337 2.32388 36.6212 2.4187 35.793 2.76613C34.9647 3.11357 34.2577 3.69812 33.7607 4.44628C33.2638 5.19445 32.9991 6.07283 33 6.971C33.0073 7.45575 33.0745 7.93773 33.2 8.406C33.4338 7.58412 33.8979 6.84625 34.5373 6.27944C35.1768 5.71263 35.965 5.34052 36.809 5.207V5.207Z" fill="#FF87AF"/>
<path d="M48.5 6.971C48.5009 6.07283 48.2362 5.19444 47.7393 4.44628C47.2423 3.69811 46.5353 3.11357 45.707 2.76613C44.8788 2.41869 43.9663 2.32387 43.0843 2.49359C42.2023 2.66331 41.3902 3.09 40.75 3.72C40.1098 3.09 39.2977 2.66331 38.4157 2.49359C37.5337 2.32387 36.6212 2.41869 35.793 2.76613C34.9647 3.11357 34.2577 3.69811 33.7607 4.44628C33.2638 5.19444 32.9991 6.07283 33 6.971C33 12.441 40.75 16.088 40.75 16.088C40.75 16.088 48.5 12.441 48.5 6.971Z" stroke="#45413C" stroke-width="1.25" stroke-linecap="round" stroke-linejoin="round"/>
<path d="M47.5 42.588C47.4993 42.096 47.3535 41.6151 47.0807 41.2056C46.808 40.796 46.4205 40.4761 45.9667 40.2858C45.5129 40.0956 45.0131 40.0434 44.5299 40.136C44.0466 40.2285 43.6014 40.4616 43.25 40.806C42.8986 40.4616 42.4534 40.2285 41.9701 40.136C41.4869 40.0434 40.9871 40.0956 40.5333 40.2858C40.0795 40.4761 39.692 40.796 39.4193 41.2056C39.1465 41.6151 39.0007 42.096 39 42.588C39 45.588 43.25 47.588 43.25 47.588C43.25 47.588 47.5 45.588 47.5 42.588Z" fill="#FF6196"/>
<path d="M41.089 41.621C41.6662 41.5256 42.2586 41.6357 42.763 41.932C42.9106 42.0189 43.0787 42.0647 43.25 42.0647C43.4213 42.0647 43.5894 42.0189 43.737 41.932C44.2414 41.6357 44.8338 41.5256 45.411 41.621C45.8743 41.694 46.307 41.898 46.658 42.209C47.009 42.52 47.2637 42.9249 47.392 43.376C47.4599 43.1187 47.4962 42.8541 47.5 42.588C47.4993 42.096 47.3535 41.6151 47.0807 41.2056C46.808 40.796 46.4205 40.4761 45.9667 40.2858C45.5129 40.0956 45.0131 40.0434 44.5299 40.136C44.0466 40.2285 43.6014 40.4616 43.25 40.806C42.8986 40.4616 42.4534 40.2285 41.9701 40.136C41.4869 40.0434 40.9871 40.0956 40.5333 40.2858C40.0795 40.4761 39.692 40.796 39.4193 41.2056C39.1465 41.6151 39.0007 42.096 39 42.588C39.0038 42.8541 39.0401 43.1187 39.108 43.376C39.2363 42.9249 39.491 42.52 39.842 42.209C40.193 41.898 40.6257 41.694 41.089 41.621V41.621Z" fill="#FF87AF"/>
<path d="M47.5 42.588C47.4993 42.096 47.3535 41.6151 47.0807 41.2056C46.808 40.796 46.4205 40.4761 45.9667 40.2858C45.5129 40.0956 45.0131 40.0434 44.5299 40.136C44.0466 40.2285 43.6014 40.4616 43.25 40.806C42.8986 40.4616 42.4534 40.2285 41.9701 40.136C41.4869 40.0434 40.9871 40.0956 40.5333 40.2858C40.0795 40.4761 39.692 40.796 39.4193 41.2056C39.1465 41.6151 39.0007 42.096 39 42.588C39 45.588 43.25 47.588 43.25 47.588C43.25 47.588 47.5 45.588 47.5 42.588Z" stroke="#45413C" stroke-width="1.25" stroke-linecap="round" stroke-linejoin="round"/>
<path d="M13 36.471C13.0009 35.8045 12.8047 35.1527 12.436 34.5974C12.0673 34.0422 11.5427 33.6084 10.9281 33.3505C10.3135 33.0927 9.63635 33.0224 8.98189 33.1485C8.32743 33.2746 7.72487 33.5913 7.25 34.059C6.77514 33.5913 6.17258 33.2746 5.51812 33.1485C4.86365 33.0224 4.18653 33.0927 3.57192 33.3505C2.95732 33.6084 2.43268 34.0422 2.06401 34.5974C1.69534 35.1527 1.49911 35.8045 1.5 36.471C1.5 40.529 7.25 43.235 7.25 43.235C7.25 43.235 13 40.529 13 36.471Z" fill="#FF6196"/>
<path d="M4.326 35.162C5.10701 35.0323 5.90875 35.1814 6.591 35.583C6.79075 35.7005 7.01827 35.7624 7.25 35.7624C7.48173 35.7624 7.70925 35.7005 7.909 35.583C8.59125 35.1814 9.39299 35.0323 10.174 35.162C10.8005 35.261 11.3855 35.5371 11.8602 35.9577C12.3349 36.3784 12.6794 36.926 12.853 37.536C12.9456 37.1884 12.9949 36.8307 13 36.471C13.0009 35.8045 12.8047 35.1527 12.436 34.5974C12.0673 34.0422 11.5427 33.6084 10.9281 33.3505C10.3135 33.0927 9.63635 33.0224 8.98189 33.1485C8.32743 33.2746 7.72487 33.5913 7.25 34.059C6.77514 33.5913 6.17258 33.2746 5.51812 33.1485C4.86365 33.0224 4.18653 33.0927 3.57192 33.3505C2.95732 33.6084 2.43268 34.0422 2.06401 34.5974C1.69534 35.1527 1.49911 35.8045 1.5 36.471C1.50506 36.8307 1.55444 37.1884 1.647 37.536C1.82063 36.926 2.1651 36.3784 2.63978 35.9577C3.11446 35.5371 3.69954 35.261 4.326 35.162V35.162Z" fill="#FF87AF"/>
<path d="M13 36.471C13.0009 35.8045 12.8047 35.1527 12.436 34.5974C12.0673 34.0422 11.5427 33.6084 10.9281 33.3505C10.3135 33.0927 9.63635 33.0224 8.98189 33.1485C8.32743 33.2746 7.72487 33.5913 7.25 34.059C6.77514 33.5913 6.17258 33.2746 5.51812 33.1485C4.86365 33.0224 4.18653 33.0927 3.57192 33.3505C2.95732 33.6084 2.43268 34.0422 2.06401 34.5974C1.69534 35.1527 1.49911 35.8045 1.5 36.471C1.5 40.529 7.25 43.235 7.25 43.235C7.25 43.235 13 40.529 13 36.471Z" stroke="#45413C" stroke-width="1.25" stroke-linecap="round" stroke-linejoin="round"/>
</svg>
