<svg width="42" height="43" viewBox="0 0 42 43" fill="none" xmlns="http://www.w3.org/2000/svg">
<path d="M21.0001 39.3011C31.3868 39.3011 39.8069 31.4145 39.8069 21.6858C39.8069 11.957 31.3868 4.07037 21.0001 4.07037C10.6134 4.07037 2.19336 11.957 2.19336 21.6858C2.19336 31.4145 10.6134 39.3011 21.0001 39.3011Z" fill="#FFE500"/>
<path d="M21.0001 36.0211C10.3582 36.0211 3.06864 29.0043 2.27316 20.0457C2.22238 20.5909 2.19575 21.1381 2.19336 21.6857C2.19336 31.4141 9.7164 39.302 21.0001 39.302C32.2838 39.302 39.8069 31.4149 39.8069 21.6866C39.8069 21.1328 39.775 20.5875 39.7229 20.0466C38.9316 29.0043 31.6421 36.0211 21.0001 36.0211V36.0211Z" fill="#F2C100"/>
<path d="M21 6.93933C23.873 6.93933 26.2021 6.57239 26.2021 6.11975C26.2021 5.66711 23.873 5.30017 21 5.30017C18.1269 5.30017 15.7979 5.66711 15.7979 6.11975C15.7979 6.57239 18.1269 6.93933 21 6.93933Z" fill="#FFFACF"/>
<path d="M21.0001 39.3011C31.3868 39.3011 39.8069 31.4145 39.8069 21.6858C39.8069 11.957 31.3868 4.07037 21.0001 4.07037C10.6134 4.07037 2.19336 11.957 2.19336 21.6858C2.19336 31.4145 10.6134 39.3011 21.0001 39.3011Z" stroke="#45413C" stroke-width="1.25" stroke-miterlimit="10"/>
<path d="M23.8804 15.8627C23.8804 15.8627 23.8804 13.4057 25.7998 13.4057C27.7192 13.4057 27.72 15.8627 27.72 15.8627M24.8397 20.2831C24.8397 20.2831 24.1971 22.7436 21.0017 22.7427C17.8063 22.7419 17.1637 20.2831 17.1637 20.2831M14.28 15.8627C14.28 15.8627 14.28 13.4057 16.2003 13.4057C18.1205 13.4057 18.1197 15.8627 18.1197 15.8627" stroke="#45413C" stroke-width="1.25" stroke-linecap="round" stroke-linejoin="round"/>
<path d="M40.74 5.99506C40.7407 5.22263 40.5184 4.46722 40.1009 3.8238C39.6835 3.18038 39.0896 2.67767 38.3939 2.37887C37.6981 2.08007 36.9316 1.99853 36.1908 2.14449C35.4499 2.29045 34.7677 2.65739 34.23 3.1992C33.6922 2.65739 33.01 2.29045 32.2692 2.14449C31.5283 1.99853 30.7618 2.08007 30.0661 2.37887C29.3704 2.67767 28.7764 3.18038 28.359 3.8238C27.9416 4.46722 27.7192 5.22263 27.72 5.99506C27.72 10.6993 34.23 13.8357 34.23 13.8357C34.23 13.8357 40.74 10.6993 40.74 5.99506Z" fill="#FF6196"/>
<path d="M30.9195 4.478C31.8038 4.328 32.7114 4.50058 33.4841 4.96562C33.7102 5.10164 33.9677 5.17336 34.23 5.17336C34.4922 5.17336 34.7498 5.10164 34.9759 4.96562C35.7486 4.50058 36.6562 4.328 37.5404 4.478C38.2498 4.59259 38.9123 4.9126 39.4498 5.40024C39.9873 5.88788 40.3772 6.52279 40.5737 7.23C40.6791 6.82729 40.7355 6.41278 40.7417 5.9959C40.7429 5.22305 40.5208 4.4671 40.1033 3.82318C39.6859 3.17927 39.0917 2.67616 38.3956 2.37719C37.6995 2.07821 36.9326 1.99673 36.1913 2.143C35.4501 2.28927 34.7677 2.65675 34.23 3.19918C33.6922 2.65738 33.01 2.29043 32.2692 2.14448C31.5283 1.99852 30.7618 2.08006 30.0661 2.37886C29.3704 2.67765 28.7764 3.18036 28.359 3.82379C27.9416 4.46721 27.7192 5.22262 27.72 5.99504C27.7261 6.41192 27.7825 6.82643 27.888 7.22914C28.0844 6.52232 28.4742 5.88776 29.0113 5.4003C29.5485 4.91284 30.2106 4.59283 30.9195 4.478V4.478Z" fill="#FF87AF"/>
<path d="M40.74 5.99506C40.7407 5.22263 40.5184 4.46722 40.1009 3.8238C39.6835 3.18038 39.0896 2.67767 38.3939 2.37887C37.6981 2.08007 36.9316 1.99853 36.1908 2.14449C35.4499 2.29045 34.7677 2.65739 34.23 3.1992C33.6922 2.65739 33.01 2.29045 32.2692 2.14449C31.5283 1.99853 30.7618 2.08007 30.0661 2.37887C29.3704 2.67767 28.7764 3.18038 28.359 3.8238C27.9416 4.46722 27.7192 5.22263 27.72 5.99506C27.72 10.6993 34.23 13.8357 34.23 13.8357C34.23 13.8357 40.74 10.6993 40.74 5.99506Z" stroke="#45413C" stroke-width="1.25" stroke-linecap="round" stroke-linejoin="round"/>
<path d="M39.9 36.6257C39.8995 36.2025 39.7769 35.789 39.5478 35.4368C39.3187 35.0846 38.9932 34.8094 38.612 34.6458C38.2309 34.4822 37.811 34.4374 37.4051 34.5169C36.9991 34.5965 36.6252 34.797 36.33 35.0932C36.0348 34.797 35.6609 34.5965 35.2549 34.5169C34.849 34.4374 34.4291 34.4822 34.048 34.6458C33.6668 34.8094 33.3413 35.0846 33.1122 35.4368C32.8831 35.789 32.7606 36.2025 32.76 36.6257C32.76 39.2057 36.33 40.9257 36.33 40.9257C36.33 40.9257 39.9 39.2057 39.9 36.6257Z" fill="#FF6196"/>
<path d="M34.5148 35.7941C34.9996 35.712 35.4972 35.8067 35.9209 36.0615C36.0449 36.1362 36.1861 36.1757 36.33 36.1757C36.4739 36.1757 36.6151 36.1362 36.7391 36.0615C37.1628 35.8067 37.6604 35.712 38.1452 35.7941C38.5344 35.8568 38.8979 36.0323 39.1927 36.2997C39.4876 36.5672 39.7015 36.9154 39.8093 37.3034C39.8663 37.0821 39.8968 36.8545 39.9 36.6257C39.8995 36.2025 39.7769 35.789 39.5478 35.4368C39.3187 35.0846 38.9932 34.8094 38.612 34.6458C38.2309 34.4822 37.811 34.4374 37.4051 34.5169C36.9991 34.5965 36.6252 34.797 36.33 35.0932C36.0348 34.797 35.6609 34.5965 35.2549 34.5169C34.849 34.4374 34.4291 34.4822 34.048 34.6458C33.6668 34.8094 33.3413 35.0846 33.1122 35.4368C32.8831 35.789 32.7606 36.2025 32.76 36.6257C32.7632 36.8545 32.7937 37.0821 32.8507 37.3034C32.9585 36.9154 33.1724 36.5672 33.4673 36.2997C33.7622 36.0323 34.1256 35.8568 34.5148 35.7941V35.7941Z" fill="#FF87AF"/>
<path d="M39.9 36.6257C39.8995 36.2025 39.7769 35.789 39.5478 35.4368C39.3187 35.0846 38.9932 34.8094 38.612 34.6458C38.2309 34.4822 37.811 34.4374 37.4051 34.5169C36.9991 34.5965 36.6252 34.797 36.33 35.0932C36.0348 34.797 35.6609 34.5965 35.2549 34.5169C34.849 34.4374 34.4291 34.4822 34.048 34.6458C33.6668 34.8094 33.3413 35.0846 33.1122 35.4368C32.8831 35.789 32.7606 36.2025 32.76 36.6257C32.76 39.2057 36.33 40.9257 36.33 40.9257C36.33 40.9257 39.9 39.2057 39.9 36.6257Z" stroke="#45413C" stroke-width="1.25" stroke-linecap="round" stroke-linejoin="round"/>
<path d="M10.92 31.3651C10.9208 30.7919 10.7559 30.2313 10.4462 29.7538C10.1366 29.2763 9.69587 28.9032 9.1796 28.6815C8.66333 28.4598 8.09454 28.3993 7.5448 28.5077C6.99505 28.6161 6.4889 28.8886 6.09001 29.2908C5.69113 28.8886 5.18497 28.6161 4.63523 28.5077C4.08548 28.3993 3.5167 28.4598 3.00043 28.6815C2.48416 28.9032 2.04346 29.2763 1.73378 29.7538C1.4241 30.2313 1.25926 30.7919 1.26001 31.3651C1.26001 34.855 6.09001 37.1821 6.09001 37.1821C6.09001 37.1821 10.92 34.855 10.92 31.3651Z" fill="#FF6196"/>
<path d="M3.63385 30.2393C4.2899 30.1278 4.96336 30.256 5.53645 30.6014C5.70424 30.7024 5.89536 30.7557 6.09001 30.7557C6.28467 30.7557 6.47578 30.7024 6.64357 30.6014C7.21666 30.256 7.89012 30.1278 8.54617 30.2393C9.0724 30.3245 9.56387 30.5619 9.9626 30.9237C10.3613 31.2854 10.6507 31.7564 10.7965 32.281C10.8743 31.982 10.9158 31.6744 10.92 31.3651C10.9208 30.7919 10.7559 30.2313 10.4462 29.7538C10.1366 29.2763 9.69587 28.9032 9.1796 28.6815C8.66333 28.4598 8.09454 28.3993 7.5448 28.5077C6.99505 28.6161 6.4889 28.8886 6.09001 29.2908C5.69113 28.8886 5.18497 28.6161 4.63523 28.5077C4.08548 28.3993 3.5167 28.4598 3.00043 28.6815C2.48416 28.9032 2.04346 29.2763 1.73378 29.7538C1.4241 30.2313 1.25926 30.7919 1.26001 31.3651C1.26426 31.6744 1.30574 31.982 1.38349 32.281C1.52934 31.7564 1.8187 31.2854 2.21743 30.9237C2.61616 30.5619 3.10762 30.3245 3.63385 30.2393V30.2393Z" fill="#FF87AF"/>
<path d="M10.92 31.3651C10.9208 30.7919 10.7559 30.2313 10.4462 29.7538C10.1366 29.2763 9.69587 28.9032 9.1796 28.6815C8.66333 28.4598 8.09454 28.3993 7.5448 28.5077C6.99505 28.6161 6.4889 28.8886 6.09001 29.2908C5.69113 28.8886 5.18497 28.6161 4.63523 28.5077C4.08548 28.3993 3.5167 28.4598 3.00043 28.6815C2.48416 28.9032 2.04346 29.2763 1.73378 29.7538C1.4241 30.2313 1.25926 30.7919 1.26001 31.3651C1.26001 34.855 6.09001 37.1821 6.09001 37.1821C6.09001 37.1821 10.92 34.855 10.92 31.3651Z" stroke="#45413C" stroke-width="1.25" stroke-linecap="round" stroke-linejoin="round"/>
</svg>
