<svg width="24" height="24" viewBox="0 0 24 24" fill="none" xmlns="http://www.w3.org/2000/svg">
    <path d="M1.91085 4.50905C2.92895 3.52443 4.28592 2.983 5.69192 3.00041C7.09793 3.01781 8.44149 3.59268 9.43564 4.60222L10.1175 5.29521L10.7246 4.6789C11.6078 3.78104 12.7689 3.2199 14.0122 3.09013C15.2555 2.96036 16.5048 3.2699 17.5495 3.96654C18.5941 4.66319 19.3701 5.7043 19.7465 6.91425C20.123 8.1242 20.0769 9.42895 19.616 10.6084H18.0532C18.5397 9.75029 18.7024 8.74184 18.5108 7.771C18.3192 6.80015 17.7864 5.93315 17.0118 5.33158C16.2371 4.73 15.2735 4.43489 14.3004 4.50124C13.3273 4.5676 12.4112 4.99089 11.7227 5.69223L10.6166 6.81521C10.4842 6.94956 10.3047 7.02504 10.1175 7.02504C9.93035 7.02504 9.75084 6.94956 9.61847 6.81521L8.43681 5.61555C7.74686 4.9125 6.82592 4.49222 5.85 4.43503C4.87408 4.37784 3.91163 4.68776 3.14659 5.30555C2.38155 5.92334 1.86757 6.80568 1.70289 7.78393C1.53822 8.76218 1.73439 9.76773 2.25391 10.6084H0.665655C0.237377 9.58391 0.127056 8.45117 0.349415 7.36137C0.571775 6.27156 1.11694 5.27652 1.91085 4.50905ZM14.8526 14.1916H16.8009L10.6286 20.7776C10.5623 20.8482 10.4826 20.9044 10.3942 20.9426C10.3058 20.9809 10.2106 21.0004 10.1145 21C10.0184 20.9996 9.92341 20.9793 9.83533 20.9403C9.74724 20.9013 9.66792 20.8445 9.60223 20.7733L3.52592 14.1916H5.27724C5.33653 14.1916 5.39512 14.1888 5.45301 14.183L10.1218 19.2397L14.8526 14.1916ZM7.92503 8.49646C7.86852 8.38155 7.78263 8.28418 7.67634 8.21453C7.57006 8.14487 7.44729 8.10549 7.32088 8.10051C7.19447 8.09553 7.06906 8.12513 6.95778 8.18621C6.8465 8.24729 6.75343 8.33761 6.68831 8.44772L4.77676 11.6834H0.705891C0.518677 11.6834 0.339131 11.7589 0.206751 11.8933C0.0743704 12.0277 0 12.2099 0 12.4C0 12.5901 0.0743704 12.7724 0.206751 12.9068C0.339131 13.0412 0.518677 13.1167 0.705891 13.1167H5.1763C5.2981 13.1166 5.41783 13.0846 5.52383 13.0237C5.62984 12.9628 5.71852 12.8751 5.78124 12.7691L7.2375 10.3045L9.48647 14.8703C9.54067 14.9803 9.62187 15.0743 9.72224 15.1433C9.82261 15.2122 9.93878 15.2538 10.0595 15.2639C10.1803 15.2741 10.3016 15.2525 10.4118 15.2012C10.522 15.15 10.6173 15.0708 10.6886 14.9713L13.0682 11.649L14.607 12.9504C14.7338 13.0577 14.8937 13.1166 15.0588 13.1167H19.2941C19.4813 13.1167 19.6609 13.0412 19.7933 12.9068C19.9256 12.7724 20 12.5901 20 12.4C20 12.2099 19.9256 12.0277 19.7933 11.8933C19.6609 11.7589 19.4813 11.6834 19.2941 11.6834H15.3143L13.3929 10.058C13.3186 9.99522 13.2325 9.94855 13.1398 9.92091C13.0471 9.89327 12.9498 9.88525 12.8539 9.89734C12.758 9.90944 12.6656 9.94139 12.5824 9.99121C12.4991 10.041 12.4269 10.1077 12.37 10.187L10.2298 13.1754L7.92503 8.49646Z"
          fill="#989898"/>
    <path d="M16.5667 18.0833V17.4333H15.9167L13.834 17.4333C13.8339 17.4333 13.8338 17.4333 13.8337 17.4333C13.785 17.4332 13.7384 17.4138 13.7039 17.3794C13.6695 17.3449 13.6501 17.2983 13.65 17.2495V14.7505C13.6501 14.7017 13.6695 14.6551 13.7039 14.6206C13.7384 14.5862 13.785 14.5668 13.8337 14.5667H15.9167H16.5667V13.9167V11.8337C16.5668 11.785 16.5862 11.7384 16.6206 11.7039C16.6551 11.6695 16.7017 11.6501 16.7505 11.65H19.2495C19.2983 11.6501 19.3449 11.6695 19.3794 11.7039C19.4138 11.7384 19.4332 11.785 19.4333 11.8337C19.4333 11.8338 19.4333 11.8339 19.4333 11.834L19.4333 13.9167V14.5667H20.0833H22.1663C22.215 14.5668 22.2616 14.5862 22.2961 14.6206C22.3306 14.6551 22.35 14.7019 22.35 14.7506V17.249C22.3499 17.2979 22.3305 17.3447 22.2959 17.3793C22.2615 17.4137 22.2148 17.4332 22.1661 17.4333H20.0833H19.4333V18.0833V20.1661C19.4332 20.2148 19.4137 20.2615 19.3793 20.2959C19.3447 20.3305 19.2979 20.3499 19.249 20.35H16.7506C16.7019 20.35 16.6551 20.3306 16.6206 20.2961C16.5862 20.2616 16.5668 20.215 16.5667 20.1663V18.0833Z"
          fill="#989898" stroke="white" stroke-width="1.3"/>
</svg>
