<svg width="375" height="598" viewBox="0 0 375 598" fill="none" xmlns="http://www.w3.org/2000/svg">
<path d="M-239 387C-239 150.621 -47.3787 -41 189 -41C425.379 -41 617 150.621 617 387" fill="#FD806D"/>
<path d="M-148 430C-148 243.884 2.87735 93 189 93C375.123 93 526 243.877 526 430" fill="#AF96E2"/>
<g clip-path="url(#clip0_129_101)">
<path d="M108.89 244.96C108.89 244.96 113.02 243.71 115.35 247.47C117.68 251.06 115.71 255.36 112.48 256.79C109.25 258.22 99.5602 258.58 99.5602 258.58C99.5602 258.58 94.7202 251.41 95.8002 244.6C96.8702 237.79 107.1 235.46 108.89 244.96Z" fill="#F1A4A9" stroke="#000102" stroke-width="3.2837" stroke-miterlimit="10"/>
</g>
<path d="M-62 462C-62 323.374 50.381 211 189 211C327.619 211 440 323.381 440 462" fill="#7CD7A5"/>
<path d="M189 598C107.262 598 41 531.962 41 450.5C41 369.038 107.262 303 189 303C270.738 303 337 369.038 337 450.5C337 531.962 270.738 598 189 598Z" fill="#FAE05C"/>
<path d="M69.4521 108.336C69.4521 108.336 70.9287 100.003 79.7675 99.0821C88.6132 98.154 94.4003 105.256 93.9784 112.351C93.5565 119.445 85.66 136.722 85.66 136.722C85.66 136.722 68.2919 138.881 57.0272 131.167C45.7625 123.453 50.5018 103.399 69.4521 108.336Z" fill="#F1A4A9" stroke="#000102" stroke-width="4.9256" stroke-miterlimit="10"/>
<path d="M56.2307 114.745C56.2307 114.745 57.263 111.708 59.8368 112.023C62.4106 112.338 59.94 115.892 59.7336 116.312C58.4948 118.929 58.3916 121.441 59.94 124.268C61.4885 126.99 57.263 128.039 56.2307 125.73C55.2053 123.435 54.0698 119.349 56.2307 114.745Z" fill="white"/>
<path d="M90 112C90 112 77.9668 130.647 69 132.557C69 132.557 77.4451 135.265 82.8238 133.261C82.8238 133.154 89.4713 120.921 90 112Z" fill="#EA8788"/>
<path d="M292.15 65.4378C292.15 65.4378 299.187 61.8357 304.724 67.6751C310.254 73.5076 308.242 81.7022 302.712 85.4289C297.182 89.1556 279.702 93 279.702 93C279.702 93 268.508 81.7022 268.01 69.1644C267.506 56.6198 285.358 48.924 292.15 65.4378Z" fill="#F1A4A9" stroke="#000102" stroke-width="3.7894" stroke-miterlimit="10"/>
<path d="M279.944 60.1663C279.944 60.1663 282.72 59.3498 283.802 61.3354C284.891 63.3275 281.147 63.445 280.67 63.5626C278.135 64.0329 276.327 65.3196 275.245 67.893C274.163 70.4664 271.144 68.0105 272.233 66.0184C273.43 63.9088 275.48 60.9827 279.944 60.1663Z" fill="white"/>
<path d="M301 82.2159C301 82.2159 280.317 84.1229 274 79C274 79 276.478 86.2625 281.062 89C281.062 88.8804 293.82 86.7409 301 82.2159Z" fill="#EA8788"/>
<path d="M308.078 266.037C308.078 266.037 312.439 263.741 315.926 267.566C319.412 271.39 318.169 276.614 314.683 279.031C311.196 281.455 300.356 284 300.356 284C300.356 284 293.377 276.614 293.009 268.582C292.634 260.557 303.842 255.339 308.078 266.037Z" fill="#F1A4A9" stroke="#000102" stroke-width="3.2837" stroke-miterlimit="10"/>
<path d="M301.335 262.142C301.335 262.142 303.099 261.517 303.858 262.886C304.617 264.254 302.094 264.254 301.841 264.379C300.203 264.754 298.938 265.497 298.185 267.24C297.426 268.984 295.409 267.365 296.168 265.997C297.047 264.754 298.312 262.761 301.335 262.142Z" fill="white"/>
<path d="M314 276.926C314 276.926 300.845 278.057 297 275C297 275 298.611 279.415 301.468 281C301.468 281 309.532 279.756 314 276.926Z" fill="#EA8788"/>
<g clip-path="url(#clip1_129_101)">
<path d="M105.12 260.96C105.12 260.96 100.99 259.71 98.6595 263.47C96.3295 267.06 98.2995 271.36 101.53 272.79C104.76 274.22 114.45 274.58 114.45 274.58C114.45 274.58 119.29 267.41 118.21 260.6C117.14 253.79 106.91 251.46 105.12 260.96Z" fill="#F1A4A9" stroke="#000102" stroke-width="3.2837" stroke-miterlimit="10"/>
<path d="M114.09 260.24C114.98 261.5 116.42 259.88 115.52 258.81C114.81 258.09 113.37 256.66 110.68 256.48" fill="white"/>
<path d="M102.07 270.64C102.07 270.64 113.37 269.56 116.24 266.16Z" fill="#EA8788"/>
</g>
<path d="M222.77 177.387C225.401 173.302 229.133 184.496 232.943 187.482C236.714 190.467 240.013 194.199 241.82 198.637C242.331 199.894 242.724 201.387 242.174 202.644C241.742 203.587 240.878 204.254 240.131 205.001C237.657 207.397 236.439 211.011 236.91 214.389C237.146 216.196 237.853 217.924 237.814 219.77C237.774 221.577 236.635 223.62 234.829 223.737C234.829 223.737 225.873 224.759 222.18 220.32C218.488 215.842 210.75 196.084 222.77 177.387Z" fill="#FDB7CF"/>
<path d="M223.634 177.897C224.655 176.483 227.679 182.1 228.151 182.886C228.897 184.064 229.643 185.243 230.468 186.342C231.529 187.717 232.864 188.66 234.121 189.799C235.85 191.37 237.421 193.099 238.717 195.023C240.17 197.184 242.567 200.758 240.524 203.194C239.149 204.843 237.735 205.943 236.832 207.947C236.007 209.753 235.653 211.796 235.81 213.76C236.046 216.51 238.599 222.441 234.003 222.755C231.175 222.952 228.033 222.716 225.44 221.498C220.648 219.259 218.998 212.11 218.056 207.436C216.052 197.223 218.056 186.735 223.634 177.897C224.341 176.797 222.573 175.815 221.905 176.876C216.209 185.91 214.167 196.516 216.013 207.004C217.034 212.739 219.077 220.948 225.008 223.501C227.876 224.719 231.254 225.033 234.318 224.758C238.167 224.444 239.228 220.83 238.56 217.452C237.932 214.271 237.303 211.482 238.835 208.418C239.974 206.14 242.763 204.765 243.313 202.251C243.823 199.894 242.409 197.302 241.27 195.338C239.974 193.099 238.324 191.056 236.439 189.249C234.71 187.56 232.825 186.264 231.411 184.261C230.193 182.532 229.172 180.647 227.994 178.919C226.579 176.797 224.026 173.773 221.866 176.876C221.159 177.937 222.887 178.958 223.634 177.897Z" fill="#2D080C"/>
<path d="M181.997 186.107C174.141 192.627 165.538 198.205 156.425 202.801C152.969 204.529 149.433 206.14 146.37 208.496C143.306 210.853 140.753 214.114 140.124 217.924C139.496 221.734 141.224 226.055 144.759 227.626C147.273 228.765 150.219 228.372 152.969 228.451C155.718 228.529 158.9 229.315 160.157 231.79C161.139 233.675 160.746 236.11 161.925 237.839C162.907 239.292 164.91 239.96 166.56 239.331C166.56 239.331 178.737 242.788 185.925 235.796C193.113 228.844 181.997 186.107 181.997 186.107Z" fill="#FDB7CF"/>
<path d="M181.29 185.4C174.219 191.213 166.56 196.359 158.468 200.64C151.712 204.215 143.306 207.161 140.046 214.742C137.414 220.87 140.321 228.451 147.391 229.315C150.926 229.747 156.622 228.254 159.057 231.79C160.157 233.4 159.882 235.561 160.589 237.289C161.1 238.546 162.003 239.528 163.26 240.078C164.399 240.588 165.538 240.274 166.403 240.274C166.874 240.274 167.463 240.51 167.934 240.628C170.213 241.06 172.57 241.256 174.926 241.099C179.483 240.863 185.729 239.174 187.889 234.657C189.46 231.357 189.421 227.272 189.303 223.698C189.146 218.67 188.478 213.642 187.693 208.654C186.475 200.994 184.904 193.334 182.94 185.832C182.625 184.575 180.701 185.125 181.015 186.382C182.429 191.802 183.607 197.302 184.629 202.801C186.278 211.442 188.125 220.791 187.103 229.59C186.632 233.793 184.904 236.267 180.779 237.917C176.419 239.646 171.745 239.292 167.228 238.467C166.874 238.389 166.638 238.349 166.285 238.349C165.067 238.349 164.321 238.703 163.221 237.76C162.278 236.935 162.082 235.718 161.885 234.539C161.375 231.554 160.314 229.354 157.368 228.176C153.99 226.84 150.416 227.862 146.959 227.194C143.109 226.447 140.87 222.952 140.988 219.141C141.263 209.675 152.851 205.786 159.725 202.133C167.856 197.812 175.516 192.627 182.625 186.775C183.686 186.028 182.272 184.614 181.29 185.4Z" fill="#2D080C"/>
<path d="M162.239 247.07C160.747 251.862 157.683 255.947 154.815 260.032C146.566 271.698 139.103 283.993 132.543 296.72C129.754 302.14 127.044 307.915 127.083 314.042C127.083 315.181 127.241 316.438 128.105 317.185C129.872 318.756 132.543 316.792 134.075 314.985C136.943 311.568 165.617 278.297 168.446 274.919" fill="#FDBFB1"/>
<path d="M161.257 246.834C159.057 253.472 154.226 259.011 150.337 264.746C146.252 270.756 142.402 276.962 138.749 283.247C135.214 289.374 131.64 295.62 128.851 302.14C127.554 305.165 126.573 308.347 126.219 311.607C125.983 313.807 125.708 317.067 128.026 318.363C131.129 320.091 134.075 316.517 135.882 314.396C137.571 312.432 139.26 310.429 140.949 308.465C146.252 302.298 151.555 296.131 156.818 290.003C160.943 285.211 165.067 280.458 169.152 275.626C169.977 274.644 168.563 273.23 167.738 274.212C159.686 283.797 151.437 293.224 143.306 302.69C140.046 306.501 136.785 310.311 133.525 314.121C132.897 314.828 132.229 315.574 131.443 316.085C130.461 316.713 129.558 317.067 128.772 316.124C127.987 315.181 128.104 314.199 128.144 313.021C128.301 309.721 129.244 306.501 130.501 303.437C133.093 297.152 136.589 291.142 139.967 285.211C143.777 278.572 147.823 272.091 152.105 265.728C156.111 259.836 160.943 254.179 163.221 247.345C163.614 246.127 161.65 245.616 161.257 246.834Z" fill="#2D080C"/>
<path d="M195.391 147.062C195.391 147.062 180.857 160.928 181.525 176.758C182.154 192.588 187.339 207.436 184.432 216.47C181.525 225.505 172.805 233.597 166.009 241.649C160.864 247.737 155.679 253.59 161.806 272.013C167.934 290.435 162.788 288.785 162.788 303.319C162.788 317.852 163.771 335.293 177.636 343.031C191.502 350.769 226.383 364.674 230.586 327.869C234.789 291.063 221.866 295.895 221.866 276.53C221.866 257.165 232.511 246.166 231.215 228.726C229.918 211.285 220.255 214.86 221.198 197.734C222.141 180.608 228.622 165.76 224.733 155.429C220.845 145.098 210.239 138.971 195.391 147.062Z" fill="#FDBFB1" stroke="#2D080C" stroke-width="2" stroke-miterlimit="10"/>
<path d="M181.172 222.716C182.468 225.976 185.729 228.058 188.989 229.393C192.328 230.808 195.981 231.75 199.595 231.475C205.644 231.043 211.143 227.272 214.717 222.362C218.292 217.452 220.492 211.246 221.67 205.276C221.67 205.276 239.464 236.66 248.145 247.03L237.814 267.731L225.519 256.183C225.519 256.183 222.377 264.589 221.67 273.505C220.963 282.422 225.519 291.81 225.519 291.81C225.519 291.81 186.514 309.604 170.645 299.509L160.55 268.949L151.869 264.392C151.869 264.392 164.635 244.399 167.503 239.842C170.409 235.246 181.172 222.716 181.172 222.716Z" fill="#FDE680"/>
<path d="M180.308 223.227C182.232 227.705 187.025 229.983 191.424 231.397C196.334 232.968 201.44 232.968 206.154 230.768C215.935 226.291 220.256 215.724 222.259 205.826C221.63 205.904 221.041 205.983 220.413 206.061C226.776 217.02 233.375 227.862 240.485 238.35C242.645 241.531 244.884 244.752 247.359 247.698C247.32 247.305 247.241 246.873 247.202 246.481C243.745 253.394 240.288 260.268 236.871 267.181C237.382 267.103 237.932 267.063 238.442 266.985C234.357 263.135 230.272 259.286 226.148 255.436C225.558 254.886 224.733 255.161 224.458 255.868C222.259 261.8 220.648 268.438 220.491 274.802C220.334 280.694 221.984 286.939 224.537 292.242C224.655 291.771 224.773 291.338 224.891 290.867C220.373 292.91 215.699 294.638 211.025 296.17C202.265 299.077 192.956 301.551 183.686 301.512C181.486 301.512 179.286 301.355 177.165 300.923C176.262 300.726 175.358 300.491 174.455 300.176C173.551 299.862 172.687 299.234 171.784 298.998C171.391 298.88 171.195 298.684 171.47 299.116C171.43 299.077 171.43 298.998 171.43 298.959C171.273 298.684 171.234 298.37 171.155 298.055C170.763 296.916 170.409 295.738 170.016 294.599C167.659 287.45 165.303 280.301 162.946 273.152C162.474 271.738 162.121 268.909 160.903 267.967C159.607 266.945 157.761 266.317 156.307 265.531C154.972 264.824 153.636 264.117 152.301 263.41C152.419 263.882 152.537 264.314 152.654 264.785C160 253.315 166.835 241.413 175.476 230.886C177.558 228.333 179.679 225.819 181.8 223.345C182.625 222.363 181.211 220.948 180.386 221.93C175.83 227.233 171.155 232.536 167.188 238.271C162.985 244.359 159.175 250.841 155.168 257.086C153.754 259.325 152.34 261.525 150.887 263.764C150.612 264.196 150.769 264.903 151.24 265.139C153.911 266.553 156.582 268.399 159.411 269.459C160.314 269.813 159.332 269.538 159.45 269.184C159.41 269.302 159.646 269.774 159.685 269.892C160.039 270.952 160.393 271.973 160.746 273.034C163.142 280.301 165.538 287.568 167.974 294.874C168.366 296.052 168.759 297.27 169.152 298.448C169.309 298.92 169.427 299.627 169.741 300.059C170.684 301.276 173.198 301.944 174.612 302.376C176.615 302.965 178.697 303.28 180.779 303.437C190.049 304.144 199.555 301.826 208.393 299.116C214.324 297.309 220.256 295.188 225.912 292.595C226.422 292.36 226.501 291.653 226.265 291.221C223.751 286.036 222.219 279.869 222.494 274.094C222.809 268.124 224.301 261.957 226.344 256.379C225.794 256.536 225.244 256.654 224.655 256.811C228.74 260.661 232.825 264.51 236.95 268.36C237.382 268.792 238.207 268.752 238.521 268.163C241.977 261.25 245.434 254.376 248.851 247.463C249.087 247.03 249.009 246.598 248.694 246.245C243.902 240.471 239.856 233.989 235.85 227.665C231.922 221.498 228.151 215.253 224.419 208.968C223.634 207.632 222.848 206.297 222.062 204.961C221.67 204.254 220.413 204.333 220.216 205.197C218.409 214.074 214.913 223.384 206.625 228.097C202.344 230.533 197.591 230.926 192.877 229.629C188.596 228.451 183.764 226.369 181.879 222.087C181.525 221.027 179.836 222.048 180.308 223.227Z" fill="#34000A"/>
<path d="M213.967 172.3C215.086 172.146 215.868 171.117 215.715 170.002C215.562 168.882 214.537 168.101 213.417 168.254C212.298 168.407 211.516 169.436 211.669 170.552C211.822 171.667 212.851 172.453 213.967 172.3Z" fill="#34000A"/>
<path d="M193.683 172.477C194.802 172.323 195.584 171.294 195.431 170.179C195.277 169.059 194.248 168.278 193.133 168.431C192.013 168.584 191.232 169.613 191.385 170.729C191.538 171.844 192.567 172.63 193.683 172.477Z" fill="#34000A"/>
<path d="M222.652 164.189C222.652 164.189 230.351 160.339 233.218 166.231C236.046 172.123 231.097 177.426 227.208 176.797C223.359 176.169 220.57 173.93 220.57 173.93" fill="#FDBFB1"/>
<path d="M222.652 164.189C222.652 164.189 230.351 160.339 233.218 166.231C236.046 172.123 231.097 177.426 227.208 176.797C223.359 176.169 220.57 173.93 220.57 173.93" stroke="#2D080C" stroke-width="2" stroke-miterlimit="10" stroke-linecap="round" stroke-linejoin="round"/>
<path d="M230.665 167.37C227.483 167.017 228.355 173.349 224.694 172.477" stroke="#2D080C" stroke-width="2" stroke-miterlimit="10" stroke-linecap="round" stroke-linejoin="round"/>
<path d="M200.066 316.635C200.066 316.635 206.076 306.186 202.501 300.176C198.927 294.167 198.73 284.464 203.837 282.854C207.254 281.754 209.964 284.111 209.768 286.036C209.532 287.921 208.433 289.61 206.743 289.964C205.054 290.317 205.526 292.085 207.293 295.227C209.1 298.37 209.768 309.682 207.725 314.474C205.722 319.267 200.066 316.635 200.066 316.635Z" fill="white" stroke="#2D080C" stroke-width="2" stroke-miterlimit="10" stroke-linecap="round" stroke-linejoin="round"/>
<path d="M156.268 302.926L159.882 345.702H210.396L184.118 293.381L163.653 282.264L157.329 277.826L151.908 281.204L156.268 302.926Z" fill="white" stroke="#2D080C" stroke-width="2" stroke-miterlimit="10" stroke-linecap="round" stroke-linejoin="round"/>
<path d="M160.393 278.965C160.393 278.965 155.993 274.173 154.304 274.173C152.615 274.173 151.633 275.351 151.83 279.24C152.026 283.089 152.379 282.461 152.379 282.461C150.533 284.229 150.141 286.742 150.18 289.453C150.18 289.453 143.227 294.245 142.834 294.952C141.538 297.27 142.52 297.466 146.92 298.919C146.92 298.919 140.87 304.576 142.442 304.851C144.013 305.126 153.44 302.887 153.44 302.887C153.44 302.887 152.694 306.893 153.676 306.893C154.697 306.893 160.157 305.715 160.157 305.715" fill="white"/>
<path d="M160.393 278.965C160.393 278.965 155.993 274.173 154.304 274.173C152.615 274.173 151.633 275.351 151.83 279.24C152.026 283.089 152.379 282.461 152.379 282.461C150.533 284.229 150.141 286.742 150.18 289.453C150.18 289.453 143.227 294.245 142.834 294.952C141.538 297.27 142.52 297.466 146.92 298.919C146.92 298.919 140.87 304.576 142.442 304.851C144.013 305.126 153.44 302.887 153.44 302.887C153.44 302.887 152.694 306.893 153.676 306.893C154.697 306.893 160.157 305.715 160.157 305.715" stroke="#2D080C" stroke-width="2" stroke-miterlimit="10" stroke-linecap="round" stroke-linejoin="round"/>
<path d="M156.622 281.086C156.622 281.086 164.517 274.683 173.787 279.79C173.787 279.79 178.58 273.191 180.858 273.269C183.136 273.348 184.668 277.355 183.686 284.425C183.686 284.425 190.56 287.253 194.92 292.477L188.95 295.463C188.95 295.463 196.688 298.134 196.963 300.765C197.238 303.397 183.607 301.551 183.607 301.551C183.607 301.551 189.46 305.911 188.125 305.99C186.75 306.068 181.879 305.636 181.879 305.636" fill="white"/>
<path d="M156.622 281.086C156.622 281.086 164.517 274.683 173.787 279.79C173.787 279.79 178.58 273.191 180.858 273.269C183.136 273.348 184.668 277.355 183.686 284.425C183.686 284.425 190.56 287.253 194.92 292.477L188.95 295.463C188.95 295.463 196.688 298.134 196.963 300.765C197.238 303.397 183.607 301.551 183.607 301.551C183.607 301.551 189.46 305.911 188.125 305.99C186.75 306.068 181.879 305.636 181.879 305.636" stroke="#2D080C" stroke-width="2" stroke-miterlimit="10" stroke-linecap="round" stroke-linejoin="round"/>
<path d="M172.059 294.127C173.748 294.756 176.615 295.541 178.304 294.559C179.208 294.009 178.383 292.595 177.48 293.106C176.812 293.499 175.555 293.224 174.848 293.145C174.062 293.027 173.277 292.792 172.53 292.517C171.47 292.163 171.037 293.774 172.059 294.127Z" fill="#34000A"/>
<path d="M153.636 293.302C155.483 293.813 157.329 293.852 159.214 293.42C160.275 293.185 159.803 291.574 158.782 291.81C157.211 292.163 155.679 292.124 154.108 291.692C153.047 291.378 152.615 292.988 153.636 293.302Z" fill="#34000A"/>
<path d="M163.339 293.577C164.006 293.577 164.674 293.538 165.342 293.577C165.656 293.577 165.97 293.577 166.245 293.617C166.402 293.617 166.559 293.617 166.716 293.617C167.07 293.656 167.109 293.656 166.913 293.577C166.834 293.381 166.756 293.185 166.677 292.988C166.717 293.302 165.656 293.931 165.303 293.931C164.753 293.892 164.281 293.027 163.967 292.635C163.77 293.106 163.574 293.577 163.378 294.049C163.77 294.009 164.124 294.009 164.517 294.009C164.713 294.009 164.91 294.049 165.067 294.049C165.381 294.167 165.42 294.127 165.145 293.892C165.263 293.577 165.381 293.263 165.538 292.949C165.499 292.988 164.32 292.203 164.163 292.163C163.142 291.81 162.71 293.42 163.731 293.774C164.203 293.931 164.478 294.402 164.988 294.559C165.499 294.716 165.931 294.677 166.363 294.402C166.638 294.206 166.874 293.813 166.756 293.46C166.206 292.163 164.556 292.281 163.378 292.399C162.631 292.477 162.317 293.224 162.788 293.813C163.417 294.638 164.006 295.581 165.185 295.62C166.284 295.659 167.306 294.913 167.973 294.088C168.602 293.302 168.445 292.242 167.345 292.006C166.088 291.731 164.635 291.888 163.378 291.928C162.278 291.967 162.278 293.617 163.339 293.577Z" fill="#34000A"/>
<path d="M159.489 297.388C161.1 299.195 164.281 298.173 165.381 296.209C165.46 296.091 165.617 295.974 165.656 295.816C165.028 295.816 164.87 295.973 165.185 296.248C165.263 296.366 165.381 296.484 165.46 296.602C165.735 297.113 166.52 297.584 167.031 297.859C168.484 298.605 169.938 298.409 171.234 297.505C172.098 296.916 171.273 295.463 170.409 296.052C169.545 296.641 168.563 296.798 167.62 296.288C166.913 295.895 166.756 295.266 166.245 294.756C165.852 294.363 165.538 294.127 164.949 294.284C163.653 294.677 162.435 298.173 160.667 296.17C159.921 295.384 158.782 296.563 159.489 297.388Z" fill="#34000A"/>
<path d="M221.473 311.018C221.473 311.018 203.169 310.743 196.884 311.803C190.599 312.825 176.812 314.396 162.003 313.335C147.194 312.275 128.144 301.198 104.811 327.28C81.4789 353.362 99.312 376.301 109.839 376.026C120.366 375.751 172.569 376.026 183.843 375.516C195.116 375.005 260.596 374.494 269.12 373.198C277.644 371.902 298.462 372.177 298.227 367.267C297.991 362.357 288.446 350.769 272.655 348.962C256.865 347.155 273.402 338.396 270.888 323.941C268.374 309.486 221.473 311.018 221.473 311.018Z" fill="#F8BF8D" stroke="#000102" stroke-width="2" stroke-miterlimit="10" stroke-linecap="round"/>
<path d="M219.156 311.842C219.156 311.842 239.267 297.545 254.783 291.338C270.259 285.132 293.945 308.622 287.543 324.216C277.369 348.923 261.382 362.2 242.017 372.57" fill="#F8BF8D"/>
<path d="M219.156 311.842C219.156 311.842 239.267 297.545 254.783 291.338C270.259 285.132 293.945 308.622 287.543 324.216C277.369 348.923 261.382 362.2 242.017 372.57" stroke="#000102" stroke-width="2" stroke-miterlimit="10" stroke-linecap="round"/>
<path d="M269.159 352.537C269.159 352.537 242.567 358.547 235.889 367.66C229.212 376.773 227.365 388.007 238.325 385.296C249.284 382.547 249.873 365.539 265.389 366.167C280.904 366.756 281.493 372.53 288.485 371.038C295.477 369.506 302.469 369.82 296.381 361.925" fill="#F8BF8D"/>
<path d="M269.159 352.537C269.159 352.537 242.567 358.547 235.889 367.66C229.212 376.773 227.365 388.007 238.325 385.296C249.284 382.547 249.873 365.539 265.389 366.167C280.904 366.756 281.493 372.53 288.485 371.038C295.477 369.506 302.469 369.82 296.381 361.925" stroke="#000102" stroke-width="2" stroke-miterlimit="10" stroke-linecap="round"/>
<path d="M233.414 335.293C233.414 335.293 229.329 352.222 224.301 359.686C219.234 367.11 266.056 358.193 277.487 362.278C288.917 366.363 288.917 381.211 273.441 379.011C257.964 376.812 205.604 377.244 205.604 377.244C205.604 377.244 197.473 376.065 202.854 358.979C208.236 341.892 212.321 335.293 212.321 335.293" fill="#F8BF8D"/>
<path d="M233.414 335.293C233.414 335.293 229.329 352.222 224.301 359.686C219.234 367.11 266.056 358.193 277.487 362.278C288.917 366.363 288.917 381.211 273.441 379.011C257.964 376.812 205.604 377.244 205.604 377.244C205.604 377.244 197.473 376.065 202.854 358.979C208.236 341.892 212.321 335.293 212.321 335.293" stroke="#000102" stroke-width="2" stroke-miterlimit="10" stroke-linecap="round"/>
<path d="M250.266 292.831C250.266 292.831 241.31 291.221 237.382 300.412C233.493 309.604 228.819 324.648 236.871 326.18C244.963 327.672 249.126 323.155 249.598 316.163C250.069 309.171 250.894 302.887 253.251 300.53" fill="#F8BF8D"/>
<path d="M250.266 292.831C250.266 292.831 241.31 291.221 237.382 300.412C233.493 309.604 228.819 324.648 236.871 326.18C244.963 327.672 249.126 323.155 249.598 316.163C250.069 309.171 250.894 302.887 253.251 300.53" stroke="#000102" stroke-width="2" stroke-miterlimit="10" stroke-linecap="round" stroke-linejoin="round"/>
<path d="M124.844 333.8C124.844 333.8 147.862 319.856 161.139 338.003C174.415 356.151 145.78 367.306 145.78 367.306C145.78 367.306 179.64 366.246 189.735 368.367C199.83 370.488 201.951 378.501 192.524 378.855C183.096 379.208 153.086 377.794 139.809 375.359C126.533 372.923 115.377 376.066 117.813 359.647" fill="#F8BF8D"/>
<path d="M124.844 333.8C124.844 333.8 147.862 319.856 161.139 338.003C174.415 356.151 145.78 367.306 145.78 367.306C145.78 367.306 179.64 366.246 189.735 368.367C199.83 370.488 201.951 378.501 192.524 378.855C183.096 379.208 153.086 377.794 139.809 375.359C126.533 372.923 115.377 376.066 117.813 359.647" stroke="#000102" stroke-width="2" stroke-miterlimit="10" stroke-linecap="round"/>
<path d="M281.336 330.618C281.336 330.618 291.628 341.224 293.474 345.584C297.323 354.619 279.137 359.489 275.091 357.093C265.782 353.794 258.24 343.699 256.394 329.44" fill="#F8BF8D"/>
<path d="M281.336 330.618C281.336 330.618 291.628 341.224 293.474 345.584C297.323 354.619 279.137 359.489 275.091 357.093C265.782 353.794 258.24 343.699 256.394 329.44" stroke="#000102" stroke-width="2" stroke-miterlimit="10" stroke-linecap="round"/>
<path d="M283.615 348.373C283.615 348.373 282.554 337.964 291.51 342.481C300.466 346.998 303.412 350.808 298.934 353.872C294.417 356.936 285.657 355.915 283.615 348.373Z" fill="#333333" stroke="#000102" stroke-width="2" stroke-miterlimit="10"/>
<path d="M294.888 347.234C294.888 347.234 297.912 348.491 298.816 350.259C299.719 352.026 297.088 352.733 294.299 351.594C291.51 350.455 287.778 343.699 294.888 347.234Z" fill="white"/>
<path d="M156.976 307.443C156.976 307.443 138.867 326.141 146.252 325.159C153.598 324.177 167.542 309.25 167.542 309.25" fill="white"/>
<path d="M156.976 307.443C156.976 307.443 138.867 326.141 146.252 325.159C153.598 324.177 167.542 309.25 167.542 309.25" stroke="#2D080C" stroke-width="2" stroke-miterlimit="10" stroke-linecap="round" stroke-linejoin="round"/>
<path d="M174.298 307.482C174.298 307.482 156.19 326.18 163.574 325.198C170.92 324.216 184.864 309.289 184.864 309.289" fill="white"/>
<path d="M174.298 307.482C174.298 307.482 156.19 326.18 163.574 325.198C170.92 324.216 184.864 309.289 184.864 309.289" stroke="#2D080C" stroke-width="2" stroke-miterlimit="10" stroke-linecap="round" stroke-linejoin="round"/>
<path d="M270.181 320.523C270.102 321.938 270.809 323.391 271.987 324.177C273.166 324.962 274.776 325.08 276.033 324.451" fill="#F8BF8D"/>
<path d="M268.845 320.524C268.806 324.766 272.97 327.201 276.741 325.591C278.312 324.923 276.937 322.605 275.405 323.273C273.441 324.137 271.517 322.527 271.556 320.524C271.556 318.795 268.885 318.795 268.845 320.524Z" fill="#000102"/>
<path d="M256.825 335.528C256.825 335.528 245.316 333.25 240.524 339.771C235.732 346.291 244.177 350.769 249.755 346.173C252.779 343.699 259.614 343.738 259.614 343.738C259.614 343.738 257.297 339.849 256.825 335.528Z" fill="#FFA6CF" stroke="#000102" stroke-width="2" stroke-miterlimit="10" stroke-linecap="round" stroke-linejoin="round"/>
<path d="M257.532 340.399C257.532 340.399 253.447 337.728 247.477 341.931L257.532 340.399Z" fill="#FFA6CF"/>
<path d="M257.532 340.399C257.532 340.399 253.447 337.728 247.477 341.931" stroke="#000102" stroke-width="2" stroke-miterlimit="10" stroke-linecap="round" stroke-linejoin="round"/>
<path d="M197.972 180.219C199.268 181.947 201.389 182.811 203.471 182.222C205.671 181.633 207.517 179.04 207.87 176.88C208.106 175.623 206.181 175.073 205.946 176.33C205.474 179.04 201.939 182.183 199.661 179.198C198.954 178.176 197.226 179.198 197.972 180.219Z" fill="#34000A"/>
<path d="M217.231 243.692C218.684 247.934 221.473 251.548 224.458 254.886C239.031 271.031 259.025 281.793 272.38 298.959C273.951 301.001 275.562 303.201 277.919 304.144C280.315 305.086 283.654 303.987 284.047 301.473C284.282 299.901 284.125 297.623 283.222 296.327L277.683 287.135C260.243 262.703 242.802 238.31 225.323 213.878" fill="#FDBFB1"/>
<path d="M216.249 243.927C218.606 250.448 223.555 255.672 228.426 260.425C233.375 265.256 238.718 269.616 244.099 273.937C249.559 278.337 255.058 282.697 260.204 287.41C262.718 289.728 265.192 292.124 267.471 294.677C269.71 297.152 271.595 299.941 273.873 302.376C275.641 304.262 277.919 305.715 280.59 305.322C282.711 305.008 284.597 303.712 284.99 301.512C285.697 297.584 283.379 294.599 281.454 291.456C274.816 280.458 266.842 270.245 259.379 259.757C248.302 244.241 237.225 228.765 226.148 213.249C225.402 212.228 223.673 213.21 224.42 214.271C233.454 226.919 242.489 239.528 251.523 252.176C256.001 258.422 260.479 264.706 264.957 270.952C268.924 276.53 273.245 281.99 276.937 287.764C278.626 290.396 280.197 293.145 281.808 295.856C282.711 297.348 283.261 298.802 283.104 300.608C282.79 304.654 277.958 303.437 275.955 301.551C273.716 299.469 271.988 296.72 269.985 294.441C267.942 292.124 265.782 289.885 263.503 287.725C258.829 283.286 253.801 279.161 248.773 275.116C243.235 270.638 237.618 266.238 232.394 261.407C226.855 256.3 220.727 250.566 218.135 243.338C217.742 242.199 215.817 242.709 216.249 243.927Z" fill="#2D080C"/>
<path d="M217.977 143.37C218.802 145.491 216.799 147.573 214.992 148.908C206.429 155.272 197.001 160.417 186.985 164.149C182.939 165.642 178.697 166.938 174.376 166.859C170.055 166.781 165.577 165.131 162.946 161.714C160.314 158.296 160.078 152.915 163.063 149.812C166.677 146.041 173.158 146.63 177.008 143.134C178.579 141.681 179.561 139.717 180.543 137.831C183.096 133.078 186.239 128.483 190.677 125.419C194.213 122.984 198.416 121.648 202.697 121.295C213.067 120.391 223.751 125.576 229.526 134.257C235.3 142.938 235.85 154.8 231.018 164.031" fill="#FDB7CF"/>
<path d="M217.035 144.195C217.899 147.337 212.636 149.458 210.554 150.873C207.961 152.64 205.29 154.29 202.58 155.822C196.884 159.043 190.914 161.832 184.707 163.914C178.815 165.917 171.784 167.213 166.246 163.442C161.375 160.143 159.961 152.365 165.696 149.105C170.017 146.63 175.516 146.866 178.855 142.702C180.583 140.542 181.644 137.91 183.097 135.553C184.747 132.843 186.632 130.29 188.95 128.169C198.18 119.763 212.636 120.902 222.22 127.972C233.179 136.064 236.4 151.54 230.233 163.56C229.644 164.699 231.372 165.72 231.961 164.581C237.853 153.151 235.968 138.46 226.776 129.308C217.742 120.313 202.658 117.131 191.385 123.887C185.179 127.619 182.036 133.629 178.501 139.638C176.616 142.859 173.945 144.156 170.488 145.216C167.856 146.002 165.067 146.748 162.946 148.594C158.665 152.326 159.215 159.161 162.828 163.128C167.188 167.999 174.337 168.549 180.347 167.252C188.557 165.485 196.609 161.517 203.837 157.393C207.45 155.311 210.986 153.072 214.364 150.598C216.799 148.83 218.763 148.202 217.82 144.784C217.506 143.527 216.681 142.938 217.035 144.195Z" fill="#34000A"/>
<path d="M216.485 144.352C215.738 153.426 221.63 162.185 230.272 165.013C231.49 165.406 232.039 163.481 230.822 163.089C223.005 160.496 217.82 152.522 218.527 144.352C218.606 143.056 216.602 143.056 216.485 144.352Z" fill="#34000A"/>
<path d="M218.606 142.624C218.606 142.624 217.192 147.18 219.313 152.836C220.519 156.054 224.132 159.553 226.855 161.478C228.921 162.939 230.39 163.246 230.39 163.246C230.39 163.246 232.432 154.133 232.314 151.579C232.197 149.026 218.606 142.624 218.606 142.624Z" fill="#FDB7CF"/>
<path d="M223.06 210.971L242.963 240.431L233.285 262.035C233.285 262.035 218.425 250.597 217.039 241.264L223.06 210.971Z" fill="#FDE680"/>
<path d="M102.066 332.19C102.066 332.19 100.102 340.91 115.892 340.478C131.722 340.085 171.67 325.434 183.925 342.835C196.181 360.236 191.428 381.604 173.634 385.532C173.634 385.532 175.991 378.815 170.06 376.026C164.128 373.238 121.431 395.392 94.1309 375.634C66.8665 355.915 80.7325 321.113 102.066 332.19Z" fill="#F8BF8D" stroke="#000102" stroke-width="2" stroke-miterlimit="10" stroke-linecap="round" stroke-linejoin="round"/>
<defs>
<clipPath id="clip0_129_101">
<rect width="24.01" height="23.25" fill="white" transform="translate(94 237)"/>
</clipPath>
<clipPath id="clip1_129_101">
<rect width="24.01" height="23.25" fill="white" transform="matrix(-1 0 0 1 120.01 253)"/>
</clipPath>
</defs>
</svg>
