<svg width="16" height="17" viewBox="0 0 16 17" fill="none" xmlns="http://www.w3.org/2000/svg">
<path d="M8.14382 9.58293L7.52148 9.34726C7.68815 8.90726 7.97148 8.42993 8.41815 7.93359L8.91382 8.37959C8.51948 8.81793 8.28015 9.22293 8.14382 9.58293Z" fill="#FB8A76"/>
<path fill-rule="evenodd" clip-rule="evenodd" d="M5.18767 2.49023C3.345 2.49023 2 4.37023 2 6.39823C2 10.9249 8 13.8236 8 13.8236C8 13.8236 14 10.7382 14 6.39823C14 4.3709 12.655 2.49023 10.8123 2.49023C9.534 2.49023 8.58567 3.3339 8 4.53057C7.41433 3.3339 6.466 2.49023 5.18733 2.49023H5.18767ZM5.66667 8.47657C5.66667 9.41223 6.714 9.7109 7.48033 9.46223C7.11433 10.5459 7.45433 11.3902 7.757 11.7169L8.246 11.2636C8.12467 11.1329 7.846 10.5922 8.07633 9.78957C8.47867 10.5352 10.3333 10.6292 10.3333 9.2229V5.49023C9.37267 6.30323 8.34633 6.62457 7.50167 6.88923C6.441 7.22123 5.66667 7.46357 5.66667 8.47657Z" fill="#FB8A76"/>
</svg>
