<svg width="24" height="24" viewBox="0 0 24 24" fill="none" xmlns="http://www.w3.org/2000/svg">
    <g clip-path="url(#clip0_803_11)">
        <path d="M1.5 5L7.5 4L10 6L12 4L18.5 5L19.7272 9.21839C19.9529 9.99433 19.6895 10.8299 19.0596 11.3361L14.5 15L10 21L1.71933 12.325C0.367399 10.9087 -0.0334459 8.83361 0.693727 7.01568L1.5 5Z"
              fill="#FB8A76"/>
        <path d="M7.92503 8.39648C7.86852 8.28158 7.78263 8.18421 7.67634 8.11455C7.57006 8.0449 7.44729 8.00552 7.32088 8.00054C7.19447 7.99556 7.06906 8.02516 6.95778 8.08624C6.8465 8.14732 6.75343 8.23764 6.68831 8.34775L4.77676 11.5834H0.705891C0.518677 11.5834 0.339131 11.6589 0.206751 11.7933C0.0743704 11.9277 0 12.11 0 12.3C0 12.4901 0.0743704 12.6724 0.206751 12.8068C0.339131 12.9412 0.518677 13.0167 0.705891 13.0167H5.1763C5.2981 13.0167 5.41783 12.9846 5.52383 12.9237C5.62984 12.8628 5.71852 12.7751 5.78124 12.6691L7.2375 10.2046L9.48647 14.7703C9.54067 14.8803 9.62187 14.9744 9.72224 15.0433C9.82261 15.1122 9.93878 15.1538 10.0595 15.1639C10.1803 15.1741 10.3016 15.1525 10.4118 15.1013C10.522 15.05 10.6173 14.9708 10.6886 14.8714L13.0682 11.549L14.607 12.8504C14.7338 12.9578 14.8937 13.0166 15.0588 13.0167H19.2941C19.4813 13.0167 19.6609 12.9412 19.7933 12.8068C19.9256 12.6724 20 12.4901 20 12.3C20 12.11 19.9256 11.9277 19.7933 11.7933C19.6609 11.6589 19.4813 11.5834 19.2941 11.5834H15.3143L13.3929 9.95805C13.3186 9.89524 13.2325 9.84858 13.1398 9.82094C13.0471 9.7933 12.9498 9.78528 12.8539 9.79737C12.758 9.80946 12.6656 9.84141 12.5824 9.89124C12.4991 9.94107 12.4269 10.0077 12.37 10.087L10.2298 13.0754L7.92503 8.39648Z"
              fill="white"/>
        <path d="M1.91173 4.50905C2.92984 3.52443 4.28681 2.983 5.69281 3.00041C7.09882 3.01781 8.44238 3.59268 9.43653 4.60222L10.1184 5.29521L10.7255 4.6789C11.6086 3.78104 12.7698 3.2199 14.0131 3.09013C15.2564 2.96036 16.5057 3.2699 17.5503 3.96654C18.595 4.66319 19.371 5.7043 19.7474 6.91425C20.1239 8.1242 20.0778 9.42895 19.6169 10.6084H18.054C18.5406 9.75029 18.7032 8.74184 18.5116 7.771C18.32 6.80015 17.7873 5.93315 17.0127 5.33158C16.238 4.73 15.2744 4.43489 14.3013 4.50124C13.3282 4.5676 12.412 4.99089 11.7236 5.69223L10.6175 6.81521C10.4851 6.94956 10.3056 7.02504 10.1184 7.02504C9.93124 7.02504 9.75173 6.94956 9.61936 6.81521L8.43769 5.61555C7.74775 4.9125 6.82681 4.49222 5.85089 4.43503C4.87497 4.37784 3.91252 4.68776 3.14748 5.30555C2.38244 5.92334 1.86846 6.80568 1.70378 7.78393C1.5391 8.76218 1.73527 9.76773 2.2548 10.6084H0.666543C0.238265 9.58391 0.127944 8.45117 0.350304 7.36137C0.572663 6.27156 1.11783 5.27652 1.91173 4.50905ZM14.8535 14.1916H16.8018L10.6295 20.7776C10.5632 20.8482 10.4834 20.9044 10.395 20.9426C10.3066 20.9809 10.2115 21.0004 10.1154 21C10.0193 20.9996 9.9243 20.9793 9.83621 20.9403C9.74813 20.9013 9.66881 20.8445 9.60312 20.7733L3.52681 14.1916H5.27813C5.33742 14.1916 5.39601 14.1888 5.45389 14.183L10.1227 19.2397L14.8535 14.1916Z"
              fill="#FB8A76"/>
        <path d="M20.0833 14.5667H22.1663C22.215 14.5668 22.2616 14.5862 22.2961 14.6206C22.3306 14.6551 22.35 14.7019 22.35 14.7506V17.249C22.3499 17.2979 22.3305 17.3447 22.2959 17.3793C22.2615 17.4137 22.2148 17.4332 22.1661 17.4333H20.0833H19.4333V18.0833V20.1661C19.4332 20.2148 19.4137 20.2615 19.3793 20.2959C19.3447 20.3305 19.2979 20.3499 19.249 20.35H16.7506C16.7019 20.35 16.6551 20.3306 16.6206 20.2961C16.5862 20.2616 16.5668 20.215 16.5667 20.1663V18.0833V17.4333H15.9167L13.834 17.4333C13.8339 17.4333 13.8338 17.4333 13.8337 17.4333C13.785 17.4332 13.7384 17.4138 13.7039 17.3794C13.6695 17.3449 13.6501 17.2983 13.65 17.2495V14.7505C13.6501 14.7017 13.6695 14.6551 13.7039 14.6206C13.7384 14.5862 13.785 14.5668 13.8337 14.5667H15.9167H16.5667V13.9167V11.8337C16.5668 11.785 16.5862 11.7384 16.6206 11.7039C16.6551 11.6695 16.7017 11.6501 16.7505 11.65H19.2495C19.2983 11.6501 19.3449 11.6695 19.3794 11.7039C19.4138 11.7384 19.4332 11.785 19.4333 11.8337C19.4333 11.8338 19.4333 11.8339 19.4333 11.834L19.4333 13.9167V14.5667H20.0833Z"
              fill="#FB8A76" stroke="white" stroke-width="1.3"/>
    </g>
    <defs>
        <clipPath id="clip0_803_11">
            <rect width="24" height="24" fill="white"/>
        </clipPath>
    </defs>
</svg>
