<svg width="375" height="598" viewBox="0 0 375 598" fill="none" xmlns="http://www.w3.org/2000/svg">
<defs>
<clipPath id="clip0_7_66">
<rect width="308.01" height="261.99" fill="white" transform="translate(34 168)"/>
</clipPath>
</defs>
<g clip-path="url(#clip0_7_66)">
<mask id="mask0_7_66" style="mask-type:luminance" maskUnits="userSpaceOnUse" x="34" y="167" width="309" height="263">
<path d="M342.01 167.99H34.01V429.99H342.01V167.99Z" fill="white"/>
</mask>
<g mask="url(#mask0_7_66)">
<g opacity="0.35">
<path opacity="0.35" d="M291.18 251.53C294.5 253.9 290.18 275.22 276.86 280C276.86 280 283.18 279.89 284.27 281.95C284.88 283.1 282.06 285.79 277.81 287.87L277.18 288.39C272.64 280.79 265.38 276.39 258 274.18L259.28 273.04C263.92 269.588 267.406 264.812 269.28 259.34C273.68 247.45 258.81 229.05 258.81 229.05C258.81 229.05 271.81 222.43 284.81 254.05C284.81 253.99 287.86 249.15 291.18 251.53Z" fill="white"/>
<path opacity="0.35" d="M100.4 185.85L100.78 186.39C95.9571 188.553 91.4468 191.355 87.3701 194.72C86.054 195.791 84.8511 196.994 83.7801 198.31L83.4001 196.99C83.0101 195.75 78.0101 180.59 75.1001 176.84C72.1901 173.09 76.6701 171.12 76.6701 171.12C88.2601 167.25 100.4 185.85 100.4 185.85Z" fill="#808082"/>
<path opacity="0.35" d="M75.6901 215.68C78.5401 216.99 80.3201 218.99 80.0101 220.92C79.5801 223.66 74.4001 229.73 69.2501 229.03H69.1101C64.4401 228.28 61.4401 222.17 61.1901 218.92C61.1567 218.588 61.1567 218.253 61.1901 217.92C61.6401 215.15 66.1901 213.57 71.3901 214.39C72.8753 214.623 74.322 215.057 75.6901 215.68Z" fill="#5E4027"/>
<path opacity="0.35" d="M101.85 245.99C107.58 262.43 101.49 270.65 95.4001 267.79C89.3101 264.93 88.5901 246.71 88.5901 246.71C93.0203 247.063 97.478 246.81 101.84 245.96L101.85 245.99Z" fill="#F4A8E6"/>
<path opacity="0.35" d="M69.2501 228.99C69.9252 234.266 71.9048 239.291 75.0101 243.61C74.6201 243.46 74.2301 243.31 73.8501 243.14C73.2701 242.89 72.7101 242.64 72.1501 242.36C69.8536 241.23 67.775 239.703 66.0101 237.85C60.2901 231.85 59.4101 223.55 61.2301 218.91C61.4801 222.16 64.4801 228.27 69.1501 229.02L69.2501 228.99Z" fill="white"/>
<path opacity="0.35" d="M281.09 298.83C279.09 303.61 264.95 298 250.92 299.4C236.59 300.83 227.63 303.96 229.06 312.62C229.17 313.26 232.82 319.62 222.97 326.74C213.12 333.86 170.97 327.46 170.97 327.46C170.97 327.46 175.09 336.03 166.49 338.54C157.89 341.05 137.82 322.81 134.24 307.8C130.66 292.79 137.47 284.92 134.06 277.06C130.65 269.2 125.01 263.99 127.29 258.99C129.57 253.99 141.29 250.77 142.16 243.8C143.03 236.83 132.67 226.78 131.01 223.68C129.35 220.58 131.6 204.5 120.01 202.35C108.42 200.2 105.08 209.99 101.01 210.57C96.94 211.15 94.56 203.66 88.71 202.48C82.86 201.3 79.28 206.16 79.28 206.16L79.01 205.99C80.2573 203.241 81.8465 200.661 83.74 198.31C84.8136 196.996 86.0163 195.794 87.33 194.72C91.419 191.352 95.943 188.55 100.78 186.39C106.153 183.991 111.909 182.562 117.78 182.17L118.83 181.99C115.35 180.43 114.19 174.88 118.54 173.99C120.46 173.6 122.3 175.15 123.77 176.99C123.476 176.224 123.36 175.401 123.431 174.583C123.502 173.765 123.758 172.974 124.18 172.27C127.18 167.52 130.36 170.27 132.3 174.98C134.24 179.69 139.94 185.24 139.94 185.24C143.33 186.57 145.5 187.47 148.09 189.62L148.31 189.95C151.841 186.342 155.113 182.489 158.1 178.42C162.42 171.98 166.87 185.54 167.5 193.86C167.97 200.16 164.17 208.25 158.35 214.65C161.03 223.3 165.44 239.37 163.13 245.26C160 253.26 156.53 250.1 156.33 249.91C156.48 250.44 162.73 271.43 159.54 278.14C156.35 284.85 151.3 281 151.3 281C152.377 286.393 154.71 291.457 158.11 295.78C158.41 296.13 158.71 296.51 159.02 296.91C168.88 298.97 177.17 294.07 179.73 294.58C184.51 295.58 181.67 300.4 181.67 300.4C181.67 300.4 197.39 288.11 204.57 285.77C211.57 283.48 209.02 291.49 208.88 291.94C209.39 291.27 223.28 272.88 244.38 272.36C248.99 272.257 253.588 272.871 258.01 274.18C265.39 276.4 272.65 280.79 277.19 288.39C279.091 291.615 280.411 295.149 281.09 298.83Z" fill="#808082"/>
<path opacity="0.35" d="M259.01 228.32C261.671 228.167 264.331 228.637 266.779 229.693C269.227 230.748 271.395 232.36 273.11 234.4C279.11 241.4 280.75 259.54 280.75 259.54C280.75 259.54 283.38 256.2 284.57 259.19C285.76 262.18 281.94 269.43 277.89 273.36C273.84 277.29 273.23 277.53 273.23 277.53C273.23 277.53 277.41 277.89 277.53 280.63C277.576 281.412 277.461 282.195 277.193 282.931C276.925 283.667 276.509 284.341 275.97 284.91C275.97 284.91 265.82 277.53 265.46 277.17C265.1 276.81 257.97 274.17 257.97 274.17C257.97 274.17 265.82 270.61 268.09 258.33C270.36 246.05 260.8 232.33 260.8 232.33" fill="#808082"/>
<path opacity="0.35" d="M147.6 198.99L156.01 189.99L159.36 185.93C159.36 185.93 162.7 191.78 162.22 196.06C161.74 200.34 153.84 214.48 151.47 211.49C150.58 210.36 147.05 205.95 147.05 205.95C147.05 205.95 150.87 205.83 150.99 203.68C151.048 203.09 150.971 202.494 150.765 201.938C150.559 201.382 150.229 200.88 149.8 200.47" fill="white"/>
<path opacity="0.35" d="M74.61 216.9C74.61 215.9 72.88 214.97 70.61 214.9C68.34 214.83 66.51 215.53 66.46 216.54C66.41 217.55 68.19 218.47 70.46 218.54C72.73 218.61 74.56 217.92 74.61 216.9Z" fill="white"/>
<path opacity="0.35" d="M74.8502 337.99L75.1002 337.93L75.2502 338.52C77.7102 348.03 81.2502 356.63 86.2502 363.4C82.2502 364.65 78.8302 365.68 76.6702 366.26C67.2102 368.81 66.8402 403.31 48.2702 408.03C29.7002 412.75 32.9802 372.03 50.4602 353.92C57.1802 346.99 66.2302 341.74 74.8502 337.99Z" fill="white"/>
<path opacity="0.35" d="M264.01 369.99C269.81 387.15 292.66 413.25 276.01 419.99C256.16 428.08 240.84 387.42 233.59 362.99C238.547 360.485 243.739 358.475 249.09 356.99C252.621 356.118 256.073 354.954 259.41 353.51H259.51C260.701 359.083 262.203 364.585 264.01 369.99Z" fill="white"/>
<path opacity="0.35" d="M92.5601 248.55C85.2449 248.631 78.0045 247.073 71.3701 243.99L71.2601 243.93C68.7881 242.712 66.5531 241.063 64.6601 239.06C58.5201 232.56 57.4401 223.46 59.5501 218.2C59.6368 217.981 59.7657 217.782 59.9294 217.613C60.0932 217.444 60.2886 217.309 60.5045 217.216C60.7204 217.123 60.9525 217.073 61.1877 217.069C61.4229 217.066 61.6565 217.108 61.8751 217.195C62.0938 217.282 62.2932 217.411 62.462 217.574C62.6309 217.738 62.7658 217.933 62.8591 218.149C62.9525 218.365 63.0023 218.597 63.0059 218.833C63.0095 219.068 62.9668 219.301 62.8801 219.52C61.1801 223.76 62.1501 231.19 67.2701 236.61C68.8944 238.315 70.8071 239.72 72.9201 240.76H73.0001C86.5101 247.44 109.3 246.37 116.67 235.61C116.801 235.413 116.97 235.244 117.167 235.112C117.364 234.98 117.584 234.889 117.817 234.842C118.049 234.796 118.288 234.796 118.52 234.842C118.752 234.887 118.973 234.979 119.17 235.11C119.367 235.241 119.536 235.41 119.668 235.607C119.8 235.804 119.891 236.024 119.938 236.256C119.984 236.489 119.985 236.728 119.939 236.96C119.893 237.192 119.801 237.413 119.67 237.61C114.53 245.12 103.66 248.55 92.5601 248.55Z" fill="black"/>
<path opacity="0.35" d="M111.53 228.51H111.27C100.282 226.834 89.4702 224.156 78.97 220.51C78.744 220.439 78.5345 220.323 78.3535 220.17C78.1725 220.017 78.0237 219.83 77.9156 219.619C77.8076 219.408 77.7425 219.178 77.7241 218.942C77.7058 218.706 77.7345 218.468 77.8086 218.243C77.8828 218.018 78.0008 217.81 78.156 217.631C78.3112 217.452 78.5004 217.305 78.7126 217.2C78.9248 217.094 79.1558 217.032 79.3923 217.017C79.6287 217.001 79.8659 217.033 80.09 217.11C90.3919 220.694 100.999 223.332 111.78 224.99C112.225 225.057 112.629 225.289 112.91 225.641C113.192 225.992 113.331 226.436 113.299 226.885C113.268 227.335 113.068 227.755 112.74 228.064C112.412 228.372 111.98 228.546 111.53 228.55V228.51Z" fill="black"/>
<path opacity="0.35" d="M70.0102 230.88C69.608 230.882 69.2065 230.848 68.8102 230.78C66.0002 230.34 63.4002 228.32 61.5002 225.12C59.9602 222.54 59.1402 219.55 59.4402 217.66C60.0602 213.79 65.3202 211.66 71.6802 212.66C74.2778 213.022 76.7505 214.003 78.8902 215.52C81.0602 217.17 82.0902 219.19 81.7602 221.21C81.2102 224.78 75.7202 230.88 70.0102 230.88ZM68.6802 215.99C65.3602 215.99 63.1602 217.15 62.9902 218.23C63.0486 220.036 63.6059 221.791 64.6002 223.3C65.3802 224.62 67.0402 226.88 69.3902 227.3C73.4802 227.94 77.9502 222.54 78.2502 220.68C78.3502 220.05 77.7902 219.2 76.7502 218.4C75.0776 217.249 73.1605 216.503 71.1502 216.22C70.3335 216.083 69.508 216.006 68.6802 215.99Z" fill="black"/>
<path opacity="0.35" d="M120.69 242.62C120.252 242.62 119.83 242.459 119.503 242.168C119.177 241.876 118.969 241.475 118.92 241.04C118.46 237.04 115.32 236.5 114.92 236.45C114.447 236.392 114.016 236.15 113.722 235.775C113.427 235.4 113.294 234.923 113.35 234.45C113.375 234.214 113.447 233.985 113.561 233.777C113.676 233.569 113.831 233.386 114.017 233.238C114.203 233.091 114.417 232.983 114.646 232.919C114.875 232.856 115.115 232.839 115.35 232.87C117.245 233.15 118.987 234.073 120.283 235.484C121.579 236.895 122.351 238.708 122.47 240.62C122.499 240.855 122.482 241.094 122.418 241.323C122.354 241.551 122.245 241.764 122.098 241.95C121.951 242.136 121.769 242.292 121.561 242.406C121.354 242.521 121.126 242.594 120.89 242.62H120.69Z" fill="black"/>
<path opacity="0.35" d="M76.0101 216.2C75.8515 216.2 75.6936 216.18 75.5401 216.14C75.0974 216.009 74.7223 215.713 74.4931 215.312C74.2639 214.911 74.1984 214.438 74.3101 213.99C76.7801 204.83 80.9101 197.7 86.2301 193.37C95.8701 185.54 106.43 181.18 117.63 180.43C118.102 180.398 118.568 180.555 118.924 180.867C119.28 181.178 119.498 181.618 119.53 182.09C119.562 182.562 119.405 183.027 119.094 183.384C118.782 183.74 118.342 183.958 117.87 183.99C107.42 184.7 97.5401 188.78 88.4901 196.14C83.7501 199.99 80.0101 206.45 77.7601 214.88C77.6559 215.263 77.4275 215.6 77.1107 215.839C76.794 216.078 76.4068 216.205 76.0101 216.2Z" fill="black"/>
<path opacity="0.35" d="M148.08 191.39C147.663 191.393 147.26 191.247 146.94 190.98C144.57 188.98 142.58 188.19 139.27 186.89C139.046 186.806 138.842 186.677 138.67 186.51C138.43 186.28 132.67 180.69 130.67 175.65C129.56 172.94 128.28 171.65 127.56 171.57C127.07 171.57 126.39 172.14 125.73 173.21C123.63 176.57 129.12 181.61 129.18 181.66C129.367 181.813 129.521 182.002 129.633 182.216C129.745 182.43 129.812 182.664 129.831 182.905C129.85 183.146 129.82 183.388 129.743 183.617C129.666 183.846 129.544 184.056 129.383 184.237C129.222 184.417 129.027 184.563 128.808 184.665C128.59 184.768 128.353 184.826 128.111 184.834C127.87 184.843 127.63 184.803 127.404 184.716C127.179 184.63 126.973 184.498 126.8 184.33C126.48 184.05 118.96 177.33 122.69 171.33C124.49 168.38 126.48 167.9 127.82 167.99C130.2 168.19 132.38 170.43 133.96 174.28C135.54 178.13 139.84 182.6 140.96 183.68C143.978 184.686 146.793 186.223 149.27 188.22C149.451 188.369 149.601 188.552 149.711 188.759C149.821 188.966 149.889 189.193 149.91 189.427C149.931 189.66 149.906 189.896 149.836 190.12C149.765 190.343 149.651 190.551 149.5 190.73C149.329 190.94 149.112 191.109 148.866 191.224C148.62 191.338 148.351 191.395 148.08 191.39Z" fill="black"/>
<path opacity="0.35" d="M152.01 222.11C151.633 222.103 151.269 221.977 150.968 221.75C150.667 221.523 150.445 221.207 150.334 220.847C150.224 220.487 150.229 220.101 150.351 219.744C150.472 219.387 150.703 219.078 151.01 218.86C159.88 212.59 166.37 201.66 165.79 193.98C165.21 186.3 162.04 178.68 160.52 178.51C160.45 178.51 160.13 178.72 159.67 179.4C155.31 185.92 142.67 198.4 142.17 198.88C142.007 199.065 141.808 199.214 141.585 199.319C141.362 199.423 141.119 199.481 140.873 199.488C140.627 199.495 140.382 199.452 140.153 199.36C139.924 199.269 139.717 199.131 139.543 198.957C139.369 198.782 139.234 198.573 139.144 198.343C139.054 198.114 139.013 197.868 139.022 197.622C139.031 197.376 139.091 197.134 139.197 196.912C139.303 196.69 139.454 196.492 139.64 196.33C139.77 196.21 152.52 183.63 156.64 177.41C158.42 174.75 160.39 174.79 161.39 175.05C166.39 176.35 168.91 188.41 169.3 193.7C169.98 202.7 162.98 214.7 153.02 221.76C152.734 221.989 152.377 222.113 152.01 222.11Z" fill="black"/>
<path opacity="0.35" d="M147.52 207.43C147.141 207.43 146.777 207.279 146.509 207.011C146.241 206.743 146.09 206.379 146.09 206C146.09 205.621 146.241 205.257 146.509 204.989C146.777 204.721 147.141 204.57 147.52 204.57C148.291 204.58 149.048 204.357 149.69 203.93C149.74 203.877 149.778 203.814 149.8 203.745C149.823 203.675 149.83 203.602 149.82 203.53C149.77 201.71 146.55 200.99 146.51 200.98C146.255 200.928 146.019 200.807 145.827 200.631C145.635 200.455 145.494 200.23 145.42 199.98C145.347 199.731 145.343 199.467 145.41 199.217C145.478 198.966 145.612 198.739 145.8 198.56C145.88 198.48 154.09 190.56 157.41 185.56C157.515 185.402 157.65 185.266 157.808 185.161C157.965 185.056 158.142 184.983 158.329 184.946C158.515 184.91 158.706 184.911 158.892 184.95C159.077 184.988 159.254 185.063 159.41 185.17C159.57 185.273 159.708 185.407 159.815 185.565C159.922 185.722 159.996 185.9 160.032 186.087C160.069 186.274 160.067 186.466 160.027 186.652C159.987 186.838 159.91 187.014 159.8 187.17C157.19 190.99 152.01 196.36 149.4 198.99C150.303 199.356 151.086 199.966 151.662 200.752C152.237 201.538 152.583 202.469 152.66 203.44C152.682 203.894 152.609 204.348 152.447 204.773C152.286 205.198 152.038 205.585 151.72 205.91C150.542 206.901 149.049 207.439 147.51 207.43H147.52Z" fill="black"/>
<path opacity="0.35" d="M83.4001 198.77C83.0289 198.77 82.6667 198.656 82.3626 198.443C82.0585 198.23 81.8272 197.929 81.7001 197.58C81.7001 197.46 81.5801 197.21 81.4501 196.84C76.8201 183.13 74.6001 179.11 73.6801 177.93C73.1231 177.311 72.7212 176.568 72.5074 175.763C72.2935 174.958 72.2739 174.114 72.4501 173.3C72.7339 172.455 73.1909 171.679 73.7918 171.022C74.3928 170.364 75.1245 169.839 75.9401 169.48L76.0901 169.43C88.8501 165.17 101.36 184.07 101.89 184.88C102.13 185.278 102.207 185.753 102.103 186.206C101.999 186.659 101.723 187.053 101.333 187.306C100.944 187.56 100.471 187.651 100.015 187.562C99.5595 187.474 99.1559 187.211 98.8901 186.83C98.7901 186.66 87.4501 169.54 77.3401 172.83C76.7185 173.111 76.2207 173.608 75.9401 174.23C75.9282 174.516 75.9734 174.801 76.073 175.068C76.1726 175.336 76.3246 175.582 76.5201 175.79C78.4201 178.22 81.1501 184.79 84.8501 195.79C84.9701 196.12 85.0501 196.37 85.0901 196.48C85.2232 196.914 85.1856 197.382 84.9848 197.789C84.7841 198.196 84.4354 198.511 84.0101 198.67C83.8151 198.742 83.608 198.776 83.4001 198.77Z" fill="black"/>
<path opacity="0.35" d="M118.82 183.74C118.565 183.739 118.313 183.684 118.08 183.58C116.773 182.965 115.683 181.968 114.956 180.719C114.229 179.471 113.899 178.03 114.01 176.59C114.136 175.499 114.618 174.48 115.38 173.691C116.143 172.901 117.144 172.384 118.23 172.22C120.56 171.75 122.92 172.97 125.23 175.85C125.516 176.222 125.645 176.692 125.588 177.158C125.532 177.624 125.294 178.049 124.927 178.342C124.559 178.635 124.092 178.771 123.625 178.722C123.158 178.673 122.729 178.442 122.43 178.08C121.01 176.4 119.76 175.54 118.89 175.72C117.78 175.93 117.58 176.51 117.52 176.98C117.499 177.668 117.676 178.348 118.031 178.939C118.385 179.529 118.902 180.005 119.52 180.31C119.889 180.483 120.188 180.776 120.369 181.141C120.55 181.506 120.602 181.921 120.516 182.32C120.43 182.718 120.212 183.075 119.896 183.333C119.581 183.591 119.187 183.735 118.78 183.74H118.82Z" fill="black"/>
<path opacity="0.35" d="M114.01 217.5C114.883 217.5 115.736 217.241 116.461 216.756C117.187 216.271 117.752 215.582 118.085 214.775C118.419 213.969 118.506 213.082 118.335 212.226C118.164 211.37 117.743 210.584 117.125 209.968C116.507 209.352 115.72 208.933 114.864 208.764C114.008 208.595 113.121 208.683 112.316 209.019C111.51 209.354 110.822 209.921 110.338 210.647C109.855 211.374 109.598 212.227 109.6 213.1C109.6 213.679 109.714 214.252 109.936 214.786C110.158 215.321 110.483 215.806 110.892 216.215C111.302 216.624 111.788 216.947 112.323 217.168C112.858 217.388 113.431 217.501 114.01 217.5Z" fill="black"/>
<path opacity="0.35" d="M87.5201 217.99C88.3919 217.988 89.2435 217.728 89.9674 217.242C90.6913 216.756 91.255 216.067 91.5873 215.261C91.9195 214.455 92.0054 213.568 91.8341 212.714C91.6629 211.859 91.2421 211.074 90.6249 210.458C90.0078 209.842 89.222 209.423 88.3668 209.254C87.5116 209.085 86.6254 209.173 85.8202 209.507C85.0149 209.841 84.3268 210.406 83.8426 211.131C83.3585 211.856 83.1001 212.708 83.1001 213.58C83.0988 214.16 83.2123 214.735 83.4341 215.272C83.6558 215.808 83.9815 216.295 84.3924 216.705C84.8032 217.115 85.291 217.439 85.8278 217.66C86.3646 217.88 86.9398 217.993 87.5201 217.99Z" fill="black"/>
<path opacity="0.35" d="M75.0101 245.04C74.7887 245.041 74.5701 244.99 74.372 244.891C74.174 244.792 74.002 244.648 73.8701 244.47C70.6074 239.977 68.5238 234.737 67.8101 229.23C67.7556 228.856 67.8513 228.476 68.0761 228.173C68.3009 227.869 68.6367 227.667 69.0101 227.61C69.3861 227.558 69.7674 227.656 70.0722 227.882C70.3769 228.108 70.5809 228.445 70.6401 228.82C71.2864 233.845 73.1769 238.63 76.1401 242.74C76.3699 243.04 76.4715 243.419 76.4228 243.794C76.374 244.168 76.1789 244.509 75.8801 244.74C75.6294 244.93 75.3246 245.035 75.0101 245.04Z" fill="black"/>
<path opacity="0.35" d="M160.86 316.14C160.433 316.136 160.022 315.979 159.701 315.698C159.38 315.417 159.169 315.031 159.108 314.608C159.046 314.186 159.138 313.755 159.365 313.395C159.593 313.034 159.942 312.766 160.35 312.64C160.826 312.556 161.27 312.345 161.635 312.027C162 311.71 162.271 311.3 162.42 310.84C163.42 307.89 160.73 302.14 157.58 297.98C157.3 297.62 157.02 297.26 156.74 296.93C153.126 292.364 150.651 287.003 149.52 281.29C149.462 280.932 149.512 280.565 149.666 280.237C149.819 279.909 150.068 279.634 150.38 279.45C150.688 279.268 151.044 279.184 151.4 279.207C151.757 279.23 152.098 279.36 152.38 279.58C153.176 280.159 154.167 280.403 155.14 280.26C156.14 280.01 157.14 279.03 157.89 277.36C159.83 273.26 157.63 260.9 154.59 250.47V250.39C154.458 249.933 154.512 249.441 154.742 249.024C154.972 248.607 155.358 248.298 155.815 248.165C156.273 248.032 156.764 248.087 157.181 248.317C157.599 248.546 157.908 248.933 158.04 249.39C159.58 254.68 164.31 272.23 161.16 278.87C159.87 281.58 158.16 283.21 155.96 283.72C155.275 283.877 154.569 283.918 153.87 283.84C155.02 287.755 156.926 291.408 159.48 294.59C159.78 294.94 160.1 295.36 160.48 295.78C163.93 300.34 167.41 307.3 165.87 311.94C165.531 312.945 164.944 313.848 164.162 314.564C163.381 315.281 162.431 315.789 161.4 316.04C161.227 316.104 161.045 316.138 160.86 316.14Z" fill="black"/>
<path opacity="0.35" d="M158.26 252.45C157.081 252.438 155.948 251.989 155.08 251.19L156.32 249.89L157.59 248.63C157.709 248.724 157.845 248.793 157.991 248.833C158.137 248.872 158.29 248.882 158.44 248.86C158.79 248.77 160.04 248.23 161.44 244.6C162.95 240.74 161.14 229.74 156.61 215.17C156.509 214.727 156.578 214.262 156.805 213.869C157.032 213.475 157.399 213.182 157.833 213.048C158.267 212.914 158.736 212.949 159.145 213.146C159.554 213.343 159.874 213.687 160.04 214.11C163.51 225.27 167.15 239.85 164.78 245.9C163.26 249.75 161.43 251.9 159.17 252.35C158.871 252.415 158.566 252.449 158.26 252.45Z" fill="black"/>
<path opacity="0.35" d="M122.35 387.83H122.08C107.98 385.71 96.2201 378.62 86.1301 366.14L86.0101 365.99C85.948 365.921 85.8911 365.848 85.8401 365.77C85.5201 365.37 85.1801 364.92 84.8401 364.48C80.0101 357.99 76.2201 349.37 73.5301 338.99C64.9101 305.65 69.6601 260.72 72.0901 242.99C72.1797 242.54 72.4377 242.141 72.8114 241.875C73.1852 241.609 73.6464 241.496 74.1009 241.558C74.5553 241.621 74.9688 241.855 75.2567 242.212C75.5447 242.569 75.6854 243.023 75.6501 243.48C73.2301 260.99 68.5301 305.34 77.0101 338.07C79.5901 348.07 83.1901 356.21 87.7401 362.34C88.0401 362.76 88.3601 363.17 88.6701 363.56L88.8001 363.72L89.0101 363.99C98.4801 375.7 109.5 382.36 122.67 384.34C123.133 384.409 123.551 384.658 123.833 385.032C124.116 385.406 124.24 385.875 124.18 386.34C124.104 386.766 123.877 387.151 123.541 387.424C123.206 387.698 122.783 387.842 122.35 387.83Z" fill="black"/>
<path opacity="0.35" d="M160.28 386.05C158.033 386.05 155.73 385.993 153.37 385.88C153.126 385.882 152.885 385.835 152.66 385.741C152.435 385.647 152.232 385.507 152.063 385.332C151.894 385.156 151.762 384.948 151.676 384.72C151.591 384.492 151.552 384.248 151.564 384.005C151.576 383.761 151.637 383.523 151.744 383.304C151.851 383.085 152.002 382.89 152.187 382.731C152.372 382.573 152.587 382.453 152.82 382.381C153.053 382.309 153.298 382.284 153.54 382.31C187.43 383.93 209.43 373.03 227.11 364.31C228.96 363.4 230.77 362.5 232.52 361.65C237.678 359.009 243.08 356.875 248.65 355.28C252.069 354.424 255.413 353.294 258.65 351.9C259.25 351.64 259.83 351.37 260.42 351.07L260.58 350.99C263.95 349.16 266.87 347.57 269.24 344.85C269.554 344.494 269.995 344.276 270.468 344.243C270.941 344.209 271.409 344.362 271.77 344.67C271.948 344.824 272.095 345.012 272.2 345.222C272.306 345.433 272.369 345.663 272.386 345.898C272.402 346.133 272.372 346.369 272.298 346.592C272.223 346.816 272.105 347.022 271.95 347.2C269.16 350.4 265.82 352.2 262.3 354.13L262.08 354.24C261.39 354.59 260.75 354.88 260.08 355.17C256.651 356.649 253.105 357.843 249.48 358.74C244.142 360.282 238.964 362.334 234.02 364.87C232.28 365.71 230.49 366.6 228.65 367.52C211.88 375.81 191.21 386.05 160.28 386.05Z" fill="black"/>
<path opacity="0.35" d="M280.61 321.74C280.472 321.738 280.335 321.721 280.2 321.69C279.738 321.581 279.339 321.293 279.088 320.891C278.837 320.488 278.755 320.003 278.86 319.54C279.793 315.239 280.196 310.839 280.06 306.44C279.93 296.86 276.91 289.16 271.06 283.56C261.56 274.44 248.27 274.04 244.42 274.13C224.9 274.61 211.74 291.13 210.31 292.99L208.87 291.93L207.46 290.83C209 288.83 223.14 271.08 244.33 270.56C248.54 270.46 263.05 270.9 273.54 280.98C280.1 287.27 283.54 295.82 283.63 306.4C283.773 311.101 283.343 315.802 282.35 320.4C282.247 320.783 282.021 321.122 281.706 321.364C281.392 321.606 281.007 321.738 280.61 321.74Z" fill="black"/>
<path opacity="0.35" d="M181.67 302.18C181.24 302.179 180.825 302.023 180.5 301.74C180.186 301.469 179.976 301.097 179.909 300.687C179.841 300.278 179.919 299.858 180.13 299.5C180.595 298.755 180.773 297.866 180.63 297C180.46 296.62 179.85 296.42 179.38 296.33C178.188 296.476 177.015 296.748 175.88 297.14C171.8 298.33 165.64 300.14 158.65 298.65C158.413 298.609 158.186 298.521 157.984 298.391C157.781 298.26 157.607 298.09 157.472 297.891C157.337 297.692 157.243 297.467 157.197 297.231C157.15 296.994 157.152 296.751 157.202 296.516C157.252 296.28 157.348 296.057 157.487 295.859C157.625 295.662 157.801 295.495 158.005 295.367C158.21 295.24 158.438 295.155 158.676 295.117C158.914 295.08 159.157 295.091 159.39 295.15C165.5 296.43 170.92 294.85 174.87 293.7C177.23 293.01 178.79 292.56 180.08 292.81C180.891 292.908 181.664 293.208 182.329 293.681C182.995 294.155 183.531 294.787 183.89 295.52C183.996 295.759 184.083 296.007 184.15 296.26C189.29 292.44 198.71 285.79 204.01 284.05C206.59 283.21 208.57 283.43 209.88 284.74C212.1 286.94 211.01 291.11 210.59 292.42V292.52C210.466 292.872 210.236 293.178 209.932 293.395C209.628 293.611 209.264 293.728 208.89 293.73C208.415 293.73 207.96 293.541 207.624 293.206C207.289 292.87 207.1 292.415 207.1 291.94C207.103 291.771 207.127 291.603 207.17 291.44C207.167 291.417 207.167 291.393 207.17 291.37C207.72 289.67 207.81 287.72 207.36 287.27C207.21 287.12 206.56 286.97 205.13 287.45C198.33 289.67 182.93 301.66 182.77 301.78C182.465 302.043 182.073 302.186 181.67 302.18Z" fill="black"/>
<path opacity="0.35" d="M97.7902 270.12C96.6987 270.106 95.6235 269.854 94.6402 269.38C87.7602 266.15 86.8802 248.72 86.8102 246.75C86.8003 246.515 86.8369 246.28 86.9177 246.059C86.9986 245.838 87.1222 245.635 87.2814 245.462C87.4407 245.289 87.6325 245.149 87.8459 245.05C88.0593 244.951 88.2901 244.895 88.5252 244.885C88.7602 244.875 88.9949 244.912 89.2159 244.993C89.4368 245.073 89.6397 245.197 89.8129 245.356C89.986 245.515 90.1262 245.707 90.2252 245.921C90.3243 246.134 90.3803 246.365 90.3902 246.6C90.6602 253.23 92.4602 264.4 96.1702 266.15C96.7649 266.473 97.4464 266.601 98.1178 266.515C98.7892 266.429 99.4163 266.133 99.9102 265.67C102.54 263.31 103.64 256.48 100.17 246.55C100.093 246.328 100.06 246.093 100.073 245.858C100.086 245.624 100.146 245.394 100.248 245.182C100.35 244.97 100.493 244.781 100.668 244.624C100.844 244.468 101.048 244.347 101.27 244.27C101.492 244.193 101.727 244.16 101.962 244.173C102.197 244.186 102.426 244.246 102.638 244.348C102.85 244.45 103.039 244.593 103.196 244.768C103.352 244.944 103.473 245.148 103.55 245.37C107.82 257.63 105.71 265.27 102.3 268.37C101.065 269.491 99.4583 270.115 97.7902 270.12Z" fill="black"/>
<path opacity="0.35" d="M45.4801 410.19C43.6901 410.203 41.9308 409.726 40.3933 408.809C38.8559 407.892 37.5993 406.571 36.7601 404.99C33.6101 399.6 33.1301 390.2 35.4801 379.84C37.9101 369.13 42.9001 359.23 49.1901 352.71C55.1901 346.48 63.5601 340.99 74.1201 336.38C74.3373 336.268 74.5751 336.201 74.819 336.184C75.0629 336.167 75.3077 336.201 75.5382 336.282C75.7687 336.363 75.9801 336.491 76.1594 336.657C76.3387 336.824 76.482 337.025 76.5805 337.249C76.679 337.472 76.7307 337.714 76.7323 337.958C76.7339 338.203 76.6854 338.445 76.5898 338.67C76.4942 338.895 76.3535 339.098 76.1764 339.267C75.9993 339.435 75.7896 339.566 75.5601 339.65C65.4301 344.07 57.4201 349.3 51.7701 355.18C39.2101 368.21 34.3301 393.68 39.8701 403.16C41.6401 406.16 44.2501 407.21 47.8701 406.3C57.7801 403.78 62.1301 391.66 66.0101 380.99C69.0101 372.53 71.4401 365.86 76.2901 364.55C78.2901 364.03 81.4301 363.07 85.7901 361.71C86.0181 361.624 86.2614 361.585 86.505 361.596C86.7486 361.607 86.9873 361.667 87.2067 361.774C87.426 361.88 87.6212 362.031 87.7804 362.215C87.9396 362.4 88.0594 362.615 88.1324 362.848C88.2054 363.081 88.2301 363.326 88.205 363.568C88.1798 363.811 88.1054 364.046 87.9863 364.258C87.8672 364.471 87.7058 364.657 87.5122 364.805C87.3185 364.954 87.0966 365.061 86.8601 365.12C82.3901 366.52 79.2301 367.46 77.2101 368C74.2101 368.82 71.8501 375.31 69.3801 382.19C65.4501 393.14 60.5601 406.78 48.7901 409.78C47.7078 410.052 46.5961 410.19 45.4801 410.19Z" fill="black"/>
<path opacity="0.35" d="M171.01 429.99C160.52 429.99 145.42 422.29 129.01 408.34C105.75 388.52 137.1 343.06 138.44 341.14C138.714 340.751 139.131 340.487 139.599 340.404C140.068 340.322 140.55 340.428 140.94 340.7C141.133 340.833 141.298 341.003 141.424 341.2C141.551 341.397 141.637 341.617 141.678 341.848C141.719 342.079 141.714 342.315 141.663 342.544C141.612 342.773 141.515 342.989 141.38 343.18C141.08 343.63 110.53 387.9 131.33 405.63C149.7 421.28 166.6 428.97 175.44 425.7C179.13 424.34 181.44 420.93 182.25 415.59C183.05 410.47 173.56 405.48 165.19 401.09C155.67 396.09 146.66 391.35 148.77 384.86C151.46 376.58 159.45 363.69 163.29 357.5C164.15 356.11 164.96 354.81 165.1 354.5C165.304 354.075 165.666 353.746 166.108 353.584C166.551 353.421 167.04 353.438 167.47 353.63C167.898 353.82 168.233 354.173 168.401 354.609C168.57 355.046 168.559 355.532 168.37 355.96C168.19 356.36 167.7 357.15 166.37 359.35C162.6 365.42 154.76 378.05 152.21 385.93C151.04 389.56 159.46 394 166.9 397.93C176.79 403.12 187.02 408.5 185.83 416.14C184.83 422.86 181.72 427.21 176.72 429.05C174.887 429.698 172.954 430.016 171.01 429.99Z" fill="black"/>
<path opacity="0.35" d="M284.32 349.66C257.77 349.66 242.82 329.44 242.66 329.21C242.523 329.019 242.425 328.803 242.371 328.574C242.317 328.345 242.309 328.107 242.347 327.875C242.385 327.643 242.469 327.421 242.593 327.221C242.717 327.021 242.879 326.847 243.07 326.71C243.261 326.573 243.477 326.475 243.706 326.421C243.936 326.367 244.173 326.359 244.405 326.397C244.637 326.435 244.86 326.519 245.059 326.643C245.259 326.767 245.433 326.929 245.57 327.12C245.77 327.41 262.93 350.45 292.9 345.35C315.01 341.59 332.87 327.99 337.38 316.99C338.38 314.56 339.16 311.1 337.27 308.47C331.92 301.08 327.79 303.47 316.63 311.47C311.945 314.969 307.063 318.197 302.01 321.14C285.16 330.64 275.42 318.62 270.19 312.14C269.87 311.76 269.57 311.38 269.29 311.04C269.138 310.861 269.024 310.653 268.953 310.429C268.883 310.204 268.858 309.968 268.881 309.734C268.903 309.5 268.972 309.273 269.084 309.066C269.195 308.86 269.347 308.677 269.53 308.53C269.711 308.379 269.92 308.265 270.144 308.196C270.369 308.126 270.606 308.102 270.84 308.124C271.075 308.146 271.302 308.215 271.51 308.326C271.718 308.437 271.901 308.588 272.05 308.77C272.35 309.12 272.65 309.5 272.97 309.9C278.17 316.32 286.03 326.01 300.25 318C305.197 315.128 309.978 311.98 314.57 308.57C324.57 301.38 332.49 295.7 340.2 306.35C342.47 309.49 342.65 313.62 340.73 318.35C335.92 330.07 317.73 344.75 293.54 348.87C290.495 349.396 287.41 349.661 284.32 349.66Z" fill="black"/>
<path opacity="0.35" d="M270.93 422.86C268.574 422.844 266.253 422.293 264.14 421.25C249.63 414.31 238.62 386.05 231.94 363.56C231.875 363.334 231.854 363.098 231.88 362.864C231.906 362.63 231.977 362.403 232.091 362.197C232.204 361.991 232.357 361.809 232.54 361.662C232.724 361.515 232.934 361.406 233.16 361.34C233.386 361.274 233.623 361.254 233.857 361.28C234.09 361.305 234.317 361.377 234.523 361.49C234.729 361.604 234.911 361.756 235.058 361.94C235.205 362.123 235.315 362.334 235.38 362.56C240.69 380.41 251.67 411.34 265.69 418.04C267.183 418.81 268.828 419.241 270.506 419.301C272.185 419.362 273.856 419.051 275.4 418.39C276.392 418.063 277.3 417.524 278.06 416.808C278.82 416.093 279.414 415.22 279.8 414.25C281.92 408.25 276.18 397.83 270.64 387.72C267.43 381.86 264.11 375.8 262.34 370.57C260.504 365.083 258.975 359.497 257.76 353.84C257.694 353.391 257.801 352.934 258.059 352.561C258.317 352.187 258.707 351.926 259.15 351.829C259.594 351.733 260.057 351.808 260.447 352.04C260.837 352.273 261.124 352.644 261.25 353.08C262.444 358.605 263.943 364.06 265.74 369.42C267.41 374.36 270.65 380.28 273.79 386C279.98 397.3 285.79 408 283.17 415.44C282.624 416.889 281.767 418.2 280.66 419.281C279.553 420.363 278.221 421.188 276.76 421.7C274.911 422.461 272.931 422.855 270.93 422.86Z" fill="black"/>
<path opacity="0.35" d="M97.3602 259.72C97.0225 259.72 96.6956 259.601 96.4376 259.383C96.1795 259.165 96.0068 258.863 95.9502 258.53L94.1602 247.81C94.0994 247.435 94.1893 247.051 94.4103 246.742C94.6313 246.433 94.9656 246.224 95.3402 246.16C95.5271 246.123 95.7196 246.124 95.9061 246.163C96.0926 246.202 96.2692 246.279 96.4253 246.388C96.5814 246.497 96.7137 246.637 96.8142 246.799C96.9148 246.961 96.9814 247.142 97.0102 247.33L98.8102 258.06C98.8708 258.434 98.7806 258.817 98.5594 259.124C98.3381 259.432 98.0039 259.639 97.6302 259.7L97.3602 259.72Z" fill="black"/>
<path opacity="0.35" d="M277.8 289.65C277.466 289.648 277.138 289.554 276.854 289.378C276.57 289.201 276.34 288.949 276.19 288.65C276.086 288.44 276.025 288.212 276.01 287.978C275.996 287.744 276.027 287.51 276.103 287.289C276.18 287.067 276.299 286.863 276.455 286.689C276.61 286.514 276.799 286.371 277.01 286.27C279.004 285.384 280.807 284.121 282.32 282.55C280.572 281.965 278.732 281.708 276.89 281.79C276.468 281.795 276.057 281.651 275.731 281.383C275.405 281.115 275.184 280.74 275.107 280.325C275.031 279.91 275.104 279.481 275.313 279.114C275.522 278.747 275.854 278.466 276.25 278.32C283.19 275.83 287.62 268.03 289.44 261.57C290.8 256.77 290.52 253.57 290.09 252.95C289.94 252.83 289.766 252.745 289.579 252.7C289.393 252.655 289.198 252.652 289.01 252.69C287.883 253.136 286.936 253.945 286.32 254.99C286.145 255.268 285.897 255.493 285.603 255.639C285.309 255.786 284.98 255.849 284.653 255.821C284.326 255.793 284.012 255.675 283.747 255.481C283.482 255.287 283.276 255.024 283.15 254.72C276.31 238.16 269.68 232.72 265.33 231C264.252 230.563 263.103 230.326 261.94 230.3C265.88 235.8 274.72 249.79 270.94 259.99C268 267.91 263.53 272.27 260.3 274.54C260.11 274.703 259.889 274.823 259.649 274.895C259.409 274.966 259.158 274.986 258.91 274.953C258.662 274.921 258.424 274.836 258.211 274.705C257.998 274.575 257.815 274.4 257.673 274.194C257.532 273.988 257.436 273.754 257.391 273.509C257.346 273.263 257.353 273.01 257.413 272.767C257.472 272.524 257.581 272.297 257.734 272.099C257.887 271.901 258.08 271.738 258.3 271.62C262.62 268.352 265.868 263.872 267.63 258.75C271.63 247.97 257.63 230.4 257.46 230.22C257.293 230.012 257.175 229.77 257.112 229.51C257.05 229.251 257.046 228.981 257.1 228.72C257.155 228.46 257.268 228.216 257.431 228.007C257.594 227.797 257.802 227.627 258.04 227.51C258.39 227.33 261.63 225.8 266.46 227.58C273.37 230.12 279.74 237.92 285.41 250.74C286.265 249.986 287.297 249.463 288.41 249.22C289.086 249.087 289.783 249.097 290.455 249.251C291.127 249.404 291.759 249.697 292.31 250.11C294.36 251.57 294.31 255.35 293.9 258.26C292.9 265.43 289.07 274.04 282.67 278.91C284.013 279.202 285.187 280.01 285.94 281.16C286.108 281.483 286.207 281.837 286.231 282.2C286.255 282.563 286.204 282.928 286.08 283.27C285.33 285.58 281.76 288.01 278.67 289.52C278.396 289.637 278.097 289.682 277.8 289.65Z" fill="black"/>
</g>
<path d="M223.33 310.4C223.33 310.4 227.51 307.66 228.58 308.13C229.65 308.6 232.76 314.21 232.52 314.92C232.28 315.63 229.18 317.78 227.39 317.07C225.6 316.36 223.33 310.4 223.33 310.4Z" fill="#EEEFEF"/>
<path d="M233.83 304.44C233.83 304.44 237.83 301.44 238.83 301.94C239.83 302.44 242.54 306.23 242.18 307.42C241.82 308.61 238.72 309.69 238.36 309.69C238 309.69 233.83 304.44 233.83 304.44Z" fill="#EEEFEF"/>
<path d="M244.58 298.13C244.58 298.13 248.05 295.51 249.01 295.75C249.97 295.99 253.19 299.81 252.95 300.28C252.71 300.75 249.6 303.14 248.65 302.78C247.7 302.42 244.58 298.13 244.58 298.13Z" fill="#EEEFEF"/>
<path d="M192.01 325.99C197.15 327.06 209.33 342.79 209.01 349.1C208.69 355.41 207.21 364.35 204.22 366.85C201.23 369.35 199.33 369 199.92 367.46C200.51 365.92 203.86 353.88 203.51 349.7C202.91 342.49 192.28 330.4 191.57 329.21C190.86 328.02 192.01 325.99 192.01 325.99Z" fill="#EEEFEF"/>
<path d="M196.69 350.43C197.41 356.99 190.6 374.02 187.14 376.17C183.68 378.32 180.69 376.65 180.69 375.17C180.69 373.69 191.44 361.71 190.12 350.62C188.8 339.53 178.18 329.62 178.18 329.62C178.18 329.62 179.49 326.62 181.88 327C184.27 327.38 196.01 343.88 196.69 350.43Z" fill="#EEEFEF"/>
<path d="M193.01 315.7C195.01 316.24 194.08 320.53 193.9 321.96C193.72 323.39 187.81 322.67 187.1 322.67C186.39 322.67 186.02 315.88 186.02 315.88C186.02 315.88 191.08 315.17 193.01 315.7Z" fill="#EEEFEF"/>
<path d="M167.79 327.86C167.79 327.86 184.09 344.12 183.37 353.77C182.65 363.42 175.13 376.11 171.19 377.9C167.25 379.69 164.56 378.08 165.28 376.29C166 374.5 177.46 359.67 176.39 351.29C175.32 342.91 165.46 331.81 165.46 330.38C165.46 328.95 167.79 327.86 167.79 327.86Z" fill="#EEEFEF"/>
<path d="M181.76 315.7C182.66 316.06 183.19 321.6 182.84 322.32C182.49 323.04 176.21 324.82 174.24 323.21C172.27 321.6 173.16 316.42 173.16 316.42C173.16 316.42 180.86 315.35 181.76 315.7Z" fill="#EEEFEF"/>
<path d="M167.79 316.78C169.79 317.31 168.32 319.64 167.79 322.32C167.26 325 163.66 324.64 160.26 324.46C156.86 324.28 157.04 317.67 157.04 317.67C157.04 317.67 165.81 316.24 167.79 316.78Z" fill="#EEEFEF"/>
<path d="M166.35 345.73C167.61 350.55 158.11 352.88 158.11 352.88C158.11 352.88 143.6 379.88 143.11 383.62C142.62 387.36 144.9 387.37 142.57 389.87C140.24 392.37 136.66 387.73 136.66 387.73C136.66 387.73 131.82 393.8 128.78 390.73C125.74 387.66 132.18 383.41 132.9 383.41C133.62 383.41 149.74 349.09 149.74 349.09C149.74 349.09 145.26 340.69 151.17 338.73C155.08 337.43 155.83 344.81 155.83 344.81C155.83 344.81 165.1 340.9 166.35 345.73Z" fill="#EEEFEF"/>
<path d="M147.54 317.67C150.76 318.74 152.73 329.11 147.72 335.54C142.71 341.97 135.01 343.4 133.21 344.12C131.41 344.84 131.06 351.12 129.08 354.66C127.1 358.2 119.23 354.31 115.29 351.81C111.35 349.31 109.2 337.15 110.63 333.93C112.06 330.71 128.37 330.72 131.63 328.21C134.89 325.7 146.62 317.36 147.54 317.67Z" fill="#EEEFEF"/>
<path d="M128.19 199.54C135 202.93 138.04 214.73 135.19 225.45C132.34 236.17 121.57 235.45 121.57 235.45C121.57 235.45 125.87 239.74 123.72 243.13C121.57 246.52 118.01 241.36 118.01 241.36C118.01 241.36 118.9 246.54 115.68 247.08C112.46 247.62 109.59 243.5 109.59 243.5C109.59 243.5 108.87 248.5 104.21 247.43C99.5501 246.36 97.7601 244.22 97.7601 244.22C97.7601 244.22 95.6101 248.68 91.4901 249.04C90.364 249.17 89.2263 248.925 88.2536 248.343C87.2809 247.761 86.5274 246.874 86.1101 245.82C86.1101 245.82 83.7801 249.22 80.0201 248.15C76.2601 247.08 77.6901 244.04 77.6901 244.04C77.6901 244.04 70.8801 235.64 71.9601 230.81C73.0401 225.98 78.7701 223.31 78.7701 223.31C78.7701 223.31 74.1101 211.87 82.1701 205.61C90.2301 199.35 99.1701 204.54 99.1701 204.54C109.56 197.93 121.38 196.14 128.19 199.54ZM117.49 215.12C117.543 213.79 117.135 212.482 116.335 211.418C115.535 210.354 114.392 209.599 113.1 209.28C112.79 209.22 112.476 209.19 112.16 209.19C109.22 209.19 106.83 211.84 106.83 215.12C106.83 218.4 109.22 221.05 112.16 221.05C112.85 221.038 113.531 220.885 114.16 220.6C115.177 220.095 116.029 219.312 116.619 218.342C117.208 217.372 117.51 216.255 117.49 215.12ZM91.5801 235.7C95.4001 235.34 100.42 231.76 98.9801 229.86C97.5401 227.96 88.2001 228.33 85.3701 230.22C82.2801 232.27 87.7501 236.05 91.5801 235.7ZM95.9701 216.7C95.9938 215.588 95.7081 214.492 95.1448 213.533C94.5815 212.574 93.7628 211.791 92.7801 211.27C92.1181 210.942 91.3891 210.77 90.6501 210.77C87.6501 210.77 85.3201 213.42 85.3201 216.7C85.3201 219.98 87.7001 222.63 90.6501 222.63H91.1301C92.5424 222.425 93.8267 221.698 94.73 220.593C95.6332 219.488 96.0899 218.085 96.0101 216.66L95.9701 216.7Z" fill="#EEEFEF"/>
<path d="M125.68 314.99C127.83 315.7 129.26 322.14 128.37 323.21C127.48 324.28 123.01 326.07 121.01 324.99C119.01 323.91 116.53 317.3 119.58 316.05C119.59 316.06 123.53 314.27 125.68 314.99Z" fill="#EEEFEF"/>
<path d="M121.92 297.99C123.17 299.78 126.04 307.1 124.78 307.64C123.52 308.18 118.69 310.64 116.72 308.36C114.75 306.08 113.86 300.36 113.86 300.36C114.39 299.99 120.66 296.22 121.92 297.99Z" fill="#EEEFEF"/>
<path d="M118.51 283.71C119.77 285.32 121.92 291.58 119.23 293.36C116.54 295.14 111.53 295.51 111.17 293.18C110.81 290.85 110.09 283.89 110.09 283.53C110.09 283.53 117.26 282.1 118.51 283.71Z" fill="#EEEFEF"/>
<path d="M119.17 251.31C120.96 252.02 120.17 259.17 116.54 262.15C112.91 265.13 90.6201 267.04 84.7701 265.61C78.9201 264.18 78.7701 258.46 79.0401 256.91C79.3735 256.251 79.8865 255.699 80.5199 255.319C81.1534 254.938 81.8814 254.745 82.6201 254.76C84.0536 254.797 85.4363 255.299 86.5601 256.19C86.5601 256.19 88.4701 252.49 92.1801 253.19C95.8901 253.89 97.1801 256.05 97.1801 256.05C97.1801 256.05 97.5401 254.05 101 252.95C104.46 251.85 106.5 255.22 106.5 255.22C106.5 255.22 107.22 252.83 110.8 252.36C114.38 251.89 114.26 254.26 114.26 254.26C114.26 254.26 117.38 250.59 119.17 251.31Z" fill="#EEEFEF"/>
<path d="M117.44 274.06C117.587 274.406 117.648 274.783 117.617 275.157C117.585 275.532 117.463 275.893 117.26 276.21C117.26 276.21 109.91 278.21 108.66 276.39C107.41 274.57 105.61 268.17 109.2 268.34C109.2 268.34 114.39 267.63 115.65 268.34C116.91 269.05 116.9 272.99 117.44 274.06Z" fill="#EEEFEF"/>
<path d="M112.16 209.19C112.476 209.19 112.79 209.22 113.1 209.28C112.091 209.791 111.247 210.576 110.665 211.545C110.083 212.515 109.786 213.629 109.81 214.76C109.762 216.091 110.173 217.397 110.974 218.461C111.775 219.524 112.918 220.279 114.21 220.6C113.581 220.885 112.9 221.038 112.21 221.05C109.27 221.05 106.88 218.4 106.88 215.12C106.88 211.84 109.22 209.19 112.16 209.19Z" fill="#B9BBBD"/>
<path d="M103.46 345.37C103.46 345.37 108.55 348.28 106.63 351.98C104.95 355.2 98.0902 351.81 98.0902 351.81L77.0902 357.52C77.0902 357.52 75.0902 364.52 70.9902 363.42C66.8902 362.32 67.5902 357.7 67.5902 357.7C67.5902 357.7 60.0602 357.34 62.9302 353.59C65.8002 349.84 70.5002 351.99 70.5002 351.99L97.7302 343.41C97.7302 343.41 97.7302 335.84 102.33 338.18C106.93 340.52 103.46 345.37 103.46 345.37Z" fill="#EEEFEF"/>
<path d="M87.9501 217.14C87.9254 218.251 88.2096 219.347 88.7711 220.305C89.3326 221.264 90.1492 222.048 91.1301 222.57H90.6501C87.6501 222.57 85.3201 219.92 85.3201 216.64C85.3201 213.36 87.7001 210.71 90.6501 210.71C91.3891 210.71 92.118 210.882 92.7801 211.21C91.386 211.43 90.1222 212.157 89.2309 213.251C88.3396 214.346 87.8835 215.73 87.9501 217.14Z" fill="#B9BBBD"/>
<path d="M126.93 199.27C126.93 199.27 134.28 209.46 130.93 219.65C127.58 229.84 126.72 229.93 122.15 231.44C117.58 232.95 116.09 233.99 116.45 235.37C116.81 236.75 118.69 236.89 119.59 239.37C120.49 241.85 119.67 243.93 120.66 244.2C121.65 244.47 122.99 245.2 123.66 243.93C124.33 242.66 122.27 235.99 122.27 235.99C122.27 235.99 127.19 236.52 132.39 229.91C137.59 223.3 137.32 213.11 135.97 210.16C134.62 207.21 132.01 202.58 132.01 202.58" fill="#CED0D1"/>
<path d="M112.6 253.33C112.6 253.33 113.95 255.03 113.6 258.69C113.25 262.35 112.8 263.16 112.8 263.16C112.8 263.16 115.13 264.16 117.46 261.55C119.79 258.94 120.95 253.69 119.69 252.08C118.43 250.47 116.54 251.99 116.54 251.99" fill="#CED0D1"/>
<path d="M113.01 268.79C113.01 268.79 113.9 272.79 114.17 274.51C114.44 276.23 113.99 276.39 114.25 276.57C114.51 276.75 117.25 276.93 117.25 275.77C117.25 274.61 115.99 268.54 115.99 268.54" fill="#CED0D1"/>
<path d="M115.65 283.53C115.65 283.53 117.44 289.7 117.17 291.53C116.9 293.36 115.65 293.85 116.27 294.12C116.89 294.39 118.69 293.76 119.77 291.61C120.85 289.46 117.77 283.48 117.77 283.48" fill="#CED0D1"/>
<path d="M118.6 298.37C118.6 298.37 121.6 304.37 121.74 306.23C121.88 308.09 120.84 308.65 122.01 308.73C123.18 308.81 125.15 307.66 125.15 306.73C125.15 305.8 122.28 298.99 121.93 297.99" fill="#CED0D1"/>
<path d="M123.35 315.44C124.168 317.421 124.86 319.452 125.42 321.52C126.13 324.37 124.88 325.36 126.13 324.82C127.38 324.28 129.08 323.21 129.08 322.23C129.08 321.25 126.3 314.9 126.3 314.9" fill="#CED0D1"/>
<path d="M144.31 319.73C144.31 319.73 147.72 322.05 144.59 328.58C141.46 335.11 141.9 337.07 137.15 339.03C132.4 340.99 130.7 340.73 129.62 343.32C128.54 345.91 125.32 354.99 127.01 355.11C128.7 355.23 128.53 356.46 129.6 353.96C130.67 351.46 133.72 344.31 133.72 344.31C133.72 344.31 142.5 341 147.16 335.81C151.82 330.62 150.56 320.09 149.75 319.1C148.938 318.364 147.955 317.841 146.89 317.58" fill="#CED0D1"/>
<path d="M163.36 343.4C163.36 343.4 165.87 344.6 163.49 346.86C161.11 349.12 156.32 349.72 155.24 351.5C154.16 353.28 139.36 383.32 139.36 385.34C139.36 387.36 139.95 388.08 139.36 389.27C138.77 390.46 141.36 392.72 142.7 389.27C143.489 387.179 143.856 384.953 143.78 382.72L158.01 353.28C158.01 353.28 165.89 352.09 166.25 346.61" fill="#CED0D1"/>
<path d="M68.8802 359.99C68.8802 359.99 71.2702 362.49 72.8802 360.47C74.4902 358.45 73.7102 355.82 75.6202 354.98C77.5302 354.14 97.2402 348.07 99.3902 348.91C101.54 349.75 102.26 351.41 104.29 350.46C106.32 349.51 105.6 348.46 106.29 349.51C106.98 350.56 107.29 351.42 106.64 352.01C105.99 352.6 106.64 352.72 105.33 352.96C104.02 353.2 104.33 353.68 103.33 353.08C102.33 352.48 96.8802 351.65 96.8802 351.65L77.1202 357.99C77.1202 357.99 76.8802 360.85 73.1802 362.75C69.4802 364.65 68.1802 362.4 68.1802 362.4" fill="#CED0D1"/>
<path d="M157.75 321.42C158.02 321.51 163.93 323.12 165 321.06C166.07 319 164.65 316.42 166.52 316.78C168.39 317.14 168.95 317.58 168.52 319.36C168.09 321.14 168.43 323.57 167.26 323.83C165.838 324.053 164.396 324.113 162.96 324.01C161.704 324.017 160.449 323.957 159.2 323.83" fill="#CED0D1"/>
<path d="M173.52 321.06C173.52 321.06 178.18 322.22 179.61 320.79C181.04 319.36 178 316.06 179.43 315.97C180.86 315.88 181.94 315.79 182.21 316.6C182.369 318.115 182.399 319.64 182.3 321.16C182.3 321.16 183.1 322.05 182.3 322.32C181.5 322.59 181.85 323.21 178.99 323.39C177.797 323.53 176.593 323.53 175.4 323.39" fill="#CED0D1"/>
<path d="M187.94 320.09C187.94 320.09 188.83 321.43 190.36 319.55C191.89 317.67 191.36 316.33 191.79 316.33C192.22 316.33 193.14 315.62 193.41 316.87C193.68 318.12 193.41 320.72 193.13 320.87C192.85 321.02 194.3 322.02 192.24 322.38C190.955 322.713 189.624 322.835 188.3 322.74C188.05 322.61 187.81 322.463 187.58 322.3" fill="#CED0D1"/>
<path d="M90.89 250.5C89.9238 250.513 88.9669 250.31 88.0896 249.905C87.2123 249.5 86.4368 248.904 85.82 248.16C84.9793 248.888 83.97 249.395 82.8838 249.634C81.7976 249.873 80.6689 249.838 79.6 249.53C78.8968 249.382 78.2362 249.077 77.6681 248.637C77.0999 248.197 76.639 247.634 76.32 246.99C75.9478 246.148 75.8601 245.207 76.07 244.31C74.39 242.12 69.48 235.2 70.53 230.49C71.44 226.41 75.1 223.75 76.99 222.61C75.99 219.31 73.99 210.13 81.26 204.46C88.53 198.79 96.59 201.7 99.09 202.88C109.45 196.54 121.58 194.62 128.83 198.24C136.08 201.86 139.64 214.24 136.56 225.8C135.883 228.651 134.345 231.225 132.156 233.173C129.966 235.121 127.231 236.349 124.32 236.69C125.49 238.57 126.54 241.34 124.92 243.9C124.633 244.428 124.214 244.874 123.704 245.192C123.194 245.511 122.611 245.693 122.01 245.72C121.046 245.696 120.115 245.367 119.35 244.78C119.21 245.525 118.917 246.233 118.49 246.86C118.188 247.291 117.802 247.656 117.355 247.934C116.908 248.213 116.41 248.398 115.89 248.48C113.52 248.87 111.45 247.48 110.08 246.23C109.66 246.984 109.075 247.633 108.37 248.13C107.712 248.557 106.97 248.84 106.194 248.959C105.418 249.078 104.626 249.03 103.87 248.82C101.8 248.389 99.8341 247.56 98.08 246.38C97.3504 247.482 96.3941 248.416 95.275 249.12C94.1559 249.823 92.8996 250.28 91.59 250.46C91.3578 250.488 91.124 250.501 90.89 250.5ZM86.08 244.4H86.26C86.5216 244.434 86.7687 244.539 86.9736 244.705C87.1784 244.871 87.333 245.091 87.42 245.34C87.7287 246.096 88.2786 246.728 88.9839 247.138C89.6893 247.549 90.5106 247.715 91.32 247.61C94.54 247.33 96.41 243.61 96.43 243.61C96.5332 243.393 96.6892 243.206 96.8837 243.066C97.0782 242.925 97.3049 242.836 97.543 242.806C97.781 242.776 98.0227 242.807 98.2459 242.895C98.4691 242.983 98.6665 243.126 98.82 243.31C98.82 243.31 100.44 245.12 104.49 246.05C104.859 246.167 105.249 246.205 105.633 246.16C106.017 246.115 106.388 245.989 106.72 245.79C107.461 245.147 107.956 244.267 108.12 243.3C108.164 243.016 108.291 242.752 108.486 242.542C108.681 242.331 108.935 242.183 109.214 242.118C109.494 242.052 109.786 242.072 110.055 242.174C110.323 242.276 110.555 242.455 110.72 242.69C111.38 243.63 113.5 245.99 115.4 245.69C115.65 245.69 116.4 245.53 116.58 243.9C116.681 243.143 116.681 242.377 116.58 241.62C116.54 241.303 116.607 240.982 116.771 240.707C116.935 240.433 117.186 240.221 117.484 240.106C117.782 239.991 118.11 239.979 118.415 240.072C118.721 240.165 118.987 240.358 119.17 240.62C119.94 241.72 121.27 242.95 121.95 242.95C122.12 242.95 122.3 242.78 122.51 242.46C124.01 240.09 120.6 236.58 120.51 236.55C120.304 236.345 120.165 236.082 120.113 235.796C120.061 235.509 120.099 235.214 120.22 234.95C120.335 234.68 120.532 234.454 120.784 234.303C121.035 234.152 121.328 234.084 121.62 234.11C122 234.11 131.23 234.58 133.75 225.11C136.45 214.99 133.59 203.88 127.51 200.84C121.01 197.54 109.63 199.57 99.92 205.74C99.6949 205.875 99.4374 205.946 99.175 205.946C98.9126 205.946 98.6552 205.875 98.43 205.74C98.1 205.55 90.18 201.13 83.01 206.74C75.84 212.35 79.88 222.34 80.01 222.74C80.1462 223.08 80.1463 223.46 80.0105 223.801C79.8746 224.141 79.6131 224.417 79.28 224.57C79.28 224.57 74.17 227.03 73.28 231.09C72.61 234.09 76.28 240.09 78.73 243.09C78.899 243.299 79.0056 243.552 79.0374 243.819C79.0692 244.086 79.0251 244.357 78.91 244.6C78.7693 244.984 78.7693 245.406 78.91 245.79C79.2578 246.275 79.7756 246.61 80.36 246.73C83.1 247.51 84.87 245 84.88 244.97C85.0213 244.787 85.2035 244.641 85.412 244.542C85.6205 244.443 85.8493 244.394 86.08 244.4Z" fill="black"/>
<path d="M112.16 222.13C108.62 222.13 105.75 218.99 105.75 215.13C105.75 211.27 108.62 208.13 112.16 208.13C115.7 208.13 118.56 211.27 118.56 215.13C118.56 218.99 115.69 222.13 112.16 222.13ZM112.16 210.26C109.81 210.26 107.9 212.44 107.9 215.12C107.9 217.8 109.81 219.99 112.16 219.99C114.51 219.99 116.41 217.81 116.41 215.13C116.41 212.45 114.5 210.26 112.16 210.26Z" fill="black"/>
<path d="M114.21 221.67H114C112.463 221.304 111.1 220.418 110.142 219.163C109.183 217.907 108.688 216.359 108.74 214.78C108.708 213.444 109.059 212.126 109.752 210.983C110.445 209.84 111.451 208.92 112.65 208.33C112.778 208.265 112.918 208.226 113.062 208.216C113.205 208.206 113.349 208.225 113.485 208.272C113.621 208.319 113.746 208.393 113.852 208.49C113.959 208.586 114.045 208.703 114.106 208.833C114.166 208.964 114.2 209.105 114.205 209.249C114.209 209.393 114.185 209.536 114.133 209.67C114.081 209.804 114.003 209.926 113.903 210.029C113.803 210.132 113.683 210.214 113.55 210.27C112.725 210.692 112.037 211.34 111.566 212.139C111.095 212.938 110.86 213.853 110.89 214.78C110.839 215.861 111.16 216.927 111.801 217.799C112.442 218.671 113.363 219.296 114.41 219.57C114.67 219.621 114.903 219.767 115.061 219.98C115.22 220.192 115.294 220.456 115.27 220.721C115.245 220.985 115.122 221.23 114.927 221.409C114.731 221.589 114.475 221.689 114.21 221.69V221.67Z" fill="black"/>
<path d="M90.64 223.66C87.11 223.66 84.24 220.52 84.24 216.66C84.24 212.8 87.11 209.66 90.64 209.66C94.17 209.66 97.01 212.79 97.01 216.66C97.01 220.53 94.18 223.66 90.64 223.66ZM90.64 211.8C88.3 211.8 86.39 213.98 86.39 216.67C86.39 219.36 88.29 221.53 90.64 221.53C92.99 221.53 94.9 219.35 94.9 216.67C94.9 213.99 93.01 211.8 90.64 211.8Z" fill="black"/>
<path d="M91.1201 223.64C90.9568 223.642 90.7955 223.605 90.6501 223.53C89.491 222.918 88.5241 221.997 87.8569 220.869C87.1896 219.741 86.848 218.45 86.8701 217.14C86.796 215.462 87.3485 213.815 88.4205 212.522C89.4924 211.228 91.0071 210.379 92.6701 210.14C92.8139 210.125 92.9592 210.139 93.0974 210.182C93.2355 210.224 93.3636 210.294 93.4738 210.388C93.5841 210.481 93.6743 210.596 93.739 210.725C93.8037 210.855 93.8415 210.996 93.8501 211.14C93.8638 211.284 93.8487 211.428 93.8055 211.566C93.7624 211.703 93.6921 211.831 93.5989 211.941C93.5057 212.051 93.3915 212.141 93.2629 212.206C93.1343 212.271 92.9939 212.31 92.8501 212.32C91.7359 212.524 90.7332 213.125 90.0274 214.011C89.3215 214.897 88.9602 216.008 89.0101 217.14C88.9852 218.051 89.213 218.951 89.6685 219.74C90.1239 220.529 90.7891 221.176 91.5901 221.61C91.7174 221.672 91.8311 221.758 91.9247 221.864C92.0183 221.97 92.09 222.094 92.1356 222.228C92.1811 222.362 92.1997 222.503 92.1902 222.644C92.1807 222.786 92.1433 222.923 92.0801 223.05C91.989 223.226 91.8515 223.375 91.6823 223.479C91.5131 223.583 91.3187 223.638 91.1201 223.64Z" fill="black"/>
<path d="M91.0601 236.8C87.9801 236.8 84.3401 234.8 83.5501 232.59C83.33 231.991 83.332 231.332 83.5558 230.734C83.7797 230.136 84.2105 229.638 84.7701 229.33C87.7001 227.39 97.8701 226.6 99.8401 229.23C100.106 229.595 100.266 230.026 100.301 230.477C100.336 230.927 100.246 231.378 100.04 231.78C99.0401 234.04 94.9701 236.47 91.6701 236.78C91.4701 236.78 91.2701 236.8 91.0601 236.8ZM93.4401 229.68C90.6801 229.68 87.4401 230.11 85.9501 231.11C85.4201 231.46 85.5101 231.7 85.5701 231.87C86.0401 233.19 89.1701 234.87 91.4701 234.64C94.1301 234.39 97.4701 232.33 98.0701 230.91C98.2001 230.62 98.1301 230.54 98.0701 230.51C97.7301 229.99 95.7401 229.68 93.4401 229.68Z" fill="black"/>
<path d="M91.1902 267.51C88.9216 267.574 86.6525 267.399 84.4202 266.99C77.7802 265.37 77.2502 258.99 77.6102 256.69C77.635 256.556 77.6752 256.425 77.7302 256.3C78.1811 255.367 78.8944 254.587 79.7826 254.054C80.6708 253.521 81.6952 253.259 82.7302 253.3C83.9429 253.344 85.131 253.655 86.2102 254.21C86.9368 253.272 87.9056 252.55 89.0122 252.122C90.1189 251.693 91.3214 251.575 92.4902 251.78C94.1171 252.059 95.6533 252.725 96.9702 253.72C97.9795 252.696 99.2424 251.957 100.63 251.58C101.624 251.278 102.679 251.239 103.692 251.467C104.705 251.695 105.642 252.182 106.41 252.88C107.559 251.75 109.058 251.045 110.66 250.88C111.352 250.731 112.069 250.734 112.759 250.89C113.45 251.045 114.099 251.349 114.66 251.78C116.01 250.61 118.01 249.29 119.7 249.99C120.198 250.224 120.621 250.591 120.924 251.049C121.228 251.508 121.399 252.041 121.42 252.59C121.85 255.33 120.71 260.59 117.42 263.25C114.13 265.91 100.34 267.51 91.1902 267.51ZM80.4302 257.34C80.3602 258.41 80.3202 263.05 85.1102 264.21C91.1102 265.67 112.77 263.43 115.63 261.04C118.49 258.65 119 253.85 118.51 252.64C117.285 253.247 116.212 254.122 115.37 255.2C115.172 255.443 114.901 255.617 114.597 255.696C114.293 255.775 113.972 255.755 113.68 255.64C113.399 255.529 113.164 255.326 113.011 255.065C112.859 254.804 112.799 254.499 112.84 254.2C112.815 254.107 112.763 254.023 112.69 253.96C112.59 253.88 112.19 253.62 111 253.78C108.45 254.12 107.89 255.6 107.87 255.67C107.793 255.936 107.639 256.172 107.427 256.35C107.215 256.528 106.955 256.64 106.68 256.67C106.405 256.704 106.126 256.657 105.877 256.535C105.628 256.412 105.421 256.219 105.28 255.98C105.13 255.74 103.72 253.63 101.44 254.34C98.9602 255.11 98.6002 256.34 98.5902 256.34C98.5404 256.623 98.404 256.884 98.1998 257.086C97.9956 257.289 97.7338 257.423 97.4502 257.47C97.1719 257.514 96.8867 257.475 96.6305 257.358C96.3743 257.24 96.1585 257.05 96.0102 256.81C94.9823 255.586 93.5271 254.8 91.9402 254.61C89.3602 254.1 87.9402 256.73 87.8702 256.85C87.7683 257.039 87.6258 257.204 87.453 257.332C87.2801 257.46 87.0811 257.548 86.8702 257.59C86.6552 257.628 86.4343 257.616 86.2246 257.555C86.0149 257.495 85.8218 257.387 85.6602 257.24C84.7912 256.59 83.7447 256.22 82.6602 256.18C82.2173 256.146 81.7737 256.237 81.3796 256.442C80.9855 256.647 80.6566 256.958 80.4302 257.34Z" fill="black"/>
<path d="M111.4 278.57C109.69 278.57 108.2 278.22 107.48 277.21C106.33 275.56 104.83 271.01 106.19 268.54C106.473 268.018 106.899 267.587 107.418 267.298C107.937 267.009 108.527 266.875 109.12 266.91C111.26 266.63 114.92 266.28 116.36 267.11C117.8 267.94 118.08 269.91 118.36 271.85C118.425 272.384 118.532 272.913 118.68 273.43C118.941 274.001 119.053 274.629 119.006 275.255C118.958 275.881 118.754 276.485 118.41 277.01C118.215 277.299 117.919 277.506 117.58 277.59C115.566 278.161 113.492 278.49 111.4 278.57ZM109.8 275.57C110.47 275.98 113.37 275.73 116.2 275.06C116.225 274.962 116.225 274.858 116.2 274.76C115.886 273.99 115.687 273.178 115.61 272.35C115.509 271.413 115.28 270.495 114.93 269.62C113.096 269.439 111.246 269.506 109.43 269.82H109.17C108.84 269.82 108.79 269.88 108.74 269.97C108.12 270.99 109.01 274.3 109.8 275.52V275.57Z" fill="black"/>
<path d="M114.24 296.25C113.364 296.267 112.493 296.107 111.68 295.78C111.178 295.585 110.736 295.263 110.396 294.846C110.056 294.429 109.83 293.931 109.74 293.4C109.41 291.25 108.65 284.08 108.65 283.53C108.651 283.198 108.767 282.877 108.979 282.622C109.191 282.367 109.484 282.193 109.81 282.13C112.81 281.53 118.08 280.83 119.64 282.83C120.69 284.17 122.36 288.32 121.85 291.46C121.781 292.076 121.581 292.671 121.264 293.204C120.946 293.736 120.519 294.195 120.01 294.55C118.285 295.647 116.285 296.236 114.24 296.25ZM111.63 284.71C111.85 286.87 112.31 291.23 112.58 292.97C112.58 293.05 112.77 293.13 112.84 293.17C113.96 293.66 116.71 293.33 118.44 292.17C118.61 292.022 118.749 291.841 118.847 291.639C118.945 291.436 119 291.215 119.01 290.99C119.119 288.751 118.558 286.53 117.4 284.61C116.81 284.26 114.26 284.31 111.63 284.71Z" fill="black"/>
<path d="M119.14 310.79C118.48 310.824 117.821 310.708 117.211 310.452C116.602 310.196 116.058 309.805 115.62 309.31C113.45 306.75 112.53 301.19 112.43 300.56C112.388 300.29 112.424 300.014 112.534 299.764C112.644 299.515 112.823 299.301 113.05 299.15C113.37 298.94 120.85 294.02 123.05 297.2C124.05 298.7 127.05 305.37 126.37 307.72C126.304 307.995 126.178 308.252 126 308.472C125.821 308.692 125.596 308.869 125.34 308.99L124.96 309.16C123.149 310.088 121.17 310.643 119.14 310.79ZM115.44 301.04C115.82 302.91 116.64 306.04 117.81 307.45C118.53 308.3 120.5 308.01 123.66 306.6C123.109 303.934 122.155 301.368 120.83 298.99C119.92 298.81 117.16 300.06 115.44 301.04Z" fill="black"/>
<path d="M122.62 326.76C121.826 326.786 121.038 326.61 120.33 326.25C118.39 325.25 116.58 321.25 116.74 318.36C116.721 317.602 116.926 316.854 117.33 316.212C117.733 315.57 118.318 315.061 119.01 314.75C119.8 314.39 123.59 312.75 126.12 313.64C128.05 314.28 129.12 316.98 129.52 318.53C129.87 319.76 130.58 322.79 129.46 324.13C128.48 325.31 125.27 326.76 122.62 326.76ZM124.48 316.25C122.992 316.362 121.536 316.738 120.18 317.36C120.07 317.41 119.71 317.56 119.65 318.49C119.54 320.49 121.03 323.33 121.75 323.72C122.9 324.34 126.38 323.12 127.23 322.35C127.52 321.09 126.23 316.71 125.23 316.35C124.986 316.281 124.734 316.247 124.48 316.25Z" fill="black"/>
<path d="M126.17 357.52C121.99 357.52 116.32 354.16 114.51 353.01C109.96 350.12 107.58 337.25 109.32 333.35C110.32 330.99 114.68 330.23 121.61 329.19C125.15 328.65 129.55 327.98 130.71 327.09C132.32 325.85 136.09 323.09 139.62 320.72C146.7 315.89 147.25 316.07 147.99 316.32C149.5 316.82 150.75 318.46 151.5 320.92C152.82 325.25 152.5 331.73 148.85 336.42C144.34 342.2 137.94 344.15 134.85 345.09C134.4 345.22 134 345.34 133.77 345.43C133.31 345.86 132.77 347.97 132.39 349.43C131.937 351.504 131.242 353.518 130.32 355.43C130.047 355.934 129.67 356.373 129.212 356.718C128.755 357.063 128.229 357.306 127.67 357.43C127.176 357.521 126.672 357.551 126.17 357.52ZM147.37 319.2C145.09 320.27 135.86 326.71 132.47 329.34C130.72 330.7 126.7 331.34 122.04 332.01C118.74 332.51 112.59 333.43 111.93 334.53C110.71 337.27 112.82 348.53 116.06 350.6C119.72 352.92 124.7 355.16 126.98 354.6C127.156 354.569 127.323 354.5 127.469 354.396C127.614 354.292 127.734 354.157 127.82 354C128.621 352.302 129.231 350.522 129.64 348.69C130.4 345.78 131.01 343.48 132.64 342.82C132.97 342.68 133.43 342.55 134 342.37C136.8 341.52 142.6 339.76 146.56 334.69C149.56 330.83 149.8 325.29 148.73 321.77C148.508 320.81 148.039 319.924 147.37 319.2Z" fill="black"/>
<path d="M71.9102 364.99C71.4918 364.989 71.0752 364.935 70.6702 364.83C69.3735 364.5 68.2243 363.746 67.4053 362.688C66.5863 361.63 66.1445 360.328 66.1502 358.99C64.4302 358.74 61.9702 358.08 61.1502 356.33C60.8983 355.728 60.8285 355.065 60.9493 354.423C61.0702 353.782 61.3764 353.189 61.8302 352.72C64.4202 349.33 68.4002 349.72 70.5502 350.46L96.3502 342.33C96.4902 340.72 97.0202 337.93 98.9202 336.77C99.5451 336.424 100.251 336.252 100.965 336.271C101.679 336.291 102.375 336.501 102.98 336.88C103.683 337.206 104.308 337.681 104.81 338.271C105.312 338.862 105.681 339.554 105.89 340.3C106.213 341.854 106.013 343.472 105.32 344.9C107.32 346.49 109.58 349.39 107.89 352.64C105.89 356.49 99.8902 354.18 97.9502 353.32L78.2502 358.69C77.3002 361.43 75.1802 364.99 71.9102 364.99ZM67.5302 352.82C66.8672 352.801 66.2093 352.942 65.6123 353.231C65.0153 353.52 64.4966 353.948 64.1002 354.48C63.9222 354.669 63.801 354.905 63.7502 355.16C63.9202 355.58 65.8202 356.16 67.6902 356.29C67.8833 356.305 68.0714 356.359 68.2432 356.448C68.415 356.537 68.567 356.661 68.6902 356.81C68.8143 356.968 68.9049 357.15 68.9565 357.344C69.0081 357.538 69.0195 357.741 68.9902 357.94C68.9402 358.27 68.5902 361.34 71.3402 362.05C74.0902 362.76 75.6802 357.21 75.7002 357.15C75.7641 356.91 75.8902 356.691 76.0658 356.516C76.2414 356.34 76.4602 356.214 76.7002 356.15L97.7002 350.43C98.0345 350.339 98.3905 350.375 98.7002 350.53C100.7 351.53 104.61 352.71 105.33 351.33C106.6 348.89 102.76 346.63 102.72 346.61C102.555 346.513 102.411 346.383 102.297 346.228C102.183 346.074 102.101 345.898 102.056 345.712C102.011 345.525 102.004 345.331 102.036 345.142C102.068 344.953 102.137 344.772 102.24 344.61C102.961 343.549 103.27 342.262 103.11 340.99C102.998 340.636 102.81 340.31 102.56 340.036C102.309 339.761 102.002 339.544 101.66 339.4C101.26 339.2 100.72 339 100.4 339.2C99.5902 339.68 99.1602 341.94 99.1502 343.38C99.1463 343.683 99.0478 343.977 98.8685 344.221C98.6892 344.464 98.438 344.646 98.1502 344.74L70.9102 353.33C70.5808 353.433 70.2249 353.412 69.9102 353.27C69.153 352.967 68.3459 352.807 67.5302 352.8V352.82Z" fill="black"/>
<path d="M130.71 393.04C130.15 393.042 129.596 392.931 129.08 392.712C128.564 392.494 128.098 392.174 127.71 391.77C127.109 391.195 126.702 390.446 126.546 389.629C126.39 388.812 126.493 387.966 126.84 387.21C127.97 385.033 129.773 383.28 131.98 382.21C133.61 379.59 142.48 361.06 148.09 349.12C147.37 347.54 145.86 343.66 147.09 340.61C147.408 339.84 147.895 339.15 148.514 338.593C149.134 338.036 149.871 337.625 150.67 337.39C151.219 337.189 151.807 337.118 152.389 337.182C152.97 337.246 153.528 337.444 154.02 337.76C155.7 338.84 156.52 341.21 156.9 342.88C159.09 342.16 162.9 341.26 165.42 342.5C165.995 342.775 166.501 343.174 166.903 343.668C167.304 344.163 167.59 344.741 167.74 345.36C167.902 345.987 167.936 346.641 167.84 347.282C167.744 347.923 167.519 348.538 167.18 349.09C165.42 352.03 160.83 353.59 159.08 354.09C153.5 364.49 144.84 381.3 144.48 383.81C144.32 384.682 144.403 385.582 144.72 386.41C145.15 387.76 145.34 388.94 143.57 390.83C143.22 391.23 142.783 391.546 142.293 391.752C141.802 391.958 141.271 392.05 140.74 392.02C139.152 391.794 137.693 391.023 136.61 389.84C135.35 391.12 133.2 392.9 130.97 393.02L130.71 393.04ZM133.06 384.87C132.29 385.23 129.74 387.08 129.38 388.66C129.331 388.859 129.338 389.067 129.402 389.262C129.466 389.456 129.583 389.629 129.74 389.76C129.871 389.909 130.035 390.025 130.219 390.1C130.403 390.175 130.602 390.205 130.8 390.19C132.4 390.1 134.65 387.9 135.48 386.85C135.611 386.675 135.782 386.533 135.978 386.438C136.175 386.342 136.392 386.295 136.61 386.3C136.827 386.302 137.041 386.353 137.235 386.45C137.429 386.547 137.599 386.687 137.73 386.86C138.44 387.78 139.93 389.15 140.87 389.19C140.983 389.191 141.095 389.166 141.197 389.118C141.299 389.069 141.389 388.998 141.46 388.91C142.23 388.08 142.21 388.04 141.98 387.3C141.537 386.057 141.416 384.722 141.63 383.42C142.19 379.53 155.34 354.99 156.84 352.21C156.938 352.036 157.07 351.884 157.228 351.762C157.386 351.64 157.567 351.551 157.76 351.5C159.28 351.12 163.48 349.7 164.76 347.64C164.908 347.413 165.005 347.158 165.047 346.891C165.088 346.624 165.072 346.351 165 346.09C164.952 345.873 164.855 345.67 164.717 345.497C164.578 345.324 164.401 345.184 164.2 345.09C162.2 344.09 157.78 345.57 156.38 346.17C156.173 346.257 155.949 346.295 155.724 346.279C155.5 346.264 155.283 346.195 155.09 346.08C154.896 345.967 154.732 345.809 154.612 345.619C154.492 345.43 154.419 345.214 154.4 344.99C154.23 343.4 153.54 340.85 152.51 340.19C152.377 340.112 152.227 340.066 152.072 340.055C151.918 340.045 151.763 340.07 151.62 340.13C151.215 340.235 150.841 340.432 150.525 340.707C150.209 340.981 149.961 341.324 149.8 341.71C148.95 343.81 150.42 347.38 151.01 348.47C151.109 348.669 151.16 348.888 151.16 349.11C151.16 349.332 151.109 349.551 151.01 349.75C151.01 349.83 146.93 358.43 142.85 366.92C134.73 383.75 134.09 384.8 133.06 384.87ZM132.84 381.99C132.694 381.99 132.549 382.014 132.41 382.06C132.549 382.015 132.694 381.992 132.84 381.99Z" fill="black"/>
<path d="M163.18 325.99C162.36 325.99 161.53 325.99 160.75 325.91H160.18C155.52 325.66 155.57 318.47 155.6 317.65C155.608 317.316 155.734 316.995 155.955 316.744C156.177 316.494 156.479 316.329 156.81 316.28C158.93 315.93 166.06 314.84 168.16 315.41C168.521 315.492 168.862 315.648 169.159 315.869C169.457 316.089 169.706 316.369 169.89 316.69C170.55 317.87 170.12 319.27 169.69 320.76C169.492 321.371 169.325 321.992 169.19 322.62C168.61 325.49 165.94 325.99 163.18 325.99ZM158.5 318.87C158.65 320.69 159.19 322.95 160.34 323.01H160.91C163.91 323.18 166.14 323.2 166.39 322.01C166.54 321.25 166.75 320.54 166.94 319.9C167.14 319.322 167.284 318.726 167.37 318.12C166.35 317.92 162.24 318.33 158.5 318.89V318.87Z" fill="black"/>
<path d="M176.84 325.29C175.592 325.356 174.356 325.005 173.33 324.29C170.83 322.29 171.57 317.15 171.75 316.14C171.809 315.838 171.963 315.564 172.19 315.357C172.417 315.149 172.705 315.021 173.01 314.99C181.09 313.87 182.01 314.23 182.34 314.36C182.644 314.508 182.914 314.718 183.133 314.976C183.352 315.235 183.514 315.536 183.61 315.86C184.16 317.32 184.79 321.69 184.16 322.94C183.75 323.75 182.36 324.41 180.01 324.94C178.968 325.163 177.906 325.281 176.84 325.29ZM174.44 317.69C174.29 319.44 174.44 321.53 175.15 322.11C176.15 322.89 180.15 322.17 181.52 321.51C181.517 320.009 181.325 318.514 180.95 317.06C179.8 317.06 177.01 317.35 174.44 317.69Z" fill="black"/>
<path d="M190.75 324.28C189.81 324.28 188.75 324.28 187.75 324.15H187.15C185.53 324.15 185.23 322.39 184.92 319.48C184.74 317.76 184.65 316.08 184.65 316.01C184.631 315.654 184.746 315.304 184.972 315.029C185.197 314.753 185.518 314.572 185.87 314.52C186.42 314.44 191.25 313.78 193.44 314.38C196.44 315.19 195.79 319.38 195.44 321.64C195.44 321.86 195.39 322.04 195.36 322.19C195.15 323.85 193.25 324.28 190.75 324.28ZM188.05 321.28C189.553 321.482 191.077 321.482 192.58 321.28C192.585 321.24 192.585 321.2 192.58 321.16C193.04 318.05 192.78 317.24 192.58 317.05C190.917 316.859 189.237 316.883 187.58 317.12C187.648 318.52 187.792 319.915 188.01 321.3L188.05 321.28Z" fill="black"/>
<path d="M167.94 380.1C166.737 380.158 165.559 379.75 164.65 378.96C164.217 378.565 163.916 378.045 163.789 377.472C163.662 376.9 163.715 376.302 163.94 375.76C164.46 374.756 165.052 373.79 165.71 372.87C168.71 368.3 175.71 357.58 174.97 351.45C174.27 346.04 169.48 339.12 166.61 334.99C164.61 332.1 164.02 331.22 164.02 330.37C164.02 328.14 166.66 326.81 167.18 326.56C167.448 326.438 167.746 326.401 168.035 326.453C168.324 326.505 168.591 326.643 168.8 326.85C169.48 327.53 185.56 343.69 184.8 353.85C184.08 363.55 176.54 377.01 171.8 379.17C170.593 379.749 169.278 380.066 167.94 380.1ZM166.94 330.27C167.23 330.84 168.16 332.17 168.94 333.36C171.94 337.71 177 344.98 177.78 351.09C178.7 358.26 171.53 369.18 168.08 374.44C167.4 375.44 166.69 376.55 166.58 376.83C166.7 377.16 168.19 377.68 170.58 376.6C173.7 375.19 181.22 363.18 181.92 353.67C182.44 346.67 172.35 334.67 167.53 329.67C167.296 329.837 167.091 330.039 166.92 330.27H166.94Z" fill="black"/>
<path d="M183.83 378.62C182.879 378.632 181.94 378.405 181.1 377.96C180.573 377.712 180.123 377.327 179.798 376.845C179.472 376.362 179.283 375.801 179.25 375.22C179.25 374.47 179.67 373.8 181.12 371.59C183.88 367.39 189.62 358.66 188.69 350.85C187.46 340.43 177.3 330.85 177.19 330.75C176.973 330.548 176.824 330.284 176.765 329.993C176.706 329.702 176.739 329.401 176.86 329.13C177.51 327.65 179.35 325.25 182.08 325.67C184.46 326.03 189.18 332.76 191.08 335.67C192.98 338.58 197.6 345.87 198.08 350.31C198.82 357.03 192.08 374.77 187.85 377.41C186.651 378.184 185.257 378.603 183.83 378.62ZM182.2 375.25C182.406 375.429 182.648 375.562 182.91 375.64C183.503 375.786 184.121 375.801 184.72 375.684C185.32 375.567 185.886 375.319 186.38 374.96C189.14 373.25 195.95 356.91 195.26 350.6C194.57 344.29 183.77 329.6 181.58 328.49C181.252 328.512 180.934 328.615 180.655 328.789C180.376 328.964 180.144 329.205 179.98 329.49C182.58 332.13 190.39 340.78 191.54 350.49C192.59 359.33 186.47 368.66 183.54 373.13C183.01 373.92 182.45 374.79 182.2 375.25Z" fill="black"/>
<path d="M200.64 370.13C200.137 370.136 199.644 369.986 199.23 369.7C198.815 369.394 198.522 368.951 198.401 368.45C198.28 367.949 198.34 367.421 198.57 366.96C199.22 365.27 202.37 353.64 202.06 349.84C201.6 344.31 194.32 335.11 191.58 331.64C190.8 330.64 190.47 330.24 190.31 329.97C189.21 328.14 190.51 325.75 190.78 325.29C190.934 325.033 191.164 324.831 191.438 324.711C191.712 324.59 192.017 324.559 192.31 324.62C197.91 325.79 210.81 342.14 210.41 349.21C210.26 351.73 209.34 364.44 205.12 367.98C203.909 369.177 202.332 369.933 200.64 370.13ZM192.83 327.84C192.77 328.052 192.77 328.278 192.83 328.49C192.93 328.64 193.42 329.26 193.89 329.87C197.05 333.87 204.45 343.22 204.98 349.6C205.31 353.6 202.69 363.51 201.65 366.95C202.256 366.62 202.826 366.228 203.35 365.78C205.4 364.06 207.15 357.18 207.62 349.04C207.86 343.76 197.83 330.49 192.83 327.84Z" fill="black"/>
<path d="M223.33 329.72C223.257 329.73 223.183 329.73 223.11 329.72H223.33Z" fill="black"/>
<path d="M228.2 318.65C227.739 318.654 227.282 318.573 226.85 318.41C224.71 317.55 222.73 312.88 221.99 310.91C221.873 310.607 221.864 310.272 221.964 309.963C222.065 309.653 222.268 309.388 222.54 309.21C227.38 306.05 228.72 306.65 229.16 306.84C230.55 307.45 234.46 313.65 233.88 315.39C233.5 316.5 231.77 317.56 230.8 318.01C229.987 318.401 229.102 318.619 228.2 318.65ZM225.11 310.99C226.11 313.33 227.35 315.47 227.93 315.76C228.51 316.05 230.27 315.18 231 314.56C230.234 312.777 229.246 311.097 228.06 309.56C227.024 309.92 226.034 310.399 225.11 310.99Z" fill="black"/>
<path d="M238.38 311.11C237.61 311.11 237.33 311.11 232.72 305.33C232.597 305.183 232.507 305.012 232.455 304.827C232.403 304.643 232.391 304.449 232.42 304.26C232.438 304.064 232.496 303.875 232.591 303.703C232.686 303.531 232.815 303.38 232.97 303.26C237.59 299.77 238.97 300.39 239.44 300.59C240.97 301.27 244.21 305.69 243.57 307.79C242.93 309.89 239.01 311.11 238.38 311.11ZM235.91 304.73C237.02 306.1 238.13 307.43 238.75 308.1C239.47 307.848 240.145 307.483 240.75 307.02C240.216 305.649 239.41 304.401 238.38 303.35C237.511 303.722 236.683 304.185 235.91 304.73Z" fill="black"/>
<path d="M248.82 304.23C248.589 304.23 248.359 304.193 248.14 304.12C247.24 303.78 245.64 302.04 243.42 298.97C243.305 298.821 243.222 298.65 243.174 298.467C243.127 298.285 243.116 298.095 243.143 297.909C243.17 297.722 243.234 297.543 243.332 297.382C243.429 297.221 243.558 297.081 243.71 296.97C247.71 293.97 248.9 294.23 249.34 294.34C250.92 294.73 253.69 298.27 254.17 299.34C254.298 299.582 254.369 299.85 254.378 300.124C254.387 300.398 254.333 300.67 254.22 300.92C253.85 301.68 250.87 304.23 248.82 304.23ZM246.61 298.45C247.359 299.463 248.174 300.425 249.05 301.33C249.825 300.964 250.553 300.507 251.22 299.97C250.49 298.968 249.655 298.046 248.73 297.22C247.987 297.563 247.277 297.975 246.61 298.45Z" fill="black"/>
<path d="M224.01 343.82C224.89 344.23 225.09 344.82 224.79 345.34C224.49 345.86 222.46 346.6 220.57 346.58C220.206 346.57 219.844 346.524 219.49 346.44C218.13 346.09 217.12 345.21 217.36 344.73C217.565 344.419 217.873 344.189 218.23 344.08C218.58 343.98 218.916 343.835 219.23 343.65C219.527 343.237 219.925 342.907 220.385 342.69C220.845 342.473 221.353 342.377 221.86 342.41C223.01 342.57 223.18 343.41 224.01 343.82Z" fill="#F4AA62"/>
<path d="M230.06 344.78C231.77 344.89 234.94 345.23 236.84 346.33L237.01 346.14C238.01 344.86 241.55 344.39 240.13 346.47C238.71 348.55 240.2 350.47 237.94 354.11C235.68 357.75 223.94 358.34 220.71 354.45C218.83 352.18 219.61 349.36 220.58 347.45C220.211 347.155 219.875 346.819 219.58 346.45C219.935 346.533 220.296 346.58 220.66 346.59C222.55 346.59 224.57 345.85 224.88 345.35C225.19 344.85 224.98 344.24 224.11 343.83C223.24 343.42 223.02 342.59 221.91 342.41C221.402 342.378 220.894 342.476 220.433 342.695C219.973 342.913 219.576 343.245 219.28 343.66C218.979 343.835 218.661 343.979 218.33 344.09C218.097 343.234 218.048 342.337 218.189 341.46C218.33 340.584 218.656 339.747 219.145 339.007C219.635 338.266 220.277 337.639 221.028 337.166C221.78 336.693 222.624 336.386 223.503 336.266C224.383 336.145 225.278 336.214 226.129 336.467C226.98 336.72 227.767 337.152 228.438 337.733C229.109 338.315 229.648 339.033 230.019 339.839C230.39 340.646 230.585 341.522 230.59 342.41C230.565 343.226 230.385 344.03 230.06 344.78Z" fill="#F7DD6F"/>
<path d="M240.13 345.19C240.009 345.444 239.839 345.672 239.63 345.86C237.84 347.62 239.52 349.23 237.26 352.92C235 356.61 223.26 357.14 220.03 353.26L219.85 353.03C220.048 353.554 220.331 354.04 220.69 354.47C223.92 358.36 235.69 357.82 237.92 354.14C240.15 350.46 238.69 348.57 240.11 346.49C240.59 345.78 240.5 345.37 240.13 345.19Z" fill="#FCC563"/>
<path d="M225.09 344.99C225.09 344.99 225.04 346.8 222.19 347.36C222.067 347.431 221.964 347.533 221.892 347.656C221.82 347.778 221.782 347.918 221.78 348.06C221.78 348.58 220.78 349.01 220.16 348.63L220.55 347.42L219.67 346.55C220.4 346.852 221.217 346.869 221.96 346.6C222.796 346.428 223.595 346.11 224.32 345.66" fill="#FCC563"/>
<path d="M228.52 347.19C228.491 347.191 228.463 347.185 228.437 347.173C228.41 347.161 228.388 347.143 228.37 347.12C228.351 347.102 228.335 347.081 228.325 347.056C228.314 347.032 228.309 347.006 228.309 346.98C228.309 346.954 228.314 346.928 228.325 346.904C228.335 346.879 228.351 346.858 228.37 346.84C229.088 346.159 229.626 345.311 229.936 344.371C230.247 343.431 230.32 342.429 230.15 341.455C229.979 340.48 229.57 339.562 228.959 338.784C228.348 338.005 227.554 337.39 226.648 336.993C225.742 336.596 224.751 336.429 223.765 336.507C222.778 336.585 221.826 336.906 220.994 337.442C220.162 337.977 219.475 338.71 218.994 339.575C218.514 340.44 218.255 341.411 218.24 342.4C218.238 342.951 218.312 343.499 218.46 344.03C218.473 344.082 218.465 344.136 218.439 344.183C218.413 344.229 218.371 344.264 218.32 344.28C218.294 344.287 218.266 344.289 218.239 344.286C218.212 344.282 218.186 344.273 218.163 344.259C218.139 344.245 218.119 344.226 218.103 344.204C218.087 344.182 218.076 344.157 218.07 344.13C217.909 343.567 217.828 342.985 217.83 342.4C217.83 341.33 218.097 340.276 218.607 339.335C219.116 338.393 219.852 337.594 220.748 337.009C221.645 336.423 222.673 336.07 223.739 335.982C224.806 335.894 225.878 336.073 226.858 336.503C227.838 336.934 228.696 337.601 229.353 338.446C230.01 339.291 230.447 340.286 230.623 341.342C230.798 342.398 230.708 343.481 230.36 344.493C230.013 345.506 229.418 346.415 228.63 347.14C228.6 347.169 228.561 347.187 228.52 347.19Z" fill="black"/>
<path d="M221.62 348.24H221.54C220.709 347.849 219.972 347.282 219.38 346.58C219.36 346.562 219.345 346.541 219.334 346.516C219.324 346.492 219.318 346.466 219.318 346.44C219.318 346.414 219.324 346.388 219.334 346.364C219.345 346.339 219.36 346.318 219.38 346.3C219.419 346.263 219.471 346.242 219.525 346.242C219.579 346.242 219.631 346.263 219.67 346.3C220.219 346.953 220.901 347.481 221.67 347.85C221.694 347.862 221.715 347.878 221.732 347.898C221.75 347.918 221.763 347.941 221.771 347.966C221.78 347.991 221.783 348.018 221.781 348.044C221.779 348.071 221.772 348.096 221.76 348.12C221.748 348.15 221.729 348.176 221.705 348.197C221.68 348.218 221.651 348.233 221.62 348.24Z" fill="black"/>
<path d="M229.09 357.33C225.94 357.33 222.26 356.63 220.55 354.58C218.61 352.23 219.39 349.33 220.4 347.31C220.425 347.264 220.467 347.229 220.517 347.212C220.567 347.196 220.622 347.198 220.67 347.22C220.694 347.232 220.715 347.248 220.732 347.268C220.75 347.288 220.763 347.311 220.771 347.336C220.78 347.361 220.783 347.388 220.781 347.414C220.779 347.441 220.772 347.466 220.76 347.49C219.81 349.4 219.06 352.13 220.87 354.31C222.68 356.49 226.99 357.12 230.52 356.87C234.05 356.62 236.84 355.52 237.77 354.01C238.668 352.594 239.156 350.957 239.18 349.28C239.151 348.25 239.426 347.235 239.97 346.36C240.2 346.03 240.41 345.59 240.14 345.36C239.62 344.97 237.84 345.36 237.14 346.23C237.1 346.265 237.048 346.285 236.995 346.285C236.942 346.285 236.89 346.265 236.85 346.23C236.813 346.191 236.792 346.139 236.792 346.085C236.792 346.031 236.813 345.979 236.85 345.94C237.63 344.94 239.64 344.45 240.39 345C240.62 345.17 240.93 345.6 240.31 346.52C239.806 347.336 239.552 348.282 239.58 349.24C239.553 350.981 239.044 352.681 238.11 354.15C237.11 355.78 234.22 356.96 230.55 357.21C230.09 357.31 229.59 357.33 229.09 357.33Z" fill="black"/>
<path d="M237.89 347.39C237.859 347.388 237.83 347.38 237.802 347.366C237.775 347.352 237.75 347.333 237.73 347.31C236.29 345.56 231.88 345.1 230.05 344.98C230.024 344.979 229.998 344.972 229.974 344.961C229.951 344.95 229.929 344.934 229.912 344.914C229.894 344.895 229.88 344.872 229.871 344.847C229.863 344.823 229.859 344.796 229.86 344.77C229.867 344.717 229.894 344.668 229.934 344.633C229.975 344.599 230.027 344.579 230.08 344.58C232.42 344.73 236.56 345.26 238.08 347.06C238.117 347.099 238.138 347.151 238.138 347.205C238.138 347.259 238.117 347.311 238.08 347.35C238.022 347.382 237.956 347.396 237.89 347.39Z" fill="black"/>
<path d="M220.67 346.78H220.61C219.984 346.795 219.363 346.67 218.79 346.416C218.218 346.162 217.709 345.784 217.3 345.31C217.227 345.214 217.181 345.101 217.167 344.981C217.153 344.861 217.171 344.74 217.22 344.63C217.538 344.196 217.998 343.888 218.52 343.76C218.718 343.699 218.906 343.612 219.08 343.5C219.4 343.063 219.825 342.714 220.317 342.486C220.808 342.259 221.35 342.16 221.89 342.2C222.455 342.301 222.967 342.595 223.34 343.03C223.569 343.276 223.84 343.479 224.14 343.63C224.367 343.718 224.573 343.852 224.746 344.024C224.918 344.197 225.052 344.403 225.14 344.63C225.186 344.773 225.199 344.925 225.178 345.074C225.158 345.223 225.103 345.365 225.02 345.49C224.64 346.04 222.55 346.78 220.67 346.78ZM221.52 342.58C221.102 342.618 220.696 342.744 220.329 342.949C219.962 343.154 219.642 343.434 219.39 343.77C219.175 343.909 218.943 344.02 218.7 344.1C218.27 344.27 217.78 344.46 217.62 344.77C217.57 344.86 217.62 344.99 217.68 345.06C218.06 345.474 218.525 345.801 219.042 346.02C219.56 346.24 220.118 346.345 220.68 346.33H220.75C222.62 346.33 224.49 345.57 224.75 345.18C224.801 345.105 224.835 345.019 224.849 344.929C224.863 344.839 224.856 344.747 224.83 344.66C224.761 344.496 224.658 344.348 224.527 344.227C224.395 344.106 224.24 344.015 224.07 343.96C223.725 343.79 223.416 343.556 223.16 343.27C222.842 342.896 222.404 342.644 221.92 342.56L221.52 342.58Z" fill="black"/>
<path d="M224.35 341.71C224.464 341.71 224.573 341.665 224.654 341.584C224.735 341.503 224.78 341.394 224.78 341.28C224.78 341.166 224.735 341.057 224.654 340.976C224.573 340.895 224.464 340.85 224.35 340.85C224.236 340.85 224.127 340.895 224.046 340.976C223.965 341.057 223.92 341.166 223.92 341.28C223.92 341.394 223.965 341.503 224.046 341.584C224.127 341.665 224.236 341.71 224.35 341.71Z" fill="#232533"/>
<path d="M222.48 343.46C222.517 343.395 222.527 343.318 222.509 343.245C222.49 343.172 222.444 343.109 222.38 343.07C222.324 343.018 222.251 342.989 222.175 342.989C222.099 342.989 222.026 343.018 221.97 343.07C221.936 343.137 221.929 343.214 221.949 343.286C221.97 343.359 222.016 343.421 222.08 343.46C222.135 343.509 222.206 343.536 222.28 343.536C222.354 343.536 222.425 343.509 222.48 343.46Z" fill="#232533"/>
<path d="M219.74 341.71C219.854 341.71 219.963 341.665 220.044 341.584C220.125 341.503 220.17 341.394 220.17 341.28C220.17 341.166 220.125 341.057 220.044 340.976C219.963 340.895 219.854 340.85 219.74 340.85C219.626 340.85 219.517 340.895 219.436 340.976C219.355 341.057 219.31 341.166 219.31 341.28C219.31 341.394 219.355 341.503 219.436 341.584C219.517 341.665 219.626 341.71 219.74 341.71Z" fill="#232533"/>
<path d="M220.81 346.04H220.3C219.198 345.985 218.136 345.614 217.24 344.97C217.22 344.951 217.205 344.929 217.194 344.904C217.183 344.879 217.178 344.852 217.178 344.825C217.178 344.798 217.183 344.771 217.194 344.746C217.205 344.721 217.22 344.699 217.24 344.68C217.258 344.661 217.279 344.645 217.304 344.635C217.328 344.624 217.354 344.618 217.38 344.618C217.406 344.618 217.432 344.624 217.456 344.635C217.481 344.645 217.502 344.661 217.52 344.68C218.352 345.271 219.332 345.617 220.35 345.68C221.653 345.738 222.952 345.488 224.14 344.95C224.189 344.925 224.246 344.921 224.298 344.938C224.351 344.955 224.394 344.991 224.42 345.04C224.432 345.064 224.438 345.091 224.44 345.117C224.441 345.144 224.437 345.171 224.427 345.196C224.418 345.221 224.404 345.245 224.385 345.264C224.367 345.284 224.345 345.299 224.32 345.31C223.211 345.786 222.017 346.035 220.81 346.04Z" fill="black"/>
<path d="M234.44 351.25C233.328 351.275 232.225 351.039 231.219 350.561C230.214 350.084 229.334 349.378 228.65 348.5C228.635 348.478 228.624 348.454 228.619 348.428C228.613 348.402 228.612 348.376 228.617 348.35C228.622 348.324 228.631 348.299 228.646 348.276C228.66 348.254 228.679 348.235 228.7 348.22C228.746 348.193 228.8 348.184 228.852 348.195C228.904 348.206 228.95 348.236 228.98 348.28C229.744 349.241 230.752 349.98 231.899 350.42C233.046 350.86 234.289 350.984 235.5 350.78C235.555 350.774 235.609 350.79 235.652 350.823C235.695 350.857 235.723 350.906 235.73 350.96C235.735 350.987 235.733 351.015 235.726 351.041C235.719 351.068 235.707 351.092 235.69 351.114C235.673 351.136 235.652 351.153 235.628 351.167C235.604 351.18 235.578 351.188 235.55 351.19C235.182 351.229 234.811 351.249 234.44 351.25Z" fill="black"/>
<path d="M214.5 333.34C215.828 333.336 217.126 332.939 218.228 332.198C219.331 331.457 220.189 330.406 220.694 329.178C221.2 327.95 221.33 326.599 221.069 325.297C220.807 323.995 220.166 322.799 219.225 321.861C218.284 320.923 217.087 320.285 215.784 320.028C214.481 319.77 213.131 319.904 211.904 320.413C210.677 320.923 209.629 321.784 208.891 322.889C208.154 323.993 207.76 325.292 207.76 326.62C207.762 327.504 207.937 328.379 208.276 329.195C208.616 330.011 209.113 330.752 209.738 331.376C210.364 332 211.107 332.495 211.924 332.832C212.741 333.169 213.616 333.341 214.5 333.34Z" fill="#ACEF78"/>
<path opacity="0.15" d="M219.61 322.29C220.064 323.207 220.3 324.217 220.3 325.24C220.299 326.617 219.875 327.961 219.086 329.09C218.297 330.219 217.18 331.078 215.887 331.552C214.594 332.027 213.187 332.093 211.855 331.742C210.523 331.391 209.331 330.64 208.44 329.59C208.855 330.454 209.449 331.219 210.183 331.835C210.917 332.451 211.775 332.903 212.698 333.161C213.621 333.418 214.588 333.476 215.535 333.33C216.482 333.183 217.387 332.836 218.189 332.312C218.991 331.788 219.672 331.098 220.187 330.29C220.701 329.481 221.036 328.572 221.171 327.623C221.305 326.674 221.236 325.708 220.967 324.788C220.697 323.868 220.235 323.017 219.61 322.29Z" fill="#232533"/>
<path d="M214.5 333.48C213.143 333.478 211.817 333.074 210.69 332.318C209.563 331.563 208.686 330.49 208.168 329.236C207.651 327.982 207.517 326.602 207.784 325.272C208.05 323.942 208.705 322.72 209.666 321.762C210.627 320.804 211.85 320.153 213.181 319.89C214.512 319.627 215.892 319.765 217.144 320.286C218.397 320.807 219.467 321.688 220.219 322.817C220.971 323.946 221.372 325.273 221.37 326.63C221.369 327.531 221.19 328.423 220.844 329.254C220.498 330.086 219.992 330.842 219.354 331.478C218.716 332.114 217.959 332.618 217.126 332.962C216.293 333.305 215.401 333.481 214.5 333.48ZM214.5 320.04C213.199 320.044 211.929 320.433 210.85 321.159C209.77 321.884 208.93 322.913 208.435 324.116C207.94 325.318 207.813 326.641 208.069 327.916C208.325 329.191 208.953 330.362 209.874 331.28C210.795 332.198 211.968 332.823 213.244 333.075C214.519 333.327 215.841 333.196 217.043 332.697C218.244 332.199 219.27 331.355 219.992 330.274C220.714 329.192 221.1 327.921 221.1 326.62C221.095 324.873 220.397 323.199 219.16 321.966C217.923 320.733 216.247 320.04 214.5 320.04Z" fill="black"/>
<path d="M209.91 331.69C209.874 331.701 209.836 331.701 209.8 331.69C209.787 331.678 209.777 331.663 209.77 331.647C209.762 331.63 209.759 331.613 209.759 331.595C209.759 331.577 209.762 331.56 209.77 331.543C209.777 331.527 209.787 331.512 209.8 331.5C210.541 330.882 211.139 330.111 211.552 329.239C211.965 328.366 212.182 327.415 212.19 326.45C212.187 325.541 211.994 324.643 211.624 323.813C211.253 322.983 210.714 322.24 210.04 321.63C210.027 321.618 210.017 321.603 210.01 321.587C210.002 321.57 209.999 321.553 209.999 321.535C209.999 321.517 210.002 321.5 210.01 321.483C210.017 321.467 210.027 321.452 210.04 321.44C210.053 321.427 210.069 321.416 210.086 321.409C210.103 321.402 210.121 321.398 210.14 321.398C210.159 321.398 210.177 321.402 210.194 321.409C210.211 321.416 210.227 321.427 210.24 321.44C210.939 322.073 211.499 322.845 211.884 323.705C212.27 324.566 212.473 325.497 212.48 326.44C212.473 327.444 212.247 328.434 211.816 329.341C211.386 330.248 210.763 331.05 209.99 331.69C209.964 331.698 209.936 331.698 209.91 331.69Z" fill="black"/>
<path d="M219.08 331.69C219.066 331.696 219.05 331.7 219.035 331.7C219.019 331.7 219.004 331.696 218.99 331.69C218.218 331.049 217.595 330.247 217.165 329.34C216.735 328.433 216.508 327.444 216.5 326.44C216.507 325.497 216.71 324.566 217.096 323.705C217.481 322.845 218.041 322.073 218.74 321.44C218.753 321.427 218.769 321.416 218.786 321.409C218.803 321.402 218.821 321.398 218.84 321.398C218.859 321.398 218.877 321.402 218.894 321.409C218.911 321.416 218.927 321.427 218.94 321.44C218.953 321.452 218.963 321.467 218.97 321.483C218.978 321.5 218.981 321.517 218.981 321.535C218.981 321.553 218.978 321.57 218.97 321.587C218.963 321.603 218.953 321.618 218.94 321.63C218.266 322.24 217.727 322.983 217.356 323.813C216.986 324.643 216.793 325.541 216.79 326.45C216.798 327.415 217.015 328.366 217.428 329.239C217.841 330.111 218.439 330.882 219.18 331.5C219.193 331.512 219.203 331.527 219.21 331.543C219.218 331.56 219.221 331.577 219.221 331.595C219.221 331.613 219.218 331.63 219.21 331.647C219.203 331.663 219.193 331.678 219.18 331.69C219.148 331.701 219.112 331.701 219.08 331.69Z" fill="black"/>
<path d="M237.75 329.4C237.681 329.899 237.518 330.381 237.27 330.82C236.153 330.343 234.95 330.097 233.735 330.097C232.52 330.097 231.317 330.343 230.2 330.82C229.952 330.382 229.792 329.9 229.73 329.4C230.976 328.78 232.348 328.457 233.74 328.457C235.132 328.457 236.504 328.78 237.75 329.4Z" fill="#AF69CC"/>
<path d="M236.01 325.46C236.814 325.983 237.403 326.778 237.67 327.7C236.454 327.116 235.123 326.813 233.775 326.813C232.427 326.813 231.095 327.116 229.88 327.7C230.154 326.782 230.741 325.989 231.54 325.46C233.007 325.09 234.543 325.09 236.01 325.46Z" fill="#AF69CC"/>
<path d="M237.27 330.81C236.993 331.295 236.623 331.72 236.18 332.06C234.578 331.61 232.882 331.61 231.28 332.06C230.838 331.72 230.467 331.295 230.19 330.81C231.309 330.331 232.513 330.085 233.73 330.085C234.947 330.085 236.151 330.331 237.27 330.81Z" fill="#F266BD"/>
<path d="M231.28 332.06C232.883 331.61 234.578 331.61 236.18 332.06C235.474 332.592 234.614 332.88 233.73 332.88C232.846 332.88 231.986 332.592 231.28 332.06Z" fill="#AF69CC"/>
<path d="M236.01 325.46C234.544 325.08 233.006 325.08 231.54 325.46C232.203 325.023 232.98 324.789 233.775 324.789C234.57 324.789 235.347 325.023 236.01 325.46Z" fill="#F266BD"/>
<path d="M237.78 328.84C237.791 329.023 237.791 329.207 237.78 329.39C236.536 328.778 235.167 328.46 233.78 328.46C232.393 328.46 231.025 328.778 229.78 329.39C229.765 329.207 229.765 329.023 229.78 328.84C229.777 328.454 229.831 328.07 229.94 327.7C231.154 327.118 232.484 326.816 233.83 326.816C235.177 326.816 236.506 327.118 237.72 327.7C237.792 328.076 237.812 328.459 237.78 328.84Z" fill="#F266BD"/>
<path opacity="0.15" d="M236.81 326.23C237.081 326.781 237.221 327.386 237.22 328C237.215 328.827 236.957 329.633 236.482 330.31C236.006 330.986 235.335 331.501 234.559 331.786C233.782 332.071 232.937 332.112 232.137 331.904C231.337 331.695 230.619 331.247 230.08 330.62C230.482 331.443 231.151 332.106 231.978 332.5C232.805 332.895 233.741 332.997 234.633 332.79C235.526 332.583 236.322 332.08 236.892 331.363C237.461 330.646 237.771 329.756 237.77 328.84C237.773 327.883 237.432 326.957 236.81 326.23Z" fill="#232533"/>
<path d="M233.73 332.99C232.913 332.99 232.114 332.748 231.435 332.293C230.755 331.839 230.226 331.193 229.914 330.438C229.601 329.683 229.52 328.852 229.68 328.051C229.84 327.249 230.235 326.513 230.813 325.936C231.392 325.359 232.129 324.966 232.931 324.808C233.732 324.65 234.563 324.733 235.318 325.047C236.072 325.361 236.716 325.892 237.169 326.573C237.622 327.253 237.862 328.053 237.86 328.87C237.855 329.963 237.418 331.009 236.644 331.781C235.87 332.553 234.823 332.987 233.73 332.99ZM233.73 324.9C232.939 324.9 232.166 325.135 231.508 325.574C230.85 326.014 230.337 326.638 230.035 327.369C229.732 328.1 229.653 328.904 229.807 329.68C229.961 330.456 230.342 331.169 230.902 331.728C231.461 332.288 232.174 332.669 232.95 332.823C233.726 332.977 234.53 332.898 235.261 332.596C235.992 332.293 236.616 331.78 237.056 331.122C237.495 330.464 237.73 329.691 237.73 328.9C237.734 328.372 237.634 327.849 237.434 327.36C237.235 326.871 236.941 326.427 236.569 326.052C236.197 325.678 235.755 325.38 235.268 325.177C234.781 324.974 234.258 324.87 233.73 324.87V324.9Z" fill="black"/>
<path d="M237.74 329.48C236.497 328.863 235.128 328.542 233.74 328.542C232.352 328.542 230.983 328.863 229.74 329.48C229.725 329.494 229.705 329.502 229.685 329.502C229.664 329.502 229.645 329.494 229.63 329.48C229.63 329.48 229.63 329.38 229.63 329.37C230.888 328.744 232.274 328.418 233.68 328.418C235.085 328.418 236.472 328.744 237.73 329.37C237.744 329.385 237.752 329.405 237.752 329.425C237.752 329.445 237.744 329.465 237.73 329.48C237.73 329.48 237.78 329.48 237.74 329.48Z" fill="black"/>
<path d="M237.27 330.89C236.164 330.416 234.973 330.172 233.77 330.172C232.567 330.172 231.376 330.416 230.27 330.89C230.249 330.897 230.226 330.895 230.206 330.886C230.185 330.877 230.169 330.861 230.16 330.84C230.155 330.83 230.153 330.82 230.153 330.809C230.153 330.798 230.155 330.787 230.16 330.778C230.165 330.768 230.172 330.759 230.181 330.753C230.189 330.746 230.199 330.742 230.21 330.74C231.337 330.253 232.552 330.002 233.78 330.002C235.008 330.002 236.223 330.253 237.35 330.74C237.357 330.747 237.362 330.754 237.366 330.763C237.369 330.771 237.371 330.781 237.371 330.79C237.371 330.799 237.369 330.809 237.366 330.817C237.362 330.826 237.357 330.833 237.35 330.84C237.344 330.856 237.333 330.869 237.318 330.878C237.304 330.887 237.287 330.891 237.27 330.89Z" fill="black"/>
<path d="M236.18 332.15C234.591 331.7 232.909 331.7 231.32 332.15C231.299 332.15 231.279 332.142 231.264 332.127C231.249 332.112 231.24 332.091 231.24 332.07C231.24 332.049 231.249 332.028 231.264 332.013C231.279 331.998 231.299 331.99 231.32 331.99C232.935 331.529 234.646 331.529 236.26 331.99C236.28 331.997 236.298 332.011 236.309 332.029C236.32 332.047 236.324 332.069 236.32 332.09C236.32 332.09 236.21 332.15 236.18 332.15Z" fill="black"/>
<path d="M237.62 327.78C236.419 327.198 235.101 326.895 233.765 326.895C232.43 326.895 231.112 327.198 229.91 327.78C229.895 327.794 229.876 327.802 229.855 327.802C229.835 327.802 229.815 327.794 229.8 327.78C229.794 327.773 229.788 327.766 229.785 327.757C229.781 327.749 229.779 327.739 229.779 327.73C229.779 327.721 229.781 327.711 229.785 327.703C229.788 327.694 229.794 327.687 229.8 327.68C231.023 327.083 232.365 326.772 233.725 326.772C235.086 326.772 236.428 327.083 237.65 327.68C237.657 327.687 237.662 327.694 237.666 327.703C237.669 327.711 237.671 327.721 237.671 327.73C237.671 327.739 237.669 327.749 237.666 327.757C237.662 327.766 237.657 327.773 237.65 327.78C237.64 327.782 237.63 327.782 237.62 327.78Z" fill="black"/>
<path d="M231.5 325.55C231.48 325.55 231.461 325.543 231.447 325.53C231.432 325.517 231.422 325.499 231.42 325.48C231.417 325.47 231.416 325.458 231.418 325.448C231.419 325.437 231.423 325.426 231.428 325.417C231.434 325.408 231.441 325.4 231.45 325.393C231.459 325.387 231.469 325.382 231.48 325.38C232.956 324.999 234.504 324.999 235.98 325.38C235.999 325.384 236.016 325.394 236.028 325.409C236.041 325.423 236.048 325.441 236.05 325.46C236.051 325.474 236.049 325.487 236.043 325.5C236.037 325.512 236.028 325.523 236.017 325.531C236.006 325.539 235.993 325.544 235.98 325.545C235.966 325.547 235.953 325.545 235.94 325.54C234.486 325.171 232.964 325.171 231.51 325.54L231.5 325.55Z" fill="black"/>
</g>
</g>

</svg>
