<svg width="80" height="46" viewBox="0 0 80 46" fill="none" xmlns="http://www.w3.org/2000/svg">
<line x1="1" y1="22" x2="79" y2="22" stroke="#FF5959" stroke-width="2" stroke-linecap="round" stroke-dasharray="4 4"/>
<path d="M34.8163 8.43427C34.8163 8.43427 25.7644 4.63957 22.3452 12.4201C19.5716 18.738 16.2579 21.9068 16.08 23.5736C15.9021 25.2403 15.5859 31.7493 20.573 33.3765C23.531 34.345 29.0123 36.0117 29.0123 36.0117L32.1482 42.8501C32.1482 42.8501 32.998 45.1954 34.2036 44.5103C35.9758 43.5089 42.7944 40.149 42.7944 40.149L51.1216 42.5339C51.1216 42.5339 55.3577 43.7329 56.649 40.1095C57.9336 36.4795 61.3594 28.0271 61.3594 28.0271C61.3594 28.0271 67.9145 15.2924 57.8743 11.5307L34.8163 8.43427Z" fill="#F88084" stroke="#000102" stroke-width="2" stroke-miterlimit="10"/>
<path d="M33.0902 1.92524C33.0902 1.92524 24.0383 -1.86946 20.6191 5.91098C17.8456 12.2289 16.4884 19.9303 16.3106 21.6036C16.1327 23.2704 16.5477 26.0769 19.9998 27.7766C22.7932 29.1535 27.0358 30.2537 27.0358 30.2537L30.4221 36.3476C30.4221 36.3476 31.5947 38.66 32.4775 38.0078C34.118 36.8022 41.0683 33.6465 41.0683 33.6465L49.3955 36.0314C49.3955 36.0314 53.6317 37.2304 54.9229 33.607C56.2076 29.977 59.8573 19.6733 59.8573 19.6733C59.8573 19.6733 63.7706 12.5583 54.8373 8.75701L33.0902 1.92524Z" fill="#FD9FA7" stroke="#000102" stroke-width="2" stroke-miterlimit="10"/>
<path d="M39.6183 13.0853C39.6183 13.0853 38.3863 9.6793 34.697 9.90988C31.0077 10.1405 29.0774 13.5596 29.7626 16.544C30.4477 19.5284 34.9869 26.2679 34.9869 26.2679C34.9869 26.2679 42.3259 25.9583 46.45 21.8605C50.5741 17.7628 47.0957 9.63978 39.6183 13.0853Z" fill="white"/>
</svg>
