<svg width="43" height="39" viewBox="0 0 43 39" fill="none" xmlns="http://www.w3.org/2000/svg">
<path d="M42.6092 5.91713V24.9595C42.6092 27.9931 40.1463 30.486 37.0827 30.486H27.4714L15.0368 37.9048L18.3407 30.486H6.41666C3.38309 30.486 0.920194 28.0231 0.920194 24.9595V5.91713C0.890158 2.88356 3.35306 0.390625 6.41666 0.390625H37.0827C40.1463 0.390625 42.6092 2.88356 42.6092 5.91713Z" fill="#EA505C"/>
<path opacity="0.15" d="M42.5504 22.8867V24.9892C42.5504 28.0228 40.0875 30.5157 37.0239 30.5157H27.4126L14.9779 37.9344L18.2818 30.5157H6.35779C3.32423 30.5157 0.861328 28.0528 0.861328 24.9892V22.8867C0.861328 25.9203 3.32423 28.4132 6.35779 28.4132H37.0239C40.0875 28.4132 42.5504 25.9503 42.5504 22.8867Z" fill="#232533"/>
<path d="M15.0371 38.2951C14.947 38.2951 14.8569 38.265 14.7668 38.2049C14.6466 38.0848 14.5866 37.9046 14.6767 37.7544L17.7102 30.9064H6.41696C3.14311 30.8763 0.5 28.2332 0.5 24.9594V5.91696C0.5 2.64311 3.14311 0 6.41696 0H37.083C40.3569 0 43 2.64311 43 5.91696V24.9594C43 28.2332 40.3569 30.8763 37.083 30.8763H27.5618L15.2173 38.235C15.1873 38.265 15.0972 38.2951 15.0371 38.2951ZM6.41696 0.810954C3.59364 0.810954 1.31095 3.09364 1.31095 5.91696V24.9594C1.31095 27.7827 3.59364 30.0654 6.41696 30.0654H18.341C18.4912 30.0654 18.6113 30.1254 18.6714 30.2456C18.7314 30.3657 18.7615 30.5159 18.7014 30.636L15.9081 36.9134L27.2615 30.1555C27.3216 30.1254 27.3816 30.0954 27.4717 30.0954H37.1131C39.9364 30.0954 42.2191 27.8127 42.2191 24.9894V5.91696C42.2191 3.09364 39.9364 0.810954 37.1131 0.810954H6.41696V0.810954Z" fill="black"/>
<path d="M22.1552 23.0369C21.8849 22.7666 21.6146 22.4963 21.3743 22.226C19.6623 20.5139 17.9202 18.7719 16.2082 17.0599C15.3972 16.2489 14.6163 15.3779 13.9856 14.4168C13.6252 13.8761 13.3248 13.3055 13.1746 12.6447C12.9644 11.7136 13.0845 10.8125 13.475 9.9415C14.1958 8.34963 15.4573 7.41853 17.1994 7.17825C19.2418 6.90793 21.2241 8.07931 22.0351 10.0016C22.0951 10.1517 22.1552 10.2719 22.2153 10.4221C22.2453 10.392 22.2453 10.362 22.2453 10.332C22.876 8.58991 24.1075 7.50864 25.9397 7.20829C27.5015 6.93797 28.8831 7.41853 29.9944 8.55988C30.9255 9.52101 31.346 10.6623 31.316 11.9839C31.2859 12.6146 31.0757 13.2154 30.8054 13.756C30.4149 14.5069 29.9043 15.1676 29.3336 15.7984C28.7029 16.4892 28.0421 17.18 27.3813 17.8708C26.3301 18.9521 25.2488 20.0033 24.1976 21.0546C23.5669 21.6853 22.9061 22.3461 22.2753 22.9768C22.1852 23.0069 22.1852 23.0069 22.1552 23.0369Z" fill="white"/>
<path d="M22.1552 23.0369C21.8849 22.7666 21.6146 22.4963 21.3743 22.226C19.6623 20.5139 17.9202 18.7719 16.2082 17.0599C15.3972 16.2489 14.6163 15.3779 13.9856 14.4168C13.6252 13.8761 13.3248 13.3055 13.1746 12.6447C12.9644 11.7136 13.0845 10.8125 13.475 9.9415C14.1958 8.34963 15.4573 7.41853 17.1994 7.17825C19.2418 6.90793 21.2241 8.07931 22.0351 10.0016C22.0951 10.1517 22.1552 10.2719 22.2153 10.4221C22.2453 10.392 22.2453 10.362 22.2453 10.332C22.876 8.58991 24.1075 7.50864 25.9397 7.20829C27.5015 6.93797 28.8831 7.41853 29.9944 8.55988C30.9255 9.52101 31.346 10.6623 31.316 11.9839C31.2859 12.6146 31.0757 13.2154 30.8054 13.756C30.4149 14.5069 29.9043 15.1676 29.3336 15.7984C28.7029 16.4892 28.0421 17.18 27.3813 17.8708C26.3301 18.9521 25.2488 20.0033 24.1976 21.0546C23.5669 21.6853 22.9061 22.3461 22.2753 22.9768C22.1852 23.0069 22.1852 23.0069 22.1552 23.0369Z" stroke="black" stroke-width="0.90106" stroke-miterlimit="10"/>
</svg>
