<svg width="24" height="24" viewBox="0 0 24 24" fill="none" xmlns="http://www.w3.org/2000/svg">
    <path fill-rule="evenodd" clip-rule="evenodd"
          d="M3 10.3609C3 9.1048 3.59 7.92169 4.59325 7.16593L10.6494 2.60381C11.7185 1.79848 13.1917 1.79876 14.2604 2.60449L20.3109 7.1659C21.3134 7.92171 21.9029 9.10439 21.9029 10.3599V19.275C21.9029 20.9318 20.5597 22.275 18.9029 22.275H15.9617C15.9867 22.1876 16 22.0954 16 22V16C16 15.4477 15.5523 15 15 15H10C9.44772 15 9 15.4477 9 16L9 22C9 22.0954 9.01335 22.1876 9.03828 22.275H6C4.34315 22.275 3 20.9318 3 19.275V10.3609Z"
          fill="#FB8A76"/>
</svg>
