<svg width="25" height="24" viewBox="0 0 25 24" fill="none" xmlns="http://www.w3.org/2000/svg">
    <path d="M5.75 19.5C8.5125 19.5 10.75 17.2625 10.75 14.5C10.75 11.7375 8.5125 9.5 5.75 9.5C2.9875 9.5 0.75 11.7375 0.75 14.5C0.75 17.2625 2.9875 19.5 5.75 19.5ZM5.75 12C7.125 12 8.25 13.125 8.25 14.5C8.25 15.875 7.125 17 5.75 17C4.375 17 3.25 15.875 3.25 14.5C3.25 13.125 4.375 12 5.75 12ZM19.5125 19.5C19.5125 17.4375 17.825 15.75 15.7625 15.75C13.7 15.75 12.0125 17.4375 12.0125 19.5C12.0125 21.5625 13.7 23.25 15.7625 23.25C17.825 23.25 19.5125 21.5625 19.5125 19.5ZM14.5125 19.5C14.5125 18.8125 15.075 18.25 15.7625 18.25C16.45 18.25 17.0125 18.8125 17.0125 19.5C17.0125 20.1875 16.45 20.75 15.7625 20.75C15.075 20.75 14.5125 20.1875 14.5125 19.5ZM17.625 14.5C21.4125 14.5 24.5 11.4125 24.5 7.625C24.5 3.8375 21.4125 0.75 17.625 0.75C13.8375 0.75 10.75 3.8375 10.75 7.625C10.75 11.4125 13.8375 14.5 17.625 14.5ZM17.625 3.25C20.0375 3.25 22 5.2125 22 7.625C22 10.0375 20.0375 12 17.625 12C15.2125 12 13.25 10.0375 13.25 7.625C13.25 5.2125 15.2125 3.25 17.625 3.25Z"
          fill="white"/>
</svg>
