<svg width="36" height="36" viewBox="0 0 36 36" fill="none" xmlns="http://www.w3.org/2000/svg">
<g clip-path="url(#clip0_9064_58246)">
<path d="M18.0005 35.145C27.4694 35.145 35.1455 27.4689 35.1455 18C35.1455 8.53106 27.4694 0.85498 18.0005 0.85498C8.53155 0.85498 0.855469 8.53106 0.855469 18C0.855469 27.4689 8.53155 35.145 18.0005 35.145Z" fill="#D7D5FF"/>
<path d="M18 36C27.9411 36 36 27.9411 36 18C36 8.05888 27.9411 0 18 0C8.05887 0 0 8.05888 0 18C0 27.9411 8.05887 36 18 36Z" fill="#AF96E2"/>
<path d="M27.154 8.86599C26.101 7.81375 24.6679 7.19995 23.1469 7.19995C21.626 7.19995 20.2221 7.78452 19.1399 8.86599L8.84445 19.1545C6.65081 21.3466 6.65081 24.9418 8.84445 27.1339C9.89739 28.1861 11.3306 28.7999 12.8515 28.7999C14.3724 28.7999 15.7763 28.2154 16.8585 27.1339L22.0063 21.9897L27.154 16.8454C29.3476 14.6533 29.3476 11.0874 27.154 8.86599ZM16.1566 26.4617C15.2791 27.3385 14.0799 27.8354 12.8515 27.8354C11.6231 27.8354 10.4239 27.3385 9.54641 26.4617C7.70375 24.6202 7.70375 21.6681 9.54641 19.8267L14.3724 15.004C14.4017 15.0332 14.4017 15.0625 14.4309 15.0917L20.9826 21.6389L16.1566 26.4617ZM26.452 16.2024L21.6553 20.9959L15.1036 14.4487C15.0744 14.4194 15.0451 14.4194 15.0159 14.3902L19.8419 9.56747C20.7193 8.69061 21.9185 8.19373 23.1469 8.19373C24.4046 8.19373 25.5746 8.69061 26.452 9.56747C28.2947 11.4089 28.2947 14.361 26.452 16.2024Z" fill="white"/>
<path d="M26.452 16.2024L21.6553 20.9959L15.1036 14.4487C15.0744 14.4194 15.0451 14.4194 15.0159 14.3902L19.8419 9.56747C20.7193 8.69061 21.9185 8.19373 23.1469 8.19373C24.4046 8.19373 25.5746 8.69061 26.452 9.56747C28.2947 11.4089 28.2947 14.361 26.452 16.2024Z" fill="white"/>
<g clip-path="url(#clip1_9064_58246)">
<path d="M18 36C27.9411 36 36 27.9411 36 18C36 8.05888 27.9411 0 18 0C8.05887 0 0 8.05888 0 18C0 27.9411 8.05887 36 18 36Z" fill="#7A9BF1"/>
</g>
<path d="M14.0802 15.1394C14.8396 15.4546 15.0246 15.9689 14.7719 16.3999C14.5312 16.8305 12.8358 17.5356 11.2287 17.5729C10.9146 17.5825 10.6111 17.5435 10.319 17.4799C9.16241 17.2252 8.29375 16.5022 8.4865 16.0852C8.59951 15.8278 8.8967 15.6615 9.2067 15.5189C9.51671 15.3764 9.83992 15.2697 10.005 15.1316C10.005 15.1316 10.8603 13.8478 12.1951 14.0002C13.1415 14.1042 13.3325 14.8117 14.0802 15.1394Z" fill="#F4AA62"/>
<path d="M19.1909 15.7925C20.6436 15.8446 23.3223 16.0525 24.9575 16.9333L25.0973 16.7597C25.9337 15.6457 28.9057 15.1675 27.7518 16.9684C26.6101 18.7689 27.9155 20.3249 26.0908 23.5127C24.2782 26.7003 14.3501 27.4648 11.5186 24.2508C9.86492 22.379 10.4558 19.9666 11.2261 18.2743C10.8925 18.0427 10.594 17.7737 10.319 17.4799C10.6111 17.5435 10.9146 17.5825 11.2287 17.5729C12.8237 17.5359 14.5195 16.843 14.7719 16.3999C15.0126 15.9693 14.8275 15.455 14.0802 15.1394C13.3329 14.8238 13.1294 14.1045 12.183 14.0006C10.8479 13.8361 9.99288 15.132 9.99288 15.132C9.83991 15.2697 9.51671 15.3764 9.19462 15.5193C9.06008 15.076 8.97275 14.595 8.95753 14.0997C8.87977 11.1759 11.1627 8.73571 14.0862 8.64587C17.0097 8.55602 19.4381 10.8514 19.528 13.7749C19.5499 14.4876 19.4378 15.1682 19.1909 15.7925Z" fill="#A0BBFF"/>
<path d="M27.7308 15.8808C27.6635 16.0521 27.5362 16.2374 27.3255 16.4616C25.8494 18.0063 27.3168 19.3276 25.5042 22.5151C23.6917 25.7026 13.7635 26.4672 10.932 23.2531C10.8818 23.1942 10.8192 23.1236 10.769 23.0647C10.939 23.4827 11.1812 23.8863 11.5193 24.2629C14.3508 27.477 24.2789 26.7124 26.0915 23.5249C27.9041 20.3374 26.5987 18.7814 27.7525 16.9805C28.133 16.3763 28.0497 16.0282 27.7308 15.8808Z" fill="#687FB9"/>
<path d="M14.9926 16.1139C14.9926 16.1139 14.9918 17.6617 12.6022 18.2067C12.6022 18.2067 12.2926 18.3614 12.2818 18.797C12.271 19.2326 11.4731 19.632 10.9315 19.3222L11.2262 18.2853L10.4545 17.5714C10.4545 17.5714 11.0701 17.9273 12.401 17.56C13.7319 17.1926 14.3698 16.7014 14.3698 16.7014" fill="#687FB9"/>
<path d="M17.9495 17.8859C17.9012 17.8874 17.8521 17.8647 17.8268 17.8292C17.7642 17.7586 17.7609 17.6499 17.8315 17.5872C18.8528 16.5885 19.4149 15.2048 19.3707 13.7673C19.2842 10.9525 16.9183 8.72775 14.1036 8.81425C11.2888 8.90075 9.052 11.267 9.13887 14.0938C9.15335 14.5649 9.22786 15.0221 9.37448 15.465C9.40161 15.5609 9.35589 15.647 9.25999 15.6741C9.16408 15.7012 9.07804 15.6555 9.0509 15.5596C8.90354 15.0926 8.81584 14.5995 8.80024 14.0921C8.70818 11.0961 11.0731 8.56881 14.0811 8.47637C17.0892 8.38393 19.6169 10.7609 19.7093 13.7689C19.7561 15.2911 19.1607 16.7725 18.0688 17.8339C18.0333 17.8591 17.9857 17.8848 17.9495 17.8859Z" fill="black"/>
<path d="M12.1417 18.9468C12.1175 18.9476 12.0933 18.9483 12.0688 18.937C11.3581 18.6324 10.7151 18.1684 10.2016 17.5917C10.139 17.5211 10.1477 17.412 10.2183 17.3494C10.2889 17.2867 10.398 17.2955 10.4607 17.3661C10.9489 17.9073 11.5546 18.3361 12.2166 18.6302C12.3022 18.6638 12.3418 18.7714 12.3082 18.8571C12.2734 18.9065 12.2141 18.9446 12.1417 18.9468Z" fill="black"/>
<path d="M18.6974 26.4722C16.0397 26.5539 12.8926 26.0581 11.4016 24.3627C9.6853 22.4203 10.2864 19.9471 11.0794 18.2057C11.113 18.1201 11.2206 18.0805 11.3067 18.1262C11.3923 18.1598 11.4319 18.2674 11.3862 18.3535C10.6266 19.9972 10.0696 22.3359 11.6486 24.1375C13.1898 25.8918 16.9043 26.358 19.8818 26.061C22.8711 25.7515 25.1861 24.7492 25.9437 23.4321C26.9303 21.6969 26.977 20.462 27.0164 19.3847C27.0494 18.4888 27.0743 17.7263 27.6048 16.8877C27.7895 16.6039 27.9592 16.2239 27.7245 16.0618C27.2675 15.7494 25.7806 16.1578 25.2344 16.8759C25.1762 16.9503 25.0679 16.9657 24.9935 16.9075C24.9192 16.8493 24.9038 16.741 24.9619 16.6667C25.5894 15.8372 27.2786 15.3258 27.9213 15.7776C28.1311 15.9163 28.3963 16.283 27.8886 17.0725C27.4042 17.8371 27.3781 18.5634 27.3554 19.3984C27.3156 20.4637 27.2719 21.7952 26.2392 23.6044C25.4359 25.0076 23.0144 26.0856 19.9164 26.3985C19.5426 26.4342 19.1323 26.4589 18.6974 26.4722Z" fill="black"/>
<path d="M25.8911 17.7981C25.8428 17.7996 25.7937 17.7769 25.7563 17.7418C24.4905 16.2934 20.7454 16.0094 19.1961 15.9603C19.0995 15.9633 19.0244 15.8809 19.0335 15.7839C19.0306 15.6873 19.1129 15.6122 19.2099 15.6213C21.1948 15.6812 24.724 16.0202 26.0154 17.5162C26.0781 17.5868 26.0693 17.6959 25.9987 17.7585C25.9632 17.7838 25.9273 17.797 25.8911 17.7981Z" fill="black"/>
<path d="M11.3058 17.7388C11.2937 17.7392 11.2696 17.7399 11.2575 17.7403C9.98865 17.7672 8.79717 17.1629 8.41656 16.5821C8.25135 16.3212 8.28165 16.1268 8.32626 16.0045C8.50767 15.612 8.98532 15.4159 9.40294 15.2338C9.594 15.1554 9.77298 15.0773 9.86739 15.0019C9.99471 14.8166 10.8662 13.6652 12.2131 13.8173C12.8201 13.8954 13.1435 14.1878 13.4668 14.4801C13.6781 14.6671 13.8774 14.8545 14.1593 14.9788C14.6126 15.1704 14.899 15.4397 15.0177 15.7626C15.0976 16.002 15.0692 16.2568 14.9434 16.4904C14.6449 17.0074 12.8883 17.6902 11.3058 17.7388ZM11.909 14.1532C10.8339 14.1862 10.1395 15.1991 10.1398 15.2111C10.1281 15.2236 10.1164 15.2361 10.1047 15.2485C9.97518 15.3613 9.77241 15.4522 9.53377 15.5563C9.17581 15.7124 8.75781 15.8824 8.6331 16.1523C8.59908 16.2258 8.65075 16.3331 8.68884 16.3924C8.98006 16.8187 10.0387 17.4271 11.2346 17.3903C11.2467 17.39 11.2709 17.3892 11.2829 17.3888C12.8655 17.3402 14.4404 16.6509 14.6233 16.3067C14.7034 16.1592 14.7228 16.0014 14.67 15.8579C14.5905 15.6306 14.3667 15.4319 13.9995 15.286C13.6564 15.1394 13.4323 14.9286 13.2085 14.7299C12.9097 14.4489 12.6485 14.2151 12.151 14.1578C12.0782 14.148 11.9936 14.1506 11.909 14.1532Z" fill="black"/>
<path d="M14.2792 13.3427C14.4794 13.3366 14.6366 13.1693 14.6305 12.9692C14.6243 12.769 14.4571 12.6117 14.2569 12.6179C14.0568 12.624 13.8995 12.7913 13.9057 12.9914C13.9118 13.1916 14.0791 13.3489 14.2792 13.3427Z" fill="#232533"/>
<path d="M12.7316 14.8759C12.7984 14.7843 12.7565 14.6401 12.638 14.5537C12.5195 14.4672 12.3693 14.4714 12.3025 14.563C12.2358 14.6545 12.2777 14.7988 12.3962 14.8852C12.5147 14.9716 12.6649 14.9675 12.7316 14.8759Z" fill="#232533"/>
<path d="M10.3769 13.4628C10.577 13.4567 10.7343 13.2894 10.7282 13.0893C10.722 12.8891 10.5548 12.7319 10.3546 12.738C10.1544 12.7442 9.99717 12.9114 10.0033 13.1116C10.0095 13.3117 10.1767 13.469 10.3769 13.4628Z" fill="#232533"/>
<path d="M11.3967 17.1072C11.2517 17.1116 11.1067 17.1161 10.961 17.0964C9.30154 17.0023 8.38494 16.2928 8.34758 16.2577C8.27324 16.1995 8.25782 16.0912 8.316 16.0168C8.37417 15.9425 8.48252 15.9271 8.55686 15.9853C8.56932 15.997 9.43648 16.6717 10.9744 16.7453C12.5852 16.8288 14.1447 16.0312 14.1685 16.0184C14.252 15.9795 14.3618 16.0124 14.4007 16.0959C14.4395 16.1793 14.4066 16.2892 14.3231 16.328C14.2759 16.3657 12.9309 17.06 11.3967 17.1072Z" fill="black"/>
<path d="M23.0695 21.1748C19.7474 21.2769 18.106 19.0178 18.0932 18.994C18.0423 18.9109 18.0514 18.8139 18.1341 18.7509C18.2172 18.7 18.3142 18.7091 18.3772 18.7918C18.39 18.8156 20.2204 21.3228 23.9633 20.7483C24.0596 20.7332 24.1464 20.8031 24.161 20.8873C24.1761 20.9836 24.1062 21.0704 24.022 21.0851C23.6853 21.1438 23.3715 21.1655 23.0695 21.1748Z" fill="black"/>
</g>
<defs>
<clipPath id="clip0_9064_58246">
<rect width="36" height="36" fill="white"/>
</clipPath>
<clipPath id="clip1_9064_58246">
<rect width="36" height="36" fill="white"/>
</clipPath>
</defs>
</svg>
