<svg viewBox="0 0 36 36" fill="none" xmlns="http://www.w3.org/2000/svg">
    <path fill-rule="evenodd" clip-rule="evenodd"
          d="M33 24V6C33 4.35 31.65 3 30 3H12C10.35 3 9 4.35 9 6V24C9 25.65 10.35 27 12 27H30C31.65 27 33 25.65 33 24ZM17.1 18.795L19.545 22.065L23.415 17.235C23.715 16.86 24.285 16.86 24.585 17.235L29.025 22.785C29.415 23.28 29.07 24 28.44 24H13.5C12.885 24 12.525 23.295 12.9 22.8L15.9 18.795C16.2 18.405 16.8 18.405 17.1 18.795ZM3 30V10.5C3 9.675 3.675 9 4.5 9C5.325 9 6 9.675 6 10.5V28.5C6 29.325 6.675 30 7.5 30H25.5C26.325 30 27 30.675 27 31.5C27 32.325 26.325 33 25.5 33H6C4.35 33 3 31.65 3 30Z"
          fill="#989898"/>
</svg>
