<svg width="23" height="18" viewBox="0 0 23 18" fill="none" xmlns="http://www.w3.org/2000/svg">
<path d="M16.6667 17H21.6667V15C21.6667 13.3431 20.3235 12 18.6667 12C17.7111 12 16.8598 12.4468 16.3104 13.1429M16.6667 17H6.66669M16.6667 17V15C16.6667 14.3438 16.5403 13.717 16.3104 13.1429M6.66669 17H1.66669V15C1.66669 13.3431 3.00983 12 4.66669 12C5.62229 12 6.47355 12.4468 7.02293 13.1429M6.66669 17V15C6.66669 14.3438 6.79311 13.717 7.02293 13.1429M7.02293 13.1429C7.76019 11.301 9.5615 10 11.6667 10C13.7719 10 15.5732 11.301 16.3104 13.1429M14.6667 4C14.6667 5.65685 13.3235 7 11.6667 7C10.0098 7 8.66669 5.65685 8.66669 4C8.66669 2.34315 10.0098 1 11.6667 1C13.3235 1 14.6667 2.34315 14.6667 4ZM20.6667 7C20.6667 8.10457 19.7713 9 18.6667 9C17.5621 9 16.6667 8.10457 16.6667 7C16.6667 5.89543 17.5621 5 18.6667 5C19.7713 5 20.6667 5.89543 20.6667 7ZM6.66669 7C6.66669 8.10457 5.77126 9 4.66669 9C3.56212 9 2.66669 8.10457 2.66669 7C2.66669 5.89543 3.56212 5 4.66669 5C5.77126 5 6.66669 5.89543 6.66669 7Z" stroke="#D1D1D1" stroke-width="2" stroke-linecap="round" stroke-linejoin="round"/>
</svg>
