<svg viewBox="0 0 28 28" fill="none" xmlns="http://www.w3.org/2000/svg">
    <path fill-rule="evenodd" clip-rule="evenodd" d="M0.270681 6.80843C0.097364 6.63506 0 6.39995 0 6.15481C0 5.90966 0.097364 5.67456 0.270681 5.50119L5.50125 0.270622C5.58713 0.184787 5.68909 0.116709 5.80128 0.0702761C5.91348 0.0238427 6.03373 -3.70561e-05 6.15515 4.31611e-08C6.27658 3.71424e-05 6.39681 0.0239906 6.50897 0.0704925C6.62114 0.116994 6.72305 0.185134 6.80889 0.271021C6.89472 0.356909 6.9628 0.458861 7.00923 0.571058C7.05567 0.683255 7.07955 0.803499 7.07951 0.924925C7.07947 1.04635 7.05552 1.16658 7.00902 1.27875C6.96252 1.39092 6.89438 1.49283 6.80849 1.57866L6.15487 2.23148L9.42297 5.49959L12.0383 2.88511C12.2116 2.71165 12.4468 2.61416 12.692 2.61408C12.8134 2.61405 12.9337 2.63793 13.0459 2.68436C13.1581 2.73079 13.26 2.79887 13.3459 2.88471C13.4318 2.97054 13.4999 3.07245 13.5464 3.18462C13.5929 3.29679 13.6169 3.41702 13.6169 3.53844C13.617 3.65987 13.5931 3.78011 13.5466 3.89231C13.5002 4.00451 13.4321 4.10646 13.3463 4.19235L12.0383 5.50039L23.153 16.6151C23.7891 17.2513 24.2258 18.0593 24.4096 18.9399C24.5934 19.8206 24.5163 20.7357 24.1878 21.5732L25.1139 22.4993C25.5973 22.9828 25.7571 23.6683 25.5933 24.2852L27.7292 26.4211C27.815 26.5069 27.8832 26.6089 27.9297 26.7211C27.9761 26.8333 28.0001 26.9536 28.0001 27.0751C28.0001 27.1965 27.9761 27.3168 27.9297 27.429C27.8832 27.5412 27.815 27.6432 27.7292 27.7291C27.6433 27.815 27.5413 27.8831 27.4291 27.9296C27.3169 27.9761 27.1966 28 27.0751 28C26.9537 28 26.8334 27.9761 26.7212 27.9296C26.609 27.8831 26.507 27.815 26.4211 27.7291L24.2853 25.5932C23.9716 25.6773 23.6413 25.6773 23.3276 25.5931C23.014 25.509 22.728 25.3437 22.4986 25.1138L21.5733 24.1885C20.7357 24.5169 19.8205 24.5939 18.9398 24.41C18.0592 24.226 17.2513 23.7892 16.6152 23.153L14.9052 21.443L20.3124 16.035L10.9076 6.63024L6.6303 10.9083L15.9465 20.4016L14.9052 21.443L5.50045 12.0382L4.19321 13.3454C4.10792 13.4337 4.00591 13.5041 3.89312 13.5526C3.78033 13.601 3.65902 13.6265 3.53627 13.6276C3.41352 13.6287 3.29179 13.6053 3.17818 13.5588C3.06457 13.5123 2.96135 13.4437 2.87455 13.3569C2.78775 13.2701 2.71911 13.1668 2.67262 13.0532C2.62614 12.9396 2.60275 12.8179 2.60381 12.6951C2.60487 12.5724 2.63037 12.4511 2.67881 12.3383C2.72725 12.2255 2.79768 12.1235 2.88596 12.0382L5.50125 9.42291L2.23314 6.15481L1.57792 6.80843C1.40455 6.98175 1.16945 7.07911 0.924302 7.07911C0.679158 7.07911 0.44405 6.98175 0.270681 6.80843ZM5.02501 3.36214L8.29312 6.63024L6.6311 8.29226L3.363 5.02416L5.02501 3.36214ZM17.7451 22.0223L17.3423 21.6196L21.6196 17.3415L22.0224 17.7442C22.4389 18.1606 22.7249 18.6895 22.8453 19.266C22.9656 19.8425 22.9151 20.4417 22.7 20.9899L20.99 22.6999C20.4419 22.915 19.8429 22.9655 19.2665 22.8451C18.6901 22.7248 18.1613 22.4388 17.7451 22.0223ZM23.153 23.1521C23.0931 23.2121 23.0324 23.2696 22.97 23.3247L23.6284 23.9832C23.6517 24.0065 23.6794 24.025 23.7099 24.0377C23.7403 24.0504 23.773 24.0569 23.806 24.0569C23.8389 24.057 23.8716 24.0505 23.9021 24.0379C23.9326 24.0253 23.9603 24.0069 23.9836 23.9836C24.007 23.9603 24.0255 23.9326 24.0382 23.9021C24.0508 23.8717 24.0573 23.839 24.0574 23.8061C24.0574 23.7731 24.051 23.7404 24.0384 23.7099C24.0258 23.6794 24.0073 23.6517 23.984 23.6284L23.3256 22.97C23.2697 23.0322 23.2122 23.093 23.153 23.1521Z" fill="white"/>
</svg>
