<svg width="43" height="43" viewBox="0 0 43 43" fill="none" xmlns="http://www.w3.org/2000/svg">
<path d="M3.58325 19.2604C3.58325 24.0122 5.4709 28.5694 8.83092 31.9294C12.1909 35.2894 16.7481 37.1771 21.4999 37.1771C26.2517 37.1771 30.8089 35.2894 34.1689 31.9294C37.5289 28.5694 39.4166 24.0122 39.4166 19.2604C39.4166 14.5086 37.5289 9.95145 34.1689 6.59142C30.8089 3.23139 26.2517 1.34375 21.4999 1.34375C16.7481 1.34375 12.1909 3.23139 8.83092 6.59142C5.4709 9.95145 3.58325 14.5086 3.58325 19.2604V19.2604Z" fill="#FFE500"/>
<path d="M21.4999 1.34375C17.9563 1.34375 14.4923 2.39454 11.546 4.36325C8.59958 6.33196 6.30316 9.13016 4.94709 12.404C3.59101 15.6778 3.23621 19.2803 3.92752 22.7558C4.61884 26.2313 6.32524 29.4237 8.83093 31.9294C11.3366 34.4351 14.5291 36.1415 18.0046 36.8328C21.4801 37.5241 25.0825 37.1693 28.3563 35.8133C31.6302 34.4572 34.4284 32.1608 36.3971 29.2144C38.3658 26.268 39.4166 22.804 39.4166 19.2604C39.4166 14.5086 37.5289 9.95145 34.1689 6.59142C30.8089 3.23139 26.2517 1.34375 21.4999 1.34375V1.34375ZM21.4999 34.4896C18.2664 34.4896 15.1055 33.5307 12.4169 31.7343C9.72836 29.9378 7.63287 27.3845 6.39546 24.3971C5.15804 21.4097 4.83428 18.1225 5.46511 14.9511C6.09594 11.7797 7.65302 8.86661 9.93947 6.58017C12.2259 4.29372 15.139 2.73664 18.3104 2.10581C21.4818 1.47498 24.769 1.79874 27.7564 3.03616C30.7438 4.27357 33.2971 6.36906 35.0936 9.05763C36.89 11.7462 37.8489 14.9071 37.8489 18.1406C37.8489 22.4766 36.1264 26.6351 33.0604 29.7011C29.9944 32.7671 25.8359 34.4896 21.4999 34.4896V34.4896Z" fill="#EBCB00"/>
<path d="M16.125 4.92706C16.125 5.28345 16.6913 5.62524 17.6993 5.87724C18.7073 6.12924 20.0745 6.27081 21.5 6.27081C22.9255 6.27081 24.2927 6.12924 25.3007 5.87724C26.3087 5.62524 26.875 5.28345 26.875 4.92706C26.875 4.57068 26.3087 4.22889 25.3007 3.97689C24.2927 3.72489 22.9255 3.58331 21.5 3.58331C20.0745 3.58331 18.7073 3.72489 17.6993 3.97689C16.6913 4.22889 16.125 4.57068 16.125 4.92706Z" fill="#FFF48C"/>
<path d="M3.58325 19.2604C3.58325 24.0122 5.4709 28.5694 8.83092 31.9294C12.1909 35.2894 16.7481 37.1771 21.4999 37.1771C26.2517 37.1771 30.8089 35.2894 34.1689 31.9294C37.5289 28.5694 39.4166 24.0122 39.4166 19.2604C39.4166 14.5086 37.5289 9.95145 34.1689 6.59142C30.8089 3.23139 26.2517 1.34375 21.4999 1.34375C16.7481 1.34375 12.1909 3.23139 8.83092 6.59142C5.4709 9.95145 3.58325 14.5086 3.58325 19.2604V19.2604Z" stroke="#45413C" stroke-linecap="round" stroke-linejoin="round"/>
<path d="M17.0208 28.2187C18.3466 27.3329 19.9054 26.86 21.4999 26.86C23.0945 26.86 24.6532 27.3329 25.9791 28.2187" stroke="#45413C" stroke-linecap="round"/>
<path opacity="0.15" d="M7.16675 40.7604C7.16675 41.1168 8.67686 41.4586 11.3649 41.7106C14.0529 41.9626 17.6986 42.1042 21.5001 42.1042C25.3015 42.1042 28.9473 41.9626 31.6353 41.7106C34.3233 41.4586 35.8334 41.1168 35.8334 40.7604C35.8334 40.4041 34.3233 40.0623 31.6353 39.8103C28.9473 39.5583 25.3015 39.4167 21.5001 39.4167C17.6986 39.4167 14.0529 39.5583 11.3649 39.8103C8.67686 40.0623 7.16675 40.4041 7.16675 40.7604V40.7604Z" fill="#45413C"/>
<path d="M13.4374 19.2604C13.4374 19.4376 13.3849 19.6108 13.2864 19.7581C13.188 19.9054 13.0481 20.0202 12.8844 20.088C12.7207 20.1558 12.5406 20.1736 12.3668 20.139C12.193 20.1045 12.0334 20.0191 11.9081 19.8938C11.7829 19.7686 11.6975 19.6089 11.663 19.4352C11.6284 19.2614 11.6461 19.0813 11.7139 18.9176C11.7817 18.7539 11.8966 18.614 12.0439 18.5155C12.1912 18.4171 12.3644 18.3646 12.5416 18.3646C12.7792 18.3646 13.007 18.4589 13.175 18.6269C13.343 18.7949 13.4374 19.0228 13.4374 19.2604Z" fill="#45413C" stroke="#45413C" stroke-linecap="round" stroke-linejoin="round"/>
<path d="M30.9062 19.2604C30.9062 19.4376 30.8536 19.6108 30.7552 19.7581C30.6568 19.9054 30.5168 20.0202 30.3532 20.088C30.1895 20.1558 30.0093 20.1736 29.8356 20.139C29.6618 20.1045 29.5022 20.0191 29.3769 19.8938C29.2516 19.7686 29.1663 19.6089 29.1317 19.4352C29.0971 19.2614 29.1149 19.0813 29.1827 18.9176C29.2505 18.7539 29.3653 18.614 29.5126 18.5155C29.66 18.4171 29.8332 18.3646 30.0103 18.3646C30.2479 18.3646 30.4758 18.4589 30.6438 18.6269C30.8118 18.7949 30.9062 19.0228 30.9062 19.2604Z" fill="#45413C" stroke="#45413C" stroke-linecap="round" stroke-linejoin="round"/>
<path d="M11.6458 15.3725C12.6972 15.2031 13.7158 14.8706 14.6647 14.3871C15.6173 13.9129 16.4882 13.29 17.2447 12.5417" stroke="#45413C" stroke-linecap="round" stroke-linejoin="round"/>
<path d="M31.1302 15.3725C29.0177 15.0255 27.0631 14.0372 25.5312 12.5417" stroke="#45413C" stroke-linecap="round" stroke-linejoin="round"/>
<path d="M34.4897 23.7396C34.4897 24.4831 33.4863 25.0833 32.2501 25.0833C31.0138 25.0833 30.0105 24.4831 30.0105 23.7396C30.0105 22.996 31.0138 22.3958 32.2501 22.3958C33.4863 22.3958 34.4897 22.996 34.4897 23.7396Z" fill="#FFAA54"/>
<path d="M8.5105 23.7396C8.5105 24.4831 9.51383 25.0833 10.7501 25.0833C11.9863 25.0833 12.9897 24.4831 12.9897 23.7396C12.9897 22.996 11.9863 22.3958 10.7501 22.3958C9.51383 22.3958 8.5105 22.996 8.5105 23.7396Z" fill="#FFAA54"/>
</svg>
