<svg width="16" height="17" viewBox="0 0 16 17" fill="none" xmlns="http://www.w3.org/2000/svg">
<path d="M14.1211 11.0109L11.0054 11.7878L8.0842 11.1842L5.09331 11.7878L2 11.0072V10.5909C2 10.1086 2.19156 9.64619 2.53253 9.30521C2.8735 8.96424 3.33596 8.77268 3.81817 8.77268H12.303C12.7852 8.77268 13.2476 8.96424 13.5886 9.30521C13.9296 9.64619 14.1211 10.1086 14.1211 10.5909V11.0109ZM14.1211 12.2611V14.8333H2V12.2575L5.06483 13.0302L8.08178 12.4218L11.0266 13.0302L14.1211 12.2611ZM6.2424 6.95451H9.87874V8.16663H6.2424V6.95451ZM8.06057 6.59088C7.57836 6.59088 7.1159 6.39932 6.77493 6.05835C6.43395 5.71738 6.2424 5.25492 6.2424 4.77271C6.2424 4.10301 6.84845 3.01211 8.06057 1.5C9.27268 3.01211 9.87874 4.10301 9.87874 4.77271C9.87874 5.25492 9.68718 5.71738 9.34621 6.05835C9.00524 6.39932 8.54278 6.59088 8.06057 6.59088Z" fill="#FB8A76"/>
</svg>
