<svg width="67" height="87" viewBox="0 0 310 400" fill="none" xmlns="http://www.w3.org/2000/svg">
<path d="M304.58 264.7C300.99 278.38 289.72 284.83 278.78 287.82C277.96 285.37 276.9 282.95 275.62 280.59C272.7 275.19 268.63 270.06 263.58 265.4C271.19 264.53 280.19 261.12 284.04 250.54C291.28 230.6 271.76 227.02 264.99 231.74C259.29 235.7 256.84 240.59 256.84 240.59C256.84 240.59 256.09 237.03 256.61 232.64C257.37 226.14 260.87 217.82 273.62 216.51C298.16 213.98 312.19 235.65 304.58 264.7Z" fill="#F4AE69"/>
<path d="M206.72 364.66C218.54 374.66 213.73 386.13 206.39 388.33C194.61 391.86 154.23 388.57 143.91 368.78C139.09 359.55 140.46 346 143.3 334.17C154.39 338.37 165.64 341.77 176.63 344.21C175.4 347.43 174.7 350.2 175.36 351.66C178.39 358.33 194.91 354.67 206.72 364.66Z" fill="#F4AE69"/>
<path d="M131.37 52.6199C131.37 52.6199 122.87 51.6199 117.53 55.1199C117.53 55.1199 115.87 24.1199 119.7 22.1199C123.53 20.1199 131.37 52.6199 131.37 52.6199Z" fill="#DB8A42"/>
<path d="M63.5299 36.46L63.6 36.8299C59.64 37.8499 55.7098 39.27 51.9298 41.23L51.87 41.12C51.87 41.12 38.6999 14.62 36.0299 16.12C33.3699 17.62 39.37 48.46 39.37 48.46L39.6298 50.21C37.7698 52.07 36.01 54.1499 34.37 56.4499C34.21 55.5599 25.5799 6.43995 31.5299 3.95995C42.0999 -0.450047 58.0299 24.46 63.5299 36.46Z" fill="#F4AE69"/>
<path d="M51.8701 41.12L51.9299 41.2299C47.5599 43.4699 43.3999 46.4099 39.6299 50.2099L39.3701 48.4599C39.3701 48.4599 33.37 17.62 36.03 16.12C38.7 14.62 51.8701 41.12 51.8701 41.12Z" fill="#DB8A42"/>
<path d="M41.2801 248.9C42.3101 263.64 46.7001 293.12 29.5201 290.83C7.0201 287.83 1.5201 227.83 13.5201 217.33C20.0201 211.64 26.2301 209.03 30.5501 207.84C33.1701 221.61 36.6501 235.74 41.2801 248.9Z" fill="#F4AE69"/>
<path d="M32.5401 91.09C39.6101 96.38 24.84 105.7 18.18 105.48C17.8 105.47 17.45 105.42 17.13 105.35C13.57 104.51 7.52016 98.2901 6.07016 93.5401C6.07016 93.5401 6.07016 93.5401 6.07016 93.5301C5.39016 91.3201 5.72013 89.43 7.78013 88.57C11.2201 87.12 17.11 86.5701 22.68 87.4101C26.39 87.9701 29.9501 89.14 32.5401 91.09Z" fill="#2F2E30"/>
<path d="M21.6399 128.08L21.2501 129.51C20.9201 129.42 20.5901 129.33 20.2801 129.24C4.62009 124.64 -0.819874 102.23 6.07013 93.54C7.52013 98.29 13.5699 104.51 17.1299 105.35C17.4499 105.42 17.8 105.47 18.18 105.48L18.14 106.08C18.14 106.08 17.8899 116.33 21.6399 128.08Z" fill="#53565B"/>
<path d="M275.99 317.99C281.51 308.15 282.09 297.71 278.78 287.82C277.95 285.34 276.87 282.89 275.57 280.5C272.66 275.13 268.6 270.03 263.58 265.4C254.68 257.19 242.76 250.45 228.89 246.33C194.64 236.16 153.19 217.16 148.52 193.83C144.26 172.49 145.99 116.95 146.44 100.49C146.48 98.9501 146.52 97.7601 146.53 96.9601C147.03 69.9601 138.28 41.2101 138.28 41.2101C135.78 35.2101 124.03 -9.53994 114.03 5.96006C109.38 13.1801 107.86 26.1301 107.57 37.9201C99.3901 35.8101 81.1901 32.2901 63.6001 36.8301C59.6401 37.8501 55.71 39.2701 51.93 41.2301C47.56 43.4701 43.3999 46.4101 39.6299 50.2101C37.7699 52.0701 36.0102 54.1501 34.3702 56.4501C34.3602 56.4501 34.3601 56.4601 34.3601 56.4601C28.7001 64.4001 25.3901 71.6701 23.7801 79.2401C23.2201 81.8801 22.87 84.5701 22.69 87.3301L22.68 87.4101C26.39 87.9701 29.9501 89.1401 32.5401 91.0901C39.6101 96.3801 24.84 105.7 18.18 105.48L18.1399 106.08C18.1399 106.08 17.8899 116.33 21.6399 128.08L21.25 129.51C21.66 129.63 22.0801 129.74 22.5201 129.85C22.5201 129.94 22.5301 130.35 22.5401 131.05C22.6701 137.81 23.6301 171.55 30.5501 207.84C33.1701 221.61 36.6501 235.74 41.2801 248.9C41.8001 250.39 42.3399 251.87 42.8899 253.33C55.4899 286.66 98.1201 317.05 143.3 334.17C154.39 338.37 165.64 341.77 176.63 344.21C203.85 350.27 229.52 350.49 247.47 342.54C264.62 369.24 287.06 399.15 300.02 396.33C312.82 393.55 307.51 369.89 275.99 317.99ZM84.5701 144.34C82.1401 149.83 78.4301 155.38 72.7801 158.21C69.5201 159.85 65.9 160.55 62.24 160.63C56.93 167.98 58.12 179.61 52.98 179.26C47 178.86 35.2501 169.72 39.5601 155.31C39.6001 155.17 39.65 155.03 39.69 154.9C38.66 154.33 37.96 153.83 37.68 153.51C37.68 153.51 42.8899 145.83 37.8899 133.16L37.96 132.55L37.97 132.48C38.53 132.54 39.1 132.6 39.67 132.66C54.08 134.14 71.01 134.1 81.74 131.44C81.75 131.43 81.7601 131.43 81.7801 131.43C84.4801 130.75 86.7901 129.91 88.5601 128.89L88.6102 128.97L88.7601 129.22C88.7601 129.22 87.9201 136.72 84.5701 144.34ZM119.7 22.1201C123.53 20.1201 131.37 52.6201 131.37 52.6201C131.37 52.6201 122.87 51.6201 117.53 55.1201C117.53 55.1201 115.87 24.1201 119.7 22.1201Z" fill="#F4AE69"/>
<path d="M22.54 131.05C22.54 131.05 21.9699 139.66 23.1399 143.33C24.3099 147 22.9699 156.08 26.1399 162.08C29.3099 168.08 58.7199 174 76.3899 166C94.0599 158 98.9699 116.25 98.9699 116.25" fill="#53565B"/>
<path d="M100.89 107.5C98.3899 118.08 99.6402 122.52 88.6102 128.97C88.1102 129.27 87.5901 129.56 87.0601 129.83C85.8601 130.44 84.0601 130.98 81.7801 131.43C81.7601 131.43 81.75 131.43 81.74 131.44C72.77 133.19 56.38 133.67 39.67 132.66C39.1 132.62 38.53 132.58 37.96 132.55C32.76 132.2 27.5401 131.7 22.5401 131.05C22.5301 130.35 22.5201 129.94 22.5201 129.85C22.0801 129.74 21.66 129.63 21.25 129.51L21.6399 128.08C17.8899 116.33 18.1399 106.08 18.1399 106.08L18.18 105.48C24.84 105.7 39.6101 96.38 32.5401 91.09C29.9501 89.14 26.39 87.97 22.68 87.41L22.69 87.33C22.87 84.57 23.2201 81.88 23.7801 79.24C25.8701 75.69 31.3101 65.86 43.0601 66C57.2201 66.16 54.89 75.83 65.22 76.83C75.56 77.83 76.7201 65.83 93.5601 70.83C110.39 75.83 101.98 102.88 100.89 107.5Z" fill="#53565B"/>
<path d="M275.57 280.5C272.82 283.02 270.18 284.66 268.06 284.66C259.72 284.66 255.06 281.33 233.06 283.66C211.06 286 216.72 297.66 208.72 297C200.72 296.33 153.72 280.33 142.39 255C131.06 229.66 139.06 192.66 133.72 192C128.39 191.33 125.06 202 119.06 193.66C113.06 185.33 129.72 180.33 135.72 152.66C141.72 125 144.06 98 144.06 98L146.44 100.49C145.99 116.95 144.26 172.49 148.52 193.83C153.19 217.16 194.64 236.16 228.89 246.33C242.76 250.45 254.68 257.19 263.58 265.4C268.6 270.03 272.66 275.13 275.57 280.5Z" fill="#53565B"/>
<path d="M297.14 262.33C294.18 271.93 284.12 277.46 275.62 280.59C272.7 275.19 268.63 270.06 263.58 265.4C271.19 264.53 280.19 261.12 284.04 250.54C291.28 230.6 271.76 227.02 264.99 231.74C259.29 235.7 256.84 240.59 256.84 240.59C256.84 240.59 256.09 237.03 256.61 232.64C258.82 228.43 265.22 219.75 279.89 221.08C299.14 222.83 302.39 245.33 297.14 262.33Z" fill="#53565B"/>
<path d="M31.72 59.0002C31.72 59.0002 40.72 53.5001 51.05 57.3301C61.38 61.1601 58.72 65.8302 67.72 65.6602C76.72 65.4902 78.3899 59.8302 90.8899 60.6602C103.39 61.4902 108.06 63.4902 108.06 63.4902L106.06 37.3201C106.06 37.3201 97.0601 32.3202 69.0601 36.1502C41.0601 39.9802 35.3899 55.3201 35.3899 55.3201" fill="#53565B"/>
<path d="M27.3787 91.4481C27.5409 89.9379 24.4805 88.3709 20.5432 87.948C16.6059 87.5251 13.2826 88.4064 13.1204 89.9166C12.9582 91.4267 16.0185 92.9937 19.9558 93.4166C23.8931 93.8396 27.2165 92.9582 27.3787 91.4481Z" fill="white"/>
<path d="M88.5601 128.89L88.76 129.22C88.76 129.22 87.9201 136.72 84.5701 144.34L81.74 144.12C81.74 144.12 44.6099 140.96 39.6899 154.9C38.6599 154.33 37.9599 153.83 37.6799 153.51C37.6799 153.51 42.8899 145.83 37.8899 133.16L37.97 132.48C56.33 134.54 79.4701 134.14 88.5601 128.89Z" fill="#FD9FA7"/>
<path d="M62.2399 160.63C56.9299 167.98 58.1199 179.61 52.9799 179.26C46.9999 178.86 35.25 169.72 39.56 155.31C39.6 155.17 39.6499 155.03 39.6899 154.9C44.6099 140.96 81.7399 144.12 81.7399 144.12L84.57 144.34C82.14 149.83 78.43 155.38 72.78 158.21C69.52 159.85 65.8999 160.55 62.2399 160.63Z" fill="#F4A8E6"/>
<path opacity="0.25" d="M21.0601 131L32.0601 133C32.0601 133 32.3901 213.33 56.0601 257C79.7301 300.67 160.39 330.33 185.06 335C209.73 339.67 230.39 338.33 230.39 338.33C230.39 338.33 221.72 307.66 223.39 306C225.06 304.33 246.72 344.67 246.72 344.67C246.72 344.67 211.39 362.34 144.05 333.67C76.72 305 52.72 285.67 40.72 246.34C28.72 207.01 22.3899 147.01 22.3899 147.01" fill="#231F20"/>
<path opacity="0.25" d="M29.14 208.58C29.14 208.58 27.89 207.08 24.39 210.83C20.89 214.58 33.39 246.33 34.89 253.08C36.39 259.83 41.39 277.83 41.39 277.83L39.14 245.08" fill="#231F20"/>
<path opacity="0.25" d="M110.64 292.83C110.64 292.83 115.64 294.33 122.89 284.83C130.14 275.33 125.39 247.08 125.39 247.08C125.39 247.08 139.14 243.08 138.39 233.83C138.39 233.83 136.14 237.08 130.39 238.58C124.64 240.08 116.64 239.08 116.64 241.83C116.64 244.58 119.39 274.58 118.14 280.83" fill="#231F20"/>
<path opacity="0.25" d="M144.06 333.66C144.06 333.66 141.56 344.49 142.56 345.99C143.56 347.49 176.06 355.99 175.73 355.32C175.4 354.65 174.9 350.82 174.9 349.65C174.9 348.48 175.73 344.65 175.73 344.65" fill="#231F20"/>
<path opacity="0.25" d="M55.72 181.33C55.72 181.33 60.0499 182.5 62.8899 177.16C65.7299 171.82 63.8899 165.66 69.3899 161.33C74.8899 157 64.7199 159.33 61.8899 162.5C59.0599 165.67 56.5601 174.67 56.5601 174.67" fill="#231F20"/>
<path d="M278.78 290.32C277.68 290.32 276.67 289.59 276.37 288.48C276.01 287.15 276.79 285.77 278.12 285.41C291.3 281.81 299.39 274.63 302.16 264.07C306.07 249.13 304.18 235.73 296.95 227.3C291.45 220.88 283.48 218.01 273.87 219C268.45 219.56 264.46 221.55 261.99 224.92C260.03 227.6 259.26 230.8 259.01 233.56C260.24 232.28 261.75 230.94 263.55 229.69C268.01 226.58 276.74 226.29 282.63 230.82C285.91 233.34 290.75 239.36 286.38 251.4C282.92 260.9 275.13 266.6 263.85 267.89C262.48 268.05 261.24 267.06 261.08 265.69C260.92 264.32 261.91 263.08 263.28 262.92C272.68 261.84 278.87 257.39 281.67 249.69C284.14 242.89 283.42 237.73 279.58 234.79C275.67 231.79 269.28 231.79 266.4 233.8C261.34 237.32 259.07 241.68 259.05 241.73C258.57 242.67 257.54 243.22 256.49 243.08C255.44 242.94 254.59 242.16 254.37 241.12C254.28 240.67 252.12 229.95 257.94 221.99C261.27 217.42 266.46 214.75 273.34 214.04C284.49 212.9 294.21 216.45 300.73 224.06C309.03 233.75 311.31 248.8 306.98 265.35C303.77 277.59 294.24 286.2 279.42 290.25C279.22 290.29 279 290.32 278.78 290.32Z" fill="black"/>
<path d="M83.23 87.6501C86.6321 87.6501 89.3899 84.8922 89.3899 81.4901C89.3899 78.088 86.6321 75.3301 83.23 75.3301C79.8279 75.3301 77.0701 78.088 77.0701 81.4901C77.0701 84.8922 79.8279 87.6501 83.23 87.6501Z" fill="black"/>
<path d="M44.23 84.6501C47.6321 84.6501 50.3899 81.8922 50.3899 78.4901C50.3899 75.088 47.6321 72.3301 44.23 72.3301C40.8279 72.3301 38.0701 75.088 38.0701 78.4901C38.0701 81.8922 40.8279 84.6501 44.23 84.6501Z" fill="black"/>
<path d="M22.6899 89.8299C22.6399 89.8299 22.59 89.8299 22.53 89.8299C21.15 89.7399 20.1099 88.56 20.1899 87.18C20.9099 75.69 24.65 65.77 32.32 55.01C54.18 24.4 95.9199 32.34 108.19 35.5C109.53 35.84 110.33 37.21 109.99 38.54C109.65 39.88 108.29 40.6799 106.95 40.3399C95.4599 37.3799 56.3998 29.9 36.3998 57.91C29.2998 67.86 25.8499 76.9799 25.1899 87.4899C25.0999 88.8099 23.9999 89.8299 22.6899 89.8299Z" fill="black"/>
<path d="M58.4801 136.14C43.9401 136.14 28.5302 134.27 19.5802 131.64C11.6102 129.3 5.08999 122.38 2.15999 113.13C-0.45001 104.9 0.300195 96.7898 4.1202 91.9798C4.9802 90.8998 6.54996 90.7198 7.62996 91.5698C8.70996 92.4298 8.89012 93.9998 8.04012 95.0798C5.32012 98.4998 4.88001 105.15 6.93001 111.61C9.36001 119.27 14.6201 124.97 21.0001 126.84C38.6501 132.03 80.42 133.43 88.88 125.62C89.9 124.68 91.48 124.75 92.41 125.76C93.35 126.77 93.2801 128.36 92.2701 129.29C86.9001 134.24 73.1301 136.14 58.4801 136.14Z" fill="black"/>
<path d="M81.7301 107.32C81.4801 107.32 81.2301 107.28 80.9801 107.2C80.7201 107.12 54.2501 98.8399 33.2701 94.7599C31.9101 94.4999 31.0301 93.1798 31.2901 91.8298C31.5501 90.4798 32.8701 89.5898 34.2201 89.8498C55.4701 93.9798 82.2001 102.35 82.4701 102.43C83.7901 102.84 84.5202 104.25 84.1102 105.56C83.7802 106.64 82.8001 107.32 81.7301 107.32Z" fill="black"/>
<path d="M18.3798 107.98C17.7298 107.98 17.1099 107.92 16.5499 107.78C11.6099 106.61 3.7699 98.2302 3.2699 92.2502C3.0399 89.4802 4.32993 87.3002 6.79993 86.2602C12.9299 83.6802 26.5899 83.5101 34.0299 89.0801C36.8299 91.1801 37.6398 94.2902 36.1798 97.4002C33.7398 102.65 24.3898 107.98 18.3798 107.98ZM8.74988 90.8702C8.40988 91.0102 8.2099 91.1001 8.2699 91.8401C8.5699 95.4701 14.7199 102.21 17.7199 102.92C20.9399 103.68 29.8298 99.2502 31.6798 95.2902C32.0898 94.4202 32.0999 93.8701 31.0599 93.0901C25.2999 88.7901 13.7399 88.7802 8.74988 90.8702Z" fill="black"/>
<path d="M34.3601 58.95C33.1701 58.95 32.1098 58.1 31.8998 56.88C31.8798 56.76 29.6599 44.1601 28.2099 31.4201C25.3199 6.05006 27.91 2.75003 30.57 1.64003C44.36 -4.08997 61.87 26.81 65.8 35.41C66.38 36.67 65.82 38.15 64.57 38.72C63.31 39.3 61.83 38.74 61.26 37.49C54.56 22.86 40.2399 3.61005 32.7499 6.16005C30.4799 9.87005 33.07 34.73 36.83 56.01C37.07 57.37 36.16 58.67 34.8 58.91C34.66 58.94 34.5101 58.95 34.3601 58.95Z" fill="black"/>
<path d="M117.53 56.6204C117.3 56.6204 117.07 56.5703 116.85 56.4603C116.37 56.2203 116.06 55.7403 116.03 55.2003C116.03 55.1203 115.61 47.3104 115.67 39.3604C115.79 24.5104 117.34 21.6604 119 20.7904C119.64 20.4604 120.37 20.4504 121.06 20.7604C125.29 22.6804 130.69 43.4404 132.82 52.2704C132.94 52.7504 132.81 53.2504 132.48 53.6204C132.15 53.9904 131.67 54.1704 131.18 54.1204C131.1 54.1104 123.15 53.2304 118.34 56.3804C118.11 56.5404 117.82 56.6204 117.53 56.6204ZM120.16 23.7704C118.69 26.4304 118.36 40.0603 118.92 52.6903C122.64 51.1003 126.92 50.9304 129.43 50.9904C126.42 38.9504 122.31 26.0804 120.16 23.7704Z" fill="black"/>
<path d="M39.3702 49.9499C38.6702 49.9499 38.04 49.45 37.9 48.74C31.69 16.84 34.3201 15.37 35.3001 14.81C35.7901 14.54 36.37 14.48 36.94 14.66C40.62 15.79 49.5401 33.0699 53.2101 40.4499C53.5801 41.1899 53.2801 42.0899 52.5301 42.4599C51.7901 42.8299 50.8901 42.53 50.5201 41.78C45.6801 32.04 39.5402 21.1699 36.8602 18.2199C36.5302 22.4599 38.5202 36.23 40.8402 48.16C41.0002 48.97 40.47 49.76 39.65 49.92C39.56 49.95 39.4602 49.9499 39.3702 49.9499Z" fill="black"/>
<path d="M275.99 320.49C275.57 320.49 275.16 320.39 274.77 320.17C273.57 319.49 273.14 317.97 273.81 316.77C278.74 307.99 279.64 298.25 276.41 288.62C273.89 281.07 268.86 273.68 261.89 267.24C253 259.04 241.34 252.64 228.18 248.73C210.42 243.46 152 223.94 146.07 194.32C141.9 173.43 143.35 121.71 143.89 102.23C143.96 99.8201 144.01 97.9901 144.03 96.9101C144.5 71.4501 136.5 43.9801 135.92 42.0401C135.49 40.9701 134.88 39.1002 134.05 36.5602C127.42 16.2302 122.23 5.69008 118.63 5.22008C117.73 5.10008 116.67 6.48017 116.13 7.31017C106.72 21.9002 110.97 62.7801 111.01 63.1901C111.16 64.5601 110.16 65.8 108.79 65.94C107.41 66.09 106.18 65.0901 106.04 63.7201C105.85 61.9701 101.56 20.6601 111.92 4.60008C114.52 0.570085 117.35 0.0201188 119.26 0.260119C126.38 1.18012 132.01 14.2401 138.79 35.0101C139.59 37.4501 140.22 39.3801 140.58 40.2501C140.61 40.3301 140.64 40.4101 140.66 40.4801C141.02 41.6701 149.52 69.9201 149.02 97.0001C149 98.0901 148.95 99.9301 148.88 102.37C148.39 119.84 146.9 173 150.96 193.34C155.24 214.7 194.38 233.48 229.59 243.93C243.48 248.06 255.81 254.84 265.26 263.56C272.85 270.57 278.34 278.68 281.14 287.02C284.83 298.03 283.8 309.16 278.16 319.21C277.71 320.03 276.86 320.49 275.99 320.49Z" fill="black"/>
<path d="M213.52 351.11C202.09 351.11 189.46 349.63 176.08 346.65C165.03 344.2 153.7 340.78 142.41 336.51C102.49 321.38 54.7601 291.82 40.5501 254.22C39.9901 252.74 39.45 251.24 38.92 249.73C34.67 237.64 31.0202 223.7 28.0902 208.31C20.3902 167.97 20.0201 130.23 20.0201 129.85C20.0101 128.47 21.1201 127.34 22.5001 127.33C22.5101 127.33 22.5101 127.33 22.5201 127.33C23.8901 127.33 25.0101 128.44 25.0201 129.81C25.0201 130.18 25.3901 167.49 33.0101 207.37C35.8901 222.51 39.47 236.21 43.64 248.07C44.16 249.55 44.69 251.01 45.23 252.45C56.46 282.15 95.3 313.31 144.19 331.83C155.26 336.02 166.36 339.37 177.18 341.77C205.44 348.06 230.05 347.52 246.47 340.25C247.73 339.69 249.21 340.26 249.77 341.52C250.33 342.78 249.76 344.26 248.5 344.82C239.04 349.01 227.13 351.11 213.52 351.11Z" fill="black"/>
<path d="M107.36 293.46C106.66 293.46 105.94 293.41 105.19 293.31C96.4099 292.14 89.1499 283.48 84.7599 268.93C79.0399 249.98 79.16 223.08 87.87 215.45C100.43 204.46 112.03 204.33 112.52 204.33C113.9 204.33 115.02 205.45 115.02 206.83C115.02 208.21 113.91 209.33 112.53 209.33C112.37 209.33 102.2 209.56 91.1698 219.21C84.8298 224.76 84.01 249.12 89.55 267.48C91.75 274.75 96.78 287.14 105.85 288.35C108.45 288.7 110.43 288.18 111.92 286.77C117.5 281.45 116.1 264.91 115.18 253.96C114.32 243.77 113.96 239.56 117.24 238.46C118.82 237.93 120.53 237.82 122.34 237.69C126.41 237.42 130.63 237.13 134.59 232.25C135.46 231.18 137.04 231.01 138.11 231.89C139.18 232.76 139.34 234.34 138.47 235.41C133.13 241.98 127.09 242.39 122.68 242.69C121.54 242.77 120.51 242.84 119.66 243C119.43 244.87 119.83 249.63 120.16 253.54C121.23 266.15 122.69 283.42 115.37 290.39C113.23 292.43 110.54 293.46 107.36 293.46Z" fill="black"/>
<path d="M31.36 293.46C30.66 293.46 29.9399 293.41 29.1899 293.31C20.4099 292.14 13.1499 283.48 8.75993 268.93C3.03993 249.98 3.16003 223.08 11.87 215.45C18.84 209.35 25.5098 206.64 29.8798 205.43C31.2098 205.06 32.5899 205.84 32.9499 207.18C33.3199 208.51 32.5299 209.89 31.1999 210.25C27.3299 211.32 21.4098 213.74 15.1498 219.21C8.80982 224.76 7.98995 249.12 13.5299 267.48C15.7299 274.75 20.76 287.14 29.83 288.35C32.43 288.7 34.4098 288.18 35.8998 286.77C41.4798 281.45 40.0798 264.91 39.1598 253.97C39.0098 252.22 38.8699 250.57 38.7699 249.08C38.6699 247.7 39.71 246.51 41.09 246.41C42.48 246.31 43.6599 247.35 43.7599 248.73C43.8599 250.2 43.9998 251.83 44.1398 253.55C45.1998 266.16 46.66 283.42 39.35 290.39C37.22 292.43 34.54 293.46 31.36 293.46Z" fill="black"/>
<path d="M39.69 157.4C39.28 157.4 38.86 157.3 38.48 157.09C37.21 156.38 36.3001 155.73 35.8001 155.16C35.0501 154.3 34.9701 153.05 35.6101 152.11C35.7801 151.85 39.9701 145.23 35.5601 134.08C35.0501 132.8 35.68 131.34 36.97 130.84C38.26 130.33 39.71 130.96 40.21 132.25C44.1 142.1 42.2999 149.29 40.8799 152.71C40.8899 152.71 40.8899 152.72 40.8999 152.72C42.1099 153.39 42.5399 154.91 41.8799 156.12C41.4199 156.93 40.57 157.4 39.69 157.4Z" fill="black"/>
<path d="M62.2401 163.13C60.8801 163.13 59.7701 162.05 59.7401 160.68C59.7101 159.3 60.8 158.16 62.18 158.13C65.78 158.05 68.97 157.33 71.65 155.98C83.75 149.9 86.2501 129.15 86.2701 128.94C86.4301 127.57 87.6602 126.59 89.0402 126.74C90.4102 126.9 91.4001 128.13 91.2401 129.5C91.1301 130.46 88.42 153.15 73.9 160.45C70.55 162.14 66.6402 163.04 62.2902 163.13C62.2802 163.13 62.2601 163.13 62.2401 163.13Z" fill="black"/>
<path d="M53.2701 181.77C53.1201 181.77 52.9701 181.77 52.8201 181.75C48.4501 181.46 43.1202 177.97 39.8702 173.27C37.2302 169.46 34.62 163.13 37.18 154.58C41.94 138.68 77.89 141.27 81.97 141.62C83.35 141.74 84.37 142.95 84.25 144.32C84.13 145.7 82.9201 146.71 81.5501 146.6C72.2501 145.81 45.01 145.85 41.97 156.02C39.98 162.66 41.97 167.52 43.98 170.43C46.68 174.33 50.73 176.6 53.16 176.77C53.17 176.77 53.17 176.77 53.18 176.77C53.95 176.77 54.9 173.13 55.47 170.95C56.83 165.73 58.5201 159.23 64.0601 155.34C65.1901 154.55 66.7501 154.82 67.5401 155.95C68.3301 157.08 68.06 158.64 66.93 159.43C62.89 162.26 61.5201 167.55 60.3101 172.21C59.0701 176.91 57.8101 181.77 53.2701 181.77Z" fill="black"/>
<path d="M195.09 392.01C177.6 392.01 150.28 386.39 141.7 369.93C137.36 361.62 137.08 349.39 140.88 333.58C141.2 332.24 142.55 331.41 143.89 331.73C145.23 332.05 146.06 333.4 145.74 334.74C142.29 349.13 142.42 360.5 146.13 367.61C155.85 386.25 194.9 389.15 205.68 385.92C208.39 385.11 210.55 382.62 211.18 379.59C211.7 377.08 211.61 372.05 205.12 366.55C199.36 361.68 192.39 360.34 186.24 359.15C180.24 357.99 175.06 356.99 173.1 352.68C172.2 350.69 172.56 347.88 174.31 343.3C174.8 342.01 176.25 341.36 177.54 341.86C178.83 342.35 179.48 343.8 178.98 345.09C177.33 349.41 177.62 350.52 177.66 350.63C178.54 352.57 182.55 353.35 187.19 354.24C193.61 355.48 201.6 357.02 208.35 362.73C214.54 367.97 217.36 374.48 216.08 380.6C215.08 385.41 211.56 389.37 207.12 390.7C204.39 391.54 200.15 392.01 195.09 392.01Z" fill="black"/>
<path d="M298.29 399.01C287.55 399.01 272.13 383.88 251.31 352.93C235.31 329.14 221.95 304.42 221.82 304.18C221.17 302.96 221.62 301.45 222.84 300.79C224.05 300.14 225.57 300.59 226.23 301.81C246.36 339.19 284.04 397.24 299.5 393.89C301.41 393.47 302.62 392.49 303.31 390.8C306.01 384.13 302.93 361.52 251.95 285.06C251.18 283.91 251.49 282.36 252.64 281.59C253.79 280.83 255.34 281.13 256.11 282.28C296.52 342.89 313.47 379 307.94 392.67C306.63 395.9 304.08 398.01 300.56 398.78C299.83 398.93 299.07 399.01 298.29 399.01Z" fill="black"/>
<path d="M21.64 130.08C20.79 130.08 20.0101 129.54 19.7401 128.69C15.9301 116.76 16.14 106.47 16.15 106.03C16.18 104.94 17.07 104.08 18.15 104.08C18.17 104.08 18.18 104.08 18.2 104.08C19.3 104.11 20.18 105.02 20.15 106.13C20.15 106.23 19.9601 116.21 23.5601 127.47C23.9001 128.52 23.3101 129.65 22.2601 129.98C22.0501 130.05 21.84 130.08 21.64 130.08Z" fill="black"/>
</svg>
