<svg width="12" height="12" viewBox="0 0 12 12" fill="none" xmlns="http://www.w3.org/2000/svg">
<path fill-rule="evenodd" clip-rule="evenodd" d="M7.875 5.25C7.875 5.74728 7.67746 6.22419 7.32583 6.57583C6.97419 6.92746 6.49728 7.125 6 7.125C5.50272 7.125 5.02581 6.92746 4.67417 6.57583C4.32254 6.22419 4.125 5.74728 4.125 5.25C4.125 4.75272 4.32254 4.27581 4.67417 3.92417C5.02581 3.57254 5.50272 3.375 6 3.375C6.49728 3.375 6.97419 3.57254 7.32583 3.92417C7.67746 4.27581 7.875 4.75272 7.875 5.25ZM7.125 5.25C7.1249 5.54847 7.00624 5.83467 6.79512 6.04565C6.584 6.25663 6.29772 6.3751 5.99925 6.375C5.70078 6.3749 5.41458 6.25624 5.2036 6.04512C4.99262 5.834 4.87415 5.54772 4.87425 5.24925C4.87435 4.95078 4.99301 4.66458 5.20413 4.4536C5.41525 4.24262 5.70153 4.12415 6 4.12425C6.29847 4.12435 6.58467 4.24301 6.79565 4.45413C7.00663 4.66525 7.1251 4.95153 7.125 5.25Z" fill="#2CBB69"/>
<path fill-rule="evenodd" clip-rule="evenodd" d="M10.5 5.25C10.5 8.625 6.75 12 6 12C5.25 12 1.5 8.625 1.5 5.25C1.5 2.7675 3.5175 0.75 6 0.75C8.4825 0.75 10.5 2.7675 10.5 5.25ZM9.75 5.25C9.75 6.6825 8.94 8.205 7.95 9.42C7.46475 10.0155 6.96 10.5075 6.5475 10.8375C6.37573 10.9794 6.19233 11.1066 5.99925 11.2177L5.96025 11.1967C5.78143 11.09 5.61094 10.97 5.45025 10.8375C5.03625 10.503 4.53525 10.0125 4.04775 9.42C3.05775 8.205 2.24775 6.6825 2.24775 5.25C2.24775 3.18 3.92775 1.5 5.99775 1.5C8.06775 1.5 9.74775 3.18 9.74775 5.25H9.75Z" fill="#2CBB69"/>
</svg>
