<svg width="80" height="80" viewBox="0 0 80 80" fill="none" xmlns="http://www.w3.org/2000/svg">
    <path d="M79.3783 65.2732L61.423 41.7197C60.35 40.3124 58.6834 39.4873 56.9142 39.4873H23.0842C21.3149 39.4873 19.6484 40.3124 18.5754 41.7197L0.621662 65.2732C-0.888343 67.2544 0.523821 70.1081 3.01549 70.1081H76.9845C79.4762 70.1065 80.8883 67.2528 79.3783 65.2732Z"
          fill="url(#paint0_linear_1289_44031)"/>
    <path d="M1.63304 65.3223C1.15851 65.3223 0.71823 65.4625 0.348067 65.7022C-0.682519 67.6411 0.700293 70.1067 3.01585 70.1067H76.9849C79.3004 70.1067 80.6832 67.6411 79.6526 65.7022C79.2825 65.4625 78.8422 65.3223 78.3677 65.3223H1.63304Z"
          fill="#C9CDD3"/>
    <path d="M32.2929 51.5996L45.1394 65.3217H39.8886L28.5195 53.2515L32.2929 51.5996Z" fill="white"/>
    <path d="M59.0169 39.8953C58.3565 39.6311 57.6455 39.4893 56.9166 39.4893H50.3906L5.18343 59.2905L0.622429 65.2735C0.55231 65.3664 0.490345 65.461 0.431641 65.5556L59.0169 39.8953Z"
          fill="#FEE379"/>
    <path d="M0.431641 65.5554L28.5184 53.252L39.8874 65.3222L0.431641 65.5554Z" fill="#86ADFF"/>
    <path d="M5.18164 59.2905L50.3888 39.4893H23.0832C21.3139 39.4893 19.6474 40.3144 18.5744 41.7217L5.18164 59.2905Z"
          fill="#69CA9F"/>
    <path d="M67.832 50.1289L66.4443 48.3091L57.9909 52.0042L50.2485 43.7334L46.5256 45.3641L54.2648 53.6316L39.998 59.8673L41.632 61.5779L55.8759 55.3536L65.2083 65.3219H70.4574L59.602 53.7245L67.832 50.1289Z"
          fill="#C9CDD3"/>
    <path opacity="0.3"
          d="M62.2062 42.7487L61.4218 41.7197C60.3489 40.3124 58.6823 39.4873 56.913 39.4873H39.998V52.4218L62.2062 42.7487Z"
          fill="url(#paint1_linear_1289_44031)"/>
    <path d="M38.0678 9.46296C31.6071 10.3272 26.6678 15.5046 26.066 21.9947C25.6518 26.4595 27.338 30.5394 30.2503 33.367C31.3722 34.4563 32.4142 35.619 33.3698 36.8452C36.0816 40.3235 37.939 44.3904 38.8994 48.6937L39.6724 52.1573C39.7066 52.3122 39.8436 52.4214 40.0018 52.4214C40.16 52.4214 40.2969 52.3122 40.3312 52.1573L41.1514 48.4752C42.0841 44.2909 43.873 40.3333 46.4919 36.9398C47.4262 35.7299 48.4503 34.59 49.5706 33.5415C52.2954 30.9895 53.9995 27.3596 53.9995 23.3302C53.9979 14.9632 46.6598 8.3117 38.0678 9.46296Z"
          fill="url(#paint2_linear_1289_44031)"/>
    <path d="M43.0681 27.4999C44.7626 25.8053 44.7626 23.0579 43.0681 21.3634C41.3735 19.6688 38.6261 19.6688 36.9315 21.3634C35.237 23.0579 35.237 25.8053 36.9315 27.4999C38.6261 29.1945 41.3735 29.1945 43.0681 27.4999Z"
          fill="white"/>
    <defs>
        <linearGradient id="paint0_linear_1289_44031" x1="6.24265" y1="34.6824" x2="64.0022" y2="82.6936"
                        gradientUnits="userSpaceOnUse">
            <stop stop-color="#F6F8FF"/>
            <stop offset="1" stop-color="#DEE0ED"/>
        </linearGradient>
        <linearGradient id="paint1_linear_1289_44031" x1="66.4888" y1="31.7302" x2="37.3254" y2="49.5248"
                        gradientUnits="userSpaceOnUse">
            <stop/>
            <stop offset="1"/>
        </linearGradient>
        <linearGradient id="paint2_linear_1289_44031" x1="40.039" y1="13.1681" x2="39.9538" y2="52.4213"
                        gradientUnits="userSpaceOnUse">
            <stop stop-color="#FFA07D"/>
            <stop offset="0.213542" stop-color="#FB8A76"/>
            <stop offset="1" stop-color="#EE6A5D"/>
        </linearGradient>
    </defs>
</svg>
