<svg width="16" height="16" viewBox="0 0 16 16" fill="none" xmlns="http://www.w3.org/2000/svg">
<path d="M16 0L10.3234 15.7198C10.2851 15.8034 10.2236 15.8742 10.1462 15.9239C10.0688 15.9736 9.97873 16 9.88675 16C9.79478 16 9.70474 15.9736 9.62733 15.9239C9.54993 15.8742 9.48841 15.8034 9.45009 15.7198L6.39347 9.60653L0.280223 6.54991C0.19661 6.51159 0.125756 6.45007 0.0760813 6.37267C0.0264065 6.29526 0 6.20522 0 6.11325C0 6.02127 0.0264065 5.93123 0.0760813 5.85383C0.125756 5.77642 0.19661 5.7149 0.280223 5.67659L16 0Z" fill="#FB8A76"/>
</svg>
