<svg width="100" height="77" viewBox="0 0 100 77" fill="none" xmlns="http://www.w3.org/2000/svg">
<defs>
<linearGradient id="paint0_linear_650_18263" x1="7.80331" y1="32.3528" x2="80.0027" y2="92.3667" gradientUnits="userSpaceOnUse">
<stop stop-color="#F6F8FF"/>
<stop offset="1" stop-color="#DEE0ED"/>
</linearGradient>
<linearGradient id="paint1_linear_650_18263" x1="83.1118" y1="28.6625" x2="46.6576" y2="50.9058" gradientUnits="userSpaceOnUse">
<stop/>
<stop offset="1"/>
</linearGradient>
<linearGradient id="paint2_linear_650_18263" x1="49.8782" y1="0.666504" x2="49.0381" y2="54.5139" gradientUnits="userSpaceOnUse">
<stop stop-color="#FBCA92"/>
<stop offset="1" stop-color="#EF7EC2"/>
</linearGradient>
</defs>
<path d="M99.2229 70.5912L76.7787 41.1494C75.4375 39.3903 73.3543 38.3589 71.1427 38.3589H28.8552C26.6436 38.3589 24.5605 39.3903 23.2192 41.1494L0.777077 70.5912C-1.11043 73.0678 0.654777 76.6349 3.76936 76.6349H96.2306C99.3452 76.6329 101.11 73.0658 99.2229 70.5912Z" fill="url(#paint0_linear_650_18263)"/>
<path d="M2.04048 70.6526C1.44732 70.6526 0.896971 70.8279 0.434267 71.1275C-0.853965 73.5511 0.874549 76.6331 3.769 76.6331H96.2303C99.1247 76.6331 100.853 73.5511 99.565 71.1275C99.1023 70.8279 98.5519 70.6526 97.9588 70.6526H2.04048Z" fill="#C9CDD3"/>
<path d="M40.3661 53.4999L56.4242 70.6525H49.8607L35.6494 55.5647L40.3661 53.4999Z" fill="white"/>
<path d="M73.7703 38.8686C72.9448 38.5384 72.056 38.3611 71.1449 38.3611H62.9875L6.47847 63.1127L0.777221 70.5914C0.689572 70.7075 0.612115 70.8258 0.538734 70.944L73.7703 38.8686Z" fill="#FEE379"/>
<path d="M0.540367 70.944L35.6488 55.5647L49.8601 70.6525L0.540367 70.944Z" fill="#86ADFF"/>
<path d="M6.47787 63.1127L62.9868 38.3611H28.8548C26.6432 38.3611 24.56 39.3925 23.2188 41.1516L6.47787 63.1127Z" fill="#69CA9F"/>
<path d="M84.7908 51.6612L83.0562 49.3865L72.4894 54.0053L62.8114 43.6669L58.1579 45.7052L67.8318 56.0396L49.9984 63.8342L52.0408 65.9725L69.8457 58.1921L81.5112 70.6525H88.0726L74.5033 56.1558L84.7908 51.6612Z" fill="#C9CDD3"/>
<path opacity="0.3" d="M77.7586 42.4356L76.7781 41.1494C75.4369 39.3903 73.3537 38.3589 71.1421 38.3589H49.9984V54.527L77.7586 42.4356Z" fill="url(#paint1_linear_650_18263)"/>
<path d="M47.5858 0.828944C39.5099 1.90927 33.3358 8.38101 32.5836 16.4936C32.0659 22.0746 34.1735 27.1745 37.814 30.709C39.2164 32.0706 40.5189 33.524 41.7134 35.0568C45.1031 39.4046 47.4248 44.4882 48.6254 49.8674L49.5916 54.1968C49.6344 54.3905 49.8056 54.527 50.0033 54.527C50.201 54.527 50.3723 54.3905 50.4151 54.1968L51.4404 49.5943C52.6063 44.3639 54.8423 39.4168 58.1159 35.175C59.2839 33.6626 60.564 32.2378 61.9643 30.9271C65.3704 27.7371 67.5005 23.1998 67.5005 18.163C67.4984 7.70428 58.3259 -0.610126 47.5858 0.828944Z" fill="url(#paint2_linear_650_18263)"/>
<path d="M53.8362 23.3749C55.9544 21.2567 55.9544 17.8224 53.8362 15.7042C51.718 13.586 48.2837 13.586 46.1655 15.7042C44.0473 17.8224 44.0473 21.2567 46.1655 23.3749C48.2837 25.4931 51.718 25.4931 53.8362 23.3749Z" fill="white"/>

</svg>