<svg width="12" height="12" viewBox="0 0 12 12" fill="none" xmlns="http://www.w3.org/2000/svg">
<path d="M6.14479 7.42619L5.52246 7.19052C5.68913 6.75052 5.97246 6.27319 6.41913 5.77686L6.91479 6.22286C6.52046 6.66119 6.28113 7.06619 6.14479 7.42619Z" fill="#FB8A76"/>
<path fill-rule="evenodd" clip-rule="evenodd" d="M3.18767 0.333008C1.345 0.333008 0 2.21301 0 4.24101C0 8.76767 6 11.6663 6 11.6663C6 11.6663 12 8.58101 12 4.24101C12 2.21367 10.655 0.333008 8.81233 0.333008C7.534 0.333008 6.58567 1.17667 6 2.37334C5.41433 1.17667 4.466 0.333008 3.18733 0.333008H3.18767ZM3.66667 6.31934C3.66667 7.25501 4.714 7.55367 5.48033 7.30501C5.11433 8.38867 5.45433 9.23301 5.757 9.55967L6.246 9.10634C6.12467 8.97567 5.846 8.43501 6.07633 7.63234C6.47867 8.37801 8.33333 8.47201 8.33333 7.06567V3.33301C7.37267 4.14601 6.34633 4.46734 5.50167 4.73201C4.441 5.06401 3.66667 5.30634 3.66667 6.31934Z" fill="#FB8A76"/>
</svg>
