<svg width="254" height="262" viewBox="0 0 254 262" fill="none" xmlns="http://www.w3.org/2000/svg">
<g clip-path="url(#clip0_3138_1457)">
<path d="M159.73 227.255L181.453 231.673C181.174 232.812 180.835 233.978 180.389 235.222C176.505 246.504 166.842 261.711 157.25 257.85C149.525 254.707 151.501 239.179 159.73 227.255Z" fill="#00AEEF"/>
<path d="M112.855 229.538C119.782 242.259 120.155 257.904 112.045 260.229C102.098 263.063 94.1444 246.923 91.4187 235.301C91.1056 234.018 90.8987 232.815 90.7344 231.66L112.855 229.538Z" fill="#00AEEF"/>
<path d="M171.007 161.181C167.962 172.401 171.24 184.785 174.76 193.901C175.792 196.568 176.824 199.927 177.804 203.527L177.947 203.482C177.947 203.482 179.002 212.221 180.223 213.439C181.346 214.559 182.069 221.465 181.79 231.046H90.173C89.8942 221.465 92.7878 215.633 93.9106 214.513C95.0183 214.837 94.4155 212.77 94.6943 212.259C96.0055 209.546 97.0982 203.489 97.0982 203.489L97.2413 203.534C98.1758 199.935 99.2533 196.568 100.286 193.908C103.797 184.793 107.083 172.408 104.038 161.189C103.616 159.603 103.194 157.822 102.87 155.906C101.793 150.112 101.039 143.191 100.527 137.773C98.1833 143.191 95.0937 147.309 90.919 147.542C78.8697 148.143 79.3369 115.897 85.1468 109.818C90.9115 103.738 106.239 94.2548 106.239 94.2548L106.329 94.2999C108.296 90.8882 115.703 81.3068 137.541 81.1641C158.822 81.3068 166.41 90.4673 168.618 94.0669L168.897 94.2548C168.897 94.2548 184.224 103.746 189.989 109.818C195.754 115.897 196.221 148.143 184.224 147.534C180.049 147.301 176.96 143.191 174.616 137.765C173.87 144.964 172.74 154.734 171.007 161.181Z" fill="#726658"/>
<path d="M107.595 110.008C107.595 110.008 109.004 117.064 108.296 126.367C107.362 138.519 102.298 147.071 102.298 147.071L100.798 138.286C100.798 138.286 103.986 126.976 104.641 121.693" fill="#42362A"/>
<path d="M106.239 219.977C106.239 219.977 113.269 222.644 115.281 229.415H110.926" fill="#42362A"/>
<path d="M167.352 110.008C167.352 110.008 165.943 117.064 166.651 126.367C167.586 138.519 172.65 147.071 172.65 147.071L174.149 138.286C174.149 138.286 170.962 126.976 170.306 121.693" fill="#42362A"/>
<path d="M168.761 219.977C168.761 219.977 161.731 222.644 159.719 229.415H164.074" fill="#42362A"/>
<path opacity="0.75" d="M172.883 148.145C172.883 148.145 167.872 159.364 167.118 168.848C166.32 178.339 170.54 190.678 173.35 197.501C176.161 204.37 179.303 208.112 179.303 208.112C179.303 208.112 168.528 186.147 169.929 173.665C171.338 161.183 172.273 154.359 172.273 154.359" fill="white"/>
<path d="M105.628 171.23C105.628 171.23 106.563 228.02 164.918 228.02L162.906 229.515H111.491L97.7537 210.683L96.955 202.409C96.955 202.409 101.032 191.52 101.966 188.853" fill="#42362A"/>
<path opacity="0.55" d="M165.385 96.7266C165.807 97.5682 166.086 98.5 166.32 99.4845" stroke="white" stroke-width="2.4878" stroke-miterlimit="10" stroke-linecap="round" stroke-linejoin="round"/>
<path opacity="0.55" d="M148.28 86.0273C148.28 86.0273 158.965 87.7557 164.029 94.4439" stroke="white" stroke-width="2.4878" stroke-miterlimit="10" stroke-linecap="round" stroke-linejoin="round"/>
<path opacity="0.55" d="M190.32 129.168C190.275 130.288 190.23 131.272 190.042 131.971" stroke="white" stroke-width="2.4878" stroke-miterlimit="10" stroke-linecap="round" stroke-linejoin="round"/>
<path opacity="0.55" d="M182.581 108.047C182.581 108.047 186.937 110.617 188.301 113.518C189.19 115.434 190.079 121.325 190.313 126.135" stroke="white" stroke-width="2.4878" stroke-miterlimit="10" stroke-linecap="round" stroke-linejoin="round"/>
<path d="M106.194 94.2539C106.194 94.2539 90.8663 103.745 85.1016 109.817C79.3369 115.896 78.8697 148.142 90.8663 147.534C102.863 146.925 106.329 113.417 106.661 110.614" stroke="black" stroke-width="3.1098" stroke-miterlimit="10" stroke-linecap="round" stroke-linejoin="round"/>
<path d="M100.474 137.766C101.13 144.965 102.252 154.734 103.986 161.182C107.03 172.401 103.752 184.785 100.233 193.901C99.2006 196.659 98.0778 200.116 97.0906 203.858" stroke="black" stroke-width="3.1098" stroke-miterlimit="10" stroke-linecap="round" stroke-linejoin="round"/>
<path d="M131.719 220.172C131.719 220.172 122.073 216.114 118.456 224.38C115.517 231.068 111.975 234.45 111.749 236.253C111.523 238.057 111.222 244.895 116.497 246.624C119.662 247.676 125.464 249.404 125.464 249.404L128.78 256.694C128.78 256.694 129.684 259.173 130.965 258.422C132.849 257.37 140.083 253.763 140.083 253.763L149.05 256.393C149.05 256.393 153.572 257.67 154.928 253.838C156.284 250.005 159.977 240.988 159.977 240.988C159.977 240.988 166.985 227.461 156.284 223.478L131.719 220.172Z" fill="#EA8788" stroke="#000102" stroke-width="2.5503" stroke-miterlimit="10"/>
<path d="M129.835 213.258C129.835 213.258 120.189 209.2 116.572 217.466C113.633 224.154 112.201 232.345 111.975 234.149C111.749 235.952 112.201 238.883 115.894 240.687C118.833 242.114 123.354 243.317 123.354 243.317L126.971 249.779C126.971 249.779 128.252 252.259 129.156 251.508C130.89 250.23 138.274 246.849 138.274 246.849L147.166 249.404C147.166 249.404 151.688 250.681 153.044 246.849C154.401 243.016 158.319 232.045 158.319 232.045C158.319 232.045 162.464 224.455 152.969 220.472L129.835 213.258Z" fill="#F1A4A9" stroke="#000102" stroke-width="2.5503" stroke-miterlimit="10"/>
<path d="M136.843 225.13C136.843 225.13 135.562 221.523 131.568 221.748C127.649 221.974 125.615 225.656 126.293 228.812C127.047 231.969 131.869 239.108 131.869 239.108C131.869 239.108 139.706 238.807 144.077 234.448C148.448 230.09 144.755 221.448 136.843 225.13Z" fill="white"/>
<path opacity="0.35" d="M109.389 259.605C109.389 259.605 115.621 263.424 119.654 256.969C123.688 250.515 115.895 228.992 112.026 225.037L110.391 230.081C110.391 230.081 117.098 243.467 116.537 251.379C115.983 259.289 113.156 258.477 113.156 258.477" fill="#414042"/>
<path opacity="0.35" d="M163.268 259.228C163.268 259.228 155.528 263.43 151.495 256.975C147.462 250.521 156.008 228.991 159.877 225.036L161.179 230.087C161.179 230.087 154.472 243.473 155.033 251.385C155.587 259.295 158.414 258.483 158.414 258.483" fill="#414042"/>
<path d="M105.726 95.5176C105.726 95.5176 111.024 81.1719 138.061 81.1719" stroke="black" stroke-width="3.1098" stroke-miterlimit="10" stroke-linecap="round" stroke-linejoin="round"/>
<path d="M96.7745 204.881C96.7745 204.881 95.0032 213.831 93.9049 215.16C92.8066 216.488 88.7418 223.635 91.4675 235.256C94.1408 246.882 102.147 263.018 112.094 260.184C122.04 257.35 119.158 234.291 107.077 221.363" fill="#42362A"/>
<path d="M96.955 204.367C96.955 204.367 95.0032 213.83 93.9049 215.159C92.8066 216.487 88.7417 223.634 91.4675 235.255C94.1408 246.882 102.147 263.017 112.094 260.183C122.04 257.349 119.158 234.29 107.077 221.362" stroke="black" stroke-width="3.1098" stroke-miterlimit="10" stroke-linecap="round" stroke-linejoin="round"/>
<path d="M168.806 94.2539C168.806 94.2539 184.134 103.745 189.898 109.817C195.663 115.896 196.13 148.142 184.134 147.534C172.137 146.925 168.671 113.417 168.339 110.614" stroke="black" stroke-width="3.1098" stroke-miterlimit="10" stroke-linecap="round" stroke-linejoin="round"/>
<path d="M174.526 137.766C173.87 144.965 172.748 154.734 171.014 161.182C167.97 172.401 171.248 184.785 174.767 193.901C175.799 196.659 176.922 200.116 177.909 203.858" stroke="black" stroke-width="3.1098" stroke-miterlimit="10" stroke-linecap="round" stroke-linejoin="round"/>
<path d="M169.274 95.5176C169.274 95.5176 163.976 81.1719 136.939 81.1719" stroke="black" stroke-width="3.1098" stroke-miterlimit="10" stroke-linecap="round" stroke-linejoin="round"/>
<path d="M178.268 204.412C178.268 204.412 179.086 213.498 180.039 214.934C180.991 216.37 184.28 223.904 180.344 235.175C176.461 246.457 166.798 261.663 157.205 257.803C147.613 253.942 152.909 231.313 166.285 219.722" fill="#726658"/>
<path d="M177.962 203.992C177.962 203.992 179.086 213.496 180.039 214.932C180.991 216.368 184.28 223.901 180.344 235.173C176.461 246.454 166.798 261.661 157.205 257.801C147.612 253.94 152.909 231.311 166.285 219.72" stroke="black" stroke-width="3.1098" stroke-miterlimit="10" stroke-linecap="round" stroke-linejoin="round"/>
<path d="M146.358 131.04C146.358 134.309 142.794 136.976 138.393 136.976C133.985 136.976 130.428 134.309 130.428 131.04C130.428 127.771 133.992 126.223 138.393 126.223C142.794 126.223 146.358 127.718 146.358 131.04Z" fill="#393939"/>
<path d="M138.529 129.679C140.601 129.679 142.281 128.987 142.281 128.138C142.281 127.289 140.601 126.598 138.529 126.598C136.456 126.598 134.776 127.289 134.776 128.138C134.776 128.987 136.464 129.679 138.529 129.679Z" fill="white"/>
<path d="M161.263 158.666L158.686 164.137C157.277 166.805 152.266 166.474 149.078 164.227C146.546 162.454 143.547 155.067 141.347 151.512C141.437 151.512 141.535 151.512 141.626 151.512C141.626 151.512 141.294 151.136 140.782 150.67C140.405 150.159 140.028 149.784 139.749 149.641C139.327 149.453 138.86 149.408 138.438 149.453C138.016 149.408 137.549 149.408 137.127 149.641C136.795 149.784 136.471 150.152 136.095 150.67C135.582 151.091 135.251 151.512 135.251 151.512C135.341 151.512 135.439 151.512 135.529 151.512C133.329 155.067 130.33 162.446 127.798 164.227C124.61 166.474 119.599 166.797 118.19 164.137L115.613 158.666C115.613 158.666 115.003 168.856 123.02 169.555C131.694 170.307 135.115 154.037 138.393 154.037C141.581 154.037 145.145 170.352 153.765 169.555C161.829 168.901 161.263 158.666 161.263 158.666Z" fill="#42362A"/>
<path d="M146.358 131.04C146.358 134.309 142.794 136.976 138.393 136.976C133.985 136.976 130.428 134.309 130.428 131.04C130.428 127.771 133.992 126.223 138.393 126.223C142.794 126.223 146.358 127.718 146.358 131.04Z" stroke="black" stroke-width="3.1098" stroke-miterlimit="10" stroke-linecap="round" stroke-linejoin="round"/>
<path d="M119.223 137.586C119.223 137.586 112.049 164.226 121.332 165.999C131.875 167.961 132.018 149.407 138.205 149.407" stroke="black" stroke-width="3.1098" stroke-miterlimit="10" stroke-linecap="round" stroke-linejoin="round"/>
<path d="M124.332 125.007C126.193 125.007 127.708 123.504 127.708 121.64C127.708 119.784 126.2 118.273 124.332 118.273C122.47 118.273 120.956 119.776 120.956 121.64C120.956 123.504 122.47 125.007 124.332 125.007Z" fill="black"/>
<path d="M157.654 137.586C157.654 137.586 164.828 164.226 155.544 165.999C145.002 167.961 144.858 149.407 138.672 149.407" stroke="black" stroke-width="3.1098" stroke-miterlimit="10" stroke-linecap="round" stroke-linejoin="round"/>
<path d="M152.545 125.007C154.406 125.007 155.921 123.504 155.921 121.64C155.921 119.784 154.414 118.273 152.545 118.273C150.683 118.273 149.169 119.776 149.169 121.64C149.169 123.504 150.683 125.007 152.545 125.007Z" fill="black"/>
<path d="M138.483 148.43V137.586" stroke="black" stroke-width="3.1098" stroke-miterlimit="10" stroke-linecap="round" stroke-linejoin="round"/>
<path d="M130.94 159.598C134.218 165.534 142.749 165.534 145.981 159.598" stroke="black" stroke-width="3.1098" stroke-miterlimit="10" stroke-linecap="round" stroke-linejoin="round"/>
</g>
<path d="M107.987 40.716L107.739 40.0258C107.739 40.0258 101.496 18.4913 108.474 15.3925C114.77 12.6388 123.323 26.9475 124.997 29.8513C132.913 27.5928 141.324 27.638 149.24 30.0015C150.665 27.4954 159.467 12.5489 165.859 15.3476C172.845 18.3939 166.595 39.9807 166.595 39.9807L166.4 40.716C168.958 44.4001 172.89 50.2078 172.89 51.731C172.89 53.9444 168.463 55.565 168.463 55.565C168.463 55.565 178.15 64.2687 175.989 67.8103C174.511 70.2713 165.027 68.0055 165.027 68.0055C165.027 68.0055 166.505 72.6276 165.859 74.0532C165.514 74.7435 163.398 74.646 161.29 74.3983C161.29 74.3983 160.945 80.2957 162.618 83.0044C163.894 85.1203 168.763 93.5242 165.222 97.801H144.768H129.574H109.12C105.578 93.5242 110.448 85.0678 111.723 83.0044C113.344 80.3032 113.051 74.3983 113.051 74.3983C110.935 74.691 108.775 74.7435 108.482 74.0532C107.844 72.6276 109.315 68.0055 109.315 68.0055C109.315 68.0055 99.8231 70.2188 98.3525 67.8103C96.1915 64.2687 105.878 55.565 105.878 55.565C105.878 55.565 101.451 53.9444 101.451 51.731C101.496 50.2603 105.428 44.4076 107.987 40.716Z" fill="#F8BF8D"/>
<path d="M156.526 74.2773C156.526 74.2773 156.526 79.4396 161.688 79.9348V74.6225" fill="#AD8767"/>
<path d="M144.813 97.8516H165.267C164.284 99.0821 162.611 99.9675 159.955 100.26C150.516 101.438 145.549 100.553 144.813 97.8516Z" fill="#00AEEF"/>
<path d="M109.217 97.8516H129.671C128.935 100.553 123.968 101.438 114.529 100.26C111.873 99.9675 110.2 99.0821 109.217 97.8516Z" fill="#00AEEF"/>
<path d="M106.412 30.8359C106.412 30.8359 108.723 34.6252 111.184 37.1313C111.184 37.1313 109.706 40.6728 108.235 39.7349C106.757 38.8045 106.614 36.2908 106.614 36.2908" fill="#AD8767"/>
<path opacity="0.35" d="M145.75 61.0726C145.75 61.0726 144.52 62.4982 142.944 62.8883C141.421 63.2785 137.437 60.6749 137.437 60.6749L137.339 60.8249L137.242 60.6749C137.242 60.6749 133.257 63.2785 131.734 62.8883C130.211 62.4982 128.928 61.0726 128.928 61.0726L127.848 59.8945C127.848 60.1872 127.945 65.207 132.567 65.252C135.126 65.252 136.551 64.4641 137.339 63.6762C138.127 64.4641 139.553 65.252 142.111 65.252C146.733 65.1995 146.831 60.2397 146.831 59.8945L145.75 61.0726Z" fill="black"/>
<path opacity="0.35" d="M130.231 98.2852C130.863 106.408 122.337 105.43 115.714 104.265C109.337 103.166 108.505 98.2852 108.505 98.2852" fill="#414042"/>
<g opacity="0.35">
<path d="M143.804 98.2852C143.15 105.505 151.97 104.636 158.821 103.601C165.418 102.624 166.28 98.2852 166.28 98.2852" fill="#414042"/>
<path d="M129.548 101.286C129.147 105.716 131.014 109.165 139.268 105.413C140.018 104.663 141.156 106.939 143.804 106.539C150.401 105.562 150.523 101.286 150.523 101.286" fill="#414042"/>
</g>
<path opacity="0.35" d="M107.492 42.9297C107.492 42.9297 104.295 50.6955 105.428 52.3687C106.561 53.9894 108.13 53.2017 108.235 54.1846C108.332 55.1675 106.021 56.9908 106.021 56.9908C106.021 56.9908 105.924 55.2725 104.888 54.6798C103.808 54.087 100.461 51.3858 101.542 50.0052" fill="#231F20"/>
<path opacity="0.35" d="M101.249 62.0547C101.249 62.0547 98.9379 64.9059 101.001 65.7387C103.065 66.5716 108.97 64.7557 110.44 65.2434C111.919 65.7386 110.193 69.423 110.193 69.423C110.193 69.423 108.962 68.3425 108.715 68.3425C108.467 68.3425 99.0279 70.8033 98 68.2447" fill="#231F20"/>
<path d="M122.67 51.6397C124.298 51.6397 125.619 50.3191 125.619 48.6909C125.619 47.0627 124.298 45.7422 122.67 45.7422C121.042 45.7422 119.721 47.0627 119.721 48.6909C119.721 50.3191 121.042 51.6397 122.67 51.6397Z" fill="black"/>
<path d="M107.792 40.0263C107.792 40.0263 101.55 18.4918 108.528 15.393C114.823 12.6393 123.377 26.9481 125.05 29.8518" stroke="black" stroke-width="3.2765" stroke-miterlimit="10" stroke-linecap="round" stroke-linejoin="round"/>
<path d="M121.996 30.8852C131.63 27.2987 142.202 27.2987 151.844 30.8852" stroke="black" stroke-width="3.2765" stroke-miterlimit="10" stroke-linecap="round" stroke-linejoin="round"/>
<path d="M110.201 37.668C110.201 37.668 101.497 49.5156 101.497 51.7291C101.497 53.9426 105.924 55.5632 105.924 55.5632C105.924 55.5632 96.237 64.2669 98.3979 67.8535C99.8761 70.3145 109.36 68.0487 109.36 68.0487C109.36 68.0487 107.882 72.6708 108.527 74.0964C109.173 75.522 117.374 73.7062 117.374 73.7062" stroke="black" stroke-width="3.2765" stroke-miterlimit="10" stroke-linecap="round" stroke-linejoin="round"/>
<path d="M151.806 51.6397C153.434 51.6397 154.754 50.3191 154.754 48.6909C154.754 47.0627 153.434 45.7422 151.806 45.7422C150.177 45.7422 148.857 47.0627 148.857 48.6909C148.857 50.3191 150.177 51.6397 151.806 51.6397Z" fill="black"/>
<path d="M149.285 30.0445C150.71 27.5384 159.512 12.5918 165.904 15.3906C172.89 18.4369 166.64 40.0239 166.64 40.0239" stroke="black" stroke-width="3.2765" stroke-miterlimit="10" stroke-linecap="round" stroke-linejoin="round"/>
<path d="M164.283 37.668C164.283 37.668 172.987 49.5156 172.987 51.7291C172.987 53.9426 168.56 55.5632 168.56 55.5632C168.56 55.5632 178.247 64.2669 176.086 67.8535C174.608 70.3145 165.124 68.0487 165.124 68.0487C165.124 68.0487 166.602 72.6708 165.957 74.0964C165.319 75.522 157.11 73.7062 157.11 73.7062" stroke="black" stroke-width="3.2765" stroke-miterlimit="10" stroke-linecap="round" stroke-linejoin="round"/>
<path d="M143.237 53.7941C143.237 55.5648 140.581 58.9562 137.287 58.9562C133.993 58.9562 131.337 55.5648 131.337 53.7941C131.337 52.0233 133.993 51.8281 137.287 51.8281C140.581 51.8281 143.237 52.0308 143.237 53.7941Z" fill="black"/>
<path d="M128.831 59.5498C128.831 59.5498 129.566 62.6936 133.063 62.6936C137.49 62.6936 137.295 57.6289 137.295 57.6289" stroke="black" stroke-width="3.2765" stroke-miterlimit="10" stroke-linecap="round" stroke-linejoin="round"/>
<path d="M145.75 59.5498C145.75 59.5498 145.015 62.6936 141.518 62.6936C137.091 62.6936 137.286 57.6289 137.286 57.6289" stroke="black" stroke-width="3.2765" stroke-miterlimit="10" stroke-linecap="round" stroke-linejoin="round"/>
<path d="M137.242 53.6969C138.217 53.6969 139.012 53.3893 139.012 53.0066C139.012 52.624 138.217 52.3164 137.242 52.3164C136.266 52.3164 135.471 52.624 135.471 53.0066C135.471 53.3893 136.266 53.6969 137.242 53.6969Z" fill="white"/>
<path d="M123.136 73.9014C124.637 72.4008 130.264 73.5263 130.264 73.5263L123.886 91.5758L117.509 90.4503C117.509 90.4503 118.634 84.0308 119.76 81.0295C120.885 78.0282 121.635 75.4021 123.136 73.9014Z" fill="#AD8767"/>
<path d="M133.455 79.6893C133.455 79.6893 126.873 76.9126 124.405 82.5688C122.399 87.1453 119.983 89.4592 119.828 90.6933C119.674 91.9273 119.468 96.6066 123.068 97.7893C125.227 98.5091 129.187 99.6918 129.187 99.6918L131.449 104.68C131.449 104.68 132.066 106.376 132.94 105.862C134.226 105.142 139.162 102.674 139.162 102.674L145.281 104.474C145.281 104.474 148.367 105.348 149.292 102.726C150.218 100.103 152.737 93.9327 152.737 93.9327C152.737 93.9327 157.519 84.6771 150.218 81.9518L133.455 79.6893Z" fill="#EA8788" stroke="#000102" stroke-width="2.5503" stroke-miterlimit="10"/>
<path d="M132.168 74.9588C132.168 74.9588 125.587 72.1821 123.118 77.8384C121.113 82.4148 120.136 88.0196 119.982 89.2537C119.828 90.4878 120.136 92.4932 122.656 93.7272C124.661 94.7042 127.746 95.527 127.746 95.527L130.214 99.9491C130.214 99.9491 131.089 101.646 131.706 101.132C132.888 100.258 137.928 97.9437 137.928 97.9437L143.995 99.692C143.995 99.692 147.08 100.566 148.006 97.9437C148.931 95.3213 151.605 87.8139 151.605 87.8139C151.605 87.8139 154.433 82.6205 147.954 79.8952L132.168 74.9588Z" fill="#F1A4A9" stroke="#000102" stroke-width="2.5503" stroke-miterlimit="10"/>
<path d="M136.952 83.0826C136.952 83.0826 136.078 80.6144 133.352 80.7687C130.679 80.9229 129.29 83.4425 129.753 85.6022C130.267 87.7618 133.558 92.6467 133.558 92.6467C133.558 92.6467 138.906 92.4411 141.888 89.4587C144.871 86.4763 142.351 80.563 136.952 83.0826Z" fill="white"/>
<path d="M161.336 74.3984C161.336 74.3984 160.991 80.2958 162.664 83.0045C164.285 85.7057 171.908 98.7839 160.008 100.262C148.108 101.74 143.343 99.9696 145.106 95.3926C146.929 90.8231 155.776 90.3802 157.299 91.4607" fill="white"/>
<path d="M161.336 74.3984C161.336 74.3984 160.991 80.2958 162.664 83.0045C164.285 85.7057 171.908 98.7839 160.008 100.262C148.108 101.74 143.343 99.9696 145.106 95.3926C146.929 90.8231 155.776 90.3802 157.299 91.4607" fill="#F8BF8D"/>
<path d="M161.336 74.3984C161.336 74.3984 160.991 80.2958 162.664 83.0045C164.285 85.7057 171.908 98.7839 160.008 100.262C148.108 101.74 143.343 99.9696 145.106 95.3926C146.929 90.8231 155.776 90.3802 157.299 91.4607" stroke="black" stroke-width="3.2765" stroke-miterlimit="10" stroke-linecap="round" stroke-linejoin="round"/>
<path d="M113.148 74.3984C113.148 74.3984 113.493 80.2958 111.82 83.0045C110.147 85.7057 102.576 98.7839 114.476 100.262C126.377 101.74 131.141 99.9696 129.325 95.3926C127.51 90.8231 118.656 90.3802 117.133 91.4607" fill="#F8BF8D"/>
<path d="M113.148 74.3984C113.148 74.3984 113.493 80.2958 111.82 83.0045C110.147 85.7057 102.576 98.7839 114.476 100.262C126.377 101.74 131.141 99.9696 129.325 95.3926C127.51 90.8231 118.656 90.3802 117.133 91.4607" stroke="black" stroke-width="3.2765" stroke-miterlimit="10" stroke-linecap="round" stroke-linejoin="round"/>
<path d="M26.076 60.9456C26.076 60.9456 27.9159 50.2955 38.9759 49.1055C50.0359 47.9155 57.2759 56.9955 56.7459 66.0755C56.2159 75.1555 46.346 97.2456 46.346 97.2456C46.346 97.2456 24.626 100.006 10.536 90.1455C-3.55405 80.2855 2.38599 54.6356 26.076 60.9456Z" fill="#F1A4A9" stroke="#000102" stroke-width="4.3308" stroke-miterlimit="10"/>
<path d="M9.75594 68.9638C9.75594 68.9638 11.0758 65.1536 14.3658 65.5436C17.6558 65.9336 14.4959 70.4138 14.2359 70.9338C12.6559 74.2238 12.5259 77.3738 14.4959 80.9338C16.4659 84.3538 11.0759 85.6736 9.75594 82.7736C8.43594 79.8836 6.99594 74.7538 9.75594 68.9638Z" fill="white"/>
<path d="M51.7559 65.1562C51.7559 65.1562 36.7459 89.6162 25.5559 92.1162C25.5559 92.1162 36.0859 95.6661 42.8059 93.0361C42.7959 92.9061 51.0959 76.8562 51.7559 65.1562Z" fill="#EA8788"/>
<path d="M232.293 13.9788C232.293 13.9788 241.123 9.40868 248.063 16.8187C255.003 24.2287 252.483 34.6287 245.543 39.3487C238.603 44.0787 216.683 48.9588 216.683 48.9588C216.683 48.9588 202.643 34.6188 202.013 18.6988C201.383 2.78881 223.773 -6.98116 232.293 13.9788Z" fill="#F1A4A9" stroke="#000102" stroke-width="3.3318" stroke-miterlimit="10"/>
<path d="M217.313 6.40712C217.313 6.40712 220.943 5.3072 222.363 7.9872C223.783 10.6672 218.893 10.8272 218.263 10.9772C214.953 11.6072 212.583 13.3373 211.163 16.8073C209.743 20.2773 205.803 16.9672 207.223 14.2872C208.793 11.4572 211.473 7.51712 217.313 6.40712Z" fill="white"/>
<path d="M243.493 35.0977C243.493 35.0977 217.153 37.6177 209.113 30.8477C209.113 30.8477 212.263 40.4576 218.103 44.0876C218.103 43.9176 234.343 41.0777 243.493 35.0977Z" fill="#EA8788"/>
<path d="M214.101 165.464C214.101 165.464 219.621 162.624 224.041 167.354C228.461 172.084 226.881 178.544 222.461 181.534C218.041 184.524 204.321 187.684 204.321 187.684C204.321 187.684 195.491 178.544 195.011 168.614C194.541 158.694 208.741 152.234 214.101 165.464Z" fill="#F1A4A9" stroke="#000102" stroke-width="2.8872" stroke-miterlimit="10"/>
<path d="M204.791 160.582C204.791 160.582 207.001 159.792 207.941 161.522C208.891 163.252 205.731 163.252 205.421 163.412C203.371 163.882 201.791 164.832 200.851 167.032C199.901 169.242 197.381 167.192 198.331 165.462C199.431 163.892 201.011 161.372 204.791 160.582Z" fill="white"/>
<path d="M221.201 178.703C221.201 178.703 204.481 180.273 199.591 176.023C199.591 176.023 201.641 182.174 205.271 184.374C205.271 184.384 215.521 182.643 221.201 178.703Z" fill="#EA8788"/>
<path d="M53.6412 196.472C53.6412 196.472 54.5064 192.779 58.3981 192.662C62.1512 192.464 64.557 195.855 64.2344 198.949C63.9032 202.038 59.9059 209.568 59.9059 209.568C59.9059 209.568 52.3194 210.102 47.6099 206.28C42.8868 202.462 45.6221 193.659 53.6412 196.472Z" fill="#F1A4A9" stroke="#000102" stroke-width="2.8872" stroke-miterlimit="10"/>
<path d="M47.782 198.732C47.782 198.732 48.3547 197.423 49.4757 197.702C50.5882 197.976 49.4484 199.326 49.2882 199.603C48.6574 200.694 48.5886 201.752 49.1453 202.986C49.7019 204.221 47.8505 204.606 47.4237 203.446C47.1938 202.586 46.7339 200.864 47.782 198.732Z" fill="white"/>
<path d="M62.3496 198.414C62.3496 198.414 56.5503 206.542 52.7003 207.227C52.7003 207.227 56.2078 208.712 58.6653 207.939C58.7317 207.804 61.9495 202.561 62.3496 198.414Z" fill="#EA8788"/>
<defs>
<clipPath id="clip0_3138_1457">
<rect width="115" height="182" fill="white" transform="translate(80 80)"/>
</clipPath>
</defs>
</svg>
