<svg width="25" height="24" viewBox="0 0 25 24" fill="none" xmlns="http://www.w3.org/2000/svg">
    <path fill-rule="evenodd" clip-rule="evenodd"
          d="M12.9392 7L12.9412 5L19.9412 5.007L19.9332 12.007L17.9332 12.005L17.9372 8.417L14.8932 11.461C15.5853 12.4916 15.8694 13.7428 15.6903 14.9712C15.5112 16.1997 14.8816 17.3176 13.9241 18.1077C12.9665 18.8978 11.7493 19.3036 10.5092 19.2462C9.26911 19.1888 8.09466 18.6722 7.21422 17.797C6.33948 16.9243 5.81886 15.7586 5.75277 14.5248C5.68668 13.2909 6.0798 12.0763 6.85632 11.1151C7.63284 10.154 8.73775 9.51441 9.95794 9.31976C11.1781 9.12511 12.4272 9.38916 13.4642 10.061L16.5222 7.004L12.9392 7ZM8.62922 12.14C9.19201 11.5775 9.95521 11.2616 10.7509 11.2617C11.1449 11.2618 11.535 11.3395 11.899 11.4904C12.263 11.6413 12.5937 11.8623 12.8722 12.141C13.1508 12.4197 13.3717 12.7505 13.5224 13.1145C13.6731 13.4785 13.7506 13.8687 13.7505 14.2627C13.7504 14.6567 13.6727 15.0468 13.5218 15.4108C13.371 15.7748 13.1499 16.1055 12.8712 16.384C12.3069 16.9388 11.5461 17.2482 10.7547 17.2447C9.96331 17.2412 9.20534 16.9251 8.64592 16.3653C8.08649 15.8055 7.77095 15.0473 7.76801 14.2559C7.76507 13.4645 8.07497 12.704 8.63022 12.14H8.62922Z"
          fill="#989898"/>
</svg>
