<svg width="100" height="100" viewBox="0 0 100 100" fill="none" xmlns="http://www.w3.org/2000/svg">
<path d="M99.2229 81.5912L76.7787 52.1494C75.4375 50.3903 73.3543 49.3589 71.1427 49.3589H28.8552C26.6436 49.3589 24.5605 50.3903 23.2192 52.1494L0.777077 81.5912C-1.11043 84.0678 0.654777 87.6349 3.76936 87.6349H96.2306C99.3452 87.6329 101.11 84.0658 99.2229 81.5912Z" fill="url(#paint0_linear_650_18262)"/>
<path d="M2.04048 81.6526C1.44732 81.6526 0.896971 81.8279 0.434267 82.1275C-0.853965 84.5511 0.874549 87.6331 3.769 87.6331H96.2303C99.1247 87.6331 100.853 84.5511 99.565 82.1275C99.1023 81.8279 98.5519 81.6526 97.9588 81.6526H2.04048Z" fill="#C9CDD3"/>
<path d="M40.3661 64.4999L56.4242 81.6525H49.8607L35.6494 66.5647L40.3661 64.4999Z" fill="white"/>
<path d="M73.7703 49.8686C72.9448 49.5384 72.056 49.3611 71.1449 49.3611H62.9874L6.47847 74.1127L0.777221 81.5914C0.689572 81.7075 0.612115 81.8258 0.538734 81.944L73.7703 49.8686Z" fill="#FEE379"/>
<path d="M0.540367 81.944L35.6488 66.5647L49.8601 81.6525L0.540367 81.944Z" fill="#86ADFF"/>
<path d="M6.47787 74.1127L62.9868 49.3611H28.8548C26.6432 49.3611 24.56 50.3925 23.2188 52.1516L6.47787 74.1127Z" fill="#69CA9F"/>
<path d="M84.7908 62.6612L83.0562 60.3865L72.4894 65.0053L62.8114 54.6669L58.1579 56.7052L67.8318 67.0396L49.9984 74.8342L52.0408 76.9725L69.8457 69.1921L81.5112 81.6525H88.0726L74.5033 67.1558L84.7908 62.6612Z" fill="#C9CDD3"/>
<path opacity="0.3" d="M77.7586 53.4356L76.7781 52.1494C75.4369 50.3903 73.3537 49.3589 71.1421 49.3589H49.9984V65.527L77.7586 53.4356Z" fill="url(#paint1_linear_650_18262)"/>
<path d="M47.5858 11.8289C39.5099 12.9093 33.3358 19.381 32.5836 27.4936C32.0659 33.0746 34.1735 38.1745 37.814 41.709C39.2164 43.0706 40.5189 44.524 41.7134 46.0568C45.1031 50.4046 47.4248 55.4882 48.6254 60.8674L49.5916 65.1968C49.6344 65.3905 49.8056 65.527 50.0033 65.527C50.201 65.527 50.3723 65.3905 50.4151 65.1968L51.4404 60.5943C52.6063 55.3639 54.8423 50.4168 58.1159 46.175C59.2839 44.6626 60.564 43.2378 61.9643 41.9271C65.3704 38.7371 67.5005 34.1998 67.5005 29.163C67.4984 18.7043 58.3259 10.3899 47.5858 11.8289Z" fill="url(#paint2_linear_650_18262)"/>
<path d="M53.8362 34.3749C55.9544 32.2567 55.9544 28.8224 53.8362 26.7042C51.718 24.586 48.2837 24.586 46.1655 26.7042C44.0473 28.8224 44.0473 32.2567 46.1655 34.3749C48.2837 36.4931 51.718 36.4931 53.8362 34.3749Z" fill="white"/>
<defs>
<linearGradient id="paint0_linear_650_18262" x1="7.80331" y1="43.3528" x2="80.0027" y2="103.367" gradientUnits="userSpaceOnUse">
<stop stop-color="#F6F8FF"/>
<stop offset="1" stop-color="#DEE0ED"/>
</linearGradient>
<linearGradient id="paint1_linear_650_18262" x1="83.1118" y1="39.6625" x2="46.6576" y2="61.9058" gradientUnits="userSpaceOnUse">
<stop/>
<stop offset="1"/>
</linearGradient>
<linearGradient id="paint2_linear_650_18262" x1="49.8782" y1="11.6665" x2="49.0381" y2="65.5139" gradientUnits="userSpaceOnUse">
<stop stop-color="#FBCA92"/>
<stop offset="1" stop-color="#EF7EC2"/>
</linearGradient>
</defs>
</svg>
