<svg width="25" height="26" viewBox="0 0 25 26" fill="none" xmlns="http://www.w3.org/2000/svg">
    <path d="M22.4023 2.42828C21.2598 1.21042 19.7047 0.5 18.0544 0.5C16.4041 0.5 14.8807 1.17659 13.7065 2.42828L2.53519 14.3363C0.154938 16.8735 0.154938 21.0345 2.53519 23.5717C3.6777 24.7896 5.2328 25.5 6.8831 25.5C8.53341 25.5 10.0568 24.8234 11.231 23.5717L16.8167 17.6177L22.4023 11.6637C24.7826 9.12652 24.7826 4.99932 22.4023 2.42828ZM10.4693 22.7936C9.51724 23.8085 8.21604 24.3836 6.8831 24.3836C5.55017 24.3836 4.24896 23.8085 3.29686 22.7936C1.29746 20.6624 1.29746 17.2456 3.29686 15.1143L8.53341 9.53248C8.56514 9.56631 8.56514 9.60014 8.59688 9.63396L15.7059 17.2118L10.4693 22.7936ZM21.6406 10.9195L16.4358 16.4675L9.32682 8.88972C9.29509 8.85589 9.26335 8.85589 9.23161 8.82206L14.4682 3.24019C15.4203 2.2253 16.7215 1.6502 18.0544 1.6502C19.4191 1.6502 20.6885 2.2253 21.6406 3.24019C23.64 5.37145 23.64 8.78823 21.6406 10.9195Z"
          fill="white"/>
    <path d="M21.6406 10.9195L16.4358 16.4675L9.32682 8.88972C9.29509 8.85589 9.26335 8.85589 9.23161 8.82206L14.4682 3.24019C15.4203 2.2253 16.7215 1.6502 18.0544 1.6502C19.4191 1.6502 20.6885 2.2253 21.6406 3.24019C23.64 5.37145 23.64 8.78823 21.6406 10.9195Z"
          fill="white"/>
</svg>
