<svg xmlns="http://www.w3.org/2000/svg" viewBox="0 0 35.26 35.26"><g id="Layer_2" data-name="Layer 2"><g id="Layer_1-2" data-name="Layer 1"><circle cx="17.63" cy="17.63" r="17.63" fill="#61f1b3"/><rect x="12.73" y="4.22" width="10.05" height="26.56" rx="4.96" transform="translate(8.34 -5.58) rotate(23.23)" fill="#fff" stroke="#000" stroke-miterlimit="10" stroke-width="0.3"/><path d="M10.24,18.56h9.15a.45.45,0,0,1,.45.45v7a4.15,4.15,0,0,1-4.15,4.15H13.93A4.15,4.15,0,0,1,9.79,26V19A.45.45,0,0,1,10.24,18.56Z" transform="translate(10.81 -3.87) rotate(23.23)" fill="#55ba8a" stroke="#000" stroke-miterlimit="10" stroke-width="0.3"/><circle cx="17.81" cy="9.36" r="0.7"/><circle cx="23.52" cy="11.69" r="0.7"/><path d="M18.81,10.89a1.47,1.47,0,0,0,2.79.5" fill="none" stroke="#000" stroke-linecap="round" stroke-miterlimit="10" stroke-width="0.3"/><path d="M11,24.46l7-16.4a5,5,0,0,1,3.69-2.95A5,5,0,0,0,16.27,8L9.71,23.31a5,5,0,0,0,1.83,6.09A5,5,0,0,1,11,24.46Z" opacity="0.07"/></g></g></svg>