<svg width="18" height="4" viewBox="0 0 18 4" fill="none" xmlns="http://www.w3.org/2000/svg">
<path d="M15.6086 3.86744C15.3634 3.86751 15.1205 3.81928 14.8938 3.72549C14.6672 3.6317 14.4612 3.49418 14.2877 3.32079C14.1142 3.14741 13.9766 2.94155 13.8826 2.71497C13.7887 2.48838 13.7403 2.24552 13.7402 2.00024C13.7402 1.75495 13.7884 1.51206 13.8822 1.28541C13.976 1.05877 14.1135 0.852823 14.2869 0.679326C14.4603 0.505829 14.6661 0.368183 14.8927 0.274244C15.1193 0.180305 15.3622 0.131915 15.6074 0.131836C16.1028 0.131677 16.578 0.32831 16.9283 0.678478C17.2787 1.02865 17.4757 1.50366 17.4758 1.99904C17.476 2.49441 17.2794 2.96955 16.9292 3.31995C16.579 3.67034 16.104 3.86728 15.6086 3.86744Z" fill="#989898"/>
<path d="M9.19728 3.86721C10.2285 3.86721 11.0645 3.03124 11.0645 2.00001C11.0645 0.968786 10.2285 0.132812 9.19728 0.132812C8.16605 0.132812 7.33008 0.968786 7.33008 2.00001C7.33008 3.03124 8.16605 3.86721 9.19728 3.86721Z" fill="#989898"/>
<path d="M2.78615 3.86721C3.81737 3.86721 4.65335 3.03124 4.65335 2.00001C4.65335 0.968786 3.81737 0.132812 2.78615 0.132812C1.75492 0.132812 0.918945 0.968786 0.918945 2.00001C0.918945 3.03124 1.75492 3.86721 2.78615 3.86721Z" fill="#989898"/>
</svg>
