<svg width="24" height="24" viewBox="0 0 24 24" fill="none" xmlns="http://www.w3.org/2000/svg">
<path d="M11.9998 0C5.23999 0 0 4.9517 0 11.6398C0 15.1383 1.43367 18.161 3.76852 20.2496C3.86589 20.3357 3.9447 20.4408 4.00015 20.5584C4.05559 20.676 4.08651 20.8036 4.09102 20.9336L4.15641 23.0695C4.16125 23.2267 4.20462 23.3803 4.28271 23.5168C4.3608 23.6533 4.47123 23.7685 4.60428 23.8523C4.73733 23.9361 4.88893 23.9859 5.04576 23.9974C5.20259 24.0089 5.35984 23.9817 5.50369 23.9182L7.88534 22.8682C8.08717 22.7793 8.31351 22.7628 8.52612 22.8214C9.65824 23.1291 10.8266 23.2832 11.9998 23.2795C18.7595 23.2795 23.9995 18.3296 23.9995 11.6398C23.9995 4.9499 18.7595 0 11.9998 0ZM19.2056 8.95572L15.6807 14.5497C15.5481 14.7601 15.3733 14.9407 15.1674 15.0801C14.9615 15.2195 14.729 15.3148 14.4845 15.3599C14.2399 15.405 13.9887 15.399 13.7466 15.3421C13.5045 15.2853 13.2768 15.1789 13.0779 15.0297L10.2745 12.9267C10.1493 12.8329 9.99689 12.7824 9.8404 12.7828C9.68391 12.7833 9.53183 12.8348 9.40721 12.9294L5.62068 15.8019C5.11549 16.1853 4.45581 15.5805 4.7939 15.0438L8.31883 9.45131C8.45144 9.24095 8.62619 9.06036 8.83208 8.92091C9.03796 8.78146 9.2705 8.68618 9.51504 8.64109C9.75958 8.59599 10.0108 8.60205 10.2529 8.65889C10.495 8.71572 10.7227 8.8221 10.9216 8.97132L13.7253 11.074C13.8505 11.1678 14.0029 11.2183 14.1594 11.2179C14.3159 11.2174 14.468 11.1659 14.5926 11.0713L18.3788 8.19793C18.8843 7.81424 19.544 8.41903 19.2056 8.95572Z" fill="white"/>
</svg>
