<svg xmlns="http://www.w3.org/2000/svg" viewBox="0 0 46.8 37.95">
    <g id="Layer_2" data-name="Layer 2">
        <g id="Layer_1-2" data-name="Layer 1">
            <path d="M42.63,29.79H41.39v8.13h1.24Z"/>
            <path d="M42.12,33.91a4.29,4.29,0,1,0-4.32-4.29A4.3,4.3,0,0,0,42.12,33.91Z" fill="#acef78"/>
            <path d="M42.12,34.27a4.65,4.65,0,1,1,4.68-4.65A4.67,4.67,0,0,1,42.12,34.27Zm0-8.57a3.93,3.93,0,1,0,4,3.92A3.94,3.94,0,0,0,42.12,25.7Z"/>
            <path d="M39.73,37.62H7.46v-27A2.42,2.42,0,0,1,9.89,8.16H37.25a2.42,2.42,0,0,1,2.43,2.41V37.62Z"
                  fill="#fff"/>
            <path d="M39.73,38H7.12V10.57A2.76,2.76,0,0,1,9.88,7.82H37.25A2.75,2.75,0,0,1,40,10.57V38ZM7.79,37.28H39.34V10.57a2.09,2.09,0,0,0-2.09-2.08H9.88a2.09,2.09,0,0,0-2.09,2.08Z"/>
            <g opacity="0.15" style="isolation:isolate">
                <path d="M9.44,8.27S8,33.26,35.82,37.75H7.4V10.46S7,9.11,9.44,8.27Z" fill="#232533"/>
            </g>
            <path d="M5.19,29.79H4v8.13H5.19Z"/>
            <path d="M25.83,24.39H14a2,2,0,0,1-2-2V20.75a2,2,0,0,1,2-2H25.83a2,2,0,0,1,2,2v1.62A2,2,0,0,1,25.83,24.39Z"
                  fill="#d7d7ff"/>
            <path d="M25.83,24.76H14a2.4,2.4,0,0,1-2.41-2.39V20.75A2.4,2.4,0,0,1,14,18.36H25.83a2.4,2.4,0,0,1,2.41,2.39v1.62A2.4,2.4,0,0,1,25.83,24.76ZM14,19.09a1.67,1.67,0,0,0-1.68,1.66v1.62A1.67,1.67,0,0,0,14,24H25.83a1.68,1.68,0,0,0,1.68-1.66V20.75a1.68,1.68,0,0,0-1.68-1.66Z"/>
            <path d="M4.68,33.91A4.29,4.29,0,1,0,.36,29.62,4.3,4.3,0,0,0,4.68,33.91Z" fill="#acef78"/>
            <path d="M4.68,34.27a4.65,4.65,0,1,1,4.68-4.65A4.67,4.67,0,0,1,4.68,34.27Zm0-8.57a3.93,3.93,0,1,0,4,3.92A3.95,3.95,0,0,0,4.68,25.7Z"/>
            <path d="M26.6,28.42H20.92v8.95H26.6Z"/>
            <path d="M34.27,24.39H32.45a1.91,1.91,0,0,1-1.93-1.91V20.61a1.91,1.91,0,0,1,1.93-1.91h1.82a1.91,1.91,0,0,1,1.93,1.91v1.87A1.93,1.93,0,0,1,34.27,24.39Z"
                  fill="#d7d7ff"/>
            <path d="M34.27,24.76H32.45a2.26,2.26,0,0,1-2.29-2.28V20.61a2.26,2.26,0,0,1,2.29-2.28h1.82a2.26,2.26,0,0,1,2.3,2.28v1.87A2.3,2.3,0,0,1,34.27,24.76Zm-1.82-5.7a1.53,1.53,0,0,0-1.56,1.55v1.87A1.54,1.54,0,0,0,32.45,24h1.82a1.57,1.57,0,0,0,1.57-1.55V20.61a1.54,1.54,0,0,0-1.57-1.55Z"/>
            <path d="M24.06,14.86a7.17,7.17,0,1,0-7.22-7.17A7.2,7.2,0,0,0,24.06,14.86Z" fill="#fff"/>
            <path d="M24,.41a7.48,7.48,0,1,1,0,15,7.54,7.54,0,0,1-7.53-7.48A7.52,7.52,0,0,1,24,.41Zm4.17,9v-3H25.47V3.72H22.41V6.35H19.76v3h2.65V12h3.06V9.39Z"
                  fill="#fff"/>
            <path d="M28.12,6.35v3H25.47V12H22.41V9.39H19.76v-3h2.65V3.72h3.06V6.35Z" fill="#80b1ff"/>
            <path d="M24,15.74A7.87,7.87,0,1,1,24,0,7.91,7.91,0,0,1,31.9,7.88,7.91,7.91,0,0,1,24,15.74ZM24,.82a7.07,7.07,0,1,0,7.11,7.06A7.07,7.07,0,0,0,24,.82Z"/>
            <path d="M25.47,12.43H22.41A.42.42,0,0,1,22,12V9.8H19.76a.42.42,0,0,1-.41-.41v-3a.42.42,0,0,1,.41-.41H22V3.72a.42.42,0,0,1,.41-.41h3.06a.43.43,0,0,1,.42.41V5.94h2.23a.42.42,0,0,1,.41.41v3a.42.42,0,0,1-.41.41H25.89V12A.41.41,0,0,1,25.47,12.43Zm-2.65-.79h2.24V9.42A.42.42,0,0,1,25.47,9h2.24V6.79H25.47a.42.42,0,0,1-.41-.41V4.16H22.82V6.38a.42.42,0,0,1-.41.41H20.18V9h2.23a.42.42,0,0,1,.41.41Z"/>
        </g>
    </g>
</svg>