<svg width="30" height="30" viewBox="0 0 30 30" fill="none" xmlns="http://www.w3.org/2000/svg">
    <path d="M24.205 5.79502C24.6737 6.26384 24.937 6.89961 24.937 7.56252C24.937 8.22543 24.6737 8.8612 24.205 9.33002C24.7404 10.8252 24.8587 12.4379 24.5473 13.9952C24.2359 15.5525 23.5066 16.9956 22.4375 18.17L19.785 20.82C19.3019 21.4361 18.9703 22.1571 18.8168 22.9248C18.6633 23.6925 18.6922 24.4855 18.9013 25.24L4.76001 11.1C5.51432 11.3088 6.30711 11.3377 7.07459 11.1842C7.84207 11.0307 8.56279 10.6991 9.17876 10.2163L11.83 7.56252C13.0044 6.49341 14.4476 5.76408 16.0049 5.45271C17.5622 5.14133 19.1748 5.25967 20.67 5.79502C21.1388 5.32634 21.7746 5.06305 22.4375 5.06305C23.1004 5.06305 23.7362 5.32634 24.205 5.79502V5.79502Z"
          stroke="white" stroke-width="2.5" stroke-linecap="round" stroke-linejoin="round"/>
    <path d="M24.205 5.79502C24.6737 6.26384 24.937 6.89961 24.937 7.56252C24.937 8.22543 24.6737 8.8612 24.205 9.33002C24.7404 10.8252 24.8587 12.4379 24.5473 13.9952C24.2359 15.5525 23.5066 16.9956 22.4375 18.17L19.785 20.82C19.3019 21.4361 18.9703 22.1571 18.8168 22.9248C18.6633 23.6925 18.6922 24.4855 18.9013 25.24L4.76001 11.1C5.51432 11.3088 6.30711 11.3377 7.07459 11.1842C7.84207 11.0307 8.56279 10.6991 9.17876 10.2163L11.83 7.56252C13.0044 6.49341 14.4476 5.76408 16.0049 5.45271C17.5622 5.14133 19.1748 5.25967 20.67 5.79502C21.1388 5.32634 21.7746 5.06305 22.4375 5.06305C23.1004 5.06305 23.7362 5.32634 24.205 5.79502V5.79502Z"
          fill="white" fill-opacity="0.3" stroke="white" stroke-width="2.5" stroke-linecap="round"
          stroke-linejoin="round"/>
    <path d="M9.17873 15.5175L8.29498 16.4013C7.59165 17.1046 7.19653 18.0585 7.19653 19.0531C7.19653 20.0478 7.59165 21.0017 8.29498 21.705C8.9983 22.4083 9.9522 22.8035 10.9469 22.8035C11.9415 22.8035 12.8954 22.4083 13.5987 21.705L14.4825 20.8213"
          stroke="white" stroke-width="2.5" stroke-linecap="round" stroke-linejoin="round"/>
</svg>
