<svg xmlns="http://www.w3.org/2000/svg" viewBox="0 0 375 329">
    <defs>
        <clipPath id="clip-path">
            <rect x="214" y="78" width="69.6" height="64.2" fill="none"/>
        </clipPath>
    </defs>
    <g id="Layer_2">
        <g id="Layer_1-2">
            <rect width="375" height="329" fill="none"/>
            <path d="M118.4,215.8A18.4,18.4,0,1,0,100,197.4,18.4,18.4,0,0,0,118.4,215.8Z" fill="#f3acce"/>
            <g clip-path="url(#clip-path)">
                <path d="M241.9,89.8s-12.8-5.4-17.6,5.6c-3.9,8.9-8.6,13.4-8.9,15.8s-.7,11.5,6.3,13.8c4.2,1.4,11.9,3.7,11.9,3.7l4.4,9.7s1.2,3.3,2.9,2.3c2.5-1.4,12.1-6.2,12.1-6.2l11.9,3.5s6,1.7,7.8-3.4,6.7-17.1,6.7-17.1,9.3-18-4.9-23.3Z"
                      fill="#ea8788" stroke="#000102" stroke-miterlimit="10" stroke-width="2.55"/>
                <path d="M239.4,80.6s-12.8-5.4-17.6,5.6a95.79,95.79,0,0,0-6.1,22.2c-.3,2.4.3,6.3,5.2,8.7a67.81,67.81,0,0,0,9.9,3.5l4.8,8.6s1.7,3.3,2.9,2.3c2.3-1.7,12.1-6.2,12.1-6.2l11.8,3.4s6,1.7,7.8-3.4,7-19.7,7-19.7,5.5-10.1-7.1-15.4Z"
                      fill="#f1a4a9" stroke="#000102" stroke-miterlimit="10" stroke-width="2.55"/>
                <path d="M248.7,96.4a7.06,7.06,0,0,0-7-4.5,7.69,7.69,0,0,0-7,9.4c1,4.2,7.4,13.7,7.4,13.7s10.4-.4,16.2-6.2S259.2,91.5,248.7,96.4Z"
                      fill="#fff"/>
            </g>
            <path d="M218.4,293.8A29.4,29.4,0,1,0,189,264.4,29.4,29.4,0,0,0,218.4,293.8Z" fill="#fcea9f"/>
            <path d="M225.6,238.2s7.8,7.1,2.7,24.5S198,285.4,198,285.4s6.2,9.7,20.5,8.4,28-10.9,28-23.6S251.3,240.9,225.6,238.2Z"
                  fill="#e6cd8f"/>
            <path d="M218.4,295.44a31,31,0,1,1,31-31A31.08,31.08,0,0,1,218.4,295.44Zm0-58.8a27.76,27.76,0,1,0,27.76,27.76A27.79,27.79,0,0,0,218.4,236.64Z"
                  fill="#000102"/>
            <path d="M233.9,240.2s-6,11.6-.3,22.1c6.6,11.9,12.8,8,12.8,8" fill="none" stroke="#000102"
                  stroke-miterlimit="10" stroke-width="3.29"/>
            <path d="M207.5,291.7s3.6-12.5-4.2-21.7c-8.8-10.3-14.1-5.2-14.1-5.2" fill="none" stroke="#000102"
                  stroke-miterlimit="10" stroke-width="3.29"/>
            <path d="M122.9,181s4.9,4.4,1.7,15.3-19,14.2-19,14.2,3.9,6.1,12.8,5.3,17.5-6.8,17.5-14.8S138.9,182.6,122.9,181Z"
                  fill="#df96bb"/>
            <path d="M375,162.25v85c-10.3-3.64-15-9.6-16.1-11.25-.2-.28-.29-.44-.29-.44s-.18.16-.52.43a29.39,29.39,0,0,1-13.54,6l-.64.08-.35,0c-6.88.45-13-7.57-14.87-10.26-.27-.39-.45-.66-.53-.79-1.69.1-5.72.31-14.47.71h-.18c-21.8,1-29.8-2.3-29.5-12.6a24.56,24.56,0,0,1,.24-2.79.22.22,0,0,0,0-.08c0-.28.1-.57.15-.85s.12-.55.19-.82.11-.45.18-.68c2.1-7.25,8.6-11.87,21.53-14.08,15.7-2.7,32.4,4.6,32.4,4.6s1.3-4.6,8.4-13.9,22.8-7.8,22.8-7.8A51.05,51.05,0,0,1,375,162.25Z"
                  fill="#fff"/>
            <path d="M375,237.34v9.82c-5.13-2.22-10.56-6.43-16.1-11.13l-.29-.24-.52.23-13.54,6-.64.28-.35-.17L333.11,237l-4.42-5.13-.58-.67c-.17.95-6.67,1.08-14.42.59-10.17-.65-22.51-2.36-25.58-4.69-2.68-2-4.44-6.15-3.86-10.69a.22.22,0,0,0,0-.08,14.55,14.55,0,0,1,.34-1.67c0-.23.11-.45.18-.68a16.62,16.62,0,0,1,4.33-6.88c5.6-5.4,17.3-5.6,17.3-5.6l-.34.32c-1.76,1.74-9.56,10.11-3,16.18,7.4,6.8,33.3,5,33.3,5-.8,4.8,2.4,9.4,10.5,11.1s14-6.9,14-6.9C363,230.39,368,234.37,375,237.34Z"
                  fill="#eadfe7"/>
            <path d="M368.19,180.85c-4.62-.09-16.37.52-22.55,8.62a66.93,66.93,0,0,0-8,12.61c-4.8-1.82-18.45-6.29-31.67-4-15.93,2.72-23.5,9.41-23.84,21.07-.12,4.1,1,7.22,3.32,9.54,4.26,4.18,12.67,5.67,28.11,5,6.58-.3,10.51-.5,12.81-.62l.81,0c2.12,3.06,8.91,11.81,16.9,11a30.62,30.62,0,0,0,14.12-5.69c2.14,2.67,7.26,7.8,16.77,11v-4c-10.71-4-14.74-10.56-14.79-10.63a1.86,1.86,0,0,0-1.31-.9,1.83,1.83,0,0,0-1.52.45c-.06,0-5.95,5.21-13.67,6-4.95.53-10.12-4.86-12.78-8.42a2,2,0,0,0,.17-.91c-.07-1.86-1.85-1.81-3-1.78a2,2,0,0,0-.6.12c-1.81.1-5.71.3-14,.68-14.12.65-21.94-.55-25.34-3.9-1.61-1.58-2.31-3.74-2.22-6.8.28-9.72,6.33-15,20.21-17.43l.55-.1c14.95-2.57,31.19,4.41,31.35,4.48a1.83,1.83,0,0,0,1.52,0,1.89,1.89,0,0,0,1-1.16s1.38-4.5,8.09-13.29c6.38-8.36,21-7.09,21.15-7.08a1.84,1.84,0,0,0,1.39-.44,1.87,1.87,0,0,0,.64-1.3A52.82,52.82,0,0,1,375,166.75v-8.2C371.55,164.11,369,171.37,368.19,180.85Z"
                  fill="#382d2a"/>
            <path d="M137.58,329H0V254.47a38.52,38.52,0,0,1,18.19-2.18s31.4,2.3,33.5,40.5c0,0,15.7-1.5,22.8,7.8s8.4,13.9,8.4,13.9,16.7-7.3,32.4-4.6c12.93,2.21,19.43,6.83,21.53,14.08.07.23.13.45.18.68s.14.55.19.82.11.57.15.85a.22.22,0,0,0,0,.08A23.71,23.71,0,0,1,137.58,329Z"
                  fill="#fff"/>
            <path d="M137.43,329H117.16a9.28,9.28,0,0,0,1.33-1c6.6-6.07-1.2-14.44-3-16.18l-.34-.32s11.7.2,17.3,5.6a16.62,16.62,0,0,1,4.33,6.88c.07.23.13.45.18.68a14.55,14.55,0,0,1,.34,1.67.22.22,0,0,0,0,.08A13.42,13.42,0,0,1,137.43,329Z"
                  fill="#eadfe7"/>
            <path d="M115.6,308.07c-13.22-2.28-26.88,2.19-31.68,4a66.69,66.69,0,0,0-8-12.61c-6.18-8.1-17.94-8.71-22.55-8.62-3-36.49-32.89-40.18-35-40.39a40,40,0,0,0-18.44,2v4a37.61,37.61,0,0,1,17.86-2.36l.19,0c1.22.09,29.81,2.7,31.79,38.75a1.87,1.87,0,0,0,.64,1.3,1.84,1.84,0,0,0,1.38.44c.15,0,14.76-1.3,21.16,7.08C79.73,310.5,81.1,315,81.11,315a1.81,1.81,0,0,0,1,1.17,1.86,1.86,0,0,0,1.53,0c.16-.07,16.4-7.05,31.35-4.48l.55.1c13.75,2.46,19.82,7.62,20.2,17.19h3.7C139,317.43,131.46,310.78,115.6,308.07Z"
                  fill="#382d2a"/>
            <rect x="26" y="40" width="110.1" height="54.9" fill="none"/>
            <path d="M76.5,41.8S40.7,38.2,31.1,53.1s.6,24.6,18.3,28.5a12,12,0,0,1,2.4,12,10.1,10.1,0,0,0,10.3-8.7s24.3,1.9,41.5-.1,30.1-8.8,30.9-18.6C135.5,56.5,131.8,44.4,76.5,41.8Z"
                  fill="#a8dffc"/>
            <path d="M123.2,51.1s4.9,4.3,4.3,10.7-10.2,14.7-21.2,16.8S46.7,78,35,74.8l15.6,7.4,2,6.7-.8,4.6,8.3-3.2,2.1-5.5,17.6.9,31.4-1.5s18-6.5,19.5-9.2S143.7,57.4,123.2,51.1Z"
                  fill="#5798f2"/>
            <path d="M52.21,95h-.49L50,94.87l.51-1.67a10.71,10.71,0,0,0-1.8-10.35c-11.5-2.61-19-7.37-21.61-13.77C25,64.11,26,58.49,29.94,52.35,39.81,37,74.64,40.23,76.6,40.43c30.82,1.45,49.13,6,56,14,3.58,4.15,3.64,8.55,3.29,11.92-.83,10.12-13.13,17.73-32.12,19.83-15,1.74-35.48.53-40.58.19A11.32,11.32,0,0,1,52.21,95ZM67.29,42.81c-11,0-28.92,1.55-35,11C28.82,59.18,27.93,64,29.61,68,31.89,73.56,39,77.9,49.7,80.25l.37.09.28.26a13.11,13.11,0,0,1,3.23,11.49c2.26-.4,6.08-1.91,7.17-7.45L61,83.43l1.23.1c.24,0,24.37,1.87,41.23-.1,17.33-1.91,29-8.72,29.69-17.34.31-3,.24-6.54-2.63-9.87-6.34-7.37-24-11.63-54.06-13h-.08C76.25,43.16,72.55,42.81,67.29,42.81Z"
                  fill="#000102"/>
            <path d="M63.34,60.08a5.3,5.3,0,1,0-5.74,4.81A5.29,5.29,0,0,0,63.34,60.08Z" fill="#fdffff"/>
            <path d="M83.64,60.56a5.3,5.3,0,1,0-5.75,4.81A5.3,5.3,0,0,0,83.64,60.56Z" fill="#fdffff"/>
            <path d="M103.59,62.11a5.3,5.3,0,1,0-5.74,4.81A5.3,5.3,0,0,0,103.59,62.11Z" fill="#fdffff"/>
            <path d="M26.72,179.64,4.15,191.52,17.78,202.3,0,201.34V121.5a11.82,11.82,0,0,1,12.66,6.11l17.62,33.46a0,0,0,0,0,0,0l1.37,2.61A11.79,11.79,0,0,1,26.72,179.64Z"
                  fill="#ea505c"/>
            <path d="M26.84,179.67,4.27,191.55l13.64,10.77L0,201.35V188.7l24.74-13a11.83,11.83,0,0,0,5.55-14.59,0,0,0,0,1,0,0,12.08,12.08,0,0,0-.6-1.33l2.1,4A11.79,11.79,0,0,1,26.84,179.67Z"
                  fill="#232533" opacity="0.15" style="isolation:isolate"/>
            <path d="M32.42,163.3l-19-36.09A12.69,12.69,0,0,0,0,120.63v1.76A11,11,0,0,1,11.91,128l19,36.09c0,.07.07.13.1.2a11,11,0,0,1-4.68,14.58L3.75,190.76a.86.86,0,0,0-.13,1.44l11.51,9.09L0,200.48v1.72l17.74,1a.87.87,0,0,0,.45-.1.83.83,0,0,0,.4-.46.86.86,0,0,0-.27-1l-12.59-10L27.12,180.4A12.67,12.67,0,0,0,32.42,163.3Z"/>
            <path d="M171,329H156.48C167.13,325.14,169.78,326.9,171,329Z" fill="#fff"/>
            <path d="M153.2,329h7a21.56,21.56,0,0,1,5.94-1.08,4.44,4.44,0,0,1,3.34,1.08h2.83C170.56,325.56,167.24,323.36,153.2,329Z"
                  fill="#000102"/>
            <path d="M118.4,217.5a20.1,20.1,0,1,1,20.1-20.1A20.13,20.13,0,0,1,118.4,217.5Zm0-36.8a16.7,16.7,0,1,0,16.7,16.7A16.72,16.72,0,0,0,118.4,180.7Z"
                  fill="#000102"/>
        </g>
    </g>
</svg>