<svg width="74" height="31" viewBox="0 0 74 31" fill="none" xmlns="http://www.w3.org/2000/svg">
<path d="M64.3093 24.8418C64.6449 24.6841 67.689 23.1639 68.7801 19.8318C69.1102 18.8306 69.2624 17.6661 69.1102 16.3238C69.0203 15.5224 68.826 14.7577 68.5399 14.0315C67.9311 12.482 66.9078 11.1139 65.6021 9.97699C63.9829 8.56313 61.9272 7.50322 59.6936 6.88523C51.6065 4.64799 35.4489 8.2239 33.4849 8.67318C32.6781 6.20305 30.9268 0.896033 29.3974 3.2653C28.5447 4.58931 28.2659 6.96407 28.2127 9.12613C26.7127 8.73919 23.3789 8.09368 20.1532 8.92439C19.4252 9.11144 18.7045 9.3737 18.0095 9.73312C17.1935 10.1512 16.4141 10.705 15.7117 11.4202C15.3872 11.7521 15.0772 12.1189 14.7893 12.5242C14.7875 12.5242 14.7875 12.526 14.7875 12.526C14.1475 13.4246 13.6285 14.336 13.2141 15.2327C12.719 16.2981 12.3669 17.3471 12.1193 18.3391L12.1047 18.506C12.7813 18.5628 13.4397 18.7352 13.933 19.0543C14.032 19.1185 14.1108 19.19 14.1695 19.2634C14.9158 20.1968 12.642 21.8069 11.5032 21.8637C11.538 22.4579 11.7489 25.0105 12.7171 26.1401L12.6915 26.2905C13.8211 26.4849 15.323 26.5912 16.8927 26.5931H17.0651C16.8927 26.8828 16.7753 27.1744 16.7001 27.455C16.6158 27.7685 16.5864 28.0711 16.5993 28.3407C16.691 30.3579 34.2955 30.5413 36.6794 28.249C37.4349 27.5228 37.5358 26.6847 37.3212 25.8815C42.3055 25.8925 47.8876 25.8302 52.6977 25.5918C52.6738 26.3492 52.925 27.0937 53.5504 27.7906C57.5847 32.2834 73.4049 29.9636 73.5388 27.2404C73.7222 23.5233 67.887 23.3894 64.3093 24.8418ZM30.0392 12.2803C30.0392 12.2803 29.7348 6.59547 30.4372 6.22871C31.1395 5.86195 32.5772 11.8218 32.5772 11.8218C32.5772 11.8218 31.0185 11.6384 30.0392 12.2803Z" fill="#F4AE69"/>
<path d="M73.051 8.18368C72.952 10.7748 70.6047 13.2725 68.7397 13.9455L68.5399 14.0317C68.3712 13.6026 68.1713 13.1881 67.9402 12.7884C67.3424 11.7431 66.5465 10.7987 65.6021 9.97714L65.7397 9.9368C67.0673 9.47835 68.5436 8.51195 68.8131 6.46359C69.3174 2.60711 65.681 2.74098 64.6559 3.8541C63.7921 4.78934 63.5482 5.76307 63.5482 5.76307C63.5482 5.76307 63.1375 4.85166 63.1687 3.78072C63.2017 2.68227 63.706 1.41331 65.5966 0.784318C69.8896 -0.64238 73.2619 2.68044 73.051 8.18368Z" fill="#F4AE69"/>
<path d="M32.5772 11.8224C32.5772 11.8224 31.0185 11.639 30.0393 12.2809C30.0393 12.2809 29.7349 6.59609 30.4372 6.22933C31.1396 5.86257 32.5772 11.8224 32.5772 11.8224Z" fill="#DB8A42"/>
<path d="M20.1386 8.85875L20.1551 8.92474C19.4271 9.11179 18.7064 9.37405 18.0114 9.73347L18.0004 9.71328C18.0004 9.71328 15.5853 4.85371 15.0956 5.12878C14.6078 5.40385 15.7081 11.0593 15.7081 11.0593L15.7136 11.4206C15.3891 11.7525 15.0791 12.1192 14.7912 12.5245C14.7619 12.3613 13.1793 3.35368 14.2704 2.89889C16.2088 2.09202 19.13 6.65819 20.1386 8.85875Z" fill="#F4AE69"/>
<path d="M17.9963 9.71355L18.0073 9.73374C17.1913 10.1519 16.4119 10.7056 15.7095 11.4208L15.704 11.0596C15.704 11.0596 14.6037 5.40412 15.0915 5.12905C15.5812 4.85398 17.9963 9.71355 17.9963 9.71355Z" fill="#DB8A42"/>
<path d="M12.6921 26.2913C13.8639 26.4931 15.4336 26.5994 17.0657 26.5939C16.8933 26.8837 16.7759 27.1752 16.7007 27.4558C10.7776 28.3342 0.532101 27.8611 0.462417 26.3244C0.385397 24.6281 1.92946 21.6995 8.53114 21.848L8.71636 21.8407C8.8869 23.6378 10.1211 25.7357 12.1602 26.1887C12.3271 26.2254 12.5032 26.2602 12.6921 26.2913Z" fill="#F4AE69"/>
<path d="M8.71633 21.8411C8.64298 21.0599 8.76955 20.3374 9.1198 19.8295C9.44072 20.6785 10.6253 21.7458 11.2892 21.8558C11.3552 21.8668 11.4267 21.8705 11.5037 21.865C11.5386 22.4592 11.7494 25.0118 12.7177 26.1414L12.692 26.2918C12.5032 26.2606 12.3271 26.2258 12.1602 26.1891C10.121 25.7362 8.88687 23.6383 8.71633 21.8411Z" fill="#53565B"/>
<path d="M11.5029 21.8647C11.4259 21.8702 11.3544 21.8665 11.2884 21.8555C10.6245 21.7455 9.43992 20.6782 9.11901 19.8292C8.96863 19.4331 9.00529 19.0847 9.37021 18.9013C9.98637 18.5914 11.0702 18.4171 12.1044 18.507C12.7811 18.5639 13.4394 18.7362 13.9327 19.0553C14.0318 19.1195 14.1106 19.191 14.1693 19.2644C14.9156 20.1978 12.6417 21.8079 11.5029 21.8647Z" fill="#2F2E30"/>
<path d="M28.0294 24.0317C28.0294 24.0317 23.1093 23.0231 20.817 24.2463C18.9832 25.2237 17.4813 26.2415 16.8927 26.5935C15.323 26.5917 13.8211 26.4853 12.6915 26.2909L12.7171 26.1406C11.7489 25.011 11.538 22.4583 11.5032 21.8642C12.642 21.8073 14.9158 20.1972 14.1695 19.2638C14.1108 19.1905 14.032 19.1189 13.933 19.0548C13.4397 18.7357 12.7813 18.5633 12.1047 18.5065L12.1193 18.3396C12.3669 17.3475 12.719 16.2986 13.2141 15.2332L13.3901 15.2295C13.3901 15.2295 14.4207 13.6707 16.6213 13.9458C18.8219 14.2209 18.8604 15.7796 20.5713 15.9318C22.2822 16.0858 22.649 14.1897 25.1851 14.5876C27.7231 14.9856 27.5086 19.7828 27.8148 20.9747C28.1211 22.1667 28.0294 24.0317 28.0294 24.0317Z" fill="#53565B"/>
<path d="M14.6533 12.9143C14.6533 12.9143 16.3954 12.2266 17.7249 12.3641C19.0544 12.5016 19.8796 14.1283 21.4622 13.9449C23.0448 13.7615 23.1347 12.9583 25.0601 13.05C26.9856 13.1416 28.2693 13.8055 28.2693 13.8055L28.0639 8.78453C28.0639 8.78453 22.6542 8.21239 19.3754 8.96791C16.0965 9.72344 14.745 12.6575 14.745 12.6575" fill="#53565B"/>
<path d="M68.781 19.8324C66.8097 18.8183 62.0381 16.7608 58.6254 18.5616C54.2243 20.8832 52.9407 24.6132 52.9407 24.6132C52.9407 24.6132 46.8891 23.8173 43.3425 22.596C39.7978 21.3728 38.5746 22.2292 38.2079 22.4126C37.8411 22.596 38.1474 23.39 37.7201 24.184C37.291 24.9799 36.7408 24.1235 35.6406 23.2066C34.5403 22.2897 34.8465 22.1064 34.6631 20.4559C34.4797 18.8055 35.0904 16.7278 34.786 14.1605C34.4798 11.5932 33.4858 8.67377 33.4858 8.67377C35.4498 8.22449 51.6074 4.64858 59.6945 6.88582C61.9281 7.50381 63.9838 8.56372 65.6031 9.97758C66.9087 11.1145 67.932 12.4826 68.5408 14.0321C68.8269 14.7583 69.0212 15.523 69.1111 16.3244C69.2633 17.6667 69.1111 18.8312 68.781 19.8324Z" fill="#53565B"/>
<path d="M71.0027 10.1262C69.9739 11.6776 68.6921 12.446 67.9402 12.7889C67.3424 11.7437 66.5465 10.7992 65.6021 9.97769L65.7397 9.93735C67.0673 9.4789 68.5436 8.5125 68.8131 6.46414C69.3174 2.60766 65.681 2.74153 64.6559 3.85465C63.7921 4.78988 63.5482 5.76362 63.5482 5.76362C63.5482 5.76362 63.1375 4.85221 63.1687 3.78127L63.209 3.76846C63.209 3.76846 64.401 0.89673 68.4354 1.84297C72.4697 2.79105 72.5614 7.77164 71.0027 10.1262Z" fill="#53565B"/>
<path d="M11.6935 19.4012C12.3265 19.4012 12.8396 19.2115 12.8396 18.9776C12.8396 18.7436 12.3265 18.554 11.6935 18.554C11.0605 18.554 10.5474 18.7436 10.5474 18.9776C10.5474 19.2115 11.0605 19.4012 11.6935 19.4012Z" fill="white"/>
<path opacity="0.25" d="M1.34938 24.1837C1.34938 24.1837 0.738725 25.04 2.35797 25.6507C3.97722 26.2614 12.796 26.553 12.796 26.553L17.0595 26.5383C17.0595 26.5383 17.0284 26.8739 16.9074 26.9656C16.7863 27.0573 16.724 27.2718 16.051 27.3928C15.3779 27.5157 14.4317 27.6367 13.3919 27.6991C12.3522 27.7596 3.06215 28.4638 0.52417 26.4466" fill="#231F20"/>
<path opacity="0.25" d="M17.8217 26.2325C17.8217 26.2325 17.1798 27.1494 18.2196 27.7913C19.2593 28.4331 31.0562 28.9227 34.2048 27.9435C37.3534 26.966 37.0784 25.7117 37.0784 25.7117C37.0784 25.7117 38.1475 26.7515 36.376 28.2185C34.6028 29.6856 25.6795 29.8084 24.3646 29.7773C23.0498 29.7461 16.4793 28.9832 16.3564 28.3102" fill="#231F20"/>
<path opacity="0.25" d="M36.9077 24.4901C36.9077 24.4901 52.0366 24.3067 52.3116 24.1233C52.5867 23.9399 53.9162 22.8855 53.9162 22.8855C53.9162 22.8855 52.5409 25.0402 52.5409 25.1777C52.5409 25.3153 52.4492 25.682 52.4492 25.682L37.5495 25.7737" fill="#231F20"/>
<path opacity="0.25" d="M53.2744 26.6911C53.2744 26.6911 54.5581 28.8917 62.7185 28.8C70.8789 28.7083 73.3545 25.4074 73.4462 26.2785C73.5379 27.1496 74.1339 27.1037 73.1712 27.8372C72.2084 28.5708 61.6641 33.2011 54.1913 28.3874" fill="#231F20"/>
<path d="M68.7416 14.4045C68.5545 14.4045 68.3785 14.2889 68.3106 14.1018C68.2245 13.8635 68.3473 13.6012 68.5857 13.515C70.1958 12.9337 72.5009 10.6195 72.5944 8.16769C72.7026 5.33814 71.8297 3.01288 70.2031 1.79156C68.9635 0.859994 67.4213 0.663757 65.7415 1.22123C64.7934 1.53665 64.1571 2.05196 63.849 2.75431C63.6051 3.31362 63.5923 3.91508 63.6583 4.41937C63.8288 4.14247 64.0452 3.84177 64.3185 3.54652C64.9933 2.813 66.5447 2.41506 67.7788 2.99088C68.4647 3.31179 69.5705 4.19752 69.2661 6.52645C69.024 8.36392 67.8558 9.69342 65.8882 10.3719C65.6498 10.4544 65.3875 10.3279 65.305 10.0877C65.2225 9.84928 65.349 9.58706 65.5893 9.50454C67.2305 8.93973 68.1621 7.89627 68.3565 6.40539C68.5289 5.09056 68.1951 4.19569 67.3901 3.81976C66.5704 3.4365 65.4279 3.69137 64.9915 4.16633C64.2158 5.00621 63.992 5.86627 63.9902 5.87544C63.9425 6.06432 63.7812 6.20367 63.5868 6.22018C63.3924 6.23851 63.209 6.13033 63.1283 5.95245C63.0935 5.87543 62.2829 4.04347 63.0073 2.38571C63.4235 1.43581 64.2451 0.751781 65.4499 0.352013C67.3974 -0.295319 69.2807 -0.0440704 70.7514 1.05804C72.6237 2.46274 73.6268 5.06673 73.5076 8.20253C73.4031 10.8982 70.9917 13.6214 68.8938 14.3769C68.8461 14.3953 68.7929 14.4045 68.7416 14.4045Z" fill="black"/>
<path d="M23.7512 18.2464C24.3751 18.2464 24.8808 17.7407 24.8808 17.1168C24.8808 16.493 24.3751 15.9872 23.7512 15.9872C23.1273 15.9872 22.6216 16.493 22.6216 17.1168C22.6216 17.7407 23.1273 18.2464 23.7512 18.2464Z" fill="black"/>
<path d="M16.5979 17.6962C17.2217 17.6962 17.7275 17.1905 17.7275 16.5666C17.7275 15.9427 17.2217 15.437 16.5979 15.437C15.974 15.437 15.4683 15.9427 15.4683 16.5666C15.4683 17.1905 15.974 17.6962 16.5979 17.6962Z" fill="black"/>
<path d="M12.1227 18.7975C12.086 18.7975 12.0493 18.7938 12.0108 18.7828C11.7651 18.7223 11.6166 18.4729 11.6771 18.2272C12.2199 16.0541 13.1423 14.0461 14.4168 12.2582C18.4255 6.64489 26.0779 8.10097 28.3298 8.68045C28.5756 8.7428 28.7222 8.99399 28.6599 9.23789C28.5975 9.48362 28.3482 9.63033 28.1024 9.56798C25.9954 9.02517 18.8326 7.6535 15.165 12.79C13.9565 14.4844 13.0836 16.3879 12.5683 18.4472C12.5151 18.6581 12.3281 18.7975 12.1227 18.7975Z" fill="black"/>
<path d="M16.9282 27.0517C15.0211 27.0517 13.2533 26.9013 12.0613 26.6354C10.5741 26.3054 9.29595 25.1189 8.64495 23.463C8.06547 21.9886 8.10215 20.4977 8.74214 19.568C8.88518 19.3589 9.17125 19.3076 9.3803 19.4506C9.58936 19.5937 9.64068 19.8797 9.49765 20.0888C9.04286 20.749 9.04286 21.9702 9.49765 23.1274C10.0368 24.499 11.0692 25.4765 12.2594 25.7405C13.4165 25.9991 15.1696 26.1403 17.0639 26.1348H17.0657C17.3188 26.1348 17.5242 26.3384 17.5242 26.5914C17.5242 26.8445 17.3206 27.0499 17.0676 27.0517C17.0217 27.0517 16.9741 27.0517 16.9282 27.0517Z" fill="black"/>
<path d="M23.1039 21.4208C23.0691 21.4208 23.0324 21.4171 22.9957 21.4079C22.9462 21.3969 18.0005 20.2068 14.1146 19.719C13.8634 19.6878 13.6855 19.4586 13.7167 19.2074C13.7479 18.9561 13.9771 18.7764 14.2283 18.8095C18.1673 19.3046 23.1608 20.5039 23.2121 20.5167C23.4578 20.5754 23.6101 20.8229 23.5495 21.0705C23.4982 21.2796 23.3112 21.4208 23.1039 21.4208Z" fill="black"/>
<path d="M11.4354 22.3244C11.3584 22.3244 11.285 22.3189 11.2135 22.3079C10.2948 22.1557 8.75622 20.718 8.59301 19.6305C8.51783 19.1263 8.72507 18.7118 9.16518 18.4918C10.2545 17.9453 12.7521 17.7436 14.1824 18.6733C14.7216 19.0236 14.9068 19.5829 14.6794 20.1697C14.2815 21.1911 12.5302 22.3244 11.4354 22.3244ZM9.57778 19.3096C9.51727 19.3408 9.48056 19.3573 9.50073 19.493C9.59976 20.1532 10.8083 21.3103 11.3657 21.4038C11.9617 21.5028 13.5351 20.5823 13.8249 19.8359C13.889 19.6709 13.8835 19.57 13.6836 19.4417C12.5797 18.7228 10.4653 18.864 9.57778 19.3096Z" fill="black"/>
<path d="M14.788 12.985C14.5698 12.985 14.3754 12.8291 14.3369 12.6054C14.3332 12.5834 13.9261 10.2728 13.6602 7.93651C13.1302 3.28416 13.6052 2.679 14.093 2.47544C16.6199 1.42468 19.8328 7.09113 20.5534 8.66819C20.6598 8.89925 20.5571 9.17067 20.3279 9.27519C20.0968 9.38155 19.8254 9.27882 19.7209 9.04959C18.4904 6.36674 15.8662 2.83487 14.4927 3.30433C14.0764 3.98467 14.5514 8.54347 15.2409 12.4458C15.2849 12.6952 15.1181 12.9336 14.8687 12.9776C14.8411 12.9813 14.8137 12.985 14.788 12.985Z" fill="black"/>
<path d="M28.3884 14.2683C28.1573 14.2683 27.9574 14.0941 27.9336 13.8593C27.8988 13.5384 27.1121 5.96298 29.0119 3.01789C29.4887 2.27887 30.0076 2.17799 30.3579 2.22201C31.6635 2.39072 32.696 4.78566 33.9393 8.59446C34.086 9.04191 34.2015 9.39583 34.2676 9.55537C34.2731 9.57005 34.2786 9.58476 34.2822 9.59759C34.2987 9.64894 34.6765 10.8978 35.0561 12.7609C35.1074 13.0085 34.9461 13.2505 34.6985 13.3019C34.4509 13.3532 34.2089 13.1937 34.1575 12.9443C33.8109 11.2517 33.4607 10.0505 33.4112 9.88363C33.3323 9.68742 33.2204 9.3445 33.0682 8.87871C31.8524 5.1506 30.9007 3.2178 30.2405 3.13161C30.0737 3.1096 29.8811 3.36264 29.7821 3.51484C28.0565 6.19036 28.8358 13.687 28.8432 13.7621C28.8707 14.0134 28.6873 14.2408 28.4361 14.2664C28.4214 14.2664 28.4049 14.2683 28.3884 14.2683Z" fill="black"/>
<path d="M30.0406 12.5562C29.9984 12.5562 29.9563 12.547 29.9159 12.5268C29.8279 12.4828 29.7711 12.3948 29.7656 12.2958C29.7656 12.2811 29.6886 10.8489 29.6996 9.39103C29.7216 6.66784 30.0058 6.14519 30.3102 5.98565C30.4276 5.92514 30.5614 5.9233 30.688 5.98014C31.4637 6.33223 32.4539 10.1392 32.8445 11.7585C32.8665 11.8465 32.8427 11.9382 32.7821 12.006C32.7216 12.0739 32.6336 12.1069 32.5438 12.0977C32.5291 12.0959 31.0712 11.9345 30.1892 12.5122C30.1452 12.5415 30.092 12.5562 30.0406 12.5562ZM30.5211 6.53212C30.2515 7.01991 30.191 9.51941 30.2937 11.8355C30.9759 11.5439 31.7608 11.5128 32.221 11.5238C31.6691 9.31587 30.9154 6.95573 30.5211 6.53212Z" fill="black"/>
<path d="M15.7063 11.3348C15.5779 11.3348 15.4624 11.2431 15.4367 11.1129C14.2979 5.26303 14.7802 4.99348 14.9599 4.89078C15.0498 4.84127 15.1561 4.83029 15.2607 4.8633C15.9355 5.07051 17.5713 8.23933 18.2443 9.59268C18.3121 9.72838 18.2571 9.89342 18.1195 9.96127C17.9838 10.0291 17.8188 9.97408 17.7509 9.83654C16.8634 8.05042 15.7374 6.05711 15.246 5.51614C15.1855 6.29367 15.5504 8.8188 15.9758 11.0065C16.0052 11.1551 15.908 11.2999 15.7576 11.3293C15.7411 11.3329 15.7228 11.3348 15.7063 11.3348Z" fill="black"/>
<path d="M38.4155 26.3417C38.0542 26.3417 37.6892 26.3417 37.3206 26.3399C37.0676 26.3399 36.8622 26.1345 36.864 25.8796C36.864 25.6266 37.0694 25.423 37.3225 25.423C37.3225 25.423 37.3225 25.423 37.3243 25.423C43.3667 25.4395 48.5325 25.3387 52.6769 25.1333C52.9318 25.1205 53.1445 25.3148 53.1574 25.5679C53.1702 25.8209 52.9758 26.0355 52.7228 26.0484C48.8131 26.2427 44.0049 26.3417 38.4155 26.3417Z" fill="black"/>
<path d="M25.9856 30.3625C22.2648 30.3625 18.6962 30.0269 17.1943 29.4272C16.9413 29.3264 16.1711 29.0183 16.1399 28.3636C16.116 27.8373 16.2078 26.484 17.5739 25.2755C19.0318 23.9864 22.2061 22.6954 29.0535 23.8562C29.3029 23.8984 29.4717 24.1349 29.4295 24.3843C29.3873 24.6337 29.1526 24.8042 28.9013 24.7602C22.4115 23.66 19.4903 24.8061 18.1828 25.9632C17.1357 26.8893 17.044 27.8869 17.0568 28.2976C17.1063 28.36 17.4804 28.7322 19.4994 29.0476C24.8285 29.882 34.8007 29.4218 36.3612 27.9217C36.7848 27.5146 36.981 27.0561 36.9609 26.5207C36.8949 24.795 34.6686 22.9393 34.6466 22.9209C34.4504 22.7596 34.4229 22.4716 34.5843 22.2754C34.7456 22.0792 35.0336 22.0517 35.2298 22.2131C35.3343 22.2992 37.7953 24.3458 37.8778 26.484C37.9089 27.2854 37.6119 27.9914 36.9976 28.5837C35.7103 29.8178 30.7241 30.3625 25.9856 30.3625Z" fill="black"/>
<path d="M9.79402 28.3532C5.5506 28.3532 1.45205 27.9149 0.386612 27.0365C0.084035 26.7871 0.0106668 26.523 0.00333161 26.3452C-0.0425134 25.3494 0.386623 24.3133 1.17699 23.5046C2.17274 22.4868 4.25592 21.2912 8.53968 21.3902C8.79275 21.3957 8.99267 21.6048 8.98717 21.8597C8.98166 22.1091 8.77811 22.3071 8.52871 22.3071C8.52505 22.3071 8.52137 22.3071 8.5177 22.3071C4.56403 22.2191 2.69906 23.2589 1.82983 24.1464C0.975284 25.0193 0.903767 25.9142 0.91477 26.281C1.07064 26.5121 2.3873 27.1264 6.76825 27.3593C10.1553 27.539 13.9329 27.4033 16.6286 27.0035C16.8798 26.965 17.1127 27.1392 17.1494 27.3904C17.186 27.6416 17.0137 27.8746 16.7625 27.9112C14.7728 28.2046 12.2586 28.3532 9.79402 28.3532Z" fill="black"/>
<path d="M64.284 25.313C64.1098 25.313 63.9429 25.2122 63.8659 25.0435C63.7614 24.8124 63.8641 24.541 64.0934 24.4365C64.3061 24.3393 69.2922 22.0085 68.6558 16.3751C68.1864 12.2142 64.7058 8.74647 59.573 7.32711C51.5886 5.11921 35.4072 8.7043 33.5881 9.12057C33.3405 9.17559 33.0948 9.02336 33.0379 8.77579C32.9811 8.52823 33.1351 8.2825 33.3827 8.22565C35.2238 7.80388 51.6143 4.17479 59.8151 6.4432C65.3165 7.96526 69.0538 11.7301 69.5654 16.2724C70.2751 22.5605 64.7077 25.1645 64.4711 25.2727C64.4106 25.3002 64.3464 25.313 64.284 25.313Z" fill="black"/>
<path d="M62.4972 30.7677C58.7049 30.7677 54.964 30.0525 53.209 28.0977C52.4113 27.2083 52.1014 26.1868 52.2903 25.0627C52.989 20.8871 60.5259 16.6566 60.8468 16.4787C61.0668 16.3558 61.3474 16.4347 61.4703 16.6566C61.5932 16.8785 61.5143 17.1572 61.2924 17.2801C61.2172 17.3222 53.8215 21.4721 53.1943 25.2131C53.0531 26.0603 53.2805 26.803 53.8912 27.4833C56.6841 30.5934 66.1685 30.3111 70.9566 28.6093C72.5006 28.061 73.0654 27.5163 73.0801 27.2156C73.1222 26.3702 72.816 25.7284 72.1449 25.2534C70.4174 24.0321 66.8176 24.3127 64.4649 25.2718C64.4062 25.2975 64.342 25.3121 64.2778 25.3121C64.0248 25.3121 63.8194 25.1067 63.8194 24.8537C63.8194 24.6666 63.9313 24.5071 64.0908 24.4356C64.0963 24.4337 64.1018 24.4301 64.1073 24.4282C66.7388 23.3499 70.6631 23.084 72.673 24.5052C73.5954 25.1562 74.052 26.1098 73.9952 27.2614C73.9548 28.0995 73.0342 28.844 71.2628 29.473C69.1668 30.2212 65.8127 30.7677 62.4972 30.7677Z" fill="black"/>
<path d="M12.7191 26.5085C12.6165 26.5085 12.5138 26.4644 12.4404 26.3801C11.4061 25.1734 11.1824 22.6354 11.1384 21.8872C11.1256 21.6855 11.2814 21.5113 11.4832 21.5003C11.6812 21.4857 11.8591 21.6434 11.8701 21.8451C11.9508 23.2039 12.2937 25.0836 12.9961 25.9051C13.1281 26.0592 13.1098 26.2902 12.9557 26.4223C12.8879 26.4791 12.8035 26.5085 12.7191 26.5085Z" fill="black"/>
</svg>
