<svg width="20" height="16" viewBox="0 0 20 16" fill="none" xmlns="http://www.w3.org/2000/svg">
    <path d="M1.5 1.25V14.75C1.5 14.9489 1.42098 15.1397 1.28033 15.2803C1.13968 15.421 0.948912 15.5 0.75 15.5C0.551088 15.5 0.360322 15.421 0.21967 15.2803C0.0790178 15.1397 0 14.9489 0 14.75V1.25C0 1.05109 0.0790178 0.860322 0.21967 0.71967C0.360322 0.579018 0.551088 0.5 0.75 0.5C0.948912 0.5 1.13968 0.579018 1.28033 0.71967C1.42098 0.860322 1.5 1.05109 1.5 1.25ZM9.375 6.35938L7.5 6.96875V5C7.5 4.80109 7.42098 4.61032 7.28033 4.46967C7.13968 4.32902 6.94891 4.25 6.75 4.25C6.55109 4.25 6.36032 4.32902 6.21967 4.46967C6.07902 4.61032 6 4.80109 6 5V6.96875L4.125 6.35938C4.03213 6.3274 3.93377 6.31446 3.83579 6.32134C3.73781 6.32821 3.64222 6.35475 3.55473 6.39937C3.46723 6.44399 3.38962 6.50579 3.32652 6.58106C3.26343 6.65634 3.21615 6.74355 3.1875 6.8375C3.15541 6.931 3.14236 7.02999 3.14913 7.12861C3.15589 7.22724 3.18233 7.32351 3.22689 7.41176C3.27145 7.50001 3.33323 7.57844 3.40858 7.64243C3.48393 7.70643 3.57133 7.75469 3.66562 7.78437L5.54062 8.39375L4.37812 9.9875C4.32 10.0674 4.27826 10.1581 4.25528 10.2542C4.2323 10.3503 4.22854 10.45 4.24422 10.5476C4.2599 10.6452 4.29471 10.7387 4.34665 10.8227C4.39859 10.9068 4.46664 10.9798 4.54688 11.0375C4.70914 11.1525 4.91001 11.1992 5.10635 11.1676C5.30268 11.1361 5.4788 11.0288 5.59687 10.8688L6.75 9.275L7.90313 10.8688C8.0212 11.0288 8.19732 11.1361 8.39365 11.1676C8.58999 11.1992 8.79086 11.1525 8.95312 11.0375C9.03336 10.9798 9.10141 10.9068 9.15335 10.8227C9.20529 10.7387 9.2401 10.6452 9.25578 10.5476C9.27146 10.45 9.2677 10.3503 9.24472 10.2542C9.22174 10.1581 9.17999 10.0674 9.12188 9.9875L7.95938 8.39375L9.83437 7.78437C9.92867 7.75469 10.0161 7.70643 10.0914 7.64243C10.1668 7.57844 10.2285 7.50001 10.2731 7.41176C10.3177 7.32351 10.3441 7.22724 10.3509 7.12861C10.3576 7.02999 10.3446 6.931 10.3125 6.8375C10.2839 6.74355 10.2366 6.65634 10.1735 6.58106C10.1104 6.50579 10.0328 6.44399 9.94527 6.39937C9.85778 6.35475 9.76219 6.32821 9.66421 6.32134C9.56623 6.31446 9.46787 6.3274 9.375 6.35938ZM19.3125 6.8375C19.2839 6.74355 19.2366 6.65634 19.1735 6.58106C19.1104 6.50579 19.0328 6.44399 18.9453 6.39937C18.8578 6.35475 18.7622 6.32821 18.6642 6.32134C18.5662 6.31446 18.4679 6.3274 18.375 6.35938L16.5 6.96875V5C16.5 4.80109 16.421 4.61032 16.2803 4.46967C16.1397 4.32902 15.9489 4.25 15.75 4.25C15.5511 4.25 15.3603 4.32902 15.2197 4.46967C15.079 4.61032 15 4.80109 15 5V6.96875L13.125 6.35938C13.0321 6.3274 12.9338 6.31446 12.8358 6.32134C12.7378 6.32821 12.6422 6.35475 12.5547 6.39937C12.4672 6.44399 12.3896 6.50579 12.3265 6.58106C12.2634 6.65634 12.2161 6.74355 12.1875 6.8375C12.1554 6.931 12.1424 7.02999 12.1491 7.12861C12.1559 7.22724 12.1823 7.32351 12.2269 7.41176C12.2715 7.50001 12.3332 7.57844 12.4086 7.64243C12.4839 7.70643 12.5713 7.75469 12.6656 7.78437L14.5406 8.39375L13.3781 9.9875C13.32 10.0674 13.2783 10.1581 13.2553 10.2542C13.2323 10.3503 13.2285 10.45 13.2442 10.5476C13.2599 10.6452 13.2947 10.7387 13.3467 10.8227C13.3986 10.9068 13.4666 10.9798 13.5469 11.0375C13.7091 11.1525 13.91 11.1992 14.1063 11.1676C14.3027 11.1361 14.4788 11.0288 14.5969 10.8688L15.75 9.275L16.9031 10.8688C17.0212 11.0288 17.1973 11.1361 17.3937 11.1676C17.59 11.1992 17.7909 11.1525 17.9531 11.0375C18.0334 10.9798 18.1014 10.9068 18.1533 10.8227C18.2053 10.7387 18.2401 10.6452 18.2558 10.5476C18.2715 10.45 18.2677 10.3503 18.2447 10.2542C18.2217 10.1581 18.18 10.0674 18.1219 9.9875L16.9594 8.39375L18.8344 7.78437C18.9287 7.75469 19.0161 7.70643 19.0914 7.64243C19.1668 7.57844 19.2285 7.50001 19.2731 7.41176C19.3177 7.32351 19.3441 7.22724 19.3509 7.12861C19.3576 7.02999 19.3446 6.931 19.3125 6.8375Z"
          fill="#FBAB9C"/>
</svg>
