<svg width="16" height="8" viewBox="0 0 16 8" fill="none" xmlns="http://www.w3.org/2000/svg">
<path fill-rule="evenodd" clip-rule="evenodd" d="M14.8633 0.206738C14.9238 0.232594 14.9785 0.270121 15.0245 0.317169C15.0704 0.364218 15.1066 0.419864 15.131 0.480921C15.1554 0.541979 15.1675 0.607249 15.1667 0.672995C15.1658 0.738742 15.152 0.803673 15.126 0.864071L14.6667 0.666738L15.1267 0.864071L15.1253 0.866738L15.1233 0.871404L15.1167 0.887404L15.0907 0.943404C14.945 1.24545 14.7833 1.53943 14.606 1.82407C14.2506 2.39616 13.8383 2.93087 13.3753 3.42007L14.0207 4.06607C14.109 4.16085 14.1571 4.28622 14.1548 4.41575C14.1525 4.54529 14.1 4.66888 14.0084 4.76049C13.9168 4.85209 13.7932 4.90457 13.6637 4.90685C13.5341 4.90914 13.4088 4.86106 13.314 4.77274L12.6467 4.10607C12.1823 4.49709 11.6734 4.83206 11.1307 5.10407L11.7533 6.06074C11.8256 6.17195 11.8508 6.30734 11.8233 6.43711C11.7958 6.56689 11.7179 6.68042 11.6067 6.75274C11.4954 6.82505 11.3601 6.85023 11.2303 6.82272C11.1005 6.79522 10.987 6.71729 10.9147 6.60607L10.1887 5.49007C9.66866 5.66007 9.10666 5.7754 8.50066 5.81674V7.00007C8.50066 7.13268 8.44799 7.25986 8.35422 7.35362C8.26045 7.44739 8.13327 7.50007 8.00066 7.50007C7.86806 7.50007 7.74088 7.44739 7.64711 7.35362C7.55334 7.25986 7.50066 7.13268 7.50066 7.00007V5.81674C6.94356 5.77896 6.39298 5.67467 5.86066 5.50607L5.14466 6.60607C5.10886 6.66114 5.06255 6.70861 5.0084 6.74579C4.95424 6.78296 4.8933 6.8091 4.82904 6.82272C4.76478 6.83634 4.69847 6.83717 4.63389 6.82516C4.56931 6.81316 4.50773 6.78854 4.45266 6.75274C4.34145 6.68042 4.26352 6.56689 4.23601 6.43711C4.22239 6.37285 4.22156 6.30654 4.23357 6.24197C4.24558 6.17739 4.27019 6.1158 4.306 6.06074L4.91466 5.12607C4.36741 4.85694 3.85423 4.52347 3.386 4.13274L2.746 4.77274C2.65174 4.86386 2.52546 4.91432 2.39436 4.91324C2.26326 4.91217 2.13783 4.85964 2.04508 4.76698C1.95233 4.67432 1.89969 4.54894 1.89849 4.41784C1.89729 4.28674 1.94763 4.16041 2.03866 4.06607L2.65466 3.45007C1.99978 2.76419 1.44579 1.98865 1.00933 1.14674C0.965699 1.06143 0.923911 0.975184 0.883998 0.888071L0.877331 0.871404L0.874664 0.866738V0.864738H0.873331C0.820995 0.742826 0.819231 0.604451 0.868428 0.48124C0.917625 0.358029 1.01375 0.259407 1.13566 0.207071C1.25758 0.154735 1.39528 0.152972 1.5185 0.202169C1.64171 0.251366 1.74033 0.347493 1.79266 0.469404V0.470738L1.79733 0.480071L1.81666 0.522071C1.83444 0.560293 1.86222 0.61696 1.9 0.692071C2.36155 1.58501 2.97158 2.39297 3.704 3.0814C4.28133 3.61807 4.98866 4.11207 5.83466 4.4374C6.52584 4.70181 7.25997 4.83607 8 4.8334C8.75541 4.83607 9.50454 4.69606 10.208 4.42074C11.0493 4.0894 11.752 3.59207 12.3247 3.05474C13.0903 2.32773 13.72 1.46982 14.184 0.521404L14.2027 0.479404L14.2067 0.470738M14.8633 0.206738C14.7415 0.154671 14.604 0.153755 14.481 0.203004C14.358 0.252254 14.2596 0.348308 14.2073 0.470071L14.8633 0.206738Z" fill="#888888"/>
</svg>
