<svg width="24" height="24" viewBox="0 0 24 24" fill="none" xmlns="http://www.w3.org/2000/svg">
    <g clip-path="url(#clip0_518_12969)">
        <path d="M9.47145 8.3375C9.45768 8.25121 9.44034 8.16552 9.41946 8.08066C9.02684 6.5222 7.53006 5.55616 6.07518 5.9224C4.62069 6.28864 3.75978 7.84905 4.15241 9.40713C4.17413 9.49287 4.20013 9.57628 4.22845 9.65814C3.78112 10.1156 3.57201 10.8096 3.74853 11.5095C4.01002 12.5485 5.00827 13.1925 5.9778 12.9485C6.63114 12.784 7.41677 11.5856 7.49669 11.5658C7.57661 11.5456 8.83635 12.2284 9.4893 12.0639C10.4592 11.8195 11.033 10.7798 10.7711 9.74078C10.595 9.04089 10.0821 8.52838 9.47145 8.3375Z"
              stroke="#FB8A76" stroke-width="1.1639" stroke-miterlimit="10" stroke-linecap="round"
              stroke-linejoin="round"/>
        <path d="M4.10481 4.80806C4.64201 4.60034 4.84176 3.82231 4.55097 3.07028C4.26018 2.31825 3.58897 1.87699 3.05178 2.08471C2.51458 2.29243 2.31483 3.07046 2.60562 3.82249C2.89641 4.57452 3.56762 5.01577 4.10481 4.80806Z"
              stroke="#FB8A76" stroke-width="1.1639" stroke-miterlimit="10" stroke-linecap="round"
              stroke-linejoin="round"/>
        <path d="M2.49877 8.19223C2.976 7.86979 2.99695 7.0668 2.54555 6.3987C2.09415 5.73061 1.34135 5.45041 0.86411 5.77285C0.386875 6.0953 0.36593 6.89829 0.817329 7.56638C1.26873 8.23447 2.02153 8.51468 2.49877 8.19223Z"
              stroke="#FB8A76" stroke-width="1.1639" stroke-miterlimit="10" stroke-linecap="round"
              stroke-linejoin="round"/>
        <path d="M11.2594 4.45239C11.3197 3.64835 10.903 2.96163 10.3287 2.91854C9.75433 2.87546 9.23984 3.49233 9.17952 4.29636C9.11921 5.1004 9.53591 5.78712 10.1102 5.83021C10.6846 5.87329 11.1991 5.25642 11.2594 4.45239Z"
              stroke="#FB8A76" stroke-width="1.1639" stroke-miterlimit="10" stroke-linecap="round"
              stroke-linejoin="round"/>
        <path d="M7.16228 4.04078C7.73207 3.95675 8.09862 3.242 7.98098 2.44433C7.86335 1.64667 7.30608 1.06815 6.73629 1.15218C6.1665 1.2362 5.79995 1.95096 5.91758 2.74862C6.03522 3.54629 6.59248 4.12481 7.16228 4.04078Z"
              stroke="#FB8A76" stroke-width="1.1639" stroke-miterlimit="10" stroke-linecap="round"
              stroke-linejoin="round"/>
        <path d="M19.8572 20.2455C19.8855 20.1684 19.9123 20.0903 19.9347 20.0099C20.3416 18.5454 19.5633 17.0505 18.1964 16.6707C16.8295 16.2909 15.3918 17.1697 14.9849 18.6346C14.9625 18.7153 14.9453 18.7961 14.9298 18.8764C14.3479 19.0426 13.8514 19.5156 13.6686 20.1732C13.3975 21.1493 13.9163 22.1463 14.8275 22.3995C15.4414 22.5698 16.6475 21.9529 16.7231 21.9738C16.7987 21.9948 17.5135 23.1459 18.1274 23.3161C19.0386 23.5693 19.997 22.9833 20.2686 22.0069C20.4513 21.3493 20.2697 20.688 19.8572 20.2455Z"
              stroke="#FB8A76" stroke-width="1.10085" stroke-miterlimit="10" stroke-linecap="round"
              stroke-linejoin="round"/>
        <path d="M18.2786 13.6117C18.3916 12.8575 18.0465 12.1807 17.5078 12.0999C16.969 12.0192 16.4407 12.5652 16.3277 13.3194C16.2147 14.0735 16.5598 14.7504 17.0985 14.8311C17.6373 14.9118 18.1656 14.3659 18.2786 13.6117Z"
              stroke="#FB8A76" stroke-width="1.10085" stroke-miterlimit="10" stroke-linecap="round"
              stroke-linejoin="round"/>
        <path d="M14.1937 16.8622C14.7369 16.8207 15.1301 16.1707 15.0721 15.4103C15.014 14.6499 14.5267 14.0671 13.9835 14.1085C13.4403 14.15 13.0471 14.8 13.1051 15.5604C13.1631 16.3208 13.6505 16.9036 14.1937 16.8622Z"
              stroke="#FB8A76" stroke-width="1.10085" stroke-miterlimit="10" stroke-linecap="round"
              stroke-linejoin="round"/>
        <path d="M23.1449 17.8886C23.5709 17.256 23.5499 16.4966 23.098 16.1923C22.6462 15.888 21.9346 16.1541 21.5086 16.7867C21.0826 17.4192 21.1036 18.1787 21.5554 18.483C22.0073 18.7872 22.7189 18.5211 23.1449 17.8886Z"
              stroke="#FB8A76" stroke-width="1.10085" stroke-miterlimit="10" stroke-linecap="round"
              stroke-linejoin="round"/>
        <path d="M21.3897 14.7049C21.6665 13.9943 21.4795 13.2579 20.9719 13.0602C20.4643 12.8624 19.8284 13.2782 19.5515 13.9888C19.2747 14.6993 19.4618 15.4357 19.9694 15.6334C20.477 15.8312 21.1129 15.4155 21.3897 14.7049Z"
              stroke="#FB8A76" stroke-width="1.10085" stroke-miterlimit="10" stroke-linecap="round"
              stroke-linejoin="round"/>
    </g>
    <defs>
        <clipPath id="clip0_518_12969">
            <rect width="24" height="24" fill="white"/>
        </clipPath>
    </defs>
</svg>
