<svg viewBox="0 0 28 25" fill="none" xmlns="http://www.w3.org/2000/svg">
<path d="M27.4862 3.86075V16.296C27.4862 18.2823 25.8745 19.8961 23.8843 19.8961H17.6L9.48819 24.7392L11.6372 19.8961H3.85878C1.8725 19.8961 0.262695 18.2843 0.262695 16.296V3.86075C0.262695 1.87448 1.8725 0.260742 3.85878 0.260742H23.8843C25.8745 0.260742 27.4862 1.87448 27.4862 3.86075Z" fill="#FB8A76"/>
<path opacity="0.15" d="M27.4589 14.9451V16.3196C27.4589 18.3058 25.8471 19.9196 23.8569 19.9196H17.5707L9.45889 24.7627L11.6079 19.9196H3.83143C1.84516 19.9196 0.235352 18.3078 0.235352 16.3196V14.9451C0.235352 16.9313 1.84516 18.5451 3.83143 18.5451H23.8569C25.8471 18.5451 27.4589 16.9313 27.4589 14.9451Z" fill="#232533"/>
<path d="M9.48628 25C9.42353 25 9.36275 24.9784 9.31177 24.9333C9.2255 24.8569 9.2 24.7353 9.2451 24.6314L11.2314 20.1569H3.85882C1.73137 20.1569 0 18.4255 0 16.2961V3.86079C0 1.73137 1.73137 0 3.85882 0H23.8843C26.0157 0 27.749 1.73137 27.749 3.86079V16.2961C27.749 18.4255 26.0157 20.1569 23.8843 20.1569H17.6706L9.61961 24.9628C9.5804 24.9882 9.53334 25 9.48628 25ZM3.85882 0.523526C2.01961 0.523526 0.52353 2.02157 0.52353 3.86079V16.2961C0.52353 18.1372 2.01961 19.6333 3.85882 19.6333H11.6373C11.7255 19.6333 11.8078 19.6784 11.8569 19.7529C11.9059 19.8274 11.9118 19.9216 11.8765 20.002L10.0608 24.0922L17.4647 19.6726C17.5059 19.649 17.551 19.6353 17.598 19.6353H23.8843C25.7255 19.6353 27.2255 18.1373 27.2255 16.298V3.86275C27.2255 2.02157 25.7275 0.525489 23.8843 0.525489H3.85882V0.523526Z" fill="black"/>
<path d="M13.8784 14.3706C13.8764 14.3706 13.8706 14.3706 13.8686 14.3706C13.1804 14.3706 13.3666 14.4196 12.6353 14.6333C11.9 14.8471 10.5902 15.353 10.0823 13.7177C9.57449 12.0824 11.2941 11.4608 11.949 10.9216C12.5745 10.4039 12.5568 9.48236 13.8725 9.40393" fill="white"/>
<path d="M12.4314 9.28237C13.0866 9.28237 13.6177 8.41415 13.6177 7.34315C13.6177 6.27215 13.0866 5.40393 12.4314 5.40393C11.7762 5.40393 11.2451 6.27215 11.2451 7.34315C11.2451 8.41415 11.7762 9.28237 12.4314 9.28237Z" fill="white"/>
<path d="M10.3777 11.2879C10.9932 11.1867 11.3582 10.2895 11.193 9.28394C11.0277 8.27837 10.3947 7.54523 9.77918 7.6464C9.16365 7.74757 8.79866 8.64475 8.96395 9.65032C9.12923 10.6559 9.7622 11.389 10.3777 11.2879Z" fill="white"/>
<path d="M13.8687 14.3706C13.8706 14.3706 13.8765 14.3706 13.8785 14.3706C14.5687 14.3706 14.3785 14.4196 15.1118 14.6333C15.8471 14.8471 17.1569 15.353 17.6647 13.7177C18.1726 12.0824 16.4549 11.4608 15.8 10.9216C15.1745 10.4039 15.1902 9.48236 13.8726 9.40393C13.8726 9.40393 13.8726 9.40393 13.8706 9.40393" fill="white"/>
<path d="M15.3176 9.28237C15.9728 9.28237 16.5039 8.41415 16.5039 7.34315C16.5039 6.27215 15.9728 5.40393 15.3176 5.40393C14.6625 5.40393 14.1313 6.27215 14.1313 7.34315C14.1313 8.41415 14.6625 9.28237 15.3176 9.28237Z" fill="white"/>
<path d="M18.7888 9.63243C18.954 8.62686 18.5891 7.72966 17.9735 7.62849C17.358 7.52732 16.7251 8.26048 16.5598 9.26605C16.3945 10.2716 16.7595 11.1688 17.375 11.27C17.9905 11.3712 18.6235 10.638 18.7888 9.63243Z" fill="white"/>
</svg>
