<svg width="31" height="30" viewBox="0 0 31 30" fill="none" xmlns="http://www.w3.org/2000/svg">
<path d="M8 16.25C9.72589 16.25 11.125 14.8509 11.125 13.125C11.125 11.3991 9.72589 10 8 10C6.27411 10 4.875 11.3991 4.875 13.125C4.875 14.8509 6.27411 16.25 8 16.25Z" fill="#FB8A76" fill-opacity="0.7"/>
<path d="M1.75 21.6875C1.75 21.6875 3.5 17.75 8 17.75C12.5 17.75 14.25 21.6875 14.25 21.6875V23.75H1.75V21.6875Z" fill="#FB8A76" fill-opacity="0.7"/>
<path d="M29.25 21.6875C29.25 21.6875 27.5 17.75 23 17.75C18.5 17.75 16.75 21.6875 16.75 21.6875V23.75H29.25V21.6875Z" fill="#FB8A76" fill-opacity="0.7"/>
<path d="M15.5 14.375C17.5711 14.375 19.25 12.6961 19.25 10.625C19.25 8.55393 17.5711 6.875 15.5 6.875C13.4289 6.875 11.75 8.55393 11.75 10.625C11.75 12.6961 13.4289 14.375 15.5 14.375Z" fill="#FB8A76"/>
<path d="M23 21.3125C23 21.3125 20.9375 16.625 15.5 16.625C10.0625 16.625 8 21.3125 8 21.3125V23.75H23V21.3125Z" fill="#FB8A76"/>
<path d="M23 16.25C24.7259 16.25 26.125 14.8509 26.125 13.125C26.125 11.3991 24.7259 10 23 10C21.2741 10 19.875 11.3991 19.875 13.125C19.875 14.8509 21.2741 16.25 23 16.25Z" fill="#FB8A76" fill-opacity="0.7"/>
<path d="M8 16.25C9.72589 16.25 11.125 14.8509 11.125 13.125C11.125 11.3991 9.72589 10 8 10C6.27411 10 4.875 11.3991 4.875 13.125C4.875 14.8509 6.27411 16.25 8 16.25Z" fill="#FB8A76" fill-opacity="0.7"/>
<path d="M23 16.25C24.7259 16.25 26.125 14.8509 26.125 13.125C26.125 11.3991 24.7259 10 23 10C21.2741 10 19.875 11.3991 19.875 13.125C19.875 14.8509 21.2741 16.25 23 16.25Z" fill="#FB8A76" fill-opacity="0.7"/>
</svg>
