<svg width="53" height="62" viewBox="0 0 53 62" fill="none" xmlns="http://www.w3.org/2000/svg">
<path d="M7.48281 17.7711L7.32145 17.321C7.32145 17.321 3.25352 3.27692 7.80063 1.25595C11.9028 -0.53992 17.4767 8.79177 18.567 10.6855C23.7253 9.2126 29.2063 9.24206 34.3645 10.7835C35.2935 9.14908 41.0288 -0.598549 45.1945 1.22668C49.7465 3.21339 45.6736 17.2916 45.6736 17.2916L45.5465 17.7711C47.2138 20.1738 49.7758 23.9613 49.7758 24.9547C49.7758 26.3982 46.8911 27.4551 46.8911 27.4551C46.8911 27.4551 53.2033 33.1314 51.7951 35.441C50.8319 37.0461 44.6518 35.5684 44.6518 35.5684C44.6518 35.5684 45.615 38.5828 45.1945 39.5125C44.9696 39.9627 43.5908 39.8991 42.2169 39.7376C42.2169 39.7376 41.992 43.5836 43.0823 45.3501C43.9135 46.7301 47.0867 52.2108 44.7789 55H31.4505H21.5495H8.22111C5.91333 52.2108 9.08651 46.6958 9.9177 45.3501C10.9738 43.5885 10.7831 39.7376 10.7831 39.7376C9.40433 39.9284 7.99618 39.9627 7.8055 39.5125C7.3899 38.5828 8.34824 35.5684 8.34824 35.5684C8.34824 35.5684 2.16318 37.0118 1.20487 35.441C-0.203271 33.1314 6.1089 27.4551 6.1089 27.4551C6.1089 27.4551 3.22418 26.3982 3.22418 24.9547C3.25351 23.9956 5.81554 20.1787 7.48281 17.7711Z" fill="white"/>
<path d="M32 55H45C44.3753 55.8432 43.3118 56.4498 41.6236 56.6503C35.6244 57.4575 32.4674 56.8509 32 55Z" fill="#00AEEF"/>
<path d="M8 55H22C21.4967 56.8509 18.0968 57.4575 11.6361 56.6503C9.81803 56.4498 8.67278 55.8432 8 55Z" fill="#00AEEF"/>
<path d="M7 11C7 11 8.45283 13.5103 10 15.1705C10 15.1705 9.07076 17.5166 8.14623 16.8953C7.21698 16.2789 7.12734 14.6137 7.12734 14.6137" fill="#808285"/>
<path d="M39 40C39 40 39 42.7374 42 43V40.183" fill="#808285"/>
<path opacity="0.35" d="M32.317 30.8796C32.317 30.8796 31.5391 31.9439 30.5431 32.2352C29.5802 32.5266 27.0617 30.5826 27.0617 30.5826L27 30.6947L26.9383 30.5826C26.9383 30.5826 24.4198 32.5266 23.4569 32.2352C22.4941 31.9439 21.683 30.8796 21.683 30.8796L21 30C21 30.2185 21.0617 33.9664 23.9834 34C25.6008 34 26.502 33.4117 27 32.8235C27.498 33.4117 28.3992 34 30.0166 34C32.9383 33.9608 33 30.2577 33 30L32.317 30.8796Z" fill="black"/>
<path opacity="0.35" d="M21.9787 55C22.3852 59.8114 16.8998 59.232 12.6388 58.5423C8.53559 57.8912 8 55 8 55" fill="#414042"/>
<path opacity="0.35" d="M31.0213 55C30.6148 59.8114 36.1001 59.232 40.3612 58.5423C44.4644 57.8912 45 55 45 55" fill="#414042"/>
<path opacity="0.35" d="M7.46014 19C7.46014 19 5.14658 23.9706 5.96665 25.0415C6.78671 26.0789 7.92179 25.5747 7.99783 26.2038C8.06843 26.833 6.39571 28 6.39571 28C6.39571 28 6.3251 26.9002 5.57564 26.5208C4.79359 26.1414 2.37142 24.4125 3.15347 23.5288" fill="#231F20"/>
<path opacity="0.35" d="M3.24255 32C3.24255 32 1.64739 33.9348 3.07164 34.4999C4.4959 35.0651 8.57187 33.8329 9.58697 34.1638C10.6073 34.4999 9.41605 37 9.41605 37C9.41605 37 8.56666 36.2668 8.39575 36.2668C8.22484 36.2668 1.70954 37.9367 1 36.2005" fill="#231F20"/>
<path opacity="0.35" d="M14.1458 39C14.1458 39 15.5758 51.1221 34 51.1221L30.3452 55H21.9304C21.9304 55 20.7235 51.7043 18.4356 50.4758C16.1477 49.2473 13.2879 50.6386 13.2879 50.6386L11 44.4319L11.16 40.3912" fill="#231F20"/>
<path d="M17 25C18.1043 25 19 24.1043 19 23C19 21.8957 18.1043 21 17 21C15.8957 21 15 21.8957 15 23C15 24.1043 15.8957 25 17 25Z" fill="black"/>
<path d="M7.68439 17C7.68439 17 3.59108 3.20875 8.16652 1.22417C12.2943 -0.53938 17.9029 8.62434 19 10.484" stroke="black" stroke-width="2" stroke-miterlimit="10" stroke-linecap="round" stroke-linejoin="round"/>
<path d="M17 11C23.1327 9.66667 29.8625 9.66667 36 11" stroke="black" stroke-width="2" stroke-miterlimit="10" stroke-linecap="round" stroke-linejoin="round"/>
<path d="M9.1659 16C9.1659 16 3.30025 23.6902 3.30025 25.127C3.30025 26.5637 6.28363 27.6157 6.28363 27.6157C6.28363 27.6157 -0.244425 33.2652 1.21187 35.5932C2.20802 37.1907 8.59956 35.72 8.59956 35.72C8.59956 35.72 7.60339 38.7201 8.03826 39.6455C8.47312 40.5708 14 39.3922 14 39.3922" stroke="black" stroke-width="2" stroke-miterlimit="10" stroke-linecap="round" stroke-linejoin="round"/>
<path d="M36 25C37.1043 25 38 24.1043 38 23C38 21.8957 37.1043 21 36 21C34.8957 21 34 21.8957 34 23C34 24.1043 34.8957 25 36 25Z" fill="black"/>
<path d="M35 10.6083C35.93 9.00318 41.6718 -0.569928 45.8423 1.22262C50.3995 3.17377 46.322 17 46.322 17" stroke="black" stroke-width="2" stroke-miterlimit="10" stroke-linecap="round" stroke-linejoin="round"/>
<path d="M44.4622 16C44.4622 16 49.8767 23.6902 49.8767 25.127C49.8767 26.5637 47.1228 27.6157 47.1228 27.6157C47.1228 27.6157 53.1487 33.2652 51.8044 35.5932C50.8849 37.1907 44.985 35.72 44.985 35.72C44.985 35.72 45.9046 38.7201 45.5031 39.6455C45.1064 40.5708 40 39.3922 40 39.3922" stroke="black" stroke-width="2" stroke-miterlimit="10" stroke-linecap="round" stroke-linejoin="round"/>
<path d="M31 26.379C31 27.6211 29.2144 30 27 30C24.7856 30 23 27.6211 23 26.379C23 25.1369 24.7856 25 27 25C29.2144 25 31 25.1422 31 26.379Z" fill="black"/>
<path d="M21 30.1378C21 30.1378 21.5212 32 23.9995 32C27.1374 32 26.9991 29 26.9991 29" stroke="black" stroke-width="2" stroke-miterlimit="10" stroke-linecap="round" stroke-linejoin="round"/>
<path d="M32 30.1378C32 30.1378 31.5657 32 29.5004 32C26.8855 32 27.0008 29 27.0008 29" stroke="black" stroke-width="2" stroke-miterlimit="10" stroke-linecap="round" stroke-linejoin="round"/>
<path d="M27 26C27.5509 26 28 25.7772 28 25.5C28 25.2228 27.5509 25 27 25C26.4491 25 26 25.2228 26 25.5C26 25.7772 26.4491 26 27 26Z" fill="white"/>
<path opacity="0.35" d="M24 60.6131C23.7659 60.9634 23.5013 61.09 23.1349 60.9343C21.4657 60.1703 18 59.6254 18 59.6254C18 59.6254 20.1323 55.2895 20.3359 54.5547C20.5344 53.854 20.8702 52.3212 20.8702 52.3212L21.3384 52L23.5063 60.7687C23.6336 60.7395 23.7659 60.6763 24 60.6131Z" fill="#231F20"/>
<path d="M24.2025 43.3366C24.2025 43.3366 19.8952 41.5195 18.2799 45.2211C16.9675 48.216 15.3859 49.7304 15.2849 50.538C15.184 51.3456 15.0494 54.4079 17.405 55.1819C18.8183 55.653 21.4095 56.427 21.4095 56.427L22.8901 59.6911C22.8901 59.6911 23.2939 60.8016 23.866 60.4651C24.7073 59.994 27.9378 58.3787 27.9378 58.3787L31.9423 59.5565C31.9423 59.5565 33.9614 60.1286 34.5671 58.4124C35.1728 56.6962 36.8217 52.658 36.8217 52.658C36.8217 52.658 39.9513 46.6008 35.1728 44.8173L24.2025 43.3366Z" fill="#EA8788" stroke="#000102" stroke-width="2" stroke-miterlimit="10"/>
<path d="M23.3611 40.239C23.3611 40.239 19.0538 38.4218 17.4385 42.1234C16.1261 45.1184 15.4867 48.7864 15.3858 49.594C15.2848 50.4016 15.4867 51.714 17.1356 52.5217C18.448 53.161 20.4671 53.6995 20.4671 53.6995L22.0824 56.5935C22.0824 56.5935 22.6544 57.704 23.0583 57.3674C23.8322 56.7954 27.1301 55.2811 27.1301 55.2811L31.1009 56.4252C31.1009 56.4252 33.12 56.9973 33.7257 55.2811C34.3314 53.5649 36.0813 48.6518 36.0813 48.6518C36.0813 48.6518 37.9321 45.253 33.692 43.4695L23.3611 40.239Z" fill="#F1A4A9" stroke="#000102" stroke-width="2" stroke-miterlimit="10"/>
<path d="M26.4914 45.554C26.4914 45.554 25.9193 43.9387 24.1358 44.0397C22.3859 44.1407 21.4773 45.7896 21.7802 47.2029C22.1167 48.6163 24.2704 51.8131 24.2704 51.8131C24.2704 51.8131 27.7701 51.6785 29.7219 49.7268C31.6737 47.775 30.0247 43.9051 26.4914 45.554Z" fill="white"/>
<path d="M42.6458 40C42.6458 40 42.4243 43.8014 43.4983 45.5474C44.5386 47.2885 49.4319 55.7186 41.7934 56.6714C34.1548 57.6242 31.0965 56.4829 32.2283 53.5326C33.3987 50.5872 39.077 50.3017 40.0547 50.9982" fill="white"/>
<path d="M42.6458 40C42.6458 40 42.4243 43.8014 43.4983 45.5474C44.5386 47.2885 49.4319 55.7186 41.7934 56.6714C34.1548 57.6242 31.0965 56.4829 32.2283 53.5326C33.3987 50.5872 39.077 50.3017 40.0547 50.9982" stroke="black" stroke-width="2" stroke-miterlimit="10" stroke-linecap="round" stroke-linejoin="round"/>
<path d="M10.6078 40C10.6078 40 10.8453 43.8014 9.69367 45.5474C8.542 47.2885 3.33109 55.7186 11.5219 56.6714C19.7127 57.6242 22.9921 56.4829 21.7423 53.5326C20.4925 50.5872 14.3985 50.3017 13.3501 50.9982" fill="white"/>
<path d="M10.6078 40C10.6078 40 10.8453 43.8014 9.69367 45.5474C8.542 47.2885 3.33109 55.7186 11.5219 56.6714C19.7127 57.6242 22.9921 56.4829 21.7423 53.5326C20.4925 50.5872 14.3985 50.3017 13.3501 50.9982" stroke="black" stroke-width="2" stroke-miterlimit="10" stroke-linecap="round" stroke-linejoin="round"/>
</svg>