<svg width="227" height="189" viewBox="0 0 227 189" fill="none" xmlns="http://www.w3.org/2000/svg">
<g clip-path="url(#clip0_4948_56737)">
<path d="M183.27 98.0503C191.384 104.921 195.551 113.154 187.267 114.759C179.69 116.224 167.871 106.58 158.721 97.536C161.566 93.076 163.849 87.7972 165.563 81.5762H165.567C171.224 87.468 179.772 95.0879 183.27 98.0503Z" fill="white"/>
<path d="M187.478 115.603C187.461 115.607 187.449 115.607 187.432 115.611C180.962 116.862 171.093 110.986 158.097 98.1494C157.755 97.812 157.755 97.2607 158.093 96.9192C158.432 96.5777 158.985 96.5777 159.328 96.9151C171.708 109.151 181.313 115.027 187.098 113.908C187.11 113.904 187.127 113.904 187.139 113.899C189.229 113.488 190.463 112.62 190.806 111.32C191.545 108.51 188.291 103.445 182.704 98.7131C179.405 95.9235 170.725 88.209 164.936 82.1772C164.601 81.8316 164.614 81.2803 164.965 80.947C165.316 80.6138 165.865 80.6261 166.199 80.9758C171.943 86.9582 180.565 94.6193 183.84 97.3924C188.758 101.556 193.614 107.522 192.499 111.764C192.132 113.134 190.967 114.912 187.478 115.603Z" fill="black"/>
<path d="M58.2908 153.538C58.2908 153.538 61.9824 173.303 65.4016 178.208C68.8207 183.112 73.2102 182.059 76.9968 179.331C81.3657 176.179 78.9046 165.252 77.7319 158.154C76.5591 151.057 74.416 141.211 72.1118 133.571C69.8076 125.93 67.2226 122.894 63.0974 123.935C58.9721 124.98 51.9522 124.309 58.2908 153.538Z" fill="#E3E3E3" fill-opacity="0.72" stroke="#000102" stroke-width="2" stroke-miterlimit="10" stroke-linecap="round"/>
<path d="M88.0311 155.608L73.3553 157.83C73.3553 157.83 69.8041 156.838 69.1392 151.041C68.4744 145.244 72.2404 144.207 72.2404 144.207L86.6189 142.043L88.0311 155.608Z" fill="white" stroke="#000102" stroke-width="2" stroke-miterlimit="10" stroke-linecap="round"/>
<path d="M80.0282 135.949C79.128 143.421 80.1604 150.995 82.7619 158.056C84.5086 162.783 86.9408 168.367 89.7901 172.139C95.6042 179.85 101.835 177.974 103.801 177.591C105.771 177.213 187.516 160.557 187.516 160.557C187.516 160.557 201.948 155.283 195.465 128.909C188.982 102.532 179.236 100.335 170.296 102.285C161.356 104.235 91.9745 117.821 91.9745 117.821C91.9745 117.821 82.1301 118.483 80.0282 135.949Z" fill="white" stroke="#000102" stroke-width="2" stroke-miterlimit="10" stroke-linecap="round"/>
<path d="M115.586 119.104C111.82 119.866 111.085 122.141 109.962 125.827C108.752 129.814 107.335 138.417 110.292 148.037C114.661 162.211 116.395 167.375 124.571 166.157C133.986 164.762 167.463 159.084 180.586 156.142C184.741 155.212 188.337 152.468 190.088 148.572C190.997 146.556 191.492 144.091 191.005 141.232C189.44 132.052 187.71 115.179 184.34 111.419C180.97 107.658 172.633 107.72 171.151 108.008C169.929 108.246 130.848 116.01 115.586 119.104Z" fill="#E56981" stroke="#000102" stroke-width="2" stroke-miterlimit="10" stroke-linecap="round"/>
<path d="M81.1836 139.24C83.5828 136.776 87.2331 133.879 92.0397 133.27C97.2303 132.612 101.017 134.978 104.147 136.381C112.435 140.1 118.645 128.625 137.174 125.387C146.209 123.807 149.302 123.128 151.548 122.042C153.898 120.903 154.274 119.281 156.132 119.105C159.865 118.751 160.769 123.425 167.331 126.297C171.134 127.963 174.251 127.889 176.96 127.827C178.769 127.786 180.247 127.547 181.598 126.58C182.836 125.696 183.489 124.548 183.823 123.82C185.909 124.371 188.539 124.877 191.595 125.046C194.964 125.231 197.88 124.947 200.155 124.564L200.601 118.635L189.811 117.031C189.811 117.031 184.406 106.72 179.31 105.103C174.214 103.486 98.5063 118.389 98.5063 118.389C98.5063 118.389 88.3935 121.121 86.6633 123.161C82.0012 128.601 81.1836 139.24 81.1836 139.24Z" fill="#EFE3E6" fill-opacity="0.28"/>
<path d="M190.72 143.844C190.72 143.844 186.112 139.186 184.414 130.443C182.717 121.7 184.807 115.08 184.807 115.08L200.288 115.792C200.288 115.792 204.306 116.528 205.194 119.384C206.081 122.239 207.7 128.818 207.506 133.052C207.316 137.29 204.979 137.405 203.637 138.335C202.307 139.265 190.72 143.844 190.72 143.844Z" fill="white" stroke="#000102" stroke-width="2" stroke-miterlimit="10" stroke-linecap="round"/>
<path d="M203.033 126.802L226.426 122.293" stroke="#000102" stroke-width="2" stroke-miterlimit="10" stroke-linecap="round"/>
<path d="M102.571 165.393C102.542 163.192 100.729 161.431 98.5199 161.459C96.3106 161.488 94.5515 163.298 94.5804 165.504C94.6093 167.705 96.4221 169.466 98.6314 169.437C100.828 169.4 102.6 167.594 102.571 165.393Z" fill="black"/>
<path d="M96.6782 128.297C96.6493 126.096 94.8365 124.335 92.6273 124.364C90.4181 124.392 88.6589 126.203 88.6879 128.408C88.7168 130.609 90.5295 132.37 92.7388 132.341C94.9438 132.304 96.7071 130.498 96.6782 128.297Z" fill="black"/>
<path d="M168.64 137.484C169.032 135.583 167.801 133.723 165.893 133.336C163.986 132.945 162.119 134.172 161.731 136.072C161.339 137.973 162.569 139.833 164.477 140.22C166.385 140.611 168.247 139.384 168.64 137.484Z" fill="white"/>
<path d="M158.192 146.884C158.399 145.872 157.746 144.885 156.73 144.675C155.714 144.469 154.723 145.119 154.513 146.131C154.306 147.143 154.959 148.131 155.975 148.341C156.99 148.546 157.981 147.896 158.192 146.884Z" fill="#FDFDFF"/>
<path d="M98.482 150.518C98.482 150.518 103.532 148.502 102.979 143.861C102.426 139.22 98.1641 139.368 98.1641 139.368" fill="white"/>
<path d="M98.482 150.518C98.482 150.518 103.532 148.502 102.979 143.861C102.426 139.22 98.1641 139.368 98.1641 139.368" stroke="#000102" stroke-width="2" stroke-miterlimit="10" stroke-linecap="round"/>
<path d="M177.469 21.8034C177.514 21.931 177.551 22.0873 177.576 22.2642C177.766 23.8318 176.911 27.0411 174.756 27.8352C172.352 28.7156 169.251 26.2758 168.776 24.9962C168.454 24.1239 169.07 23.0377 170.255 22.1531C170.812 21.7335 171.498 21.3632 172.266 21.0793C174.665 20.1988 176.994 20.5238 177.469 21.8034Z" fill="#5E4027"/>
<path d="M165.646 0.909534C165.646 0.909534 167.975 1.42795 166.939 3.49339C165.898 5.55471 164.973 13.2569 164.882 13.8905L164.816 14.5488C164.151 14.0057 163.466 13.549 162.772 13.1828C160.274 11.858 157.891 10.9981 155.637 10.4838L155.703 10.1793C155.707 10.1793 159.741 0.156595 165.646 0.909534Z" fill="#808082"/>
<path d="M174.102 34.8418C174.239 38.3555 174.197 42.186 174.016 46.1194C172.913 44.881 171.451 43.9347 169.733 43.6384C163.923 42.6345 156.206 49.2011 156.206 49.2011L155.826 49.5262C153.154 45.062 153.29 37.5985 153.29 37.5985L153.377 37.1541C158.568 40.4456 168.23 39.0467 174.102 34.8418Z" fill="white"/>
<path d="M168.099 49.3237C165.976 51.3151 162.095 54.0923 158.453 52.175C157.363 51.599 156.499 50.6609 155.822 49.5253L156.202 49.2003C156.202 49.2003 163.924 42.6337 169.73 43.6376C171.448 43.9338 172.914 44.8802 174.012 46.1186C176.638 49.0645 177.229 53.6768 174.363 55.1703C174.004 55.3596 173.657 55.4625 173.327 55.483C171.068 55.6723 169.511 52.3396 168.099 49.3237Z" fill="#F4A8E6"/>
<path d="M59.0378 87.4314C58.8354 87.5301 52.9511 90.4637 49.3668 88.2707C45.7205 86.0366 49.1273 82.8808 49.1273 82.8808C43.2016 78.1369 45.3159 71.4551 45.3159 71.4551C45.3159 71.4551 49.342 76.2155 56.8699 79.4617C63.002 82.1073 69.2951 80.5973 71.4135 79.9472C68.8161 82.815 67.8829 86.2547 67.7095 89.4598C60.4748 93.6154 57.5636 92.0724 57.0309 91.0109C56.4569 89.8671 58.8932 87.5672 59.0378 87.4314Z" fill="white"/>
<path d="M95.8387 116.888C95.5744 119.759 94.5462 122.463 92.3329 124.635C92.0851 124.878 91.825 125.112 91.5483 125.343C80.5394 134.427 53.8471 130.227 54.5284 121.413C55.3254 111.09 74.4196 115.246 78.4623 114.094C82.5049 112.942 69.9599 108.527 67.9572 94.357C67.7466 92.8758 67.6186 91.2054 67.7094 89.4608C67.8828 86.2516 68.8161 82.8119 71.4134 79.9483H71.4176C73.3212 77.8458 76.1168 76.0478 80.1595 74.8711C89.3184 72.205 99.8979 76.2988 99.8979 76.2988C99.8979 76.2988 99.0803 72.7974 100.889 71.7318C102.693 70.6662 108.19 72.0651 112.687 72.5958C117.179 73.1266 120.152 70.1766 120.152 70.1766C120.152 70.1766 116.192 70.5304 115.841 67.5968C115.482 64.5974 126.524 55.6814 126.524 55.6814C126.524 55.6814 121.994 56.8211 120.772 54.8051C118.596 51.2091 127.42 41.0835 127.42 41.0835C127.42 41.0835 122.791 43.6262 122.056 40.9601C120.788 36.3642 130.269 29.1722 130.269 29.1722L130.34 29.0817C127.148 26.6007 124.753 23.2557 124.393 20.318C123.906 16.2859 124.748 9.40245 127.42 12.0686C128.696 13.3441 131.042 15.1133 133.152 16.6191L133.263 16.471C134.3 15.1997 135.249 14.566 136.744 13.6156C136.744 13.6156 138.941 10.4516 139.42 7.99943C139.895 5.54724 141.175 3.95084 143.046 5.94222C143.644 6.57996 143.781 7.36993 143.686 8.15167C144.214 7.1354 144.945 6.222 145.903 6.22612C148.059 6.22612 148.03 8.98689 146.519 10.0566L146.523 10.1225L147.051 10.0608C149.632 9.72749 152.506 9.77275 155.628 10.4845C157.878 10.9988 160.265 11.8629 162.764 13.1836C163.457 13.5498 164.143 14.0065 164.808 14.5496C166.728 16.1213 168.516 18.4336 170.044 21.5153L170.242 22.153C169.057 23.0335 168.441 24.1197 168.763 24.9961C169.238 26.2757 172.344 28.7155 174.743 27.8351C176.903 27.041 177.757 23.8317 177.563 22.2641C178.872 24.309 179.236 28.3288 177.076 31.7561C176.461 32.7394 175.635 33.6734 174.565 34.4922C174.561 34.5004 174.553 34.5004 174.549 34.5045C174.396 34.6197 174.247 34.7349 174.09 34.8419C168.231 39.0468 158.568 40.4458 153.373 37.1542L153.287 37.5986C153.287 37.5986 153.146 45.0621 155.822 49.5263C156.499 50.6577 157.362 51.5999 158.452 52.176C162.099 54.0974 165.976 51.3202 168.099 49.3247C169.511 52.3405 171.064 55.6732 173.326 55.484V55.4881C172.757 61.2853 171.931 66.9385 170.964 71.8017C170.535 73.9577 170.048 76.0108 169.507 77.9775C167.793 84.1985 165.505 89.4773 162.664 93.9373C161.682 95.4802 160.633 96.9203 159.518 98.2698C163.243 102.911 167.033 107.334 169.007 109.543C176.089 117.468 179.07 126.198 170.642 126.643C163.651 127.009 154.476 117.85 147.01 108.519C143.814 110.259 140.333 111.67 136.567 112.806C134.494 113.431 130.93 114.287 126.499 115.081C117.976 116.612 106.257 117.916 95.8387 116.888Z" fill="white"/>
<path d="M165.828 15.4617C164.465 14.8487 160.208 13.0754 158.114 14.0135C155.599 15.1367 157.16 16.9059 156.045 17.6012C154.926 18.2925 151.536 13.6061 145.759 16.6343C139.978 19.6626 146.114 29.3068 145.437 32.3802C144.764 35.4537 142.587 40.0084 142.563 43.3534C142.534 46.6943 150.846 50.2821 153.774 55.4086C154.641 56.931 153.559 65.0199 150.388 69.0809C148.744 71.1833 145.561 73.5903 143.636 77.3385C141.873 80.7699 144.809 90.4059 137.199 94.5039L136.81 94.9359C136.81 94.9359 133.594 100.239 129.142 101.12C124.691 102 124.183 98.9968 124.183 98.9968C124.183 98.9968 122.585 102.148 115.462 103.465C108.338 104.782 107.434 104.251 104.692 103.905C101.954 103.56 96.4211 105.271 95.1368 105.082C93.8526 104.893 92.0439 99.5152 90.9744 98.8981C89.9008 98.285 92.7294 101.153 87.7535 100.005C82.7817 98.8569 81.0557 96.1291 81.0557 96.1291C81.0557 96.1291 82.2119 99.5646 77.1699 98.6677C72.128 97.7666 69.0805 97.2482 67.9614 94.3681C67.9325 94.1706 67.9077 93.969 67.883 93.7674C67.8251 92.5001 68.0234 89.5172 68.395 85.411C68.9566 83.506 69.9022 81.634 71.4177 79.9594H71.4218C73.3255 77.8569 76.1211 76.063 80.1637 74.8822C89.3227 72.216 99.9021 76.3099 99.9021 76.3099C99.9021 76.3099 99.0845 72.8085 100.893 71.7429C102.698 70.6773 108.194 72.0762 112.691 72.6069C117.184 73.1377 120.157 70.1876 120.157 70.1876C120.157 70.1876 116.197 70.5415 115.846 67.6079C115.486 64.6085 126.528 55.6925 126.528 55.6925C126.528 55.6925 121.998 56.8322 120.776 54.8162C118.6 51.2202 127.424 41.0946 127.424 41.0946C127.424 41.0946 122.795 43.6373 122.06 40.9711C120.793 36.3753 130.274 29.1833 130.274 29.1833L130.344 29.0928C127.152 26.6118 124.757 23.2668 124.398 20.3291C123.91 16.297 124.753 9.41354 127.424 12.0797C128.7 13.3552 131.046 15.1244 133.156 16.6302L133.267 16.4821C134.304 15.2108 135.254 14.5771 136.749 13.6267C136.749 13.6267 138.945 10.4627 139.424 8.01052C139.899 5.55833 141.179 3.96193 143.05 5.9492C143.649 6.58693 143.785 7.3769 143.69 8.15864C144.219 7.14238 144.949 6.22898 145.908 6.23309C148.063 6.23309 148.038 8.99387 146.523 10.0636L146.527 10.1294L147.055 10.0677C149.636 9.73446 152.51 9.77972 155.632 10.4915C157.883 11.0058 160.269 11.8698 162.768 13.1906C163.461 13.5568 164.147 14.0135 164.812 14.5566C165.159 14.8281 165.493 15.1367 165.828 15.4617Z" fill="#808082"/>
<path d="M45.7832 72.0762C45.7832 72.0762 46.2663 78.9843 51.8906 82.2182C51.8906 82.2182 49.0826 83.3044 50.7715 85.5427C52.4604 87.7809 60.8885 85.411 60.8885 85.411C60.8885 85.411 57.4239 88.575 62.0117 88.826C66.5994 89.0728 68.0736 87.0979 68.0736 87.0979C68.0736 87.0979 71.3069 79.6344 70.8939 79.8031C70.481 79.9717 62.1273 81.7985 55.0454 78.4083" fill="#808082"/>
<path d="M152.84 37.3965C152.84 37.3965 158.167 38.532 162.16 38.6308C166.153 38.7295 169.898 37.2812 169.898 37.2812L170.856 43.5928C170.856 43.5928 165.744 43.243 163.527 44.6255C161.309 46.0079 156.019 49.2378 156.019 49.2378C156.019 49.2378 152.497 47.9253 153.273 41.0912" fill="#FD9FA7"/>
<path d="M173.223 22.8251C174.087 22.6548 174.732 22.2402 174.664 21.8991C174.596 21.5581 173.841 21.4197 172.978 21.59C172.114 21.7604 171.469 22.1749 171.537 22.516C171.605 22.857 172.36 22.9954 173.223 22.8251Z" fill="white"/>
<path d="M127.515 15.916C127.515 15.916 126.999 18.0884 128.279 21.5569C129.563 25.0253 133.494 27.7985 134.291 27.3459C135.092 26.8933 135.699 24.8813 134.741 24.5398C133.783 24.1983 132.995 24.7085 133.065 23.8651C133.135 23.0216 133.263 21.8737 133.424 21.7832C133.585 21.6927 134.246 21.1496 134.246 21.1496" fill="white"/>
<path opacity="0.25" d="M95.5161 111.641C95.5161 111.641 108.272 113.143 122.039 110.193C135.806 107.243 142.674 103.877 142.674 103.877L146.877 108.012C146.877 108.012 139.998 113.978 121.663 116.06C103.329 118.142 95.0742 117.167 95.0742 117.167" fill="black"/>
<path opacity="0.25" d="M155.896 93.703C155.896 93.703 162.19 85.9596 165.291 75.3033C169.164 61.9931 169.049 56.595 169.049 56.595C169.049 56.595 165.472 53.5174 165.724 52.4024C165.976 51.2874 168.057 49.8145 168.057 49.8145C168.057 49.8145 170.626 54.3897 171.72 55.1221C172.815 55.8544 172.815 55.8503 172.815 55.8503C172.815 55.8503 172.414 74.1348 167.508 84.6759C162.603 95.2171 159.811 98.488 159.811 98.488" fill="black"/>
<path opacity="0.25" d="M168.218 84.6914C168.218 84.6914 169.031 85.1028 169.56 86.4195C170.006 87.5262 165.695 94.6113 164.332 96.8125C164.266 96.9153 164.225 97.0264 164.2 97.1416C164.113 97.5448 164.34 97.911 164.435 98.055C165.72 100.092 167.743 102.585 167.4 103.19C166.851 104.169 160.236 100.1 160 99.5815C159.823 99.1906 159.74 98.7915 159.74 98.7915C159.753 98.6598 159.79 98.5282 159.852 98.4048C159.922 98.269 161.97 93.7884 164.873 87.4316" fill="black"/>
<path d="M165.397 39.3673C160.091 40.4124 154.57 39.7993 151.428 36.7259C151.085 36.3885 151.077 35.8371 151.415 35.4956C151.754 35.1541 152.307 35.1459 152.65 35.4833C157.197 39.9269 168.181 38.2893 174.003 33.8334C174.015 33.8211 174.028 33.8128 174.04 33.8005C174.978 33.0805 175.75 32.237 176.344 31.2907C178.281 28.2172 178.037 24.5801 176.823 22.7121C176.563 22.3089 176.675 21.7699 177.079 21.5107C177.484 21.2515 178.025 21.3626 178.285 21.7658C179.792 24.0822 180.139 28.5299 177.819 32.2123C177.125 33.3232 176.221 34.3107 175.13 35.1541C175.118 35.1665 175.101 35.1788 175.085 35.1912C172.504 37.1826 169.002 38.6596 165.397 39.3673Z" fill="black"/>
<path d="M154.434 31.5906C154.013 31.6729 153.587 31.4384 153.443 31.027C153.282 30.5744 153.521 30.0765 153.98 29.9202C160.186 27.7519 164.918 25.0981 168.37 23.1602C168.792 22.9257 169.324 23.0738 169.56 23.4894C169.795 23.909 169.646 24.4398 169.229 24.6743C165.918 26.534 160.913 29.3401 154.558 31.5618C154.512 31.5742 154.475 31.5824 154.434 31.5906Z" fill="black"/>
<path d="M174.486 28.8094C171.765 29.3443 168.564 26.9538 167.953 25.2957C167.292 23.51 169.014 21.3458 171.959 20.2637C174.903 19.1816 177.624 19.7124 178.285 21.5022C178.607 22.3744 178.495 23.8803 178.008 25.2586C177.401 26.9702 176.352 28.1716 175.052 28.653C174.866 28.7189 174.676 28.7724 174.486 28.8094ZM169.593 24.695C169.91 25.5549 172.557 27.7108 174.453 27.0196C175.539 26.6205 176.117 25.3821 176.369 24.6785C176.782 23.5141 176.782 22.4526 176.654 22.1029C176.427 21.4898 174.725 21.1031 172.57 21.8972C170.41 22.6871 169.365 24.0819 169.593 24.695Z" fill="black"/>
<path d="M151.325 38.8491C151.292 38.8573 151.259 38.8614 151.226 38.8614C150.747 38.9025 150.322 38.5446 150.285 38.0673C150.057 35.3312 151.932 34.0146 152.956 33.7019C153.419 33.5579 153.906 33.8171 154.046 34.2779C154.187 34.7346 153.931 35.2201 153.477 35.3641C153.303 35.4217 151.858 35.9648 152.023 37.9274C152.06 38.3718 151.755 38.7668 151.325 38.8491Z" fill="black"/>
<path d="M128.968 115.505C120.135 117.245 107.099 118.87 95.7553 117.751C95.2763 117.702 94.9253 117.278 94.9708 116.801C95.0203 116.323 95.4456 115.974 95.9246 116.019C111.265 117.533 129.761 113.941 136.314 111.966C140.134 110.814 143.495 109.436 146.588 107.749C147.013 107.519 147.542 107.675 147.773 108.095C148.004 108.514 147.847 109.045 147.426 109.275C144.271 110.995 140.704 112.46 136.818 113.633C135.005 114.18 132.28 114.851 128.968 115.505Z" fill="black"/>
<path d="M174.184 46.9703C174.118 46.9826 174.044 46.9908 173.974 46.9867C173.491 46.9661 173.119 46.5588 173.144 46.0774C173.342 41.8725 173.367 37.9638 173.218 34.4665C173.197 33.9851 173.569 33.5778 174.052 33.5614C174.535 33.5408 174.94 33.9152 174.961 34.3925C175.113 37.9432 175.089 41.9013 174.886 46.1597C174.866 46.5629 174.568 46.8921 174.184 46.9703Z" fill="black"/>
<path d="M159.691 99.1207C159.443 99.1701 159.179 99.1125 158.968 98.9397C158.597 98.6352 158.543 98.088 158.849 97.7136C164.237 91.184 167.921 82.6507 170.114 71.6282C171.084 66.7403 171.897 61.1282 172.463 55.4009C172.509 54.9236 172.938 54.5739 173.417 54.6192C173.896 54.6644 174.247 55.0923 174.202 55.5696C173.632 61.3545 172.81 67.0242 171.827 71.9656C169.577 83.2761 165.774 92.0563 160.199 98.8163C160.059 98.9809 159.881 99.0796 159.691 99.1207Z" fill="black"/>
<path d="M170.225 22.371C169.85 22.4451 169.453 22.264 169.276 21.902C167.388 18.092 164.998 15.3436 162.367 13.9488C157.35 11.2909 152.238 10.2705 147.179 10.9206C146.7 10.9823 146.263 10.6449 146.201 10.1676C146.139 9.69036 146.477 9.25423 146.956 9.19251C152.382 8.49717 157.841 9.57927 163.185 12.41C166.141 13.9776 168.788 16.9893 170.841 21.1284C171.055 21.5605 170.878 22.0789 170.444 22.2928C170.37 22.3299 170.3 22.3545 170.225 22.371Z" fill="black"/>
<path d="M133.441 17.3186C133.198 17.368 132.933 17.3104 132.723 17.1417C132.347 16.8373 132.289 16.29 132.595 15.9197C133.668 14.599 134.655 13.9201 136.134 12.9738C136.546 12.3525 138.19 9.79336 138.574 7.83079C138.962 5.84352 139.788 4.56805 140.907 4.24712C141.539 4.06609 142.534 4.10723 143.694 5.33745C146.044 7.8349 143.087 11.7683 142.964 11.937C142.67 12.3196 142.125 12.3937 141.741 12.1016C141.357 11.8094 141.283 11.2663 141.576 10.8837C141.597 10.8549 143.748 7.92953 142.427 6.52651C142.006 6.07804 141.626 5.85175 141.399 5.91758C141.06 6.01633 140.568 6.75692 140.296 8.15994C139.788 10.7603 137.579 13.9695 137.484 14.1012C137.418 14.1958 137.335 14.2781 137.236 14.3398C135.774 15.2697 134.903 15.8539 133.961 17.0142C133.817 17.1788 133.635 17.2816 133.441 17.3186Z" fill="black"/>
<path d="M134.502 32.3451C134.333 32.378 134.147 32.3616 133.978 32.2875C128.552 29.8641 124.063 24.7664 123.535 20.4256C123.225 17.8583 123.299 11.8677 125.55 10.7773C126.008 10.5552 126.937 10.3494 128.044 11.4562C130.625 14.0318 137.909 18.8334 137.983 18.8827C138.384 19.1461 138.495 19.6851 138.231 20.0883C137.967 20.4874 137.426 20.5985 137.021 20.3351C136.716 20.1335 129.514 15.3855 126.809 12.6864C126.528 12.4066 126.351 12.3449 126.314 12.3449C125.608 12.563 124.823 16.5416 125.269 20.2199C125.719 23.9435 129.861 28.5475 134.692 30.7035C135.134 30.901 135.328 31.4153 135.134 31.8514C135.006 32.1147 134.771 32.2916 134.502 32.3451Z" fill="black"/>
<path d="M135.232 24.9176H135.228C135.092 24.9423 133.89 25.1521 133.077 24.5884C132.705 24.3333 132.47 23.9548 132.391 23.5022C132.21 22.4489 132.821 21.6178 133.527 21.0665C132.016 20.0502 129.051 17.9889 127.449 16.3843C127.176 16.1127 127.176 15.6725 127.449 15.4009C127.721 15.1294 128.163 15.1294 128.435 15.4009C130.496 17.4581 135.17 20.4822 135.216 20.511C135.435 20.6509 135.555 20.9019 135.534 21.157C135.509 21.4121 135.344 21.6384 135.104 21.7371C135.092 21.7413 133.618 22.3913 133.766 23.2677C133.783 23.3664 133.82 23.4076 133.87 23.4446C134.122 23.6174 134.704 23.5969 134.964 23.5475C135.344 23.4775 135.707 23.7244 135.782 24.0988C135.856 24.4815 135.608 24.8435 135.232 24.9176Z" fill="black"/>
<path d="M165.056 14.7427C164.961 14.7633 164.862 14.7633 164.763 14.7509C164.284 14.681 163.953 14.2407 164.024 13.7676C164.032 13.71 164.048 13.5907 164.069 13.4178C164.8 7.82223 165.485 4.44841 166.163 3.10711C166.282 2.87259 166.402 2.53932 166.295 2.30891C166.163 2.02913 165.721 1.83164 165.49 1.76992C160.353 1.17745 156.558 10.4102 156.521 10.5048C156.339 10.9492 155.831 11.1673 155.385 10.9862C154.939 10.8093 154.72 10.3032 154.902 9.85476C155.075 9.41863 159.263 -0.781019 165.762 0.0500939C165.787 0.0542083 165.816 0.0583227 165.841 0.0624371C165.989 0.0953525 167.327 0.424506 167.868 1.55597C168.095 2.03324 168.256 2.82321 167.724 3.88062C167.397 4.52658 166.716 6.65785 165.803 13.64C165.779 13.8211 165.762 13.9527 165.754 14.0144C165.696 14.3889 165.407 14.6727 165.056 14.7427Z" fill="black"/>
<path d="M146.699 10.9082C146.373 10.974 146.022 10.8465 145.82 10.5585C145.539 10.1676 145.63 9.62451 146.026 9.34473C146.625 8.92094 146.848 8.0816 146.683 7.5673C146.613 7.34512 146.46 7.09002 145.915 7.09002C145.477 7.09002 144.953 7.61667 144.469 8.54242C144.246 8.97031 143.722 9.13489 143.293 8.91683C142.863 8.69465 142.698 8.17212 142.917 7.74422C143.743 6.15194 144.754 5.34551 145.915 5.34963C147.092 5.34963 148 5.97913 148.339 7.03654C148.756 8.33669 148.194 9.9372 147.03 10.7642C146.931 10.8383 146.815 10.8835 146.699 10.9082Z" fill="black"/>
<path d="M153.72 26.9591C154.908 26.9591 155.871 25.9994 155.871 24.8155C155.871 23.6316 154.908 22.6719 153.72 22.6719C152.532 22.6719 151.568 23.6316 151.568 24.8155C151.568 25.9994 152.532 26.9591 153.72 26.9591Z" fill="black"/>
<path d="M165.405 23.588C166.593 23.588 167.557 22.6283 167.557 21.4444C167.557 20.2605 166.593 19.3008 165.405 19.3008C164.217 19.3008 163.254 20.2605 163.254 21.4444C163.254 22.6283 164.217 23.588 165.405 23.588Z" fill="black"/>
<path d="M173.437 36.044C173.292 36.0728 173.136 36.0563 172.995 35.9864C172.648 35.8177 172.508 35.398 172.677 35.0565C173.932 32.5179 174.081 29.7613 173.99 27.8933C173.97 27.5107 174.267 27.1815 174.651 27.1651C175.035 27.1445 175.365 27.4407 175.382 27.8234C175.485 29.8559 175.316 32.8635 173.928 35.6696C173.829 35.8671 173.643 36.0028 173.437 36.044Z" fill="black"/>
<path d="M162.471 53.5425C160.898 53.8511 159.403 53.6577 158.044 52.9418C152.255 49.8889 152.408 38.0805 152.416 37.5785C152.424 37.0972 152.821 36.7145 153.304 36.7269C153.787 36.7351 154.171 37.1301 154.158 37.6115C154.158 37.7225 154.014 48.8479 158.858 51.403C162.062 53.0899 165.646 50.4279 167.5 48.6875C167.851 48.3583 168.405 48.3748 168.735 48.7245C169.065 49.0742 169.049 49.6256 168.698 49.9547C166.584 51.942 164.465 53.1516 162.471 53.5425Z" fill="black"/>
<path d="M173.751 56.3065C173.215 56.4135 172.682 56.3765 172.162 56.2036C170.01 55.4795 168.639 52.5377 167.31 49.6946C166.983 48.9952 166.674 48.3328 166.364 47.732C166.145 47.3041 166.314 46.7816 166.744 46.5636C167.173 46.3455 167.698 46.5142 167.921 46.9421C168.243 47.5716 168.561 48.2464 168.895 48.9623C169.961 51.2375 171.282 54.0724 172.723 54.5579C173.111 54.6895 173.504 54.6402 173.958 54.4056C175.577 53.5622 175.449 51.5543 175.321 50.7273C174.912 48.1188 172.76 45.0494 169.585 44.4981C164.241 43.5724 156.846 49.8016 156.771 49.8674C156.404 50.1801 155.855 50.1349 155.541 49.7687C155.227 49.4025 155.272 48.8553 155.64 48.5426C155.966 48.2628 163.742 41.7209 169.886 42.7824C173.908 43.4777 176.535 47.1684 177.051 50.4558C177.443 52.945 176.588 54.994 174.775 55.9444C174.429 56.1172 174.09 56.2407 173.751 56.3065Z" fill="black"/>
<path d="M172.183 127.329C171.733 127.42 171.237 127.482 170.688 127.511C156.235 128.272 133.772 91.3818 132.826 89.8101C132.578 89.3986 132.71 88.8637 133.123 88.6169C133.536 88.37 134.073 88.5017 134.321 88.9131C134.548 89.2875 157.181 126.478 170.597 125.774C172.749 125.659 174.103 124.972 174.628 123.725C175.751 121.043 173.232 115.579 168.355 110.123C168.165 109.909 149.249 88.407 148.542 83.4409C148.476 82.9637 148.803 82.5234 149.286 82.4576C149.765 82.3918 150.207 82.7209 150.273 83.1982C150.764 86.6502 164.16 102.812 169.66 108.967C173.95 113.768 177.935 120.343 176.238 124.396C175.772 125.511 174.686 126.836 172.183 127.329Z" fill="black"/>
<path d="M81.6001 130.581C79.6469 130.967 77.5616 131.198 75.3772 131.272C69.1377 131.477 62.9189 130.317 58.7523 128.165C55.2176 126.343 53.4543 123.985 53.6608 121.352C54.3132 112.876 65.4956 113.193 72.8954 113.399C75.2616 113.465 77.3056 113.526 78.2223 113.263C78.2388 113.259 78.2554 113.255 78.2719 113.251C77.9787 112.835 77.2437 112.107 76.5747 111.453C73.7007 108.63 68.349 103.376 67.0936 94.4847C65.6112 83.9888 70.042 76.9161 79.9154 74.0401C87.3978 71.8595 95.6442 73.9949 98.8485 75.0194C98.7783 73.6945 98.9807 71.8471 100.447 70.9831C102.032 70.0491 105.261 70.5717 109.007 71.1724C110.27 71.3781 111.579 71.5879 112.793 71.7319C114.846 71.9747 116.564 71.4028 117.753 70.7856C116.436 70.3824 115.197 69.4855 114.986 67.7039C114.676 65.1283 120.152 59.9606 123.74 56.8789C122.324 56.8542 120.788 56.5004 120.036 55.2578C118.236 52.2872 122.101 46.4241 124.773 42.9598C124.025 43.0873 123.257 43.0915 122.613 42.8199C121.919 42.5278 121.436 41.9641 121.226 41.1947C119.838 36.1751 128.737 29.2588 129.757 28.4853C130.141 28.1931 130.69 28.2672 130.979 28.6498C131.272 29.0325 131.198 29.5756 130.814 29.8677C128.308 31.7686 121.998 37.43 122.91 40.7298C123.001 41.0548 123.154 41.1577 123.294 41.2153C124.186 41.5897 126.185 40.775 127.011 40.3225C127.383 40.1208 127.845 40.2114 128.109 40.5364C128.374 40.8656 128.365 41.3346 128.089 41.6514C124.599 45.6589 120.255 52.2502 121.531 54.3526C122.2 55.4594 125.045 55.1549 126.321 54.834C126.718 54.7312 127.131 54.9204 127.316 55.2866C127.498 55.6528 127.403 56.093 127.085 56.3522C121.957 60.4955 116.535 65.9306 116.72 67.49C116.968 69.5431 119.958 69.3168 120.086 69.3044C120.453 69.2715 120.8 69.4731 120.953 69.8064C121.106 70.1397 121.04 70.5305 120.78 70.7897C120.648 70.9214 117.451 74.0319 112.591 73.4559C111.34 73.3078 110.014 73.0938 108.734 72.8881C105.757 72.4067 102.383 71.8636 101.343 72.4766C100.393 73.0362 100.537 75.1593 100.756 76.1015C100.831 76.4142 100.723 76.7433 100.48 76.9531C100.236 77.163 99.8933 77.2247 99.5918 77.1054C99.4886 77.0642 89.1734 73.1514 80.415 75.7024C71.3634 78.3397 67.4653 84.573 68.8321 94.2337C70.0049 102.541 74.8899 107.338 77.8094 110.206C79.457 111.827 80.3655 112.716 80.1012 113.753C79.9567 114.308 79.49 114.703 78.7137 114.925C77.5368 115.258 75.4722 115.201 72.8541 115.131C66.115 114.942 55.9361 114.658 55.4075 121.479C55.2258 123.858 57.5672 125.586 59.5617 126.618C67.6676 130.803 83.4997 130.864 91.0027 124.672C101.281 116.188 88.6862 96.6736 88.5581 96.4761C88.2939 96.0729 88.4095 95.5339 88.81 95.2747C89.2147 95.0113 89.7557 95.1265 90.0199 95.5256C90.5774 96.3773 103.589 116.538 92.1177 126.009C89.479 128.182 85.8575 129.741 81.6001 130.581Z" fill="black"/>
<path d="M61.6712 92.8758C60.0938 93.1885 58.9582 93.0815 58.1653 92.8428C57.2693 92.5713 56.5673 92.0488 56.2452 91.4069C55.4606 89.8352 57.517 87.6628 58.4379 86.8029C58.7889 86.4737 59.3422 86.4902 59.6726 86.8399C60.0029 87.1896 59.9864 87.741 59.6354 88.0701C58.5246 89.1111 57.7441 90.3084 57.8185 90.6457C57.8763 90.7568 58.1282 91.0119 58.6733 91.1765C59.7304 91.4933 62.2534 91.5962 67.2747 88.712C67.6918 88.4733 68.2245 88.6132 68.4681 89.0329C68.7076 89.4484 68.5672 89.9792 68.146 90.222C65.433 91.7731 63.3147 92.5507 61.6712 92.8758Z" fill="black"/>
<path d="M55.0073 89.7163C53.0252 90.1072 50.7458 90.1401 48.9082 89.0128C47.6405 88.2351 46.9385 87.2559 46.8229 86.0957C46.6949 84.8202 47.3515 83.6764 47.8883 82.9687C42.4251 77.9573 44.4568 71.2632 44.4815 71.1932C44.5765 70.8888 44.8325 70.6625 45.1422 70.6008C45.4519 70.539 45.774 70.6501 45.9805 70.8929C46.0177 70.9381 49.986 75.5463 57.2165 78.6609C62.9935 81.1542 68.8903 79.8088 71.1573 79.1135C71.6487 78.9654 72.1731 79.2739 72.2722 79.7759C72.3631 80.2285 72.0864 80.6646 71.6487 80.7839C69.1793 81.5369 62.816 82.9728 56.5269 80.2573C51.2 77.9615 47.6075 74.9538 45.8649 73.2751C45.6584 75.3776 45.9186 79.1917 49.6763 82.1993C49.8745 82.3556 49.9942 82.5943 50.0025 82.8453C50.0108 83.0962 49.9117 83.3431 49.7258 83.5118C49.3707 83.8451 48.4664 84.9313 48.5696 85.9228C48.6316 86.5071 49.0528 87.0461 49.8332 87.5234C52.86 89.379 58.1374 86.898 58.6246 86.6634C58.7031 86.6182 58.794 86.5853 58.8848 86.5688C59.3597 86.4742 59.818 86.7828 59.9089 87.2518C59.975 87.5851 59.8387 87.9142 59.5868 88.1076C59.5372 88.1446 59.4877 88.1776 59.434 88.2064C58.86 88.4902 57.0968 89.3049 55.0073 89.7163Z" fill="black"/>
<path d="M171.014 44.5398C170.601 44.6221 170.175 44.3917 170.027 43.9844C169.411 42.3222 169.358 37.5289 169.354 36.9858C169.349 36.5044 169.738 36.1135 170.221 36.1094C170.704 36.1053 171.096 36.492 171.1 36.9734C171.113 38.36 171.237 42.2152 171.666 43.3837C171.831 43.8363 171.6 44.3341 171.15 44.4987C171.1 44.5193 171.059 44.5316 171.014 44.5398Z" fill="black"/>
<path d="M23.5641 150.903C22.8663 149.471 21.5985 148.22 20.0252 147.944C18.452 147.665 16.6392 148.619 16.3212 150.183C14.2648 148.286 11.6137 147.039 8.83464 146.661C6.22487 146.307 3.00396 147.121 2.20699 149.627C1.41415 152.125 3.47471 154.544 5.36183 156.367C2.78097 158.407 1.21181 161.847 1.9138 165.056C2.6158 168.261 5.87388 170.866 9.12782 170.368C7.50911 170.619 6.05557 171.759 5.42377 173.265C4.79198 174.775 5.00258 176.601 5.96472 177.926C7.9716 180.699 12.2125 180.563 15.421 179.35C14.9089 180.749 16.1436 182.361 17.6219 182.58C19.1003 182.798 20.5745 181.901 21.4292 180.679C22.1147 179.695 22.1643 177.321 22.8869 176.638C23.5311 176.029 26.0707 176.416 27.07 176.091C28.4657 175.639 29.7499 174.631 30.1959 173.24C30.6749 171.75 30.1381 170.142 29.56 168.681C29.1883 167.735 28.7052 166.706 27.7554 166.336C29.3329 165.731 31.0631 164.974 31.7114 163.423C32.3597 161.88 31.6783 160.082 30.6625 158.753C29.2833 156.943 27.6068 156.301 25.7155 155.243C23.9894 154.268 24.4313 152.688 23.5641 150.903Z" fill="#EDEDED"/>
<path d="M24.0101 150.644C23.176 148.986 21.6275 147.513 19.6866 147.39C17.9936 147.283 16.2221 148.353 15.8216 150.044C16.1106 149.97 16.3955 149.891 16.6846 149.817C14.1285 147.489 10.4699 145.81 6.94752 146.094C5.50637 146.209 4.04457 146.641 2.94203 147.608C1.76103 148.645 1.30267 150.241 1.63715 151.763C2.07073 153.743 3.59447 155.364 5.00259 156.73C5.00259 156.487 5.00259 156.244 5.00259 156.001C2.81402 157.762 1.31506 160.453 1.24073 163.284C1.17053 166.016 2.61581 168.6 4.97781 169.99C6.28682 170.76 7.76927 171.068 9.27236 170.863C9.18152 170.533 9.09067 170.2 8.99982 169.871C5.95234 170.398 3.98263 173.442 4.71766 176.421C5.42378 179.273 8.1946 180.638 10.9489 180.684C12.5181 180.713 14.0996 180.388 15.5655 179.844C15.3549 179.635 15.1402 179.421 14.9296 179.211C14.2235 181.375 16.4079 183.338 18.4933 183.095C19.666 182.959 20.7438 182.305 21.5036 181.42C22.1436 180.671 22.379 179.816 22.602 178.878C22.7341 178.322 22.8208 177.125 23.4609 176.915C24.2909 176.639 25.2861 176.787 26.1491 176.742C28.1725 176.627 30.2166 175.203 30.7492 173.196C31.1498 171.69 30.6749 170.126 30.1298 168.719C29.7004 167.616 29.1842 166.394 28.0197 165.888C27.9784 166.201 27.9371 166.514 27.8958 166.826C29.209 166.32 30.6254 165.748 31.5545 164.642C32.5249 163.481 32.6901 161.963 32.2193 160.552C31.7279 159.083 30.7286 157.799 29.5063 156.861C28.9282 156.417 28.3047 156.042 27.6646 155.693C27.0245 155.343 26.3143 155.047 25.7197 154.627C25.1168 154.203 24.8897 153.553 24.7204 152.87C24.5263 152.109 24.3446 151.364 24.0101 150.644C23.7293 150.044 22.8374 150.566 23.1182 151.163C23.6137 152.22 23.6261 153.463 24.2166 154.479C24.8649 155.602 26.1987 156.059 27.2806 156.656C28.4946 157.322 29.6178 158.12 30.4189 159.268C31.22 160.416 31.8477 162.004 31.1828 163.358C30.5221 164.703 28.9447 165.329 27.6274 165.835C27.2682 165.975 27.0535 166.58 27.5036 166.773C28.4161 167.168 28.8002 168.118 29.1388 168.986C29.5724 170.101 30.0183 171.34 29.8366 172.554C29.5682 174.348 27.7761 175.631 26.0294 175.709C24.7493 175.767 22.8167 175.434 22.1436 176.824C21.7968 177.54 21.677 178.351 21.4829 179.116C21.2641 179.972 20.9461 180.614 20.2606 181.202C19.443 181.91 18.2042 182.379 17.1595 181.902C16.2469 181.486 15.6027 180.474 15.9248 179.478C16.0404 179.124 15.6564 178.709 15.2889 178.845C12.741 179.791 9.14435 180.301 6.95991 178.264C5.76239 177.145 5.29577 175.405 5.76652 173.837C6.2414 172.253 7.66191 171.13 9.27236 170.854C9.93306 170.739 9.63988 169.772 8.99982 169.863C6.0019 170.278 3.14024 167.871 2.45063 165.053C1.6867 161.922 3.30954 158.667 5.73349 156.721C5.94822 156.549 5.91518 156.17 5.73349 155.993C3.88766 154.207 1.00122 150.891 3.53666 148.456C5.51463 146.555 8.83878 146.941 11.2049 147.735C12.9682 148.328 14.5869 149.291 15.9619 150.542C16.2345 150.792 16.7341 150.71 16.825 150.315C17.1306 149.015 18.5428 148.258 19.827 148.427C21.3425 148.624 22.474 149.863 23.1264 151.159C23.4155 151.755 24.3033 151.237 24.0101 150.644Z" fill="#181818"/>
<path d="M36.9371 180.762C36.8876 179.816 36.5324 178.91 36.4168 177.972C36.3012 177.03 36.5035 175.948 37.2881 175.417C38.1305 174.85 39.4519 175.261 39.8194 176.203C39.8896 176.388 39.9557 176.61 40.1415 176.676C40.3273 176.742 40.5214 176.61 40.6825 176.491C41.8428 175.635 43.3377 175.232 44.7747 175.393C45.7657 175.504 46.8063 175.944 47.2316 176.841C47.657 177.738 47.0706 179.063 46.0754 179.046C48.3218 179.84 50.1387 181.741 50.8242 184.012C50.9109 184.296 50.977 184.601 50.8903 184.88C50.721 185.411 50.0933 185.621 49.5441 185.728C48.3755 185.95 47.1821 186.033 45.997 185.967C46.6577 186.839 45.902 188.242 44.8284 188.452C43.7547 188.662 42.6687 187.958 42.0906 187.028C41.5166 186.098 41.3432 184.987 41.1821 183.905C40.7857 183.992 40.6742 184.49 40.4553 184.831C39.8648 185.74 38.3163 185.403 37.7423 184.485C37.1684 183.568 37.2675 182.395 37.3914 181.322" fill="#EDEDED"/>
<path d="M37.4542 180.762C37.384 179.762 37.0082 178.82 36.9215 177.828C36.8595 177.158 36.9504 176.281 37.5533 175.858C38.0571 175.508 38.8334 175.668 39.205 176.137C39.3867 176.368 39.4198 176.672 39.6097 176.894C39.8492 177.174 40.2167 177.265 40.5677 177.145C40.96 177.014 41.2904 176.685 41.6537 176.491C42.0089 176.302 42.3805 176.158 42.7687 176.055C43.5533 175.845 44.4163 175.792 45.2091 175.985C45.8492 176.141 46.6255 176.508 46.8237 177.199C46.9724 177.713 46.6957 178.507 46.0804 178.532C45.4817 178.557 45.4032 179.347 45.9442 179.544C47.662 180.169 49.0825 181.461 49.9084 183.083C50.1066 183.473 50.2841 183.893 50.3832 184.325C50.5236 184.93 50.0529 185.094 49.5532 185.206C48.397 185.469 47.183 185.51 46.0061 185.457C45.6303 185.44 45.3454 185.913 45.5601 186.23C45.8698 186.687 45.7171 187.23 45.3413 187.608C44.8499 188.106 44.119 188.044 43.5409 187.724C42.141 186.95 41.9015 185.197 41.6909 183.77C41.6496 183.506 41.2945 183.329 41.055 183.412C40.4645 183.609 40.3695 184.058 40.0515 184.518C39.7708 184.922 39.2546 184.913 38.8293 184.737C37.5533 184.198 37.7928 182.416 37.9167 181.317C37.991 180.659 36.9586 180.667 36.8843 181.317C36.7191 182.807 36.6613 184.757 38.2098 185.572C38.7797 185.872 39.4776 185.987 40.0887 185.753C40.3943 185.638 40.6503 185.444 40.8403 185.185C40.9724 185.008 41.1128 184.473 41.3275 184.399C41.1169 184.28 40.9022 184.16 40.6916 184.041C40.9889 186.033 41.6455 188.579 44.0075 188.962C44.9118 189.106 45.7707 188.781 46.3117 188.036C46.8072 187.353 46.9311 186.428 46.4438 185.707C46.2952 185.967 46.1465 186.222 45.9978 186.481C47.3564 186.543 48.9421 186.543 50.2387 186.074C50.7466 185.889 51.2298 185.555 51.3908 185.016C51.5684 184.424 51.3206 183.778 51.0976 183.231C50.2139 181.05 48.43 179.355 46.2167 178.544C46.1713 178.882 46.1259 179.219 46.0804 179.556C47.4184 179.507 48.2029 178.014 47.7817 176.808C47.2738 175.347 45.5147 174.829 44.1149 174.837C43.2683 174.845 42.4259 175.026 41.6455 175.356C41.2656 175.516 40.9063 175.709 40.5636 175.944C40.4934 175.989 40.3736 176.109 40.3034 176.129C40.3034 176.129 40.4521 176.236 40.3447 176.117C40.2374 175.993 40.1878 175.751 40.0928 175.611C39.3124 174.479 37.5574 174.302 36.6159 175.323C35.1706 176.882 36.2979 178.985 36.426 180.758C36.4714 181.42 37.5037 181.424 37.4542 180.762Z" fill="#181818"/>
<path d="M30.8182 146.428C30.6572 147.441 31.0618 148.494 31.7514 149.255C32.441 150.016 33.3908 150.506 34.3777 150.79C35.7817 151.193 37.611 151.028 38.2758 149.728C38.4534 149.378 38.5443 148.959 38.8622 148.728C39.2091 148.473 39.6881 148.551 40.1175 148.527C41.5835 148.436 42.6819 146.914 42.6323 145.453C42.5828 143.988 41.6248 142.68 40.4314 141.828C39.973 141.503 39.4816 141.232 38.9696 141.006C37.8794 140.524 36.6571 140.236 35.4926 140.487C34.3282 140.738 33.2504 141.619 33.0315 142.787C33.2587 142.491 33.0976 142.034 32.792 141.816C32.4906 141.598 32.0983 141.561 31.7225 141.536C31.0164 141.491 30.2814 141.483 29.6455 141.783C28.832 142.166 28.2869 143.059 28.3241 143.956C28.3612 144.853 28.9806 145.696 29.823 146.009" fill="#EDEDED"/>
<path d="M30.3012 146.428C29.9832 148.909 32.1635 150.753 34.3686 151.32C35.2977 151.559 36.3342 151.588 37.2427 151.242C37.6597 151.082 38.0479 150.847 38.3493 150.514C38.4939 150.353 38.6219 150.177 38.721 149.987C38.8449 149.753 38.9151 149.366 39.1174 149.185C39.3363 148.987 39.6831 149.053 39.9557 149.045C40.22 149.037 40.4842 149.008 40.7361 148.938C41.244 148.794 41.7065 148.502 42.074 148.132C42.7843 147.416 43.1972 146.383 43.1436 145.375C43.0155 142.931 40.9013 141.207 38.7747 140.372C37.5317 139.882 36.0782 139.664 34.8022 140.158C33.6997 140.586 32.7871 141.479 32.5311 142.651C32.4113 143.207 33.167 143.569 33.4726 143.046C34.0507 142.063 33.1174 141.203 32.1801 141.067C31.1064 140.911 29.8428 140.931 28.9468 141.61C27.1298 142.985 27.6584 145.671 29.6859 146.502C30.3012 146.753 30.5655 145.758 29.9585 145.511C28.794 145.034 28.4925 143.528 29.3473 142.627C29.8057 142.141 30.4581 142.03 31.1023 142.03C31.3294 142.03 32.8779 142.026 32.5847 142.528C32.8986 142.659 33.2124 142.791 33.5262 142.923C33.9763 140.853 36.4044 140.656 38.0768 141.207C39.8442 141.791 41.8015 143.141 42.0906 145.124C42.2103 145.951 41.9378 146.811 41.3473 147.403C41.0665 147.687 40.7196 147.897 40.3273 147.979C39.8648 148.074 39.39 147.971 38.9357 148.123C38.0314 148.428 38.0933 149.419 37.445 149.963C36.871 150.444 36.0369 150.514 35.3184 150.448C33.2785 150.255 31.0486 148.671 31.3377 146.428C31.4203 145.77 30.3879 145.778 30.3012 146.428Z" fill="#181818"/>
<path d="M46.5253 153.38C48.9368 152.936 51.3814 152.73 53.8342 152.73C54.8294 152.73 54.8336 151.188 53.8342 151.188C51.2451 151.188 48.6601 151.426 46.1123 151.895C45.6994 151.969 45.4681 152.467 45.5714 152.846C45.6952 153.274 46.1164 153.459 46.5253 153.38Z" fill="#181818"/>
<path d="M42.6069 161.457C46.5546 160.552 50.6055 160.198 54.6523 160.326C55.6475 160.359 55.6475 158.816 54.6523 158.783C50.4734 158.651 46.2738 159.038 42.194 159.972C41.2236 160.194 41.6365 161.679 42.6069 161.457Z" fill="#181818"/>
<path d="M38.2174 170.184C44.2463 168.489 50.5188 167.794 56.779 168.041C57.7741 168.082 57.7741 166.539 56.779 166.498C50.395 166.247 43.9614 166.967 37.8086 168.695C36.8465 168.966 37.2553 170.456 38.2174 170.184Z" fill="#181818"/>
<path d="M23.5375 162.298C24.1651 160.722 23.1369 158.71 21.4893 158.29C21.3489 158.253 21.1961 158.224 21.0887 158.126C20.9566 158.002 20.9277 157.809 20.8781 157.632C20.5519 156.472 19.1934 155.994 18.0247 155.69C16.9965 155.422 15.8031 155.184 14.9566 155.817C14.713 155.291 13.9821 155.102 13.4577 155.357C12.9332 155.612 12.6359 156.208 12.6235 156.788C12.6111 157.369 12.8424 157.932 13.1521 158.422C13.3049 158.661 13.4742 158.891 13.5733 159.158C13.7921 159.767 13.5815 160.459 13.7508 161.084C13.9573 161.833 14.6634 162.331 15.3737 162.643C16.0839 162.956 16.8561 163.153 17.4838 163.614C17.7274 163.791 17.9463 164.009 18.223 164.133C18.9621 164.466 19.8623 164.013 20.3042 163.339C20.4115 163.178 20.5148 162.989 20.6964 162.923C20.8616 162.861 21.0474 162.919 21.2168 162.972C21.9105 163.182 22.8561 163.174 23.1452 162.512" fill="white"/>
<path d="M39.8983 145.523C40.0717 145.091 39.7868 144.54 39.3367 144.425C39.2995 144.416 39.2582 144.408 39.2252 144.379C39.188 144.346 39.1798 144.293 39.1674 144.244C39.0765 143.927 38.7049 143.795 38.3869 143.713C38.1061 143.639 37.7799 143.573 37.5445 143.75C37.4785 143.606 37.2761 143.552 37.1357 143.622C36.9912 143.692 36.9086 143.857 36.9045 144.013C36.9004 144.174 36.9623 144.326 37.049 144.462C37.0903 144.527 37.1357 144.589 37.1646 144.663C37.2266 144.832 37.1646 145.021 37.2142 145.19C37.272 145.396 37.4661 145.531 37.6602 145.618C37.8542 145.704 38.069 145.758 38.2383 145.885C38.3043 145.935 38.3663 145.992 38.4406 146.029C38.643 146.12 38.8907 145.996 39.0105 145.811C39.0394 145.766 39.0683 145.717 39.1178 145.696C39.1633 145.68 39.2128 145.696 39.2624 145.708C39.4523 145.766 39.7125 145.762 39.7909 145.581" fill="white"/>
<path d="M48.1151 183.541C48.2885 183.109 48.0036 182.557 47.5535 182.442C47.5163 182.434 47.475 182.426 47.442 182.397C47.4048 182.364 47.3966 182.311 47.3842 182.261C47.2933 181.944 46.9217 181.813 46.6037 181.73C46.3229 181.656 45.9967 181.591 45.7613 181.767C45.6953 181.623 45.4929 181.57 45.3525 181.64C45.208 181.71 45.1254 181.874 45.1213 182.031C45.1172 182.191 45.1791 182.343 45.2658 182.479C45.3071 182.545 45.3525 182.607 45.3814 182.681C45.4434 182.85 45.3814 183.039 45.431 183.207C45.4888 183.413 45.6829 183.549 45.877 183.635C46.071 183.722 46.2858 183.775 46.4551 183.903C46.5211 183.952 46.5831 184.01 46.6574 184.047C46.8598 184.137 47.1075 184.014 47.2273 183.829C47.2562 183.784 47.2851 183.734 47.3346 183.714C47.3801 183.697 47.4296 183.714 47.4792 183.726C47.6691 183.784 47.9293 183.779 48.0077 183.598" fill="white"/>
<path d="M23.9002 164.58C24.2718 163.642 23.6607 162.445 22.682 162.198C22.5994 162.177 22.5086 162.161 22.4425 162.099C22.364 162.025 22.3475 161.91 22.3145 161.807C22.1204 161.116 21.3152 160.832 20.6173 160.651C20.0062 160.49 19.2959 160.351 18.7921 160.729C18.6476 160.416 18.214 160.301 17.9002 160.453C17.5905 160.606 17.4129 160.959 17.4047 161.305C17.3964 161.651 17.5327 161.984 17.7185 162.276C17.8093 162.42 17.9126 162.556 17.9662 162.712C18.0984 163.074 17.9704 163.486 18.0736 163.856C18.1934 164.3 18.6146 164.597 19.0399 164.782C19.4611 164.967 19.9236 165.086 20.2952 165.358C20.4397 165.465 20.5719 165.592 20.7371 165.666C21.1748 165.864 21.7116 165.596 21.9759 165.193C22.0378 165.099 22.0998 164.988 22.2112 164.946C22.3104 164.909 22.4177 164.946 22.5209 164.975C22.9339 165.099 23.4955 165.094 23.6689 164.699" fill="white"/>
</g>
<defs>
<clipPath id="clip0_4948_56737">
<rect width="227" height="189" fill="white"/>
</clipPath>
</defs>
</svg>
