<svg width="16" height="17" viewBox="0 0 16 17" fill="none" xmlns="http://www.w3.org/2000/svg">
<path opacity="0.2" d="M11.25 7.25C11.25 7.99168 11.0301 8.7167 10.618 9.33339C10.206 9.95007 9.62029 10.4307 8.93506 10.7145C8.24984 10.9984 7.49584 11.0726 6.76841 10.9279C6.04098 10.7833 5.3728 10.4261 4.84835 9.90165C4.3239 9.3772 3.96675 8.70902 3.82206 7.98159C3.67736 7.25416 3.75163 6.50016 4.03545 5.81494C4.31928 5.12971 4.79993 4.54404 5.41661 4.13199C6.0333 3.71993 6.75832 3.5 7.5 3.5C8.49456 3.5 9.44839 3.89509 10.1517 4.59835C10.8549 5.30161 11.25 6.25544 11.25 7.25Z" fill="#FB8A76"/>
<path d="M12.9995 1.5H10.4995C10.3669 1.5 10.2397 1.55268 10.146 1.64645C10.0522 1.74021 9.99953 1.86739 9.99953 2C9.99953 2.13261 10.0522 2.25979 10.146 2.35355C10.2397 2.44732 10.3669 2.5 10.4995 2.5H11.7933L10.2683 4.025C9.76453 3.59203 9.16631 3.28316 8.52162 3.12319C7.87692 2.96321 7.2037 2.95658 6.55598 3.10381C5.90826 3.25105 5.30406 3.54807 4.79188 3.97102C4.27969 4.39398 3.87378 4.93111 3.60671 5.5393C3.33963 6.14749 3.21884 6.80981 3.25401 7.47313C3.28918 8.13645 3.47934 8.78228 3.80924 9.35882C4.13913 9.93536 4.59957 10.4265 5.15361 10.793C5.70765 11.1594 6.33987 11.3908 6.99953 11.4688V12.75H5.49953C5.36692 12.75 5.23975 12.8027 5.14598 12.8964C5.05221 12.9902 4.99953 13.1174 4.99953 13.25C4.99953 13.3826 5.05221 13.5098 5.14598 13.6036C5.23975 13.6973 5.36692 13.75 5.49953 13.75H6.99953V15C6.99953 15.1326 7.05221 15.2598 7.14598 15.3536C7.23975 15.4473 7.36692 15.5 7.49953 15.5C7.63214 15.5 7.75932 15.4473 7.85309 15.3536C7.94685 15.2598 7.99953 15.1326 7.99953 15V13.75H9.49953C9.63214 13.75 9.75932 13.6973 9.85309 13.6036C9.94685 13.5098 9.99953 13.3826 9.99953 13.25C9.99953 13.1174 9.94685 12.9902 9.85309 12.8964C9.75932 12.8027 9.63214 12.75 9.49953 12.75H7.99953V11.4688C8.73501 11.3829 9.43522 11.1061 10.0306 10.6659C10.626 10.2257 11.0959 9.63735 11.3935 8.95933C11.6911 8.28131 11.8061 7.53722 11.7272 6.80097C11.6482 6.06473 11.3779 5.36197 10.9433 4.7625L12.4995 3.20625V4.5C12.4995 4.63261 12.5522 4.75979 12.646 4.85355C12.7397 4.94732 12.8669 5 12.9995 5C13.1321 5 13.2593 4.94732 13.3531 4.85355C13.4469 4.75979 13.4995 4.63261 13.4995 4.5V2C13.4995 1.86739 13.4469 1.74021 13.3531 1.64645C13.2593 1.55268 13.1321 1.5 12.9995 1.5ZM7.49953 10.5C6.85674 10.5 6.22839 10.3094 5.69393 9.95228C5.15947 9.59516 4.74291 9.08758 4.49692 8.49372C4.25094 7.89986 4.18658 7.24639 4.31198 6.61596C4.43738 5.98552 4.74691 5.40642 5.20143 4.9519C5.65596 4.49738 6.23505 4.18785 6.86549 4.06245C7.49593 3.93705 8.14939 4.00141 8.74325 4.24739C9.33711 4.49338 9.84469 4.90994 10.2018 5.4444C10.5589 5.97886 10.7495 6.60721 10.7495 7.25C10.7495 8.11195 10.4071 8.9386 9.79763 9.5481C9.18814 10.1576 8.36149 10.5 7.49953 10.5Z" fill="#FB8A76"/>
</svg>
