<svg width="30" height="30" viewBox="0 0 30 30" fill="none" xmlns="http://www.w3.org/2000/svg">
    <path fill-rule="evenodd" clip-rule="evenodd"
          d="M30 21V3C30 1.35 28.65 0 27 0H9C7.35 0 6 1.35 6 3V21C6 22.65 7.35 24 9 24H27C28.65 24 30 22.65 30 21ZM14.1 15.795L16.545 19.065L20.415 14.235C20.715 13.86 21.285 13.86 21.585 14.235L26.025 19.785C26.415 20.28 26.07 21 25.44 21H10.5C9.885 21 9.525 20.295 9.9 19.8L12.9 15.795C13.2 15.405 13.8 15.405 14.1 15.795ZM0 27V7.5C0 6.675 0.675 6 1.5 6C2.325 6 3 6.675 3 7.5V25.5C3 26.325 3.675 27 4.5 27H22.5C23.325 27 24 27.675 24 28.5C24 29.325 23.325 30 22.5 30H3C1.35 30 0 28.65 0 27Z"
          fill="#989898"/>
</svg>
