<svg width="1024" height="1024" viewBox="0 0 1024 1024" fill="none" xmlns="http://www.w3.org/2000/svg">
<g clip-path="url(#clip0_10283_56744)">
<defs>
<linearGradient id="paint0_linear_10283_56744" x1="512" y1="0" x2="512" y2="1024" gradientUnits="userSpaceOnUse">
<stop stop-color="#41C6FF"/>
<stop offset="0.786458" stop-color="#C9EFFF"/>
</linearGradient>
<linearGradient id="paint1_linear_10283_56744" x1="512" y1="697.409" x2="512" y2="1046" gradientUnits="userSpaceOnUse">
<stop offset="0.0730866" stop-color="#B4FFC7"/>
<stop offset="0.501249" stop-color="#59B460"/>
<stop offset="1" stop-color="#1A6A20"/>
</linearGradient>
<clipPath id="clip0_10283_56744">
<rect width="1024" height="1024" fill="white"/>
</clipPath>
<clipPath id="clip1_10283_56744">
<rect width="775.405" height="509.165" fill="white" transform="matrix(-0.99608 -0.0884568 -0.0884568 0.99608 767.405 442.59)"/>
</clipPath>
<clipPath id="clip2_10283_56744">
<rect width="1490" height="286" fill="white" transform="translate(-212 763)"/>
</clipPath>
</defs>
<rect width="1024" height="1024" fill="url(#paint0_linear_10283_56744)"/>
<path d="M1018.21 643.636V715.618L1033.63 716.701L1033.09 643.636L1025.52 632L1018.21 643.636Z" fill="#F0F7FF"/>
<path d="M963.276 645.568V717.78L981.136 718.866L980.51 645.568L971.736 633.895L963.276 645.568Z" fill="#F0F7FF"/>
<path d="M895.624 645.568V717.78L914.025 718.866L913.379 645.568L904.34 633.895L895.624 645.568Z" fill="#F0F7FF"/>
<path d="M820.394 645.568V717.78L837.172 718.866L836.583 645.568L828.342 633.895L820.394 645.568Z" fill="#F0F7FF"/>
<path d="M754.907 644.485V716.697L770.602 717.783L770.051 644.485L762.341 632.812L754.907 644.485Z" fill="#F0F7FF"/>
<path d="M694.29 644.336V715.628L710.527 716.7L709.957 644.336L701.981 632.812L694.29 644.336Z" fill="#F0F7FF"/>
<path d="M628.803 646.501V717.793L646.122 718.865L645.514 646.501L637.007 634.977L628.803 646.501Z" fill="#F0F7FF"/>
<path d="M563.315 648.666V719.958L580.634 721.03L580.027 648.666L571.519 637.142L563.315 648.666Z" fill="#F0F7FF"/>
<path d="M500.534 648.666V719.958L517.853 721.03L517.245 648.666L508.738 637.142L500.534 648.666Z" fill="#F0F7FF"/>
<path d="M445.871 648.666V719.958L463.19 721.03L462.582 648.666L454.075 637.142L445.871 648.666Z" fill="#F0F7FF"/>
<path d="M392.29 648.666V719.958L409.609 721.03L409.002 648.666L400.494 637.142L392.29 648.666Z" fill="#F0F7FF"/>
<path d="M342.498 647.584V718.876L359.817 719.948L359.209 647.584L350.702 636.06L342.498 647.584Z" fill="#F0F7FF"/>
<path d="M290.541 646.501V717.793L307.319 718.865L306.73 646.501L298.489 634.977L290.541 646.501Z" fill="#F0F7FF"/>
<path d="M241.29 646.501V717.793L258.068 718.865L257.479 646.501L249.238 634.977L241.29 646.501Z" fill="#F0F7FF"/>
<path d="M188.792 645.419V716.711L207.194 717.783L206.548 645.419L197.509 633.895L188.792 645.419Z" fill="#F0F7FF"/>
<path d="M140.624 646.501V717.793L159.025 718.865L158.379 646.501L149.34 634.977L140.624 646.501Z" fill="#F0F7FF"/>
<path d="M98.9498 646.088V721.52L117.351 722.654L116.706 646.088L107.666 633.895L98.9498 646.088Z" fill="#F0F7FF"/>
<path d="M57.276 645.94V720.451L75.6774 721.572L75.0318 645.94L65.9925 633.895L57.276 645.94Z" fill="#F0F7FF"/>
<path d="M9.10754 645.399V719.91L27.509 721.031L26.8633 645.399L17.824 633.354L9.10754 645.399Z" fill="#F0F7FF"/>
<rect x="-12" y="660.955" width="1057" height="11.3656" fill="#E3F6FC"/>
<path d="M-55.4584 705.861C-81.1666 698.733 -102.017 702.891 -109.229 705.861L-170 1031.68L1148.18 1046L1194 1005.27V849.998C1188.91 807.786 1168.36 719.034 1126.87 701.724C1075 680.088 1020.28 712.225 958.553 705.861C896.828 699.497 877.738 691.543 829.694 694.724C781.65 697.906 664.881 711.588 631.155 701.724C597.429 691.861 490.523 695.361 431.98 705.861C373.436 716.361 297.393 724.315 248.713 705.861C200.033 687.406 67.0376 705.861 42.2202 705.861C17.4028 705.861 -23.3231 714.77 -55.4584 705.861Z" fill="url(#paint1_linear_10283_56744)"/>
<g opacity="0.21">
<path d="M874.533 942.582C781.529 906.709 1107.04 887.333 1281.43 882.129C1168.6 884.786 921.301 892.891 834.674 904.051C726.391 918.002 818.066 933.945 808.102 950.553C710.78 1056.84 296.248 994.398 161.724 983.437C27.2003 972.476 -60.4892 951.218 -15.648 976.462C29.1932 1001.71 220.848 1009.35 187.632 1008.35C154.416 1007.35 22.8821 1050.86 44.8045 1045.55C66.7269 1040.24 706.794 1032.93 757.614 1021.97C808.434 1011.01 990.788 987.423 874.533 942.582Z" fill="white"/>
<path d="M265.5 771C172.496 735.127 477.118 738.204 651.5 733C538.677 735.658 315.627 721.84 229 733C120.717 746.951 212.546 745.817 202.582 762.425C105.26 868.715 -309.272 806.269 -443.796 795.308C-578.32 784.347 -666.009 763.089 -621.168 788.333C-576.327 813.577 -384.672 821.216 -417.888 820.22C-451.104 819.223 -582.638 862.736 -560.715 857.421C-538.793 852.107 101.274 844.799 152.094 833.838C202.914 822.877 381.755 815.841 265.5 771Z" fill="white"/>
<path d="M654.977 905.712C486.773 866.118 939.636 842.048 1187.09 834.962L1290.06 806.064C1292.39 789.789 1294.25 758.035 1283.09 761.223C1269.14 765.209 724.73 803.739 621.097 796.432C517.464 789.124 426.453 807.393 497.203 842.934C567.952 878.475 532.411 905.712 365.004 922.984C159.067 927.634 179.992 905.712 139.801 860.206C99.6105 814.701 -59.4927 834.962 -75.1041 834.962C-87.5932 834.962 -80.3079 874.821 -75.1041 894.75L7.27078 885.118C-83.076 962.843 348.728 970.814 555.994 958.192C763.26 945.57 711.444 928.298 654.977 905.712Z" fill="white"/>
</g>
<path d="M1052.57 248.149C1052.57 248.149 1040.77 231.255 1017.74 232.026C994.729 232.604 996.692 255.333 996.692 255.333C996.692 255.333 975.055 245.044 972.495 255.911C969.936 266.982 975.055 270.868 975.055 270.868C975.055 270.868 960.695 250.858 935.11 260.579C909.536 270.29 909.536 272.817 909.536 272.817C909.536 272.817 835.362 278.641 826.306 288.352C817.261 298.062 1011.84 300 1011.84 300L1099 298.64" fill="white"/>
<path d="M579.596 94.9759C579.596 94.9759 584.903 49.3538 636.58 40.741C688.256 32.1282 695.524 101.441 695.524 101.441C695.524 101.441 706.724 96.1524 717.144 102.024C727.553 107.895 728.928 115.731 728.928 115.731C728.928 115.731 734.82 105.359 749.952 107.895C765.083 110.442 768.224 117.684 768.224 117.684C768.224 117.684 807.521 115.137 812.828 129.427C818.135 143.717 698.86 141.17 698.86 141.17C698.86 141.17 698.86 153.507 683.144 156.831C667.428 160.155 664.871 153.507 664.871 153.507C664.871 153.507 647.184 167.214 635.984 163.296C624.785 159.378 620.853 150.182 620.853 150.182C620.853 150.182 613.585 167.807 593.937 162.519C575.069 157.424 576.249 142.347 576.249 142.347C576.249 142.347 534.397 158.795 533.021 126.092C531.851 93.0116 579.596 94.9759 579.596 94.9759Z" fill="white"/>
<path d="M181.533 220.373C181.533 220.373 175.638 164 236.568 164C297.498 164 281.19 219.593 281.19 219.593C281.19 219.593 288.461 205.841 300.261 210.356C312.05 214.872 308.128 228.039 308.128 228.039C308.128 228.039 321.293 214.287 340.96 226.664C349.802 232.165 345.479 242.971 345.479 242.971C345.479 242.971 375.559 242.387 378.897 257.308C382.234 272.435 303.609 266.545 303.609 266.545C303.609 266.545 288.472 282.852 280.616 282.852C272.749 282.852 269.411 280.892 269.411 280.892C269.411 280.892 245.822 301.131 220.271 299.95C194.72 298.77 180.958 280.308 180.958 280.308C180.958 280.308 175.649 283.643 165.236 283.643C154.822 283.643 148.917 273.821 148.917 273.821C148.917 273.821 128.665 286.198 114.914 282.268C101.152 278.337 99.7763 270.486 99.7763 270.486C99.7763 270.486 58.4918 273.042 55.1543 265.971C51.8169 258.705 103.71 255.565 103.71 255.565C103.71 255.565 112.162 241.228 135.751 241.813C135.535 241.986 140.259 220.373 181.533 220.373Z" fill="white"/>
<g clip-path="url(#clip1_10283_56744)">
<path d="M328.524 888.68C329.735 886.276 330.547 882.744 326.361 882.153C323.288 881.662 321.175 883.004 319.908 884.639L320.014 883.447C320.014 883.447 322.352 866.943 302.823 862.26C283.295 857.576 274.541 867.721 274.541 867.721C274.541 867.721 275.257 855.443 253.847 848.08C234.854 841.588 224.432 845.249 222.356 846.157C221.954 839.459 220.242 829.258 213.334 820.016C210.769 816.621 207.69 813.398 203.582 810.521C186.003 797.929 165.483 804.407 157.192 807.931L157.412 806.858C157.412 806.858 163.209 794.921 149.856 789.476C139.385 785.269 132.185 791.948 132.185 791.948C132.185 791.948 132.349 780.276 118.431 778.384C104.523 776.385 100.221 786.925 100.221 786.925C100.221 786.925 97.2521 778.251 87.5504 775.205C82.3381 773.541 77.6836 775.421 74.637 777.444L74.9613 776.599C74.9613 776.599 85.9103 759.986 78.0107 743.666C76.8523 741.269 75.1992 738.829 73.1655 736.464C56.952 718.312 37.2702 733.604 37.2702 733.604C37.2702 733.604 47.5348 716.275 22.1827 702.773C-3.16932 689.272 -18.6023 708.654 -18.6023 708.654L-24.1048 711.66L-39.2429 882.126L377.55 919.139L379.003 912.605C379.003 912.605 382.853 897.328 364.109 888.018C346.801 879.381 330.885 887.361 328.524 888.68Z" fill="#C4C5FD"/>
<path d="M291.535 763.393C291.146 762.157 287.445 753.308 270.996 751.848C270.996 751.848 270.062 744.119 264.62 743.636C259.302 743.164 260.578 751.25 260.578 751.25C260.578 751.25 256.454 745.751 252.551 747.588C248.649 749.426 251.67 753.299 251.67 753.299C251.67 753.299 232.06 753.742 226.026 765.549C226.026 765.549 226.203 759.338 222.729 760.559C219.265 761.671 218.88 766.006 218.88 766.006C218.88 766.006 211.623 753.675 191.739 753.001C191.739 753.001 175.839 735.533 155.915 735.293C155.915 735.293 157.618 725.942 152.109 726.217C146.724 726.503 146.614 731.955 146.614 731.955C146.614 731.955 144.867 727.758 141.157 727.429C137.57 727.11 138.829 733.994 138.79 734.428C138.477 733.744 130.851 719.96 107.956 722.296C84.4439 724.577 78.8901 740.795 78.8901 740.795L77.5653 743.08C85.4649 759.401 74.516 776.014 74.516 776.014L74.1916 776.859C77.2383 774.836 81.8928 772.955 87.1051 774.62C96.8068 777.666 99.776 786.34 99.776 786.34C99.776 786.34 104.078 775.799 117.986 777.799C131.894 779.799 131.74 791.363 131.74 791.363C131.74 791.363 138.939 784.684 149.411 788.891C162.763 794.336 156.967 806.273 156.967 806.273L156.747 807.346C165.037 803.822 185.557 797.343 203.137 809.936C207.244 812.813 210.324 816.036 212.889 819.431L213.813 818.858C253.786 806.679 297.439 796.575 343.878 788.794L343.441 788.099C343.441 788.099 333.436 774.432 312.41 772.565C312.41 772.565 312.151 765.66 308.441 765.331C304.73 765.001 303.137 768.901 303.137 768.901C303.137 768.901 302.367 759.33 296.116 759.54C291.072 760.184 291.346 762.721 291.535 763.393Z" fill="#FEE782"/>
<path d="M470.278 742.452C469.953 743.297 470.228 744.414 470.636 745.433C470.684 744.891 470.657 743.796 470.278 742.452Z" fill="#27AAE1"/>
<path d="M688.535 758.018C688.706 757.487 690.846 748.83 684.415 748.259C677.86 747.677 674.934 752.551 674.934 752.551C674.934 752.551 674.866 735.069 657.619 732.773C640.371 730.476 633.721 739.388 633.721 739.388C633.721 739.388 630.824 715.866 597.002 713.518C563.171 711.278 559.707 730.631 559.707 730.631C559.707 730.631 554.692 712.71 532.171 713.659C509.649 714.608 509.109 730.507 509.109 730.507C509.109 730.507 500.183 722.942 487.039 727.782C474.027 732.525 482.093 744.163 482.436 744.522C482.084 744.272 476.352 738.629 471.916 740.857C471.136 741.224 470.717 741.733 470.535 742.372C470.914 743.717 470.942 744.811 470.894 745.353C470.486 744.334 470.211 743.217 470.535 742.372C469.701 739.131 466.756 734.391 457.386 733.231C442.593 731.372 440.326 742.857 440.326 742.857C440.326 742.857 438.231 735.572 425.073 734.949C411.915 734.327 412.031 741.437 412.031 741.437C412.031 741.437 411.721 728.084 396.976 725.682C390.584 724.678 386.054 725.149 382.98 726.078C382.98 726.078 394.436 716.391 389.233 714.618C386.694 713.737 383.828 715.121 381.429 716.874L381.687 715.368C381.687 715.368 384.278 703.037 371.885 699.425C371.885 699.425 385.188 678.761 368.768 667.145C352.348 655.529 338.53 667.955 338.53 667.955C338.53 667.955 340.597 655.906 318.775 651.783L318.404 651.75C319.138 640.675 315.095 621.638 284.741 605.508C239.98 581.763 212.047 608.555 210.409 610.157C211.238 609.248 219.325 599.59 212.955 595.529C210.834 594.139 208.826 594.288 207.018 595.001L206.809 594.546C207.334 592.845 214.084 570.18 188.291 550.413C166.7 533.86 139.944 534.761 130.381 535.768L130.286 535.432C130.81 535.151 136.569 532.058 133.633 528.63C132.055 526.742 128.344 527.832 125.098 529.292C125.098 529.292 138.079 488.393 110.292 464.408C88.0665 445.177 53.7979 452.073 41.0163 455.635L41.1029 454.66C41.1029 454.66 52.0008 441.428 37.428 428.666C37.428 428.666 56.1935 406.849 36.1379 387.046C24.5704 375.533 13.0188 376.473 5.29018 379.282L-24.197 711.326L-18.6945 708.32C-18.6945 708.32 -3.26154 688.938 22.0905 702.439C47.4425 715.941 37.178 733.27 37.178 733.27C37.178 733.27 56.8695 717.87 73.0733 736.13C75.2307 738.506 76.7601 740.935 77.9184 743.332L79.2433 741.046C79.2433 741.046 84.7971 724.828 108.31 722.547C131.194 720.32 138.821 734.104 139.143 734.679C139.058 734.234 137.8 727.351 141.51 727.68C145.22 728.01 146.967 732.206 146.967 732.206C146.967 732.206 147.077 726.755 152.463 726.468C157.848 726.182 156.269 735.544 156.269 735.544C176.182 735.893 192.092 753.252 192.092 753.252C211.977 753.926 219.233 766.257 219.233 766.257C219.233 766.257 219.618 761.923 223.083 760.81C226.547 759.698 226.379 765.8 226.379 765.8C232.414 753.993 252.023 753.55 252.023 753.55C252.023 753.55 249.002 749.678 252.905 747.84C256.807 746.002 260.931 751.502 260.931 751.502C260.931 751.502 259.531 743.404 264.973 743.887C270.291 744.359 271.349 752.099 271.349 752.099C287.798 753.56 291.386 762.289 291.889 763.644C291.699 762.972 291.435 760.327 296.801 760.257C303.053 760.048 303.823 769.619 303.823 769.619C303.823 769.619 305.416 765.719 309.126 766.049C312.837 766.378 313.096 773.282 313.096 773.282C334.121 775.149 344.126 788.817 344.126 788.817L344.563 789.511C458.186 770.548 589.148 765.467 727.419 777.746C730.388 778.009 733.232 778.262 736.201 778.526L736.144 777.756C736.144 777.756 733.795 757.887 714.941 754.028C696.344 750.083 688.944 757.618 688.535 758.018Z" fill="#68D8A0"/>
<path d="M37.0438 733.36C37.0438 733.36 47.3084 716.031 21.9564 702.53C-3.39567 689.029 -18.8287 708.411 -18.8287 708.411L-24.3311 711.417L-6.62341 512.017C3.28322 509.948 18.4859 511.407 36.2509 528.932C63.0645 555.451 48.6138 582.02 43.8684 589.135C48.3265 583.851 65.2283 570.389 111.241 588.456C167.26 610.36 148.528 645.833 148.528 645.833C148.528 645.833 180.953 617.583 205.056 633.923C227.628 649.253 214.931 672.919 213.301 675.833C214.301 674.392 221.358 667.919 261.96 673.928C307.48 680.701 316.342 714.255 316.342 714.255C316.342 714.255 316.823 708.837 325.481 709.606C331.912 710.177 332.349 720.701 332.115 726.141C332.614 721.926 334.343 715.089 339.841 716.342C347.784 718.14 339.908 743.654 339.908 743.654C339.908 743.654 352.05 733.264 378.874 740.015C405.698 746.766 402.64 760.147 402.64 760.147C402.64 760.147 405.883 751.697 418.821 753.393C431.759 755.088 434.796 763.003 434.796 763.003C434.796 763.003 438.04 754.553 453.932 751.049C469.825 747.546 481.753 760.62 481.753 760.62C481.753 760.62 480.804 757.259 485.944 755.531C491.084 753.802 496.264 758.631 496.264 758.631C496.264 758.631 493.509 754.564 497.508 751.642C501.507 748.721 514.534 756.431 514.534 756.431C514.534 756.431 512.645 742.61 531.534 740.465C550.422 738.319 561.443 754.589 561.443 754.589C561.443 754.589 566.074 737.525 593.002 736.093C612.412 735.087 619.887 747.765 622.62 754.889C622.376 752.027 623.273 748.94 628.62 749.087C638.563 749.423 641.833 761.729 641.833 761.729C641.833 761.729 642.692 759.074 665.572 761.106C688.452 763.138 696.766 774.799 696.766 774.799L695.377 775.003C568.9 766.065 449.23 771.712 344.211 789.255L343.774 788.561C343.774 788.561 333.769 774.893 312.743 773.026C312.743 773.026 312.484 766.122 308.774 765.792C305.063 765.463 303.471 769.363 303.471 769.363C303.471 769.363 302.7 759.792 296.449 760.001C290.949 760.168 291.346 762.716 291.536 763.388C291.023 762.141 287.445 753.303 270.996 751.843C270.996 751.843 270.062 744.114 264.62 743.631C259.302 743.159 260.578 751.245 260.578 751.245C260.578 751.245 256.455 745.746 252.552 747.583C248.649 749.421 251.671 753.294 251.671 753.294C251.671 753.294 232.061 753.737 226.026 765.544C226.026 765.544 226.204 759.333 222.73 760.554C219.266 761.666 218.881 766.001 218.881 766.001C218.881 766.001 211.624 753.67 191.739 752.996C191.739 752.996 175.839 735.528 155.916 735.288C155.916 735.288 157.619 725.937 152.11 726.212C146.724 726.498 146.614 731.95 146.614 731.95C146.614 731.95 144.868 727.753 141.157 727.424C137.571 727.105 138.829 733.989 138.914 734.434C138.601 733.75 130.965 720.075 107.957 722.291C84.4444 724.572 78.8906 740.79 78.8906 740.79L77.5658 743.075C76.4074 740.679 74.7543 738.238 72.7206 735.873C56.7353 717.961 37.0438 733.36 37.0438 733.36Z" fill="#5DC18D"/>
<path opacity="0.35" d="M296.304 911.809C296.304 911.809 291.282 891.157 270.161 890.373C249.04 889.59 248.229 891.702 248.229 891.702C248.229 891.702 249.809 880.92 233.78 878.951C217.75 876.981 215.461 881.693 215.461 881.693C215.461 881.693 217.482 858.935 186.852 852.939C156.221 846.942 150.023 860.59 150.023 860.59C150.023 860.59 155.988 842.552 144.953 840.48C133.918 838.408 131.623 850.218 131.623 850.218C131.623 850.218 141.587 829.258 131.122 827.783C120.658 826.308 119.792 836.061 119.792 836.061C119.792 836.061 120.005 812.597 93.4629 809.693C66.9204 806.79 62.1033 818.923 62.1033 818.923C62.1033 818.923 65.7389 799.04 37.8224 790.553C37.8224 790.553 44.8867 767.151 21.7249 761.271C-1.43703 755.392 -3.01778 766.174 -3.01778 766.174C-3.01778 766.174 3.1947 738.327 -16.8753 732.722L-22.6742 727.838L-36.1474 879.555" fill="#8E8EE5"/>
<path d="M74.8549 776.368C74.8549 776.368 89.2725 754.384 73.0686 736.124C56.8552 717.973 37.1733 733.264 37.1733 733.264C37.1733 733.264 47.4378 715.935 22.0858 702.434C-3.26626 688.933 -18.6993 708.315 -18.6993 708.315" stroke="#231F20" stroke-width="1.74483" stroke-miterlimit="10" stroke-linecap="round" stroke-linejoin="round"/>
<path d="M735.791 777.502C735.791 777.502 733.442 757.633 714.588 753.774C695.734 749.915 688.409 758.003 688.409 758.003C688.409 758.003 690.855 748.717 684.3 748.135C677.745 747.553 674.819 752.427 674.819 752.427C674.819 752.427 674.751 734.945 657.503 732.649C640.256 730.352 633.606 739.264 633.606 739.264C633.606 739.264 630.709 715.742 596.887 713.394C563.056 711.154 559.592 730.507 559.592 730.507C559.592 730.507 554.577 712.586 532.055 713.535C509.533 714.484 508.994 730.383 508.994 730.383C508.994 730.383 500.067 722.818 486.923 727.658C473.779 732.498 482.31 744.506 482.31 744.506C482.31 744.506 476.36 738.516 471.667 740.83C466.974 743.144 474.284 750.674 474.284 750.674" stroke="#231F20" stroke-width="1.74483" stroke-miterlimit="10" stroke-linecap="round" stroke-linejoin="round"/>
<path d="M470.617 745.649C470.617 745.649 471.807 735.051 457.005 733.3C442.202 731.548 439.945 742.926 439.945 742.926C439.945 742.926 437.849 735.64 424.692 735.018C411.534 734.395 411.65 741.505 411.65 741.505C411.65 741.505 411.34 728.152 396.595 725.751C381.85 723.349 376.963 729.25 376.963 729.25" stroke="#231F20" stroke-width="1.74483" stroke-miterlimit="10" stroke-linecap="round" stroke-linejoin="round"/>
<path d="M382.599 726.149C382.599 726.149 394.054 716.462 388.852 714.69C383.649 712.917 376.848 720.723 376.848 720.723" stroke="#231F20" stroke-width="1.74483" stroke-miterlimit="10" stroke-linecap="round" stroke-linejoin="round"/>
<path d="M381.435 715.342C381.435 715.342 384.026 703.011 371.633 699.399C371.633 699.399 384.936 678.735 368.516 667.119C352.096 655.503 338.278 667.929 338.278 667.929C338.278 667.929 340.345 655.88 318.523 651.757" stroke="#231F20" stroke-width="1.74483" stroke-miterlimit="10" stroke-linecap="round" stroke-linejoin="round"/>
<path d="M316.063 661.262C316.063 661.262 330.423 630.097 284.473 605.701C238.524 581.305 210.141 610.35 210.141 610.35C210.141 610.35 219.419 599.924 212.697 595.613C205.965 591.411 200.617 601.094 200.617 601.094" stroke="#231F20" stroke-width="1.74483" stroke-miterlimit="10" stroke-linecap="round" stroke-linejoin="round"/>
<path d="M206.417 594.725C206.417 594.725 214.747 571.108 187.908 550.484C161.069 529.86 126.468 536.29 126.468 536.29" stroke="#231F20" stroke-width="1.74483" stroke-miterlimit="10" stroke-linecap="round" stroke-linejoin="round"/>
<path d="M129.904 535.5C129.904 535.5 136.425 532.256 133.25 528.698C130.076 525.139 119.213 532.366 119.213 532.366" stroke="#231F20" stroke-width="1.74483" stroke-miterlimit="10" stroke-linecap="round" stroke-linejoin="round"/>
<path d="M124.972 529.278C124.972 529.278 137.953 488.38 110.167 464.395C82.38 440.41 35.7609 457.241 35.7609 457.241" stroke="#231F20" stroke-width="1.74483" stroke-miterlimit="10" stroke-linecap="round" stroke-linejoin="round"/>
<path d="M40.8526 454.634C40.8526 454.634 51.7506 441.403 37.1777 428.64C37.1777 428.64 55.9432 406.823 35.8876 387.02C15.8319 367.217 -4.01358 384.351 -4.01358 384.351" stroke="#231F20" stroke-width="1.74483" stroke-miterlimit="10" stroke-linecap="round" stroke-linejoin="round"/>
<path d="M45.7666 477.898C45.7666 477.898 54.7234 483.718 49.3433 488.155C43.9631 492.592 34.9539 491.574 31.4707 483.073C31.4707 483.073 24.8947 493.957 15.3402 486.446C5.77605 479.043 11.5754 474.097 15.0316 471.673C15.0316 471.673 5.73654 471.066 3.29902 463.423C0.871124 455.671 14.2311 454.017 20.6292 459.173C20.6292 459.173 18.428 453.079 23.0921 451.091C27.7562 449.102 40.8232 454.959 42.2949 458.039C43.7761 461.01 40.7102 463.25 40.7102 463.25C40.7102 463.25 55.6202 462.389 56.6973 469.912C58.644 483.083 45.7666 477.898 45.7666 477.898Z" fill="white" stroke="#231F20" stroke-width="1.16322" stroke-miterlimit="10" stroke-linecap="round" stroke-linejoin="round"/>
<path d="M28.9556 474.056C24.4396 472.547 21.6946 469.092 22.8245 466.34C23.9544 463.589 28.5314 462.581 33.0474 464.091C37.5635 465.601 40.3085 469.055 39.1786 471.807C38.0487 474.559 33.4717 475.566 28.9556 474.056Z" fill="#FEE782" stroke="#231F20" stroke-width="1.16322" stroke-miterlimit="10" stroke-linecap="round" stroke-linejoin="round"/>
<path d="M178.365 618.67C178.365 618.67 185.678 612.111 192.485 618.286C199.281 624.569 192.613 632.278 190.909 633.219C190.909 633.219 200.324 638.096 196.253 646.036C192.182 653.975 179.908 644.802 179.908 644.802C179.908 644.802 181.59 656.748 169.509 653.818C157.562 650.791 163.263 639.938 163.263 639.938C163.263 639.938 154.259 643.071 148.644 634.708C143.03 626.345 155.821 622.675 160.586 623.754C160.586 623.754 155.656 616.107 162.929 612.821C170.448 609.557 175.24 613.15 178.365 618.67Z" fill="white" stroke="#231F20" stroke-width="1.16322" stroke-miterlimit="10" stroke-linecap="round" stroke-linejoin="round"/>
<path d="M172.239 638.596C167.272 637.599 164.062 633.321 165.067 629.041C166.073 624.761 170.915 622.1 175.881 623.096C180.847 624.093 184.058 628.371 183.052 632.651C182.047 636.931 177.205 639.593 172.239 638.596Z" fill="#FEE782" stroke="#231F20" stroke-width="1.16322" stroke-miterlimit="10" stroke-linecap="round" stroke-linejoin="round"/>
<path d="M340.29 728.179C340.29 728.179 345.3 723.709 349.91 727.941C354.52 732.173 350.062 737.457 348.881 738.117C348.881 738.117 355.319 741.419 352.593 746.857C349.866 752.294 341.452 745.976 341.452 745.976C341.452 745.976 342.595 754.161 334.424 752.124C326.253 750.088 330.152 742.679 330.152 742.679C330.152 742.679 323.985 744.753 320.251 739.069C316.394 733.375 325.093 730.871 328.394 731.601C328.394 731.601 324.993 726.384 330.047 724.211C334.854 722.017 338.134 724.383 340.29 728.179Z" fill="white" stroke="#231F20" stroke-width="1.16322" stroke-miterlimit="10" stroke-linecap="round" stroke-linejoin="round"/>
<path d="M336.061 741.845C332.706 741.172 330.544 738.25 331.233 735.318C331.922 732.387 335.2 730.556 338.556 731.23C341.912 731.903 344.073 734.826 343.384 737.757C342.696 740.688 339.417 742.519 336.061 741.845Z" fill="#FEE782" stroke="#231F20" stroke-width="1.16322" stroke-miterlimit="10" stroke-linecap="round" stroke-linejoin="round"/>
<path d="M47.3022 690.811C47.3022 690.811 46.8147 683.668 54.1694 683.666C61.6478 683.675 63.2388 691.025 62.9997 692.314C62.9997 692.314 70.9082 690.286 73.9752 696.456C77.0422 702.627 64.967 703.848 64.967 703.848C64.967 703.848 73.4484 709.407 65.585 713.733C57.598 718.048 53.4964 709.492 53.4964 709.492C53.4964 709.492 50.9594 715.602 42.7596 713.891C34.5502 712.288 38.5357 703.904 41.6868 702.108C41.6868 702.108 34.3432 700.583 35.9471 695.155C37.551 689.727 42.1944 689.374 47.3022 690.811Z" fill="white" stroke="#231F20" stroke-width="1.16322" stroke-miterlimit="10" stroke-linecap="round" stroke-linejoin="round"/>
<path d="M47.43 702.915C45.1805 700.141 45.8762 696.342 48.984 694.431C52.0918 692.52 56.4348 693.22 58.6843 695.994C60.9339 698.769 60.2381 702.567 57.1303 704.478C54.0225 706.389 49.6796 705.689 47.43 702.915Z" fill="#FEE782" stroke="#231F20" stroke-width="1.16322" stroke-miterlimit="10" stroke-linecap="round" stroke-linejoin="round"/>
<path d="M343.773 788.564C343.773 788.564 333.768 774.896 312.743 773.029C312.743 773.029 312.483 766.125 308.773 765.796C305.063 765.466 303.47 769.366 303.47 769.366C303.47 769.366 302.699 759.795 296.448 760.004C290.197 760.214 291.516 763.608 291.516 763.608C291.516 763.608 288.672 753.525 270.986 751.954C270.986 751.954 270.052 744.226 264.61 743.742C259.292 743.27 260.568 751.357 260.568 751.357C260.568 751.357 256.444 745.857 252.542 747.695C248.639 749.533 251.66 753.406 251.66 753.406C251.66 753.406 232.051 753.849 226.016 765.655C226.016 765.655 226.194 759.445 222.72 760.666C219.255 761.778 218.87 766.113 218.87 766.113C218.87 766.113 211.614 753.781 191.729 753.108C191.729 753.108 175.829 735.64 155.906 735.4C155.906 735.4 157.609 726.048 152.099 726.324C146.714 726.61 146.604 732.061 146.604 732.061C146.604 732.061 144.857 727.865 141.147 727.536C137.437 727.206 138.894 734.654 138.894 734.654C138.894 734.654 131.459 720.122 107.947 722.403C84.434 724.684 78.8803 740.902 78.8803 740.902" stroke="#231F20" stroke-width="1.74483" stroke-miterlimit="10" stroke-linecap="round" stroke-linejoin="round"/>
<path d="M624.704 783.364C624.704 783.364 622.807 776.642 613.188 776.88C603.569 777.118 609.973 756.934 596.615 757.168C583.256 757.401 586.927 777.824 586.927 777.824C586.927 777.824 584.727 770.311 579.189 770.912C573.775 771.523 573.569 778.058 573.569 778.058C573.569 778.058 569.31 774.075 565.007 776.206C560.705 778.336 560.979 779.452 559.333 779.743C557.696 779.925 542.624 781.208 542.624 781.208" fill="#B4FFC7"/>
<path d="M624.704 783.364C624.704 783.364 622.807 776.642 613.188 776.88C603.569 777.118 609.973 756.934 596.615 757.168C583.256 757.401 586.927 777.824 586.927 777.824C586.927 777.824 584.727 770.311 579.189 770.912C573.775 771.523 573.569 778.058 573.569 778.058C573.569 778.058 569.31 774.075 565.007 776.206C560.705 778.336 560.979 779.452 559.333 779.743C557.696 779.925 542.624 781.208 542.624 781.208" stroke="#231F20" stroke-width="1.74483" stroke-miterlimit="10" stroke-linecap="round" stroke-linejoin="round"/>
<path d="M223.217 700.304C223.217 700.304 231.533 681.054 210.478 671.102C189.423 661.15 176.44 675.397 176.44 675.397" stroke="#231F20" stroke-width="1.74483" stroke-miterlimit="10" stroke-linecap="round" stroke-linejoin="round"/>
<path d="M180.908 671.432C180.908 671.432 179.508 663.335 168.223 664.08" stroke="#231F20" stroke-width="1.74483" stroke-miterlimit="10" stroke-linecap="round" stroke-linejoin="round"/>
<path d="M378.88 912.591C378.88 912.591 382.73 897.314 363.986 888.004C345.243 878.694 328.135 888.861 328.135 888.861" stroke="#231F20" stroke-width="1.74483" stroke-miterlimit="10" stroke-linecap="round" stroke-linejoin="round"/>
<path d="M320.024 883.335C320.024 883.335 322.362 866.831 302.834 862.148C283.305 857.465 274.551 867.61 274.551 867.61C274.551 867.61 275.267 855.331 253.858 847.969C234.864 841.476 224.442 845.138 222.367 846.046" stroke="#231F20" stroke-width="1.74483" stroke-miterlimit="10" stroke-linecap="round" stroke-linejoin="round"/>
<path d="M222.072 853.557C222.072 853.557 226.086 826.608 203.467 810.4C180.848 794.192 153.308 809.55 153.308 809.55" stroke="#231F20" stroke-width="1.74483" stroke-miterlimit="10" stroke-linecap="round" stroke-linejoin="round"/>
<path d="M157.309 806.627C157.309 806.627 163.106 794.69 149.753 789.245C139.282 785.038 132.082 791.717 132.082 791.717C132.082 791.717 132.246 780.044 118.328 778.153C104.42 776.153 100.119 786.694 100.119 786.694C100.119 786.694 97.1493 778.02 87.4476 774.974C77.7459 771.928 70.3537 780.774 70.3537 780.774" stroke="#231F20" stroke-width="1.74483" stroke-miterlimit="10" stroke-linecap="round" stroke-linejoin="round"/>
<path d="M43.7313 844.71C43.7313 844.71 44.658 831.467 21.3874 829.619" stroke="#231F20" stroke-width="1.74483" stroke-miterlimit="10" stroke-linecap="round" stroke-linejoin="round"/>
</g>
<g clip-path="url(#clip2_10283_56744)">
<path d="M-193.826 970.582C-13.5725 846.654 277.519 766.109 605.937 766.273C863.794 766.436 1098.57 816.04 1274.73 897.567" stroke="#231F20" stroke-width="2.97729" stroke-miterlimit="10" stroke-linecap="round" stroke-linejoin="round"/>
<path d="M1267.85 900.186C1257.7 913.119 1254.1 928.18 1252.95 938.166C1250.33 936.529 1237.07 929.654 1211.37 936.857C1182.39 945.042 1181.9 963.541 1181.9 963.541C1181.9 963.541 1171.58 947.171 1145.39 951.591C1119.19 956.011 1120.34 981.058 1120.34 981.058V982.859C1118.87 980.403 1116.25 978.112 1112.15 978.275C1106.42 978.603 1107.24 984.005 1108.55 987.77C1105.6 985.642 1085.63 971.399 1061.89 982.041C1036.19 993.5 1039.46 1016.91 1039.46 1016.91L1040.61 1026.9H-97.7243L-96.5782 1019.37C-96.5782 1019.37 -96.5782 999.721 -120.809 992.354C-144.384 985.151 -156.99 997.102 -157.645 997.593C-157.645 997.102 -154.698 981.058 -176.145 973.855C-197.756 966.488 -212.163 979.585 -212.163 979.585C-212.163 979.585 -211.672 978.603 -211.181 976.966L-209.708 975.82L-197.92 969.599V969.762C-130.795 924.088 -48.6088 884.47 45.0381 852.71C91.0429 837.158 139.831 823.406 191.075 811.783C282.43 791.319 381.152 777.404 484.622 771.511C518.02 769.546 552.074 768.564 586.454 768.236C590.22 768.236 594.149 768.236 598.078 768.236C631.149 768.236 663.729 769.055 695.982 770.692C842.019 777.895 978.887 801.142 1099.38 836.83C1159.47 854.675 1215.62 875.63 1266.7 899.204L1267.85 900.186Z" fill="#B4FFC7"/>
<path d="M408.656 1027.06H-97.7243L-96.5782 1019.53C-96.5782 1019.53 -96.5782 999.884 -120.809 992.517C-144.384 985.314 -156.99 997.265 -157.645 997.756C-157.645 997.265 -154.698 981.221 -176.145 974.018C-197.756 966.651 -212.163 979.748 -212.163 979.748C-212.163 979.748 -211.672 978.766 -211.181 977.129L-209.708 975.983L-197.92 969.762V969.925C-130.795 924.25 -48.6088 884.633 45.0381 852.873C91.0429 837.321 139.831 823.569 191.075 811.946C282.43 791.319 381.152 777.403 484.622 771.51C426.993 785.098 25.5556 880.54 -50.4097 935.219C-132.269 994.154 -88.0649 989.243 78.9278 987.606C203.026 986.46 344.151 1013.14 408.656 1027.06Z" fill="#78E7B3"/>
<path d="M1267.85 900.186C1257.7 913.119 1254.1 928.181 1252.95 938.167C1250.33 936.53 1237.07 929.654 1211.37 936.857C1182.39 945.043 1181.9 963.542 1181.9 963.542C1181.9 963.542 1171.58 947.171 1145.39 951.591C1119.19 956.011 1120.34 981.059 1120.34 981.059V982.86C1118.87 980.404 1116.25 978.112 1112.15 978.276C1106.42 978.603 1107.24 984.006 1108.55 987.771C1105.6 985.643 1085.63 971.4 1061.89 982.041C1036.19 993.501 1039.46 1016.91 1039.46 1016.91L1040.61 1026.9H688.123C884.585 1013.96 1186.32 963.542 1179.28 910.5C1171.42 853.529 745.097 779.042 695.982 770.692C842.018 777.896 978.887 801.142 1099.38 836.831C1159.47 854.675 1215.62 875.63 1266.7 899.204L1267.85 900.186Z" fill="#78E7B3"/>
<path d="M512.943 804.254C512.943 804.254 330.398 818.169 320.574 831.266C310.751 844.363 329.579 845.181 367.234 843.544C404.889 841.907 484.784 830.12 516.545 829.138C548.307 828.155 575.811 806.71 512.943 804.254Z" fill="#78E7B3"/>
<path d="M683.211 805.073C683.211 805.073 811.73 800.981 862.483 811.622C913.236 822.263 923.059 823.9 915.691 831.267C908.324 838.634 775.712 828.811 751.154 827.993C726.597 827.174 621.653 832.904 683.211 805.073Z" fill="#78E7B3"/>
<path d="M55.1886 878.742C55.1886 878.742 251.651 877.105 254.106 895.113C256.562 913.121 210.721 908.21 210.721 908.21C210.721 908.21 216.451 898.387 211.54 896.75C206.628 895.113 197.623 904.935 197.623 904.935C197.623 904.935 188.619 890.202 185.345 888.564C182.07 886.927 183.707 911.484 183.707 911.484C183.707 911.484 101.03 916.395 87.1136 918.851C73.1976 921.306 39.6353 932.766 39.6353 932.766C39.6353 932.766 33.9052 946.681 35.5424 955.685C37.1795 964.689 49.4584 965.508 35.5424 976.967C21.6263 988.427 -56.1399 994.975 -74.1489 995.794C-92.1579 996.613 -106.893 1010.53 -110.167 994.975C-113.441 979.423 -117.534 968.782 -117.534 968.782" fill="#78E7B3"/>
<path d="M936.976 807.526C936.976 807.526 920.113 804.252 921.096 816.858C922.242 829.463 1010.65 839.777 1030.79 832.737" fill="#78E7B3"/>
<path d="M829.901 840.762C829.901 840.762 846.763 846.001 841.197 856.642C835.631 867.283 821.551 870.393 811.237 857.624C811.237 857.624 807.635 880.052 788.971 872.358C770.307 864.663 776.201 853.04 780.13 847.146C780.13 847.146 765.723 851.239 757.701 839.288C749.679 827.338 768.67 817.024 781.44 822.426C781.44 822.426 774.564 813.259 780.458 807.038C786.351 800.817 809.272 804.091 813.365 808.511C817.294 812.931 813.856 818.334 813.856 818.334C813.856 818.334 835.794 808.675 841.852 821.117C852.166 842.726 829.901 840.762 829.901 840.762Z" fill="white" stroke="#231F20" stroke-width="2.23297" stroke-miterlimit="10" stroke-linecap="round" stroke-linejoin="round"/>
<path d="M802.724 824.065C795.029 823.901 788.808 828.158 788.644 833.56C788.481 838.963 794.702 843.383 802.397 843.547C810.091 843.71 816.313 839.454 816.476 834.051C816.476 828.485 814.675 824.229 802.724 824.065Z" fill="#FEE782" stroke="#231F20" stroke-width="2.23297" stroke-miterlimit="10" stroke-linecap="round" stroke-linejoin="round"/>
<path d="M927.154 962.396C927.154 962.396 900.631 972.71 915.038 986.953C927.317 998.903 945.817 989.572 953.021 976.312C953.021 976.312 955.641 1001.69 979.38 995.957C1003.12 990.227 989.858 970.745 984.128 967.471C984.128 967.471 1007.87 970.909 1012.12 955.193C1016.38 939.477 996.079 940.459 981.017 944.061C981.017 944.061 999.845 930.473 977.743 927.363C955.641 924.252 948.273 939.313 948.273 939.313C948.273 939.313 926.171 933.092 915.202 943.733C903.578 955.357 927.154 962.396 927.154 962.396Z" fill="white" stroke="#231F20" stroke-width="2.23297" stroke-miterlimit="10" stroke-linecap="round" stroke-linejoin="round"/>
<path d="M956.459 966.49C968.033 966.49 977.415 962.239 977.415 956.995C977.415 951.751 968.033 947.5 956.459 947.5C944.886 947.5 935.504 951.751 935.504 956.995C935.504 962.239 944.886 966.49 956.459 966.49Z" fill="#FEE782" stroke="#231F20" stroke-width="2.23297" stroke-miterlimit="10" stroke-linecap="round" stroke-linejoin="round"/>
<path d="M382.626 803.434C382.626 803.434 358.723 812.766 371.657 825.535C382.79 836.34 399.325 827.991 406.038 815.876C406.038 815.876 408.493 838.795 429.94 833.557C451.388 828.318 439.436 810.801 434.197 807.854C434.197 807.854 455.644 810.965 459.573 796.722C463.503 782.479 445.166 783.462 431.578 786.736C431.578 786.736 448.441 774.458 428.631 771.675C408.821 768.892 402.108 782.479 402.108 782.479C402.108 782.479 382.135 776.75 372.312 786.408C361.342 797.213 382.626 803.434 382.626 803.434Z" fill="white" stroke="#231F20" stroke-width="2.23297" stroke-miterlimit="10" stroke-linecap="round" stroke-linejoin="round"/>
<path d="M408.984 807.201C419.383 807.201 427.812 803.389 427.812 798.688C427.812 793.986 419.383 790.175 408.984 790.175C398.586 790.175 390.157 793.986 390.157 798.688C390.157 803.389 398.586 807.201 408.984 807.201Z" fill="#FEE782" stroke="#231F20" stroke-width="2.23297" stroke-miterlimit="10" stroke-linecap="round" stroke-linejoin="round"/>
<path d="M160.787 953.232C160.787 953.232 139.503 946.357 137.539 961.418C135.574 976.479 147.689 990.067 167.826 984.337C167.826 984.337 155.056 1010.2 180.105 1015.77C205.154 1021.34 207.61 1005.13 207.937 996.124C207.937 996.124 219.725 1010.86 237.079 1004.31C254.433 997.761 241.991 973.205 224.8 969.44C224.8 969.44 238.716 964.856 237.079 954.378C235.442 943.901 209.247 930.149 201.88 931.787C194.512 933.424 194.021 941.609 194.021 941.609C194.021 941.609 178.141 915.579 162.915 923.929C136.229 938.99 160.787 953.232 160.787 953.232Z" fill="white" stroke="#231F20" stroke-width="2.23297" stroke-miterlimit="10" stroke-linecap="round" stroke-linejoin="round"/>
<path d="M209.027 975.908C212.834 970.296 209.368 961.304 201.286 955.823C193.204 950.342 183.567 950.448 179.761 956.06C175.954 961.672 179.42 970.665 187.502 976.146C195.584 981.627 205.221 981.52 209.027 975.908Z" fill="#FEE782" stroke="#231F20" stroke-width="2.23297" stroke-miterlimit="10" stroke-linecap="round" stroke-linejoin="round"/>
<path d="M389.501 899.527C389.501 899.527 372.638 904.766 378.205 915.407C383.771 926.048 397.851 929.158 408.165 916.389C408.165 916.389 411.767 938.817 430.431 931.123C449.095 923.428 443.201 911.805 439.435 905.912C439.435 905.912 453.843 910.004 461.865 898.054C469.887 886.103 450.896 875.789 438.126 881.191C438.126 881.191 445.002 872.024 439.108 865.803C433.214 859.746 410.294 862.856 406.201 867.276C402.271 871.696 405.709 877.099 405.709 877.099C405.709 877.099 383.771 867.44 377.714 879.882C367.236 901.491 389.501 899.527 389.501 899.527Z" fill="white" stroke="#231F20" stroke-width="2.23297" stroke-miterlimit="10" stroke-linecap="round" stroke-linejoin="round"/>
<path d="M416.994 902.137C424.678 901.998 430.829 897.562 430.733 892.228C430.636 886.895 424.329 882.684 416.645 882.823C408.961 882.962 402.81 887.399 402.906 892.732C403.003 898.065 409.31 902.276 416.994 902.137Z" fill="#FEE782" stroke="#231F20" stroke-width="2.23297" stroke-miterlimit="10" stroke-linecap="round" stroke-linejoin="round"/>
<path d="M592.675 980.403C581.543 981.222 562.388 964.36 584.817 944.715C607.246 925.07 639.663 927.034 639.663 927.034C639.663 927.034 640.481 915.247 664.22 913.938C687.96 912.628 714.973 911.482 717.429 928.671L716.61 931.946C716.61 931.946 731.672 927.853 757.867 941.768C784.062 955.683 800.107 976.474 796.832 986.788C793.558 997.102 764.907 1001.19 754.265 993.336" fill="white"/>
<path d="M592.675 980.403C581.543 981.222 562.388 964.36 584.817 944.715C607.246 925.07 639.663 927.034 639.663 927.034C639.663 927.034 640.481 915.247 664.22 913.938C687.96 912.628 714.973 911.482 717.429 928.671L716.61 931.946C716.61 931.946 731.672 927.853 757.867 941.768C784.062 955.683 800.107 976.474 796.832 986.788C793.558 997.102 764.907 1001.19 754.265 993.336" stroke="#231F20" stroke-width="2.23297" stroke-miterlimit="10" stroke-linecap="round" stroke-linejoin="round"/>
<path d="M620.507 961.574C620.507 961.574 579.905 984.494 580.887 1004.14C581.869 1023.78 600.861 1042.12 632.458 1042.12C664.056 1042.12 673.06 1010.2 673.06 1010.2C673.06 1010.2 681.574 1051.45 719.72 1045.88C757.866 1040.32 766.871 1022.64 766.871 1013.96C766.871 1005.28 741.495 977.618 738.22 975.49" fill="white"/>
<path d="M620.507 961.574C620.507 961.574 579.905 984.494 580.887 1004.14C581.869 1023.78 600.861 1042.12 632.458 1042.12C664.056 1042.12 673.06 1010.2 673.06 1010.2C673.06 1010.2 681.574 1051.45 719.72 1045.88C757.866 1040.32 766.871 1022.64 766.871 1013.96C766.871 1005.28 741.495 977.618 738.22 975.49" stroke="#231F20" stroke-width="2.23297" stroke-miterlimit="10" stroke-linecap="round" stroke-linejoin="round"/>
<path d="M679.446 975.162C703.136 975.162 722.34 966.806 722.34 956.499C722.34 946.192 703.136 937.836 679.446 937.836C655.756 937.836 636.552 946.192 636.552 956.499C636.552 966.806 655.756 975.162 679.446 975.162Z" fill="#FEE782" stroke="#231F20" stroke-width="2.23297" stroke-miterlimit="10" stroke-linecap="round" stroke-linejoin="round"/>
<path d="M155.874 924.414C155.874 924.414 167.662 917.048 183.379 913.119C183.379 913.119 175.357 894.292 182.56 889.053C189.764 883.815 197.131 907.225 197.131 907.225C197.131 907.225 203.68 896.256 211.211 896.911C218.742 897.73 208.919 909.681 208.919 909.681C208.919 909.681 219.233 907.88 232.985 909.681" stroke="#231F20" stroke-width="2.23297" stroke-miterlimit="10" stroke-linecap="round" stroke-linejoin="round"/>
<path d="M402.599 982.205L413.569 980.568C413.569 980.568 405.874 967.962 411.931 966.325C417.989 964.688 421.754 975.002 421.754 975.002C421.754 975.002 416.843 949.954 428.303 949.954C439.763 949.954 438.126 967.962 438.126 967.962C438.126 967.962 450.078 964.688 449.587 972.382C449.095 980.077 445.821 980.077 445.821 980.077L474.799 980.568" stroke="#231F20" stroke-width="2.23297" stroke-miterlimit="10" stroke-linecap="round" stroke-linejoin="round"/>
<path d="M560.915 829.302L580.07 828.811C580.07 828.811 563.698 814.568 571.393 813.586C579.088 812.44 582.853 818.497 582.853 818.497C582.853 818.497 582.853 798.852 592.185 799.343C601.517 799.834 597.097 819.479 597.097 819.479C597.097 819.479 605.774 812.931 609.048 815.059C612.323 817.187 602.499 828.647 602.499 828.647H627.548" stroke="#231F20" stroke-width="2.23297" stroke-miterlimit="10" stroke-linecap="round" stroke-linejoin="round"/>
<path d="M820.736 948.315H833.833C833.833 948.315 824.501 939.638 830.068 936.364C835.47 933.09 839.4 938.001 839.4 938.001C839.4 938.001 831.214 926.05 841.528 922.776C851.842 919.502 857.409 944.058 857.409 944.058C857.409 944.058 863.466 935.873 866.741 937.019C870.015 938.165 867.232 946.841 867.232 946.841H886.387" stroke="#231F20" stroke-width="2.23297" stroke-miterlimit="10" stroke-linecap="round" stroke-linejoin="round"/>
<path d="M190.42 795.743C190.42 795.743 180.925 780.518 167.172 789.686C153.584 799.018 161.442 816.207 163.898 818.663C163.898 818.663 146.38 824.393 149.982 841.091C153.584 857.789 177.486 844.856 177.486 844.856C177.486 844.856 170.119 866.957 191.075 865.811C212.031 864.665 206.956 841.746 206.956 841.746C206.956 841.746 220.544 851.077 233.151 837.326C245.757 823.738 226.111 811.623 217.597 811.951C217.597 811.951 228.73 799.345 217.925 790.341C206.956 781.501 197.624 786.412 190.42 795.743Z" fill="white" stroke="#231F20" stroke-width="2.23297" stroke-miterlimit="10" stroke-linecap="round" stroke-linejoin="round"/>
<path d="M192.712 836.016C201.302 836.016 208.265 829.126 208.265 820.627C208.265 812.128 201.302 805.238 192.712 805.238C184.122 805.238 177.159 812.128 177.159 820.627C177.159 829.126 184.122 836.016 192.712 836.016Z" fill="#FEE782" stroke="#231F20" stroke-width="2.23297" stroke-miterlimit="10" stroke-linecap="round" stroke-linejoin="round"/>
</g>
<path d="M926.961 776.44C949.131 809 895.871 879.31 805.991 887.48L805.441 887.65C805.911 885.13 805.951 883 805.491 881.48C801.991 869.98 780.821 861.65 780.821 861.65L779.761 861.71C779.831 861.63 779.911 861.55 779.991 861.48C779.991 861.48 776.091 859.66 769.901 856.85L772.491 855.48C772.491 855.48 821.361 838.96 847.151 817.62C849.811 820.11 853.041 821.28 856.991 820.48C870.191 817.8 863.141 777.86 860.271 763.96C876.421 759.3 893.431 758.06 909.351 763.75C902.691 782.58 900.451 812.05 915.741 810.48C922.331 809.8 926.321 791.05 926.961 776.44Z" fill="#67CBEF"/>
<path d="M931.241 726.48C931.681 727.02 944.051 744.9 942.741 750.48C941.411 756.15 924.241 746.98 924.241 746.98C924.241 746.98 932.161 756.23 930.491 758.23C929.541 759.37 930.061 760.089 924.671 759.279C924.961 759.729 925.231 760.21 925.491 760.73C926.801 763.4 927.261 769.44 926.961 776.44C926.321 791.05 922.331 809.8 915.741 810.48C900.451 812.05 902.691 782.58 909.351 763.75C893.431 758.06 876.421 759.3 860.271 763.96C863.141 777.86 870.191 817.8 856.991 820.48C853.041 821.28 849.811 820.109 847.151 817.619C838.391 809.449 835.931 787.009 835.251 773.889C813.791 784.579 796.411 798.53 789.151 804.74C788.791 804.71 788.401 804.659 787.991 804.579C783.731 803.749 777.421 800.01 779.941 784.69C780.021 784.14 780.131 783.57 780.241 782.98C780.741 780.42 781.511 777.99 782.481 775.69C790.691 756.18 813.491 745.98 813.491 745.98L814.231 744.559C808.821 746.219 799.561 748.809 798.161 747.649C797.011 746.689 800.801 740.14 804.241 734.73C806.801 730.71 809.161 727.309 809.161 727.309C809.161 727.309 803.821 728.309 803.161 726.309C802.491 724.309 818.161 704.649 818.161 704.649C818.161 704.649 813.101 693.969 810.781 684.839C809.201 678.649 808.871 673.17 812.241 672.23C813.911 671.76 816.121 671.989 818.591 672.669C828.461 675.329 842.491 684.98 842.491 684.98L842.661 685.579C852.321 679.929 877.951 668.489 911.341 681.319L912.491 680.98C912.491 680.98 914.191 680.409 916.811 679.569C924.781 677.029 933.981 672.23 937.491 673.48C942.161 675.15 924.991 700.48 924.991 700.48C924.991 700.48 941.911 722.4 939.241 724.73C936.651 727 924.151 726.89 931.241 726.48Z" fill="white"/>
<path d="M863.431 646.589L863.381 646.329C864.291 631.709 864.881 617.119 865.191 602.859L867.161 603.649C867.161 603.649 891.161 609.649 905.821 636.979C918.461 660.529 918.971 672.199 916.741 678.389L916.811 679.569C914.191 680.409 912.491 680.979 912.491 680.979L911.341 681.319C877.951 668.489 852.321 679.929 842.661 685.579L842.491 684.979C842.491 684.979 828.461 675.329 818.591 672.669L819.491 671.649C819.491 671.649 835.481 652.789 863.431 646.589Z" fill="#7AE584"/>
<path d="M714.961 545.959C710.071 548.399 705.701 549.449 701.851 549.449C686.151 549.449 679.111 531.919 681.491 518.479C682.301 513.889 684.211 509.78 687.241 507.01C687.571 506.71 687.901 506.419 688.231 506.149C695.201 500.499 702.361 502.029 707.991 505.229C712.311 503.959 718.681 500.529 723.491 491.309C731.491 475.979 727.161 452.649 727.161 452.649C727.161 452.649 740.821 458.979 756.821 454.979C772.821 450.979 771.161 439.309 771.161 439.309C771.161 439.309 784.491 453.979 799.821 452.649C815.161 451.309 817.161 437.649 817.161 437.649C817.161 437.649 833.311 448.77 849.571 445.76C850.601 448.06 851.571 450.469 852.491 452.979C856.021 462.629 858.891 477.009 861.021 494.679C864.391 522.589 865.921 558.719 865.291 597.49L863.991 598.529C858.551 603.259 842.991 613.479 805.491 619.479C755.491 627.479 720.491 605.979 720.491 605.979L719.481 605.219C719.521 602.749 719.521 600.329 719.491 597.979C719.391 590.589 719.011 583.359 718.441 576.289C717.621 565.809 716.371 555.689 714.961 545.959Z" fill="#FCD5D0"/>
<path d="M716.161 651.29C718.051 635.01 719.291 619.24 719.481 605.22L720.491 605.98C720.491 605.98 755.491 627.48 805.491 619.48C842.991 613.48 858.551 603.26 863.991 598.53L865.291 597.49C865.261 599.27 865.231 601.06 865.191 602.86C864.881 617.12 864.291 631.71 863.381 646.33L863.431 646.59C835.481 652.79 819.491 671.65 819.491 671.65L818.591 672.67C816.121 671.99 813.911 671.76 812.241 672.23C808.871 673.17 809.201 678.65 810.781 684.84L810.241 684.98C810.241 684.98 780.821 722.31 803.491 734.31L804.241 734.73C800.801 740.14 797.011 746.69 798.161 747.65C799.561 748.81 808.821 746.22 814.231 744.56L813.491 745.98C813.491 745.98 790.691 756.18 782.481 775.69L781.491 775.98C775.161 776.98 766.441 776.9 764.491 762.48C762.821 750.15 779.991 744.9 770.491 725.98C765.511 716.06 755.821 716.98 762.161 731.31C768.491 745.65 749.491 748.98 756.491 768.98C763.491 788.98 779.491 784.65 779.491 784.65L779.941 784.69C777.421 800.01 783.731 803.75 787.991 804.58C760.601 810.34 728.991 798.48 728.991 798.48L726.741 798.26C719.191 791.35 707.671 782.71 693.651 778.33C698.511 756.68 707.931 712.41 713.951 668.67C714.761 662.85 715.501 657.03 716.161 651.29Z" fill="#7AE584"/>
<path d="M862.241 440.479C862.241 440.479 877.991 475.479 862.491 492.979L861.021 494.679C858.891 477.009 856.021 462.629 852.491 452.979C851.571 450.469 850.601 448.059 849.571 445.759C851.551 445.389 853.541 444.809 855.491 443.979C857.681 443.049 859.741 441.519 861.631 439.539L862.241 440.479Z" fill="#F09D80"/>
<path d="M693.151 440.66C692.791 440.9 683.791 446.83 682.161 439.65C680.491 432.31 694.491 426.31 694.491 426.31C694.491 426.31 683.491 409.65 691.491 407.31C699.491 404.98 701.161 417.65 701.161 417.65C701.161 417.65 704.821 392.98 739.491 383.98C774.161 374.98 811.821 391.98 811.821 391.98C811.821 391.98 818.831 366.98 851.161 377.65C879.561 387.02 875.291 425.2 861.631 439.54C859.741 441.52 857.681 443.05 855.491 443.98C853.541 444.81 851.551 445.39 849.571 445.76C833.311 448.77 817.161 437.65 817.161 437.65C817.161 437.65 815.161 451.31 799.821 452.65C784.491 453.98 771.161 439.31 771.161 439.31C771.161 439.31 772.821 450.98 756.821 454.98C740.821 458.98 727.161 452.65 727.161 452.65C727.161 452.65 731.491 475.98 723.491 491.31C718.681 500.53 712.311 503.96 707.991 505.23C702.361 502.03 695.201 500.5 688.231 506.15L686.491 502.98C674.311 469.38 692.721 441.32 693.151 440.66Z" fill="#F09D80"/>
<path d="M810.781 684.84C813.101 693.97 818.161 704.65 818.161 704.65C818.161 704.65 802.491 724.31 803.161 726.31C803.821 728.31 809.161 727.31 809.161 727.31C809.161 727.31 806.801 730.71 804.241 734.73L803.491 734.31C780.821 722.31 810.241 684.98 810.241 684.98L810.781 684.84Z" fill="#FCD5D0"/>
<path d="M789.151 804.74C796.411 798.53 813.791 784.58 835.251 773.89C835.931 787.01 838.391 809.45 847.151 817.62C821.361 838.96 772.491 855.48 772.491 855.48L769.901 856.85C776.091 859.66 779.991 861.48 779.991 861.48C779.911 861.55 779.831 861.63 779.761 861.71C759.961 880.73 758.451 891.84 755.671 894.72C755.181 895.23 754.661 895.48 753.991 895.48C749.491 895.48 630.991 867.98 620.991 848.98C620.151 847.39 619.361 845.71 618.641 843.96C613.371 831.21 611.891 814.73 624.021 800C630.071 792.66 639.481 785.77 653.491 779.98C668.081 773.95 681.761 774.62 693.651 778.33C707.671 782.71 719.191 791.35 726.741 798.26L728.991 798.48C728.991 798.48 760.601 810.34 787.991 804.58C788.401 804.66 788.791 804.71 789.151 804.74Z" fill="#67CBEF"/>
<path d="M781.491 775.98L782.481 775.69C781.511 777.99 780.741 780.42 780.241 782.98C780.131 783.57 780.021 784.14 779.941 784.69L779.491 784.65C779.491 784.65 763.491 788.98 756.491 768.98C749.491 748.98 768.491 745.65 762.161 731.31C755.821 716.98 765.511 716.06 770.491 725.98C779.991 744.9 762.821 750.15 764.491 762.48C766.441 776.9 775.161 776.98 781.491 775.98Z" fill="white"/>
<path d="M805.441 887.649C802.351 904.139 781.041 937.679 764.991 932.479C748.851 927.249 745.271 906.399 756.251 895.199L755.671 894.719C758.451 891.839 759.961 880.729 779.761 861.709L780.821 861.649C780.821 861.649 801.991 869.979 805.491 881.479C805.951 882.999 805.911 885.129 805.441 887.649Z" fill="#808082"/>
<path d="M618.991 612.73C618.991 612.73 612.591 649.74 630.491 648.48C648.241 647.23 642.741 609.98 642.741 609.98L642.381 608.56C635.461 610.98 627.341 612.32 618.991 612.73ZM719.481 605.22C719.291 619.24 718.051 635.01 716.161 651.29L715.161 651.98C687.161 673.65 611.161 671.65 611.161 671.65L608.321 671.58C601.981 668.36 595.541 665.72 589.601 663.82L589.491 659.98C589.171 655.01 588.951 648.5 588.951 641C588.951 632.27 589.251 622.21 590.001 611.65L590.201 610.67C584.061 609.44 578.531 607.74 574.161 605.65C558.501 598.18 561.641 578.52 567.231 567.69C569.611 573.32 575.781 579.56 579.281 580.22C585.091 581.31 600.701 574.68 600.641 569.15C600.631 568.59 600.471 568.05 600.121 567.52C599.381 566.4 598.161 565.36 596.621 564.42L597.171 563.27C601.981 544.11 609.371 527.87 620.491 520.48C620.781 520.29 621.071 520.1 621.361 519.92C653.331 499.33 681.161 518.31 681.161 518.31L681.491 518.48C679.111 531.92 686.151 549.45 701.851 549.45L703.991 549.98C703.991 549.98 705.741 570.23 716.991 575.48L718.441 576.29C719.011 583.36 719.391 590.59 719.491 597.98C719.521 600.33 719.521 602.75 719.481 605.22Z" fill="#F8BF8D"/>
<path d="M718.441 576.29L716.991 575.48C705.741 570.23 703.991 549.98 703.991 549.98L701.851 549.45C705.701 549.45 710.071 548.4 714.961 545.96C716.371 555.69 717.621 565.81 718.441 576.29Z" fill="#F09D80"/>
<path d="M715.161 651.979L716.161 651.289C715.501 657.029 714.761 662.849 713.951 668.669L713.821 668.649C690.141 682.669 636.171 684.749 629.231 684.959C623.071 679.909 615.771 675.349 608.321 671.579L611.161 671.649C611.161 671.649 687.161 673.649 715.161 651.979Z" fill="#ADE2FF"/>
<path d="M629.231 684.96C642.231 695.65 650.111 708.56 643.491 720.98C638.231 730.85 609.291 729.17 588.121 716.89C577.121 710.52 568.221 701.28 565.821 689.31C558.971 655.05 587.721 641.56 588.951 641C588.951 648.5 589.171 655.01 589.491 659.98L589.601 663.82C595.541 665.72 601.981 668.36 608.321 671.58C615.771 675.35 623.071 679.91 629.231 684.96Z" fill="#FCD5D0"/>
<path d="M618.991 612.73C627.341 612.32 635.461 610.98 642.381 608.56L642.741 609.98C642.741 609.98 648.241 647.23 630.491 648.48C612.591 649.74 618.991 612.73 618.991 612.73Z" fill="#FF7083"/>
<path d="M653.491 779.979C639.481 785.769 630.071 792.66 624.021 800C623.721 799.93 623.421 799.859 623.121 799.789C617.191 798.309 611.501 796.03 606.661 792.74C579.511 815.199 518.961 841.889 512.491 817.979C505.991 793.979 565.991 779.479 578.491 765.479C585.661 757.449 588.061 751.229 588.801 747.389C588.001 736.719 587.941 725.789 588.121 716.889C609.291 729.169 638.231 730.849 643.491 720.979C650.111 708.559 642.231 695.649 629.231 684.959C636.171 684.749 690.141 682.669 713.821 668.649L713.951 668.669C707.931 712.409 698.511 756.679 693.651 778.329C681.761 774.619 668.081 773.949 653.491 779.979Z" fill="#F8BF8D"/>
<path d="M621.341 801.019L623.121 799.789C623.421 799.859 623.721 799.929 624.021 799.999C611.891 814.729 613.371 831.209 618.641 843.959C598.961 850.709 581.771 851.599 578.491 839.479C574.091 823.239 600.151 811.349 621.341 801.019Z" fill="#F8BF8D"/>
<path d="M596.491 530.48C605.491 519.48 621.241 519.73 621.241 519.73L621.361 519.92C621.071 520.1 620.781 520.29 620.491 520.48C609.371 527.87 601.981 544.11 597.171 563.27L596.621 564.42C593.011 562.19 587.661 560.48 582.641 559.47L583.161 557.37C586.711 547.22 591.301 536.83 596.491 530.48Z" fill="#F8BF8D"/>
<path d="M596.621 564.419C598.161 565.359 599.381 566.399 600.121 567.519C600.471 568.049 600.631 568.589 600.641 569.149C600.701 574.679 585.091 581.309 579.281 580.219C575.781 579.559 569.611 573.319 567.231 567.689C565.271 563.039 565.881 558.799 572.691 558.459C575.201 558.329 578.831 558.699 582.641 559.469C587.661 560.479 593.011 562.189 596.621 564.419Z" fill="#704C32"/>
<path d="M586.491 641.649L589.161 658.319L582.831 668.649C582.831 668.649 575.501 696.319 576.501 703.319C577.501 710.319 579.171 711.649 577.501 710.319C575.831 708.989 562.171 699.989 564.831 676.319C567.501 652.649 581.161 646.319 581.161 646.319" fill="#7AE584"/>
<path d="M591.312 566.11C591.726 564.222 588.856 561.989 584.901 561.123C580.947 560.256 577.406 561.085 576.992 562.973C576.579 564.861 579.449 567.094 583.403 567.96C587.358 568.827 590.899 567.998 591.312 566.11Z" fill="white"/>
<path opacity="0.25" d="M818.831 439.979L814.831 447.649C814.831 447.649 830.161 455.649 835.501 456.319C840.831 456.989 844.171 458.319 844.171 458.319L860.171 477.99L849.841 446.99C849.841 446.99 843.171 448.989 835.841 446.319" fill="#231F20"/>
<path opacity="0.25" d="M715.491 545.98L723.821 542.31C723.821 542.31 735.151 577.31 732.491 621.64C729.821 665.97 710.491 777.64 710.491 777.64L721.161 793.31L693.161 776.98C693.161 776.98 708.491 715.98 711.491 678.65C714.491 641.32 722.161 602.65 719.491 592.32C716.821 581.99 717.161 554.65 717.161 554.65" fill="#231F20"/>
<path opacity="0.25" d="M700.491 548.649L691.161 545.319C691.161 545.319 691.491 557.65 692.831 560.99C694.161 564.32 696.831 567.99 696.831 567.99C696.831 567.99 704.501 584.66 706.161 586.99C707.831 589.32 707.831 589.319 707.831 589.319C707.831 589.319 707.831 645.99 696.831 701.99C685.831 757.99 682.161 774.319 682.161 774.319C682.161 774.319 686.491 784.989 693.831 774.319C701.161 763.649 713.831 663.989 715.831 649.649C717.831 635.319 720.161 574.319 719.161 566.979C718.161 559.649 713.161 546.649 713.161 546.649" fill="#231F20"/>
<path opacity="0.25" d="M589.741 610.729C589.741 610.729 612.491 613.729 616.991 614.229C621.491 614.729 655.991 606.479 659.741 597.729C659.741 597.729 660.741 598.729 661.741 603.229C662.741 607.729 645.741 621.479 630.241 625.229C614.741 628.979 600.991 625.979 600.991 625.979C600.991 625.979 601.241 666.479 601.491 667.729C601.741 668.979 589.741 664.729 589.741 664.729C589.741 664.729 588.241 629.729 590.241 622.729" fill="#231F20"/>
<path opacity="0.25" d="M566.241 684.979C566.241 684.979 575.241 704.979 606.241 714.979C637.241 724.979 644.991 717.229 644.991 717.229C644.991 717.229 647.991 728.479 620.491 726.479C592.991 724.479 573.491 706.979 568.491 697.729" fill="#231F20"/>
<path opacity="0.25" d="M643.331 725.48C643.331 725.48 640.161 734.15 622.831 735.15C605.501 736.15 597.501 731.15 597.501 731.15C597.501 731.15 603.001 741.48 596.501 748.82C590.001 756.16 585.001 758.82 585.001 758.82C585.001 758.82 590.671 752.32 589.331 743.32C588.001 734.32 589.501 716.99 589.501 716.99C589.501 716.99 600.671 723.16 612.171 725.49" fill="#231F20"/>
<path opacity="0.25" d="M585.491 794.98C561.241 812.48 537.741 818.98 524.991 817.73C512.241 816.48 514.241 815.48 514.241 815.48C514.241 815.48 512.491 824.23 525.741 828.23C538.991 832.23 602.241 799.73 603.741 795.48L598.401 783.76C596.551 786.2 592.721 789.77 585.491 794.98Z" fill="#231F20"/>
<path opacity="0.25" d="M832.741 763.229C832.741 763.229 793.491 782.729 785.741 792.729C777.991 802.729 787.741 805.729 788.991 805.229C790.241 804.729 818.491 779.479 830.741 774.729L834.661 772.649" fill="#231F20"/>
<path opacity="0.25" d="M691.741 825.229C691.741 825.229 691.491 822.229 706.991 822.729C722.491 823.229 766.991 844.229 772.991 843.229C778.991 842.229 826.491 820.479 830.741 816.979C834.991 813.479 837.241 799.229 837.241 799.229L844.991 817.729C844.641 824.919 775.391 858.029 769.241 855.479C765.061 853.749 713.741 832.979 704.491 829.479" fill="#231F20"/>
<path opacity="0.25" d="M614.741 827.229C614.741 827.229 610.991 835.229 635.741 850.479C660.491 865.729 759.991 887.479 759.991 887.479C759.991 887.479 760.991 894.479 752.991 895.479C744.991 896.479 631.491 862.729 620.241 849.729" fill="#231F20"/>
<path opacity="0.25" d="M792.661 803.81C792.661 803.81 819.331 788.48 834.831 786.14L834.161 775.31" fill="#231F20"/>
<path opacity="0.25" d="M907.741 762.979L900.491 760.979C900.491 760.979 888.241 807.229 908.241 810.729C908.241 810.729 901.741 795.979 903.491 787.479C905.241 778.979 908.491 767.729 908.491 767.729" fill="#231F20"/>
<path opacity="0.25" d="M865.161 602.979C865.161 602.979 872.491 603.979 875.491 609.649C878.491 615.319 874.821 643.979 874.821 643.979L862.491 647.979" fill="#231F20"/>
<path opacity="0.25" d="M805.491 879.98C805.491 879.98 806.161 877.65 801.821 879.31C797.491 880.98 763.151 930.64 768.491 932.98C773.821 935.31 785.491 926.65 795.161 910.31C804.831 893.97 806.491 886.31 806.491 886.31" fill="#231F20"/>
<path d="M714.961 545.96C717.321 562.25 719.231 579.64 719.491 597.98C720.291 653.87 701.321 744.2 693.651 778.33" stroke="#231F20" stroke-width="4" stroke-miterlimit="10" stroke-linecap="round" stroke-linejoin="round"/>
<path d="M849.571 445.76C850.601 448.06 851.571 450.47 852.491 452.98C863.881 484.15 868.441 564.53 863.381 646.33" stroke="#231F20" stroke-width="4" stroke-miterlimit="10" stroke-linecap="round" stroke-linejoin="round"/>
<path d="M718.711 514.549C718.711 514.549 702.331 493.23 687.251 507.01C672.171 520.79 684.911 567.599 721.831 541.849" stroke="#231F20" stroke-width="4" stroke-miterlimit="10" stroke-linecap="round" stroke-linejoin="round"/>
<path d="M736.491 808.48C736.491 808.48 699.491 760.98 653.491 779.98C607.491 798.98 610.991 829.98 620.991 848.98C630.991 867.98 749.491 895.48 753.991 895.48C758.491 895.48 756.491 883.98 779.991 861.48C779.991 861.48 713.491 830.48 693.991 826.48" stroke="#231F20" stroke-width="4" stroke-miterlimit="10" stroke-linecap="round" stroke-linejoin="round"/>
<path d="M785.491 807.98C785.491 807.98 806.791 788.07 835.251 773.89" stroke="#231F20" stroke-width="4" stroke-miterlimit="10" stroke-linecap="round" stroke-linejoin="round"/>
<path d="M926.961 776.439C949.131 808.999 895.871 879.309 805.991 887.479" stroke="#231F20" stroke-width="4" stroke-miterlimit="10" stroke-linecap="round" stroke-linejoin="round"/>
<path d="M860.271 763.96C876.421 759.3 893.431 758.06 909.351 763.75" stroke="#231F20" stroke-width="4" stroke-miterlimit="10" stroke-linecap="round" stroke-linejoin="round"/>
<path d="M769.461 856.649L772.491 855.479C772.491 855.479 821.361 838.959 847.151 817.619" stroke="#231F20" stroke-width="4" stroke-miterlimit="10" stroke-linecap="round" stroke-linejoin="round"/>
<path d="M780.831 861.649C780.831 861.649 802.001 869.979 805.501 881.479C809.001 892.979 783.501 938.479 765.001 932.479C746.501 926.479 744.501 899.979 762.001 890.979" stroke="#231F20" stroke-width="4" stroke-miterlimit="10" stroke-linecap="round" stroke-linejoin="round"/>
<path d="M726.741 798.229C726.741 798.229 760.991 810.479 788.491 804.479" stroke="#231F20" stroke-width="4" stroke-miterlimit="10" stroke-linecap="round" stroke-linejoin="round"/>
<path d="M694.661 520.009C694.661 520.009 704.021 515.719 711.821 527.029" stroke="#231F20" stroke-width="4" stroke-miterlimit="10" stroke-linecap="round" stroke-linejoin="round"/>
<path d="M693.151 440.66C692.721 441.32 674.311 469.38 686.491 502.98L687.741 505.23" stroke="#231F20" stroke-width="4" stroke-miterlimit="10" stroke-linecap="round" stroke-linejoin="round"/>
<path d="M693.161 440.65C693.161 440.65 693.161 440.65 693.151 440.66C692.791 440.9 683.791 446.83 682.161 439.65C680.491 432.31 694.491 426.31 694.491 426.31C694.491 426.31 683.491 409.65 691.491 407.31C699.491 404.98 701.161 417.65 701.161 417.65C701.161 417.65 704.821 392.98 739.491 383.98C774.161 374.98 811.821 391.98 811.821 391.98C811.821 391.98 818.831 366.98 851.161 377.65C883.491 388.32 873.491 436.31 855.491 443.98C837.491 451.65 817.161 437.65 817.161 437.65C817.161 437.65 815.161 451.31 799.821 452.65C784.491 453.98 771.161 439.31 771.161 439.31C771.161 439.31 772.821 450.98 756.821 454.98C740.821 458.98 727.161 452.65 727.161 452.65C727.161 452.65 731.491 475.98 723.491 491.31C718.681 500.53 712.311 503.96 707.991 505.23" stroke="#231F20" stroke-width="4" stroke-miterlimit="10" stroke-linecap="round" stroke-linejoin="round"/>
<path d="M838.491 688.31C838.491 688.31 869.911 663.81 914.241 682.48" stroke="#231F20" stroke-width="4" stroke-miterlimit="10" stroke-linecap="round" stroke-linejoin="round"/>
<path d="M843.491 684.98C843.491 684.98 821.571 669.9 813.241 672.23C804.911 674.56 819.161 704.65 819.161 704.65C819.161 704.65 803.491 724.32 804.161 726.32C804.831 728.32 810.161 727.32 810.161 727.32C810.161 727.32 797.161 745.99 799.161 747.65C801.161 749.32 819.161 743.32 819.161 743.32C819.161 743.32 811.161 754.65 817.161 754.99C823.161 755.32 836.161 755.99 836.161 755.99" stroke="#231F20" stroke-width="4" stroke-miterlimit="10" stroke-linecap="round" stroke-linejoin="round"/>
<path d="M929.831 725.319C930.271 725.859 944.801 743.729 943.491 749.309C942.161 754.979 923.821 746.649 923.821 746.649C923.821 746.649 932.161 757.649 930.491 759.649C929.981 760.259 927.871 760.339 925.191 760.159" stroke="#231F20" stroke-width="4" stroke-miterlimit="10" stroke-linecap="round" stroke-linejoin="round"/>
<path d="M908.071 680.13C910.201 679.44 913.461 678.41 917.071 677.34C925.241 674.93 935.191 672.37 937.821 673.31C942.491 674.98 924.491 699.31 924.491 699.31C924.491 699.31 941.491 722.65 938.821 724.98C936.231 727.25 930.161 725.41 929.831 725.32C929.821 725.31 929.821 725.31 929.821 725.31" stroke="#231F20" stroke-width="4" stroke-miterlimit="10" stroke-linecap="round" stroke-linejoin="round"/>
<path d="M834.991 763.979C834.991 763.979 834.211 825.109 856.991 820.479C872.991 817.229 859.241 759.229 859.241 759.229" stroke="#231F20" stroke-width="4" stroke-miterlimit="10" stroke-linecap="round" stroke-linejoin="round"/>
<path d="M910.491 760.73C910.101 761.7 909.721 762.71 909.351 763.75C902.691 782.58 900.451 812.05 915.741 810.48C922.331 809.8 926.321 791.05 926.961 776.44C927.261 769.44 926.801 763.4 925.491 760.73C922.981 755.63 918.811 753.89 914.491 753.76" stroke="#231F20" stroke-width="4" stroke-miterlimit="10" stroke-linecap="round" stroke-linejoin="round"/>
<path d="M789.151 804.74C788.791 804.71 788.401 804.659 787.991 804.579C783.581 803.719 776.961 799.739 780.241 782.979C784.991 758.729 813.491 745.979 813.491 745.979" stroke="#231F20" stroke-width="4" stroke-miterlimit="10" stroke-linecap="round" stroke-linejoin="round"/>
<path d="M590.001 611.649C588.601 631.289 588.791 651.239 589.491 661.979" stroke="#231F20" stroke-width="4" stroke-miterlimit="10" stroke-linecap="round" stroke-linejoin="round"/>
<path d="M681.161 518.31C681.161 518.31 652.831 498.98 620.491 520.48C609.371 527.87 601.981 544.11 597.171 563.27" stroke="#231F20" stroke-width="4" stroke-miterlimit="10" stroke-linecap="round" stroke-linejoin="round"/>
<path d="M588.991 640.979C588.991 640.979 558.821 654.309 565.821 689.309C572.821 724.309 635.491 735.979 643.491 720.979C656.951 695.739 610.491 668.479 582.991 661.979" stroke="#231F20" stroke-width="4" stroke-miterlimit="10" stroke-linecap="round" stroke-linejoin="round"/>
<path d="M609.741 671.979C609.741 671.979 687.161 673.649 715.161 651.979" stroke="#231F20" stroke-width="4" stroke-miterlimit="10" stroke-linecap="round" stroke-linejoin="round"/>
<path d="M629.231 684.959C636.171 684.749 690.141 682.669 713.821 668.649" stroke="#231F20" stroke-width="4" stroke-miterlimit="10" stroke-linecap="round" stroke-linejoin="round"/>
<path d="M567.231 567.689C561.641 578.519 558.501 598.179 574.161 605.649C595.821 615.979 645.821 616.979 659.161 596.979" stroke="#231F20" stroke-width="4" stroke-miterlimit="10" stroke-linecap="round" stroke-linejoin="round"/>
<path d="M600.641 569.149C615.411 572.899 637.821 571.979 637.821 571.979" stroke="#231F20" stroke-width="4" stroke-miterlimit="10" stroke-linecap="round" stroke-linejoin="round"/>
<path d="M653.491 592.979C653.491 592.979 661.491 594.649 662.491 602.649" stroke="#231F20" stroke-width="4" stroke-miterlimit="10" stroke-linecap="round" stroke-linejoin="round"/>
<path d="M572.701 558.46C579.911 558.1 596.301 561.78 600.121 567.52C603.941 573.26 585.681 581.41 579.281 580.21C572.891 579.02 557.621 559.22 572.701 558.46Z" stroke="#231F20" stroke-width="4" stroke-miterlimit="10" stroke-linecap="round" stroke-linejoin="round"/>
<path d="M591.151 765.75C592.121 770.71 593.381 775.22 594.991 778.98C599.981 790.64 611.551 797.09 624.021 800" stroke="#231F20" stroke-width="4" stroke-miterlimit="10" stroke-linecap="round" stroke-linejoin="round"/>
<path d="M588.121 716.89C587.941 725.83 588.001 736.81 588.811 747.52" stroke="#231F20" stroke-width="4" stroke-miterlimit="10" stroke-linecap="round" stroke-linejoin="round"/>
<path d="M606.671 792.74C579.521 815.19 518.961 841.89 512.491 817.98C505.991 793.98 565.991 779.48 578.491 765.48C585.661 757.45 588.061 751.23 588.801 747.39" stroke="#231F20" stroke-width="4" stroke-miterlimit="10" stroke-linecap="round" stroke-linejoin="round"/>
<path d="M649.381 780.799C656.421 770.519 654.991 764.479 654.991 764.479" stroke="#231F20" stroke-width="4" stroke-miterlimit="10" stroke-linecap="round" stroke-linejoin="round"/>
<path d="M618.641 843.959C598.961 850.709 581.771 851.599 578.491 839.479C574.091 823.239 600.151 811.35 621.341 801.02" stroke="#231F20" stroke-width="4" stroke-miterlimit="10" stroke-linecap="round" stroke-linejoin="round"/>
<path d="M621.241 519.73C621.241 519.73 605.491 519.48 596.491 530.48C591.301 536.83 586.711 547.22 583.161 557.37" stroke="#231F20" stroke-width="4" stroke-miterlimit="10" stroke-linecap="round" stroke-linejoin="round"/>
<path d="M698.161 558.979C698.161 558.979 703.991 591.479 702.741 601.979C701.491 612.479 698.241 613.729 701.491 617.229C704.741 620.729 717.241 620.229 718.991 618.479" stroke="#231F20" stroke-width="4" stroke-miterlimit="10" stroke-linecap="round" stroke-linejoin="round"/>
<path d="M720.491 605.979C720.491 605.979 755.491 627.479 805.491 619.479C842.991 613.479 858.551 603.259 863.991 598.529" stroke="#231F20" stroke-width="4" stroke-miterlimit="10" stroke-linecap="round" stroke-linejoin="round"/>
<path d="M867.161 603.649C867.161 603.649 891.161 609.649 905.821 636.979C917.781 659.259 918.881 670.909 917.071 677.339" stroke="#231F20" stroke-width="4" stroke-miterlimit="10" stroke-linecap="round" stroke-linejoin="round"/>
<path d="M819.491 671.649C819.491 671.649 841.821 645.319 879.821 644.649" stroke="#231F20" stroke-width="4" stroke-miterlimit="10" stroke-linecap="round" stroke-linejoin="round"/>
<path d="M810.241 684.979C810.241 684.979 780.821 722.309 803.491 734.309" stroke="#231F20" stroke-width="4" stroke-miterlimit="10" stroke-linecap="round" stroke-linejoin="round"/>
<path d="M653.291 559.569C653.961 555.549 657.601 552.649 661.741 552.969C665.571 553.269 668.541 556.229 669.001 559.899" stroke="#231F20" stroke-width="5" stroke-miterlimit="10" stroke-linecap="round" stroke-linejoin="round"/>
<path d="M896.851 714.99C897.391 711.75 900.331 709.4 903.671 709.67C906.761 709.91 909.161 712.3 909.531 715.26" stroke="#231F20" stroke-width="4" stroke-miterlimit="10" stroke-linecap="round" stroke-linejoin="round"/>
<path d="M862.291 718.2C862.601 714.93 865.371 712.38 868.711 712.4C871.811 712.42 874.371 714.639 874.951 717.559" stroke="#231F20" stroke-width="4" stroke-miterlimit="10" stroke-linecap="round" stroke-linejoin="round"/>
<path d="M609.161 556.53C610.011 552.55 613.791 549.81 617.901 550.32C621.711 550.79 624.551 553.89 624.841 557.57" stroke="#231F20" stroke-width="5" stroke-miterlimit="10" stroke-linecap="round" stroke-linejoin="round"/>
<path d="M882.991 725.73C887.071 724.9 892.821 725.06 893.571 726.9C894.321 728.73 889.321 734.4 886.741 734.48C884.161 734.56 874.411 727.48 882.991 725.73Z" fill="#231F20"/>
<path d="M886.411 731.649C886.411 731.649 887.661 740.229 882.581 740.819C876.181 741.549 876.411 736.819 876.411 736.819" stroke="#231F20" stroke-width="3" stroke-miterlimit="10" stroke-linecap="round" stroke-linejoin="round"/>
<path d="M886.311 731.66C886.311 731.66 886.851 740.01 891.961 739.83C898.241 739.61 897.161 734.64 897.161 734.64" stroke="#231F20" stroke-width="3" stroke-miterlimit="10" stroke-linecap="round" stroke-linejoin="round"/>
<path d="M779.491 784.65C779.491 784.65 763.491 788.98 756.491 768.98C749.491 748.98 768.491 745.65 762.161 731.31C755.831 716.97 765.511 716.06 770.491 725.98C779.991 744.9 762.821 750.15 764.491 762.48C766.441 776.9 775.161 776.98 781.491 775.98" stroke="#231F20" stroke-width="4" stroke-miterlimit="10" stroke-linecap="round" stroke-linejoin="round"/>
<path d="M618.991 612.729C618.991 612.729 612.591 649.739 630.491 648.479C648.241 647.229 642.741 609.979 642.741 609.979" stroke="#231F20" stroke-width="4" stroke-miterlimit="10" stroke-linecap="round" stroke-linejoin="round"/>
<path d="M630.991 612.229C630.991 612.229 629.491 626.479 630.491 633.229" stroke="#231F20" stroke-width="4" stroke-miterlimit="10" stroke-linecap="round" stroke-linejoin="round"/>
<path d="M703.991 549.979C703.991 549.979 705.741 570.229 716.991 575.479" stroke="#231F20" stroke-width="4" stroke-miterlimit="10" stroke-linecap="round" stroke-linejoin="round"/>
<path d="M862.241 440.479C862.241 440.479 877.991 475.479 862.491 492.979" stroke="#231F20" stroke-width="4" stroke-miterlimit="10" stroke-linecap="round" stroke-linejoin="round"/>
<path d="M585.491 662.729C585.491 662.729 573.991 684.729 577.491 708.979" stroke="#231F20" stroke-width="4" stroke-miterlimit="10" stroke-linecap="round" stroke-linejoin="round"/>
<path d="M606.191 422.519C606.191 422.519 608.841 407.799 623.991 406.159C639.151 404.519 649.401 417.099 648.701 429.709C648.001 442.319 634.231 472.929 634.231 472.929C634.231 472.929 604.151 476.799 584.501 462.989C564.851 449.179 573.351 413.709 606.191 422.519Z" fill="#FD9FA7" stroke="#000102" stroke-width="4" stroke-miterlimit="10" stroke-linecap="round" stroke-linejoin="round"/>
<path d="M583.621 433.509C583.621 433.509 585.491 428.179 590.051 428.789C594.611 429.399 590.301 435.599 589.951 436.319C587.801 440.819 587.601 445.349 590.381 450.159C593.161 454.969 585.681 456.809 583.851 452.669C582.021 448.529 579.721 441.709 583.621 433.509Z" fill="white"/>
<path d="M641.751 428.209C641.751 428.209 620.871 462.219 605.421 465.569C605.421 465.569 619.971 470.509 629.331 466.809C629.331 466.809 640.851 444.619 641.751 428.209Z" fill="#F88084"/>
<path d="M921.201 544.12C921.201 544.12 919.261 533.34 908.171 532.14C897.071 530.94 889.561 540.15 890.081 549.38C890.591 558.62 900.671 581.02 900.671 581.02C900.671 581.02 922.701 583.85 937.081 573.74C951.461 563.64 945.241 537.68 921.201 544.12Z" fill="#FD9FA7" stroke="#000102" stroke-width="3.5" stroke-miterlimit="10" stroke-linecap="round" stroke-linejoin="round"/>
<path d="M937.731 552.17C937.731 552.17 936.361 548.27 933.021 548.71C929.681 549.16 932.841 553.7 933.091 554.23C934.661 557.52 934.811 560.84 932.781 564.37C930.751 567.89 936.221 569.24 937.561 566.21C938.891 563.18 940.581 558.18 937.731 552.17Z" fill="white"/>
<path d="M895.161 548.29C895.161 548.29 910.451 573.19 921.761 575.65C921.761 575.65 911.101 579.26 904.261 576.56C904.261 576.55 895.821 560.31 895.161 548.29Z" fill="#F88084"/>
<path d="M764.5 516C768.639 516 772 512.646 772 508.5C772 504.354 768.639 501 764.5 501C760.361 501 757 504.354 757 508.5C757 512.634 760.361 516 764.5 516Z" fill="#181818"/>
<path d="M831 505C834.863 505 838 501.646 838 497.5C838 493.354 834.863 490 831 490C827.137 490 824 493.354 824 497.5C824.011 501.634 827.137 505 831 505Z" fill="#181818"/>
<path d="M791 526.76C791 526.76 796.993 535.197 805.903 532.45C814.812 529.704 812.807 522 812.807 522" stroke="#181818" stroke-width="3.9495" stroke-miterlimit="10" stroke-linecap="round" stroke-linejoin="round"/>
</g>
</svg>
