<svg width="50" height="50" viewBox="0 0 50 50" fill="none" xmlns="http://www.w3.org/2000/svg">
<path d="M25 46.5C37.9787 46.5 48.5 36.8741 48.5 25C48.5 13.1259 37.9787 3.5 25 3.5C12.0213 3.5 1.5 13.1259 1.5 25C1.5 36.8741 12.0213 46.5 25 46.5Z" fill="#FFE500"/>
<path d="M25 42.5C11.7 42.5 2.594 33.933 1.6 23C1.54 23.659 1.5 24.325 1.5 25C1.5 36.874 10.9 46.5 25 46.5C39.1 46.5 48.5 36.874 48.5 25C48.5 24.324 48.461 23.658 48.4 23C47.406 33.933 38.3 42.5 25 42.5Z" fill="#F2C100"/>
<path d="M25 7.00301C28.5899 7.00301 31.5 6.55484 31.5 6.00201C31.5 5.44917 28.5899 5.00101 25 5.00101C21.4101 5.00101 18.5 5.44917 18.5 6.00201C18.5 6.55484 21.4101 7.00301 25 7.00301Z" fill="#FFFACF"/>
<path d="M25 46.5C37.9787 46.5 48.5 36.8741 48.5 25C48.5 13.1259 37.9787 3.5 25 3.5C12.0213 3.5 1.5 13.1259 1.5 25C1.5 36.8741 12.0213 46.5 25 46.5Z" stroke="#45413C" stroke-width="1.25" stroke-miterlimit="10"/>
<path d="M30.4309 18.026C30.4309 18.026 30.4309 15.5 32.6409 15.5C34.8509 15.5 34.8519 18.026 34.8519 18.026M14.6409 18.026C14.6409 18.026 14.6409 15.5 16.8519 15.5C19.0629 15.5 19.0629 18.026 19.0629 18.026M13.9619 23.409C13.9619 23.409 16.4779 27.434 24.0259 27.434C31.5739 27.434 34.0889 23.409 34.0889 23.409" stroke="#45413C" stroke-width="1.25" stroke-linecap="round" stroke-linejoin="round"/>
<path d="M37.0409 27.551C36.0719 26.2084 34.9608 24.9742 33.7269 23.87C32.9069 24.808 30.5709 26.896 25.8459 27.342C26.5481 29.4765 27.5494 31.5007 28.8199 33.354C29.1967 33.9038 29.6789 34.3733 30.2385 34.7351C30.7982 35.097 31.4242 35.3441 32.0802 35.462C32.7362 35.5799 33.409 35.5663 34.0597 35.4219C34.7104 35.2776 35.3259 35.0054 35.8705 34.6212C36.415 34.237 36.8779 33.7484 37.232 33.1838C37.5862 32.6192 37.8247 31.9899 37.9336 31.3324C38.0425 30.6748 38.0196 30.0022 37.8664 29.3536C37.7132 28.705 37.4326 28.0933 37.0409 27.554V27.551Z" fill="#FF6242" stroke="#45413C" stroke-width="1.25" stroke-linecap="round" stroke-linejoin="round"/>
<path d="M30.063 26.428L32.931 30.453" stroke="#45413C" stroke-width="1.25" stroke-linecap="round" stroke-linejoin="round"/>
</svg>
