<svg width="20" height="20" viewBox="0 0 20 20" fill="none" xmlns="http://www.w3.org/2000/svg">
<path d="M13.8564 11.0857H11.085V13.8571H13.8564V16.6286H11.085V19.4H13.8564V16.6286H16.6278V19.4H19.3993V16.6286H16.6278V13.8571H19.3993V11.0857H16.6278V13.8571H13.8564V11.0857Z" fill="white"/>
<path d="M2.77148 2.77148H5.54292V5.54292H2.77148V2.77148Z" fill="white"/>
<path d="M2.77143 0C2.0364 0 1.33148 0.291989 0.811733 0.811733C0.291989 1.33148 0 2.0364 0 2.77143V5.54286C0 6.27789 0.291989 6.98282 0.811733 7.50256C1.33148 8.02231 2.0364 8.3143 2.77143 8.3143H5.54286C6.27789 8.3143 6.98282 8.02231 7.50256 7.50256C8.02231 6.98282 8.3143 6.27789 8.3143 5.54286V2.77143C8.3143 2.0364 8.02231 1.33148 7.50256 0.811733C6.98282 0.291989 6.27789 0 5.54286 0H2.77143ZM1.73214 2.425C1.73214 2.24125 1.80514 2.06501 1.93508 1.93508C2.06501 1.80514 2.24125 1.73214 2.425 1.73214H5.88929C6.07305 1.73214 6.24928 1.80514 6.37922 1.93508C6.50915 2.06501 6.58215 2.24125 6.58215 2.425V5.88929C6.58215 6.07305 6.50915 6.24928 6.37922 6.37922C6.24928 6.50915 6.07305 6.58215 5.88929 6.58215H2.425C2.24125 6.58215 2.06501 6.50915 1.93508 6.37922C1.80514 6.24928 1.73214 6.07305 1.73214 5.88929V2.425Z" fill="white"/>
<path d="M2.77148 13.8572H5.54292V16.6286H2.77148V13.8572Z" fill="white"/>
<path d="M2.77143 11.0857C2.0364 11.0857 1.33148 11.3777 0.811733 11.8974C0.291989 12.4172 0 13.1221 0 13.8571V16.6286C0 17.3636 0.291989 18.0685 0.811733 18.5883C1.33148 19.108 2.0364 19.4 2.77143 19.4H5.54286C6.27789 19.4 6.98282 19.108 7.50256 18.5883C8.02231 18.0685 8.3143 17.3636 8.3143 16.6286V13.8571C8.3143 13.1221 8.02231 12.4172 7.50256 11.8974C6.98282 11.3777 6.27789 11.0857 5.54286 11.0857H2.77143ZM1.73214 13.5107C1.73214 13.3269 1.80514 13.1507 1.93508 13.0208C2.06501 12.8908 2.24125 12.8178 2.425 12.8178H5.88929C6.07305 12.8178 6.24928 12.8908 6.37922 13.0208C6.50915 13.1507 6.58215 13.3269 6.58215 13.5107V16.975C6.58215 17.1587 6.50915 17.335 6.37922 17.4649C6.24928 17.5948 6.07305 17.6678 5.88929 17.6678H2.425C2.24125 17.6678 2.06501 17.5948 1.93508 17.4649C1.80514 17.335 1.73214 17.1587 1.73214 16.975V13.5107Z" fill="white"/>
<path d="M13.8574 2.77148H16.6289V5.54292H13.8574V2.77148Z" fill="white"/>
<path d="M13.8564 0C13.1214 0 12.4164 0.291989 11.8967 0.811733C11.377 1.33148 11.085 2.0364 11.085 2.77143V5.54286C11.085 6.27789 11.377 6.98282 11.8967 7.50256C12.4164 8.02231 13.1214 8.3143 13.8564 8.3143H16.6278C17.3629 8.3143 18.0678 8.02231 18.5875 7.50256C19.1073 6.98282 19.3993 6.27789 19.3993 5.54286V2.77143C19.3993 2.0364 19.1073 1.33148 18.5875 0.811733C18.0678 0.291989 17.3629 0 16.6278 0H13.8564ZM12.8171 2.425C12.8171 2.24125 12.8901 2.06501 13.02 1.93508C13.15 1.80514 13.3262 1.73214 13.51 1.73214H16.9743C17.158 1.73214 17.3342 1.80514 17.4642 1.93508C17.5941 2.06501 17.6671 2.24125 17.6671 2.425V5.88929C17.6671 6.07305 17.5941 6.24928 17.4642 6.37922C17.3342 6.50915 17.158 6.58215 16.9743 6.58215H13.51C13.3262 6.58215 13.15 6.50915 13.02 6.37922C12.8901 6.24928 12.8171 6.07305 12.8171 5.88929V2.425Z" fill="white"/>
</svg>
