<svg viewBox="0 0 133 116" fill="none" xmlns="http://www.w3.org/2000/svg">
<path d="M118.798 93.4042C125.867 87.2062 126.336 77.2895 125.733 66.5352H125.833C125.833 66.5352 131.729 89.1494 127.81 98.1951C124.392 106.068 111.829 105.499 107.909 104.494C108.981 103.957 109.752 103.22 110.187 102.383C111.628 99.4682 110.824 97.2905 109.383 95.9839C110.087 95.4813 110.924 95.0123 111.963 94.6438C114.677 93.6387 117.022 93.3707 118.798 93.4042Z" fill="white"/>
<path d="M126.805 1.33932C129.519 4.18704 125.8 21.6754 125.8 21.6754L125.633 21.7089C124.795 15.2094 122.818 9.71495 118.664 6.83374C120.875 3.91902 124.896 -0.670832 126.805 1.33932Z" fill="white"/>
<path d="M125.934 21.9777C125.934 21.9777 128.078 21.4417 128.413 20.7716C128.681 20.2021 126.001 18.0914 125.331 17.8904C124.359 12.2955 122.349 9.38078 118.664 6.83459C116.922 5.6285 114.811 4.89144 112.231 4.75743C104.727 4.3219 99.5338 5.79601 95.9155 8.3422C91.3927 11.5249 89.55 14.3727 88.7795 19.3645C87.6739 19.8336 85.7307 21.0062 86.0993 21.5087C86.7023 22.3128 89.081 22.9158 89.081 22.9158C89.081 22.9158 81.8779 29.4823 82.1795 30.1524C82.481 30.8224 86.0323 30.1859 86.9368 30.2529C87.2048 30.2864 88.1764 30.2529 88.7125 30.0518C88.7125 30.4204 88.2099 30.6884 88.2434 31.0569C88.679 39.4326 88.612 55.5473 80.9399 60.7067C67.3713 69.8194 41.0384 61.3432 26.5653 69.6853C18.7927 74.1747 15.0069 80.6742 14.5713 86.1351C14.4038 88.4133 14.8059 90.4569 15.7104 92.1656C16.2465 93.1371 16.95 93.9747 17.8211 94.6447C15.6099 97.1574 15.7774 100.273 18.8597 101.915C27.2018 106.337 65.2607 108.414 64.9592 100.675C64.9592 100.608 64.9592 100.541 64.9592 100.474C70.1521 100.508 75.3784 100.441 80.4038 100.24C81.2749 101.68 82.5145 102.786 84.2231 103.422C92.3642 106.438 103.052 107.041 107.909 104.494C108.981 103.958 109.752 103.221 110.188 102.384C111.628 99.4691 110.824 97.2914 109.384 95.9848C110.087 95.4823 110.925 95.0133 111.963 94.6447C114.71 93.6732 117.056 93.4051 118.831 93.4051C125.9 87.2072 126.369 77.2904 125.766 66.5361C125.632 63.8894 125.398 61.2092 125.23 58.529C124.761 51.862 126.738 44.4579 126.403 33.2681C127.073 33.4356 128.346 33.0671 128.58 32.8996C129.184 32.4305 125.431 28.0417 125.431 28.0417C125.431 28.0417 131.227 28.9798 131.328 28.3097C131.462 27.5727 125.934 21.9777 125.934 21.9777Z" fill="white"/>
<path d="M95.8815 8.30742C91.2917 11.5572 89.315 16.549 88.5445 21.6079H88.511C88.511 21.6079 83.0501 5.79473 85.6298 2.84651C87.5394 0.668844 93.0673 5.52671 95.8815 8.30742Z" fill="#F5C38B"/>
<path d="M24.1535 107.744C29.7819 107.811 30.2845 111.831 28.0398 113.205C23.785 115.785 3.38193 116.22 1.6063 105.734C-0.705379 92.0982 14.4378 86.1348 14.4378 86.1348H14.6053C14.4378 88.4129 14.8398 90.4566 15.7444 92.1652L15.7109 92.1987C15.7109 92.1987 7.93828 94.5104 8.10579 101.546C8.17279 107.71 18.5251 107.677 24.1535 107.744Z" fill="white"/>
<path d="M118.798 22.7512C120.575 21.3589 120.6 18.4238 118.854 16.1956C117.108 13.9674 114.252 13.2897 112.475 14.6821C110.698 16.0744 110.673 19.0095 112.419 21.2377C114.166 23.466 117.021 24.1436 118.798 22.7512Z" fill="#F5C38B"/>
<path d="M95.8816 8.30725C95.8816 8.30725 97.9588 6.39761 98.9639 6.46461C99.9689 6.53162 101.644 11.9925 98.2268 18.1235C94.8096 24.2545 88.5446 23.8859 88.5446 23.8859C88.5446 23.8859 87.2715 20.5692 90.9568 13.7012" fill="#F5C38B"/>
<path d="M50.3857 65.5299C50.3857 65.5299 54.4731 77.4233 66.802 75.5806C80.806 73.5035 82.0456 60.002 82.0456 60.002C82.0456 60.002 76.7522 63.7542 69.5827 64.6923C62.4132 65.6304 53.7695 65.2954 53.7695 65.2954" fill="#F5C38B"/>
<path d="M13.8674 106.738C13.8674 106.738 11.5892 112.367 13.5994 114.276C15.6095 116.186 26.9334 115.449 28.508 112.668C30.0826 109.888 27.6704 107.978 25.4928 107.81C23.3151 107.643 17.7872 107.542 17.7872 107.542" fill="#F5C38B"/>
<path d="M52.1614 82.1816C52.1614 82.1816 48.3087 83.4547 48.4092 88.2121C48.4762 92.9695 53.267 94.1756 53.267 94.1756C53.267 94.1756 58.6274 91.5624 54.7746 84.8618" fill="#F5C38B"/>
<path d="M79.8682 98.597C79.8682 98.597 85.1616 96.6539 89.1819 99.6021C93.2022 102.55 92.2641 105.365 92.2641 105.365C92.2641 105.365 83.721 104.963 81.2753 101.177" fill="#F5C38B"/>
<path d="M124.091 86.8379C124.091 86.8379 125.599 87.6755 125.264 90.1881C124.929 92.7008 122.818 94.2754 122.818 94.2754L121.21 93.3709H118.831C118.831 93.3709 120.473 91.3607 121.612 90.3557" fill="#F5C38B"/>
<path d="M89.2819 21.0391C89.2819 21.0391 85.9652 22.4462 86.7692 23.1162C87.5733 23.7528 88.5114 23.7528 88.5114 23.7528" fill="#F5C38B"/>
<path d="M88.779 30.4531C88.779 30.4531 86.0653 33.3343 86.6014 34.2054C87.1374 35.0765 90.0856 34.2054 90.0856 34.2054" fill="white"/>
<path d="M88.9466 19.4316C88.8126 19.4986 84.7253 21.0398 85.9984 22.1118C87.2715 23.1839 90.0522 22.3129 90.0522 22.3129" fill="#F5C38B"/>
<path opacity="0.25" d="M52.3955 95.6146C52.3955 95.6146 73.8371 96.2846 78.293 94.375C78.293 94.375 79.298 99.5009 80.2026 100.305C81.1072 101.076 65.026 100.74 65.026 100.74C65.026 100.74 63.9204 97.4907 61.1062 96.8207C58.3255 96.1506 52.63 96.5862 52.63 96.5862" fill="black"/>
<path opacity="0.25" d="M96.5186 92.9347C96.5186 92.9347 111.159 94.9449 118.396 87.3398C125.666 79.7348 126.001 72.6992 126.001 72.6992C126.001 72.6992 126.671 81.4099 123.421 87.5408C120.171 93.6718 118.496 93.9063 118.496 93.9063C118.496 93.9063 113.571 93.8058 112.03 94.4759C110.456 95.1459 109.116 95.9165 109.116 95.9165C109.116 95.9165 105.765 94.4759 105.095 94.2413C104.425 94.0068 100.74 94.2413 100.74 94.2413" fill="black"/>
<path opacity="0.25" d="M14.3037 87.373C14.3037 87.373 16.2134 91.8289 20.4347 92.7335L17.7545 94.6431C17.7545 94.6431 15.1748 92.7335 14.7392 91.1923" fill="black"/>
<path d="M87.9081 20.5369C87.5395 20.5369 87.238 20.3024 87.104 19.9673C84.9933 13.2333 82.8827 4.72367 85.0269 2.31149C85.4624 1.80895 86.0989 1.50743 86.8025 1.50743C88.9131 1.44042 92.1629 3.51758 96.4512 7.7389C96.7862 8.07393 96.7862 8.57647 96.4512 8.91149C96.1162 9.24652 95.6137 9.24652 95.2786 8.91149C91.5263 5.25971 88.3771 3.08205 86.836 3.14905C86.501 3.14905 86.3334 3.28306 86.2329 3.38357C85.0604 4.72367 85.9984 11.0222 88.6451 19.4313C88.7791 19.8668 88.5446 20.3359 88.1091 20.4699C88.0756 20.5034 87.9751 20.5369 87.9081 20.5369Z" fill="black"/>
<path d="M126.37 19.3972C126.336 19.3972 126.269 19.3972 126.236 19.3972C125.767 19.3302 125.465 18.8947 125.566 18.4256C127.475 7.73831 127.14 2.88044 126.202 1.90887C126.035 1.74136 125.867 1.67435 125.633 1.67435C124.36 1.74136 122.014 3.85202 119.334 7.30278C119.066 7.67131 118.53 7.73831 118.162 7.47029C117.793 7.20227 117.726 6.66623 117.994 6.2977C121.11 2.21039 123.656 0.0997341 125.499 -0.000773519C126.236 -0.0342761 126.872 0.200242 127.375 0.736282C129.05 2.51192 129.016 8.54237 127.174 18.6936C127.14 19.1292 126.772 19.3972 126.37 19.3972Z" fill="black"/>
<path d="M67.5058 101.343C66.6683 101.343 65.7972 101.343 64.9596 101.343C64.4906 101.343 64.1221 100.975 64.1221 100.506C64.1221 100.037 64.4906 99.6683 64.9596 99.6683C70.119 99.7018 75.3119 99.6348 80.3708 99.4338C80.8398 99.4003 81.2084 99.7688 81.2419 100.238C81.2754 100.707 80.9068 101.075 80.4378 101.109C76.183 101.243 71.8612 101.343 67.5058 101.343Z" fill="black"/>
<path d="M118.797 94.2411C118.563 94.2411 118.328 94.1406 118.161 93.9396C117.859 93.6046 117.893 93.0685 118.228 92.767C126.302 85.698 125.431 73.4695 124.493 60.5376C124.459 59.8675 124.392 59.231 124.359 58.5609C124.124 55.3112 124.392 50.8553 124.727 45.6624C124.962 41.7761 125.23 37.3873 125.297 33.1325C125.297 32.6634 125.665 32.2949 126.134 32.2949C126.603 32.2949 126.972 32.697 126.972 33.1325C126.905 37.4543 126.637 41.8431 126.402 45.7629C126.101 50.8553 125.799 55.2777 126.034 58.4269C126.067 59.0969 126.134 59.7335 126.168 60.4036C127.139 73.7711 128.044 86.4015 119.333 94.0066C119.199 94.1406 118.998 94.2411 118.797 94.2411Z" fill="black"/>
<path d="M17.8213 95.4821C17.6537 95.4821 17.4527 95.4151 17.3187 95.3146C14.806 93.3715 13.4994 90.0547 13.7339 86.2689C14.1695 79.6689 18.8263 73.2029 26.1634 68.9816C33.4334 64.7938 43.5847 64.7268 53.401 64.6933C63.3847 64.6263 73.737 64.5593 80.471 60.0699C86.602 55.9491 87.674 44.1227 87.54 34.943C87.54 34.474 87.9086 34.1055 88.3776 34.1055C88.8466 34.1055 89.2152 34.474 89.2152 34.943C89.3827 44.5583 88.1431 56.9542 81.4091 61.477C74.273 66.2679 63.6862 66.3349 53.4345 66.4019C43.8192 66.4689 33.869 66.5024 27.001 70.4892C18.9268 75.0456 15.7106 81.6791 15.4091 86.3694C15.2081 89.6192 16.2466 92.3999 18.3238 94.008C18.6923 94.276 18.7593 94.8121 18.4913 95.1806C18.3238 95.3816 18.0558 95.4821 17.8213 95.4821Z" fill="black"/>
<path d="M88.2433 31.9269C87.8078 31.9269 87.4727 31.6254 87.4057 31.1899C87.4057 31.1564 87.4057 31.0894 87.4057 31.0558C87.4057 30.7878 87.3722 30.5533 87.3722 30.2853C87.3387 29.8163 87.7073 29.4477 88.1763 29.4142C88.6453 29.3807 89.0139 29.7492 89.0474 30.2183C89.0474 30.4863 89.0809 30.7208 89.0809 30.9888C89.0809 31.0223 89.0809 31.0558 89.0809 31.0894C89.0809 31.5584 88.6788 31.9269 88.2433 31.9269Z" fill="black"/>
<path d="M89.1145 19.7329C89.0475 19.7329 88.9805 19.7329 88.9135 19.6994C88.478 19.5989 88.1764 19.1299 88.3104 18.6943C89.5165 13.8365 91.9287 10.1177 95.413 7.60499C99.5003 4.72377 105.162 3.45067 112.265 3.88621C114.878 4.05372 117.19 4.79078 119.133 6.13088C122.316 8.34204 124.46 12.0273 125.699 17.3877C125.8 17.8233 125.532 18.2923 125.063 18.3928C124.627 18.4933 124.158 18.2253 124.058 17.7563C122.919 12.7979 120.975 9.44763 118.161 7.50448C116.486 6.33189 114.476 5.69534 112.164 5.56133C105.464 5.1593 100.137 6.33189 96.3846 8.97859C93.2018 11.2233 91.0241 14.6405 89.9186 19.0964C89.8181 19.4649 89.483 19.7329 89.1145 19.7329Z" fill="black"/>
<path d="M99.0646 106.905C94.1732 106.905 88.5783 105.933 83.9214 104.191C81.7103 103.354 80.0686 101.779 78.9966 99.4339C74.6747 89.7516 82.2463 70.3202 82.5478 69.5161C82.7153 69.0806 83.2179 68.8796 83.6199 69.0471C84.0554 69.2146 84.2565 69.7171 84.0889 70.1191C84.0219 70.3202 76.4504 89.7181 80.5042 98.7638C81.3752 100.707 82.6483 101.947 84.4575 102.617C94.5417 106.369 107.34 106.034 109.35 101.98C110.12 100.439 110.221 98.9983 109.651 97.7922C109.015 96.4856 107.742 95.7486 106.77 95.5476C106.368 95.4471 105.531 95.3466 104.592 95.2126C99.3326 94.509 90.5549 93.3364 90.1864 88.6796C90.1529 88.2105 90.4879 87.8085 90.957 87.775C91.426 87.7415 91.828 88.0765 91.8615 88.5455C92.1296 91.8623 101.008 93.0349 104.794 93.5374C105.832 93.6714 106.636 93.7719 107.139 93.9059C108.881 94.308 110.422 95.5141 111.159 97.0887C111.695 98.2613 112.097 100.171 110.824 102.717C109.484 105.598 104.727 106.905 99.0646 106.905Z" fill="black"/>
<path d="M109.35 96.788C109.082 96.788 108.848 96.654 108.68 96.453C108.412 96.0845 108.479 95.5484 108.881 95.2804C109.685 94.7109 110.623 94.2083 111.662 93.8398C114.108 92.9687 116.486 92.5332 118.832 92.5332C121.311 92.5332 122.818 93.0692 122.852 93.1027C123.287 93.2703 123.522 93.7393 123.354 94.1748C123.187 94.6104 122.718 94.8449 122.282 94.6774C122.282 94.6774 121.009 94.2083 118.832 94.2083C116.721 94.2083 114.476 94.6104 112.232 95.4144C111.327 95.7159 110.556 96.1515 109.886 96.6205C109.719 96.7545 109.518 96.788 109.35 96.788Z" fill="black"/>
<path d="M113.437 105.901C111.058 105.901 108.981 105.633 107.708 105.298C107.273 105.197 107.005 104.728 107.105 104.259C107.206 103.79 107.675 103.556 108.144 103.656C111.929 104.628 123.923 105.13 127.073 97.8603C130.825 89.1831 125.129 66.9709 125.062 66.7364C124.962 66.3009 125.23 65.8318 125.665 65.7313C126.101 65.5973 126.57 65.8989 126.671 66.3344C126.905 67.2725 132.601 89.3171 128.58 98.5303C126.034 104.36 118.931 105.901 113.437 105.901Z" fill="black"/>
<path d="M37.4537 102.651C37.0517 102.651 36.7166 102.383 36.6496 101.981C36.5491 101.512 36.8506 101.076 37.2862 100.976C37.4202 100.942 52.0273 97.8264 54.607 91.0924C55.411 88.9482 54.9085 86.6701 53.0324 84.1239C43.6517 71.5269 24.0192 85.2294 23.8182 85.3635C23.4496 85.6315 22.9136 85.531 22.6456 85.1624C22.3775 84.7939 22.4781 84.2579 22.8466 83.9898C23.0476 83.8223 28.14 80.2711 34.5055 78.3279C43.1826 75.6812 50.0171 77.3563 54.339 83.1188C56.5501 86.1005 57.1867 88.9817 56.1481 91.6954C53.2669 99.3005 38.2578 102.483 37.6212 102.617C37.5542 102.617 37.5207 102.651 37.4537 102.651Z" fill="black"/>
<path d="M46.1982 106.704C35.2428 106.704 22.8804 104.962 18.4581 102.65C16.85 101.813 15.8449 100.54 15.5769 99.032C15.2753 97.3904 15.8449 95.6482 17.185 94.1071C18.9606 92.097 21.8083 90.7234 25.2256 90.2878C25.6946 90.2208 26.0967 90.5559 26.1637 91.0249C26.2307 91.4939 25.8956 91.896 25.4266 91.963C22.4114 92.365 19.9322 93.5041 18.4246 95.2462C17.4195 96.3853 16.984 97.6249 17.185 98.764C17.386 99.769 18.056 100.607 19.1951 101.21C22.5454 102.985 31.5241 104.493 41.0388 104.928C51.3911 105.397 59.7332 104.459 62.8154 102.516C64.122 101.712 64.0885 100.975 64.055 100.741C64.055 100.707 64.055 100.674 64.055 100.607C63.988 99.8026 63.653 99.1995 63.0499 98.697C61.2073 97.1894 56.852 96.7203 50.788 97.3904C50.319 97.4574 49.917 97.1224 49.85 96.6533C49.7829 96.1843 50.118 95.7823 50.587 95.7152C57.2875 94.9782 61.8439 95.5142 64.0885 97.3904C65.0601 98.1944 65.5961 99.1995 65.6967 100.439C65.6967 100.506 65.6967 100.573 65.6967 100.64C65.7302 101.511 65.3951 102.818 63.653 103.89C60.6043 105.9 53.7362 106.704 46.1982 106.704Z" fill="black"/>
<path d="M19.1947 115.583C15.1744 115.583 10.685 114.913 7.20078 113.338C3.5155 111.663 1.30433 109.084 0.734787 105.867C-0.270289 100.004 1.73986 94.577 6.53073 90.1881C10.1155 86.9384 13.9013 85.3973 14.0688 85.3303C14.5043 85.1628 14.9734 85.3638 15.1409 85.7993C15.3084 86.2348 15.1074 86.7039 14.6718 86.8714C14.6383 86.8714 10.9531 88.379 7.60281 91.4277C3.24748 95.4815 1.50535 100.239 2.40991 105.599C2.87895 108.28 4.72159 110.357 7.90433 111.831C14.6383 114.913 24.9906 114.075 27.6038 112.501C28.2739 112.099 28.5754 111.362 28.3744 110.625C28.1064 109.653 26.8668 108.615 24.1196 108.581H23.751C17.6201 108.514 7.36829 108.414 7.20078 101.579C7.03326 93.9739 15.3419 91.4277 15.4089 91.3942C15.8444 91.2602 16.3135 91.5282 16.4475 91.9638C16.5815 92.3993 16.3135 92.8683 15.8779 93.0024C15.5764 93.1029 8.70839 95.2135 8.8759 101.546C8.97641 106.772 18.5916 106.872 23.751 106.939H24.1196C28.7094 107.006 29.748 109.452 29.949 110.223C30.351 111.663 29.7145 113.171 28.4079 113.975C26.7663 114.947 23.215 115.583 19.1947 115.583Z" fill="black"/>
<path d="M113.169 23.1503C112.834 22.4802 112.6 22.2457 110.422 22.1452C108.043 22.0447 106.268 22.6813 106.402 23.5188C106.569 24.7584 108.378 25.73 110.053 25.73C111.695 25.73 113.705 24.2559 113.169 23.1503Z" fill="black"/>
<path d="M97.9928 24.9585C97.7248 24.9585 97.4902 24.7575 97.4902 24.456C97.4902 24.1879 97.6912 23.9534 97.9928 23.9534L99.3999 23.9199C99.6679 23.9199 99.9024 24.1209 99.9024 24.4225C99.9024 24.6905 99.7014 24.925 99.3999 24.925L97.9928 24.9585Z" fill="black"/>
<path d="M98.6957 27.4716C98.4947 27.4716 98.3272 27.3711 98.2267 27.1701C98.1262 26.9021 98.2267 26.6341 98.4947 26.5001L99.7678 25.964C100.036 25.8635 100.304 25.964 100.438 26.232C100.538 26.5001 100.438 26.7681 100.17 26.9021L98.8968 27.4381C98.8298 27.4381 98.7627 27.4716 98.6957 27.4716Z" fill="black"/>
<path d="M120.238 25.0253H120.205L118.798 24.8912C118.53 24.8577 118.329 24.6232 118.362 24.3552C118.396 24.0872 118.63 23.8862 118.898 23.9197L120.305 24.0537C120.573 24.0872 120.774 24.3217 120.741 24.5897C120.707 24.8577 120.473 25.0253 120.238 25.0253Z" fill="black"/>
<path d="M119.333 27.5044C119.266 27.5044 119.166 27.4708 119.099 27.4373L117.859 26.8008C117.625 26.6668 117.524 26.3653 117.625 26.1307C117.759 25.8962 118.06 25.7957 118.295 25.8962L119.534 26.5328C119.769 26.6668 119.869 26.9683 119.769 27.2028C119.702 27.4038 119.534 27.5044 119.333 27.5044Z" fill="black"/>
<path d="M104.57 18.7572C104.601 17.5549 103.966 16.563 103.153 16.5418C102.339 16.5206 101.654 17.4781 101.622 18.6804C101.591 19.8827 102.225 20.8746 103.039 20.8958C103.853 20.9171 104.538 19.9596 104.57 18.7572Z" fill="black"/>
<path d="M116.727 18.4819C116.758 17.2795 116.124 16.2876 115.31 16.2664C114.496 16.2452 113.811 17.2027 113.779 18.405C113.748 19.6073 114.382 20.5992 115.196 20.6204C116.01 20.6417 116.695 19.6842 116.727 18.4819Z" fill="black"/>
<path d="M100.337 18.8611C100.069 18.8611 99.8349 18.6936 99.7344 18.4591C99.6004 18.124 99.7344 17.722 100.103 17.588C100.136 17.588 102.75 16.4489 103.956 14.8408C104.19 14.5393 104.592 14.5058 104.894 14.7068C105.195 14.9413 105.229 15.3433 105.028 15.6449C103.587 17.521 100.739 18.7606 100.605 18.7941C100.505 18.8276 100.438 18.8611 100.337 18.8611Z" fill="black"/>
<path d="M117.893 18.8938C117.793 18.8938 117.659 18.8603 117.558 18.7933C115.615 17.6542 114.141 15.577 114.074 15.51C113.873 15.2085 113.94 14.8065 114.241 14.5719C114.543 14.3709 114.978 14.4379 115.179 14.7394C115.179 14.7729 116.553 16.6491 118.228 17.6542C118.563 17.8552 118.664 18.2572 118.463 18.5587C118.329 18.7933 118.128 18.8938 117.893 18.8938Z" fill="black"/>
<path d="M106.904 30.219C106.804 30.219 106.737 30.1855 106.636 30.152C106.402 30.018 106.335 29.683 106.469 29.4485C109.45 24.6241 109.852 24.7581 110.221 24.8251C110.388 24.8586 110.824 24.9926 113.705 28.9794C113.873 29.214 113.806 29.5155 113.605 29.683C113.37 29.8505 113.069 29.7835 112.901 29.5825C111.863 28.1419 110.623 26.5003 110.087 25.9642C109.551 26.5673 108.345 28.3764 107.34 29.9845C107.239 30.1185 107.105 30.219 106.904 30.219Z" fill="black"/>
<path d="M86.9033 35.8143C86.4007 35.8143 85.9987 35.7808 85.7642 35.6803C85.3957 35.5127 85.2952 35.2447 85.2282 35.1107C85.1276 34.8092 84.9936 34.3067 87.1043 31.2579C84.4576 31.4589 81.8779 31.1909 81.6099 29.6163C81.4759 28.8792 81.8109 27.8072 85.0606 25.0935C85.8312 24.4569 86.6018 23.8204 87.2718 23.3513C86.3337 23.0833 85.7307 22.7148 85.4627 22.2122C85.2282 21.7767 85.2617 21.2407 85.5297 20.7716C85.7977 20.3361 86.4677 19.532 89.282 17.8569C89.684 17.6224 90.1865 17.7564 90.421 18.1249C90.6556 18.527 90.5216 19.0295 90.153 19.264C87.9754 20.5706 87.3053 21.2407 87.0708 21.4752C87.3723 21.6427 88.1094 21.8772 89.3825 22.0112C89.751 22.0447 90.1195 22.3127 90.1865 22.6813C90.2535 23.0498 90.1195 23.4183 89.7845 23.5858C86.9368 25.596 83.687 28.3767 83.3185 29.3483C83.9216 29.7168 86.4007 29.7503 88.7459 29.4488C89.0809 29.4153 89.416 29.5493 89.5835 29.8508C89.751 30.1523 89.751 30.4874 89.55 30.7889C88.6789 31.9615 87.7408 33.3686 87.2383 34.2396C88.0424 34.2061 89.1815 34.0386 89.9185 33.6701C91.1246 33.0671 93.1683 32.129 93.2353 32.0955C93.6708 31.8945 94.1398 32.0955 94.3408 32.4975C94.5419 32.8995 94.3408 33.4021 93.9388 33.6031C93.9053 33.6031 91.8282 34.5412 90.6556 35.1442C89.6505 35.5797 88.0424 35.8143 86.9033 35.8143Z" fill="black"/>
<path d="M127.676 34.138C126.939 34.138 126.034 34.0375 125.197 33.7359C123.052 32.9989 120.707 31.4913 120.607 31.4243C120.205 31.1898 120.104 30.6537 120.372 30.2517C120.607 29.8496 121.143 29.7491 121.545 30.0172C121.578 30.0172 123.823 31.4913 125.766 32.1613C126.503 32.3958 127.207 32.4628 127.743 32.4628C127.374 31.9603 126.738 31.1227 125.699 29.8496L125.465 29.5481C125.297 29.3471 125.197 29.2131 125.163 29.1796C124.862 28.8111 124.929 28.3085 125.264 28.007C125.632 27.7055 126.135 27.7725 126.436 28.1075C126.47 28.141 126.57 28.275 126.771 28.5095L127.006 28.8111C129.954 32.4628 129.987 32.8314 129.82 33.3674C129.753 33.5349 129.652 33.7359 129.351 33.9035C128.982 34.0375 128.379 34.138 127.676 34.138Z" fill="black"/>
<path d="M129.217 29.8166C128.38 29.8166 127.308 29.7161 125.968 29.5151L125.8 29.4816C125.767 29.4816 125.733 29.4816 125.7 29.4816C125.499 29.4816 125.297 29.3811 125.163 29.2471C124.828 28.9121 124.828 28.376 125.163 28.0745C125.364 27.8735 125.666 27.773 125.934 27.84C125.968 27.84 126.001 27.84 126.035 27.84L126.169 27.8735C128.681 28.2755 130.256 28.175 130.758 27.974C130.356 27.1029 127.877 24.7243 125.063 22.5466C124.795 22.3456 124.661 21.9435 124.795 21.6085C124.895 21.2735 125.23 21.039 125.566 21.039C126.336 21.0055 127.241 20.8715 127.609 20.704C127.408 20.4694 126.939 20.0004 125.767 19.1963C125.297 18.8613 124.828 18.5598 124.359 18.2583C123.957 18.0237 123.857 17.4877 124.091 17.1192C124.326 16.7171 124.862 16.6166 125.23 16.8512C125.733 17.1527 126.236 17.5212 126.738 17.8562C128.581 19.1293 129.05 19.7659 129.251 20.1344C129.485 20.6034 129.485 21.106 129.251 21.5415C128.949 22.0441 128.346 22.3456 127.676 22.5131C128.179 22.9151 128.748 23.4177 129.318 23.9537C132.367 26.7009 132.635 27.7395 132.501 28.443C132.4 28.7446 132.166 29.8166 129.217 29.8166Z" fill="black"/>
</svg>
