<svg viewBox="0 0 204 146" fill="none" xmlns="http://www.w3.org/2000/svg">
    <path d="M179.394 2.09872C179.394 2.09872 171.939 -1.87738 168.399 4.53284C165.536 9.74948 163.754 16.2605 163.514 17.6644C163.218 19.0632 163.395 21.5309 166.205 23.2655C168.473 24.6665 172.064 25.958 172.064 25.958L174.481 31.4206C174.481 31.4206 175.322 33.4916 176.108 32.992C177.613 32.1008 183.796 29.919 183.796 29.919L190.74 32.5949C190.74 32.5949 194.268 33.9379 195.679 30.9286C197.089 27.9192 200.992 19.3749 200.992 19.3749C200.992 19.3749 204.877 13.5659 197.536 9.59993L179.394 2.09872Z"
          fill="#ED6E76" stroke="#000102" stroke-width="1.29756" stroke-miterlimit="10"/>
    <path d="M184.135 12.1594C184.135 12.1594 183.325 9.1218 180.137 9.06373C176.954 8.9491 175.05 11.743 175.382 14.3956C175.714 17.0482 179.099 23.1678 179.099 23.1678C179.099 23.1678 185.403 23.4485 189.281 20.2616C193.159 17.0746 190.847 9.79704 184.135 12.1594Z"
          fill="white"/>
    <path d="M143.403 119.072C151.972 111.57 152.532 99.5389 151.817 86.5262L151.927 86.5221C151.927 86.5221 159.066 113.903 154.311 124.875C150.181 134.41 134.949 133.737 130.177 132.491C131.46 131.821 132.411 130.969 132.922 129.931C134.66 126.417 133.69 123.751 131.948 122.185C132.805 121.568 133.832 121.02 135.062 120.582C138.4 119.393 141.243 119.064 143.403 119.072Z"
          fill="white"/>
    <path d="M153.072 7.56903C156.361 11.0018 151.854 32.1947 151.854 32.1947L151.651 32.2231C150.628 24.3554 148.224 17.6847 143.204 14.2114C145.901 10.6975 150.766 5.15881 153.072 7.56903Z"
          fill="white"/>
    <path d="M152.037 32.6005C152.037 32.6005 154.627 31.9675 155.034 31.1235C155.358 30.4499 152.106 27.8693 151.277 27.6258C150.087 20.8618 147.683 17.3154 143.204 14.2195C141.097 12.7628 138.526 11.866 135.4 11.6834C126.307 11.1519 119.989 12.9291 115.619 16.021C110.149 19.888 107.92 23.3329 106.962 29.3503C105.63 29.9224 103.279 31.3345 103.713 31.9391C104.424 32.921 107.319 33.6636 107.319 33.6636C107.319 33.6636 98.6208 41.6774 98.9943 42.4889C99.3679 43.3004 103.681 42.5132 104.765 42.6147C105.082 42.6431 106.279 42.6025 106.913 42.3874C106.929 42.8338 106.312 43.1706 106.332 43.6007C106.86 53.7285 106.779 73.2456 97.4756 79.4944C81.0618 90.527 49.1154 80.2653 31.589 90.3607C22.1719 95.7857 17.5873 103.666 17.0594 110.288C16.8442 113.027 17.3233 115.542 18.4441 117.587C19.0776 118.768 19.9344 119.791 20.9902 120.602C18.3304 123.633 18.5172 127.427 22.241 129.391C32.3605 134.727 78.4994 137.246 78.134 127.902C78.1299 127.825 78.1258 127.748 78.1177 127.675C84.4282 127.723 90.7428 127.622 96.8299 127.378C97.8979 129.111 99.4085 130.45 101.476 131.217C111.347 134.885 124.281 135.595 130.177 132.499C131.461 131.83 132.411 130.977 132.922 129.939C134.66 126.425 133.69 123.759 131.948 122.193C132.805 121.576 133.832 121.028 135.062 120.59C138.4 119.401 141.243 119.072 143.403 119.08C151.972 111.578 152.532 99.5471 151.817 86.5343C151.643 83.345 151.391 80.0949 151.164 76.8366C150.599 68.766 153.007 59.7743 152.597 46.2422C153.401 46.4451 154.952 46.015 155.237 45.7877C155.947 45.2115 151.428 39.9042 151.428 39.9042C151.428 39.9042 158.449 41.0525 158.583 40.2085C158.721 39.3523 152.037 32.6005 152.037 32.6005Z"
          fill="white"/>
    <path d="M115.619 16.0129C110.064 19.9407 107.664 25.9906 106.738 32.1095L106.685 32.1014C106.685 32.1014 100.07 12.9535 103.213 9.39495C105.512 6.79402 112.188 12.6613 115.619 16.0129Z"
          fill="#F5C38B"/>
    <path d="M28.657 136.451C35.4589 136.524 36.0883 141.422 33.3594 143.065C28.2022 146.177 3.46782 146.697 1.30341 134.013C-1.51886 117.498 16.8482 110.267 16.8482 110.267L17.0593 110.28C16.8441 113.018 17.3233 115.534 18.4441 117.579L18.3832 117.612C18.3832 117.612 8.97022 120.411 9.15295 128.94C9.31132 136.411 21.8552 136.374 28.657 136.451Z"
          fill="white"/>
    <path d="M143.38 33.5501C145.526 31.8693 145.547 28.3147 143.427 25.6107C141.306 22.9068 137.847 22.0773 135.7 23.7581C133.554 25.4388 133.533 28.9934 135.653 31.6974C137.774 34.4014 141.233 35.2309 143.38 33.5501Z"
          fill="#F5C38B"/>
    <path d="M115.619 16.0129C115.619 16.0129 118.129 13.696 119.347 13.7974C120.565 13.8989 122.596 20.4925 118.433 27.8977C114.271 35.3028 106.69 34.8646 106.69 34.8646C106.69 34.8646 105.134 30.8394 109.601 22.5213"
          fill="#F5C38B"/>
    <path d="M60.4653 85.313C60.4653 85.313 65.4358 99.7175 80.3633 97.4858C97.3172 94.9498 98.84 78.6179 98.84 78.6179C98.84 78.6179 92.4442 83.1827 83.7135 84.2986C74.9827 85.4144 64.5261 85.0087 64.5261 85.0087"
          fill="#F5C38B"/>
    <path d="M16.2026 135.222C16.2026 135.222 13.4615 142.018 15.898 144.351C18.3345 146.684 32.0397 145.771 33.9686 142.424C35.8975 139.076 32.9534 136.743 30.3139 136.54C27.6743 136.338 20.974 136.236 20.974 136.236"
          fill="#F5C38B"/>
    <path d="M62.5973 105.5C62.5973 105.5 57.9273 107.021 58.0289 112.803C58.1304 118.585 63.917 120.006 63.917 120.006C63.917 120.006 70.4143 116.861 65.7444 108.746"
          fill="#F5C38B"/>
    <path d="M96.2004 125.382C96.2004 125.382 102.596 123.049 107.469 126.599C112.342 130.15 111.225 133.599 111.225 133.599C111.225 133.599 100.87 133.091 97.9263 128.527"
          fill="#F5C38B"/>
    <path d="M149.803 111.148C149.803 111.148 151.631 112.162 151.225 115.205C150.818 118.249 148.248 120.144 148.248 120.144L146.287 119.06L143.407 119.072C143.407 119.072 145.409 116.626 146.762 115.408"
          fill="#F5C38B"/>
    <path d="M107.603 31.448C107.603 31.448 103.575 33.1725 104.558 33.9515C105.54 34.7306 106.657 34.7306 106.657 34.7306"
          fill="#F5C38B"/>
    <path d="M107.01 42.8378C107.01 42.8378 103.713 46.3354 104.371 47.4026C105.029 48.4698 108.586 47.4026 108.586 47.4026"
          fill="white"/>
    <path d="M107.213 29.4963C107.059 29.5978 102.089 31.4237 103.66 32.7424C105.232 34.0612 108.582 32.994 108.582 32.994"
          fill="#F5C38B"/>
    <path opacity="0.25"
          d="M62.9019 121.783C62.9019 121.783 88.891 122.594 94.3041 120.294C94.3041 120.294 95.5224 126.514 96.6066 127.464C97.6908 128.409 78.1989 128.003 78.1989 128.003C78.1989 128.003 76.8467 124.079 73.46 123.268C70.0773 122.456 63.1739 122.996 63.1739 122.996"
          fill="black"/>
    <path opacity="0.25"
          d="M116.366 118.537C116.366 118.537 134.1 120.971 142.896 111.773C151.696 102.574 152.102 94.053 152.102 94.053C152.102 94.053 152.914 104.603 148.987 112.04C145.06 119.478 143.03 119.75 143.03 119.75C143.03 119.75 137.073 119.616 135.18 120.427C133.284 121.239 131.659 122.184 131.659 122.184C131.659 122.184 127.599 120.428 126.786 120.156C125.974 119.884 121.507 120.156 121.507 120.156"
          fill="black"/>
    <path opacity="0.25"
          d="M16.7426 111.773C16.7426 111.773 19.045 117.182 24.186 118.265L20.9374 120.566C20.9374 120.566 17.8227 118.265 17.2826 116.374"
          fill="black"/>
    <path d="M105.938 30.8232C105.508 30.8232 105.106 30.5472 104.972 30.1131C102.397 21.9654 99.8715 11.6428 102.454 8.72131C102.994 8.10861 103.746 7.76777 104.619 7.73531C107.161 7.64604 111.104 10.1821 116.33 15.2865C116.732 15.6761 116.74 16.3212 116.346 16.7229C115.952 17.1246 115.311 17.1287 114.909 16.7392C110.369 12.3042 106.552 9.69108 104.692 9.76412C104.277 9.78035 104.091 9.93454 103.973 10.0684C102.535 11.6915 103.689 19.3198 106.905 29.5044C107.075 30.04 106.779 30.6081 106.243 30.7785C106.141 30.811 106.04 30.8232 105.938 30.8232Z"
          fill="black"/>
    <path d="M152.577 29.472C152.516 29.472 152.459 29.4679 152.398 29.4558C151.846 29.3584 151.48 28.8309 151.578 28.2791C153.892 15.3515 153.486 9.46794 152.341 8.27094C152.142 8.064 151.927 7.97879 151.635 7.99502C150.079 8.08023 147.233 10.6325 144.012 14.828C143.671 15.2744 143.034 15.3555 142.591 15.0147C142.144 14.6739 142.063 14.0368 142.404 13.5945C146.185 8.66047 149.255 6.09605 151.521 5.97027C152.41 5.92158 153.198 6.23401 153.807 6.867C155.858 9.00537 155.781 16.3294 153.576 28.6361C153.486 29.1271 153.06 29.472 152.577 29.472Z"
          fill="black"/>
    <path d="M81.212 128.693C80.1765 128.693 79.145 128.689 78.1095 128.681C77.5491 128.677 77.0984 128.218 77.1024 127.658C77.1065 127.098 77.5573 126.64 78.1258 126.652C84.3957 126.701 90.6777 126.599 96.7893 126.356C97.3415 126.335 97.8207 126.77 97.8451 127.33C97.8694 127.89 97.4309 128.36 96.8705 128.385C91.7335 128.592 86.4789 128.693 81.212 128.693Z"
          fill="black"/>
    <path d="M143.403 120.087C143.119 120.087 142.839 119.969 142.64 119.742C142.27 119.32 142.311 118.679 142.733 118.309C152.512 109.752 151.448 94.9498 150.319 79.2833C150.262 78.488 150.205 77.6927 150.148 76.8974C149.872 72.9494 150.205 67.5487 150.595 61.2918C150.887 56.5972 151.216 51.2736 151.289 46.1001C151.298 45.5442 151.748 45.1019 152.305 45.1019C152.309 45.1019 152.313 45.1019 152.321 45.1019C152.881 45.11 153.328 45.5686 153.32 46.1285C153.247 51.3507 152.914 56.6986 152.621 61.4136C152.24 67.5974 151.907 72.9412 152.175 76.7514C152.231 77.5466 152.288 78.3379 152.345 79.1332C153.511 95.319 154.611 110.608 144.073 119.831C143.878 120.006 143.639 120.087 143.403 120.087Z"
          fill="black"/>
    <path d="M20.9902 121.608C20.775 121.608 20.5557 121.539 20.373 121.397C17.3111 119.044 15.7274 115.043 16.036 110.421C16.568 102.424 22.1922 94.5927 31.0854 89.472C39.8852 84.404 52.2057 84.331 64.1201 84.258C76.2416 84.1849 88.7773 84.1119 96.9111 78.6422C104.322 73.6635 105.662 59.3442 105.479 48.2101C105.471 47.6501 105.918 47.1876 106.478 47.1794C106.482 47.1794 106.491 47.1794 106.495 47.1794C107.047 47.1794 107.502 47.6217 107.51 48.1776C107.701 59.8149 106.214 74.8443 98.0481 80.3302C89.4027 86.1407 76.5583 86.2178 64.1323 86.2908C52.4818 86.3598 40.4334 86.4328 32.1006 91.233C22.3262 96.865 18.44 104.911 18.0664 110.559C17.8065 114.491 19.0979 117.855 21.6156 119.791C22.0582 120.131 22.1435 120.768 21.8024 121.215C21.5953 121.474 21.2948 121.608 20.9902 121.608Z"
          fill="black"/>
    <path d="M106.336 44.6556C105.82 44.6556 105.398 44.2742 105.329 43.7792C105.321 43.7224 105.317 43.6696 105.317 43.625C105.301 43.3125 105.288 43.0001 105.276 42.6755C105.256 42.1155 105.695 41.6449 106.251 41.6246C106.815 41.5962 107.282 42.0425 107.303 42.5984C107.315 42.9149 107.327 43.2192 107.343 43.5235C107.347 43.5601 107.347 43.5966 107.347 43.6331C107.351 44.1971 106.897 44.6556 106.336 44.6556Z"
          fill="black"/>
    <path d="M107.388 29.8656C107.307 29.8656 107.226 29.8575 107.14 29.8372C106.596 29.7033 106.263 29.1514 106.401 28.6077C107.867 22.7201 110.771 18.204 115.03 15.1851C119.981 11.6793 126.856 10.1577 135.456 10.6609C138.644 10.8475 141.442 11.7605 143.781 13.3754C147.631 16.0413 150.238 20.5006 151.752 27.0171C151.878 27.5608 151.541 28.1086 150.993 28.2344C150.449 28.3643 149.901 28.0234 149.775 27.4756C148.378 21.4744 146.039 17.4087 142.624 15.0431C140.597 13.6432 138.145 12.8479 135.339 12.6856C127.209 12.2068 120.768 13.6067 116.204 16.8366C112.354 19.5633 109.719 23.6858 108.371 29.0906C108.257 29.5572 107.843 29.8656 107.388 29.8656Z"
          fill="black"/>
    <path d="M119.481 135.433C113.536 135.433 106.779 134.26 101.118 132.158C98.4299 131.16 96.4279 129.224 95.169 126.404C89.9346 114.694 99.0999 91.1478 99.4897 90.1536C99.6968 89.6343 100.286 89.3746 100.805 89.5815C101.325 89.7885 101.585 90.3768 101.378 90.8962C101.285 91.1315 92.1356 114.645 97.0207 125.581C98.0644 127.918 99.6359 129.448 101.825 130.259C114.06 134.804 129.576 134.406 132.009 129.484C132.939 127.605 133.064 125.853 132.382 124.42C131.619 122.822 130.068 121.961 128.874 121.689C128.37 121.576 127.379 121.442 126.23 121.292C119.867 120.444 109.215 119.028 108.781 113.375C108.736 112.815 109.154 112.329 109.715 112.288C110.275 112.239 110.763 112.661 110.807 113.221C111.116 117.234 121.897 118.667 126.502 119.283C127.749 119.45 128.732 119.579 129.324 119.713C131.444 120.196 133.32 121.665 134.218 123.548C134.888 124.952 135.363 127.281 133.832 130.381C132.106 133.874 126.336 135.433 119.481 135.433Z"
          fill="black"/>
    <path d="M131.948 123.199C131.631 123.199 131.322 123.053 131.123 122.777C130.794 122.322 130.9 121.689 131.355 121.361C132.334 120.659 133.466 120.075 134.721 119.624C137.673 118.573 140.585 118.054 143.407 118.054C146.433 118.066 148.228 118.719 148.301 118.748C148.824 118.942 149.097 119.527 148.902 120.05C148.707 120.574 148.122 120.845 147.598 120.647C147.586 120.643 146.035 120.091 143.403 120.083C140.837 120.062 138.136 120.561 135.408 121.531C134.331 121.917 133.369 122.412 132.545 123C132.362 123.138 132.155 123.199 131.948 123.199Z"
          fill="black"/>
    <path d="M136.874 134.223C134.003 134.223 131.489 133.883 129.921 133.473C129.377 133.331 129.052 132.779 129.195 132.235C129.337 131.692 129.889 131.367 130.433 131.509C135.014 132.706 149.555 133.294 153.377 124.473C157.937 113.948 151.013 87.0496 150.94 86.7778C150.798 86.234 151.123 85.6822 151.667 85.5402C152.207 85.3982 152.763 85.7228 152.906 86.2665C153.202 87.3986 160.077 114.114 155.237 125.276C152.167 132.381 143.558 134.223 136.874 134.223Z"
          fill="black"/>
    <path d="M44.7866 130.275C44.3155 130.275 43.8932 129.947 43.7957 129.468C43.682 128.92 44.0353 128.38 44.5835 128.267C44.7622 128.23 62.4674 124.457 65.5658 116.289C66.5566 113.676 65.9272 110.912 63.645 107.849C52.2707 92.5963 28.4905 109.176 28.251 109.342C27.7921 109.667 27.1586 109.557 26.8337 109.103C26.5089 108.644 26.6185 108.011 27.0733 107.687C27.3292 107.504 33.4691 103.191 41.2252 100.825C51.7306 97.6196 60.043 99.6282 65.2693 106.636C67.9657 110.251 68.7048 113.741 67.4621 117.011C63.9699 126.214 45.7693 130.093 44.9937 130.251C44.9246 130.267 44.8556 130.275 44.7866 130.275Z"
          fill="black"/>
    <path d="M55.3812 135.197C42.1024 135.197 27.1261 133.108 21.7699 130.279C19.8247 129.253 18.6146 127.735 18.2735 125.885C17.908 123.897 18.6024 121.779 20.2308 119.924C22.3831 117.474 25.8429 115.826 29.9727 115.287C30.5331 115.214 31.0366 115.607 31.1097 116.159C31.1828 116.715 30.7889 117.222 30.2326 117.295C26.5941 117.77 23.5851 119.178 21.7577 121.259C20.5476 122.639 20.0197 124.148 20.2714 125.516C20.4948 126.729 21.3435 127.756 22.7201 128.482C26.7647 130.616 37.6558 132.467 49.2047 132.986C61.7323 133.55 71.8478 132.43 75.6041 130.064C77.1675 129.078 77.135 128.21 77.1228 127.926C77.1187 127.881 77.1187 127.825 77.1106 127.772C77.0294 126.81 76.6274 126.06 75.8802 125.447C73.6589 123.621 68.3799 123.065 61.0257 123.885C60.4653 123.95 59.9659 123.544 59.905 122.988C59.844 122.432 60.2461 121.929 60.8024 121.868C68.9362 120.963 74.4467 121.641 77.1715 123.881C78.3492 124.846 79.007 126.092 79.1329 127.577C79.141 127.642 79.1451 127.739 79.1491 127.837C79.1897 128.912 78.7958 130.454 76.6842 131.785C72.8386 134.207 64.5099 135.197 55.3812 135.197Z"
          fill="black"/>
    <path d="M22.6633 145.966C17.7862 145.966 12.361 145.167 8.1215 143.227C3.67085 141.19 0.966349 138.062 0.304437 134.179C-0.909746 127.07 1.52268 120.505 7.33776 115.193C11.6666 111.241 16.2878 109.395 16.4827 109.318C17.0025 109.111 17.5913 109.367 17.7984 109.89C18.0055 110.409 17.7497 111.002 17.2258 111.205C17.1812 111.221 12.7143 113.014 8.66158 116.731C3.33786 121.621 1.19781 127.374 2.30236 133.842C2.85463 137.076 5.09619 139.616 8.96614 141.385C17.1081 145.11 29.66 144.116 32.8356 142.197C33.6396 141.71 34.0213 140.801 33.7858 139.929C33.4691 138.76 31.9503 137.498 28.6489 137.462L28.186 137.457C20.7547 137.38 8.32048 137.246 8.1418 128.961C7.94282 119.766 17.9974 116.67 18.0989 116.638C18.6349 116.48 19.2034 116.784 19.3618 117.319C19.5202 117.855 19.2156 118.423 18.6796 118.581C18.3263 118.687 10.0098 121.276 10.1722 128.916C10.3103 135.238 21.9526 135.364 28.2103 135.429L28.6773 135.433C34.2569 135.494 35.5035 138.48 35.7512 139.393C36.2304 141.146 35.4832 142.972 33.8914 143.929C31.8285 145.175 27.5159 145.966 22.6633 145.966Z"
          fill="black"/>
    <path d="M136.557 34.0206C136.155 33.2253 135.879 32.9129 133.207 32.7993C130.315 32.6776 128.179 33.4485 128.326 34.471C128.545 35.9561 130.721 37.1531 132.74 37.1328C134.758 37.1166 137.223 35.3394 136.557 34.0206Z"
          fill="black"/>
    <path d="M118.174 36.1915C117.845 36.1915 117.573 35.9318 117.564 35.5991C117.556 35.2623 117.82 34.9823 118.157 34.9742L119.871 34.9255C120.204 34.9093 120.488 35.1811 120.496 35.5179C120.504 35.8547 120.24 36.1347 119.903 36.1428L118.19 36.1915C118.186 36.1915 118.178 36.1915 118.174 36.1915Z"
          fill="black"/>
    <path d="M119.022 39.2306C118.783 39.2306 118.559 39.0885 118.462 38.8573C118.332 38.5489 118.478 38.1918 118.787 38.062L120.322 37.4168C120.63 37.287 120.988 37.433 121.118 37.7414C121.248 38.0498 121.101 38.4069 120.793 38.5367L119.258 39.1819C119.181 39.2143 119.099 39.2306 119.022 39.2306Z"
          fill="black"/>
    <path d="M145.113 36.2889C145.093 36.2889 145.072 36.2889 145.052 36.2848L143.346 36.1184C143.014 36.086 142.766 35.7898 142.798 35.453C142.831 35.1203 143.131 34.8727 143.464 34.9052L145.17 35.0716C145.503 35.104 145.751 35.4002 145.718 35.737C145.686 36.0535 145.422 36.2889 145.113 36.2889Z"
          fill="black"/>
    <path d="M144.053 39.2631C143.96 39.2631 143.866 39.2428 143.777 39.1982L142.291 38.4475C141.99 38.2974 141.868 37.9281 142.023 37.6279C142.173 37.3276 142.542 37.2099 142.843 37.3601L144.329 38.1107C144.63 38.2608 144.752 38.6301 144.597 38.9304C144.488 39.1413 144.272 39.2631 144.053 39.2631Z"
          fill="black"/>
    <path d="M126.126 28.6817C126.164 27.2255 125.399 26.0243 124.417 25.9986C123.435 25.973 122.608 27.1327 122.57 28.5889C122.532 30.0451 123.297 31.2464 124.279 31.272C125.261 31.2976 126.088 30.1379 126.126 28.6817Z"
          fill="black"/>
    <path d="M140.858 28.3559C140.897 26.8997 140.131 25.6985 139.149 25.6728C138.167 25.6472 137.34 26.8069 137.302 28.2631C137.264 29.7193 138.029 30.9205 139.011 30.9462C139.994 30.9718 140.82 29.8121 140.858 28.3559Z"
          fill="black"/>
    <path d="M121.008 28.8066C120.691 28.8066 120.391 28.6199 120.261 28.3116C120.086 27.8977 120.277 27.4229 120.691 27.2485C120.724 27.2363 123.903 25.8689 125.382 23.9293C125.654 23.5723 126.161 23.5033 126.519 23.7752C126.876 24.047 126.945 24.5542 126.673 24.9113C124.931 27.1957 121.471 28.6768 121.325 28.7417C121.219 28.7863 121.114 28.8066 121.008 28.8066Z"
          fill="black"/>
    <path d="M142.282 28.8512C142.14 28.8512 141.998 28.8147 141.872 28.7376C139.497 27.3377 137.73 24.8544 137.657 24.7489C137.397 24.3837 137.487 23.8765 137.852 23.6168C138.218 23.3572 138.725 23.4464 138.985 23.8116C139.001 23.836 140.63 26.1163 142.701 27.3377C143.087 27.5649 143.216 28.064 142.989 28.4495C142.831 28.7092 142.559 28.8512 142.282 28.8512Z"
          fill="black"/>
    <path d="M128.988 42.5619C128.878 42.5619 128.768 42.5335 128.667 42.4726C128.382 42.2941 128.293 41.9208 128.468 41.6368C132.074 35.81 132.573 35.9439 133.016 36.0575C133.231 36.1143 133.735 36.2442 137.247 41.1011C137.446 41.373 137.381 41.7544 137.109 41.9492C136.837 42.144 136.455 42.0831 136.26 41.8112C135.002 40.0705 133.479 38.0904 132.837 37.4087C132.196 38.1269 130.705 40.3343 129.507 42.2738C129.39 42.4604 129.191 42.5619 128.988 42.5619Z"
          fill="black"/>
    <path d="M104.728 49.3543C104.115 49.3543 103.62 49.2935 103.352 49.1758C102.925 48.9892 102.771 48.6564 102.718 48.4738C102.608 48.0924 102.434 47.4878 104.984 43.7873C101.776 44.0186 98.6654 43.7264 98.3405 41.8031C98.1943 40.9023 98.5964 39.6201 102.511 36.3253C103.441 35.5422 104.387 34.7997 105.175 34.2032C104.046 33.8867 103.315 33.4201 102.994 32.8033C102.71 32.2637 102.742 31.6469 103.075 31.0667C103.392 30.527 104.204 29.5775 107.611 27.5203C108.091 27.2282 108.716 27.3864 109.004 27.8652C109.293 28.344 109.138 28.9689 108.659 29.257C106.04 30.8394 105.195 31.6388 104.931 31.9512C105.285 32.1501 106.178 32.4463 107.737 32.5802C108.192 32.6086 108.614 32.9251 108.708 33.3755C108.797 33.8177 108.627 34.2519 108.237 34.4629C104.785 36.8975 100.846 40.2531 100.383 41.4217C101.102 41.8599 104.119 41.9208 106.974 41.5394C107.376 41.4866 107.774 41.6773 107.981 42.0263C108.188 42.3752 108.168 42.8135 107.928 43.1421C106.889 44.5664 105.752 46.2543 105.134 47.3134C106.109 47.2606 107.494 47.0577 108.383 46.6114C109.825 45.8851 112.314 44.7611 112.419 44.7165C112.931 44.4852 113.532 44.7124 113.763 45.2237C113.995 45.735 113.768 46.3355 113.256 46.5668C113.232 46.5789 110.702 47.7232 109.297 48.4252C108.054 49.0541 106.101 49.3543 104.728 49.3543Z"
          fill="black"/>
    <path d="M154.132 47.3296C153.222 47.3296 152.142 47.1916 151.111 46.8346C148.532 45.9419 145.665 44.1038 145.547 44.0267C145.076 43.7224 144.942 43.0935 145.247 42.6228C145.551 42.1521 146.181 42.0182 146.652 42.3184C146.68 42.3347 149.434 44.1038 151.781 44.9113C152.662 45.2156 153.527 45.2927 154.189 45.2886C153.746 44.6638 152.987 43.6737 151.724 42.1115L151.427 41.7463C151.233 41.5029 151.094 41.3406 151.062 41.3C150.701 40.8699 150.761 40.2288 151.192 39.8717C151.622 39.5106 152.264 39.5714 152.621 40.0016C152.658 40.0462 152.804 40.2207 153.015 40.4804L153.304 40.8415C156.881 45.2602 156.93 45.7066 156.702 46.3801C156.637 46.5749 156.483 46.8427 156.118 47.0212C155.736 47.1998 155.013 47.3296 154.132 47.3296Z"
          fill="black"/>
    <path d="M155.992 42.0628C154.968 42.0628 153.673 41.9613 152.037 41.7098L151.878 41.6854C151.829 41.6773 151.793 41.6733 151.764 41.6692C151.521 41.653 151.289 41.5475 151.115 41.373C150.717 40.9753 150.713 40.3302 151.111 39.9366C151.367 39.681 151.724 39.5876 152.053 39.6607C152.089 39.6647 152.13 39.6688 152.175 39.6769L152.333 39.7013C155.37 40.1679 157.299 40.0624 157.9 39.8189C157.421 38.7558 154.396 35.8668 150.985 33.2375C150.644 32.9737 150.506 32.5274 150.64 32.1176C150.774 31.7077 151.151 31.4278 151.582 31.4197C152.528 31.3953 153.592 31.2127 154.075 31.0058C153.84 30.7299 153.251 30.1659 151.825 29.1717C151.273 28.7863 150.68 28.3927 150.104 28.0315C149.628 27.7353 149.486 27.1064 149.783 26.6317C150.079 26.1569 150.709 26.0149 151.184 26.3111C151.793 26.6925 152.418 27.1064 152.991 27.5122C155.224 29.0662 155.789 29.821 156.016 30.2551C156.321 30.8354 156.317 31.4359 156.012 31.9512C155.655 32.5517 154.899 32.9169 154.091 33.132C154.7 33.6392 155.403 34.2356 156.101 34.8686C159.793 38.1999 160.138 39.4497 159.963 40.3018C159.858 40.7928 159.594 42.0628 155.992 42.0628Z"
          fill="black"/>
</svg>
