<svg width="50" height="50" viewBox="0 0 50 50" fill="none" xmlns="http://www.w3.org/2000/svg">
<path d="M25 46.5C37.9787 46.5 48.5 36.8741 48.5 25C48.5 13.1259 37.9787 3.5 25 3.5C12.0213 3.5 1.5 13.1259 1.5 25C1.5 36.8741 12.0213 46.5 25 46.5Z" fill="#FFE500"/>
<path d="M25 42.5C11.7 42.5 2.594 33.933 1.6 23C1.54 23.659 1.5 24.325 1.5 25C1.5 36.874 10.9 46.5 25 46.5C39.1 46.5 48.5 36.874 48.5 25C48.5 24.324 48.461 23.658 48.4 23C47.406 33.933 38.3 42.5 25 42.5Z" fill="#F2C100"/>
<path d="M25 7.00301C28.5899 7.00301 31.5 6.55484 31.5 6.00201C31.5 5.44917 28.5899 5.00101 25 5.00101C21.4101 5.00101 18.5 5.44917 18.5 6.00201C18.5 6.55484 21.4101 7.00301 25 7.00301Z" fill="#FFFACF"/>
<path d="M25 46.5C37.9787 46.5 48.5 36.8741 48.5 25C48.5 13.1259 37.9787 3.5 25 3.5C12.0213 3.5 1.5 13.1259 1.5 25C1.5 36.8741 12.0213 46.5 25 46.5Z" stroke="#45413C" stroke-width="1.25" stroke-miterlimit="10"/>
<path d="M31.5 20.484C32.4665 20.484 33.25 19.3647 33.25 17.984C33.25 16.6033 32.4665 15.484 31.5 15.484C30.5335 15.484 29.75 16.6033 29.75 17.984C29.75 19.3647 30.5335 20.484 31.5 20.484Z" fill="#45413C"/>
<path d="M18.5 20.484C19.4665 20.484 20.25 19.3647 20.25 17.984C20.25 16.6033 19.4665 15.484 18.5 15.484C17.5335 15.484 16.75 16.6033 16.75 17.984C16.75 19.3647 17.5335 20.484 18.5 20.484Z" fill="#45413C"/>
<path d="M35 33C33.15 29.18 30.1 26 25 26C19.9 26 16.843 29.178 15 33" stroke="#45413C" stroke-width="1.25" stroke-linecap="round" stroke-linejoin="round"/>
</svg>
