<svg width="16" height="11" viewBox="0 0 16 11" fill="none" xmlns="http://www.w3.org/2000/svg">
<path d="M14.0096 2.29046e-05C13.6136 -0.00187169 13.226 0.113808 12.8958 0.332416C12.5657 0.551025 12.3078 0.862717 12.155 1.228C12.0022 1.59328 11.9612 1.99571 12.0373 2.3843C12.1134 2.77289 12.3031 3.13015 12.5824 3.41082C12.8617 3.69148 13.2181 3.88291 13.6063 3.96086C13.9945 4.03881 14.3971 3.99977 14.7631 3.84868C15.1292 3.69759 15.4421 3.44126 15.6623 3.11215C15.8825 2.78305 16 2.39599 16 2.00002C15.9975 1.47201 15.7873 0.966193 15.4148 0.591933C15.0424 0.217673 14.5376 0.00504578 14.0096 2.29046e-05Z" fill="#181818"/>
<path d="M1.99038 2.3117e-05C1.59524 0.00192289 1.20951 0.120832 0.881876 0.341747C0.554245 0.562661 0.299399 0.875673 0.149497 1.24129C-0.000405125 1.6069 -0.0386432 2.00874 0.0396096 2.39606C0.117863 2.78339 0.309099 3.13885 0.589183 3.41759C0.869267 3.69634 1.22565 3.88587 1.61334 3.96227C2.00104 4.03866 2.40268 3.9985 2.76757 3.84684C3.13246 3.69519 3.44425 3.43884 3.6636 3.11015C3.88294 2.78147 4 2.39517 4 2.00002C4 1.73656 3.94795 1.47571 3.84684 1.23243C3.74573 0.989147 3.59756 0.768238 3.41082 0.582395C3.22408 0.396552 3.00247 0.249435 2.75871 0.149493C2.51494 0.049551 2.25384 -0.00124349 1.99038 2.3117e-05V2.3117e-05Z" fill="#181818"/>
<path d="M12.592 9.51683C12.019 8.98393 11.3418 8.57552 10.6031 8.31736C9.86438 8.05919 9.08021 7.95687 8.3 8.01683C7.51854 7.95653 6.73307 8.05868 5.99302 8.31683C5.25298 8.57499 4.5744 8.98356 4 9.51683" stroke="#181818" stroke-width="2" stroke-linecap="round"/>
</svg>
