<svg width="24" height="24" viewBox="0 0 24 24" fill="none" xmlns="http://www.w3.org/2000/svg">
<path d="M5.99986 2.57144C5.09055 2.57144 4.21848 2.93266 3.57549 3.57565C2.93251 4.21863 2.57129 5.0907 2.57129 6.00001V8.86373C2.57129 9.09106 2.66159 9.30907 2.82234 9.46982C2.98309 9.63056 3.2011 9.72087 3.42843 9.72087C3.65576 9.72087 3.87378 9.63056 4.03452 9.46982C4.19527 9.30907 4.28557 9.09106 4.28557 8.86373V6.00001C4.28557 5.54536 4.46619 5.10932 4.78768 4.78783C5.10917 4.46634 5.5452 4.28573 5.99986 4.28573H8.86529C9.09262 4.28573 9.31064 4.19542 9.47138 4.03468C9.63213 3.87393 9.72243 3.65591 9.72243 3.42858C9.72243 3.20126 9.63213 2.98324 9.47138 2.82249C9.31064 2.66175 9.09262 2.57144 8.86529 2.57144H5.99986ZM15.1361 2.57144C14.9088 2.57144 14.6908 2.66175 14.5301 2.82249C14.3693 2.98324 14.279 3.20126 14.279 3.42858C14.279 3.65591 14.3693 3.87393 14.5301 4.03468C14.6908 4.19542 14.9088 4.28573 15.1361 4.28573H17.9999C18.4545 4.28573 18.8906 4.46634 19.212 4.78783C19.5335 5.10932 19.7141 5.54536 19.7141 6.00001V8.86373C19.7141 9.09106 19.8045 9.30907 19.9652 9.46982C20.1259 9.63056 20.344 9.72087 20.5713 9.72087C20.7986 9.72087 21.0166 9.63056 21.1774 9.46982C21.3381 9.30907 21.4284 9.09106 21.4284 8.86373V6.00001C21.4284 5.0907 21.0672 4.21863 20.4242 3.57565C19.7812 2.93266 18.9092 2.57144 17.9999 2.57144H15.1361ZM4.28557 15.1363C4.28557 14.909 4.19527 14.691 4.03452 14.5302C3.87378 14.3695 3.65576 14.2792 3.42843 14.2792C3.2011 14.2792 2.98309 14.3695 2.82234 14.5302C2.66159 14.691 2.57129 14.909 2.57129 15.1363V18C2.57129 18.9093 2.93251 19.7814 3.57549 20.4244C4.21848 21.0674 5.09055 21.4286 5.99986 21.4286H8.86357C9.0909 21.4286 9.30892 21.3383 9.46967 21.1775C9.63041 21.0168 9.72072 20.7988 9.72072 20.5714C9.72072 20.3441 9.63041 20.1261 9.46967 19.9653C9.30892 19.8046 9.0909 19.7143 8.86357 19.7143H5.99986C5.5452 19.7143 5.10917 19.5337 4.78768 19.2122C4.46619 18.8907 4.28557 18.4547 4.28557 18V15.1363ZM21.4284 15.1363C21.4284 14.909 21.3381 14.691 21.1774 14.5302C21.0166 14.3695 20.7986 14.2792 20.5713 14.2792C20.344 14.2792 20.1259 14.3695 19.9652 14.5302C19.8045 14.691 19.7141 14.909 19.7141 15.1363V18C19.7141 18.4547 19.5335 18.8907 19.212 19.2122C18.8906 19.5337 18.4545 19.7143 17.9999 19.7143H15.1361C14.9088 19.7143 14.6908 19.8046 14.5301 19.9653C14.3693 20.1261 14.279 20.3441 14.279 20.5714C14.279 20.7988 14.3693 21.0168 14.5301 21.1775C14.6908 21.3383 14.9088 21.4286 15.1361 21.4286H17.9999C18.9092 21.4286 19.7812 21.0674 20.4242 20.4244C21.0672 19.7814 21.4284 18.9093 21.4284 18V15.1363ZM7.49986 11.1429C7.27253 11.1429 7.05451 11.2332 6.89377 11.3939C6.73302 11.5547 6.64272 11.7727 6.64272 12C6.64272 12.2273 6.73302 12.4454 6.89377 12.6061C7.05451 12.7669 7.27253 12.8572 7.49986 12.8572H16.4999C16.7272 12.8572 16.9452 12.7669 17.106 12.6061C17.2667 12.4454 17.357 12.2273 17.357 12C17.357 11.7727 17.2667 11.5547 17.106 11.3939C16.9452 11.2332 16.7272 11.1429 16.4999 11.1429H7.49986Z" fill="#181818"/>
</svg>
