<svg width="311" height="417" viewBox="0 0 311 417" fill="none" xmlns="http://www.w3.org/2000/svg">
    <g clip-path="url(#clip0_2_169)">
        <path d="M230.658 254.374L230.618 254.164C231.352 242.394 231.827 230.648 232.077 219.167L233.665 219.803C233.665 219.803 253.011 224.634 264.828 246.637C275.017 265.596 275.428 274.992 273.63 279.975C272.333 280.394 271.027 280.498 270.18 279.798C269.898 279.565 269.479 279.806 269.544 280.168L269.632 278.647C242.733 272.238 233.472 281.931 225.677 284.274L220.147 279.605C220.292 277.391 202.696 274.074 194.514 275.378L195.24 274.557C195.24 274.549 208.129 259.365 230.658 254.374Z"
              fill="#81E5EF"/>
        <path d="M120.71 173.229C117.058 175.194 114.156 174.155 111.287 174.155C99.5745 174.155 94.3189 160.042 96.0922 149.222C96.6968 145.527 98.1235 142.218 100.381 139.988C100.63 139.746 100.872 139.513 101.122 139.295C106.321 134.746 111.666 135.978 115.865 138.555C119.09 137.532 123.837 134.771 127.432 127.348C133.397 115.006 130.173 96.2233 130.173 96.2233C130.173 96.2233 140.362 101.32 152.3 98.0992C164.238 94.8789 169.131 85.1132 169.131 85.1132C169.131 85.1132 172.145 91.7068 183.584 90.6361C195.03 89.5573 197.319 84.1471 197.319 84.1471C197.319 84.1471 199.673 89.5814 211.804 87.1581C212.57 89.0098 222.993 94.4683 223.678 96.489C226.314 104.258 228.45 115.835 230.046 130.061C232.561 152.531 233.705 181.618 233.23 212.831V220.898C229.167 224.706 217.253 229.521 189.113 232.049C151.405 235.43 125.192 219.675 125.192 219.675L124.442 219.063C124.474 217.074 124.474 215.126 124.45 213.234C124.377 207.284 124.095 201.464 123.668 195.772C123.047 187.326 121.766 181.063 120.71 173.229Z"
              fill="#FFDBD5"/>
        <path d="M125.345 257.843C126.868 244.737 127.868 232.041 128.021 220.753L128.835 221.365C128.835 221.365 157.048 238.674 197.351 232.234C227.579 227.403 230.812 223.217 235.197 219.409L236.47 221.953C236.446 223.386 243.677 222.895 243.644 224.344C243.394 235.824 244.749 242.08 244.015 253.85L244.055 254.06C221.526 259.051 208.636 274.235 208.636 274.235L207.911 275.056C205.92 274.509 204.139 274.323 202.792 274.702C200.076 275.459 204.226 279.983 205.5 284.967L207 288.5C207 288.5 177.466 315.02 195.739 324.681L196.344 325.019C193.571 329.375 190.516 334.648 191.443 335.421C192.571 336.355 200.036 334.27 204.397 332.933L203.8 334.077C203.8 334.077 185.421 342.288 178.804 357.996L178.006 358.229C172.903 359.034 165.874 358.97 164.302 347.36C162.956 337.434 170.082 333.732 162.424 318.5C158.41 310.513 160.5 311 162.424 322.266C157.5 330 157.857 332.898 163.5 349C169.143 365.101 176.393 365.209 176.393 365.209L176.756 365.241C174.725 377.575 179.811 380.586 183.245 381.254C161.167 385.892 135.687 376.343 135.687 376.343L133.873 376.166C127.787 370.603 118.501 363.647 107.2 360.121C111.117 342.691 118.711 307.05 123.563 271.836C124.216 267.15 124.813 262.465 125.345 257.843Z"
              fill="#81E5EF"/>
        <path d="M181.52 296.23C184.873 309.908 191.435 322.258 199.447 328.836C203.969 332.547 208.459 334.012 212.812 333.199C216.858 332.442 219.261 331.17 219.575 329.616C220.961 322.757 196.811 306.334 181.52 296.23ZM176.007 292.583L175.724 292.398C162.247 283.485 151.639 283.244 145.239 284.508L145.134 284.564C144.159 282.881 142.99 281.473 141.756 280.329L142.482 280.354C149.148 278.582 160.522 278.003 175.055 286.528L180.198 289.805L181.077 290.377C206.654 307.235 226.08 320.905 224.129 330.542C223.388 334.173 219.865 336.605 213.666 337.764C213.167 337.86 212.675 337.925 212.175 337.973C206.952 338.48 201.559 336.58 196.505 332.418C186.848 324.488 179.15 309.039 176.007 292.583Z"
              fill="#7FD2EF"/>
        <path d="M212.248 338.77C206.807 339.302 201.18 337.313 195.989 333.038C186.486 325.229 178.562 309.94 175.281 293.066C162.126 284.371 151.768 284.041 145.4 285.297C144.957 285.385 144.537 285.095 144.449 284.661C144.36 284.226 144.65 283.799 145.085 283.711C151.752 282.398 162.553 282.712 176.168 291.713L176.45 291.898C176.627 292.019 176.756 292.204 176.796 292.414C179.972 309.063 187.719 324.142 197.013 331.774C201.873 335.775 207.089 337.635 212.095 337.152C212.602 337.104 213.062 337.039 213.513 336.951C219.365 335.856 222.67 333.642 223.339 330.357C225.185 321.228 205.09 307.147 180.633 291.029L179.763 290.465C179.569 290.345 179.44 290.143 179.408 289.918C178.812 286.279 178.457 282.64 178.344 279.098C178.328 278.655 178.675 278.284 179.126 278.268C179.569 278.252 179.94 278.606 179.956 279.049C180.061 282.406 180.392 285.86 180.94 289.314L181.512 289.684C208.225 307.292 226.967 320.535 224.919 330.679C224.105 334.664 220.365 337.305 213.811 338.529C213.32 338.641 212.804 338.722 212.248 338.77ZM211.78 334.157C207.548 334.568 203.236 332.99 198.931 329.455C191.008 322.95 184.204 310.6 180.73 296.415C180.65 296.093 180.779 295.755 181.053 295.562C181.327 295.368 181.681 295.368 181.963 295.545C201.728 308.62 221.751 322.902 220.357 329.761C219.97 331.686 217.407 333.143 212.957 333.972C212.57 334.061 212.175 334.117 211.78 334.157ZM182.826 298.057C186.348 311.059 192.676 322.226 199.963 328.216C204.276 331.758 208.556 333.175 212.667 332.41C216.899 331.621 218.6 330.365 218.785 329.464C220.075 323.071 194.554 305.826 182.826 298.057ZM175.136 287.334C174.967 287.35 174.797 287.317 174.652 287.229C160.53 278.945 149.479 279.347 142.7 281.143C142.272 281.255 141.829 280.998 141.716 280.571C141.603 280.144 141.861 279.701 142.288 279.589C149.148 277.777 160.151 277.31 174.096 285.055C173.911 283.187 173.782 281.376 173.717 279.653C173.701 279.21 174.056 278.84 174.491 278.824C174.934 278.808 175.313 279.154 175.321 279.597C175.402 281.762 175.579 284.065 175.861 286.44C175.894 286.746 175.757 287.044 175.499 287.205C175.386 287.277 175.257 287.317 175.136 287.334Z"
              fill="black"/>
        <path d="M298.424 302.875C298.778 303.309 308.749 317.704 307.693 322.197C306.621 326.761 292.781 319.379 292.781 319.379C292.781 319.379 299.165 326.826 297.819 328.436C297.053 329.354 297.472 329.933 293.128 329.281C293.361 329.644 293.579 330.03 293.789 330.449C294.845 332.598 295.215 337.461 294.974 343.096C294.458 354.859 291.241 369.954 285.929 370.501C273.604 371.765 275.41 348.04 280.779 332.88C267.946 328.299 254.235 329.297 241.216 333.049C243.53 344.24 249.213 376.395 238.572 378.552C235.388 379.196 232.785 378.254 230.641 376.25C223.579 369.672 219.548 353.659 219 343.096C201.702 351.703 189.74 360.881 183.888 365.88C183.598 365.856 183.284 365.816 182.953 365.751C179.519 365.083 174.433 362.072 176.464 349.738C176.529 349.296 176.618 348.837 176.706 348.362C177.109 346.301 177.73 344.344 178.512 342.493C185.13 326.786 203.508 318.574 203.508 318.574L204.105 317.43C199.744 318.767 192.28 320.852 191.151 319.918C190.224 319.145 193.279 313.872 196.052 309.517C198.116 306.28 200.018 303.543 200.018 303.543C200.018 303.543 195.713 304.348 195.181 302.738C194.641 301.128 207.273 285.3 207.273 285.3C207.273 285.3 203.194 276.701 201.324 269.351C200.05 264.368 199.784 259.956 202.501 259.199C203.847 258.821 205.628 259.006 207.619 259.553C215.575 261.695 226.884 269.464 226.884 269.464L227.021 269.947C234.808 265.398 255.468 256.188 282.383 266.517L283.31 266.243C283.31 266.243 284.68 265.785 286.792 265.108C293.216 263.063 300.632 259.199 303.462 260.205C307.226 261.55 293.386 281.942 293.386 281.942C293.386 281.942 307.024 299.59 304.872 301.466C302.784 303.293 292.708 303.205 298.424 302.875Z"
              fill="white"/>
        <path d="M298.424 302.875C298.778 303.309 308.749 317.704 307.693 322.197C306.621 326.761 292.781 319.379 292.781 319.379C292.781 319.379 299.165 326.826 297.819 328.436C297.053 329.354 297.472 329.933 293.128 329.281C293.361 329.644 293.579 330.03 293.789 330.449C294.845 332.598 295.215 337.461 294.974 343.096C294.458 354.859 291.241 369.954 285.929 370.501C273.604 371.765 276.73 354.991 282.098 339.831C269.265 335.25 255.554 336.248 242.536 340C244.849 351.191 249.213 376.395 238.572 378.552C235.388 379.196 232.785 378.254 230.641 376.25C223.579 369.672 219.548 353.659 219 343.096C201.702 351.703 189.74 360.881 183.888 365.88C183.598 365.856 183.284 365.816 182.953 365.751C179.519 365.083 174.433 362.072 176.464 349.738C176.529 349.296 176.618 348.837 176.706 348.362C177.109 346.301 177.73 344.344 178.512 342.493C185.13 326.786 203.508 318.574 203.508 318.574L204.105 317.43C199.744 318.767 192.28 320.852 191.151 319.918C190.224 319.145 193.279 313.872 196.052 309.517C198.116 306.28 200.018 303.543 200.018 303.543C200.018 303.543 195.713 304.348 195.181 302.738C194.641 301.128 207.273 285.3 207.273 285.3C207.273 285.3 203.194 276.701 201.324 269.351C200.05 264.368 199.784 259.956 202.501 259.199C203.847 258.821 205.628 259.006 207.619 259.553C215.575 261.695 226.884 269.464 226.884 269.464L227.021 269.947C234.808 265.398 255.468 256.188 282.383 266.517L283.31 266.243C283.31 266.243 284.68 265.785 286.792 265.108C293.216 263.063 300.632 259.199 303.462 260.205C307.226 261.55 293.386 281.942 293.386 281.942C293.386 281.942 307.024 299.59 304.872 301.466C302.784 303.293 292.708 303.205 298.424 302.875Z"
              fill="white"/>
        <path d="M229.917 89.8229C229.917 89.8229 242.613 118.001 230.118 132.09L228.933 133.458C227.217 119.233 224.903 107.655 222.058 99.8865C221.316 97.8657 220.534 95.9255 219.704 94.0738C221.3 93.7759 222.904 93.3089 224.476 92.6407C226.241 91.892 227.902 90.6602 229.425 89.0662L229.917 89.8229Z"
              fill="#F09D80"/>
        <path d="M106.797 88.2691C106.507 88.4623 99.2521 93.2365 97.9382 87.456C96.592 81.5467 107.877 76.7162 107.877 76.7162C107.877 76.7162 99.0102 63.3035 105.459 61.4197C111.907 59.5438 113.254 69.7442 113.254 69.7442C113.254 69.7442 116.204 49.8828 144.15 42.6371C171.291 35.6007 203.631 48.965 202.454 49.0778C193.273 49.9714 205.952 40.9464 204.421 38.4024C198.657 28.8139 197.746 11.4885 193.369 7.82539C193.023 7.53556 192.128 6.84319 192.225 6.04616C192.483 3.88854 199.899 2.43135 205.702 3.15592C211.546 3.88049 216.149 6.86734 220.155 10.3775C222.912 12.7927 237.494 24.1927 244.813 50.2934C250.778 71.5717 246.192 84.7268 242.605 87.3674C242.306 87.5848 237.655 90.942 237.655 90.942C236.083 91.6102 234.479 92.0772 232.883 92.375C219.776 94.7983 206.758 85.8458 206.758 85.8458C206.758 85.8458 204.453 87.0051 192.088 88.084C179.731 89.1547 169.679 87.1823 169.679 87.1823C169.679 87.1823 171.017 96.5776 158.12 99.7979C145.223 103.018 134.212 97.922 134.212 97.922C134.212 97.922 137.702 116.705 131.253 129.046C127.376 136.469 122.241 139.231 118.759 140.253C114.221 137.677 108.449 136.445 102.831 140.994L101.428 138.442C100.34 132.516 99.5019 124.57 100.252 115.263C101.179 103.767 104.185 94.5327 106.797 88.2691Z"
              fill="#F09D80"/>
        <path d="M206 282C207.87 289.351 207.5 288.5 207.5 288.5C207.5 288.5 196.658 301 199.828 305C197.623 310.855 193.735 319.209 194 320C194.532 321.61 200.624 318.41 200.624 318.41C200.624 318.41 198.722 321.147 196.658 324.383L196.054 324.045C177.78 314.384 201.495 284.331 201.495 284.331L206 282Z"
              fill="#FCD5D0"/>
        <path d="M178.006 343.229L178.804 342.995C178.022 344.847 177.401 346.803 176.998 348.864C176.909 349.339 176.821 349.798 176.756 350.241L176.393 350.209C176.393 350.209 163.496 353.695 157.854 337.593C152.211 321.491 167.527 318.811 162.424 307.266C157.314 295.729 165.125 294.988 169.139 302.975C176.797 318.207 162.956 322.433 164.302 332.36C165.874 343.969 172.903 344.034 178.006 343.229Z"
              fill="white"/>
        <path d="M47.0184 226.799C47.0184 226.799 41.8595 256.596 56.2882 255.581C70.5961 254.575 66.1627 224.586 66.1627 224.586L65.8725 223.442C60.2944 225.391 53.7491 226.469 47.0184 226.799ZM128.021 220.753C127.868 232.041 126.868 244.737 125.345 257.843L124.539 258.399C101.969 275.845 40.7068 274.235 40.7068 274.235L38.4175 274.179C33.307 271.586 28.1159 269.461 23.3278 267.931L23.2391 264.84C22.9812 260.838 22.8039 255.597 22.8039 249.559C22.8039 242.531 23.0457 234.432 23.6502 225.93L23.8115 225.141C18.8622 224.151 14.4046 222.782 10.882 221.1C-1.74113 215.086 0.789951 199.258 5.29591 190.539C7.21437 195.071 12.1879 200.095 15.0091 200.626C19.6924 201.504 32.2753 196.166 32.2269 191.714C32.2188 191.263 32.0899 190.828 31.8077 190.402C31.2112 189.5 30.2278 188.663 28.9865 187.906L29.4298 186.98C33.307 171.555 39.2639 158.48 48.2275 152.531C48.4613 152.378 48.695 152.225 48.9288 152.08C74.699 135.503 97.1321 150.784 97.1321 150.784L97.3981 150.921C95.4796 161.741 101.154 175.854 113.81 175.854L115.535 176.281C115.535 176.281 116.945 192.584 126.014 196.81L127.183 197.462C127.642 203.154 127.948 208.975 128.029 214.925C128.053 216.816 128.053 218.765 128.021 220.753Z"
              fill="#F8BF8D"/>
        <path d="M127.183 197.462L126.014 196.81C116.945 192.584 115.535 176.281 115.535 176.281L113.81 175.854C116.913 175.854 120.436 175.009 124.377 173.044C125.514 180.878 126.522 189.025 127.183 197.462Z"
              fill="#F09D80"/>
        <path d="M124.539 258.399L125.345 257.843C124.813 262.465 124.216 267.15 123.563 271.836L123.458 271.82C104.371 283.107 60.8668 284.781 55.2726 284.951C50.3072 280.885 44.4228 277.214 38.4176 274.179L40.7068 274.235C40.7068 274.235 101.969 275.845 124.539 258.399Z"
              fill="#8EAEED"/>
        <path d="M55.2726 284.951C65.7516 293.557 72.1034 303.95 66.7672 313.95C62.5273 321.896 39.1994 320.543 22.1348 310.657C13.268 305.528 6.09393 298.089 4.15935 288.453C-1.36227 260.871 21.8124 250.01 22.8039 249.559C22.8039 255.597 22.9812 260.838 23.2392 264.84L23.3278 267.931C28.1159 269.461 33.307 271.586 38.4175 274.179C44.4228 277.214 50.3072 280.885 55.2726 284.951Z"
              fill="#FFDBD5" stroke="#290B0D" stroke-width="4.3308" stroke-miterlimit="10"/>
        <path d="M47.0184 226.799C53.7491 226.469 60.2944 225.391 65.8725 223.442L66.1627 224.586C66.1627 224.586 70.5961 254.575 56.2882 255.581C41.8595 256.596 47.0184 226.799 47.0184 226.799Z"
              fill="#FF7083"/>
        <path d="M29.2444 364.058C17.6127 347.755 7.20632 354.944 17.2823 343.673C23.0618 337.208 22.0784 338.303 22.6749 335.212C22.03 326.622 21.9817 317.822 22.1268 310.657C39.1914 320.543 62.5192 321.896 66.7592 313.95C72.0954 303.95 65.7435 293.557 55.2645 284.951C60.8587 284.781 104.363 283.107 123.45 271.82L123.555 271.836C118.703 307.05 111.109 342.691 107.192 360.121C97.6077 357.134 86.5806 356.595 74.8199 361.449C63.5268 366.111 55.9416 371.658 51.0649 377.567C50.8231 377.511 50.5812 377.454 50.3394 377.398"
              fill="#F8BF8D"/>
        <path d="M28.8817 160.582C36.1364 151.726 48.832 151.927 48.832 151.927L48.9288 152.08C48.695 152.225 48.4612 152.378 48.2275 152.531C39.2639 158.48 33.307 171.555 29.4298 186.98L28.9865 187.906C26.0765 186.111 21.764 184.734 17.7175 183.921L18.1367 182.23C20.9983 174.059 24.6981 165.694 28.8817 160.582Z"
              fill="#F8BF8D"/>
        <path d="M28.9865 187.906C30.2278 188.663 31.2112 189.5 31.8077 190.402C32.0899 190.828 32.2188 191.263 32.2269 191.714C32.2753 196.166 19.6924 201.504 15.0091 200.626C12.1879 200.095 7.21438 195.071 5.29592 190.539C3.71601 186.795 4.20772 183.381 9.69709 183.108C11.7203 183.003 14.6464 183.301 17.7175 183.921C21.764 184.734 26.0765 186.111 28.9865 187.906Z"
              fill="#704C32"/>
        <path d="M20.8209 250.082L22.9731 263.503L17.8707 271.82C17.8707 271.82 11.9622 294.096 12.7682 299.732C13.5743 305.367 14.9205 306.438 13.5743 305.367C12.2282 304.297 1.21717 297.051 3.36133 277.995C5.51355 258.938 16.5245 253.842 16.5245 253.842"
              fill="#81E5EF"/>
        <path d="M24.7024 189.085C25.0359 187.565 22.7222 185.767 19.5347 185.07C16.3472 184.372 13.493 185.039 13.1595 186.559C12.8261 188.08 15.1397 189.877 18.3272 190.575C21.5147 191.272 24.369 190.605 24.7024 189.085Z"
              fill="white"/>
        <path opacity="0.25"
              d="M207.669 87.295L200.165 87.6573C200.165 87.6573 216.802 99.9106 221.106 100.442C225.403 100.981 228.095 102.052 228.095 102.052L236.946 117.808L232.658 92.9305C232.658 92.9305 227.281 94.5407 221.372 92.3911"
              fill="#231F20"/>
        <path opacity="0.25"
              d="M124.805 173.06L131.519 170.106C131.519 170.106 140.652 198.283 138.508 233.973C136.356 269.662 120.774 359.565 120.774 359.565L129.375 372.181L106.805 359.034C106.805 359.034 119.162 309.924 121.58 279.87C123.999 249.817 130.181 218.684 128.029 210.368C125.877 202.051 126.151 180.04 126.151 180.04"
              fill="#231F20"/>
        <path opacity="0.25"
              d="M111.972 176.643L104.451 173.962C104.451 173.962 104.717 183.889 105.797 186.578C106.869 189.259 109.022 192.213 109.022 192.213C109.022 192.213 115.204 205.634 116.542 207.51C117.889 209.386 117.889 209.386 117.889 209.386C117.889 209.386 117.889 255.01 109.022 300.094C100.155 345.179 97.1966 358.326 97.1966 358.326C98.2686 358.39 99.7599 358.511 101.533 358.809C104.443 359.292 105.749 359.839 106.208 359.871C111.392 360.185 116.341 301.302 124.337 257.956C127.989 238.167 132.922 218.056 127.021 191.4C125.474 184.404 123.579 178.768 122.185 175.033"
              fill="#231F20"/>
        <path opacity="0.25"
              d="M23.4407 225.189C23.4407 225.189 41.7789 227.605 45.4062 228.007C49.0336 228.41 76.8432 221.768 79.8659 214.723C79.8659 214.723 80.672 215.528 81.4781 219.151C82.2842 222.774 68.5809 233.844 56.0867 236.863C43.5926 239.882 32.509 237.467 32.509 237.467C32.509 237.467 32.7105 270.073 32.9121 271.079C33.1136 272.085 23.4407 268.664 23.4407 268.664C23.4407 268.664 22.2316 240.486 23.8437 234.85"
              fill="#231F20"/>
        <path opacity="0.25"
              d="M4.49789 284.967C4.49789 284.967 11.7526 301.068 36.7409 309.119C61.7293 317.17 67.9763 310.93 67.9763 310.93C67.9763 310.93 70.3946 319.988 48.2275 318.377C26.0604 316.767 10.3419 302.678 6.31156 295.231"
              fill="#231F20"/>
        <path opacity="0.25"
              d="M66.6302 317.572C66.6302 317.572 64.0749 324.552 50.1056 325.358C36.1364 326.163 29.6878 322.137 29.6878 322.137C29.6878 322.137 34.1212 330.454 28.8817 336.363C23.6422 342.264 19.6118 344.414 19.6118 344.414C19.6118 344.414 24.1823 339.181 23.1021 331.935C22.03 324.689 23.2392 310.737 23.2392 310.737C23.2392 310.737 32.243 315.705 41.5129 317.58"
              fill="#231F20"/>
        <path opacity="0.03"
              d="M219.317 347.964C219.317 347.964 187.679 363.663 181.431 371.714C175.184 379.765 183.044 382.18 184.051 381.778C185.059 381.375 207.83 361.047 217.705 357.223L220.865 355.548"
              fill="#231F20"/>
        <path opacity="0.25"
              d="M233.431 219.795C233.431 219.795 239.34 220.6 241.758 225.165C244.176 229.73 241.218 252.804 241.218 252.804L231.279 256.024"
              fill="#231F20"/>
        <path d="M39.5622 274.501C39.5622 274.501 101.969 275.845 124.539 258.399" stroke="black" stroke-width="4"
              stroke-miterlimit="10" stroke-linecap="round" stroke-linejoin="round"/>
        <path d="M55.2726 284.951C60.8667 284.781 104.371 283.107 123.458 271.82" stroke="black" stroke-width="4"
              stroke-miterlimit="10" stroke-linecap="round" stroke-linejoin="round"/>
        <path d="M124.377 173.044C126.28 186.159 127.819 200.159 128.029 214.925C128.674 259.921 113.383 332.644 107.2 360.121"
              stroke="#290B0D" stroke-width="4" stroke-miterlimit="10" stroke-linecap="round" stroke-linejoin="round"/>
        <path d="M218.608 91.3767C219.776 93.2687 219.438 92.1657 220.486 94.2267C230.812 114.7 237.945 194.443 232.641 256.515"
              stroke="#290B0D" stroke-width="3.9495" stroke-miterlimit="10" stroke-linecap="round"
              stroke-linejoin="round"/>
        <path d="M127.392 147.757C127.392 147.757 114.189 130.592 102.033 141.686C89.8774 152.78 100.147 190.466 129.907 169.735"
              stroke="#290B0D" stroke-width="4" stroke-miterlimit="10" stroke-linecap="round" stroke-linejoin="round"/>
        <path d="M181.23 383.992C181.23 383.992 198.399 367.962 221.34 356.546" stroke="black" stroke-width="4"
              stroke-miterlimit="10" stroke-linecap="round" stroke-linejoin="round"/>
        <path d="M133.873 376.142C133.873 376.142 161.481 386.004 183.648 381.174" stroke="black" stroke-width="4"
              stroke-miterlimit="10" stroke-linecap="round" stroke-linejoin="round"/>
        <path d="M108.006 152.152C108.006 152.152 115.551 148.699 121.838 157.804Z" fill="#FFDBD5"/>
        <path d="M108.006 152.152C108.006 152.152 115.551 148.699 121.838 157.804" stroke="#290B0D"
              stroke-width="4.3308" stroke-miterlimit="10"/>
        <path d="M106.797 88.2691C106.45 88.8005 91.6105 111.391 101.428 138.442L102.436 140.253" stroke="#290B0D"
              stroke-width="4" stroke-miterlimit="10" stroke-linecap="round" stroke-linejoin="round"/>
        <path d="M106.805 88.2611C106.805 88.2611 106.805 88.2611 106.797 88.2691C106.507 88.4624 99.2521 93.2365 97.9382 87.456C96.592 81.5467 107.877 76.7162 107.877 76.7162C107.877 76.7162 99.0102 63.3036 105.459 61.4197C111.907 59.5438 113.254 69.7442 113.254 69.7442C113.254 69.7442 116.204 49.8828 144.15 42.6371C171.057 35.6571 202.26 49.7379 202.454 49.0778C202.494 48.9329 190.814 46.0426 194.216 46.0426C216.496 46.0426 185.945 8.17158 193.789 3.15592C201.946 -2.06906 216.544 6.99616 223.549 12.9216C248.755 34.2562 254.784 83.648 237.647 90.942C223.138 97.117 206.75 85.8458 206.75 85.8458C206.75 85.8458 202.744 89.1306 190.379 90.2094C178.022 91.2801 169.671 87.1823 169.671 87.1823C169.671 87.1823 171.009 96.5776 158.112 99.7979C145.214 103.018 132.978 95.7322 132.978 95.7322C132.978 95.7322 137.694 116.705 131.245 129.055C127.368 136.477 122.233 139.239 118.751 140.261"
              stroke="#290B0D" stroke-width="3.9495" stroke-miterlimit="10" stroke-linecap="round"
              stroke-linejoin="round"/>
        <path d="M234.713 220.206C234.713 220.206 255.744 227.347 267.561 249.35C269.874 253.4 274.4 261.8 274 263"
              stroke="#290B0D" stroke-width="4" stroke-miterlimit="10" stroke-linecap="round" stroke-linejoin="round"/>
        <path d="M223.952 273.648C223.952 273.648 249.279 253.923 285.012 268.954" stroke="black" stroke-width="4"
              stroke-miterlimit="10" stroke-linecap="round" stroke-linejoin="round"/>
        <path d="M220 266C220 266 233.695 252.347 257 252" stroke="#290B0D" stroke-width="4" stroke-miterlimit="10"
              stroke-linecap="round" stroke-linejoin="round"/>
        <path d="M204 281C204 281 177.466 315.02 195.739 324.681" stroke="#290B0D" stroke-width="4"
              stroke-miterlimit="10" stroke-linecap="round" stroke-linejoin="round"/>
        <path d="M227.982 270.967C227.982 270.967 210.313 258.826 203.598 260.702C196.884 262.578 208.37 286.803 208.37 286.803C208.37 286.803 195.739 302.639 196.279 304.249C196.819 305.859 201.116 305.054 201.116 305.054C201.116 305.054 190.637 320.085 192.249 321.421C193.861 322.758 208.37 317.935 208.37 317.935C208.37 317.935 201.922 327.057 206.758 327.33C211.595 327.596 222.074 328.135 222.074 328.135"
              stroke="black" stroke-width="4" stroke-miterlimit="10" stroke-linecap="round" stroke-linejoin="round"/>
        <path d="M297.579 303.443C297.934 303.878 309.646 318.265 308.59 322.757C307.518 327.322 292.734 320.616 292.734 320.616C292.734 320.616 299.457 329.472 298.111 331.082C297.7 331.573 295.999 331.637 293.839 331.492"
              stroke="black" stroke-width="4" stroke-miterlimit="10" stroke-linecap="round" stroke-linejoin="round"/>
        <path d="M280.039 267.062C281.756 266.507 284.383 265.677 287.293 264.816C293.879 262.876 301.899 260.815 304.019 261.572C307.784 262.916 293.274 282.504 293.274 282.504C293.274 282.504 306.978 301.294 304.825 303.17C302.738 304.998 297.845 303.516 297.579 303.444C297.571 303.436 297.571 303.436 297.571 303.436"
              stroke="black" stroke-width="4" stroke-miterlimit="10" stroke-linecap="round" stroke-linejoin="round"/>
        <path d="M184.18 367.383C183.89 367.359 183.576 367.318 183.245 367.254C179.69 366.562 174.354 363.357 176.998 349.864C180.827 330.341 203.8 320.076 203.8 320.076"
              stroke="black" stroke-width="4" stroke-miterlimit="10" stroke-linecap="round" stroke-linejoin="round"/>
        <path d="M23.6503 225.93C22.5217 241.742 22.6749 257.803 23.2392 266.45" stroke="black" stroke-width="4"
              stroke-miterlimit="10" stroke-linecap="round" stroke-linejoin="round"/>
        <path d="M97.1321 150.784C97.1321 150.784 74.296 135.221 48.2275 152.531C39.2639 158.48 33.307 171.555 29.4298 186.98"
              stroke="black" stroke-width="4" stroke-miterlimit="10" stroke-linecap="round" stroke-linejoin="round"/>
        <path d="M22.8361 249.543C22.8361 249.543 -1.48317 260.275 4.15935 288.453C9.80188 316.63 60.3186 326.026 66.7672 313.95C77.617 293.629 40.1667 271.683 17.9997 266.45"
              stroke="black" stroke-width="4" stroke-miterlimit="10" stroke-linecap="round" stroke-linejoin="round"/>
        <path d="M5.29591 190.539C0.789951 199.258 -1.74113 215.086 10.882 221.099C28.3416 229.416 68.6454 230.221 79.3984 214.119"
              stroke="black" stroke-width="4" stroke-miterlimit="10" stroke-linecap="round" stroke-linejoin="round"/>
        <path d="M32.2269 191.714C44.1326 194.733 62.1968 193.992 62.1968 193.992" stroke="black" stroke-width="4"
              stroke-miterlimit="10" stroke-linecap="round" stroke-linejoin="round"/>
        <path d="M74.828 210.899C74.828 210.899 81.2766 212.244 82.0826 218.684" stroke="black" stroke-width="4"
              stroke-miterlimit="10" stroke-linecap="round" stroke-linejoin="round"/>
        <path d="M9.69709 183.108C15.5089 182.818 28.7205 185.781 31.7997 190.402C34.8789 195.023 20.1599 201.584 15.0011 200.618C9.8583 199.66 -2.45047 183.72 9.69709 183.108Z"
              stroke="black" stroke-width="4" stroke-miterlimit="10" stroke-linecap="round" stroke-linejoin="round"/>
        <path d="M24.5772 349.993C25.3591 353.986 26.3748 357.617 27.6726 360.644C30.4374 367.093 44.4309 376.021 51.0729 377.567"
              stroke="black" stroke-width="4" stroke-miterlimit="10" stroke-linecap="round" stroke-linejoin="round"/>
        <path d="M22.1348 310.657C21.9897 317.854 22.0381 326.694 22.691 335.316" stroke="black" stroke-width="4"
              stroke-miterlimit="10" stroke-linecap="round" stroke-linejoin="round"/>
        <path d="M14.3723 349.776C20.1519 343.311 22.0865 338.303 22.683 335.212" stroke="black" stroke-width="4"
              stroke-miterlimit="10" stroke-linecap="round" stroke-linejoin="round"/>
        <path d="M71.515 362.11C77.1898 353.833 76.0371 348.971 76.0371 348.971" stroke="black" stroke-width="4"
              stroke-miterlimit="10" stroke-linecap="round" stroke-linejoin="round"/>
        <path d="M48.832 151.927C48.832 151.927 36.1364 151.726 28.8817 160.582C24.6981 165.694 20.9983 174.059 18.1367 182.23"
              stroke="black" stroke-width="4" stroke-miterlimit="10" stroke-linecap="round" stroke-linejoin="round"/>
        <path d="M110.835 183.526C110.835 183.526 115.535 209.692 114.527 218.145C113.52 226.598 110.9 227.605 113.52 230.422C116.139 233.24 123.426 232.524 124.111 229.867"
              stroke="black" stroke-width="4" stroke-miterlimit="10" stroke-linecap="round" stroke-linejoin="round"/>
        <path d="M128.835 221.365C128.835 221.365 157.048 238.674 197.351 232.234C227.579 227.403 230.118 223.434 234.503 219.626"
              stroke="#290B0D" stroke-width="4" stroke-miterlimit="10" stroke-linecap="round" stroke-linejoin="round"/>
        <path d="M74.6587 184.001C75.1988 180.765 78.1329 178.43 81.47 178.688C84.5573 178.929 86.9513 181.312 87.3221 184.267"
              stroke="black" stroke-width="5" stroke-miterlimit="10" stroke-linecap="round" stroke-linejoin="round"/>
        <path d="M270.994 295.127C271.43 292.519 273.8 290.627 276.492 290.844C278.983 291.037 280.917 292.962 281.215 295.345"
              stroke="black" stroke-width="4" stroke-miterlimit="10" stroke-linecap="round" stroke-linejoin="round"/>
        <path d="M243.136 297.712C243.386 295.079 245.619 293.026 248.311 293.042C250.81 293.058 252.874 294.845 253.341 297.196"
              stroke="black" stroke-width="4" stroke-miterlimit="10" stroke-linecap="round" stroke-linejoin="round"/>
        <path d="M39.0947 181.554C39.7798 178.35 42.8268 176.144 46.1398 176.554C49.2109 176.933 51.5002 179.428 51.7339 182.391"
              stroke="black" stroke-width="5" stroke-miterlimit="10" stroke-linecap="round" stroke-linejoin="round"/>
        <path d="M259.822 303.774C263.111 303.106 267.746 303.235 268.351 304.716C268.955 306.197 264.925 310.754 262.845 310.818C260.765 310.883 252.906 305.183 259.822 303.774Z"
              fill="black"/>
        <path d="M262.579 308.54C262.579 308.54 263.587 315.448 259.492 315.923C254.333 316.51 254.518 312.702 254.518 312.702"
              stroke="black" stroke-width="3" stroke-miterlimit="10" stroke-linecap="round" stroke-linejoin="round"/>
        <path d="M262.49 308.548C262.49 308.548 262.926 315.27 267.045 315.125C272.107 314.948 271.236 310.947 271.236 310.947"
              stroke="black" stroke-width="3" stroke-miterlimit="10" stroke-linecap="round" stroke-linejoin="round"/>
        <path d="M176.393 351.209C176.393 351.209 163.496 354.695 157.854 338.593C152.211 322.491 167.527 319.811 162.424 308.266C157.322 296.729 165.125 295.988 169.139 303.975C176.797 319.207 162.956 323.433 164.302 333.36C165.874 344.969 172.903 345.034 178.006 344.229"
              stroke="black" stroke-width="4" stroke-miterlimit="10" stroke-linecap="round" stroke-linejoin="round"/>
        <path d="M47.0184 226.799C47.0184 226.799 41.8595 256.596 56.2882 255.581C70.5961 254.575 66.1627 224.586 66.1627 224.586"
              stroke="black" stroke-width="4" stroke-miterlimit="10" stroke-linecap="round" stroke-linejoin="round"/>
        <path d="M56.6913 226.397C56.6913 226.397 55.4822 237.869 56.2882 243.304" stroke="black" stroke-width="4"
              stroke-miterlimit="10" stroke-linecap="round" stroke-linejoin="round"/>
        <path d="M115.535 176.281C115.535 176.281 116.945 192.584 126.014 196.81" stroke="#290B0D" stroke-width="4"
              stroke-miterlimit="10" stroke-linecap="round" stroke-linejoin="round"/>
        <path d="M231.521 92.4877C234.495 93.1801 242.129 121.664 231.199 132.774" stroke="#290B0D"
              stroke-width="3.9495" stroke-miterlimit="10" stroke-linecap="round" stroke-linejoin="round"/>
        <path d="M20.0148 267.054C20.0148 267.054 10.745 284.765 13.5662 304.289" stroke="black" stroke-width="4"
              stroke-miterlimit="10" stroke-linecap="round" stroke-linejoin="round"/>
        <path d="M36.6926 73.6649C36.6926 73.6649 38.8206 61.8141 51.0407 60.4938C63.2608 59.1735 71.5231 69.3014 70.9588 79.4535C70.3946 89.6056 59.303 114.241 59.303 114.241C59.303 114.241 35.0562 117.357 19.2168 106.239C3.37746 95.1204 10.2291 66.5722 36.6926 73.6649Z"
              fill="#FD9FA7" stroke="#000102" stroke-width="4" stroke-miterlimit="10" stroke-linecap="round"
              stroke-linejoin="round"/>
        <path d="M18.4994 82.5128C18.4994 82.5128 20.0068 78.2217 23.6825 78.7128C27.3582 79.2039 23.884 84.1954 23.6019 84.7751C21.8688 88.398 21.7076 92.045 23.9485 95.9174C26.1813 99.7899 20.1599 101.271 18.6848 97.9382C17.2178 94.6132 15.3557 89.1145 18.4994 82.5128Z"
              fill="white"/>
        <path d="M65.3566 78.2459C65.3566 78.2459 48.5257 105.627 36.0719 108.324C36.0719 108.324 47.8003 112.301 55.3451 109.322C55.3451 109.322 64.6311 91.4573 65.3566 78.2459Z"
              fill="#F88084"/>
        <path d="M290.622 171.563C290.622 171.563 289.059 162.884 280.119 161.918C271.18 160.952 265.118 168.367 265.537 175.798C265.957 183.228 274.066 201.278 274.066 201.278C274.066 201.278 291.823 203.557 303.415 195.417C315.014 187.278 310 166.378 290.622 171.563Z"
              fill="#FD9FA7" stroke="#000102" stroke-width="3.5" stroke-miterlimit="10" stroke-linecap="round"
              stroke-linejoin="round"/>
        <path d="M303.939 178.044C303.939 178.044 302.834 174.904 300.142 175.258C297.45 175.62 299.997 179.276 300.199 179.702C301.464 182.351 301.585 185.024 299.949 187.866C298.312 190.708 302.722 191.786 303.802 189.347C304.882 186.908 306.244 182.882 303.939 178.044Z"
              fill="white"/>
        <path d="M269.632 174.92C269.632 174.92 281.957 194.967 291.074 196.947C291.074 196.947 282.489 199.853 276.967 197.68C276.959 197.672 270.164 184.597 269.632 174.92Z"
              fill="#F88084"/>
        <path d="M158.071 134.585C160.901 134.585 163.198 132.299 163.198 129.473C163.198 126.647 160.901 124.361 158.071 124.361C155.242 124.361 152.945 126.647 152.945 129.473C152.945 132.291 155.242 134.585 158.071 134.585Z"
              fill="#2F040B"/>
        <path d="M204.703 126.744C207.532 126.744 209.829 124.458 209.829 121.632C209.829 118.806 207.532 116.519 204.703 116.519C201.874 116.519 199.576 118.806 199.576 121.632C199.584 124.449 201.874 126.744 204.703 126.744Z"
              fill="#2F040B"/>
        <path d="M176.563 142.33C176.563 142.33 180.754 148.167 186.985 146.267C193.216 144.367 191.814 139.038 191.814 139.038"
              stroke="#290B0D" stroke-width="3.9495" stroke-miterlimit="10" stroke-linecap="round"
              stroke-linejoin="round"/>
        <path d="M236.027 203.05C241.847 212.397 240.485 217.839 239.638 219.98C238.711 222.323 237.405 223.636 227.37 230.672C218.358 236.992 213.876 240.236 212.183 242.177C207.959 246.999 205.509 252.313 203.139 257.465C202.164 259.598 201.188 261.7 200.1 263.721L200.036 263.688C198.383 262.69 195.844 262.448 195.844 262.448L195.562 262.352C196.747 260.251 197.803 257.948 198.915 255.533C201.309 250.332 204.026 244.455 208.693 239.133C213.392 233.78 218.446 230.591 225.048 226.671C232.271 222.38 236.253 221.462 237.679 217.42C238.913 213.926 237.518 210.191 236.027 207.453"
              fill="#EEEFEF"/>
        <path d="M174.515 279.629C160.062 280.667 154.831 275.515 151.518 267.818L151.574 267.794C151.574 267.794 153.227 266.764 155.71 266.329L155.919 266.297C158.853 272.842 163.182 276.079 175.579 274.879C187.026 273.768 191.894 268.97 195.57 262.336L195.852 262.432C195.852 262.432 198.399 262.674 200.044 263.672L200.108 263.704C196.255 270.974 191.048 277.101 179.15 279.081C178.159 279.242 177.119 279.387 176.023 279.492C175.507 279.548 175.007 279.589 174.515 279.629Z"
              fill="#7FD2EF"/>
        <path d="M180 288.999L175 285.999C174.726 283.681 174.581 282.287 174.5 280C174.992 279.96 175.484 280.048 176 280C177.096 279.895 178.509 279.653 179.5 279.492C179.605 283.059 179.42 285.449 180 288.999Z"
              fill="#7FD2EF"/>
        <path d="M126.288 213.516C125.659 214.248 124.813 215.48 124.772 217.018C124.668 221.244 130.77 222.959 137.049 228.78C143.312 234.585 146.303 241.363 148.052 245.018C150.333 249.793 151.792 254.341 153.082 258.367C154.041 261.37 154.895 264.026 155.911 266.289L155.701 266.321C153.211 266.756 151.566 267.786 151.566 267.786L151.51 267.81C150.438 265.347 149.567 262.634 148.656 259.776C147.423 255.895 146.004 251.499 143.86 247.007C141.168 241.388 137.226 236.452 133.414 231.67C127.037 223.676 121.669 223.152 121.306 218.668C121.016 215.061 123.781 211.857 126.207 209.7"
              fill="#EEEFEF"/>
        <path d="M129.722 276.473C133.913 277.173 138.274 279.782 141.555 283.96C144.997 288.348 146.464 293.492 145.924 297.856C145.553 300.867 144.215 303.524 141.942 305.303C136.34 309.683 127.094 307.219 121.274 299.812C115.462 292.398 115.301 282.833 120.903 278.454C123.338 276.554 126.473 275.934 129.722 276.473Z"
              fill="#CED0D1"/>
        <path d="M147.157 289.531C147.665 291.464 146.214 297.212 146.045 297.872L145.924 297.856C146.464 293.492 144.997 288.348 141.555 283.96C138.274 279.782 133.913 277.165 129.722 276.473L130.092 276.401C130.092 276.401 132.825 276.304 134.357 276.513C136.557 276.819 139.306 278.075 141.764 280.329C142.998 281.481 144.175 282.89 145.142 284.564C145.972 286.021 146.673 287.68 147.157 289.531Z"
              fill="#CED0D1"/>
        <path opacity="0.15" d="M175.918 292.728L177.812 299.619L183.164 301.906L181.375 296.101" fill="#232533"/>
        <path opacity="0.15" d="M174.322 278.735L175.104 283.051L179.174 283.509L178.417 279.436" fill="#232533"/>
        <path opacity="0.15"
              d="M119.057 281.77C119.057 281.77 118.235 300.996 133.873 302.284C149.511 303.572 143.514 288.42 143.514 288.42C143.514 288.42 146.851 296.391 145.36 301.165C143.868 305.947 138.758 309.852 130.504 306.631C122.249 303.411 110.884 291.955 119.057 281.77Z"
              fill="#232533"/>
        <path opacity="0.15"
              d="M171 319.5C171 319.5 164.5 322 168.846 335.963C174.706 350.518 185.561 338.365 185.561 338.365C185.561 338.365 179.932 344.921 174.996 345.728C170.053 346.539 164.272 343.722 163.45 334.9C167.296 327.696 163.053 318.459 171 319.5Z"
              fill="#232533"/>
        <path d="M137.113 308.5C131.736 309.023 125.489 306.149 121.136 300.602C115.058 292.849 114.954 282.762 120.894 278.116C126.835 273.471 136.613 275.999 142.691 283.752C145.609 287.471 147.261 291.843 147.334 296.046C147.414 300.337 145.85 303.951 142.932 306.23C141.248 307.55 139.249 308.299 137.113 308.5ZM126.9 277.44C125.054 277.617 123.337 278.253 121.886 279.388C116.646 283.486 116.88 292.56 122.402 299.612C127.931 306.665 136.693 309.064 141.933 304.966C144.44 303.01 145.778 299.854 145.713 296.078C145.641 292.221 144.117 288.196 141.417 284.742C137.419 279.638 131.728 276.973 126.9 277.44Z"
              fill="black"/>
        <path d="M236 201C237.493 203.533 237.768 213.33 236.616 216.999C235.37 220.987 231.757 222.354 224.197 226.766C219.162 229.707 213.46 233.032 208.275 238.979C203.78 244.142 201.144 249.897 198.817 254.973L198.77 255.069C194.315 264.828 190.471 273.26 175.129 274.755C158.032 276.425 155.809 269.416 152.132 257.81C150.861 253.822 149.44 249.338 147.216 244.662C143.691 237.229 141.467 232.513 136.48 228.692C136.48 228.692 128.198 222.961 125.712 218.813C125.593 218.613 125.045 217.271 125.005 216.519C124.91 214.913 126.101 213.386 126.498 213.514C126.76 213.602 126.554 214.409 126.737 215.648C126.983 217.35 127.785 218.533 128.388 219.413C130.501 222.538 137.076 227.222 137.727 227.693C142.73 231.298 144.89 236.022 148.654 243.967C150.917 248.738 152.362 253.278 153.633 257.283C157.317 268.896 159.16 274.707 174.978 273.156C189.407 271.75 192.901 264.084 197.324 254.389L197.372 254.285C199.746 249.114 202.43 243.247 207.084 237.908C212.436 231.762 218.257 228.373 223.387 225.375C229.517 221.794 234.385 220.252 235.386 215.912C235.894 213.722 236.651 202.406 236 201Z"
              fill="black"/>
        <path d="M236.5 201.5C237.806 203.311 240.662 207.172 241.645 212.719C242.153 215.585 241.823 217.452 241.694 218.072C241.581 218.612 241.17 220.496 239.832 222.573C237.51 226.18 233.722 228.265 227.773 231.356C226.83 231.847 218.632 236.034 212.788 242.7C208.636 247.434 206.21 252.699 203.865 257.787C198.947 268.454 194.304 278.526 176.095 280.289C155.008 282.334 151.703 271.989 147.883 260.009C146.641 256.137 145.247 251.773 143.127 247.345C141.498 243.94 138.524 237.877 132.793 232.185C126.135 225.568 121.411 225.125 120.137 219.634C119.944 218.797 119.106 215.222 121.177 212.469C122.983 210.054 126.215 209.345 126.36 209.603C126.465 209.796 124.877 210.448 123.652 212.075C121.516 214.884 121.983 218.563 122.056 219.079C122.741 224.014 127.569 224.787 134.042 231.163C139.862 236.895 142.845 243.03 144.586 246.653C146.754 251.177 148.165 255.597 149.414 259.494C153.332 271.755 156.153 280.603 175.942 278.679C193.232 277.004 197.682 267.335 202.406 257.103C204.8 251.91 207.274 246.532 211.579 241.629C214.376 238.441 220.018 233.449 226.942 229.963C228.2 229.327 233.165 226.904 237.558 222.194C238.526 221.164 238.961 220.6 239.316 219.94C240.928 216.945 240.251 213.773 239.735 211.35C239.34 209.49 238.886 205.349 236.5 202"
              fill="black"/>
        <path d="M151.647 268.591C151.349 268.623 151.05 268.487 150.889 268.221C150.655 267.843 150.768 267.343 151.147 267.11C151.22 267.062 152.961 265.991 155.573 265.532C156.008 265.451 156.427 265.749 156.508 266.184C156.588 266.619 156.29 267.037 155.855 267.118C153.549 267.521 152.026 268.462 152.01 268.479C151.889 268.543 151.768 268.583 151.647 268.591Z"
              fill="black"/>
        <path d="M200.124 264.477C199.955 264.493 199.786 264.461 199.625 264.365C198.158 263.471 195.788 263.237 195.763 263.237C195.32 263.197 194.998 262.803 195.038 262.36C195.078 261.917 195.473 261.595 195.917 261.635C196.029 261.643 198.673 261.901 200.463 262.996C200.842 263.229 200.963 263.721 200.729 264.099C200.6 264.324 200.366 264.453 200.124 264.477Z"
              fill="black"/>
        <path d="M181.593 297.027C181.415 297.043 181.23 297.003 181.069 296.898L175.555 293.259C175.184 293.017 175.08 292.51 175.329 292.14C175.579 291.77 176.079 291.665 176.45 291.914L181.963 295.553C182.334 295.795 182.439 296.302 182.189 296.673C182.052 296.882 181.826 297.003 181.593 297.027Z"
              fill="black"/>
        <path d="M180.279 290.602C180.109 290.618 179.924 290.578 179.771 290.481L174.628 287.205C174.249 286.963 174.145 286.472 174.378 286.094C174.62 285.715 175.12 285.611 175.491 285.844L180.633 289.121C181.012 289.362 181.117 289.853 180.883 290.232C180.738 290.457 180.512 290.586 180.279 290.602Z"
              fill="black"/>
        <path d="M147.198 296.952C147.11 296.968 147.013 296.97 146.914 296.955C146.478 296.885 146.178 296.469 146.249 296.034C146.634 293.609 147.076 289.279 146.599 287.974C143.69 280.049 137.051 276.94 133.303 276.79C131.847 276.731 129.217 277.086 129.193 277.089C128.753 277.148 128.359 277.171 128.283 276.402C128.224 275.962 128.524 275.553 128.971 275.493C129.083 275.474 131.77 275.121 133.363 275.183C137.543 275.354 144.924 278.755 148.1 287.422C148.876 289.547 147.94 295.609 147.829 296.291C147.782 296.635 147.523 296.887 147.198 296.952Z"
              fill="black"/>
        <path opacity="0.25"
              d="M216.262 237.797C216.48 237.934 215.706 239.552 214.215 242.813C206.734 259.156 199.737 267.633 198.359 269.799C198.117 270.185 197.787 270.491 197.424 270.684C193.909 273.124 192.958 273.422 192.813 273.164C192.539 272.673 195.111 270.218 197.9 266.248C200.39 262.706 201.495 260.178 202.962 257.304C208.314 246.846 215.674 237.427 216.262 237.797Z"
              fill="#231F20"/>
        <path opacity="0.25"
              d="M190.758 328.5C190.758 328.5 190.758 329.5 190.758 330.623C180.255 316.027 177.498 305.714 176.305 303.443C176.095 303.041 173.959 294.515 173.967 294.104C173.588 289.845 175.152 291.979 175.458 291.979C176.023 291.987 177.586 300.577 178.804 304.981C180.65 308.902 182.302 311.108 184.067 313.805C190.508 323.627 191.37 328.17 190.758 328.5Z"
              fill="#231F20"/>
        <path d="M295 333C295.526 335.454 296.684 337.878 296.684 340.409" stroke="black" stroke-width="3"
              stroke-linecap="round"/>
    </g>
    <defs>
        <clipPath id="clip0_2_169">
            <rect width="311" height="417" fill="white"/>
        </clipPath>
    </defs>
</svg>
