<svg viewBox="0 0 280 306" fill="none" xmlns="http://www.w3.org/2000/svg">
<path d="M96.0596 72.5438C85.0395 83.5648 77.5349 97.606 74.4948 112.892C71.4547 128.178 73.0156 144.022 78.9801 158.421C84.9446 172.82 95.0449 185.127 108.004 193.786C120.963 202.444 136.198 207.066 151.783 207.066C167.369 207.066 182.604 202.444 195.563 193.786C208.522 185.127 218.622 172.82 224.587 158.421C230.551 144.022 232.112 128.178 229.072 112.892C226.032 97.606 218.527 83.5648 207.507 72.5438C200.19 65.2257 191.502 59.4207 181.941 55.4601C172.38 51.4995 162.132 49.4611 151.783 49.4611C141.434 49.4611 131.187 51.4995 121.626 55.4601C112.065 59.4207 103.377 65.2257 96.0596 72.5438Z" fill="#00B8F0"/>
<path d="M189.508 152.546C189.508 152.546 204.757 133.615 214.136 137.067C224.091 140.692 219.372 161.983 193.075 170.039" fill="#F4C698"/>
<path d="M195.293 169.278C195.408 169.278 195.58 169.278 195.695 169.221C213.879 163.639 220.554 152.706 220.784 144.995C220.899 140.104 218.482 136.134 214.397 134.638C204.327 130.955 189.768 148.506 188.157 150.52C187.639 151.153 187.754 152.016 188.387 152.534C189.02 153.051 189.884 152.936 190.401 152.303C194.487 147.24 206.513 134.753 213.418 137.285C216.353 138.378 218.022 141.198 217.907 144.823C217.734 152.073 210.541 161.568 194.89 166.401C194.142 166.631 193.681 167.437 193.912 168.185C194.142 168.876 194.717 169.278 195.293 169.278Z" fill="black"/>
<path d="M207.838 152.36C205.581 152.36 203.752 150.53 203.752 148.274C203.752 146.018 205.581 144.189 207.838 144.189C210.094 144.189 211.923 146.018 211.923 148.274C211.923 150.53 210.094 152.36 207.838 152.36Z" fill="#5B4B3B"/>
<path d="M207.261 142.808C206.34 142.808 205.593 142.061 205.593 141.14C205.593 140.218 206.34 139.471 207.261 139.471C208.183 139.471 208.93 140.218 208.93 141.14C208.93 142.061 208.183 142.808 207.261 142.808Z" fill="#5B4B3B"/>
<path d="M163.662 139.833C160.971 139.891 158.607 139.12 156.628 138.022L156.519 138.458C156.519 138.458 153.116 157.572 165.305 156.582C173.982 155.87 169.538 138.29 169.538 138.29V138.122C168.331 139.053 166.68 139.656 164.433 139.824C164.156 139.832 163.88 139.833 163.662 139.833ZM120.647 81.9297C137.397 71.1656 158.934 71.0566 175.742 81.653C178.324 81.0997 184.528 80.2781 190.027 83.4637C197.17 87.5799 203.105 107.524 197.061 109.175C194.864 109.779 192.223 108.571 189.641 106.484C192.55 111.095 200.464 126.478 188.87 143.177L188.979 143.236C188.979 143.236 192.441 145.877 190.79 150.161L191.067 150.27C191.067 150.27 199.97 157.957 199.743 167.958C199.634 172.074 198.368 176.031 196.34 179.108H177.385H118.057H99.1025C97.0738 176.031 95.8079 172.074 95.6989 167.958C95.4223 157.957 104.376 150.27 104.376 150.27L104.652 150.161C103.001 145.927 106.463 143.236 106.463 143.236L106.572 143.177C94.978 126.478 102.892 111.095 105.801 106.484C103.219 108.571 100.578 109.779 98.3816 109.175C92.3372 107.524 98.2726 87.6385 105.415 83.4637C112.021 79.5152 119.985 81.7704 120.647 81.9297Z" fill="#F4C698"/>
<path d="M99.0017 179.116H117.956C117.956 181.866 116.64 184.171 113.178 185.269C107.569 187.021 102.296 184.113 99.0017 179.116Z" fill="#00AEEF"/>
<path d="M172.724 116.317C167.56 109.56 150.257 105.931 147.893 105.277C147.893 105.277 128.008 109.51 122.785 116.317C117.185 123.569 123.338 140.268 131.688 139.992C131.688 139.992 133.39 145.374 147.18 145.701C147.348 145.701 147.566 145.701 147.733 145.701C147.901 145.701 148.119 145.701 148.278 145.701C162.01 145.424 163.771 139.992 163.771 139.992C172.179 140.268 178.324 123.569 172.724 116.317Z" fill="#5B4B3B"/>
<path d="M163.661 139.832C163.879 139.832 164.156 139.832 164.374 139.774C166.629 139.606 168.272 139.002 169.479 138.072V138.24C169.479 138.24 173.931 155.819 165.245 156.532C153.048 157.521 156.46 138.407 156.46 138.407L156.569 137.971C158.606 139.17 160.911 139.891 163.661 139.832Z" fill="#FFA6CF"/>
<path d="M118.115 81.3842C118.115 81.3842 119.766 81.6608 119.322 82.0465C118.886 82.4321 118.66 87.8142 116.572 93.037C114.485 98.2597 102.287 113.366 96.5198 108.856C90.7521 104.354 100.368 82.9267 109.816 81.007" fill="#5B4B3B"/>
<path d="M177.175 81.3842C177.175 81.3842 175.523 81.6608 175.968 82.0465C176.412 82.4321 176.63 87.8142 178.717 93.037C180.805 98.2597 193.002 113.366 198.77 108.856C204.538 104.354 194.922 82.9267 185.474 81.007" fill="#5B4B3B"/>
<path d="M116.858 92.6428C116.858 92.6428 115.651 107.314 103.126 112.855L105.432 106.702" fill="#B58054"/>
<path d="M112.188 164.99C112.188 164.99 121.418 168.176 124.386 177.624H117.52" fill="#B58054"/>
<path opacity="0.45" d="M123.279 136.32C123.279 136.32 123.723 140.712 131.243 142.532C138.771 144.342 146.349 136.487 147.833 130.443C147.833 130.443 141.629 139.614 134.755 139.782C127.889 139.95 126.079 137.862 126.079 137.862" fill="#231F20"/>
<path d="M178.6 92.6428C178.6 92.6428 179.807 107.314 192.332 112.855L190.026 106.702" fill="#B58054"/>
<path opacity="0.45" d="M172.171 136.32C172.171 136.32 171.735 140.712 164.207 142.532C156.679 144.342 149.1 136.487 147.616 130.443C147.616 130.443 153.82 139.614 160.694 139.782C167.56 139.95 169.371 137.862 169.371 137.862" fill="#231F20"/>
<path d="M148.831 166.809C163.334 166.373 169.982 160.606 169.982 160.606L165.095 161.377L148.01 164.454L130.866 161.377L125.979 160.606C125.979 160.606 132.627 166.373 147.13 166.809C147.406 166.809 147.675 166.809 147.951 166.809C148.278 166.809 148.555 166.809 148.831 166.809Z" fill="#B58054"/>
<path opacity="0.45" d="M125.099 125.002C125.099 125.002 123.833 136.102 131.42 136.37C138.998 136.646 145.872 128.791 147.079 124.667C147.079 124.667 147.901 127.249 147.356 129.227C146.803 131.256 139.115 143.236 128.955 139.279C118.794 135.322 123.9 126.645 123.9 126.645" fill="#231F20"/>
<path opacity="0.45" d="M170.695 125.002C170.695 125.002 171.961 136.102 164.374 136.37C156.795 136.646 149.93 128.791 148.714 124.667C148.714 124.667 147.892 127.249 148.437 129.227C148.982 131.256 156.678 143.236 166.839 139.279C176.999 135.322 171.894 126.645 171.894 126.645" fill="#231F20"/>
<path opacity="0.35" d="M113.22 186.939C113.22 186.939 120.137 187.459 124.119 179.401H118.881" fill="#414042"/>
<path d="M106.035 141.811C106.035 141.811 115.047 165.653 153.718 171.094C169.923 173.399 179.815 171.588 179.815 171.588C179.815 171.588 179.924 176.257 173.662 178.177C167.4 180.097 118.836 178.068 118.836 178.068C118.836 178.068 113.345 168.126 110.05 165.267C106.756 162.408 99.3364 156.532 100.166 155.157C100.988 153.782 104.836 149.389 104.836 149.389" fill="#D69D72"/>
<path opacity="0.55" d="M157.231 77.9807C157.231 77.9807 167.006 79.5148 174.374 84.6789" stroke="white" stroke-width="1.9659" stroke-miterlimit="10" stroke-linecap="round" stroke-linejoin="round"/>
<path opacity="0.55" d="M196.289 101.597C196.456 102.418 196.616 103.248 196.733 104.12" stroke="white" stroke-width="1.9659" stroke-miterlimit="10" stroke-linecap="round" stroke-linejoin="round"/>
<path opacity="0.55" d="M189.64 86.8167C189.64 86.8167 193.488 91.7628 195.576 98.7964" stroke="white" stroke-width="1.9659" stroke-miterlimit="10" stroke-linecap="round" stroke-linejoin="round"/>
<path d="M104.225 150.219C104.225 150.219 95.3216 157.906 95.5479 167.908C95.8246 178.73 104.065 188.128 113.128 185.211C122.19 182.352 116.59 171.202 111.367 165.98" fill="#D69D72"/>
<path d="M104.225 150.219C104.225 150.219 95.3216 157.906 95.5479 167.908C95.8246 178.73 104.065 188.128 113.128 185.211C122.19 182.352 116.59 171.202 111.367 165.98" stroke="black" stroke-width="3.2765" stroke-miterlimit="10" stroke-linecap="round" stroke-linejoin="round"/>
<path d="M123.01 108.63C124.83 108.63 126.305 107.154 126.305 105.335C126.305 103.516 124.83 102.041 123.01 102.041C121.191 102.041 119.716 103.516 119.716 105.335C119.716 107.154 121.183 108.63 123.01 108.63Z" fill="black"/>
<path d="M155.698 110.885C155.698 113.249 152.126 117.86 147.675 117.86C143.223 117.86 139.652 113.299 139.652 110.885C139.652 108.521 143.223 108.244 147.675 108.244C152.126 108.244 155.698 108.521 155.698 110.885Z" fill="black"/>
<path d="M178.659 83.5807C160.643 70.5029 136.248 70.5029 118.232 83.5807" stroke="black" stroke-width="3.2765" stroke-miterlimit="10" stroke-linecap="round" stroke-linejoin="round"/>
<path d="M170.142 113.132C157.181 103.734 139.711 103.734 126.742 113.132" stroke="black" stroke-width="3.2765" stroke-miterlimit="10" stroke-linecap="round" stroke-linejoin="round"/>
<path d="M170.142 159.717C157.181 164.219 139.711 164.219 126.742 159.717" stroke="black" stroke-width="3.2765" stroke-miterlimit="10" stroke-linecap="round" stroke-linejoin="round"/>
<path d="M120.697 81.9297C120.697 81.9297 112.289 79.2888 105.146 83.4134C98.0039 87.5295 92.0685 107.473 98.1128 109.125C104.157 110.776 113.496 98.6877 115.583 92.7524" stroke="black" stroke-width="3.2765" stroke-miterlimit="10" stroke-linecap="round" stroke-linejoin="round"/>
<path d="M107.518 144.719C94.2811 127.416 102.572 111.212 105.598 106.433" stroke="black" stroke-width="3.2765" stroke-miterlimit="10" stroke-linecap="round" stroke-linejoin="round"/>
<path d="M106.312 143.186C106.312 143.186 102.187 146.371 105.105 151.317" stroke="black" stroke-width="3.2765" stroke-miterlimit="10" stroke-linecap="round" stroke-linejoin="round"/>
<path d="M173.713 108.63C175.532 108.63 177.007 107.154 177.007 105.335C177.007 103.516 175.532 102.041 173.713 102.041C171.893 102.041 170.418 103.516 170.418 105.335C170.418 107.154 171.893 108.63 173.713 108.63Z" fill="black"/>
<path d="M179.648 92.811C180.964 96.5499 185.198 102.812 189.649 106.434C192.231 108.521 194.872 109.728 197.069 109.125C203.113 107.473 197.178 87.5881 190.035 83.4132C184.544 80.2276 178.332 81.0492 175.75 81.6025" stroke="black" stroke-width="3.2765" stroke-miterlimit="10" stroke-linecap="round" stroke-linejoin="round"/>
<path d="M187.721 144.719C200.959 127.467 192.668 111.212 189.641 106.433" stroke="black" stroke-width="3.2765" stroke-miterlimit="10" stroke-linecap="round" stroke-linejoin="round"/>
<path d="M188.987 143.186C188.987 143.186 193.103 146.371 190.194 151.317" stroke="black" stroke-width="3.2765" stroke-miterlimit="10" stroke-linecap="round" stroke-linejoin="round"/>
<path d="M124.109 125.003C124.109 125.003 119.716 139.12 131.419 139.832C141.857 140.495 146.912 129.94 147.901 127.635" stroke="black" stroke-width="3.2765" stroke-miterlimit="10" stroke-linecap="round" stroke-linejoin="round"/>
<path d="M171.734 125.003C171.734 125.003 176.127 139.12 164.424 139.832C153.987 140.495 148.932 129.94 147.943 127.635" stroke="black" stroke-width="3.2765" stroke-miterlimit="10" stroke-linecap="round" stroke-linejoin="round"/>
<path d="M147.842 126.922V117.801" stroke="black" stroke-width="3.2765" stroke-miterlimit="10" stroke-linecap="round" stroke-linejoin="round"/>
<path d="M156.518 138.457C156.518 138.457 153.115 157.571 165.304 156.582C173.981 155.869 169.538 138.29 169.538 138.29" stroke="black" stroke-width="3.2765" stroke-miterlimit="10" stroke-linecap="round" stroke-linejoin="round"/>
<path d="M163.661 139.832C163.661 139.832 164.106 147.796 164.324 150.16" stroke="black" stroke-width="2.6212" stroke-miterlimit="10" stroke-linecap="round" stroke-linejoin="round"/>
<path d="M130.757 94.6215C130.757 94.6215 137.02 90.7736 147.842 95.8874" stroke="black" stroke-width="2.5149" stroke-miterlimit="10" stroke-linecap="round" stroke-linejoin="round"/>
<path d="M164.868 94.6215C164.868 94.6215 158.606 90.7736 147.783 95.8874" stroke="black" stroke-width="2.5149" stroke-miterlimit="10" stroke-linecap="round" stroke-linejoin="round"/>
<path d="M134.328 87.538C134.328 87.538 139.274 84.52 147.783 88.5272" stroke="black" stroke-width="2.5149" stroke-miterlimit="10" stroke-linecap="round" stroke-linejoin="round"/>
<path d="M161.297 87.538C161.297 87.538 156.351 84.52 147.842 88.5272" stroke="black" stroke-width="2.5149" stroke-miterlimit="10" stroke-linecap="round" stroke-linejoin="round"/>
<path d="M147.724 110.5C149.267 110.5 150.524 110.206 150.524 109.837C150.524 109.477 149.267 109.175 147.724 109.175C146.173 109.175 144.924 109.468 144.924 109.837C144.924 110.206 146.182 110.5 147.724 110.5Z" fill="white"/>
<path d="M199.568 164.73C200.406 167.385 200.574 174.623 196.214 178.982" stroke="black" stroke-width="3"/>
<path d="M192.214 121.483L187.024 126.511L190.527 130.127L194.03 133.743L199.22 128.714L192.214 121.483Z" fill="#F0F0F0" stroke="#45413C" stroke-width="2" stroke-linecap="round" stroke-linejoin="round"/>
<path d="M215.996 151.464L216.244 151.223C217.24 150.251 217.812 148.925 217.834 147.533C217.856 146.142 217.327 144.798 216.362 143.795L200.457 127.391C200.133 127.059 199.69 126.869 199.226 126.861C198.762 126.854 198.314 127.03 197.979 127.352L192.698 132.466C192.367 132.79 192.176 133.232 192.169 133.695C192.161 134.159 192.338 134.607 192.659 134.941L208.558 151.346C209.037 151.844 209.61 152.242 210.245 152.518C210.879 152.794 211.561 152.941 212.252 152.952C212.944 152.963 213.631 152.837 214.273 152.582C214.916 152.326 215.501 151.946 215.996 151.464Z" fill="#BF8256"/>
<path d="M216.32 151.482L216.446 151.358L195.361 130.119L192.703 132.636C192.366 132.957 192.173 133.395 192.166 133.854C192.159 134.314 192.338 134.758 192.664 135.089L208.78 151.363C209.266 151.857 209.847 152.252 210.49 152.525C211.133 152.799 211.825 152.945 212.526 152.956C213.227 152.967 213.923 152.843 214.574 152.59C215.225 152.337 215.819 151.961 216.32 151.482Z" fill="#DEA47A"/>
<path d="M215.996 151.464L216.244 151.223C217.24 150.251 217.812 148.925 217.834 147.533C217.856 146.142 217.327 144.798 216.362 143.795L200.457 127.391C200.133 127.059 199.69 126.869 199.226 126.861C198.762 126.854 198.314 127.03 197.979 127.352L192.698 132.466C192.367 132.79 192.176 133.232 192.169 133.695C192.161 134.159 192.338 134.607 192.659 134.941L208.558 151.346C209.037 151.844 209.61 152.242 210.245 152.518C210.879 152.794 211.561 152.941 212.252 152.952C212.944 152.963 213.631 152.837 214.273 152.582C214.916 152.326 215.501 151.946 215.996 151.464Z" stroke="#45413C" stroke-width="2" stroke-linecap="round" stroke-linejoin="round"/>
<path d="M186.012 81.1086C192.082 84.9571 196.376 91.0595 197.947 98.0734C199.519 105.087 198.239 112.438 194.391 118.509C190.543 124.58 184.44 128.873 177.426 130.445C170.412 132.016 163.061 130.737 156.991 126.888C150.92 123.04 146.626 116.937 145.055 109.924C143.484 102.91 144.763 95.5587 148.611 89.4879C152.46 83.4172 158.562 79.1238 165.576 77.5524C172.59 75.981 179.941 77.2602 186.012 81.1086Z" fill="#F0F0F0" fill-opacity="0.5" stroke="#45413C" stroke-width="3" stroke-linecap="round" stroke-linejoin="round"/>
<path d="M184.795 87.173C186.792 88.4392 188.513 89.9612 189.578 91.404C190.643 92.8469 190.966 94.0925 190.475 94.8669C189.984 95.6412 188.72 95.8808 186.96 95.533C185.201 95.1852 183.09 94.2784 181.093 93.0122C179.096 91.746 177.375 90.224 176.31 88.7811C175.244 87.3383 174.922 86.0927 175.413 85.3183C175.903 84.544 177.168 84.3044 178.927 84.6522C180.687 85 182.797 85.9068 184.795 87.173Z" fill="#F0F0F0"/>
<path d="M86.3369 191.922L94.7308 199.94L105.056 207.637L82.972 233.942L64.253 218.227L86.3369 191.922Z" fill="#F0F0F0" stroke="#45413C" stroke-width="4" stroke-linecap="round" stroke-linejoin="round"/>
<path d="M13.1333 299.007L12.2386 298.256C8.64463 295.216 6.39839 290.879 5.9893 286.19C5.5802 281.501 7.0414 276.84 10.0545 273.223L59.7627 214.062C60.777 212.864 62.2236 212.116 63.7874 211.979C65.3513 211.843 66.9057 212.329 68.112 213.333L87.1568 229.315C88.3546 230.328 89.1032 231.773 89.2395 233.335C89.3758 234.898 88.8888 236.451 87.8846 237.656L38.1983 296.82C36.7007 298.615 34.8626 300.097 32.7898 301.18C30.717 302.262 28.4504 302.924 26.1207 303.127C23.7909 303.331 21.444 303.071 19.2151 302.364C16.9861 301.657 14.9192 300.516 13.1333 299.007Z" fill="#BF8256"/>
<path d="M12.0442 299.148L11.592 298.758L77.6093 222.037L87.1836 229.889C88.3957 230.891 89.1516 232.322 89.2867 233.871C89.4218 235.419 88.9252 236.96 87.9049 238.156L37.4534 296.931C35.932 298.714 34.0661 300.186 31.963 301.264C29.86 302.341 27.5614 303.001 25.1997 303.207C22.8379 303.413 20.4597 303.161 18.2019 302.464C15.9441 301.768 13.8513 300.641 12.0442 299.148Z" fill="#DEA47A"/>
<path d="M13.1333 299.007L12.2386 298.256C8.64463 295.216 6.39839 290.879 5.9893 286.19C5.5802 281.501 7.0414 276.84 10.0545 273.223L59.7627 214.062C60.777 212.864 62.2236 212.116 63.7874 211.979C65.3513 211.843 66.9057 212.329 68.112 213.333L87.1568 229.315C88.3546 230.328 89.1032 231.773 89.2395 233.335C89.3758 234.898 88.8888 236.451 87.8846 237.656L38.1983 296.82C36.7007 298.615 34.8626 300.097 32.7898 301.18C30.717 302.262 28.4504 302.924 26.1207 303.127C23.7909 303.331 21.444 303.071 19.2151 302.364C16.9861 301.657 14.9192 300.516 13.1333 299.007Z" stroke="#45413C" stroke-width="4" stroke-linecap="round" stroke-linejoin="round"/>
<path d="M97.3605 54.4563C77.807 68.899 64.7916 90.5179 61.1776 114.557C57.5637 138.596 63.6473 163.086 78.09 182.64C92.5327 202.193 114.152 215.209 138.191 218.822C162.23 222.436 186.72 216.353 206.273 201.91C225.827 187.467 238.842 165.849 242.456 141.81C246.07 117.771 239.986 93.2805 225.544 73.7269C211.101 54.1733 189.482 41.1579 165.443 37.544C141.404 33.9301 116.914 40.0136 97.3605 54.4563Z" stroke="#45413C" stroke-width="4" stroke-linecap="round" stroke-linejoin="round"/>
<path d="M189.927 152.575C176.513 181.916 138.283 224.737 161.721 218.288C185.159 211.838 215.219 195.505 227.232 174.371C239.245 153.237 241.645 121.941 235.196 98.5028C228.747 75.0648 220.701 63.8678 199.567 51.8549C173.579 38.982 163.519 37.3054 137.532 38.982C111.963 48.6229 141.455 30.7213 129.442 51.8549C117.429 72.9884 183.477 88.0588 189.927 111.497C196.376 134.935 197.053 131.198 189.927 152.575Z" fill="#F5F5F5" fill-opacity="0.44"/>
<path opacity="0.74" d="M95.8561 87.628C92.6795 91.9697 90.1716 96.5277 88.8842 100.299C87.5968 104.071 87.6353 106.747 88.9912 107.739C90.3471 108.731 92.9093 107.958 96.1143 105.589C99.3193 103.221 102.904 99.4507 106.081 95.109C109.258 90.7672 111.765 86.2092 113.053 82.4377C114.34 78.6661 114.302 75.99 112.946 74.9979C111.59 74.0059 109.028 74.7792 105.823 77.1478C102.618 79.5164 99.0327 83.2863 95.8561 87.628Z" fill="#F0F0F0"/>
</svg>
