<svg width="20" height="22" viewBox="0 0 20 22" fill="none" xmlns="http://www.w3.org/2000/svg">
<path d="M19.6748 13.6648L18.1397 12.3523C18.2123 11.907 18.2498 11.4523 18.2498 10.9976C18.2498 10.5429 18.2123 10.0883 18.1397 9.64294L19.6748 8.33044C19.7906 8.23132 19.8735 8.09929 19.9124 7.95193C19.9513 7.80456 19.9445 7.64883 19.8928 7.50544L19.8717 7.44451C19.4491 6.26332 18.8162 5.16834 18.0037 4.21248L17.9615 4.16326C17.863 4.04736 17.7316 3.96405 17.5847 3.92431C17.4379 3.88456 17.2824 3.89024 17.1389 3.9406L15.2334 4.61794C14.5303 4.04138 13.7451 3.58669 12.8967 3.26794L12.5287 1.27576C12.501 1.12586 12.4282 0.98795 12.3202 0.880361C12.2122 0.772772 12.074 0.700593 11.924 0.673413L11.8607 0.661694C10.6397 0.441382 9.35528 0.441382 8.13418 0.661694L8.0709 0.673413C7.9209 0.700593 7.78271 0.772772 7.6747 0.880361C7.56669 0.98795 7.49398 1.12586 7.46622 1.27576L7.0959 3.27732C6.25424 3.59614 5.47043 4.05058 4.77559 4.62263L2.85606 3.9406C2.71254 3.88984 2.55698 3.88395 2.41003 3.92372C2.26309 3.9635 2.13173 4.04704 2.0334 4.16326L1.99122 4.21248C1.17968 5.16902 0.546941 6.26381 0.123247 7.44451L0.102153 7.50544C-0.0033156 7.79841 0.0834032 8.12654 0.320122 8.33044L1.87403 9.65701C1.80137 10.0976 1.76622 10.5476 1.76622 10.9953C1.76622 11.4453 1.80137 11.8953 1.87403 12.3336L0.320122 13.6601C0.204331 13.7593 0.121457 13.8913 0.0825219 14.0387C0.0435864 14.186 0.0504336 14.3418 0.102153 14.4851L0.123247 14.5461C0.547466 15.7273 1.17559 16.8172 1.99122 17.7781L2.0334 17.8273C2.13197 17.9432 2.26333 18.0265 2.41019 18.0663C2.55704 18.106 2.7125 18.1003 2.85606 18.05L4.77559 17.3679C5.47403 17.9422 6.2545 18.3969 7.0959 18.7133L7.46622 20.7148C7.49398 20.8647 7.56669 21.0026 7.6747 21.1102C7.78271 21.2178 7.9209 21.29 8.0709 21.3172L8.13418 21.3289C9.3665 21.5504 10.6284 21.5504 11.8607 21.3289L11.924 21.3172C12.074 21.29 12.2122 21.2178 12.3202 21.1102C12.4282 21.0026 12.501 20.8647 12.5287 20.7148L12.8967 18.7226C13.7448 18.4047 14.5344 17.9485 15.2334 17.3726L17.1389 18.05C17.2824 18.1007 17.438 18.1066 17.5849 18.0669C17.7318 18.0271 17.8632 17.9435 17.9615 17.8273L18.0037 17.7781C18.8193 16.8148 19.4475 15.7273 19.8717 14.5461L19.8928 14.4851C19.9982 14.1969 19.9115 13.8687 19.6748 13.6648ZM16.4756 9.91951C16.5342 10.2734 16.5647 10.6367 16.5647 11C16.5647 11.3633 16.5342 11.7265 16.4756 12.0804L16.3209 13.0203L18.0717 14.5179C17.8063 15.1294 17.4712 15.7082 17.0732 16.2429L14.8982 15.4719L14.1623 16.0765C13.6022 16.5359 12.9787 16.8969 12.3037 17.15L11.4107 17.4851L10.9912 19.7586C10.3293 19.8336 9.66097 19.8336 8.99903 19.7586L8.5795 17.4804L7.69356 17.1406C7.02559 16.8875 6.4045 16.5265 5.84903 16.0695L5.11309 15.4625L2.92403 16.2406C2.52559 15.7039 2.19278 15.125 1.92559 14.5156L3.69512 13.0039L3.54278 12.0664C3.48653 11.7172 3.45606 11.3562 3.45606 11C3.45606 10.6414 3.48418 10.2828 3.54278 9.93357L3.69512 8.99607L1.92559 7.48435C2.19043 6.87263 2.52559 6.29607 2.92403 5.75935L5.11309 6.53748L5.84903 5.93044C6.4045 5.47341 7.02559 5.11248 7.69356 4.85935L8.58184 4.52419L9.00137 2.24607C9.65997 2.17107 10.3326 2.17107 10.9936 2.24607L11.4131 4.51951L12.3061 4.85466C12.9787 5.10779 13.6045 5.46873 14.1647 5.9281L14.9006 6.53279L17.0756 5.76169C17.474 6.29841 17.8068 6.87732 18.074 7.48669L16.3232 8.98435L16.4756 9.91951ZM9.99981 6.6406C7.72168 6.6406 5.87481 8.48748 5.87481 10.7656C5.87481 13.0437 7.72168 14.8906 9.99981 14.8906C12.2779 14.8906 14.1248 13.0437 14.1248 10.7656C14.1248 8.48748 12.2779 6.6406 9.99981 6.6406ZM11.8561 12.6219C11.6126 12.866 11.3233 13.0596 11.0047 13.1916C10.6861 13.3235 10.3446 13.3911 9.99981 13.3906C9.29903 13.3906 8.64043 13.1164 8.14356 12.6219C7.8994 12.3784 7.70578 12.089 7.57385 11.7705C7.44192 11.4519 7.37427 11.1104 7.37481 10.7656C7.37481 10.0648 7.64903 9.40623 8.14356 8.90935C8.64043 8.41248 9.29903 8.1406 9.99981 8.1406C10.7006 8.1406 11.3592 8.41248 11.8561 8.90935C12.1002 9.15281 12.2938 9.44215 12.4258 9.76072C12.5577 10.0793 12.6253 10.4208 12.6248 10.7656C12.6248 11.4664 12.3506 12.125 11.8561 12.6219Z" fill="#989898"/>
</svg>
