<svg width="19" height="19" viewBox="0 0 19 19" fill="none" xmlns="http://www.w3.org/2000/svg">
<path fill-rule="evenodd" clip-rule="evenodd" d="M12.1046 11.9991C12.8364 11.2924 13.8325 10.8571 14.9284 10.8571C17.1735 10.8571 19 12.6836 19 14.9286C19 17.1735 17.1735 19 14.9284 19C12.6833 19 10.8568 17.1735 10.8568 14.9286C10.8568 14.7584 10.8672 14.5905 10.8881 14.4257L6.89539 12.4296C6.16364 13.1361 5.16748 13.5714 4.07159 13.5714C1.82648 13.5714 0 11.745 0 9.5C0 7.25503 1.82648 5.42855 4.07159 5.42855C5.16748 5.42855 6.16364 5.86386 6.89539 6.57053L10.8881 4.57431C10.8672 4.40949 10.8568 4.24163 10.8568 4.07145C10.8568 1.82648 12.6833 0 14.9284 0C17.1735 0 19 1.82648 19 4.07145C19 6.31642 17.1735 8.1429 14.9284 8.1429C13.8325 8.1429 12.8364 7.70759 12.1046 7.00092L8.11188 8.99714C8.13275 9.16196 8.14319 9.32982 8.14319 9.5C8.14319 9.67018 8.13275 9.83804 8.11188 10.0029L12.1046 11.9991ZM16.2864 4.07145C16.2864 3.32317 15.6776 2.71435 14.9284 2.71435C14.1804 2.71435 13.5716 3.32317 13.5716 4.07145C13.5716 4.81987 14.1804 5.4287 14.9284 5.4287C15.6776 5.4287 16.2864 4.81987 16.2864 4.07145ZM4.07159 10.8572C3.32361 10.8572 2.71478 10.2484 2.71478 9.5C2.71478 8.75172 3.32361 8.1429 4.07159 8.1429C4.82074 8.1429 5.42957 8.75172 5.42957 9.5C5.42957 10.2484 4.82074 10.8572 4.07159 10.8572ZM13.5716 14.9286C13.5716 15.677 14.1804 16.2858 14.9284 16.2858C15.6776 16.2858 16.2864 15.677 16.2864 14.9286C16.2864 14.1803 15.6776 13.5714 14.9284 13.5714C14.1804 13.5714 13.5716 14.1803 13.5716 14.9286Z" fill="#FB8A76"/>
</svg>
