<svg width="50" height="50" viewBox="0 0 50 50" fill="none" xmlns="http://www.w3.org/2000/svg">
<g clip-path="url(#clip0_25_32)">
<path d="M23.7329 48.87C36.0671 48.87 46.0659 39.93 46.0659 28.902C46.0659 17.874 36.0671 8.93399 23.7329 8.93399C11.3987 8.93399 1.3999 17.874 1.3999 28.902C1.3999 39.93 11.3987 48.87 23.7329 48.87Z" fill="#FFE500"/>
<path d="M23.7329 45.152C11.0999 45.152 2.4389 37.2 1.4939 27.043C1.43378 27.6609 1.40241 28.2812 1.3999 28.902C1.3999 39.93 10.3329 48.87 23.7329 48.87C37.1329 48.87 46.0659 39.93 46.0659 28.9C46.0659 28.272 46.0289 27.654 45.9719 27.041C45.0269 37.2 36.3709 45.152 23.7329 45.152V45.152Z" fill="#F2C100"/>
<path d="M23.7329 12.186C27.1444 12.186 29.9099 11.7701 29.9099 11.257C29.9099 10.7439 27.1444 10.328 23.7329 10.328C20.3214 10.328 17.5559 10.7439 17.5559 11.257C17.5559 11.7701 20.3214 12.186 23.7329 12.186Z" fill="#FFFACF"/>
<path d="M23.7329 48.87C36.0671 48.87 46.0659 39.93 46.0659 28.902C46.0659 17.874 36.0671 8.93399 23.7329 8.93399C11.3987 8.93399 1.3999 17.874 1.3999 28.902C1.3999 39.93 11.3987 48.87 23.7329 48.87Z" stroke="#45413C" stroke-width="1.25" stroke-miterlimit="10"/>
<path d="M27.229 22.1C27.3581 22.5258 27.6122 22.9029 27.9583 23.1825C28.3044 23.4621 28.7266 23.6312 29.17 23.668C29.6133 23.6313 30.0353 23.4622 30.3813 23.1826C30.7272 22.9029 30.9811 22.5258 31.11 22.1M16.356 22.1C16.4848 22.5258 16.7387 22.9029 17.0846 23.1826C17.4306 23.4622 17.8526 23.6313 18.296 23.668C18.7394 23.6312 19.1615 23.4621 19.5076 23.1825C19.8537 22.9029 20.1078 22.5258 20.237 22.1" stroke="#45413C" stroke-width="1.25" stroke-linecap="round" stroke-linejoin="round"/>
<path d="M23.733 33.806C25.5594 33.806 27.04 32.1844 27.04 30.184C27.04 28.1836 25.5594 26.562 23.733 26.562C21.9066 26.562 20.426 28.1836 20.426 30.184C20.426 32.1844 21.9066 33.806 23.733 33.806Z" fill="#FF6242" stroke="#45413C" stroke-width="1.25" stroke-linecap="round" stroke-linejoin="round"/>
<path d="M45.96 15.775L38.385 15.159C38.0885 15.1346 37.8044 15.0295 37.5635 14.855C37.3226 14.6806 37.1341 14.4434 37.0184 14.1694C36.9028 13.8954 36.8645 13.5949 36.9076 13.3006C36.9507 13.0063 37.0736 12.7294 37.263 12.5L43.722 4.7L39.806 4.382C39.5928 4.36467 39.3852 4.30553 39.1949 4.20795C39.0046 4.11037 38.8354 3.97627 38.697 3.8133C38.5585 3.65033 38.4535 3.46169 38.388 3.25815C38.3224 3.0546 38.2976 2.84014 38.315 2.627C38.3323 2.41387 38.3914 2.20624 38.489 2.01596C38.5866 1.82568 38.7207 1.65648 38.8837 1.51803C39.0466 1.37958 39.2353 1.27458 39.4388 1.20903C39.6424 1.14349 39.8568 1.11867 40.07 1.136L47.104 1.708C47.4008 1.73234 47.6852 1.83757 47.9264 2.01227C48.1676 2.18696 48.3563 2.42443 48.472 2.69886C48.5876 2.97329 48.6259 3.27418 48.5825 3.56881C48.5391 3.86344 48.4158 4.14055 48.226 4.37L41.767 12.17L46.224 12.533C46.4371 12.5503 46.6447 12.6095 46.835 12.7071C47.0253 12.8046 47.1945 12.9387 47.3329 13.1017C47.4714 13.2647 47.5764 13.4533 47.6419 13.6569C47.7075 13.8604 47.7323 14.0749 47.715 14.288C47.6976 14.5011 47.6385 14.7088 47.5409 14.8991C47.4433 15.0893 47.3092 15.2585 47.1463 15.397C46.9833 15.5354 46.7946 15.6404 46.5911 15.706C46.3876 15.7715 46.1731 15.7963 45.96 15.779V15.775Z" fill="white" stroke="#45413C" stroke-width="1.25" stroke-linecap="round" stroke-linejoin="round"/>
<path d="M39.656 20.437L34.206 20.932C33.9572 20.9536 33.7073 20.9067 33.4832 20.7964C33.2592 20.6861 33.0696 20.5166 32.9351 20.3062C32.8005 20.0958 32.7261 19.8526 32.7199 19.603C32.7138 19.3533 32.776 19.1068 32.9 18.89L36.337 12.89L33.893 13.112C33.7141 13.1283 33.5337 13.1092 33.3622 13.0557C33.1906 13.0023 33.0313 12.9156 32.8933 12.8006C32.7552 12.6856 32.6412 12.5445 32.5577 12.3855C32.4742 12.2264 32.4228 12.0524 32.4065 11.8735C32.3902 11.6946 32.4093 11.5142 32.4628 11.3427C32.5162 11.1711 32.6029 11.0118 32.7179 10.8737C32.8329 10.7357 32.974 10.6217 33.133 10.5382C33.2921 10.4546 33.4661 10.4033 33.645 10.387L38.706 9.927C38.9552 9.90436 39.2058 9.9505 39.4306 10.0604C39.6554 10.1703 39.8457 10.3398 39.9809 10.5503C40.1161 10.7609 40.191 11.0045 40.1973 11.2546C40.2037 11.5047 40.1413 11.7518 40.017 11.969L36.58 17.969L39.413 17.711C39.7744 17.6781 40.134 17.7901 40.4128 18.0224C40.6915 18.2546 40.8666 18.5881 40.8995 18.9495C40.9324 19.3109 40.8204 19.6705 40.5881 19.9492C40.3559 20.228 40.0224 20.4031 39.661 20.436L39.656 20.437Z" fill="white" stroke="#45413C" stroke-width="1.25" stroke-linecap="round" stroke-linejoin="round"/>
</g>
<defs>
<clipPath id="clip0_25_32">
<rect width="50" height="50" fill="white"/>
</clipPath>
</defs>
</svg>
