<svg width="27" height="16" viewBox="0 0 27 16" fill="none" xmlns="http://www.w3.org/2000/svg">
<path d="M16.7229 12.3598C16.4719 12.8612 16.0863 13.2828 15.6093 13.5774C15.1322 13.8721 14.5826 14.0281 14.0219 14.0281C13.4612 14.0281 12.9116 13.8721 12.4345 13.5774C11.9575 13.2828 11.5719 12.8612 11.3209 12.3598C10.9073 11.5451 9.70403 12.2595 10.0675 13.0617C10.4426 13.7757 11.0058 14.3736 11.6962 14.7908C12.3865 15.2079 13.1777 15.4284 13.9843 15.4284C14.7909 15.4284 15.5821 15.2079 16.2725 14.7908C16.9628 14.3736 17.526 13.7757 17.9011 13.0617C18.3523 12.272 17.1366 11.5576 16.7229 12.3598Z" fill="#181818"/>
<path d="M5.6094 2.53476C5.6094 2.53476 6.3039 0.852744 8.27168 1.01043C10.2394 1.11556 11.2812 2.79757 10.934 4.26934C10.5288 5.7411 8.09805 9 8.09805 9C8.09805 9 4.16251 8.84231 1.96324 6.79235C-0.293909 4.79496 1.61599 0.852745 5.6094 2.53476Z" fill="#F2A8D2" stroke="#000102" stroke-miterlimit="10"/>
<path d="M21.3906 2.53476C21.3906 2.53476 20.6961 0.852744 18.7283 1.01043C16.7606 1.11556 15.7188 2.79757 16.066 4.26934C16.4712 5.7411 18.902 9 18.902 9C18.902 9 22.8375 8.84231 25.0368 6.79235C27.2939 4.79496 25.384 0.852745 21.3906 2.53476Z" fill="#F2A8D2" stroke="#000102" stroke-miterlimit="10"/>
</svg>
