<svg width="24" height="24" viewBox="0 0 24 24" fill="none" xmlns="http://www.w3.org/2000/svg">
    <path d="M7.26456 10.5291C9.06752 10.5291 10.5291 9.06752 10.5291 7.26456C10.5291 5.46159 9.06752 4 7.26456 4C5.46159 4 4 5.46159 4 7.26456C4 9.06752 5.46159 10.5291 7.26456 10.5291Z"
          fill="#FB8A76" stroke="#FB8A76" stroke-width="1.5"/>
    <path d="M16.7177 10.5291C18.5206 10.5291 19.9822 9.06752 19.9822 7.26456C19.9822 5.46159 18.5206 4 16.7177 4C14.9147 4 13.4531 5.46159 13.4531 7.26456C13.4531 9.06752 14.9147 10.5291 16.7177 10.5291Z"
          fill="#FB8A76" stroke="#FB8A76" stroke-width="1.5"/>
    <path d="M9.57908 14.659C8.98766 14.2518 8.17062 14 7.26815 14C6.36567 14 5.54864 14.2518 4.95722 14.659C4.3658 15.0662 4 15.6287 4 16.25V21H10.5363V16.25C10.5363 15.6287 10.1705 15.0662 9.57908 14.659Z"
          fill="#FB8A76"/>
    <path d="M19.0428 14.659C18.4514 14.2518 17.6343 14 16.7319 14C15.8294 14 15.0123 14.2518 14.4209 14.659C13.8295 15.0662 13.4637 15.6287 13.4637 16.25V21H20V16.25C20 15.6287 19.6342 15.0662 19.0428 14.659Z"
          fill="#FB8A76"/>
    <path d="M9.57908 14.659C8.98766 14.2518 8.17062 14 7.26815 14C6.36567 14 5.54864 14.2518 4.95722 14.659C4.3658 15.0662 4 15.6287 4 16.25V21H10.5363V16.25C10.5363 15.6287 10.1705 15.0662 9.57908 14.659Z"
          stroke="#FB8A76" stroke-width="1.5" stroke-linecap="round"/>
    <path d="M19.0428 14.659C18.4514 14.2518 17.6343 14 16.7319 14C15.8294 14 15.0123 14.2518 14.4209 14.659C13.8295 15.0662 13.4637 15.6287 13.4637 16.25V21H20V16.25C20 15.6287 19.6342 15.0662 19.0428 14.659Z"
          stroke="#FB8A76" stroke-width="1.5" stroke-linecap="round"/>
</svg>
