<svg width="50" height="46" viewBox="0 0 50 46" fill="none" xmlns="http://www.w3.org/2000/svg">
<path d="M20.122 8.6164C20.122 8.6164 11.0701 4.8217 7.65091 12.6021C4.87736 18.92 1.56358 22.0889 1.38571 23.7556C1.20783 25.4224 0.89161 31.9314 5.87874 33.5586C8.83675 34.527 14.318 36.1938 14.318 36.1938L17.4539 43.0322C17.4539 43.0322 18.3037 45.3775 19.5093 44.6924C21.2815 43.691 28.1001 40.3311 28.1001 40.3311L36.4274 42.716C36.4274 42.716 40.6635 43.9149 41.9547 40.2915C43.2394 36.6615 46.6652 28.2091 46.6652 28.2091C46.6652 28.2091 53.2202 15.4745 43.1801 11.7128L20.122 8.6164Z" fill="#F88084" stroke="#000102" stroke-width="2" stroke-miterlimit="10"/>
<path d="M18.3962 2.10749C18.3962 2.10749 9.34432 -1.68721 5.92514 6.09323C3.15159 12.4111 1.79447 20.1125 1.6166 21.7859C1.43872 23.4527 1.85375 26.2591 5.30587 27.9589C8.09919 29.3357 12.3419 30.436 12.3419 30.436L15.7281 36.5299C15.7281 36.5299 16.9008 38.8423 17.7836 38.1901C19.424 36.9844 26.3743 33.8288 26.3743 33.8288L34.7016 36.2137C34.7016 36.2137 38.9377 37.4126 40.2289 33.7892C41.5136 30.1592 45.1634 19.8556 45.1634 19.8556C45.1634 19.8556 49.0766 12.7405 40.1433 8.93926L18.3962 2.10749Z" fill="#FD9FA7" stroke="#000102" stroke-width="2" stroke-miterlimit="10"/>
<path d="M24.9244 13.2676C24.9244 13.2676 23.6924 9.86155 20.0031 10.0921C16.3139 10.3227 14.3836 13.7419 15.0687 16.7263C15.7539 19.7106 20.293 26.4502 20.293 26.4502C20.293 26.4502 27.6321 26.1405 31.7562 22.0428C35.8803 17.9451 32.4018 9.82203 24.9244 13.2676Z" fill="white"/>
</svg>