<svg width="24" height="24" viewBox="0 0 24 24" fill="none" xmlns="http://www.w3.org/2000/svg">
<path d="M23 18H19H15" stroke="white" stroke-width="2" stroke-linecap="round"/>
<path d="M5.85131 6.97436C6.13994 6.97436 6.37609 7.20513 6.37609 7.48718V21.3846C6.37609 21.718 6.66472 22 7.00583 22H10.9942C11.3353 22 11.6239 21.718 11.6239 21.3846V7.48718C11.6239 7.20513 11.8601 6.97436 12.1487 6.97436H17.3703C17.7114 6.97436 18 6.69231 18 6.35897V2.61538C18 2.28205 17.7114 2 17.3703 2H0.629738C0.28863 2 0 2.28205 0 2.61538V6.35897C0 6.69231 0.28863 6.97436 0.629738 6.97436H5.85131Z" fill="white"/>
</svg>
