<svg width="23" height="20" viewBox="0 0 23 20" fill="none" xmlns="http://www.w3.org/2000/svg">
<path d="M5.85131 4.97436C6.13994 4.97436 6.37609 5.20513 6.37609 5.48718V19.3846C6.37609 19.718 6.66472 20 7.00583 20H10.9942C11.3353 20 11.6239 19.718 11.6239 19.3846V5.48718C11.6239 5.20513 11.8601 4.97436 12.1487 4.97436H17.3703C17.7114 4.97436 18 4.69231 18 4.35897V0.615384C18 0.282051 17.7114 0 17.3703 0H0.629738C0.28863 0 0 0.282051 0 0.615384V4.35897C0 4.69231 0.28863 4.97436 0.629738 4.97436H5.85131Z" fill="white"/>
<path d="M17.6006 13.2385C17.7289 13.2385 17.8338 13.3423 17.8338 13.4692V19.7231C17.8338 19.8731 17.9621 20 18.1137 20H19.8863C20.0379 20 20.1662 19.8731 20.1662 19.7231V13.4692C20.1662 13.3423 20.2711 13.2385 20.3994 13.2385H22.7201C22.8717 13.2385 23 13.1115 23 12.9615V11.2769C23 11.1269 22.8717 11 22.7201 11H15.2799C15.1283 11 15 11.1269 15 11.2769V12.9615C15 13.1115 15.1283 13.2385 15.2799 13.2385H17.6006Z" fill="white"/>
</svg>
