<svg width="145" height="32" viewBox="0 0 145 32" fill="none" xmlns="http://www.w3.org/2000/svg">
<path d="M130.853 30.7872C130.853 30.3534 131.22 30.0193 131.653 29.9944C131.691 29.9922 131.728 29.9896 131.764 29.9866C131.989 29.9866 132.166 29.9591 132.294 29.904C132.356 29.8776 132.416 29.8477 132.476 29.8173C132.64 29.7336 132.804 29.573 132.969 29.3357C133.186 29.0753 133.468 28.5438 133.815 27.741C134.139 27.011 134.587 25.9496 135.157 24.5565C135.235 24.3663 135.232 24.1524 135.148 23.9646L128.202 8.39513C127.979 7.89676 128.344 7.33466 128.89 7.33466H128.962C129.261 7.33466 129.531 7.5109 129.652 7.78404L135.443 20.9114C135.711 21.5195 136.578 21.5077 136.829 20.8925L142.183 7.8029C142.299 7.51969 142.574 7.33466 142.88 7.33466H142.904C143.442 7.33466 143.806 7.88163 143.6 8.37793L134.759 29.5961C134.628 29.9432 134.444 30.247 134.205 30.5074C133.988 30.7894 133.717 31.0064 133.392 31.1583C133.066 31.3319 132.676 31.4295 132.22 31.4512C132.025 31.4729 131.819 31.4837 131.602 31.4837C131.584 31.4855 131.567 31.4871 131.549 31.4885C131.157 31.5207 130.853 31.1803 130.853 30.7872Z" fill="white"/>
<path d="M108.519 15.8291C108.519 14.2452 108.855 12.7915 109.528 11.468C110.201 10.1444 111.123 9.08128 112.294 8.27848C113.466 7.45398 114.8 7.04173 116.297 7.04173C117.773 7.04173 119.075 7.43228 120.203 8.21338C120.542 8.44369 120.859 8.6872 121.155 8.94391C121.732 9.44492 122.904 9.05623 122.904 8.29204V1.25348C122.904 0.837344 123.242 0.5 123.658 0.5H123.778C124.194 0.5 124.532 0.837344 124.532 1.25348V22.1105C124.532 22.3709 124.586 22.5661 124.694 22.6963C124.927 22.9292 125.215 23.1749 125.215 23.5042V23.5996C125.215 23.976 124.934 24.3143 124.558 24.3006C124.513 24.2989 124.471 24.2957 124.434 24.2911C124.043 24.226 123.718 24.0416 123.458 23.7378C123.197 23.434 123.067 23.1086 123.067 22.7614C123.067 22.2227 122.28 21.9702 121.895 22.3478C121.417 22.8179 120.874 23.227 120.268 23.5751C119.096 24.2477 117.892 24.584 116.655 24.584C115.484 24.584 114.399 24.3453 113.401 23.868C112.403 23.3689 111.535 22.7072 110.797 21.8827C110.081 21.0582 109.517 20.1252 109.105 19.0837C108.714 18.0423 108.519 16.9574 108.519 15.8291ZM122.904 18.563V13.132C122.904 13.0431 122.889 12.9548 122.856 12.8721C122.55 12.097 122.078 11.3903 121.44 10.752C120.767 10.0577 120.008 9.51522 119.162 9.12467C118.315 8.71242 117.48 8.5063 116.655 8.5063C115.679 8.5063 114.789 8.71242 113.987 9.12467C113.206 9.53692 112.522 10.0902 111.936 10.7845C111.372 11.4788 110.938 12.2708 110.634 13.1604C110.331 14.0283 110.179 14.9287 110.179 15.8617C110.179 16.8164 110.352 17.7385 110.7 18.6281C111.047 19.496 111.524 20.2771 112.132 20.9714C112.761 21.644 113.477 22.1756 114.28 22.5661C115.104 22.935 115.994 23.1194 116.948 23.1194C117.534 23.1194 118.153 23.0001 118.803 22.7614C119.476 22.5227 120.105 22.1973 120.691 21.785C121.299 21.3511 121.798 20.8629 122.188 20.3205C122.601 19.7563 122.839 19.1705 122.904 18.563Z" fill="white"/>
<path d="M90.8104 19.3767C90.8104 18.3569 91.1142 17.4781 91.7217 16.7404C92.3292 15.981 93.1646 15.3952 94.2277 14.983C95.2909 14.549 96.5168 14.332 97.9054 14.332C98.7733 14.332 99.6738 14.408 100.607 14.5599C101.134 14.6456 101.629 14.7487 102.094 14.8691C102.597 14.9995 103.113 14.6331 103.113 14.1133V13.5835C103.113 12.0213 102.657 10.7737 101.746 9.8407C100.856 8.90772 99.6195 8.44122 98.0356 8.44122C97.1894 8.44122 96.3107 8.6148 95.3994 8.96196C94.6817 9.23539 93.9504 9.60303 93.2058 10.0649C92.874 10.2707 92.4332 10.1724 92.2365 9.83511C92.057 9.52746 92.1475 9.13199 92.4501 8.94416C93.3661 8.37567 94.2515 7.93681 95.1065 7.62758C96.148 7.23702 97.1786 7.04175 98.1984 7.04175C100.216 7.04175 101.811 7.63842 102.983 8.83177C104.154 10.0251 104.74 11.6524 104.74 13.7137V22.1105C104.74 22.3709 104.794 22.5662 104.903 22.6963C105.147 22.941 105.456 23.189 105.456 23.535V23.769C105.456 24.0477 105.247 24.2911 104.968 24.2911C104.866 24.2911 104.777 24.2911 104.702 24.2911C104.662 24.2911 104.623 24.2883 104.584 24.2811C104.199 24.2092 103.893 24.039 103.666 23.7704C103.449 23.4883 103.33 23.1737 103.308 22.8265C103.308 22.3841 102.719 22.1633 102.386 22.4538C101.778 22.9825 101.077 23.4213 100.281 23.7704C99.0662 24.3128 97.7861 24.584 96.4409 24.584C95.3777 24.584 94.4122 24.3562 93.5443 23.9005C92.6981 23.4449 92.0255 22.8265 91.5264 22.0454C91.0491 21.2426 90.8104 20.353 90.8104 19.3767ZM102.462 20.7761C102.679 20.4941 102.842 20.2228 102.95 19.9625C103.059 19.7021 103.113 19.4634 103.113 19.2465V16.963C103.113 16.6522 102.923 16.3713 102.629 16.2704C101.997 16.0536 101.345 15.8848 100.672 15.7641C99.8257 15.6122 98.9578 15.5362 98.0682 15.5362C96.3758 15.5362 94.998 15.8725 93.9348 16.5452C92.8934 17.2178 92.3726 18.1291 92.3726 19.279C92.3726 19.995 92.5571 20.6568 92.9259 21.2643C93.2948 21.8718 93.8047 22.36 94.4556 22.7289C95.1282 23.0977 95.8984 23.2822 96.7663 23.2822C97.9814 23.2822 99.0988 23.0543 100.119 22.5987C101.16 22.1214 101.941 21.5138 102.462 20.7761Z" fill="white"/>
<path d="M80.428 24.584C79.2347 24.584 78.1281 24.3562 77.1083 23.9005C76.0886 23.4232 75.199 22.7831 74.4396 21.9803C73.7019 21.1558 73.116 20.212 72.6821 19.1488C72.2698 18.064 72.0637 16.9249 72.0637 15.7315C72.0637 14.1259 72.4217 12.6722 73.1377 11.3704C73.8537 10.0685 74.841 9.02705 76.0994 8.24595C77.3579 7.44315 78.7682 7.04175 80.3304 7.04175C81.936 7.04175 83.3572 7.44315 84.5939 8.24595C85.8307 9.04875 86.807 10.1119 87.523 11.4354C88.2607 12.7373 88.6296 14.1693 88.6296 15.7315C88.6296 15.8617 88.6296 15.9919 88.6296 16.1221C88.6296 16.3148 88.4619 16.4475 88.2692 16.4475H74.5624C74.1262 16.4475 73.7775 16.8178 73.8483 17.2483C74.0075 18.2161 74.3348 19.11 74.8301 19.9299C75.4593 20.9714 76.2621 21.7959 77.2385 22.4034C78.2366 22.9893 79.3215 23.2822 80.4931 23.2822C81.6648 23.2822 82.7713 22.9784 83.8128 22.3709C84.6379 21.8896 85.2655 21.2993 85.6957 20.6001C85.8899 20.2845 86.259 20.1 86.6165 20.1975C87.0468 20.3149 87.2808 20.7852 87.0501 21.1669C86.7442 21.6732 86.3486 22.1396 85.8632 22.5662C85.1689 23.1954 84.3444 23.6944 83.3897 24.0633C82.4567 24.4104 81.4695 24.584 80.428 24.584ZM73.778 14.3786C73.7117 14.8091 74.06 15.1782 74.4955 15.1782H86.2629C86.6984 15.1782 87.0468 14.8091 86.9805 14.3786C86.8263 13.3778 86.5081 12.4727 86.0259 11.6633C85.4184 10.6435 84.6156 9.8407 83.6175 9.25487C82.6412 8.66905 81.5563 8.37613 80.3629 8.37613C79.1696 8.37613 78.0847 8.66905 77.1083 9.25487C76.132 9.8407 75.34 10.6435 74.7325 11.6633C74.2503 12.4727 73.9321 13.3778 73.778 14.3786Z" fill="white"/>
<path d="M53.8498 24.2586C53.4337 24.2586 53.0963 23.9212 53.0963 23.5051V1.90442C53.0963 1.48828 53.4337 1.15094 53.8498 1.15094H62.6974C63.6954 1.15094 64.5959 1.35706 65.3987 1.76931C66.2232 2.18156 66.9283 2.73484 67.5142 3.42916C68.1217 4.10177 68.5882 4.86118 68.9136 5.70737C69.2608 6.55356 69.4344 7.42146 69.4344 8.31105C69.4344 9.461 69.2065 10.535 68.7509 11.5331C68.2953 12.5312 67.6552 13.3665 66.8307 14.0391C66.3237 14.4639 65.7604 14.7849 65.1409 15.002C64.6223 15.1837 64.3374 15.8033 64.634 16.2658L69.0158 23.0983C69.3374 23.5998 68.9773 24.2586 68.3815 24.2586H68.2514C67.9948 24.2586 67.7558 24.128 67.6172 23.912L62.4641 15.8827C62.3255 15.6668 62.0866 15.5362 61.83 15.5362H55.5096C55.0935 15.5362 54.7562 15.8736 54.7562 16.2897V23.5051C54.7562 23.9212 54.4188 24.2586 54.0027 24.2586H53.8498ZM54.7562 13.2531C54.7562 13.6692 55.0935 14.0066 55.5096 14.0066H62.8601C63.8582 14.0066 64.7261 13.7354 65.4638 13.1929C66.2015 12.6505 66.7656 11.9453 67.1562 11.0774C67.5684 10.2096 67.7745 9.28742 67.7745 8.31105C67.7745 7.31297 67.5359 6.39083 67.0585 5.54464C66.6029 4.67675 65.9845 3.98244 65.2034 3.4617C64.444 2.91927 63.587 2.64805 62.6323 2.64805H55.5096C55.0935 2.64805 54.7562 2.9854 54.7562 3.40153V13.2531Z" fill="white"/>
<path d="M30.0365 15.7315C30.0365 14.0825 30.362 12.5962 31.0129 11.2727C31.6638 9.92747 32.5642 8.8643 33.7142 8.0832C34.8641 7.3021 36.1768 6.91155 37.6522 6.91155C38.9107 6.91155 40.0389 7.22616 41.037 7.85538C41.2163 7.96216 41.3885 8.07431 41.5536 8.19181C42.1785 8.63637 43.4129 8.20933 43.4129 7.44247V1.25348C43.4129 0.837343 43.7502 0.5 44.1664 0.5H47.0206C47.4367 0.5 47.774 0.837344 47.774 1.25348V19.3766C47.774 19.8323 47.85 20.1577 48.0019 20.353C48.0443 20.4076 48.0953 20.4563 48.1547 20.499C48.4649 20.722 48.783 20.999 48.783 21.3811V23.6408C48.783 24 48.5298 24.3118 48.1752 24.3687C47.6866 24.4471 47.2708 24.4864 46.9278 24.4864C46.1467 24.4864 45.4958 24.2911 44.9751 23.9005C44.476 23.51 44.194 23.0001 44.1289 22.3709C44.1092 22.0463 43.6533 21.926 43.4449 22.1757C42.907 22.82 42.2563 23.3407 41.4927 23.7378C40.4295 24.3019 39.3121 24.584 38.1404 24.584C36.9688 24.584 35.8839 24.3562 34.8858 23.9005C33.9095 23.4449 33.0524 22.8157 32.3147 22.0129C31.5987 21.2101 31.0346 20.2771 30.6223 19.2139C30.2318 18.129 30.0365 16.9682 30.0365 15.7315ZM43.3641 18.1349C43.3979 18.0527 43.4129 17.9642 43.4129 17.8753V14.0677C43.4129 13.9841 43.3995 13.9009 43.3701 13.8227C43.1514 13.241 42.8185 12.7165 42.3714 12.2491C41.8941 11.75 41.3625 11.3595 40.7767 11.0774C40.1908 10.7737 39.605 10.6218 39.0192 10.6218C38.3466 10.6218 37.739 10.7628 37.1966 11.0449C36.6542 11.3269 36.1768 11.7066 35.7646 12.184C35.374 12.6613 35.0703 13.2146 34.8533 13.8438C34.658 14.4731 34.5604 15.1348 34.5604 15.8291C34.5604 16.5234 34.6689 17.1852 34.8858 17.8144C35.1245 18.422 35.4608 18.9535 35.8948 19.4092C36.3287 19.8648 36.8277 20.2228 37.3919 20.4832C37.9777 20.7436 38.6069 20.8738 39.2795 20.8738C39.6918 20.8738 40.104 20.8087 40.5163 20.6785C40.9502 20.5266 41.3516 20.3313 41.7205 20.0926C42.111 19.8323 42.4473 19.5285 42.7294 19.1814C43.0023 18.8501 43.2138 18.5012 43.3641 18.1349Z" fill="white"/>
<path d="M23.5361 24.2585C23.1199 24.2585 22.7826 23.9212 22.7826 23.5051V7.95795C22.7826 7.54181 23.1199 7.20447 23.5361 7.20447H26.3903C26.8064 7.20447 27.1437 7.54181 27.1437 7.95795V23.5051C27.1437 23.9212 26.8064 24.2585 26.3903 24.2585H23.5361Z" fill="white"/>
<path fill-rule="evenodd" clip-rule="evenodd" d="M9.89702 1.15094C11.2666 1.15094 12.4908 2.0052 12.9633 3.29066L19.6307 21.4279C20.1356 22.8016 19.119 24.2586 17.6554 24.2586C16.7467 24.2586 15.9406 23.6754 15.6564 22.8123L13.8037 17.1861C12.5533 13.3889 7.18174 13.3889 5.9313 17.1861L4.07508 22.8229C3.79296 23.6797 2.99284 24.2586 2.09087 24.2586C0.636966 24.2586 -0.372307 22.8103 0.131029 21.4463L6.83212 3.28686C7.30575 2.00338 8.52894 1.15094 9.89702 1.15094ZM9.67791 5.56844C9.78413 5.46745 9.95099 5.46753 10.0573 5.56844L10.0584 5.56954L10.0628 5.57366L10.0779 5.58849C10.3797 5.88815 10.6587 6.21 10.9124 6.55133C11.3281 7.11256 11.7904 7.89657 11.7904 8.65283C11.7904 9.66045 10.9061 10.437 9.86746 10.437C8.82879 10.437 7.94452 9.66045 7.94452 8.65256C7.94452 7.89629 8.40657 7.11228 8.82275 6.55133C9.06083 6.23081 9.32116 5.92743 9.60182 5.64343C9.62491 5.61982 9.64835 5.59656 9.67214 5.57366L9.67654 5.56954L9.67791 5.56844ZM9.20802 8.52616C9.27266 8.55865 9.32187 8.61532 9.34497 8.68388C9.38082 8.79422 9.45068 8.89038 9.54454 8.95858C9.6384 9.02678 9.75144 9.06351 9.86746 9.06352C9.94031 9.06352 10.0102 9.09246 10.0617 9.14398C10.1132 9.1955 10.1422 9.26537 10.1422 9.33822C10.1422 9.41108 10.1132 9.48095 10.0617 9.53247C10.0102 9.58399 9.94031 9.61293 9.86746 9.61293C9.63542 9.61292 9.40934 9.53945 9.22162 9.40305C9.0339 9.26665 8.89418 9.07433 8.82248 8.85364C8.80087 8.78461 8.80737 8.70983 8.84056 8.64556C8.87375 8.58128 8.93095 8.53269 8.99975 8.51034C9.06855 8.48798 9.14339 8.49367 9.20802 8.52616Z" fill="white"/>
</svg>
