<svg width="50" height="50" viewBox="0 0 50 50" fill="none" xmlns="http://www.w3.org/2000/svg">
<path d="M25 45.13C37.9787 45.13 48.5 35.5041 48.5 23.63C48.5 11.7559 37.9787 2.13 25 2.13C12.0213 2.13 1.5 11.7559 1.5 23.63C1.5 35.5041 12.0213 45.13 25 45.13Z" fill="#FFE500"/>
<path d="M25 41.127C11.7 41.127 2.594 32.563 1.6 21.627C1.54 22.287 1.5 22.953 1.5 23.627C1.5 35.501 10.9 45.127 25 45.127C39.1 45.127 48.5 35.5 48.5 23.63C48.5 22.954 48.461 22.288 48.4 21.63C47.406 32.563 38.3 41.127 25 41.127V41.127Z" fill="#F2C100"/>
<path d="M25 5.63301C28.5899 5.63301 31.5 5.18485 31.5 4.63201C31.5 4.07917 28.5899 3.63101 25 3.63101C21.4101 3.63101 18.5 4.07917 18.5 4.63201C18.5 5.18485 21.4101 5.63301 25 5.63301Z" fill="#FFFACF"/>
<path d="M25 45.13C37.9787 45.13 48.5 35.5041 48.5 23.63C48.5 11.7559 37.9787 2.13 25 2.13C12.0213 2.13 1.5 11.7559 1.5 23.63C1.5 35.5041 12.0213 45.13 25 45.13Z" stroke="#45413C" stroke-width="1.25" stroke-miterlimit="10"/>
<path d="M28.765 44.9C29.4403 44.2096 29.876 43.3206 30.008 42.364C29.9922 41.5134 29.6779 40.6954 29.1201 40.053C29.3783 39.5944 29.5195 39.0792 29.531 38.553C29.5074 38.2529 29.4072 37.9638 29.2403 37.7134C29.0733 37.4629 28.845 37.2593 28.577 37.122C28.8505 36.6775 28.9839 36.161 28.9598 35.6397C28.9357 35.1184 28.7553 34.6164 28.442 34.199C29.5934 33.8727 30.6319 33.2337 31.442 32.353C31.7862 31.9012 31.9808 31.3533 31.9987 30.7856C32.0166 30.2179 31.8568 29.6588 31.5417 29.1863C31.2266 28.7138 30.7719 28.3514 30.241 28.1496C29.7101 27.9479 29.1294 27.9169 28.58 28.061C25.719 28.538 20.9501 33.307 18.5651 33.784C16.1801 34.261 16.18 30.922 13.796 29.968C13.3754 29.7811 12.9104 29.7172 12.4549 29.7839C11.9994 29.8505 11.5721 30.0449 11.2226 30.3444C10.8731 30.644 10.6157 31.0365 10.4802 31.4764C10.3447 31.9164 10.3367 32.3857 10.457 32.83C11.2925 35.0292 11.8052 37.3379 11.9791 39.684C11.9183 40.0992 11.8879 40.5183 11.888 40.938C11.888 41.226 11.905 41.51 11.933 41.792" fill="#F2C100"/>
<path d="M20.8351 21.215C21.7161 20.6301 22.7621 20.3446 23.8181 20.401C25.9307 20.2883 28.0233 20.8592 29.7861 22.029M29.5121 12.467C29.9828 12.8563 30.5819 13.056 31.1921 13.027C31.6322 13.0618 32.0734 12.9758 32.4683 12.7785C32.8631 12.5811 33.1967 12.2798 33.4331 11.907M15.5071 10.786C15.6702 10.3144 15.9706 9.90237 16.3698 9.60297C16.769 9.30357 17.2487 9.13049 17.7471 9.10599C18.2457 9.13029 18.7255 9.30329 19.1249 9.6027C19.5243 9.90211 19.8249 10.3142 19.9881 10.786M25.2161 32.547C25.5292 32.9645 25.7094 33.4665 25.7333 33.9879C25.7572 34.5092 25.6237 35.0256 25.3501 35.47C24.5776 36.4243 23.5815 37.1731 22.4501 37.65M25.3501 35.47C25.6171 35.6077 25.8445 35.8114 26.0108 36.0616C26.177 36.3119 26.2766 36.6005 26.3001 36.9C26.2484 37.6594 25.9743 38.3868 25.5119 38.9914C25.0496 39.5961 24.4194 40.0512 23.7001 40.3" stroke="#45413C" stroke-width="1.25" stroke-linecap="round" stroke-linejoin="round"/>
<path d="M32.313 18.24C33.2795 18.24 34.063 17.4565 34.063 16.49C34.063 15.5235 33.2795 14.74 32.313 14.74C31.3465 14.74 30.563 15.5235 30.563 16.49C30.563 17.4565 31.3465 18.24 32.313 18.24Z" fill="#45413C"/>
<path d="M17.7471 18.24C18.7136 18.24 19.4971 17.4565 19.4971 16.49C19.4971 15.5235 18.7136 14.74 17.7471 14.74C16.7806 14.74 15.9971 15.5235 15.9971 16.49C15.9971 17.4565 16.7806 18.24 17.7471 18.24Z" fill="#45413C"/>
<path d="M11.9301 41.784C11.901 41.5003 11.886 41.2152 11.8851 40.93C11.885 40.5104 11.9154 40.0912 11.9761 39.676C11.8023 37.3299 11.2896 35.0212 10.4541 32.822C10.3337 32.3777 10.3418 31.9084 10.4773 31.4685C10.6128 31.0285 10.8702 30.636 11.2197 30.3364C11.5692 30.0369 11.9965 29.8425 12.4519 29.7759C12.9074 29.7092 13.3725 29.7731 13.7931 29.96C16.1771 30.914 16.1771 34.253 18.5621 33.776C20.9471 33.299 25.7161 28.53 28.5771 28.053C29.1265 27.9089 29.7071 27.9399 30.2381 28.1416C30.769 28.3434 31.2237 28.7058 31.5388 29.1783C31.8539 29.6508 32.0137 30.2099 31.9958 30.7776C31.9779 31.3453 31.7833 31.8932 31.4391 32.345C30.6289 33.2258 29.5905 33.8647 28.4391 34.191C28.7524 34.6084 28.9328 35.1104 28.9568 35.6317C28.9809 36.153 28.8476 36.6695 28.5741 37.114C28.842 37.2513 29.0703 37.4549 29.2373 37.7054C29.4043 37.9559 29.5044 38.2449 29.5281 38.545C29.5166 39.0712 29.3754 39.5864 29.1171 40.045C29.6749 40.6874 29.9892 41.5054 30.0051 42.356C29.8755 43.3151 29.4408 44.2071 28.7651 44.9V44.895C27.5164 45.0536 26.2588 45.1317 25.0001 45.129C20.4223 45.1999 15.9085 44.0483 11.9241 41.793" fill="#F2C100"/>
<path d="M32.313 18.24C33.2795 18.24 34.063 17.4565 34.063 16.49C34.063 15.5235 33.2795 14.74 32.313 14.74C31.3465 14.74 30.563 15.5235 30.563 16.49C30.563 17.4565 31.3465 18.24 32.313 18.24Z" fill="#45413C"/>
<path d="M17.7471 18.24C18.7136 18.24 19.4971 17.4565 19.4971 16.49C19.4971 15.5235 18.7136 14.74 17.7471 14.74C16.7806 14.74 15.9971 15.5235 15.9971 16.49C15.9971 17.4565 16.7806 18.24 17.7471 18.24Z" fill="#45413C"/>
<path d="M11.293 41.41C15.4179 43.9219 20.1711 45.2115 25 45.129C26.2601 45.1306 27.519 45.0511 28.769 44.891C28.769 44.891 29.094 44.846 29.406 44.799" stroke="#45413C" stroke-width="1.25" stroke-linecap="round" stroke-linejoin="round"/>
<path d="M25.3499 26.409C22.4889 26.885 17.7189 31.655 15.3349 32.132C12.9509 32.609 12.9499 29.27 10.5649 28.316C10.1443 28.1294 9.67941 28.0657 9.2241 28.1325C8.7688 28.1993 8.34173 28.3937 7.99238 28.6932C7.64304 28.9927 7.38572 29.3851 7.25025 29.8249C7.11477 30.2647 7.10669 30.7338 7.22693 31.178C8.06242 33.3772 8.57507 35.6859 8.74893 38.032C8.56996 39.2519 8.65568 40.4961 9.00027 41.68C9.34486 42.8638 9.94023 43.9596 10.746 44.893C11.5517 45.8263 12.5488 46.5752 13.6697 47.0889C14.7906 47.6026 16.0089 47.869 17.2419 47.87C18.887 47.8729 20.4979 47.4007 21.8809 46.51C24.8369 44.432 26.7809 42.147 26.7809 40.716C26.7652 39.8654 26.4509 39.0473 25.8929 38.405C26.1512 37.9464 26.2924 37.4312 26.3039 36.905C26.2802 36.6049 26.1801 36.3159 26.0131 36.0654C25.8462 35.8149 25.6178 35.6113 25.3499 35.474C25.6234 35.0295 25.7567 34.513 25.7327 33.9917C25.7086 33.4704 25.5282 32.9684 25.2149 32.551C26.3663 32.2247 27.4047 31.5858 28.2149 30.705C28.5612 30.2531 28.7574 29.7043 28.7761 29.1353C28.7948 28.5664 28.635 28.0058 28.3191 27.5322C28.0033 27.0586 27.5472 26.6956 27.0147 26.4942C26.4823 26.2928 25.9002 26.263 25.3499 26.409V26.409Z" fill="#FFE500"/>
<path d="M25.216 32.547C25.529 32.9645 25.7093 33.4665 25.7332 33.9879C25.7571 34.5092 25.6235 35.0256 25.35 35.47C24.5775 36.4243 23.5813 37.1731 22.45 37.65M25.35 35.47C25.617 35.6077 25.8444 35.8114 26.0107 36.0616C26.1769 36.3119 26.2765 36.6005 26.2999 36.9C26.2483 37.6594 25.9742 38.3868 25.5118 38.9914C25.0495 39.5961 24.4193 40.0512 23.7 40.3" stroke="#45413C" stroke-width="1.25" stroke-linecap="round" stroke-linejoin="round"/>
<path d="M25.8269 38.332C26.4236 38.9846 26.7626 39.8319 26.7809 40.716C26.7809 42.147 24.8369 44.432 21.8809 46.51C20.5838 47.3424 19.0865 47.8102 17.5463 47.8645C16.006 47.9188 14.4795 47.5574 13.127 46.8184C11.7745 46.0794 10.6459 44.99 9.85955 43.6645C9.0732 42.339 8.65814 40.8262 8.65793 39.285C8.6578 38.8657 8.68822 38.4469 8.74893 38.032C8.57507 35.6858 8.06242 33.3772 7.22693 31.178C7.10669 30.7338 7.11477 30.2646 7.25025 29.8249C7.38572 29.3851 7.64304 28.9927 7.99238 28.6932C8.34173 28.3936 8.7688 28.1992 9.2241 28.1325C9.67941 28.0657 10.1443 28.1294 10.5649 28.316C12.9499 29.27 12.9499 32.609 15.3349 32.132C17.7199 31.655 22.4889 26.885 25.3499 26.409C25.8992 26.2652 26.4796 26.2963 27.0103 26.498C27.5409 26.6997 27.9955 27.062 28.3105 27.5343C28.6255 28.0066 28.7854 28.5655 28.7677 29.1329C28.75 29.7004 28.5557 30.2482 28.2119 30.7C26.7809 32.608 23.9539 32.267 21.0929 35.128" stroke="#45413C" stroke-width="1.25" stroke-linecap="round" stroke-linejoin="round"/>
</svg>
