<svg width="50" height="50" viewBox="0 0 50 50" fill="none" xmlns="http://www.w3.org/2000/svg">
<path d="M25 46.5C37.9787 46.5 48.5 36.8741 48.5 25C48.5 13.1259 37.9787 3.5 25 3.5C12.0213 3.5 1.5 13.1259 1.5 25C1.5 36.8741 12.0213 46.5 25 46.5Z" fill="#FFE500"/>
<path d="M25 42.5C11.7 42.5 2.594 33.933 1.6 23C1.54 23.659 1.5 24.325 1.5 25C1.5 36.874 10.9 46.5 25 46.5C39.1 46.5 48.5 36.874 48.5 25C48.5 24.324 48.461 23.658 48.4 23C47.406 33.933 38.3 42.5 25 42.5Z" fill="#F2C100"/>
<path d="M25 7.00301C28.5899 7.00301 31.5 6.55484 31.5 6.00201C31.5 5.44917 28.5899 5.00101 25 5.00101C21.4101 5.00101 18.5 5.44917 18.5 6.00201C18.5 6.55484 21.4101 7.00301 25 7.00301Z" fill="#FFFACF"/>
<path d="M25 46.5C37.9787 46.5 48.5 36.8741 48.5 25C48.5 13.1259 37.9787 3.5 25 3.5C12.0213 3.5 1.5 13.1259 1.5 25C1.5 36.8741 12.0213 46.5 25 46.5Z" stroke="#45413C" stroke-width="1.25" stroke-miterlimit="10"/>
<path d="M31.583 18.986C32.5495 18.986 33.333 18.2025 33.333 17.236C33.333 16.2695 32.5495 15.486 31.583 15.486C30.6165 15.486 29.833 16.2695 29.833 17.236C29.833 18.2025 30.6165 18.986 31.583 18.986Z" fill="#45413C"/>
<path d="M18.417 18.986C19.3835 18.986 20.167 18.2025 20.167 17.236C20.167 16.2695 19.3835 15.486 18.417 15.486C17.4505 15.486 16.667 16.2695 16.667 17.236C16.667 18.2025 17.4505 18.986 18.417 18.986Z" fill="#45413C"/>
<path d="M17.9269 12.383C16.3526 12.9958 15.0624 14.172 14.3069 15.683M32.1879 12.383C33.7621 12.9958 35.0524 14.172 35.8079 15.683" stroke="#45413C" stroke-width="1.25" stroke-linecap="round" stroke-linejoin="round"/>
<path d="M39.347 26.745C41.3452 26.745 42.965 25.4489 42.965 23.85C42.965 22.2511 41.3452 20.955 39.347 20.955C37.3488 20.955 35.729 22.2511 35.729 23.85C35.729 25.4489 37.3488 26.745 39.347 26.745Z" fill="#FF6242" stroke="#FFA694" stroke-width="1.25" stroke-linecap="round" stroke-linejoin="round"/>
<path d="M10.6529 26.745C12.6511 26.745 14.2709 25.4489 14.2709 23.85C14.2709 22.2511 12.6511 20.955 10.6529 20.955C8.65475 20.955 7.03491 22.2511 7.03491 23.85C7.03491 25.4489 8.65475 26.745 10.6529 26.745Z" fill="#FF6242" stroke="#FFA694" stroke-width="1.25" stroke-linecap="round" stroke-linejoin="round"/>
<path d="M45.9801 8.07499C45.6812 7.86798 45.3445 7.72187 44.9891 7.64502C44.6338 7.56816 44.2668 7.56206 43.9091 7.62706C43.5514 7.69206 43.21 7.8269 42.9044 8.02386C42.5988 8.22083 42.335 8.47606 42.1281 8.77499L30.9131 24.932C32.7504 25.3757 34.474 26.2005 35.9721 27.353L46.6721 11.928C47.0908 11.3251 47.253 10.5807 47.1233 9.85832C46.9935 9.13589 46.5824 8.4945 45.9801 8.07499V8.07499Z" fill="#E5FEFF" stroke="#45413C" stroke-width="1.25" stroke-linecap="round" stroke-linejoin="round"/>
<path d="M33.9979 27.481L34.0809 27.539L34.1179 27.485L33.9979 27.481ZM43.0749 12.262C42.7871 12.0624 42.4318 11.9852 42.0872 12.0475C41.7425 12.1097 41.4367 12.3063 41.2369 12.594L32.3579 25.387C33.2017 25.6874 34.0153 26.0668 34.7879 26.52L43.4069 14.1C43.6065 13.8122 43.6837 13.4569 43.6214 13.1123C43.5592 12.7676 43.3626 12.4618 43.0749 12.262V12.262Z" fill="#FF6242"/>
<path d="M36.2 27.539C34.522 25.984 30.551 24.162 24.958 24.162C22.572 24.0992 20.1931 24.4504 17.927 25.2" stroke="#45413C" stroke-width="1.25" stroke-linecap="round" stroke-linejoin="round"/>
</svg>
