<svg width="20" height="20" viewBox="0 0 20 20" fill="none" xmlns="http://www.w3.org/2000/svg">
    <path fill-rule="evenodd" clip-rule="evenodd"
          d="M9.99982 11.437C6.99739 11.437 4.56321 9.10028 4.56321 6.21806C4.56321 3.33585 6.99739 1 9.99982 1H15.4364V6.21806C15.4364 9.10028 13.0022 11.437 9.99982 11.437ZM19 19C18.7742 16.4439 16.5467 14.4795 13.8748 14.4795H6.12516C3.45239 14.4795 1.22584 16.4439 1 19"
          fill="#FB8A76"/>
    <path d="M9.99982 11.437C6.99739 11.437 4.56321 9.10028 4.56321 6.21806C4.56321 3.33585 6.99739 1 9.99982 1H15.4364V6.21806C15.4364 9.10028 13.0022 11.437 9.99982 11.437ZM19 19C18.7742 16.4439 16.5467 14.4795 13.8748 14.4795H6.12516C3.45239 14.4795 1.22584 16.4439 1 19H19Z"
          stroke="#FB8A76" stroke-width="1.5" stroke-linecap="round" stroke-linejoin="round"/>
</svg>
