<svg width="202" height="185" viewBox="0 0 202 185" fill="none" xmlns="http://www.w3.org/2000/svg">
    <g clip-path="url(#clip0_18_256)">
        <path d="M113.525 71.5326C113.525 71.5326 126.721 76.939 129.641 80.024C132.561 83.1091 131.206 86.0137 128.775 88.2629C125.969 90.8548 118.732 87.5713 113.973 85.7371C109.214 83.9029 102.682 80.9983 97.7076 78.2981C92.7337 75.5979 90.9901 73.3608 92.2978 70.6366C93.6055 67.9124 94.1369 62.927 113.525 71.5326Z"
              fill="#E3E3E3" fill-opacity="0.72" stroke="#000102" stroke-width="2" stroke-miterlimit="10"
              stroke-linecap="round"/>
        <path d="M110.743 92.5447L114.367 82.6401C114.367 82.6401 114.182 80.0241 110.253 78.7311C106.324 77.4382 105.07 79.9098 105.07 79.9098L101.529 89.616L110.743 92.5447Z"
              fill="white" stroke="#000102" stroke-width="2" stroke-miterlimit="10" stroke-linecap="round"/>
        <path d="M98.2333 84.1495C103.548 84.5945 108.659 86.3986 113.191 89.2251C116.224 91.1194 119.753 93.6151 121.969 96.1409C126.495 101.295 124.309 105.366 123.766 106.683C123.222 108 100.066 162.551 100.066 162.551C100.066 162.551 94.358 171.848 76.97 163.549C59.5821 155.25 59.4388 148.148 62.0601 142.2C64.6814 136.253 83.9563 89.8746 83.9563 89.8746C83.9563 89.8746 85.8133 83.1091 98.2333 84.1495Z"
              fill="white" stroke="#000102" stroke-width="2" stroke-miterlimit="10" stroke-linecap="round"/>
        <path d="M81.4962 106.503C82.559 103.989 84.2429 103.802 86.9598 103.55C89.8976 103.279 96.0717 103.526 102.329 106.966C111.549 112.041 114.887 113.99 112.88 119.51C110.576 125.867 101.888 148.37 97.9825 157.09C96.7465 159.85 94.3341 161.961 91.3784 162.623C89.8498 162.966 88.0704 162.96 86.1537 162.208C80.0034 159.802 68.5388 156.176 66.4071 153.289C64.2754 150.403 65.4995 144.606 65.9115 143.613C66.2519 142.796 77.185 116.69 81.4962 106.503Z"
              fill="#D7D5FF" stroke="#000102" stroke-width="2" stroke-miterlimit="10" stroke-linecap="round"/>
        <path d="M100.353 85.427C100.353 85.427 96.424 87.8686 94.6685 92.1323C93.2294 95.6203 80.5169 127.018 74.9518 140.711C73.3038 144.765 73.1246 149.245 74.6174 152.937C75.0234 153.948 75.525 154.814 76.1281 155.325C76.1281 155.325 73.6262 164.953 73.2858 166.186L69.106 165.644L69.524 157.899C69.524 157.899 63.1349 152.655 62.7349 148.872C62.3348 145.09 83.4189 94.4957 83.4189 94.4957C83.4189 94.4957 86.7508 87.8443 88.4108 86.9302C92.8533 84.4705 100.353 85.427 100.353 85.427Z"
              fill="#EFE3E6" fill-opacity="0.28"/>
        <path d="M88.0105 162.382C88.0105 162.382 85.431 158.503 79.6031 156.068C73.7753 153.632 68.8849 154.137 68.8849 154.137L67.1832 165.022C67.1832 165.022 67.1234 167.927 68.9805 168.955C70.8375 169.984 75.1725 172.052 78.1402 172.528C81.1079 173.003 81.5199 171.391 82.3558 170.591C83.1858 169.797 88.0105 162.382 88.0105 162.382Z"
              fill="white" stroke="#000102" stroke-width="2" stroke-miterlimit="10" stroke-linecap="round"/>
        <path d="M74.4321 168.516L67.9833 184.164" stroke="#000102" stroke-width="2" stroke-miterlimit="10"
              stroke-linecap="round"/>
        <path d="M115.472 104.073C113.949 103.736 112.982 102.221 113.316 100.687C113.651 99.1538 115.155 98.1855 116.684 98.5223C118.207 98.8591 119.174 100.375 118.84 101.908C118.499 103.436 116.995 104.41 115.472 104.073Z"
              fill="black"/>
        <path d="M90.5603 94.6495C89.0377 94.3127 88.0704 92.7972 88.4047 91.2637C88.7391 89.7302 90.2438 88.762 91.7725 89.0988C93.2951 89.4356 94.2624 90.951 93.928 92.4845C93.5877 94.018 92.083 94.9862 90.5603 94.6495Z"
              fill="black"/>
        <path d="M86.7268 146.091C85.3517 146.091 84.2369 144.968 84.2369 143.583C84.2369 142.198 85.3517 141.076 86.7268 141.076C88.102 141.076 89.2168 142.198 89.2168 143.583C89.2168 144.968 88.102 146.091 86.7268 146.091Z"
              fill="white"/>
        <path d="M94.7342 140.161C94.0021 140.161 93.4086 139.564 93.4086 138.826C93.4086 138.089 94.0021 137.491 94.7342 137.491C95.4663 137.491 96.0598 138.089 96.0598 138.826C96.0598 139.564 95.4663 140.161 94.7342 140.161Z"
              fill="#FDFDFF"/>
        <path d="M105.727 99.093C105.727 99.093 103.612 102.322 100.469 101.271C97.3252 100.22 98.0328 97.2715 98.0328 97.2715"
              fill="white"/>
        <path d="M105.727 99.093C105.727 99.093 103.612 102.322 100.469 101.271C97.3252 100.22 98.0328 97.2715 98.0328 97.2715"
              stroke="#000102" stroke-width="2.7722" stroke-miterlimit="10" stroke-linecap="round"/>
    </g>
    <circle opacity="0.6" cx="56.2678" cy="70.8049" r="3.1153" transform="rotate(-45 56.2678 70.8049)" fill="#C4A8EC"/>
    <circle opacity="0.4" cx="43.0496" cy="57.5869" r="5.19216" transform="rotate(-45 43.0496 57.5869)" fill="#C4A8EC"/>
    <circle opacity="0.3" cx="26.8957" cy="41.433" r="7.26903" transform="rotate(-45 26.8957 41.433)" fill="#C4A8EC"/>
    <circle opacity="0.6" cx="48.8069" cy="102.419" r="3.1153" transform="rotate(-90 48.8069 102.419)" fill="#C4A8EC"/>
    <circle opacity="0.4" cx="30.1145" cy="102.418" r="5.19216" transform="rotate(-90 30.1145 102.418)" fill="#C4A8EC"/>
    <circle opacity="0.3" cx="7.26903" cy="102.418" r="7.26903" transform="rotate(-90 7.26903 102.418)" fill="#C4A8EC"/>
    <circle opacity="0.6" cx="83.7546" cy="48.3459" r="3.1153" transform="rotate(-20 83.7546 48.3459)" fill="#C4A8EC"/>
    <circle opacity="0.4" cx="77.3604" cy="30.782" r="5.19216" transform="rotate(-20 77.3604 30.782)" fill="#C4A8EC"/>
    <circle opacity="0.3" cx="69.5461" cy="9.31679" r="7.26903" transform="rotate(-20 69.5461 9.31679)" fill="#C4A8EC"/>
    <circle opacity="0.6" r="3.1153" transform="matrix(-0.707107 -0.707107 -0.707107 0.707107 145.458 70.8049)"
            fill="#C4A8EC"/>
    <circle opacity="0.3" r="5.19216" transform="matrix(-0.707107 -0.707107 -0.707107 0.707107 158.676 57.5869)"
            fill="#C4A8EC"/>
    <circle opacity="0.3" r="7.26903" transform="matrix(-0.707107 -0.707107 -0.707107 0.707107 174.83 41.433)"
            fill="#C4A8EC"/>
    <circle opacity="0.6" r="3.1153" transform="matrix(0 -1 -1 0 152.919 102.419)" fill="#C4A8EC"/>
    <circle opacity="0.4" r="5.19216" transform="matrix(0 -1 -1 0 171.611 102.418)" fill="#C4A8EC"/>
    <circle opacity="0.3" r="7.26903" transform="matrix(0 -1 -1 0 194.457 102.418)" fill="#C4A8EC"/>
    <circle opacity="0.6" r="3.1153" transform="matrix(-0.939693 -0.34202 -0.34202 0.939693 117.971 48.3459)"
            fill="#C4A8EC"/>
    <circle opacity="0.4" r="5.19216" transform="matrix(-0.939693 -0.34202 -0.34202 0.939693 124.365 30.782)"
            fill="#C4A8EC"/>
    <circle opacity="0.3" r="7.26903" transform="matrix(-0.939693 -0.34202 -0.34202 0.939693 132.18 9.31679)"
            fill="#C4A8EC"/>
    <defs>
        <clipPath id="clip0_18_256">
            <rect width="72" height="119" fill="white" transform="matrix(-1 0 0 1 132 66)"/>
        </clipPath>
    </defs>
</svg>
