<svg xmlns="http://www.w3.org/2000/svg" viewBox="0 0 152.96 90">
    <g id="Layer_2">
        <g id="Layer_1-2">
            <g opacity="0.8" style="isolation:isolate">
                <path d="M23.22,70.58A15.77,15.77,0,0,1,19,70l-.22-.08a10.73,10.73,0,0,1-6-5.28c-.52,0-1-.07-1.39-.12C7,64,3,61.68,1.15,58.52a8.86,8.86,0,0,1-.23-8.33c2.55-5.75,8.46-9,17.09-9.26a2,2,0,0,1,.14,4C13.27,45.1,7,46.43,4.57,51.81a5,5,0,0,0,0,4.72c1.18,2.06,4.09,3.68,7.24,4l.11,0a9.61,9.61,0,0,1,1.11-4.21,9.84,9.84,0,0,1,11.41-4.57,4.67,4.67,0,0,1,2.82,3,5.24,5.24,0,0,1-.62,4.46c-2.22,3.41-5.86,4.78-9.18,5.26a8.15,8.15,0,0,0,2.66,1.72c3.41.93,7.14.29,12.06-2.06A2,2,0,0,1,34,67.74,25.11,25.11,0,0,1,23.22,70.58ZM21.78,55.34a5.85,5.85,0,0,0-5.16,2.89A5.5,5.5,0,0,0,16,60.61c2.65-.23,5.75-1.08,7.38-3.59a1.23,1.23,0,0,0,.17-1,.65.65,0,0,0-.43-.44A3.7,3.7,0,0,0,21.78,55.34Z"
                      fill="#d9e6f2"/>
            </g>
            <g opacity="0.8" style="isolation:isolate">
                <circle cx="123.35" cy="49.63" r="2.27" fill="#d9e6f2"/>
            </g>
            <g opacity="0.8" style="isolation:isolate">
                <circle cx="33.78" cy="25.06" r="3.5" fill="#acf2e7"/>
            </g>
            <g opacity="0.6" style="isolation:isolate">
                <path d="M135.33,79.46l-.24,0c-6.64-1.26-11.38-4.21-14.5-9A1.29,1.29,0,1,1,122.75,69c2.72,4.17,6.91,6.74,12.82,7.87a1.29,1.29,0,0,1-.24,2.55Z"
                      fill="#f7d557"/>
            </g>
            <g opacity="0.8" style="isolation:isolate">
                <path d="M123,32.5a29.27,29.27,0,0,1-4.55-.37,2,2,0,0,1,.64-4c4.32.7,8.34.23,9.16-1.06.47-.75-.09-2.4-1.49-4.43-1.81-2.63-3.2-5-1.74-6.63s3.83-.6,7.66,1.31c1.56.78,4.62,2.31,6,2.5-.17-1.52-2.53-5.14-3.59-6.79C132.86,9.61,131.5,7.51,133,5.8s3.84-.53,5.15.06a90.41,90.41,0,0,1,14,7.75,2,2,0,1,1-2.36,3.23A81.73,81.73,0,0,0,138,10.23l.44.68c2.57,3.95,5.22,8,3.86,11a3.16,3.16,0,0,1-1.88,1.72c-2.23.79-5.21-.56-9.52-2.71l-.72-.36c2.38,3.52,2.87,6.43,1.46,8.67C130,31.88,126.23,32.5,123,32.5Z"
                      fill="#acf2e7"/>
            </g>
            <path d="M109.38,87.07s.14,2.52-2.12,2.52H51a2.49,2.49,0,0,1-2.65-1.86s0-1.4,0-3.84v-.18h2.42V85.9h55.83V10.64H94.74l-.11,0a6.39,6.39,0,0,0-1.3-2.3H107s2.38.79,2.38,2.51Z"
                  fill="#a67c50"/>
            <path d="M106.52,10.64V85.9H50.69V83.71h51.19c0-24.36,3.36-48.71,3.4-73.07Z" fill="#fff"/>
            <path d="M95.14,10.64h10.14c0,24.36-3.36,48.71-3.4,73.07H46.06c0-14.07,1.13-28.14,2.08-42.21.69-10.29,1.3-20.58,1.31-30.86H63.62a6.2,6.2,0,0,0-.3,1.94,2.81,2.81,0,0,0,0,.29H94.91c0-.1,0-.19,0-.29a6.31,6.31,0,0,0-.29-1.91l.11,0ZM54.72,57H69.06c.27-4.17.56-8.34.84-12.51q.36-5.06.67-10.12H52.2C51.74,42,51.18,49.5,50.69,57ZM84.43,22.17a7,7,0,0,0-7.1-7.3,7.58,7.58,0,0,0-7.5,7.3,6.93,6.93,0,0,0,7,7.3A7.7,7.7,0,0,0,84.43,22.17Z"
                  fill="#fff"/>
            <path d="M94.92,12.58c0,.1,0,.19,0,.29H63.33a2.81,2.81,0,0,1,0-.29,6.33,6.33,0,0,1,1.59-4.21A6.35,6.35,0,0,1,69.69,6.2h6.23V2.57A2.18,2.18,0,0,1,78.11.4h2A2.16,2.16,0,0,1,82.3,2.57V6.2h6.24a6.4,6.4,0,0,1,6.09,4.47A6.31,6.31,0,0,1,94.92,12.58ZM80.23,3.06a1.11,1.11,0,1,0-1.11,1.11A1.11,1.11,0,0,0,80.23,3.06Z"
                  fill="#b9bbbd"/>
            <path d="M77.33,14.87a7,7,0,0,1,7.1,7.3,7.7,7.7,0,0,1-7.64,7.3,6.93,6.93,0,0,1-7-7.3A7.58,7.58,0,0,1,77.33,14.87Zm3.8,8.78c0-1,.08-2,.11-3H78.66c0-.86.06-1.72.08-2.58h-3c0,.86,0,1.72-.07,2.58H73.12c0,1-.07,2-.11,3h2.58c0,.86-.08,1.73-.12,2.58h3c0-.85.08-1.72.11-2.58Z"
                  fill="#27a7de"/>
            <path d="M81.24,20.69c0,1-.07,2-.11,3H78.55c0,.86-.07,1.73-.11,2.58h-3c0-.85.08-1.72.12-2.58H73c0-1,.08-2,.11-3H75.7c0-.86,0-1.72.07-2.58h3c0,.86,0,1.72-.08,2.58Z"
                  fill="#eeefef"/>
            <path d="M69.9,44.53c-.28,4.17-.57,8.34-.84,12.51H66.75v-.15c-.16-1,.24-10.63.29-11.84a5.53,5.53,0,0,0,1.82-.42.3.3,0,0,0,0-.17Z"
                  fill="#58dd9a"/>
            <path d="M65.12,39.84a2.68,2.68,0,0,1,2.42.58,7.58,7.58,0,0,1,1.36,4,.3.3,0,0,1,0,.17,5.53,5.53,0,0,1-1.82.42c-.05,1.21-.45,10.89-.29,11.84V57h-12c.21-1.24.72-7.76.72-7.76v0l-.23,0a2.5,2.5,0,0,1-1.45-3.53,2,2,0,0,0,1.13,1.12c.57.1,2.11-.89,1.69-1.44h0a.43.43,0,0,0-.12-.11,2.07,2.07,0,0,0-1-.31,9.43,9.43,0,0,1,.76-1.82,9.68,9.68,0,0,1,1-1.49,5.33,5.33,0,0,1,2-1.58A8.82,8.82,0,0,1,65.12,39.84Z"
                  fill="#f8bf8d"/>
            <path d="M48.78,8.37a7.87,7.87,0,0,1-.9.65c-.05,3.14,0,17.13.11,32.47h.15c.69-10.29,1.3-20.58,1.31-30.86H63.62a6.24,6.24,0,0,1,1.29-2.27Z"
                  fill="#a67c50"/>
            <path d="M59,39.76l.14.29a5.33,5.33,0,0,0-2,1.58,9.68,9.68,0,0,0-1,1.49c-.6.15-2,.16-2.38-.3s1.22-3.31,2.21-3.74S59,39.76,59,39.76Z"
                  fill="#f8bf8d"/>
            <path d="M53.76,45.68a.39.39,0,0,1,.18-.52,3.18,3.18,0,0,1,1.52-.22,2.07,2.07,0,0,1,1,.31.43.43,0,0,1,.12.11h0c.42.55-1.12,1.54-1.69,1.44A2,2,0,0,1,53.76,45.68Z"
                  fill="#a3642c"/>
            <path d="M68.9,44.46a7.58,7.58,0,0,0-1.36-4,2.68,2.68,0,0,0-2.42-.58,8.82,8.82,0,0,0-6,.21L59,39.76s-2-1.12-3-.68-2.6,3.18-2.21,3.74,1.78.45,2.38.3a9.43,9.43,0,0,0-.76,1.82,3.18,3.18,0,0,0-1.52.22.39.39,0,0,0-.18.52,2.5,2.5,0,0,0,1.45,3.53l.23,0v0s-.51,6.52-.72,7.76h-4C51.18,49.5,51.74,42,52.2,34.41H70.57q-.31,5.07-.67,10.12Z"
                  fill="#58dd9a"/>
            <g opacity="0.15">
                <path d="M63.59,11.2s28,.74,28.82,0-.7-4-1.45-4.37c0,0,2.74,1.59,3.14,2.38a20.68,20.68,0,0,1,.74,3.73H63.54"
                      fill="#232533"/>
            </g>
            <g opacity="0.15">
                <path d="M105.08,10.35l1.39.2s-.1,24.85-.9,35.78-1.09,33.09-1.09,36.27v3.18H50.82l.2-1.89s43.62-1.09,50.68-.1c0,0,.49-15.8.59-20.47S104,35,104.18,32.12s1-19.88,1-19.88"
                      fill="#232533"/>
            </g>
            <path d="M62.61,44.15a.68.68,0,0,1-.65.65.58.58,0,0,1-.6-.61.68.68,0,0,1,.65-.65A.57.57,0,0,1,62.61,44.15Z"/>
            <path d="M58.67,43.84a.69.69,0,0,1-.65.65.58.58,0,0,1-.61-.6.68.68,0,0,1,.65-.65A.58.58,0,0,1,58.67,43.84Z"/>
            <path d="M55.46,45.24h-.09a.3.3,0,0,1-.2-.37A10.45,10.45,0,0,1,57,41.44c2.67-3.42,7.35-2.17,8.26-1.89a.31.31,0,0,1,.19.38.3.3,0,0,1-.37.19c-.85-.26-5.18-1.42-7.61,1.69A9.93,9.93,0,0,0,55.74,45,.29.29,0,0,1,55.46,45.24Z"/>
            <path d="M57.85,49.73a14,14,0,0,1-2.71-.23,2.53,2.53,0,0,1-1.78-1.69,2.48,2.48,0,0,1,.17-2.31.3.3,0,1,1,.47.36,2,2,0,0,0-.08,1.75,1.91,1.91,0,0,0,1.35,1.3c1.79.41,6,.27,6.9-.58a.3.3,0,0,1,.42.43C61.88,49.45,59.76,49.73,57.85,49.73Z"/>
            <path d="M61.48,46.6H61.4c-.12,0-2.75-.67-4.86-.93a.32.32,0,0,1-.26-.34.3.3,0,0,1,.33-.26c1.14.15,2.42.4,3.3.58,1.87.4,1.87.4,1.87.66A.29.29,0,0,1,61.48,46.6Z"/>
            <path d="M55,47.1h-.13a2.19,2.19,0,0,1-1.4-1.49.65.65,0,0,1,.37-.71h0a3.33,3.33,0,0,1,2.82.11.66.66,0,0,1,.26.85A2.59,2.59,0,0,1,55,47.1Zm.2-1.87a2.74,2.74,0,0,0-1.1.2h0s0,0,0,.09a1.69,1.69,0,0,0,.91,1,2,2,0,0,0,1.4-.88c0-.07,0-.09,0-.14A2.1,2.1,0,0,0,55.17,45.23Z"/>
            <path d="M55.28,43.51A2.16,2.16,0,0,1,53.6,43a1,1,0,0,1,0-.91,6.51,6.51,0,0,1,2.37-3.28c1.07-.47,3.29.67,3.43.85a.3.3,0,0,1,0,.37.32.32,0,0,1-.36.09.24.24,0,0,1-.1-.06c-.37-.22-2.06-1-2.74-.7a5.82,5.82,0,0,0-2,2.63c-.16.44-.15.63-.13.67.19.27,1.42.34,2,.18a.3.3,0,0,1,.36.22.29.29,0,0,1-.21.36A4.93,4.93,0,0,1,55.28,43.51Z"/>
            <path d="M66.57,45.36h-.14A1.6,1.6,0,0,1,65.27,45a3.47,3.47,0,0,1-.46-2.12,3.27,3.27,0,0,0-.09-.92.3.3,0,0,1,.46-.39c.19.22.21.62.22,1.3a3.38,3.38,0,0,0,.31,1.72c.39.43,2.43,0,2.9-.15a7.45,7.45,0,0,0-1.29-3.79c-.58-.61-1.57-.72-2.88-.32l-.1,0a.3.3,0,0,1-.12-.59h0c1.93-.59,3-.07,3.48.48a7.81,7.81,0,0,1,1.45,4.2.54.54,0,0,1-.14.42A5.72,5.72,0,0,1,66.57,45.36Z"/>
            <path d="M101.88,84.11H46.06a.4.4,0,0,1-.29-.12.39.39,0,0,1-.11-.28c0-12.19.87-24.58,1.7-36.56S49,22.8,49.05,10.64a.4.4,0,0,1,.4-.4H63.62a.39.39,0,0,1,.39.4.38.38,0,0,1-.39.39H49.85c0,12.07-.88,24.32-1.7,36.17s-1.66,24.08-1.7,36.11h55c0-12.06.88-24.31,1.69-36.16s1.66-24.08,1.7-36.12H94.74a.39.39,0,0,1-.4-.39.4.4,0,0,1,.4-.4h10.54a.38.38,0,0,1,.28.12.4.4,0,0,1,.12.28c0,12.19-.88,24.58-1.7,36.56s-1.68,24.35-1.7,36.51A.4.4,0,0,1,101.88,84.11Z"/>
            <path d="M76.79,29.87a7.26,7.26,0,0,1-5.3-2.23,7.37,7.37,0,0,1-2.06-5.48,8,8,0,0,1,7.9-7.68,7.49,7.49,0,0,1,5.44,2.29,7.34,7.34,0,0,1,2,5.42h0a8.08,8.08,0,0,1-8,7.68Zm.54-14.6a7.21,7.21,0,0,0-7.1,6.92,6.63,6.63,0,0,0,1.83,4.9,6.49,6.49,0,0,0,4.73,2h0A7.27,7.27,0,0,0,84,22.16h0a6.53,6.53,0,0,0-1.84-4.84A6.69,6.69,0,0,0,77.33,15.27Z"/>
            <path d="M78.44,26.63h-3a.36.36,0,0,1-.28-.12.38.38,0,0,1-.11-.3l.09-2.16H73a.4.4,0,0,1-.29-.12.44.44,0,0,1-.11-.29c0-1,.08-2,.11-3a.41.41,0,0,1,.4-.39h2.19c0-.73,0-1.46.07-2.19a.39.39,0,0,1,.39-.38h3a.4.4,0,0,1,.29.12.41.41,0,0,1,.11.28c0,.73,0,1.45-.07,2.17h2.17a.45.45,0,0,1,.29.12.44.44,0,0,1,.11.29c0,1-.07,2-.11,3a.4.4,0,0,1-.4.38h-2.2l-.09,2.2A.4.4,0,0,1,78.44,26.63Zm-2.55-.79h2.17c0-.74.07-1.47.1-2.2a.39.39,0,0,1,.39-.38h2.2c0-.73,0-1.45.08-2.17H78.66a.42.42,0,0,1-.28-.12.37.37,0,0,1-.11-.29l.06-2.17H76.16c0,.73,0,1.46-.07,2.19a.39.39,0,0,1-.39.39H73.5c0,.72,0,1.44-.08,2.17h2.17a.38.38,0,0,1,.28.12.36.36,0,0,1,.11.29Z"/>
            <path d="M69.06,57.43H50.69a.4.4,0,0,1-.29-.12.41.41,0,0,1-.1-.3c.21-3.29.43-6.57.66-9.86.29-4.18.59-8.51.84-12.76a.4.4,0,0,1,.4-.37H70.57a.4.4,0,0,1,.29.12.41.41,0,0,1,.1.3c-.25,4.25-.55,8.58-.84,12.76-.23,3.29-.46,6.57-.67,9.86A.39.39,0,0,1,69.06,57.43Zm-17.94-.79H68.68q.31-4.76.65-9.49c.27-4,.56-8.22.81-12.34H52.58C52.32,39,52,43.14,51.75,47.2,51.54,50.35,51.32,53.49,51.12,56.64Z"/>
            <path d="M54.69,57.48h-.07a.29.29,0,0,1-.21-.36c.06-.28.24-1.78.7-7.44,0-.56,0-.56.16-.64l.34.49-.17-.24.3,0s0,.17,0,.41c-.37,4.64-.61,7.1-.72,7.53A.29.29,0,0,1,54.69,57.48Z"/>
            <path d="M66.75,57.19a.31.31,0,0,1-.3-.25c-.15-.93.18-9.35.29-11.91a.29.29,0,0,1,.31-.29.31.31,0,0,1,.29.31c-.21,5-.41,11.1-.3,11.79a.29.29,0,0,1-.24.34Z"/>
            <path d="M100.54,36.3H73.35c.05-.75.09-1.5.14-2.25h27.19C100.63,34.8,100.58,35.55,100.54,36.3Z"
                  fill="#27a7de"/>
            <path d="M98.82,62.44H49.66c.05-.75.09-1.5.13-2.25H99C98.9,60.94,98.86,61.69,98.82,62.44Z" fill="#27a7de"/>
            <path d="M98.67,65H49.52c0-.45,0-.9.07-1.34H98.74C98.72,64.13,98.7,64.58,98.67,65Z" fill="#232533"/>
            <path d="M98.52,68.1H49.37l.06-1.35H98.58Z" fill="#232533"/>
            <path d="M98.39,71.16H49.23l.06-1.34H98.44C98.42,70.27,98.4,70.72,98.39,71.16Z" fill="#232533"/>
            <path d="M73.74,72.89H49.17c0,.45,0,.9-.05,1.34H73.7C73.71,73.79,73.73,73.34,73.74,72.89Z" fill="#232533"/>
            <path d="M100.3,40H73.11l.15-2.25h27.18C100.4,38.5,100.35,39.25,100.3,40Z" fill="#27a7de"/>
            <path d="M100.13,42.53H72.94c0-.36,0-.72.07-1.08H100.2C100.18,41.81,100.15,42.17,100.13,42.53Z"
                  fill="#232533"/>
            <path d="M99.94,45.29H72.75c0-.36,0-.73.08-1.09H100C100,44.56,100,44.93,99.94,45.29Z" fill="#232533"/>
            <ellipse cx="86.19" cy="47.5" rx="19.23" ry="0.77" fill="#232533"/>
            <path d="M86.29,50.8H72.37c0-.36,0-.73.08-1.09H86.37C86.34,50.07,86.32,50.44,86.29,50.8Z" fill="#232533"/>
            <path d="M106.52,86.3H50.69a.39.39,0,0,1-.39-.4V84.16a.39.39,0,0,1,.39-.4.4.4,0,0,1,.4.4V85.5h55V11h-11a.39.39,0,0,1-.4-.39.4.4,0,0,1,.4-.4h11.38a.4.4,0,0,1,.4.4V85.9A.4.4,0,0,1,106.52,86.3Z"/>
            <path d="M94.91,13.26H63.33a.4.4,0,0,1-.4-.37c0-.12,0-.21,0-.31A6.79,6.79,0,0,1,69.7,5.8h5.83V2.57A2.57,2.57,0,0,1,78.11,0h2A2.57,2.57,0,0,1,82.7,2.57V5.8h5.85a6.78,6.78,0,0,1,6.77,6.78,1.62,1.62,0,0,1,0,.22v.09A.39.39,0,0,1,94.91,13.26Zm-31.19-.79H94.53a6,6,0,0,0-6-5.88H82.3a.39.39,0,0,1-.39-.39V2.57A1.78,1.78,0,0,0,80.14.79h-2a1.79,1.79,0,0,0-1.79,1.78V6.2a.39.39,0,0,1-.39.39H69.7A6,6,0,0,0,63.72,12.47Z"/>
            <path d="M79.12,4.56a1.51,1.51,0,1,1,1.51-1.5A1.51,1.51,0,0,1,79.12,4.56Zm0-2.22a.72.72,0,1,0,.71.72A.71.71,0,0,0,79.12,2.34Z"/>
            <path d="M50.7,90a2.88,2.88,0,0,1-2.78-2.15.36.36,0,0,1,0-.11s0-1.41,0-3.85a.39.39,0,0,1,.39-.4h0a.4.4,0,0,1,.4.4c0,2.14,0,3.49,0,3.78a2.05,2.05,0,0,0,2.2,1.52h56.36a1.54,1.54,0,0,0,1.19-.45,2.57,2.57,0,0,0,.53-1.65V10.88c0-1.28-1.72-2-2-2.12H93.33a.39.39,0,0,1-.4-.39.4.4,0,0,1,.4-.4H107l.12,0c.11,0,2.66.91,2.66,2.89V87.07a3.34,3.34,0,0,1-.75,2.22,2.33,2.33,0,0,1-1.77.69H51Z"/>
            <path d="M48,41.89a.4.4,0,0,1-.4-.4C47.49,24,47.45,13.71,47.47,10c0-1.94,1.84-2,2.45-2h15a.4.4,0,0,1,.4.4.39.39,0,0,1-.4.39h-15c-1.39,0-1.66.46-1.65,1.19,0,3.76,0,14.08.12,31.54a.4.4,0,0,1-.4.4Z"/>
        </g>
    </g>
</svg>