<svg xmlns="http://www.w3.org/2000/svg" viewBox="0 0 33.16 45.36">
    <g id="Layer_2">
        <g id="Layer_1-2">
            <rect x="-4.82" y="14.78" width="42.8" height="15.8" transform="translate(-11.1 27.46) rotate(-63.63)"
                  fill="none"/>
            <path d="M26.31,3.9s-4.45-2.26-5.92-2.31-1.92,1-2,2.11C18.4,5,20.93,6.2,22.5,7a51.61,51.61,0,0,0,5.69,2.59c1.86.69,2.84.64,3.26-.32S33,7,26.31,3.9Z"
                  fill="#fff"/>
            <path d="M30.16,10.31a6.18,6.18,0,0,1-2.05-.47,54.22,54.22,0,0,1-5.72-2.6L21.91,7c-1.67-.86-3.75-1.93-3.72-3.29a2.52,2.52,0,0,1,.68-1.86,2,2,0,0,1,1.53-.49c1.49,0,5.79,2.22,6,2.33,6,2.81,5.95,4.21,5.34,5.52a1.54,1.54,0,0,0-.08.19A1.52,1.52,0,0,1,30.16,10.31ZM20.28,1.83a1.54,1.54,0,0,0-1.08.37,2.06,2.06,0,0,0-.52,1.51c0,1,2,2.09,3.46,2.85l.47.25a54.24,54.24,0,0,0,5.67,2.57c2,.76,2.66.47,2.95-.19L31.32,9c.38-.82,1-2-5.11-4.88h0s-4.42-2.24-5.82-2.29Z"
                  fill="#000102"/>
            <path d="M21.46,9.45l1.76-3.21s.72-.56,2,.19.89,1.63.89,1.63l-1.72,3.15Z" fill="#fff"/>
            <path d="M24.47,11.61,21.08,9.55,23,6a2,2,0,0,1,2.3.17c1.17.69,1.18,1.6,1,2ZM21.84,9.35l2.42,1.46,1.58-2.89h0s.23-.65-.79-1.25a1.66,1.66,0,0,0-1.62-.23Z"
                  fill="#000102"/>
            <path d="M26.54,10.82A12,12,0,0,0,21.77,8a14.72,14.72,0,0,0-3.84-.74,3,3,0,0,0-3.17,1.93l-9.17,19s-1.12,3.62,5.05,6.33,8.06,1.1,9-.94,8.67-17.72,8.67-17.72S29.66,13.86,26.54,10.82Z"
                  fill="#fff"/>
            <path d="M28.62,14.72a2.32,2.32,0,0,1-.28,1.19s-7.72,15.67-8.67,17.72c-.76,1.62-2.12,3-5.76,2.09l.22-.22s2.73.56,3.81-.21,9.59-17.94,9.59-17.94A20.36,20.36,0,0,0,28.62,14.72Z"
                  fill="#fff"/>
            <path d="M26.37,10.6a9.4,9.4,0,0,1-.79,3.24C25,15,19.7,25.56,17.38,30.14A5.57,5.57,0,0,1,14.25,33a2.12,2.12,0,0,1-1,.15S11.32,36,11.09,36.4l1.09,1,1.94-1.89s2.73.56,3.81-.21,9.6-17.94,9.6-17.94S28.84,14.69,28.7,14A8,8,0,0,0,26.37,10.6Z"
                  fill="#eee4e7"/>
            <path d="M16,36.28a14.15,14.15,0,0,1-5.46-1.45c-6.33-2.78-5.26-6.52-5.21-6.67.38-.8,9-18.61,9.18-19.06l0-.08a3.29,3.29,0,0,1,3.35-2H18a15,15,0,0,1,3.9.74,12.36,12.36,0,0,1,4.89,2.86h0C30,13.78,28.63,16,28.58,16.07s-7.72,15.66-8.65,17.68A4,4,0,0,1,16,36.28Zm1.9-28.69a2.75,2.75,0,0,0-2.83,1.67l0,.1c-.22.44-9.08,18.82-9.17,19s-.93,3.38,4.91,5.94c6,2.65,7.76,1.08,8.65-.8S28,15.94,28.08,15.78s1.15-1.94-1.74-4.75a11.82,11.82,0,0,0-4.66-2.72A14.43,14.43,0,0,0,18,7.59Z"
                  fill="#000102"/>
            <path d="M24.53,20.34c.42-.84.08-1.33-.5-2.11A9.81,9.81,0,0,0,19.59,15c-3.45-1.27-4.72-1.71-5.71.08-1.13,2.05-5,9.5-6.41,12.52a3.37,3.37,0,0,0,.07,3,3.19,3.19,0,0,0,1.33,1.29c2,1.07,5.63,3.26,6.87,3.17s2.48-1.76,2.63-2.08S22.86,23.81,24.53,20.34Z"
                  fill="#d7d7ff"/>
            <path d="M24.53,20.34c-1.67,3.47-6,12.31-6.15,12.6s-1.4,2-2.64,2.08a7.87,7.87,0,0,1-3-1.08c-1.35-.68-2.83-1.53-3.88-2.09a3.1,3.1,0,0,1-1.32-1.29,3.37,3.37,0,0,1-.08-3c1.38-3,5.28-10.47,6.42-12.52,1-1.79,2.25-1.35,5.71-.08a10,10,0,0,1,4,2.76c.16.19.29.36.4.51C24.61,19,25,19.5,24.53,20.34Z"
                  fill="#d7d7ff"/>
            <path d="M24.53,20.34c-1.67,3.47-6,12.31-6.15,12.6s-1.4,2-2.64,2.08a7.87,7.87,0,0,1-3-1.08l.53-.77a2.28,2.28,0,0,0,1-.15,5.63,5.63,0,0,0,3.13-2.88c1.53-3,4.34-8.61,6.25-12.42.16.19.29.36.4.51C24.61,19,25,19.5,24.53,20.34Z"
                  fill="#c9c0e7"/>
            <path d="M15.67,35.3c-1,0-3.06-1.07-5.58-2.47l-1.35-.74a3.42,3.42,0,0,1-1.44-1.4,3.61,3.61,0,0,1-.09-3.24c1.38-3,5.27-10.44,6.43-12.54s2.66-1.46,6.05-.21a10.09,10.09,0,0,1,4.57,3.37c.55.74,1,1.38.52,2.4-1.61,3.33-6,12.3-6.16,12.61s-1.41,2.09-2.86,2.22Zm0-21.17a1.62,1.62,0,0,0-1.54,1c-1.16,2.1-5,9.51-6.41,12.5a3.05,3.05,0,0,0,.07,2.75A2.85,2.85,0,0,0,9,31.6c.4.21.86.47,1.36.75,1.88,1,4.43,2.47,5.36,2.39,1.1-.09,2.27-1.65,2.41-1.92s4.45-9.08,6.15-12.6h0c.34-.68.1-1-.47-1.82a9.55,9.55,0,0,0-4.31-3.18A13.76,13.76,0,0,0,15.67,14.13Z"
                  fill="#000102"/>
            <path d="M8.4,31.38a6.92,6.92,0,0,1,3.58.77,8.56,8.56,0,0,1,3,2.39l-2.46,2.93s-.75.67-1.44.42A11.9,11.9,0,0,1,8,36.3c-.8-.68-.48-1.15-.46-1.56S8.4,31.38,8.4,31.38Z"
                  fill="#fff"/>
            <path d="M14.22,35.52l.36-.46.09-.8-.36-.48-.71-.62a1.85,1.85,0,0,1-.33,0S11.32,36,11.09,36.4l1.09,1,1.94-1.89Z"
                  fill="#eee4e7"/>
            <path d="M11.37,38.24a1.25,1.25,0,0,1-.42-.08,12.32,12.32,0,0,1-3.12-1.64,1.45,1.45,0,0,1-.6-1.58.76.76,0,0,0,0-.21c0-.43.72-2.93.86-3.43l.05-.18.19,0a7.14,7.14,0,0,1,3.75.8,8.74,8.74,0,0,1,3.07,2.47l.13.18-2.6,3.1A2.22,2.22,0,0,1,11.37,38.24ZM8.62,31.65c-.32,1.14-.77,2.84-.79,3.1a1.54,1.54,0,0,1,0,.3c-.06.32-.11.59.41,1a11.73,11.73,0,0,0,2.94,1.55,1.41,1.41,0,0,0,1.16-.37l2.28-2.73a8.67,8.67,0,0,0-2.73-2.12A6.88,6.88,0,0,0,8.62,31.65Z"
                  fill="#000102"/>
            <path d="M7.29,41.94a.27.27,0,0,1-.12,0A.28.28,0,0,1,7,41.53l2.61-5.28a.3.3,0,0,1,.39-.13.28.28,0,0,1,.13.38L7.55,41.78A.29.29,0,0,1,7.29,41.94Z"
                  fill="#000102"/>
            <path d="M13.23,28.22a.87.87,0,0,0,1.17-.39.88.88,0,1,0-1.17.39Z" fill="#fff"/>
            <path d="M12.81,24.64a.46.46,0,1,0,.41-.83.45.45,0,0,0-.61.21A.46.46,0,0,0,12.81,24.64Z" fill="#fefeff"/>
        </g>
    </g>
</svg>