<svg xmlns="http://www.w3.org/2000/svg" viewBox="0 0 161.32 226.42"><g id="Layer_2" data-name="Layer 2"><g id="Layer_1-2" data-name="Layer 1"><path d="M160.31,219.05s.34,6.33-5.33,6.33H13.31a6.24,6.24,0,0,1-6.66-4.66s0-3.54-.07-9.67v-.45h6.09v5.5H153.12V26.76H123.48l-.27.09a16,16,0,0,0-3.28-5.8h34.38s6,2,6,6.33Z" fill="#a67c50"/><path d="M153.12,26.76V216.1H12.67v-5.5H141.45C141.54,149.32,149.9,88,150,26.76Z" fill="#fff"/><path d="M124.48,26.76H150c-.09,61.28-8.45,122.56-8.54,183.84H1c.05-35.4,2.86-70.79,5.24-106.19C8,78.53,9.51,52.64,9.54,26.76H45.18a16.07,16.07,0,0,0-.76,4.88c0,.25,0,.48,0,.73H123.9c0-.25,0-.48,0-.73a16.1,16.1,0,0,0-.73-4.79l.27-.09ZM22.8,143.49H58.87c.67-10.49,1.41-21,2.12-31.47q.88-12.72,1.67-25.44H16.46c-1.15,19-2.58,37.94-3.8,56.91ZM97.53,55.78A17.71,17.71,0,0,0,79.67,37.42,19.05,19.05,0,0,0,60.81,55.78,17.43,17.43,0,0,0,78.33,74.14,19.35,19.35,0,0,0,97.53,55.78Z" fill="#fff"/><path d="M123.94,31.64c0,.25,0,.48,0,.73H44.45c0-.25,0-.48,0-.73a16.09,16.09,0,0,1,16-16H76.14V6.47A5.48,5.48,0,0,1,81.63,1h5.11a5.45,5.45,0,0,1,5.45,5.47v9.12h15.7a16,16,0,0,1,16,16.05ZM87,7.69a2.8,2.8,0,1,0-2.8,2.8A2.8,2.8,0,0,0,87,7.69Z" fill="#b9bbbd"/><path d="M79.67,37.42A17.71,17.71,0,0,1,97.53,55.78a19.35,19.35,0,0,1-19.2,18.36A17.43,17.43,0,0,1,60.81,55.78,19.05,19.05,0,0,1,79.67,37.42Zm9.57,22.09q.15-3.72.28-7.46H83c.08-2.16.14-4.32.2-6.48H75.76c-.05,2.16-.12,4.32-.19,6.48H69.09c-.08,2.49-.18,5-.28,7.46h6.48c-.09,2.16-.18,4.33-.28,6.49h7.46c.1-2.16.2-4.33.28-6.49Z" fill="#27a7de"/><path d="M89.52,52.05q-.13,3.73-.28,7.46H82.75c-.08,2.16-.18,4.33-.28,6.49H75c.1-2.16.19-4.33.28-6.49H68.81c.1-2.48.2-5,.28-7.46h6.48c.07-2.16.14-4.32.19-6.48h7.47c-.06,2.16-.12,4.32-.2,6.48Z" fill="#eeefef"/><path d="M61,112c-.71,10.49-1.45,21-2.12,31.47H53.05v-.37c-.39-2.39.61-26.75.74-29.79a13.37,13.37,0,0,0,4.57-1.06.68.68,0,0,0,.11-.42Z" fill="#58dd9a"/><path d="M49,100.22c1.81-.29,4.38-.31,6.09,1.48,2.24,2.34,3.55,8.46,3.43,10.15a.68.68,0,0,1-.11.42,13.37,13.37,0,0,1-4.57,1.06c-.13,3-1.13,27.4-.74,29.79v.37H22.8c.53-3.11,1.8-19.52,1.81-19.52v-.06l-.6-.12c-4-.91-5.41-6.5-3.63-8.86a5,5,0,0,0,2.83,2.81c1.43.24,5.31-2.24,4.26-3.63h0a1,1,0,0,0-.29-.28,5.35,5.35,0,0,0-2.53-.77,24.73,24.73,0,0,1,1.91-4.58A26.33,26.33,0,0,1,29,104.72a13.67,13.67,0,0,1,4.91-4C40.19,97.71,47.57,99.79,49,100.22Z" fill="#f8bf8d"/><path d="M7.85,21.05A18.14,18.14,0,0,1,5.59,22.7c-.12,7.9,0,43.1.28,81.68l.38,0C8,78.53,9.52,52.64,9.55,26.76H45.19a16,16,0,0,1,3.25-5.71Z" fill="#a67c50"/><path d="M33.57,100l.34.72a13.67,13.67,0,0,0-4.91,4,26.33,26.33,0,0,0-2.44,3.76c-1.49.38-5.15.41-6-.76-1-1.41,3.06-8.33,5.56-9.41S33.57,100,33.57,100Z" fill="#f8bf8d"/><path d="M20.39,114.93a1,1,0,0,1,.44-1.32,8,8,0,0,1,3.82-.55,5.35,5.35,0,0,1,2.53.77,1,1,0,0,1,.29.28h0c1.05,1.39-2.83,3.87-4.26,3.63A5,5,0,0,1,20.39,114.93Z" fill="#a3642c"/><path d="M58.47,111.85c.12-1.69-1.19-7.81-3.43-10.15-1.71-1.79-4.28-1.77-6.09-1.48-1.38-.43-8.76-2.51-15,.53l-.34-.72s-4.93-2.81-7.43-1.72-6.55,8-5.56,9.41c.83,1.17,4.49,1.14,6,.76a24.73,24.73,0,0,0-1.91,4.58,8,8,0,0,0-3.82.55,1,1,0,0,0-.44,1.32c-1.78,2.36-.39,7.95,3.63,8.86l.6.12V124s-1.28,16.41-1.81,19.52H12.66c1.22-19,2.65-37.94,3.8-56.91h46.2Q61.9,99.3,61,112Z" fill="#58dd9a"/><path d="M45.11,28.17s70.38,1.88,72.5-.12-1.75-10-3.62-11c0,0,6.88,4,7.88,6s1.88,9.37,1.88,9.37H45" fill="#232533" opacity="0.15" style="isolation:isolate"/><path d="M149.48,26.05l3.5.5s-.25,62.5-2.25,90S148,199.8,148,207.8v8H13l.5-4.75s109.75-2.75,127.5-.25c0,0,1.25-39.75,1.5-51.5s4.25-71.25,4.75-78.5,2.5-50,2.5-50" fill="#232533" opacity="0.15" style="isolation:isolate"/><path d="M42.66,111.07A1.72,1.72,0,0,1,41,112.7a1.46,1.46,0,0,1-1.53-1.52,1.72,1.72,0,0,1,1.64-1.63A1.44,1.44,0,0,1,42.66,111.07Z"/><path d="M32.73,110.3a1.72,1.72,0,0,1-1.64,1.63,1.46,1.46,0,0,1-1.53-1.52,1.72,1.72,0,0,1,1.64-1.63A1.45,1.45,0,0,1,32.73,110.3Z"/><path d="M24.66,113.81a.83.83,0,0,1-.22,0,.75.75,0,0,1-.5-.94,26.52,26.52,0,0,1,4.47-8.59c6.72-8.6,18.48-5.46,20.77-4.75a.75.75,0,1,1-.45,1.43c-2.12-.66-13-3.58-19.14,4.24a24.81,24.81,0,0,0-4.22,8.1A.74.74,0,0,1,24.66,113.81Z"/><path d="M30.67,125.1a33.15,33.15,0,0,1-6.81-.59,6.36,6.36,0,0,1-4.48-4.24,6.32,6.32,0,0,1,.43-5.82.75.75,0,0,1,1.2.9,5,5,0,0,0-.21,4.4A4.88,4.88,0,0,0,24.2,123c4.52,1,15.2.66,17.36-1.47a.75.75,0,0,1,1,1.07C40.82,124.4,35.48,125.1,30.67,125.1Z"/><path d="M39.81,117.24a.69.69,0,0,1-.2,0c-.32-.08-6.92-1.68-12.24-2.36a.75.75,0,1,1,.19-1.49c2.86.37,6.08,1,8.29,1.46,4.71,1,4.71,1,4.71,1.66A.75.75,0,0,1,39.81,117.24Z"/><path d="M23.42,118.5l-.32,0a5.57,5.57,0,0,1-3.52-3.75,1.61,1.61,0,0,1,.92-1.79c1.59-.77,5.15-1,7.1.27a1.69,1.69,0,0,1,.66,2.15C27.68,116.82,25,118.5,23.42,118.5Zm.51-4.72a7,7,0,0,0-2.77.5c-.08,0-.12.06-.09.23A4.29,4.29,0,0,0,23.35,117a5.08,5.08,0,0,0,3.53-2.2c.07-.18.06-.23-.11-.35A5.43,5.43,0,0,0,23.93,113.78Z"/><path d="M24.22,109.46c-1.66,0-3.54-.3-4.25-1.31a2.71,2.71,0,0,1-.09-2.29c.72-2.55,3.68-7.26,6-8.24,2.69-1.18,8.26,1.67,8.63,2.13a.77.77,0,0,1,0,.92.8.8,0,0,1-.92.24.74.74,0,0,1-.25-.17c-.93-.54-5.17-2.5-6.88-1.75-1.42.61-3.89,4-4.91,6.62a3.21,3.21,0,0,0-.34,1.68c.48.67,3.58.86,5.17.45a.75.75,0,1,1,.37,1.45A10.47,10.47,0,0,1,24.22,109.46Z"/><path d="M52.6,114.12h-.35a4,4,0,0,1-2.91-1c-1.06-1.14-1.11-3.37-1.16-5.34a9.05,9.05,0,0,0-.21-2.32.75.75,0,1,1,1.14-1c.48.55.52,1.54.56,3.25,0,1.53.08,3.63.76,4.35,1,1.06,6.12.13,7.3-.38.09-1.31-1.07-7.29-3.23-9.54-1.46-1.53-4-1.81-7.24-.82a1.75,1.75,0,0,1-.27.07.75.75,0,0,1-.31-1.47l.14,0c4.87-1.48,7.45-.16,8.76,1.21,2.38,2.48,3.7,8.56,3.64,10.57a1.42,1.42,0,0,1-.36,1.06C58.27,113.38,55,114.12,52.6,114.12Z"/><path d="M141.45,211.6H1a1,1,0,0,1-.71-.29A1,1,0,0,1,0,210.6c.05-30.67,2.19-61.84,4.27-92S8.49,57.37,8.54,26.76a1,1,0,0,1,1-1H45.18a1,1,0,0,1,0,2H10.54c-.09,30.35-2.21,61.17-4.27,91S2.09,179.32,2,209.6H140.46c.09-30.35,2.21-61.17,4.27-91S148.91,58,149,27.76H123.49a1,1,0,0,1,0-2H150a1,1,0,0,1,.71.29,1,1,0,0,1,.29.71c-.05,30.67-2.19,61.84-4.27,92s-4.22,61.25-4.27,91.86A1,1,0,0,1,141.45,211.6Z"/><path d="M78.33,75.14A18.35,18.35,0,0,1,65,69.54a18.67,18.67,0,0,1-5.17-13.8A20.16,20.16,0,0,1,79.68,36.42,18.81,18.81,0,0,1,93.37,42.2a18.43,18.43,0,0,1,5.17,13.62,20.33,20.33,0,0,1-20.2,19.32Zm1.34-36.72a18.14,18.14,0,0,0-17.86,17.4,16.66,16.66,0,0,0,4.61,12.33,16.35,16.35,0,0,0,11.9,5h0a18.31,18.31,0,0,0,18.2-17.4,16.48,16.48,0,0,0-4.61-12.16A16.85,16.85,0,0,0,79.67,38.42Z"/><path d="M82.47,67H75a1,1,0,0,1-.72-.31,1,1,0,0,1-.28-.74c.09-1.81.17-3.62.24-5.44H68.81a1,1,0,0,1-.72-.31,1,1,0,0,1-.28-.73c.1-2.49.2-5,.28-7.46a1,1,0,0,1,1-1H74.6c.06-1.84.11-3.67.16-5.51a1,1,0,0,1,1-1h7.46a1,1,0,0,1,.72.3,1,1,0,0,1,.28.72c0,1.82-.1,3.64-.16,5.45h5.45a1,1,0,0,1,.72.3,1,1,0,0,1,.28.73c-.08,2.49-.18,5-.28,7.47a1,1,0,0,1-1,1H83.71c-.08,1.84-.16,3.69-.25,5.53A1,1,0,0,1,82.47,67Zm-6.41-2h5.46l.24-5.52a1,1,0,0,1,1-1h5.52c.07-1.82.14-3.64.2-5.46H83a1,1,0,0,1-.72-.3A1,1,0,0,1,82,52c.06-1.82.12-3.63.17-5.45H76.74c0,1.84-.11,3.68-.17,5.51a1,1,0,0,1-1,1H70.06c-.06,1.82-.13,3.64-.2,5.46H75.3a1,1,0,0,1,.72.31,1,1,0,0,1,.28.73Z"/><path d="M58.87,144.48H12.67a1,1,0,0,1-.73-.32,1,1,0,0,1-.27-.75q.8-12.4,1.67-24.81c.73-10.52,1.48-21.4,2.13-32.09a1,1,0,0,1,1-.94h46.2a1,1,0,0,1,.73.31,1,1,0,0,1,.27.75c-.65,10.71-1.4,21.59-2.13,32.11q-.85,12.41-1.67,24.8A1,1,0,0,1,58.87,144.48Zm-45.14-2h44.2q.76-11.94,1.61-23.87c.7-10.17,1.43-20.68,2.06-31H17.4c-.64,10.4-1.37,21-2.07,31.17C14.79,126.66,14.24,134.57,13.73,142.48Z"/><path d="M22.73,144.6l-.19,0a.75.75,0,0,1-.54-.91c.17-.68.62-4.48,1.77-18.69.11-1.41.11-1.41.4-1.61L25,124.6,24.6,124l.75.08c0,.06,0,.43-.08,1-.94,11.66-1.53,17.86-1.81,19A.76.76,0,0,1,22.73,144.6Z"/><path d="M53.06,143.87a.75.75,0,0,1-.74-.63c-.39-2.34.46-23.52.72-30a.74.74,0,0,1,.78-.72.76.76,0,0,1,.72.78c-.52,12.59-1,27.91-.74,29.66a.75.75,0,0,1-.62.86Z"/><path d="M138.06,91.32H69.67c.12-1.88.23-3.77.35-5.65h68.39C138.3,87.55,138.18,89.44,138.06,91.32Z" fill="#27a7de"/><path d="M133.73,157.07H10.07l.33-5.65H134.06Z" fill="#27a7de"/><path d="M133.37,163.59H9.71l.18-3.37H133.55Z" fill="#232533"/><path d="M133,171.31H9.33c.05-1.12.11-2.25.16-3.37H133.15C133.09,169.06,133,170.19,133,171.31Z" fill="#232533"/><path d="M132.65,179H9c0-1.12.09-2.25.14-3.37H132.79C132.74,176.78,132.7,177.91,132.65,179Z" fill="#232533"/><path d="M70.66,183.38H8.83c0,1.12-.08,2.25-.11,3.37H70.55C70.58,185.63,70.62,184.5,70.66,183.38Z" fill="#232533"/><path d="M137.46,100.62H69.07c.13-1.88.25-3.77.37-5.65h68.39C137.71,96.85,137.58,98.74,137.46,100.62Z" fill="#27a7de"/><path d="M137,107H68.64c.06-.91.12-1.82.19-2.74h68.39C137.15,105.18,137.09,106.1,137,107Z" fill="#232533"/><path d="M136.56,113.94H68.17c.06-.91.13-1.82.19-2.74h68.39C136.68,112.11,136.62,113,136.56,113.94Z" fill="#232533"/><path d="M136.19,120.46H67.8c.06-.91.13-1.82.19-2.74h68.39C136.31,118.63,136.25,119.55,136.19,120.46Z" fill="#232533"/><path d="M102.23,127.8h-35c.06-.91.12-1.82.19-2.74h35C102.35,126,102.29,126.89,102.23,127.8Z" fill="#232533"/><path d="M153.12,217.1H12.67a1,1,0,0,1-1-1v-4.38a1,1,0,0,1,2,0v3.38H152.12V27.76H124.48a1,1,0,0,1,0-2h28.64a1,1,0,0,1,1,1V216.1A1,1,0,0,1,153.12,217.1Z"/><path d="M123.9,33.37H44.46a1,1,0,0,1-1-.94c0-.29,0-.53,0-.79a17.07,17.07,0,0,1,17-17H75.15V6.47A6.48,6.48,0,0,1,81.63,0h5.11A6.47,6.47,0,0,1,93.2,6.47v8.12h14.7a17.07,17.07,0,0,1,17,17.05,5.25,5.25,0,0,1,0,.56l0,.23A1,1,0,0,1,123.9,33.37Zm-78.47-2h77.51a15.07,15.07,0,0,0-15-14.78H92.19a1,1,0,0,1-1-1V6.47A4.47,4.47,0,0,0,86.73,2H81.62a4.49,4.49,0,0,0-4.49,4.47v9.12a1,1,0,0,1-1,1H60.48A15.07,15.07,0,0,0,45.43,31.37Z"/><path d="M84.19,11.48A3.8,3.8,0,1,1,88,7.68,3.8,3.8,0,0,1,84.19,11.48Zm0-5.59A1.8,1.8,0,1,0,86,7.69,1.81,1.81,0,0,0,84.19,5.89Z"/><path d="M12.69,226.42a7.23,7.23,0,0,1-7-5.4,1.35,1.35,0,0,1-.05-.29s0-3.54-.07-9.67a1,1,0,0,1,1-1h0a1,1,0,0,1,1,1c0,5.39.06,8.78.07,9.52a5.17,5.17,0,0,0,5.53,3.83H155a3.9,3.9,0,0,0,3-1.13,6.5,6.5,0,0,0,1.34-4.15V27.38c0-3.22-4.33-5-5.18-5.33h-34.2a1,1,0,0,1,0-2h34.38a1.19,1.19,0,0,1,.32.05c.27.09,6.68,2.29,6.68,7.28V219.05a8.31,8.31,0,0,1-1.88,5.58,5.87,5.87,0,0,1-4.45,1.75H13.38C13.17,226.4,12.94,226.42,12.69,226.42Z"/><path d="M5.86,105.38a1,1,0,0,1-1-1C4.6,60.45,4.5,34.5,4.56,25.05c0-4.89,4.62-5,6.15-5H48.43a1,1,0,0,1,0,2H10.73c-3.51.06-4.19,1.14-4.17,3-.06,9.46,0,35.41.3,79.34a1,1,0,0,1-1,1Z"/></g></g></svg>