<svg xmlns="http://www.w3.org/2000/svg" viewBox="0 0 35.26 35.26"><g id="Layer_2" data-name="Layer 2"><g id="Layer_1-2" data-name="Layer 1"><circle cx="17.63" cy="17.63" r="17.63" fill="#d7d5ff"/><path d="M17.44,6.29a44.69,44.69,0,0,1-6.15,2.77,1.49,1.49,0,0,1-2-.67h0a1.49,1.49,0,0,1,.83-1.93,43.88,43.88,0,0,1,6.15-2.77,1.5,1.5,0,0,1,2,.67h0A1.49,1.49,0,0,1,17.44,6.29Z" fill="#fff" stroke="#000" stroke-miterlimit="10" stroke-width="0.3"/><rect x="13.42" y="6.6" width="2.34" height="2.9" rx="1.17" transform="translate(-1.99 6.41) rotate(-23.26)" fill="#fff" stroke="#000" stroke-miterlimit="10" stroke-width="0.3"/><path d="M24.44,25.38A15.62,15.62,0,0,1,20,27.2a2.77,2.77,0,0,1-3.64-1.44L11.3,14a3.64,3.64,0,0,1,1.89-4.78L16,8a3.62,3.62,0,0,1,4.78,1.89l5.09,11.75A2.84,2.84,0,0,1,24.44,25.38Z" fill="#fff" stroke="#000" stroke-miterlimit="10" stroke-width="0.3"/><path d="M23.69,24.67A16.66,16.66,0,0,1,20,26.19a2.1,2.1,0,0,1-2.83-.73l-3.28-7.59c-.52-1.19.3-2.69,1.84-3.35l2.31-1c1.53-.66,3.19-.23,3.71,1l3.28,7.59A2.12,2.12,0,0,1,23.69,24.67Z" fill="#d7d5ff" stroke="#000" stroke-miterlimit="10" stroke-width="0.3"/><path d="M19.64,26.32s.73-1.79,4.49-1.79l.29,2.67a1,1,0,0,1-.21.73,3.14,3.14,0,0,1-2.29,1,.91.91,0,0,1-.84-.41Z" fill="#fff" stroke="#000" stroke-miterlimit="10" stroke-width="0.3"/><line x1="22.7" y1="27.99" x2="24.4" y2="31.71" fill="none" stroke="#000" stroke-linecap="round" stroke-miterlimit="10" stroke-width="0.3"/><circle cx="12.84" cy="12.16" r="0.9"/><circle cx="19.15" cy="10.29" r="0.9"/><path d="M14.86,12.05a1.46,1.46,0,0,0,2.79-.45" fill="none" stroke="#000" stroke-linecap="round" stroke-miterlimit="10" stroke-width="0.3"/><circle cx="19.65" cy="23.27" r="0.56" fill="#fff"/><circle cx="17.95" cy="22.46" r="0.33" fill="#fff"/><path d="M25.85,21.81,20.76,10.06A3.62,3.62,0,0,0,17.2,7.88a3.7,3.7,0,0,1,2.08,2.05l5.09,12.26c.61,1.46-.49,1.8-1.58,2.46-.06.05.29,1.42.22,1.46l.17,1.76c0,.28-.28.65-.45.86a3.19,3.19,0,0,1-.26.26,2.78,2.78,0,0,0,1.74-.91,1,1,0,0,0,.21-.73l-.18-1.71.2-.11A2.85,2.85,0,0,0,25.85,21.81Z" opacity="0.07"/></g></g></svg>