<svg width="24" height="24" viewBox="0 0 24 24" fill="none" xmlns="http://www.w3.org/2000/svg">
    <path d="M24 7.5C24 6.6 23.4 6 22.5 6H1.5C0.6 6 0 6.6 0 7.5V16.5C0 17.4 0.6 18 1.5 18H22.5C23.4 18 24 17.4 24 16.5V7.5ZM22.5 16.5H1.5V7.5H22.5V16.5Z"
          fill="#FBAB9C"/>
    <path d="M9 12C9 12.3978 8.84196 12.7794 8.56066 13.0607C8.27936 13.342 7.89782 13.5 7.5 13.5C7.10218 13.5 6.72064 13.342 6.43934 13.0607C6.15804 12.7794 6 12.3978 6 12C6 11.6022 6.15804 11.2206 6.43934 10.9393C6.72064 10.658 7.10218 10.5 7.5 10.5C7.89782 10.5 8.27936 10.658 8.56066 10.9393C8.84196 11.2206 9 11.6022 9 12Z"
          fill="#FBAB9C"/>
    <path d="M13.5 12C13.5 12.3978 13.342 12.7794 13.0607 13.0607C12.7794 13.342 12.3978 13.5 12 13.5C11.6022 13.5 11.2206 13.342 10.9393 13.0607C10.658 12.7794 10.5 12.3978 10.5 12C10.5 11.6022 10.658 11.2206 10.9393 10.9393C11.2206 10.658 11.6022 10.5 12 10.5C12.3978 10.5 12.7794 10.658 13.0607 10.9393C13.342 11.2206 13.5 11.6022 13.5 12Z"
          fill="#FBAB9C"/>
    <path d="M18 12C18 12.3978 17.842 12.7794 17.5607 13.0607C17.2794 13.342 16.8978 13.5 16.5 13.5C16.1022 13.5 15.7206 13.342 15.4393 13.0607C15.158 12.7794 15 12.3978 15 12C15 11.6022 15.158 11.2206 15.4393 10.9393C15.7206 10.658 16.1022 10.5 16.5 10.5C16.8978 10.5 17.2794 10.658 17.5607 10.9393C17.842 11.2206 18 11.6022 18 12Z"
          fill="#FBAB9C"/>
</svg>
