<svg width="183" height="106" viewBox="0 0 183 106" fill="none" xmlns="http://www.w3.org/2000/svg">
<path opacity="0.1" d="M110.909 18.5413L68.157 70.0189C66.8133 71.6354 65.9089 73.5709 65.5311 75.6387C65.1532 77.7064 65.3148 79.8367 66.0001 81.8239C66.6853 83.811 67.8713 85.588 69.4434 86.9834C71.0154 88.3787 72.9207 89.3453 74.9751 89.7899L144.348 104.785C146.518 105.256 148.775 105.127 150.877 104.412C152.979 103.698 154.847 102.424 156.28 100.729C157.714 99.0331 158.658 96.9794 159.013 94.7877C159.368 92.5961 159.12 90.3492 158.294 88.288L131.697 21.8073C130.912 19.8347 129.626 18.1006 127.967 16.7757C126.307 15.4508 124.332 14.5808 122.234 14.2512C120.136 13.9217 117.989 14.1439 116.003 14.8962C114.018 15.6484 112.262 16.9046 110.909 18.5413Z" fill="#263238"/>
<path opacity="0.1" d="M15.7417 25.7569L0.849877 65.8948C0.40389 67.1202 0.275427 68.4387 0.476456 69.7271C0.677486 71.0156 1.20146 72.2322 1.99955 73.2635C2.79764 74.2949 3.84386 75.1073 5.04068 75.6252C6.2375 76.1431 7.54596 76.3496 8.84409 76.2253L52.3354 71.958C53.7194 71.8229 55.0412 71.3166 56.1614 70.4926C57.2816 69.6686 58.1585 68.5576 58.6997 67.2766C59.2409 65.9957 59.4262 64.5924 59.2362 63.2149C59.0461 61.8374 58.4877 60.5367 57.6199 59.4502L29.0124 23.6113C28.1577 22.5446 27.0353 21.7237 25.7597 21.2326C24.4841 20.7415 23.101 20.5977 21.7516 20.8158C20.4023 21.034 19.1349 21.6063 18.0791 22.4744C17.0232 23.3425 16.2166 24.4752 15.7417 25.7569Z" fill="#263238"/>
<path d="M125.658 5.58044L85.6871 63.5901C84.4387 65.4021 83.6762 67.5041 83.4725 69.695C83.2689 71.8859 83.6309 74.0925 84.524 76.1035C85.417 78.1145 86.8113 79.8626 88.5732 81.1806C90.3352 82.4987 92.4059 83.3425 94.5872 83.6313L168.061 93.4134C170.372 93.7212 172.723 93.395 174.862 92.4696C177.002 91.5443 178.85 90.0546 180.208 88.1601C181.566 86.2655 182.384 84.0373 182.573 81.7139C182.763 79.3904 182.317 77.0592 181.284 74.9696L147.781 7.15385C146.787 5.14483 145.285 3.43069 143.423 2.18149C141.562 0.932285 139.406 0.191425 137.17 0.0323979C134.934 -0.126629 132.696 0.301713 130.676 1.27492C128.657 2.24812 126.927 3.73237 125.658 5.58044Z" fill="#CCA43B"/>
<path d="M96.3275 78.4503C95.0005 78.2698 93.7388 77.764 92.6545 76.9779C91.5703 76.1918 90.6974 75.1498 90.1133 73.9446C89.5112 72.8054 89.2281 71.5246 89.2938 70.2378C89.3596 68.9509 89.7718 67.7057 90.4868 66.6338L130.561 8.4493C131.286 7.41141 132.288 6.59856 133.453 6.10386C134.618 5.60916 135.899 5.4526 137.149 5.65211C138.476 5.8312 139.739 6.33646 140.823 7.12274C141.908 7.90901 142.78 8.95178 143.363 10.1578L176.929 78.1404C177.531 79.2796 177.814 80.5603 177.749 81.8472C177.683 83.134 177.271 84.3792 176.556 85.4512C175.833 86.4912 174.831 87.3062 173.666 87.8024C172.5 88.2986 171.219 88.4559 169.968 88.2563L96.3275 78.4503Z" fill="white"/>
<path d="M133.74 26.2179L138.42 26.8377C139.884 27.0441 141.22 27.7819 142.174 28.9104C143.128 30.039 143.633 31.4792 143.593 32.9565L143.276 39.0594C143.268 39.2807 143.244 39.5012 143.204 39.719L139.875 58.1152C139.636 59.3831 138.912 60.5078 137.857 61.25C136.802 61.9921 135.498 62.2929 134.225 62.0885C132.873 61.8963 131.625 61.2522 130.686 60.2609C129.747 59.2696 129.171 57.9896 129.051 56.6292L127.708 37.6211C127.693 37.4015 127.693 37.1811 127.708 36.9616L128.018 30.8507C128.052 30.1565 128.232 29.4772 128.546 28.8572C128.86 28.2373 129.302 27.6908 129.842 27.2534C130.382 26.8161 131.009 26.4977 131.68 26.3193C132.352 26.1408 133.054 26.1062 133.74 26.2179ZM133.366 67.1902L134.638 67.357C135.947 67.5419 137.143 68.202 137.998 69.2117C138.852 70.2214 139.305 71.51 139.271 72.8322C139.243 73.4557 139.083 74.0662 138.803 74.6237C138.522 75.1812 138.127 75.673 137.643 76.067C137.159 76.461 136.597 76.7481 135.994 76.9096C135.391 77.0712 134.761 77.1034 134.145 77.0041L132.874 76.8293C131.565 76.6462 130.369 75.9877 129.514 74.9793C128.66 73.971 128.207 72.6834 128.241 71.3621C128.267 70.7382 128.426 70.127 128.706 69.5689C128.986 69.0108 129.382 68.5184 129.866 68.1242C130.35 67.7299 130.913 67.4429 131.516 67.2819C132.119 67.1209 132.75 67.0896 133.366 67.1902Z" fill="#CCA43B"/>
<path d="M31.1103 14.4489L20.1362 56.0649C19.8052 57.3295 19.8006 58.6573 20.1228 59.9242C20.4449 61.191 21.0834 62.3554 21.9782 63.3082C22.8731 64.2611 23.9952 64.9712 25.2393 65.3722C26.4835 65.7731 27.8091 65.8518 29.0919 65.6007L71.6614 57.2966C73.0121 57.0272 74.2661 56.4016 75.2937 55.4845C76.3212 54.5675 77.0849 53.3924 77.5055 52.081C77.9262 50.7695 77.9886 49.3695 77.6862 48.0259C77.3838 46.6822 76.7276 45.4439 75.7857 44.4391L44.2221 11.1034C43.2754 10.0975 42.0766 9.36354 40.7502 8.97788C39.4238 8.59222 38.0183 8.56893 36.6799 8.91044C35.3414 9.25194 34.1189 9.94578 33.1394 10.9198C32.16 11.8938 31.4593 13.1124 31.1103 14.4489Z" fill="#CCA43B"/>
<path d="M39.6847 24.5173L42.3945 23.9848C43.2694 23.8437 44.1656 24.0309 44.9108 24.5106C45.656 24.9903 46.1975 25.7285 46.4313 26.5834L47.4008 30.2149C47.4375 30.3483 47.4667 30.4836 47.4882 30.6202L49.2126 42.0553C49.347 42.8251 49.1719 43.6169 48.7254 44.2583C48.279 44.8998 47.5972 45.3389 46.8286 45.4802C46.0226 45.614 45.1951 45.4678 44.4838 45.0659C43.7724 44.664 43.2202 44.0305 42.9189 43.2711L38.5166 32.4002C38.4631 32.2735 38.418 32.1434 38.3815 32.0108L37.3802 28.3713C37.25 27.9668 37.2076 27.5391 37.2559 27.1168C37.3041 26.6945 37.4419 26.2874 37.66 25.9226C37.8781 25.5579 38.1715 25.2438 38.5207 25.0015C38.8698 24.7591 39.2667 24.594 39.6847 24.5173ZM47.3531 48.5794L48.0921 48.4363C48.8758 48.3006 49.6819 48.4636 50.3513 48.8932C51.0207 49.3228 51.5047 49.9877 51.7078 50.7567C51.8198 51.1148 51.855 51.4925 51.8113 51.8652C51.7675 52.2379 51.6456 52.5971 51.4537 52.9195C51.2617 53.2419 51.004 53.5202 50.6973 53.7363C50.3905 53.9525 50.0417 54.1015 49.6735 54.1737L48.9344 54.3168C48.1518 54.4528 47.3466 54.2909 46.6774 53.8629C46.0082 53.4349 45.5235 52.7719 45.3188 52.0043C45.2068 51.6457 45.1715 51.2675 45.2152 50.8944C45.2589 50.5212 45.3807 50.1614 45.5725 49.8384C45.7644 49.5154 46.0221 49.2364 46.3289 49.0194C46.6356 48.8025 46.9846 48.6526 47.3531 48.5794Z" fill="white"/>
</svg>
