<svg width="152" height="144" viewBox="0 0 152 144" fill="none" xmlns="http://www.w3.org/2000/svg">
<path d="M114 101.966C114 101.966 132.19 79.3835 143.378 83.5019C155.253 87.8262 149.624 113.223 118.256 122.833" fill="#F4C698"/>
<path d="M120.9 121.925C121.038 121.925 121.243 121.925 121.381 121.857C143.071 115.198 151.033 102.157 151.308 92.9591C151.445 87.1247 148.562 82.3885 143.689 80.6039C131.677 76.2109 114.311 97.1461 112.389 99.5485C111.771 100.304 111.908 101.333 112.663 101.951C113.418 102.569 114.448 102.431 115.066 101.676C119.939 95.636 134.285 80.7411 142.522 83.7613C146.023 85.0655 148.013 88.4288 147.876 92.7531C147.67 101.402 139.09 112.727 120.42 118.493C119.527 118.768 118.978 119.729 119.253 120.621C119.527 121.445 120.214 121.925 120.9 121.925Z" fill="black"/>
<path d="M135.864 101.743C133.173 101.743 130.991 99.5616 130.991 96.87C130.991 94.1785 133.173 91.9966 135.864 91.9966C138.556 91.9966 140.738 94.1785 140.738 96.87C140.738 99.5616 138.556 101.743 135.864 101.743Z" fill="#5B4B3B"/>
<path d="M135.178 90.3503C134.079 90.3503 133.187 89.4591 133.187 88.3597C133.187 87.2604 134.079 86.3691 135.178 86.3691C136.277 86.3691 137.168 87.2604 137.168 88.3597C137.168 89.4591 136.277 90.3503 135.178 90.3503Z" fill="#5B4B3B"/>
<path d="M83.1688 86.8004C79.9588 86.8704 77.1388 85.9505 74.7788 84.6405L74.6488 85.1605C74.6488 85.1605 70.5888 107.961 85.1288 106.781C95.4788 105.931 90.1788 84.9606 90.1788 84.9606V84.7604C88.7388 85.8704 86.7688 86.5904 84.0888 86.7904C83.7588 86.8004 83.4288 86.8004 83.1688 86.8004ZM31.8588 17.7306C51.8388 4.89058 77.5288 4.76051 97.5788 17.4005C100.659 16.7405 108.059 15.7604 114.619 19.5604C123.139 24.4704 130.219 48.2606 123.009 50.2306C120.389 50.9506 117.239 49.5104 114.159 47.0204C117.629 52.5204 127.069 70.8704 113.239 90.7904L113.369 90.8607C113.369 90.8607 117.499 94.0105 115.529 99.1205L115.859 99.2504C115.859 99.2504 126.479 108.42 126.209 120.35C126.079 125.26 124.569 129.98 122.149 133.65H99.5388H28.7688H6.1588C3.7388 129.98 2.2288 125.26 2.0988 120.35C1.7688 108.42 12.4488 99.2504 12.4488 99.2504L12.7788 99.1205C10.8088 94.0705 14.9388 90.8607 14.9388 90.8607L15.0688 90.7904C1.23883 70.8704 10.6788 52.5204 14.1488 47.0204C11.0688 49.5104 7.91881 50.9506 5.29881 50.2306C-1.91119 48.2606 5.16883 24.5404 13.6888 19.5604C21.5688 14.8504 31.0688 17.5406 31.8588 17.7306Z" fill="#F4C698"/>
<path d="M6.03857 133.66H28.6486C28.6486 136.94 27.0786 139.69 22.9486 141C16.2586 143.09 9.96857 139.62 6.03857 133.66Z" fill="#00AEEF"/>
<path d="M93.9786 58.75C87.8186 50.69 67.1786 46.3601 64.3586 45.5801C64.3586 45.5801 40.6386 50.63 34.4086 58.75C27.7286 67.4 35.0686 87.3202 45.0286 86.9902C45.0286 86.9902 47.0586 93.4103 63.5086 93.8003C63.7087 93.8003 63.9686 93.8003 64.1686 93.8003C64.3686 93.8003 64.6286 93.8003 64.8186 93.8003C81.1986 93.4703 83.2986 86.9902 83.2986 86.9902C93.3286 87.3202 100.659 67.4 93.9786 58.75Z" fill="#5B4B3B"/>
<path d="M83.1685 86.8C83.4285 86.8 83.7585 86.8002 84.0185 86.7302C86.7085 86.5302 88.6685 85.8102 90.1085 84.7002V84.9001C90.1085 84.9001 95.4185 105.87 85.0585 106.72C70.5085 107.9 74.5785 85.1001 74.5785 85.1001L74.7085 84.5801C77.1385 86.0101 79.8885 86.87 83.1685 86.8Z" fill="#FFA6CF"/>
<path d="M28.8384 17.0798C28.8384 17.0798 30.8084 17.4099 30.2784 17.8699C29.7584 18.3299 29.4885 24.75 26.9985 30.98C24.5085 37.21 9.95849 55.2299 3.07849 49.8499C-3.80151 44.4799 7.66848 18.9199 18.9385 16.6299" fill="#5B4B3B"/>
<path d="M99.2888 17.0798C99.2888 17.0798 97.3188 17.4099 97.8488 17.8699C98.3788 18.3299 98.6389 24.75 101.129 30.98C103.619 37.21 118.169 55.2299 125.049 49.8499C131.929 44.4799 120.459 18.9199 109.189 16.6299" fill="#5B4B3B"/>
<path d="M27.3389 30.5098C27.3389 30.5098 25.899 48.0099 10.959 54.6199L13.709 47.2798" fill="#B58054"/>
<path d="M21.7686 116.81C21.7686 116.81 32.7785 120.61 36.3185 131.88H28.1285" fill="#B58054"/>
<path opacity="0.45" d="M34.9985 82.6101C34.9985 82.6101 35.5285 87.85 44.4985 90.02C53.4785 92.18 62.5185 82.8101 64.2885 75.6001C64.2885 75.6001 56.8885 86.5402 48.6885 86.7402C40.4985 86.9402 38.3385 84.4502 38.3385 84.4502" fill="#231F20"/>
<path d="M100.989 30.5098C100.989 30.5098 102.429 48.0099 117.369 54.6199L114.619 47.2798" fill="#B58054"/>
<path opacity="0.45" d="M93.3188 82.6101C93.3188 82.6101 92.7988 87.85 83.8188 90.02C74.8388 92.18 65.7988 82.8101 64.0288 75.6001C64.0288 75.6001 71.4288 86.5402 79.6288 86.7402C87.8188 86.9402 89.9788 84.4502 89.9788 84.4502" fill="#231F20"/>
<path d="M65.4788 118.98C82.7788 118.46 90.7088 111.58 90.7088 111.58L84.8788 112.5L64.4988 116.17L44.0488 112.5L38.2188 111.58C38.2188 111.58 46.1488 118.46 63.4488 118.98C63.7788 118.98 64.0988 118.98 64.4288 118.98C64.8188 118.98 65.1488 118.98 65.4788 118.98Z" fill="#B58054"/>
<path opacity="0.45" d="M37.1685 69.1099C37.1685 69.1099 35.6585 82.3499 44.7085 82.6699C53.7485 82.9999 61.9485 73.63 63.3885 68.71C63.3885 68.71 64.3685 71.7899 63.7185 74.1499C63.0585 76.5699 53.8885 90.8599 41.7685 86.1399C29.6485 81.4199 35.7385 71.0698 35.7385 71.0698" fill="#231F20"/>
<path opacity="0.45" d="M91.5588 69.1099C91.5588 69.1099 93.0688 82.3499 84.0188 82.6699C74.9788 82.9999 66.7888 73.63 65.3388 68.71C65.3388 68.71 64.3588 71.7899 65.0088 74.1499C65.6588 76.5699 74.8388 90.8599 86.9588 86.1399C99.0788 81.4199 92.9888 71.0698 92.9888 71.0698" fill="#231F20"/>
<path opacity="0.35" d="M23 142.992C23 142.992 31.2502 143.612 36 134H29.7528" fill="#414042"/>
<path d="M14.4287 89.1602C14.4287 89.1602 25.1788 117.6 71.3088 124.09C90.6388 126.84 102.439 124.68 102.439 124.68C102.439 124.68 102.569 130.25 95.0987 132.54C87.6287 134.83 29.6988 132.41 29.6988 132.41C29.6988 132.41 23.1487 120.55 19.2187 117.14C15.2887 113.73 6.43875 106.72 7.42875 105.08C8.40875 103.44 12.9988 98.2002 12.9988 98.2002" fill="#D69D72"/>
<path opacity="0.55" d="M75.4985 13.02C75.4985 13.02 87.1585 14.85 95.9485 21.01" stroke="white" stroke-width="1.9659" stroke-miterlimit="10" stroke-linecap="round" stroke-linejoin="round"/>
<path opacity="0.55" d="M122.089 41.1904C122.289 42.1704 122.479 43.1604 122.619 44.2004" stroke="white" stroke-width="1.9659" stroke-miterlimit="10" stroke-linecap="round" stroke-linejoin="round"/>
<path opacity="0.55" d="M114.159 23.5601C114.159 23.5601 118.749 29.4601 121.239 37.8501" stroke="white" stroke-width="1.9659" stroke-miterlimit="10" stroke-linecap="round" stroke-linejoin="round"/>
<path d="M12.2687 99.1899C12.2687 99.1899 1.64864 108.36 1.91864 120.29C2.24864 133.2 12.0787 144.41 22.8887 140.93C33.6987 137.52 27.0186 124.22 20.7886 117.99" fill="#D69D72"/>
<path d="M12.2687 99.1899C12.2687 99.1899 1.64864 108.36 1.91864 120.29C2.24864 133.2 12.0787 144.41 22.8887 140.93C33.6987 137.52 27.0186 124.22 20.7886 117.99" stroke="black" stroke-width="3.2765" stroke-miterlimit="10" stroke-linecap="round" stroke-linejoin="round"/>
<path d="M34.6785 49.5801C36.8485 49.5801 38.6085 47.8201 38.6085 45.6501C38.6085 43.4801 36.8485 41.7202 34.6785 41.7202C32.5085 41.7202 30.7485 43.4801 30.7485 45.6501C30.7485 47.8201 32.4985 49.5801 34.6785 49.5801Z" fill="black"/>
<path d="M73.6688 52.27C73.6688 55.09 69.4088 60.5901 64.0988 60.5901C58.7888 60.5901 54.5288 55.15 54.5288 52.27C54.5288 49.45 58.7888 49.1201 64.0988 49.1201C69.4088 49.1201 73.6688 49.45 73.6688 52.27Z" fill="black"/>
<path d="M101.059 19.7C79.5685 4.1 50.4685 4.1 28.9785 19.7" stroke="black" stroke-width="3.2765" stroke-miterlimit="10" stroke-linecap="round" stroke-linejoin="round"/>
<path d="M90.8989 54.9505C75.4389 43.7405 54.5989 43.7405 39.1289 54.9505" stroke="black" stroke-width="3.2765" stroke-miterlimit="10" stroke-linecap="round" stroke-linejoin="round"/>
<path d="M90.8989 110.52C75.4389 115.89 54.5989 115.89 39.1289 110.52" stroke="black" stroke-width="3.2765" stroke-miterlimit="10" stroke-linecap="round" stroke-linejoin="round"/>
<path d="M31.9188 17.7306C31.9188 17.7306 21.8888 14.5803 13.3688 19.5003C4.84879 24.4103 -2.23122 48.2005 4.97878 50.1705C12.1888 52.1405 23.3288 37.7205 25.8188 30.6405" stroke="black" stroke-width="3.2765" stroke-miterlimit="10" stroke-linecap="round" stroke-linejoin="round"/>
<path d="M16.1986 92.6296C0.408589 71.9896 10.2986 52.66 13.9086 46.96" stroke="black" stroke-width="3.2765" stroke-miterlimit="10" stroke-linecap="round" stroke-linejoin="round"/>
<path d="M14.7587 90.8003C14.7587 90.8003 9.83875 94.6 13.3187 100.5" stroke="black" stroke-width="3.2765" stroke-miterlimit="10" stroke-linecap="round" stroke-linejoin="round"/>
<path d="M95.1585 49.5801C97.3285 49.5801 99.0885 47.8201 99.0885 45.6501C99.0885 43.4801 97.3285 41.7202 95.1585 41.7202C92.9885 41.7202 91.2285 43.4801 91.2285 45.6501C91.2285 47.8201 92.9885 49.5801 95.1585 49.5801Z" fill="black"/>
<path d="M102.239 30.7104C103.809 35.1704 108.859 42.6404 114.169 46.9604C117.249 49.4504 120.399 50.8904 123.019 50.1704C130.229 48.2004 123.149 24.4802 114.629 19.5002C108.079 15.7002 100.669 16.6803 97.5889 17.3403" stroke="black" stroke-width="3.2765" stroke-miterlimit="10" stroke-linecap="round" stroke-linejoin="round"/>
<path d="M111.869 92.6296C127.659 72.0496 117.769 52.66 114.159 46.96" stroke="black" stroke-width="3.2765" stroke-miterlimit="10" stroke-linecap="round" stroke-linejoin="round"/>
<path d="M113.379 90.8003C113.379 90.8003 118.289 94.6 114.819 100.5" stroke="black" stroke-width="3.2765" stroke-miterlimit="10" stroke-linecap="round" stroke-linejoin="round"/>
<path d="M35.9889 69.1104C35.9889 69.1104 30.7489 85.9503 44.7089 86.8003C57.1589 87.5903 63.1889 75.0002 64.3689 72.2502" stroke="black" stroke-width="3.2765" stroke-miterlimit="10" stroke-linecap="round" stroke-linejoin="round"/>
<path d="M92.799 69.1104C92.799 69.1104 98.039 85.9503 84.079 86.8003C71.629 87.5903 65.5989 75.0002 64.4189 72.2502" stroke="black" stroke-width="3.2765" stroke-miterlimit="10" stroke-linecap="round" stroke-linejoin="round"/>
<path d="M64.2988 71.4001V60.52" stroke="black" stroke-width="3.2765" stroke-miterlimit="10" stroke-linecap="round" stroke-linejoin="round"/>
<path d="M74.6488 85.1599C74.6488 85.1599 70.5888 107.96 85.1288 106.78C95.4788 105.93 90.1788 84.96 90.1788 84.96" stroke="black" stroke-width="3.2765" stroke-miterlimit="10" stroke-linecap="round" stroke-linejoin="round"/>
<path d="M83.1689 86.7998C83.1689 86.7998 83.699 96.2999 83.959 99.1199" stroke="black" stroke-width="2.6212" stroke-miterlimit="10" stroke-linecap="round" stroke-linejoin="round"/>
<path d="M43.9189 32.8701C43.9189 32.8701 51.389 28.2801 64.299 34.3801" stroke="black" stroke-width="2.5149" stroke-miterlimit="10" stroke-linecap="round" stroke-linejoin="round"/>
<path d="M84.6085 32.8701C84.6085 32.8701 77.1385 28.2801 64.2285 34.3801" stroke="black" stroke-width="2.5149" stroke-miterlimit="10" stroke-linecap="round" stroke-linejoin="round"/>
<path d="M48.1787 24.4205C48.1787 24.4205 54.0787 20.8204 64.2287 25.6004" stroke="black" stroke-width="2.5149" stroke-miterlimit="10" stroke-linecap="round" stroke-linejoin="round"/>
<path d="M80.3488 24.4205C80.3488 24.4205 74.4488 20.8204 64.2988 25.6004" stroke="black" stroke-width="2.5149" stroke-miterlimit="10" stroke-linecap="round" stroke-linejoin="round"/>
<path d="M64.1588 51.8103C65.9988 51.8103 67.4988 51.4603 67.4988 51.0203C67.4988 50.5903 65.9988 50.2305 64.1588 50.2305C62.3088 50.2305 60.8188 50.5803 60.8188 51.0203C60.8188 51.4603 62.3188 51.8103 64.1588 51.8103Z" fill="white"/>
<path d="M126 116.5C127 119.667 127.2 128.3 122 133.5" stroke="black" stroke-width="3"/>
<path d="M110.396 65.4165L103.794 70.9594L113.493 82.5132L120.096 76.9703L110.396 65.4165Z" fill="#F0F0F0" stroke="#45413C" stroke-width="4" stroke-linecap="round" stroke-linejoin="round"/>
<path d="M138.126 105.462L138.442 105.197C139.709 104.125 140.502 102.595 140.646 100.942C140.79 99.2878 140.275 97.6439 139.212 96.3682L121.68 75.5014C121.322 75.079 120.812 74.8149 120.26 74.7668C119.708 74.7187 119.16 74.8904 118.735 75.2445L112.017 80.8812C111.595 81.2385 111.331 81.7482 111.283 82.2993C111.235 82.8504 111.407 83.3981 111.761 83.8232L129.286 104.691C129.814 105.324 130.462 105.847 131.193 106.229C131.924 106.61 132.724 106.844 133.545 106.916C134.367 106.987 135.195 106.896 135.981 106.646C136.767 106.397 137.496 105.994 138.126 105.462Z" fill="#BF8256"/>
<path d="M138.51 105.512L138.67 105.374L115.385 78.3144L112.008 81.0838C111.58 81.4372 111.314 81.942 111.266 82.4882C111.219 83.0344 111.394 83.5777 111.754 83.9998L129.548 104.73C130.085 105.359 130.743 105.878 131.485 106.258C132.226 106.638 133.037 106.871 133.87 106.944C134.703 107.016 135.542 106.927 136.338 106.682C137.135 106.436 137.873 106.038 138.51 105.512Z" fill="#DEA47A"/>
<path d="M138.126 105.462L138.442 105.197C139.709 104.125 140.502 102.595 140.646 100.942C140.79 99.2878 140.275 97.6439 139.212 96.3682L121.68 75.5014C121.322 75.079 120.812 74.8149 120.26 74.7668C119.708 74.7187 119.16 74.8904 118.735 75.2445L112.017 80.8812C111.595 81.2385 111.331 81.7482 111.283 82.2993C111.235 82.8504 111.407 83.3981 111.761 83.8232L129.286 104.691C129.814 105.324 130.462 105.847 131.193 106.229C131.924 106.61 132.724 106.844 133.545 106.916C134.367 106.987 135.195 106.896 135.981 106.646C136.767 106.397 137.496 105.994 138.126 105.462Z" stroke="#45413C" stroke-width="4" stroke-linecap="round" stroke-linejoin="round"/>
<path d="M108.419 19.2072C115.315 24.3013 119.906 31.9264 121.181 40.4052C122.455 48.8839 120.31 57.5218 115.215 64.4185C110.121 71.3152 102.496 75.9058 94.0175 77.1805C85.5388 78.4551 76.9009 76.3094 70.0042 71.2153C63.1075 66.1213 58.5169 58.4961 57.2422 50.0174C55.9676 41.5386 58.1133 32.9008 63.2074 26.0041C68.3014 19.1074 75.9266 14.5167 84.4053 13.2421C92.8841 11.9674 101.522 14.1131 108.419 19.2072Z" fill="#F0F0F0" fill-opacity="0.5" stroke="#45413C" stroke-width="4" stroke-linecap="round" stroke-linejoin="round"/>
<path d="M106.456 26.3196C108.725 27.9956 110.643 29.9525 111.788 31.7596C112.933 33.5668 113.211 35.0762 112.562 35.9559C111.912 36.8356 110.387 37.0134 108.323 36.4503C106.26 35.8872 103.825 34.6292 101.556 32.9532C99.2869 31.2771 97.3688 29.3203 96.2237 27.5131C95.0786 25.7059 94.8003 24.1965 95.45 23.3168C96.0998 22.4371 97.6243 22.2593 99.6883 22.8224C101.752 23.3855 104.187 24.6435 106.456 26.3196Z" fill="#F0F0F0"/>
</svg>
