<svg viewBox="0 0 12 13" fill="none" xmlns="http://www.w3.org/2000/svg">
<path d="M11.3634 11.1041C11.34 11.4951 11.1722 11.8255 10.8599 12.0953C10.5476 12.3651 10.1846 12.5 9.7708 12.5H2.27609C1.86232 12.5 1.4993 12.3651 1.18702 12.0953C0.874737 11.8255 0.702984 11.4951 0.671756 11.1041L0.00425836 2.32991C-0.0269696 1.82942 0.113556 1.39932 0.425836 1.03959C0.738115 0.679863 1.13627 0.5 1.6203 0.5H10.368C10.8521 0.5 11.2522 0.679863 11.5684 1.03959C11.8845 1.39932 12.027 1.82942 11.9958 2.32991L11.3634 11.1041ZM6.00002 2.00147C5.21933 2.00147 4.49132 2.19501 3.81602 2.58211C3.14072 2.96921 2.6196 3.52639 2.25267 4.25367L4.80556 5.27419L3.85701 3.38563C3.78674 3.30743 3.75161 3.2175 3.75161 3.11584C3.75161 3.01417 3.7887 2.9262 3.86286 2.85191C3.93703 2.77761 4.02486 2.74047 4.12635 2.74047C4.22784 2.74047 4.31371 2.77957 4.38398 2.85777L6.26936 5.01613C6.62849 5.04741 6.92515 5.13734 7.15936 5.28592L9.74738 4.25367C9.38045 3.52639 8.85933 2.96921 8.18403 2.58211C7.50872 2.19501 6.78072 2.00147 6.00002 2.00147Z" fill="#FB8A76"/>
</svg>
