<svg width="24" height="24" viewBox="0 0 24 24" fill="none" xmlns="http://www.w3.org/2000/svg">
    <g opacity="0.5">
        <path fill-rule="evenodd" clip-rule="evenodd"
              d="M17.9256 8.12505C18.2966 8.53455 18.1831 9.16305 17.7306 9.48005L15.2946 11.1891C14.8426 11.5061 14.2246 11.378 13.7781 11.054C13.2755 10.6881 12.6722 10.4862 12.0506 10.476C11.429 10.4658 10.8193 10.6474 10.3046 10.9961C9.84708 11.3056 9.22558 11.4131 8.78458 11.0811L6.40608 9.29205C5.96508 8.96005 5.87208 8.32755 6.25658 7.93105C7.01798 7.14583 7.93232 6.52507 8.94309 6.10715C9.95386 5.68922 11.0396 5.483 12.1332 5.50123C13.2268 5.51946 14.3051 5.76175 15.3013 6.21313C16.2976 6.66451 17.1908 7.31539 17.9256 8.12555V8.12505ZM17.0981 8.70305C16.457 8.02176 15.6859 7.47587 14.8303 7.09764C13.9747 6.71941 13.0519 6.51652 12.1166 6.50095C11.1812 6.48539 10.2523 6.65746 9.38454 7.007C8.51681 7.35654 7.72796 7.87647 7.06458 8.53605L9.38358 10.28C9.40487 10.2851 9.42691 10.2861 9.44858 10.2831C9.52708 10.2761 9.63708 10.2401 9.74358 10.1681C10.4502 9.68936 11.2906 9.44772 12.1436 9.47805C12.1626 9.43805 12.1876 9.40005 12.2181 9.36505L13.5911 7.78605C13.6781 7.68593 13.8013 7.62447 13.9336 7.61519C14.0659 7.6059 14.1965 7.64956 14.2966 7.73655C14.3967 7.82354 14.4582 7.94674 14.4674 8.07905C14.4767 8.21136 14.4331 8.34193 14.3461 8.44205L13.2686 9.68105C13.6612 9.81132 14.0314 10.0014 14.3661 10.2446C14.4701 10.3201 14.5786 10.3595 14.6571 10.3696C14.6951 10.3746 14.7151 10.3711 14.7221 10.3691L17.0981 8.70305ZM14.7266 10.3676L14.7226 10.3691C14.7246 10.3676 14.7261 10.3671 14.7266 10.3676ZM9.37958 10.2785C9.37958 10.2785 9.38108 10.2785 9.38358 10.28L9.37958 10.2785Z"
              fill="#FB8A76"/>
        <path fill-rule="evenodd" clip-rule="evenodd"
              d="M18.1078 21C18.6191 21 19.1109 20.8043 19.4823 20.453C19.8537 20.1016 20.0765 19.6214 20.1048 19.111L20.8828 5.111C20.8979 4.83942 20.8575 4.56762 20.7639 4.31221C20.6704 4.0568 20.5257 3.82315 20.3388 3.62556C20.1519 3.42797 19.9266 3.27058 19.6768 3.16302C19.427 3.05546 19.1578 2.99999 18.8858 3H5.11384C4.84188 3.00006 4.5728 3.05558 4.32303 3.16317C4.07326 3.27076 3.84806 3.42816 3.66119 3.62574C3.47432 3.82333 3.32971 4.05695 3.2362 4.31233C3.14269 4.5677 3.10225 4.83946 3.11734 5.111L3.89484 19.111C3.92321 19.6214 4.14598 20.1016 4.51738 20.453C4.88878 20.8043 5.38061 21 5.89184 21H18.1078ZM5.89184 20H18.1078C18.3635 20 18.6095 19.9021 18.7952 19.7263C18.9809 19.5505 19.0923 19.3103 19.1063 19.055L19.8843 5.055C19.8918 4.91925 19.8715 4.7834 19.8247 4.65576C19.7779 4.52811 19.7056 4.41135 19.6121 4.31261C19.5187 4.21387 19.4061 4.13522 19.2812 4.08147C19.1563 4.02772 19.0218 4 18.8858 4H5.11384C4.97789 4 4.84336 4.02772 4.71848 4.08147C4.5936 4.13522 4.48099 4.21387 4.38754 4.31261C4.29409 4.41135 4.22175 4.52811 4.17495 4.65576C4.12814 4.7834 4.10786 4.91925 4.11534 5.055L4.89334 19.055C4.9074 19.3103 5.01873 19.5505 5.20445 19.7263C5.39016 19.9021 5.63614 20 5.89184 20Z"
              fill="#FB8A76"/>
    </g>
</svg>
