<svg width="10" height="11" viewBox="0 0 10 11" fill="none" xmlns="http://www.w3.org/2000/svg">
<path d="M1.47468 10.1667H8.52601C8.64557 10.1667 8.74801 10.1176 8.83335 10.0193C8.91868 9.92112 8.9529 9.81223 8.93601 9.69268L8.10135 3.84601C8.08401 3.74379 8.0369 3.66045 7.96001 3.59601C7.88312 3.53201 7.79334 3.50001 7.69068 3.50001H2.30868C2.20646 3.50001 2.11668 3.53201 2.03935 3.59601C1.96246 3.66001 1.91557 3.74334 1.89868 3.84601L1.06401 9.69268C1.04712 9.81223 1.08135 9.92112 1.16668 10.0193C1.25201 10.1176 1.35512 10.1667 1.47468 10.1667ZM5.00001 2.83334C5.1889 2.83334 5.34735 2.76934 5.47535 2.64134C5.60335 2.51334 5.66712 2.35512 5.66668 2.16668C5.66623 1.97823 5.60223 1.82001 5.47468 1.69201C5.34712 1.56401 5.1889 1.50001 5.00001 1.50001C4.81112 1.50001 4.6529 1.56401 4.52535 1.69201C4.39779 1.82001 4.33379 1.97823 4.33335 2.16668C4.3329 2.35512 4.3969 2.51357 4.52535 2.64201C4.65379 2.77045 4.81201 2.83423 5.00001 2.83334ZM6.14001 2.83334H7.70401C7.97735 2.83334 8.2129 2.9209 8.41068 3.09601C8.60801 3.27112 8.72579 3.49423 8.76401 3.76534L9.59868 9.61201C9.64579 9.93468 9.56223 10.2189 9.34801 10.4647C9.13423 10.7105 8.86023 10.8333 8.52601 10.8333H1.47401C1.13979 10.8333 0.865568 10.7105 0.651346 10.4647C0.437123 10.2189 0.353568 9.93445 0.400679 9.61134L1.23535 3.76534C1.27401 3.49423 1.39179 3.27112 1.58868 3.09601C1.78735 2.9209 2.02335 2.83334 2.29668 2.83334H3.86135C3.80223 2.73912 3.75512 2.63512 3.72001 2.52134C3.68446 2.40712 3.66668 2.2889 3.66668 2.16668C3.66668 1.79068 3.7949 1.47445 4.05135 1.21801C4.30779 0.961566 4.62401 0.833344 5.00001 0.833344C5.37601 0.833344 5.69223 0.961566 5.94868 1.21801C6.20512 1.47445 6.33335 1.79068 6.33335 2.16668C6.33335 2.2889 6.31579 2.40712 6.28068 2.52134C6.24557 2.63512 6.19868 2.73912 6.14001 2.83334Z" fill="#2CBB69"/>
</svg>
